M48
; DRILL file {KiCad 5.1.6-c6e7f7d~86~ubuntu18.04.1} date Wed Jul 15 12:18:53 2020
; FORMAT={-:-/ absolute / inch / decimal}
; #@! TF.CreationDate,2020-07-15T12:18:53+12:00
; #@! TF.GenerationSoftware,Kicad,Pcbnew,5.1.6-c6e7f7d~86~ubuntu18.04.1
; #@! TF.FileFunction,Plated,1,2,PTH
FMAT,2
INCH
T1C0.0118
T2C0.0157
T3C0.0236
T4C0.0394
T5C0.0512
%
G90
G05
T1
X5.535Y-2.4075
X5.535Y-2.79
X5.535Y-3.1725
X5.535Y-3.5575
X5.535Y-3.9425
X5.535Y-4.325
X5.535Y-4.4375
X5.5923Y-2.3102
X5.5923Y-2.6927
X5.5923Y-3.0752
X5.5923Y-3.4602
X5.5923Y-3.8452
X5.5923Y-4.2277
X5.6525Y-2.4475
X5.6525Y-2.83
X5.6525Y-3.2125
X5.6525Y-3.5975
X5.6525Y-3.9825
X5.6525Y-4.365
X5.6825Y-2.4075
X5.6825Y-2.79
X5.6825Y-3.1725
X5.6825Y-3.5575
X5.6825Y-3.9425
X5.6825Y-4.325
X5.72Y-2.4075
X5.72Y-2.79
X5.72Y-3.1725
X5.72Y-3.5575
X5.72Y-3.9425
X5.72Y-4.325
X5.84Y-2.4075
X5.84Y-2.79
X5.84Y-3.1725
X5.84Y-3.5575
X5.84Y-3.9425
X5.84Y-4.325
X6.1975Y-2.4075
X6.1975Y-2.79
X6.1975Y-3.1725
X6.1975Y-3.5575
X6.1975Y-3.9425
X6.1975Y-4.325
X6.1975Y-4.4375
X6.2548Y-2.3102
X6.2548Y-2.6927
X6.2548Y-3.0752
X6.2548Y-3.4602
X6.2548Y-3.8452
X6.2548Y-4.2277
X6.315Y-2.4475
X6.315Y-2.83
X6.315Y-3.2125
X6.315Y-3.5975
X6.315Y-3.9825
X6.315Y-4.365
X6.345Y-2.4075
X6.345Y-2.79
X6.345Y-3.1725
X6.345Y-3.5575
X6.345Y-3.9425
X6.345Y-4.325
X6.3825Y-2.4075
X6.3825Y-2.79
X6.3825Y-3.1725
X6.3825Y-3.5575
X6.3825Y-3.9425
X6.3825Y-4.325
X6.5025Y-2.4075
X6.5025Y-2.79
X6.5025Y-3.1725
X6.5025Y-3.5575
X6.5025Y-3.9425
X6.5025Y-4.325
X6.5425Y-3.9825
X6.5506Y-3.5969
X6.5544Y-3.2119
X6.5675Y-2.9175
X6.57Y-2.705
X6.5975Y-4.04
T2
X5.535Y-2.2275
X6.155Y-4.545
X6.1975Y-2.2275
X6.285Y-4.44
X6.5725Y-4.44
X6.72Y-4.195
X6.72Y-4.4075
X6.97Y-4.2125
X6.97Y-4.425
T3
X5.7675Y-2.1275
X6.43Y-2.1275
X6.8Y-4.335
X6.8Y-4.5475
T4
X6.7425Y-2.43
X6.7425Y-2.53
X6.7425Y-2.63
X6.7425Y-2.73
X6.7425Y-2.83
X6.7425Y-2.93
X6.7425Y-3.03
X6.7425Y-3.13
X6.7425Y-3.23
X6.7425Y-3.33
X6.7425Y-3.43
X6.7425Y-3.53
X6.7425Y-3.63
X6.7425Y-3.73
X6.7425Y-3.83
X7.3425Y-2.43
X7.3425Y-2.53
X7.3425Y-2.63
X7.3425Y-2.73
X7.3425Y-2.83
X7.3425Y-2.93
X7.3425Y-3.03
X7.3425Y-3.13
X7.3425Y-3.23
X7.3425Y-3.33
X7.3425Y-3.43
X7.3425Y-3.53
X7.3425Y-3.63
X7.3425Y-3.73
X7.3425Y-3.83
T5
X6.755Y-1.905
X6.8825Y-2.1325
X6.2225Y-4.64
X7.25Y-4.22
X6.1075Y-1.91
X6.325Y-1.91
X6.5375Y-1.905
X7.095Y-2.13
X7.25Y-4.4325
X7.3125Y-2.1325
X5.445Y-1.91
X6.48Y-4.6425
T0
M30
