%TF.GenerationSoftware,KiCad,Pcbnew,5.1.6-c6e7f7d~86~ubuntu18.04.1*%
%TF.CreationDate,2020-07-15T12:18:57+12:00*%
%TF.ProjectId,Volume Controller,566f6c75-6d65-4204-936f-6e74726f6c6c,rev?*%
%TF.SameCoordinates,Original*%
%TF.FileFunction,Copper,L1,Top*%
%TF.FilePolarity,Positive*%
%FSLAX46Y46*%
G04 Gerber Fmt 4.6, Leading zero omitted, Abs format (unit mm)*
G04 Created by KiCad (PCBNEW 5.1.6-c6e7f7d~86~ubuntu18.04.1) date 2020-07-15 12:18:57*
%MOMM*%
%LPD*%
G01*
G04 APERTURE LIST*
%TA.AperFunction,ComponentPad*%
%ADD10R,1.600000X1.600000*%
%TD*%
%TA.AperFunction,ComponentPad*%
%ADD11O,1.600000X1.600000*%
%TD*%
%TA.AperFunction,SMDPad,CuDef*%
%ADD12R,1.220000X0.650000*%
%TD*%
%TA.AperFunction,SMDPad,CuDef*%
%ADD13R,1.400000X0.300000*%
%TD*%
%TA.AperFunction,ComponentPad*%
%ADD14C,2.600000*%
%TD*%
%TA.AperFunction,ViaPad*%
%ADD15C,0.600000*%
%TD*%
%TA.AperFunction,ViaPad*%
%ADD16C,0.800000*%
%TD*%
%TA.AperFunction,ViaPad*%
%ADD17C,1.000000*%
%TD*%
%TA.AperFunction,Conductor*%
%ADD18C,0.800000*%
%TD*%
%TA.AperFunction,Conductor*%
%ADD19C,0.250000*%
%TD*%
%TA.AperFunction,Conductor*%
%ADD20C,0.300000*%
%TD*%
%TA.AperFunction,Conductor*%
%ADD21C,0.600000*%
%TD*%
%TA.AperFunction,Conductor*%
%ADD22C,1.000000*%
%TD*%
%TA.AperFunction,Conductor*%
%ADD23C,0.400000*%
%TD*%
G04 APERTURE END LIST*
D10*
%TO.P,A1,1*%
%TO.N,Net-(A1-Pad1)*%
X171259500Y-61722000D03*
D11*
%TO.P,A1,17*%
%TO.N,+3V3*%
X186499500Y-94742000D03*
%TO.P,A1,2*%
%TO.N,Net-(A1-Pad2)*%
X171259500Y-64262000D03*
%TO.P,A1,18*%
%TO.N,Net-(A1-Pad18)*%
X186499500Y-92202000D03*
%TO.P,A1,3*%
%TO.N,Net-(A1-Pad3)*%
X171259500Y-66802000D03*
%TO.P,A1,19*%
%TO.N,Net-(A1-Pad19)*%
X186499500Y-89662000D03*
%TO.P,A1,4*%
%TO.N,GND*%
X171259500Y-69342000D03*
%TO.P,A1,20*%
%TO.N,Net-(A1-Pad20)*%
X186499500Y-87122000D03*
%TO.P,A1,5*%
%TO.N,Net-(A1-Pad5)*%
X171259500Y-71882000D03*
%TO.P,A1,21*%
%TO.N,Net-(A1-Pad21)*%
X186499500Y-84582000D03*
%TO.P,A1,6*%
%TO.N,Net-(A1-Pad6)*%
X171259500Y-74422000D03*
%TO.P,A1,22*%
%TO.N,Net-(A1-Pad22)*%
X186499500Y-82042000D03*
%TO.P,A1,7*%
%TO.N,Net-(A1-Pad7)*%
X171259500Y-76962000D03*
%TO.P,A1,23*%
%TO.N,Net-(A1-Pad23)*%
X186499500Y-79502000D03*
%TO.P,A1,8*%
%TO.N,Net-(A1-Pad8)*%
X171259500Y-79502000D03*
%TO.P,A1,24*%
%TO.N,Net-(A1-Pad24)*%
X186499500Y-76962000D03*
%TO.P,A1,9*%
%TO.N,Net-(A1-Pad9)*%
X171259500Y-82042000D03*
%TO.P,A1,25*%
%TO.N,Net-(A1-Pad25)*%
X186499500Y-74422000D03*
%TO.P,A1,10*%
%TO.N,Net-(A1-Pad10)*%
X171259500Y-84582000D03*
%TO.P,A1,26*%
%TO.N,Net-(A1-Pad26)*%
X186499500Y-71882000D03*
%TO.P,A1,11*%
%TO.N,Net-(A1-Pad11)*%
X171259500Y-87122000D03*
%TO.P,A1,27*%
%TO.N,+5V*%
X186499500Y-69342000D03*
%TO.P,A1,12*%
%TO.N,Net-(A1-Pad12)*%
X171259500Y-89662000D03*
%TO.P,A1,28*%
%TO.N,Net-(A1-Pad28)*%
X186499500Y-66802000D03*
%TO.P,A1,13*%
%TO.N,Net-(A1-Pad13)*%
X171259500Y-92202000D03*
%TO.P,A1,29*%
%TO.N,Net-(A1-Pad29)*%
X186499500Y-64262000D03*
%TO.P,A1,14*%
%TO.N,Net-(A1-Pad14)*%
X171259500Y-94742000D03*
%TO.P,A1,30*%
%TO.N,Net-(A1-Pad30)*%
X186499500Y-61722000D03*
%TO.P,A1,15*%
%TO.N,Net-(A1-Pad15)*%
X171259500Y-97282000D03*
%TO.P,A1,16*%
%TO.N,Net-(A1-Pad16)*%
X186499500Y-97282000D03*
%TD*%
%TO.P,R1,1*%
%TO.N,Net-(R1-Pad1)*%
%TA.AperFunction,SMDPad,CuDef*%
G36*
G01*
X151460500Y-52458000D02*
X152710500Y-52458000D01*
G75*
G02*
X152960500Y-52708000I0J-250000D01*
G01*
X152960500Y-53458000D01*
G75*
G02*
X152710500Y-53708000I-250000J0D01*
G01*
X151460500Y-53708000D01*
G75*
G02*
X151210500Y-53458000I0J250000D01*
G01*
X151210500Y-52708000D01*
G75*
G02*
X151460500Y-52458000I250000J0D01*
G01*
G37*
%TD.AperFunction*%
%TO.P,R1,2*%
%TO.N,Net-(R1-Pad2)*%
%TA.AperFunction,SMDPad,CuDef*%
G36*
G01*
X151460500Y-55258000D02*
X152710500Y-55258000D01*
G75*
G02*
X152960500Y-55508000I0J-250000D01*
G01*
X152960500Y-56258000D01*
G75*
G02*
X152710500Y-56508000I-250000J0D01*
G01*
X151460500Y-56508000D01*
G75*
G02*
X151210500Y-56258000I0J250000D01*
G01*
X151210500Y-55508000D01*
G75*
G02*
X151460500Y-55258000I250000J0D01*
G01*
G37*
%TD.AperFunction*%
%TD*%
%TO.P,R3,1*%
%TO.N,Net-(R1-Pad2)*%
%TA.AperFunction,SMDPad,CuDef*%
G36*
G01*
X151457500Y-57287000D02*
X152707500Y-57287000D01*
G75*
G02*
X152957500Y-57537000I0J-250000D01*
G01*
X152957500Y-58287000D01*
G75*
G02*
X152707500Y-58537000I-250000J0D01*
G01*
X151457500Y-58537000D01*
G75*
G02*
X151207500Y-58287000I0J250000D01*
G01*
X151207500Y-57537000D01*
G75*
G02*
X151457500Y-57287000I250000J0D01*
G01*
G37*
%TD.AperFunction*%
%TO.P,R3,2*%
%TO.N,Net-(R3-Pad2)*%
%TA.AperFunction,SMDPad,CuDef*%
G36*
G01*
X151457500Y-60087000D02*
X152707500Y-60087000D01*
G75*
G02*
X152957500Y-60337000I0J-250000D01*
G01*
X152957500Y-61087000D01*
G75*
G02*
X152707500Y-61337000I-250000J0D01*
G01*
X151457500Y-61337000D01*
G75*
G02*
X151207500Y-61087000I0J250000D01*
G01*
X151207500Y-60337000D01*
G75*
G02*
X151457500Y-60087000I250000J0D01*
G01*
G37*
%TD.AperFunction*%
%TD*%
%TO.P,R5,1*%
%TO.N,Net-(R3-Pad2)*%
%TA.AperFunction,SMDPad,CuDef*%
G36*
G01*
X151457500Y-62113000D02*
X152707500Y-62113000D01*
G75*
G02*
X152957500Y-62363000I0J-250000D01*
G01*
X152957500Y-63113000D01*
G75*
G02*
X152707500Y-63363000I-250000J0D01*
G01*
X151457500Y-63363000D01*
G75*
G02*
X151207500Y-63113000I0J250000D01*
G01*
X151207500Y-62363000D01*
G75*
G02*
X151457500Y-62113000I250000J0D01*
G01*
G37*
%TD.AperFunction*%
%TO.P,R5,2*%
%TO.N,Net-(R5-Pad2)*%
%TA.AperFunction,SMDPad,CuDef*%
G36*
G01*
X151457500Y-64913000D02*
X152707500Y-64913000D01*
G75*
G02*
X152957500Y-65163000I0J-250000D01*
G01*
X152957500Y-65913000D01*
G75*
G02*
X152707500Y-66163000I-250000J0D01*
G01*
X151457500Y-66163000D01*
G75*
G02*
X151207500Y-65913000I0J250000D01*
G01*
X151207500Y-65163000D01*
G75*
G02*
X151457500Y-64913000I250000J0D01*
G01*
G37*
%TD.AperFunction*%
%TD*%
%TO.P,R7,1*%
%TO.N,Net-(R5-Pad2)*%
%TA.AperFunction,SMDPad,CuDef*%
G36*
G01*
X151521000Y-66939000D02*
X152771000Y-66939000D01*
G75*
G02*
X153021000Y-67189000I0J-250000D01*
G01*
X153021000Y-67939000D01*
G75*
G02*
X152771000Y-68189000I-250000J0D01*
G01*
X151521000Y-68189000D01*
G75*
G02*
X151271000Y-67939000I0J250000D01*
G01*
X151271000Y-67189000D01*
G75*
G02*
X151521000Y-66939000I250000J0D01*
G01*
G37*
%TD.AperFunction*%
%TO.P,R7,2*%
%TO.N,Net-(R7-Pad2)*%
%TA.AperFunction,SMDPad,CuDef*%
G36*
G01*
X151521000Y-69739000D02*
X152771000Y-69739000D01*
G75*
G02*
X153021000Y-69989000I0J-250000D01*
G01*
X153021000Y-70739000D01*
G75*
G02*
X152771000Y-70989000I-250000J0D01*
G01*
X151521000Y-70989000D01*
G75*
G02*
X151271000Y-70739000I0J250000D01*
G01*
X151271000Y-69989000D01*
G75*
G02*
X151521000Y-69739000I250000J0D01*
G01*
G37*
%TD.AperFunction*%
%TD*%
%TO.P,R9,2*%
%TO.N,Net-(R10-Pad2)*%
%TA.AperFunction,SMDPad,CuDef*%
G36*
G01*
X151521000Y-74625500D02*
X152771000Y-74625500D01*
G75*
G02*
X153021000Y-74875500I0J-250000D01*
G01*
X153021000Y-75625500D01*
G75*
G02*
X152771000Y-75875500I-250000J0D01*
G01*
X151521000Y-75875500D01*
G75*
G02*
X151271000Y-75625500I0J250000D01*
G01*
X151271000Y-74875500D01*
G75*
G02*
X151521000Y-74625500I250000J0D01*
G01*
G37*
%TD.AperFunction*%
%TO.P,R9,1*%
%TO.N,Net-(R7-Pad2)*%
%TA.AperFunction,SMDPad,CuDef*%
G36*
G01*
X151521000Y-71825500D02*
X152771000Y-71825500D01*
G75*
G02*
X153021000Y-72075500I0J-250000D01*
G01*
X153021000Y-72825500D01*
G75*
G02*
X152771000Y-73075500I-250000J0D01*
G01*
X151521000Y-73075500D01*
G75*
G02*
X151271000Y-72825500I0J250000D01*
G01*
X151271000Y-72075500D01*
G75*
G02*
X151521000Y-71825500I250000J0D01*
G01*
G37*
%TD.AperFunction*%
%TD*%
%TO.P,R11,1*%
%TO.N,Net-(R10-Pad2)*%
%TA.AperFunction,SMDPad,CuDef*%
G36*
G01*
X151521000Y-76715000D02*
X152771000Y-76715000D01*
G75*
G02*
X153021000Y-76965000I0J-250000D01*
G01*
X153021000Y-77715000D01*
G75*
G02*
X152771000Y-77965000I-250000J0D01*
G01*
X151521000Y-77965000D01*
G75*
G02*
X151271000Y-77715000I0J250000D01*
G01*
X151271000Y-76965000D01*
G75*
G02*
X151521000Y-76715000I250000J0D01*
G01*
G37*
%TD.AperFunction*%
%TO.P,R11,2*%
%TO.N,Net-(R11-Pad2)*%
%TA.AperFunction,SMDPad,CuDef*%
G36*
G01*
X151521000Y-79515000D02*
X152771000Y-79515000D01*
G75*
G02*
X153021000Y-79765000I0J-250000D01*
G01*
X153021000Y-80515000D01*
G75*
G02*
X152771000Y-80765000I-250000J0D01*
G01*
X151521000Y-80765000D01*
G75*
G02*
X151271000Y-80515000I0J250000D01*
G01*
X151271000Y-79765000D01*
G75*
G02*
X151521000Y-79515000I250000J0D01*
G01*
G37*
%TD.AperFunction*%
%TD*%
%TO.P,R13,2*%
%TO.N,Net-(R13-Pad2)*%
%TA.AperFunction,SMDPad,CuDef*%
G36*
G01*
X151521000Y-84407500D02*
X152771000Y-84407500D01*
G75*
G02*
X153021000Y-84657500I0J-250000D01*
G01*
X153021000Y-85407500D01*
G75*
G02*
X152771000Y-85657500I-250000J0D01*
G01*
X151521000Y-85657500D01*
G75*
G02*
X151271000Y-85407500I0J250000D01*
G01*
X151271000Y-84657500D01*
G75*
G02*
X151521000Y-84407500I250000J0D01*
G01*
G37*
%TD.AperFunction*%
%TO.P,R13,1*%
%TO.N,Net-(R11-Pad2)*%
%TA.AperFunction,SMDPad,CuDef*%
G36*
G01*
X151521000Y-81607500D02*
X152771000Y-81607500D01*
G75*
G02*
X153021000Y-81857500I0J-250000D01*
G01*
X153021000Y-82607500D01*
G75*
G02*
X152771000Y-82857500I-250000J0D01*
G01*
X151521000Y-82857500D01*
G75*
G02*
X151271000Y-82607500I0J250000D01*
G01*
X151271000Y-81857500D01*
G75*
G02*
X151521000Y-81607500I250000J0D01*
G01*
G37*
%TD.AperFunction*%
%TD*%
%TO.P,R15,2*%
%TO.N,Net-(R15-Pad2)*%
%TA.AperFunction,SMDPad,CuDef*%
G36*
G01*
X151521000Y-89294000D02*
X152771000Y-89294000D01*
G75*
G02*
X153021000Y-89544000I0J-250000D01*
G01*
X153021000Y-90294000D01*
G75*
G02*
X152771000Y-90544000I-250000J0D01*
G01*
X151521000Y-90544000D01*
G75*
G02*
X151271000Y-90294000I0J250000D01*
G01*
X151271000Y-89544000D01*
G75*
G02*
X151521000Y-89294000I250000J0D01*
G01*
G37*
%TD.AperFunction*%
%TO.P,R15,1*%
%TO.N,Net-(R13-Pad2)*%
%TA.AperFunction,SMDPad,CuDef*%
G36*
G01*
X151521000Y-86494000D02*
X152771000Y-86494000D01*
G75*
G02*
X153021000Y-86744000I0J-250000D01*
G01*
X153021000Y-87494000D01*
G75*
G02*
X152771000Y-87744000I-250000J0D01*
G01*
X151521000Y-87744000D01*
G75*
G02*
X151271000Y-87494000I0J250000D01*
G01*
X151271000Y-86744000D01*
G75*
G02*
X151521000Y-86494000I250000J0D01*
G01*
G37*
%TD.AperFunction*%
%TD*%
%TO.P,R17,2*%
%TO.N,Net-(R17-Pad2)*%
%TA.AperFunction,SMDPad,CuDef*%
G36*
G01*
X151521000Y-94186500D02*
X152771000Y-94186500D01*
G75*
G02*
X153021000Y-94436500I0J-250000D01*
G01*
X153021000Y-95186500D01*
G75*
G02*
X152771000Y-95436500I-250000J0D01*
G01*
X151521000Y-95436500D01*
G75*
G02*
X151271000Y-95186500I0J250000D01*
G01*
X151271000Y-94436500D01*
G75*
G02*
X151521000Y-94186500I250000J0D01*
G01*
G37*
%TD.AperFunction*%
%TO.P,R17,1*%
%TO.N,Net-(R15-Pad2)*%
%TA.AperFunction,SMDPad,CuDef*%
G36*
G01*
X151521000Y-91386500D02*
X152771000Y-91386500D01*
G75*
G02*
X153021000Y-91636500I0J-250000D01*
G01*
X153021000Y-92386500D01*
G75*
G02*
X152771000Y-92636500I-250000J0D01*
G01*
X151521000Y-92636500D01*
G75*
G02*
X151271000Y-92386500I0J250000D01*
G01*
X151271000Y-91636500D01*
G75*
G02*
X151521000Y-91386500I250000J0D01*
G01*
G37*
%TD.AperFunction*%
%TD*%
%TO.P,R19,2*%
%TO.N,Net-(R19-Pad2)*%
%TA.AperFunction,SMDPad,CuDef*%
G36*
G01*
X151521000Y-99073000D02*
X152771000Y-99073000D01*
G75*
G02*
X153021000Y-99323000I0J-250000D01*
G01*
X153021000Y-100073000D01*
G75*
G02*
X152771000Y-100323000I-250000J0D01*
G01*
X151521000Y-100323000D01*
G75*
G02*
X151271000Y-100073000I0J250000D01*
G01*
X151271000Y-99323000D01*
G75*
G02*
X151521000Y-99073000I250000J0D01*
G01*
G37*
%TD.AperFunction*%
%TO.P,R19,1*%
%TO.N,Net-(R17-Pad2)*%
%TA.AperFunction,SMDPad,CuDef*%
G36*
G01*
X151521000Y-96273000D02*
X152771000Y-96273000D01*
G75*
G02*
X153021000Y-96523000I0J-250000D01*
G01*
X153021000Y-97273000D01*
G75*
G02*
X152771000Y-97523000I-250000J0D01*
G01*
X151521000Y-97523000D01*
G75*
G02*
X151271000Y-97273000I0J250000D01*
G01*
X151271000Y-96523000D01*
G75*
G02*
X151521000Y-96273000I250000J0D01*
G01*
G37*
%TD.AperFunction*%
%TD*%
%TO.P,R21,2*%
%TO.N,Net-(R21-Pad2)*%
%TA.AperFunction,SMDPad,CuDef*%
G36*
G01*
X151521000Y-103965500D02*
X152771000Y-103965500D01*
G75*
G02*
X153021000Y-104215500I0J-250000D01*
G01*
X153021000Y-104965500D01*
G75*
G02*
X152771000Y-105215500I-250000J0D01*
G01*
X151521000Y-105215500D01*
G75*
G02*
X151271000Y-104965500I0J250000D01*
G01*
X151271000Y-104215500D01*
G75*
G02*
X151521000Y-103965500I250000J0D01*
G01*
G37*
%TD.AperFunction*%
%TO.P,R21,1*%
%TO.N,Net-(R19-Pad2)*%
%TA.AperFunction,SMDPad,CuDef*%
G36*
G01*
X151521000Y-101165500D02*
X152771000Y-101165500D01*
G75*
G02*
X153021000Y-101415500I0J-250000D01*
G01*
X153021000Y-102165500D01*
G75*
G02*
X152771000Y-102415500I-250000J0D01*
G01*
X151521000Y-102415500D01*
G75*
G02*
X151271000Y-102165500I0J250000D01*
G01*
X151271000Y-101415500D01*
G75*
G02*
X151521000Y-101165500I250000J0D01*
G01*
G37*
%TD.AperFunction*%
%TD*%
%TO.P,R23,2*%
%TO.N,Net-(R23-Pad2)*%
%TA.AperFunction,SMDPad,CuDef*%
G36*
G01*
X151521000Y-108791500D02*
X152771000Y-108791500D01*
G75*
G02*
X153021000Y-109041500I0J-250000D01*
G01*
X153021000Y-109791500D01*
G75*
G02*
X152771000Y-110041500I-250000J0D01*
G01*
X151521000Y-110041500D01*
G75*
G02*
X151271000Y-109791500I0J250000D01*
G01*
X151271000Y-109041500D01*
G75*
G02*
X151521000Y-108791500I250000J0D01*
G01*
G37*
%TD.AperFunction*%
%TO.P,R23,1*%
%TO.N,Net-(R21-Pad2)*%
%TA.AperFunction,SMDPad,CuDef*%
G36*
G01*
X151521000Y-105991500D02*
X152771000Y-105991500D01*
G75*
G02*
X153021000Y-106241500I0J-250000D01*
G01*
X153021000Y-106991500D01*
G75*
G02*
X152771000Y-107241500I-250000J0D01*
G01*
X151521000Y-107241500D01*
G75*
G02*
X151271000Y-106991500I0J250000D01*
G01*
X151271000Y-106241500D01*
G75*
G02*
X151521000Y-105991500I250000J0D01*
G01*
G37*
%TD.AperFunction*%
%TD*%
D12*
%TO.P,U1,1*%
%TO.N,Net-(R1-Pad1)*%
X160885500Y-54986000D03*
%TO.P,U1,2*%
%TO.N,GND*%
X160885500Y-54036000D03*
%TO.P,U1,3*%
%TO.N,Net-(U1-Pad3)*%
X160885500Y-53086000D03*
%TO.P,U1,4*%
%TO.N,Net-(R1-Pad1)*%
X158265500Y-53086000D03*
%TO.P,U1,5*%
%TO.N,+3V3*%
X158265500Y-54986000D03*
%TD*%
D13*
%TO.P,U2,10*%
%TO.N,Net-(R2-Pad1)*%
X158940500Y-62150500D03*
%TO.P,U2,9*%
%TO.N,GNDA*%
X158940500Y-61650500D03*
%TO.P,U2,8*%
%TO.N,+3V3*%
X158940500Y-61150500D03*
%TO.P,U2,7*%
%TO.N,GNDA*%
X158940500Y-60650500D03*
%TO.P,U2,6*%
%TO.N,Net-(R4-Pad1)*%
X158940500Y-60150500D03*
%TO.P,U2,5*%
%TO.N,Net-(A1-Pad6)*%
X163340500Y-60150500D03*
%TO.P,U2,4*%
%TO.N,Net-(R25-Pad2)*%
X163340500Y-60650500D03*
%TO.P,U2,3*%
%TO.N,GND*%
X163340500Y-61150500D03*
%TO.P,U2,2*%
%TO.N,Net-(R25-Pad2)*%
X163340500Y-61650500D03*
%TO.P,U2,1*%
%TO.N,Net-(A1-Pad5)*%
X163340500Y-62150500D03*
%TD*%
%TO.P,U3,1*%
%TO.N,Net-(A1-Pad7)*%
X163322000Y-71866000D03*
%TO.P,U3,2*%
%TO.N,Net-(R25-Pad2)*%
X163322000Y-71366000D03*
%TO.P,U3,3*%
%TO.N,GND*%
X163322000Y-70866000D03*
%TO.P,U3,4*%
%TO.N,Net-(R25-Pad2)*%
X163322000Y-70366000D03*
%TO.P,U3,5*%
%TO.N,Net-(A1-Pad8)*%
X163322000Y-69866000D03*
%TO.P,U3,6*%
%TO.N,Net-(R8-Pad1)*%
X158922000Y-69866000D03*
%TO.P,U3,7*%
%TO.N,GNDA*%
X158922000Y-70366000D03*
%TO.P,U3,8*%
%TO.N,+3V3*%
X158922000Y-70866000D03*
%TO.P,U3,9*%
%TO.N,GNDA*%
X158922000Y-71366000D03*
%TO.P,U3,10*%
%TO.N,Net-(R6-Pad1)*%
X158922000Y-71866000D03*
%TD*%
%TO.P,U4,1*%
%TO.N,Net-(A1-Pad9)*%
X163363000Y-81581500D03*
%TO.P,U4,2*%
%TO.N,Net-(R25-Pad2)*%
X163363000Y-81081500D03*
%TO.P,U4,3*%
%TO.N,GND*%
X163363000Y-80581500D03*
%TO.P,U4,4*%
%TO.N,Net-(R25-Pad2)*%
X163363000Y-80081500D03*
%TO.P,U4,5*%
%TO.N,Net-(A1-Pad10)*%
X163363000Y-79581500D03*
%TO.P,U4,6*%
%TO.N,Net-(R12-Pad1)*%
X158963000Y-79581500D03*
%TO.P,U4,7*%
%TO.N,GNDA*%
X158963000Y-80081500D03*
%TO.P,U4,8*%
%TO.N,+3V3*%
X158963000Y-80581500D03*
%TO.P,U4,9*%
%TO.N,GNDA*%
X158963000Y-81081500D03*
%TO.P,U4,10*%
%TO.N,Net-(R10-Pad1)*%
X158963000Y-81581500D03*
%TD*%
%TO.P,U5,1*%
%TO.N,Net-(A1-Pad11)*%
X163363000Y-91360500D03*
%TO.P,U5,2*%
%TO.N,Net-(R25-Pad2)*%
X163363000Y-90860500D03*
%TO.P,U5,3*%
%TO.N,GND*%
X163363000Y-90360500D03*
%TO.P,U5,4*%
%TO.N,Net-(R25-Pad2)*%
X163363000Y-89860500D03*
%TO.P,U5,5*%
%TO.N,Net-(A1-Pad12)*%
X163363000Y-89360500D03*
%TO.P,U5,6*%
%TO.N,Net-(R16-Pad1)*%
X158963000Y-89360500D03*
%TO.P,U5,7*%
%TO.N,GNDA*%
X158963000Y-89860500D03*
%TO.P,U5,8*%
%TO.N,+3V3*%
X158963000Y-90360500D03*
%TO.P,U5,9*%
%TO.N,GNDA*%
X158963000Y-90860500D03*
%TO.P,U5,10*%
%TO.N,Net-(R14-Pad1)*%
X158963000Y-91360500D03*
%TD*%
%TO.P,U6,10*%
%TO.N,Net-(R18-Pad1)*%
X158940500Y-101131500D03*
%TO.P,U6,9*%
%TO.N,GNDA*%
X158940500Y-100631500D03*
%TO.P,U6,8*%
%TO.N,+3V3*%
X158940500Y-100131500D03*
%TO.P,U6,7*%
%TO.N,GNDA*%
X158940500Y-99631500D03*
%TO.P,U6,6*%
%TO.N,Net-(R20-Pad1)*%
X158940500Y-99131500D03*
%TO.P,U6,5*%
%TO.N,Net-(A1-Pad14)*%
X163340500Y-99131500D03*
%TO.P,U6,4*%
%TO.N,Net-(R25-Pad2)*%
X163340500Y-99631500D03*
%TO.P,U6,3*%
%TO.N,GND*%
X163340500Y-100131500D03*
%TO.P,U6,2*%
%TO.N,Net-(R25-Pad2)*%
X163340500Y-100631500D03*
%TO.P,U6,1*%
%TO.N,Net-(A1-Pad13)*%
X163340500Y-101131500D03*
%TD*%
%TO.P,U7,10*%
%TO.N,Net-(R22-Pad1)*%
X158963000Y-110855000D03*
%TO.P,U7,9*%
%TO.N,GNDA*%
X158963000Y-110355000D03*
%TO.P,U7,8*%
%TO.N,+3V3*%
X158963000Y-109855000D03*
%TO.P,U7,7*%
%TO.N,GNDA*%
X158963000Y-109355000D03*
%TO.P,U7,6*%
%TO.N,Net-(R24-Pad1)*%
X158963000Y-108855000D03*
%TO.P,U7,5*%
%TO.N,Net-(A1-Pad16)*%
X163363000Y-108855000D03*
%TO.P,U7,4*%
%TO.N,Net-(R25-Pad2)*%
X163363000Y-109355000D03*
%TO.P,U7,3*%
%TO.N,GND*%
X163363000Y-109855000D03*
%TO.P,U7,2*%
%TO.N,Net-(R25-Pad2)*%
X163363000Y-110355000D03*
%TO.P,U7,1*%
%TO.N,Net-(A1-Pad15)*%
X163363000Y-110855000D03*
%TD*%
D12*
%TO.P,U8,5*%
%TO.N,+3V3*%
X172720000Y-108458000D03*
%TO.P,U8,4*%
%TO.N,Net-(R25-Pad2)*%
X172720000Y-106558000D03*
%TO.P,U8,3*%
%TO.N,GNDA*%
X175340000Y-106558000D03*
%TO.P,U8,2*%
%TO.N,GND*%
X175340000Y-107508000D03*
%TO.P,U8,1*%
%TO.N,Net-(R25-Pad1)*%
X175340000Y-108458000D03*
%TD*%
%TO.P,R8,2*%
%TO.N,Net-(R7-Pad2)*%
%TA.AperFunction,SMDPad,CuDef*%
G36*
G01*
X155142250Y-71308000D02*
X154229750Y-71308000D01*
G75*
G02*
X153986000Y-71064250I0J243750D01*
G01*
X153986000Y-70576750D01*
G75*
G02*
X154229750Y-70333000I243750J0D01*
G01*
X155142250Y-70333000D01*
G75*
G02*
X155386000Y-70576750I0J-243750D01*
G01*
X155386000Y-71064250D01*
G75*
G02*
X155142250Y-71308000I-243750J0D01*
G01*
G37*
%TD.AperFunction*%
%TO.P,R8,1*%
%TO.N,Net-(R8-Pad1)*%
%TA.AperFunction,SMDPad,CuDef*%
G36*
G01*
X155142250Y-73183000D02*
X154229750Y-73183000D01*
G75*
G02*
X153986000Y-72939250I0J243750D01*
G01*
X153986000Y-72451750D01*
G75*
G02*
X154229750Y-72208000I243750J0D01*
G01*
X155142250Y-72208000D01*
G75*
G02*
X155386000Y-72451750I0J-243750D01*
G01*
X155386000Y-72939250D01*
G75*
G02*
X155142250Y-73183000I-243750J0D01*
G01*
G37*
%TD.AperFunction*%
%TD*%
%TO.P,R10,1*%
%TO.N,Net-(R10-Pad1)*%
%TA.AperFunction,SMDPad,CuDef*%
G36*
G01*
X155205750Y-78656000D02*
X154293250Y-78656000D01*
G75*
G02*
X154049500Y-78412250I0J243750D01*
G01*
X154049500Y-77924750D01*
G75*
G02*
X154293250Y-77681000I243750J0D01*
G01*
X155205750Y-77681000D01*
G75*
G02*
X155449500Y-77924750I0J-243750D01*
G01*
X155449500Y-78412250D01*
G75*
G02*
X155205750Y-78656000I-243750J0D01*
G01*
G37*
%TD.AperFunction*%
%TO.P,R10,2*%
%TO.N,Net-(R10-Pad2)*%
%TA.AperFunction,SMDPad,CuDef*%
G36*
G01*
X155205750Y-76781000D02*
X154293250Y-76781000D01*
G75*
G02*
X154049500Y-76537250I0J243750D01*
G01*
X154049500Y-76049750D01*
G75*
G02*
X154293250Y-75806000I243750J0D01*
G01*
X155205750Y-75806000D01*
G75*
G02*
X155449500Y-76049750I0J-243750D01*
G01*
X155449500Y-76537250D01*
G75*
G02*
X155205750Y-76781000I-243750J0D01*
G01*
G37*
%TD.AperFunction*%
%TD*%
%TO.P,R12,1*%
%TO.N,Net-(R12-Pad1)*%
%TA.AperFunction,SMDPad,CuDef*%
G36*
G01*
X155205750Y-82962000D02*
X154293250Y-82962000D01*
G75*
G02*
X154049500Y-82718250I0J243750D01*
G01*
X154049500Y-82230750D01*
G75*
G02*
X154293250Y-81987000I243750J0D01*
G01*
X155205750Y-81987000D01*
G75*
G02*
X155449500Y-82230750I0J-243750D01*
G01*
X155449500Y-82718250D01*
G75*
G02*
X155205750Y-82962000I-243750J0D01*
G01*
G37*
%TD.AperFunction*%
%TO.P,R12,2*%
%TO.N,Net-(R11-Pad2)*%
%TA.AperFunction,SMDPad,CuDef*%
G36*
G01*
X155205750Y-81087000D02*
X154293250Y-81087000D01*
G75*
G02*
X154049500Y-80843250I0J243750D01*
G01*
X154049500Y-80355750D01*
G75*
G02*
X154293250Y-80112000I243750J0D01*
G01*
X155205750Y-80112000D01*
G75*
G02*
X155449500Y-80355750I0J-243750D01*
G01*
X155449500Y-80843250D01*
G75*
G02*
X155205750Y-81087000I-243750J0D01*
G01*
G37*
%TD.AperFunction*%
%TD*%
%TO.P,R14,2*%
%TO.N,Net-(R13-Pad2)*%
%TA.AperFunction,SMDPad,CuDef*%
G36*
G01*
X155205750Y-86496500D02*
X154293250Y-86496500D01*
G75*
G02*
X154049500Y-86252750I0J243750D01*
G01*
X154049500Y-85765250D01*
G75*
G02*
X154293250Y-85521500I243750J0D01*
G01*
X155205750Y-85521500D01*
G75*
G02*
X155449500Y-85765250I0J-243750D01*
G01*
X155449500Y-86252750D01*
G75*
G02*
X155205750Y-86496500I-243750J0D01*
G01*
G37*
%TD.AperFunction*%
%TO.P,R14,1*%
%TO.N,Net-(R14-Pad1)*%
%TA.AperFunction,SMDPad,CuDef*%
G36*
G01*
X155205750Y-88371500D02*
X154293250Y-88371500D01*
G75*
G02*
X154049500Y-88127750I0J243750D01*
G01*
X154049500Y-87640250D01*
G75*
G02*
X154293250Y-87396500I243750J0D01*
G01*
X155205750Y-87396500D01*
G75*
G02*
X155449500Y-87640250I0J-243750D01*
G01*
X155449500Y-88127750D01*
G75*
G02*
X155205750Y-88371500I-243750J0D01*
G01*
G37*
%TD.AperFunction*%
%TD*%
%TO.P,R16,1*%
%TO.N,Net-(R16-Pad1)*%
%TA.AperFunction,SMDPad,CuDef*%
G36*
G01*
X155205750Y-92741000D02*
X154293250Y-92741000D01*
G75*
G02*
X154049500Y-92497250I0J243750D01*
G01*
X154049500Y-92009750D01*
G75*
G02*
X154293250Y-91766000I243750J0D01*
G01*
X155205750Y-91766000D01*
G75*
G02*
X155449500Y-92009750I0J-243750D01*
G01*
X155449500Y-92497250D01*
G75*
G02*
X155205750Y-92741000I-243750J0D01*
G01*
G37*
%TD.AperFunction*%
%TO.P,R16,2*%
%TO.N,Net-(R15-Pad2)*%
%TA.AperFunction,SMDPad,CuDef*%
G36*
G01*
X155205750Y-90866000D02*
X154293250Y-90866000D01*
G75*
G02*
X154049500Y-90622250I0J243750D01*
G01*
X154049500Y-90134750D01*
G75*
G02*
X154293250Y-89891000I243750J0D01*
G01*
X155205750Y-89891000D01*
G75*
G02*
X155449500Y-90134750I0J-243750D01*
G01*
X155449500Y-90622250D01*
G75*
G02*
X155205750Y-90866000I-243750J0D01*
G01*
G37*
%TD.AperFunction*%
%TD*%
%TO.P,R18,1*%
%TO.N,Net-(R18-Pad1)*%
%TA.AperFunction,SMDPad,CuDef*%
G36*
G01*
X155205750Y-98150500D02*
X154293250Y-98150500D01*
G75*
G02*
X154049500Y-97906750I0J243750D01*
G01*
X154049500Y-97419250D01*
G75*
G02*
X154293250Y-97175500I243750J0D01*
G01*
X155205750Y-97175500D01*
G75*
G02*
X155449500Y-97419250I0J-243750D01*
G01*
X155449500Y-97906750D01*
G75*
G02*
X155205750Y-98150500I-243750J0D01*
G01*
G37*
%TD.AperFunction*%
%TO.P,R18,2*%
%TO.N,Net-(R17-Pad2)*%
%TA.AperFunction,SMDPad,CuDef*%
G36*
G01*
X155205750Y-96275500D02*
X154293250Y-96275500D01*
G75*
G02*
X154049500Y-96031750I0J243750D01*
G01*
X154049500Y-95544250D01*
G75*
G02*
X154293250Y-95300500I243750J0D01*
G01*
X155205750Y-95300500D01*
G75*
G02*
X155449500Y-95544250I0J-243750D01*
G01*
X155449500Y-96031750D01*
G75*
G02*
X155205750Y-96275500I-243750J0D01*
G01*
G37*
%TD.AperFunction*%
%TD*%
%TO.P,R20,2*%
%TO.N,Net-(R19-Pad2)*%
%TA.AperFunction,SMDPad,CuDef*%
G36*
G01*
X155205750Y-100645000D02*
X154293250Y-100645000D01*
G75*
G02*
X154049500Y-100401250I0J243750D01*
G01*
X154049500Y-99913750D01*
G75*
G02*
X154293250Y-99670000I243750J0D01*
G01*
X155205750Y-99670000D01*
G75*
G02*
X155449500Y-99913750I0J-243750D01*
G01*
X155449500Y-100401250D01*
G75*
G02*
X155205750Y-100645000I-243750J0D01*
G01*
G37*
%TD.AperFunction*%
%TO.P,R20,1*%
%TO.N,Net-(R20-Pad1)*%
%TA.AperFunction,SMDPad,CuDef*%
G36*
G01*
X155205750Y-102520000D02*
X154293250Y-102520000D01*
G75*
G02*
X154049500Y-102276250I0J243750D01*
G01*
X154049500Y-101788750D01*
G75*
G02*
X154293250Y-101545000I243750J0D01*
G01*
X155205750Y-101545000D01*
G75*
G02*
X155449500Y-101788750I0J-243750D01*
G01*
X155449500Y-102276250D01*
G75*
G02*
X155205750Y-102520000I-243750J0D01*
G01*
G37*
%TD.AperFunction*%
%TD*%
%TO.P,R22,2*%
%TO.N,Net-(R21-Pad2)*%
%TA.AperFunction,SMDPad,CuDef*%
G36*
G01*
X155142250Y-105991000D02*
X154229750Y-105991000D01*
G75*
G02*
X153986000Y-105747250I0J243750D01*
G01*
X153986000Y-105259750D01*
G75*
G02*
X154229750Y-105016000I243750J0D01*
G01*
X155142250Y-105016000D01*
G75*
G02*
X155386000Y-105259750I0J-243750D01*
G01*
X155386000Y-105747250D01*
G75*
G02*
X155142250Y-105991000I-243750J0D01*
G01*
G37*
%TD.AperFunction*%
%TO.P,R22,1*%
%TO.N,Net-(R22-Pad1)*%
%TA.AperFunction,SMDPad,CuDef*%
G36*
G01*
X155142250Y-107866000D02*
X154229750Y-107866000D01*
G75*
G02*
X153986000Y-107622250I0J243750D01*
G01*
X153986000Y-107134750D01*
G75*
G02*
X154229750Y-106891000I243750J0D01*
G01*
X155142250Y-106891000D01*
G75*
G02*
X155386000Y-107134750I0J-243750D01*
G01*
X155386000Y-107622250D01*
G75*
G02*
X155142250Y-107866000I-243750J0D01*
G01*
G37*
%TD.AperFunction*%
%TD*%
%TO.P,R24,1*%
%TO.N,Net-(R24-Pad1)*%
%TA.AperFunction,SMDPad,CuDef*%
G36*
G01*
X155142250Y-112235500D02*
X154229750Y-112235500D01*
G75*
G02*
X153986000Y-111991750I0J243750D01*
G01*
X153986000Y-111504250D01*
G75*
G02*
X154229750Y-111260500I243750J0D01*
G01*
X155142250Y-111260500D01*
G75*
G02*
X155386000Y-111504250I0J-243750D01*
G01*
X155386000Y-111991750D01*
G75*
G02*
X155142250Y-112235500I-243750J0D01*
G01*
G37*
%TD.AperFunction*%
%TO.P,R24,2*%
%TO.N,Net-(R23-Pad2)*%
%TA.AperFunction,SMDPad,CuDef*%
G36*
G01*
X155142250Y-110360500D02*
X154229750Y-110360500D01*
G75*
G02*
X153986000Y-110116750I0J243750D01*
G01*
X153986000Y-109629250D01*
G75*
G02*
X154229750Y-109385500I243750J0D01*
G01*
X155142250Y-109385500D01*
G75*
G02*
X155386000Y-109629250I0J-243750D01*
G01*
X155386000Y-110116750D01*
G75*
G02*
X155142250Y-110360500I-243750J0D01*
G01*
G37*
%TD.AperFunction*%
%TD*%
%TO.P,R2,2*%
%TO.N,Net-(R1-Pad2)*%
%TA.AperFunction,SMDPad,CuDef*%
G36*
G01*
X155142250Y-57199000D02*
X154229750Y-57199000D01*
G75*
G02*
X153986000Y-56955250I0J243750D01*
G01*
X153986000Y-56467750D01*
G75*
G02*
X154229750Y-56224000I243750J0D01*
G01*
X155142250Y-56224000D01*
G75*
G02*
X155386000Y-56467750I0J-243750D01*
G01*
X155386000Y-56955250D01*
G75*
G02*
X155142250Y-57199000I-243750J0D01*
G01*
G37*
%TD.AperFunction*%
%TO.P,R2,1*%
%TO.N,Net-(R2-Pad1)*%
%TA.AperFunction,SMDPad,CuDef*%
G36*
G01*
X155142250Y-59074000D02*
X154229750Y-59074000D01*
G75*
G02*
X153986000Y-58830250I0J243750D01*
G01*
X153986000Y-58342750D01*
G75*
G02*
X154229750Y-58099000I243750J0D01*
G01*
X155142250Y-58099000D01*
G75*
G02*
X155386000Y-58342750I0J-243750D01*
G01*
X155386000Y-58830250D01*
G75*
G02*
X155142250Y-59074000I-243750J0D01*
G01*
G37*
%TD.AperFunction*%
%TD*%
%TO.P,R4,1*%
%TO.N,Net-(R4-Pad1)*%
%TA.AperFunction,SMDPad,CuDef*%
G36*
G01*
X155142250Y-63531000D02*
X154229750Y-63531000D01*
G75*
G02*
X153986000Y-63287250I0J243750D01*
G01*
X153986000Y-62799750D01*
G75*
G02*
X154229750Y-62556000I243750J0D01*
G01*
X155142250Y-62556000D01*
G75*
G02*
X155386000Y-62799750I0J-243750D01*
G01*
X155386000Y-63287250D01*
G75*
G02*
X155142250Y-63531000I-243750J0D01*
G01*
G37*
%TD.AperFunction*%
%TO.P,R4,2*%
%TO.N,Net-(R3-Pad2)*%
%TA.AperFunction,SMDPad,CuDef*%
G36*
G01*
X155142250Y-61656000D02*
X154229750Y-61656000D01*
G75*
G02*
X153986000Y-61412250I0J243750D01*
G01*
X153986000Y-60924750D01*
G75*
G02*
X154229750Y-60681000I243750J0D01*
G01*
X155142250Y-60681000D01*
G75*
G02*
X155386000Y-60924750I0J-243750D01*
G01*
X155386000Y-61412250D01*
G75*
G02*
X155142250Y-61656000I-243750J0D01*
G01*
G37*
%TD.AperFunction*%
%TD*%
%TO.P,R6,1*%
%TO.N,Net-(R6-Pad1)*%
%TA.AperFunction,SMDPad,CuDef*%
G36*
G01*
X155142250Y-68789500D02*
X154229750Y-68789500D01*
G75*
G02*
X153986000Y-68545750I0J243750D01*
G01*
X153986000Y-68058250D01*
G75*
G02*
X154229750Y-67814500I243750J0D01*
G01*
X155142250Y-67814500D01*
G75*
G02*
X155386000Y-68058250I0J-243750D01*
G01*
X155386000Y-68545750D01*
G75*
G02*
X155142250Y-68789500I-243750J0D01*
G01*
G37*
%TD.AperFunction*%
%TO.P,R6,2*%
%TO.N,Net-(R5-Pad2)*%
%TA.AperFunction,SMDPad,CuDef*%
G36*
G01*
X155142250Y-66914500D02*
X154229750Y-66914500D01*
G75*
G02*
X153986000Y-66670750I0J243750D01*
G01*
X153986000Y-66183250D01*
G75*
G02*
X154229750Y-65939500I243750J0D01*
G01*
X155142250Y-65939500D01*
G75*
G02*
X155386000Y-66183250I0J-243750D01*
G01*
X155386000Y-66670750D01*
G75*
G02*
X155142250Y-66914500I-243750J0D01*
G01*
G37*
%TD.AperFunction*%
%TD*%
D14*
%TO.P,+5V1,1*%
%TO.N,+5V*%
X185737500Y-54165500D03*
%TD*%
%TO.P,GND1,1*%
%TO.N,GND*%
X164592000Y-117919500D03*
%TD*%
%TO.P,GNDA1,1*%
%TO.N,GNDA*%
X158051500Y-117856000D03*
%TD*%
%TO.P,J1,1*%
%TO.N,GND*%
X160655000Y-48514000D03*
%TD*%
%TO.P,J2,1*%
%TO.N,Net-(A1-Pad21)*%
X166052500Y-48387000D03*
%TD*%
%TO.P,J3,1*%
%TO.N,Net-(A1-Pad22)*%
X171577000Y-48387000D03*
%TD*%
%TO.P,ModeSelect1,1*%
%TO.N,Net-(A1-Pad19)*%
X174815500Y-54165500D03*
%TD*%
%TO.P,ModeSelect2,1*%
%TO.N,Net-(A1-Pad20)*%
X180213000Y-54102000D03*
%TD*%
%TO.P,R25,1*%
%TO.N,Net-(R25-Pad1)*%
%TA.AperFunction,SMDPad,CuDef*%
G36*
G01*
X179145250Y-107675500D02*
X178232750Y-107675500D01*
G75*
G02*
X177989000Y-107431750I0J243750D01*
G01*
X177989000Y-106944250D01*
G75*
G02*
X178232750Y-106700500I243750J0D01*
G01*
X179145250Y-106700500D01*
G75*
G02*
X179389000Y-106944250I0J-243750D01*
G01*
X179389000Y-107431750D01*
G75*
G02*
X179145250Y-107675500I-243750J0D01*
G01*
G37*
%TD.AperFunction*%
%TO.P,R25,2*%
%TO.N,Net-(R25-Pad2)*%
%TA.AperFunction,SMDPad,CuDef*%
G36*
G01*
X179145250Y-105800500D02*
X178232750Y-105800500D01*
G75*
G02*
X177989000Y-105556750I0J243750D01*
G01*
X177989000Y-105069250D01*
G75*
G02*
X178232750Y-104825500I243750J0D01*
G01*
X179145250Y-104825500D01*
G75*
G02*
X179389000Y-105069250I0J-243750D01*
G01*
X179389000Y-105556750D01*
G75*
G02*
X179145250Y-105800500I-243750J0D01*
G01*
G37*
%TD.AperFunction*%
%TD*%
%TO.P,R26,1*%
%TO.N,Net-(R26-Pad1)*%
%TA.AperFunction,SMDPad,CuDef*%
G36*
G01*
X179145250Y-113058000D02*
X178232750Y-113058000D01*
G75*
G02*
X177989000Y-112814250I0J243750D01*
G01*
X177989000Y-112326750D01*
G75*
G02*
X178232750Y-112083000I243750J0D01*
G01*
X179145250Y-112083000D01*
G75*
G02*
X179389000Y-112326750I0J-243750D01*
G01*
X179389000Y-112814250D01*
G75*
G02*
X179145250Y-113058000I-243750J0D01*
G01*
G37*
%TD.AperFunction*%
%TO.P,R26,2*%
%TO.N,Net-(R26-Pad2)*%
%TA.AperFunction,SMDPad,CuDef*%
G36*
G01*
X179145250Y-111183000D02*
X178232750Y-111183000D01*
G75*
G02*
X177989000Y-110939250I0J243750D01*
G01*
X177989000Y-110451750D01*
G75*
G02*
X178232750Y-110208000I243750J0D01*
G01*
X179145250Y-110208000D01*
G75*
G02*
X179389000Y-110451750I0J-243750D01*
G01*
X179389000Y-110939250D01*
G75*
G02*
X179145250Y-111183000I-243750J0D01*
G01*
G37*
%TD.AperFunction*%
%TD*%
%TO.P,R27,1*%
%TO.N,Net-(R27-Pad1)*%
%TA.AperFunction,SMDPad,CuDef*%
G36*
G01*
X134630000Y-52455000D02*
X135880000Y-52455000D01*
G75*
G02*
X136130000Y-52705000I0J-250000D01*
G01*
X136130000Y-53455000D01*
G75*
G02*
X135880000Y-53705000I-250000J0D01*
G01*
X134630000Y-53705000D01*
G75*
G02*
X134380000Y-53455000I0J250000D01*
G01*
X134380000Y-52705000D01*
G75*
G02*
X134630000Y-52455000I250000J0D01*
G01*
G37*
%TD.AperFunction*%
%TO.P,R27,2*%
%TO.N,Net-(R27-Pad2)*%
%TA.AperFunction,SMDPad,CuDef*%
G36*
G01*
X134630000Y-55255000D02*
X135880000Y-55255000D01*
G75*
G02*
X136130000Y-55505000I0J-250000D01*
G01*
X136130000Y-56255000D01*
G75*
G02*
X135880000Y-56505000I-250000J0D01*
G01*
X134630000Y-56505000D01*
G75*
G02*
X134380000Y-56255000I0J250000D01*
G01*
X134380000Y-55505000D01*
G75*
G02*
X134630000Y-55255000I250000J0D01*
G01*
G37*
%TD.AperFunction*%
%TD*%
%TO.P,R28,2*%
%TO.N,Net-(R27-Pad2)*%
%TA.AperFunction,SMDPad,CuDef*%
G36*
G01*
X138314750Y-57223000D02*
X137402250Y-57223000D01*
G75*
G02*
X137158500Y-56979250I0J243750D01*
G01*
X137158500Y-56491750D01*
G75*
G02*
X137402250Y-56248000I243750J0D01*
G01*
X138314750Y-56248000D01*
G75*
G02*
X138558500Y-56491750I0J-243750D01*
G01*
X138558500Y-56979250D01*
G75*
G02*
X138314750Y-57223000I-243750J0D01*
G01*
G37*
%TD.AperFunction*%
%TO.P,R28,1*%
%TO.N,Net-(R28-Pad1)*%
%TA.AperFunction,SMDPad,CuDef*%
G36*
G01*
X138314750Y-59098000D02*
X137402250Y-59098000D01*
G75*
G02*
X137158500Y-58854250I0J243750D01*
G01*
X137158500Y-58366750D01*
G75*
G02*
X137402250Y-58123000I243750J0D01*
G01*
X138314750Y-58123000D01*
G75*
G02*
X138558500Y-58366750I0J-243750D01*
G01*
X138558500Y-58854250D01*
G75*
G02*
X138314750Y-59098000I-243750J0D01*
G01*
G37*
%TD.AperFunction*%
%TD*%
%TO.P,R29,1*%
%TO.N,Net-(R27-Pad2)*%
%TA.AperFunction,SMDPad,CuDef*%
G36*
G01*
X134630000Y-57287000D02*
X135880000Y-57287000D01*
G75*
G02*
X136130000Y-57537000I0J-250000D01*
G01*
X136130000Y-58287000D01*
G75*
G02*
X135880000Y-58537000I-250000J0D01*
G01*
X134630000Y-58537000D01*
G75*
G02*
X134380000Y-58287000I0J250000D01*
G01*
X134380000Y-57537000D01*
G75*
G02*
X134630000Y-57287000I250000J0D01*
G01*
G37*
%TD.AperFunction*%
%TO.P,R29,2*%
%TO.N,Net-(R29-Pad2)*%
%TA.AperFunction,SMDPad,CuDef*%
G36*
G01*
X134630000Y-60087000D02*
X135880000Y-60087000D01*
G75*
G02*
X136130000Y-60337000I0J-250000D01*
G01*
X136130000Y-61087000D01*
G75*
G02*
X135880000Y-61337000I-250000J0D01*
G01*
X134630000Y-61337000D01*
G75*
G02*
X134380000Y-61087000I0J250000D01*
G01*
X134380000Y-60337000D01*
G75*
G02*
X134630000Y-60087000I250000J0D01*
G01*
G37*
%TD.AperFunction*%
%TD*%
%TO.P,R30,1*%
%TO.N,Net-(R30-Pad1)*%
%TA.AperFunction,SMDPad,CuDef*%
G36*
G01*
X138314750Y-63289000D02*
X137402250Y-63289000D01*
G75*
G02*
X137158500Y-63045250I0J243750D01*
G01*
X137158500Y-62557750D01*
G75*
G02*
X137402250Y-62314000I243750J0D01*
G01*
X138314750Y-62314000D01*
G75*
G02*
X138558500Y-62557750I0J-243750D01*
G01*
X138558500Y-63045250D01*
G75*
G02*
X138314750Y-63289000I-243750J0D01*
G01*
G37*
%TD.AperFunction*%
%TO.P,R30,2*%
%TO.N,Net-(R29-Pad2)*%
%TA.AperFunction,SMDPad,CuDef*%
G36*
G01*
X138314750Y-61414000D02*
X137402250Y-61414000D01*
G75*
G02*
X137158500Y-61170250I0J243750D01*
G01*
X137158500Y-60682750D01*
G75*
G02*
X137402250Y-60439000I243750J0D01*
G01*
X138314750Y-60439000D01*
G75*
G02*
X138558500Y-60682750I0J-243750D01*
G01*
X138558500Y-61170250D01*
G75*
G02*
X138314750Y-61414000I-243750J0D01*
G01*
G37*
%TD.AperFunction*%
%TD*%
%TO.P,R31,2*%
%TO.N,Net-(R31-Pad2)*%
%TA.AperFunction,SMDPad,CuDef*%
G36*
G01*
X134630000Y-64913000D02*
X135880000Y-64913000D01*
G75*
G02*
X136130000Y-65163000I0J-250000D01*
G01*
X136130000Y-65913000D01*
G75*
G02*
X135880000Y-66163000I-250000J0D01*
G01*
X134630000Y-66163000D01*
G75*
G02*
X134380000Y-65913000I0J250000D01*
G01*
X134380000Y-65163000D01*
G75*
G02*
X134630000Y-64913000I250000J0D01*
G01*
G37*
%TD.AperFunction*%
%TO.P,R31,1*%
%TO.N,Net-(R29-Pad2)*%
%TA.AperFunction,SMDPad,CuDef*%
G36*
G01*
X134630000Y-62113000D02*
X135880000Y-62113000D01*
G75*
G02*
X136130000Y-62363000I0J-250000D01*
G01*
X136130000Y-63113000D01*
G75*
G02*
X135880000Y-63363000I-250000J0D01*
G01*
X134630000Y-63363000D01*
G75*
G02*
X134380000Y-63113000I0J250000D01*
G01*
X134380000Y-62363000D01*
G75*
G02*
X134630000Y-62113000I250000J0D01*
G01*
G37*
%TD.AperFunction*%
%TD*%
%TO.P,R32,2*%
%TO.N,Net-(R31-Pad2)*%
%TA.AperFunction,SMDPad,CuDef*%
G36*
G01*
X138314750Y-66972000D02*
X137402250Y-66972000D01*
G75*
G02*
X137158500Y-66728250I0J243750D01*
G01*
X137158500Y-66240750D01*
G75*
G02*
X137402250Y-65997000I243750J0D01*
G01*
X138314750Y-65997000D01*
G75*
G02*
X138558500Y-66240750I0J-243750D01*
G01*
X138558500Y-66728250D01*
G75*
G02*
X138314750Y-66972000I-243750J0D01*
G01*
G37*
%TD.AperFunction*%
%TO.P,R32,1*%
%TO.N,Net-(R32-Pad1)*%
%TA.AperFunction,SMDPad,CuDef*%
G36*
G01*
X138314750Y-68847000D02*
X137402250Y-68847000D01*
G75*
G02*
X137158500Y-68603250I0J243750D01*
G01*
X137158500Y-68115750D01*
G75*
G02*
X137402250Y-67872000I243750J0D01*
G01*
X138314750Y-67872000D01*
G75*
G02*
X138558500Y-68115750I0J-243750D01*
G01*
X138558500Y-68603250D01*
G75*
G02*
X138314750Y-68847000I-243750J0D01*
G01*
G37*
%TD.AperFunction*%
%TD*%
%TO.P,R33,2*%
%TO.N,Net-(R33-Pad2)*%
%TA.AperFunction,SMDPad,CuDef*%
G36*
G01*
X134630000Y-69736000D02*
X135880000Y-69736000D01*
G75*
G02*
X136130000Y-69986000I0J-250000D01*
G01*
X136130000Y-70736000D01*
G75*
G02*
X135880000Y-70986000I-250000J0D01*
G01*
X134630000Y-70986000D01*
G75*
G02*
X134380000Y-70736000I0J250000D01*
G01*
X134380000Y-69986000D01*
G75*
G02*
X134630000Y-69736000I250000J0D01*
G01*
G37*
%TD.AperFunction*%
%TO.P,R33,1*%
%TO.N,Net-(R31-Pad2)*%
%TA.AperFunction,SMDPad,CuDef*%
G36*
G01*
X134630000Y-66936000D02*
X135880000Y-66936000D01*
G75*
G02*
X136130000Y-67186000I0J-250000D01*
G01*
X136130000Y-67936000D01*
G75*
G02*
X135880000Y-68186000I-250000J0D01*
G01*
X134630000Y-68186000D01*
G75*
G02*
X134380000Y-67936000I0J250000D01*
G01*
X134380000Y-67186000D01*
G75*
G02*
X134630000Y-66936000I250000J0D01*
G01*
G37*
%TD.AperFunction*%
%TD*%
%TO.P,R34,2*%
%TO.N,Net-(R33-Pad2)*%
%TA.AperFunction,SMDPad,CuDef*%
G36*
G01*
X138314750Y-71305000D02*
X137402250Y-71305000D01*
G75*
G02*
X137158500Y-71061250I0J243750D01*
G01*
X137158500Y-70573750D01*
G75*
G02*
X137402250Y-70330000I243750J0D01*
G01*
X138314750Y-70330000D01*
G75*
G02*
X138558500Y-70573750I0J-243750D01*
G01*
X138558500Y-71061250D01*
G75*
G02*
X138314750Y-71305000I-243750J0D01*
G01*
G37*
%TD.AperFunction*%
%TO.P,R34,1*%
%TO.N,Net-(R34-Pad1)*%
%TA.AperFunction,SMDPad,CuDef*%
G36*
G01*
X138314750Y-73180000D02*
X137402250Y-73180000D01*
G75*
G02*
X137158500Y-72936250I0J243750D01*
G01*
X137158500Y-72448750D01*
G75*
G02*
X137402250Y-72205000I243750J0D01*
G01*
X138314750Y-72205000D01*
G75*
G02*
X138558500Y-72448750I0J-243750D01*
G01*
X138558500Y-72936250D01*
G75*
G02*
X138314750Y-73180000I-243750J0D01*
G01*
G37*
%TD.AperFunction*%
%TD*%
%TO.P,R35,1*%
%TO.N,Net-(R33-Pad2)*%
%TA.AperFunction,SMDPad,CuDef*%
G36*
G01*
X134630000Y-71825500D02*
X135880000Y-71825500D01*
G75*
G02*
X136130000Y-72075500I0J-250000D01*
G01*
X136130000Y-72825500D01*
G75*
G02*
X135880000Y-73075500I-250000J0D01*
G01*
X134630000Y-73075500D01*
G75*
G02*
X134380000Y-72825500I0J250000D01*
G01*
X134380000Y-72075500D01*
G75*
G02*
X134630000Y-71825500I250000J0D01*
G01*
G37*
%TD.AperFunction*%
%TO.P,R35,2*%
%TO.N,Net-(R35-Pad2)*%
%TA.AperFunction,SMDPad,CuDef*%
G36*
G01*
X134630000Y-74625500D02*
X135880000Y-74625500D01*
G75*
G02*
X136130000Y-74875500I0J-250000D01*
G01*
X136130000Y-75625500D01*
G75*
G02*
X135880000Y-75875500I-250000J0D01*
G01*
X134630000Y-75875500D01*
G75*
G02*
X134380000Y-75625500I0J250000D01*
G01*
X134380000Y-74875500D01*
G75*
G02*
X134630000Y-74625500I250000J0D01*
G01*
G37*
%TD.AperFunction*%
%TD*%
%TO.P,R36,1*%
%TO.N,Net-(R36-Pad1)*%
%TA.AperFunction,SMDPad,CuDef*%
G36*
G01*
X138378250Y-78577500D02*
X137465750Y-78577500D01*
G75*
G02*
X137222000Y-78333750I0J243750D01*
G01*
X137222000Y-77846250D01*
G75*
G02*
X137465750Y-77602500I243750J0D01*
G01*
X138378250Y-77602500D01*
G75*
G02*
X138622000Y-77846250I0J-243750D01*
G01*
X138622000Y-78333750D01*
G75*
G02*
X138378250Y-78577500I-243750J0D01*
G01*
G37*
%TD.AperFunction*%
%TO.P,R36,2*%
%TO.N,Net-(R35-Pad2)*%
%TA.AperFunction,SMDPad,CuDef*%
G36*
G01*
X138378250Y-76702500D02*
X137465750Y-76702500D01*
G75*
G02*
X137222000Y-76458750I0J243750D01*
G01*
X137222000Y-75971250D01*
G75*
G02*
X137465750Y-75727500I243750J0D01*
G01*
X138378250Y-75727500D01*
G75*
G02*
X138622000Y-75971250I0J-243750D01*
G01*
X138622000Y-76458750D01*
G75*
G02*
X138378250Y-76702500I-243750J0D01*
G01*
G37*
%TD.AperFunction*%
%TD*%
%TO.P,R37,2*%
%TO.N,Net-(R37-Pad2)*%
%TA.AperFunction,SMDPad,CuDef*%
G36*
G01*
X134630000Y-79515000D02*
X135880000Y-79515000D01*
G75*
G02*
X136130000Y-79765000I0J-250000D01*
G01*
X136130000Y-80515000D01*
G75*
G02*
X135880000Y-80765000I-250000J0D01*
G01*
X134630000Y-80765000D01*
G75*
G02*
X134380000Y-80515000I0J250000D01*
G01*
X134380000Y-79765000D01*
G75*
G02*
X134630000Y-79515000I250000J0D01*
G01*
G37*
%TD.AperFunction*%
%TO.P,R37,1*%
%TO.N,Net-(R35-Pad2)*%
%TA.AperFunction,SMDPad,CuDef*%
G36*
G01*
X134630000Y-76715000D02*
X135880000Y-76715000D01*
G75*
G02*
X136130000Y-76965000I0J-250000D01*
G01*
X136130000Y-77715000D01*
G75*
G02*
X135880000Y-77965000I-250000J0D01*
G01*
X134630000Y-77965000D01*
G75*
G02*
X134380000Y-77715000I0J250000D01*
G01*
X134380000Y-76965000D01*
G75*
G02*
X134630000Y-76715000I250000J0D01*
G01*
G37*
%TD.AperFunction*%
%TD*%
%TO.P,R38,2*%
%TO.N,Net-(R37-Pad2)*%
%TA.AperFunction,SMDPad,CuDef*%
G36*
G01*
X138378250Y-81147500D02*
X137465750Y-81147500D01*
G75*
G02*
X137222000Y-80903750I0J243750D01*
G01*
X137222000Y-80416250D01*
G75*
G02*
X137465750Y-80172500I243750J0D01*
G01*
X138378250Y-80172500D01*
G75*
G02*
X138622000Y-80416250I0J-243750D01*
G01*
X138622000Y-80903750D01*
G75*
G02*
X138378250Y-81147500I-243750J0D01*
G01*
G37*
%TD.AperFunction*%
%TO.P,R38,1*%
%TO.N,Net-(R38-Pad1)*%
%TA.AperFunction,SMDPad,CuDef*%
G36*
G01*
X138378250Y-83022500D02*
X137465750Y-83022500D01*
G75*
G02*
X137222000Y-82778750I0J243750D01*
G01*
X137222000Y-82291250D01*
G75*
G02*
X137465750Y-82047500I243750J0D01*
G01*
X138378250Y-82047500D01*
G75*
G02*
X138622000Y-82291250I0J-243750D01*
G01*
X138622000Y-82778750D01*
G75*
G02*
X138378250Y-83022500I-243750J0D01*
G01*
G37*
%TD.AperFunction*%
%TD*%
%TO.P,R39,1*%
%TO.N,Net-(R37-Pad2)*%
%TA.AperFunction,SMDPad,CuDef*%
G36*
G01*
X134630000Y-81604500D02*
X135880000Y-81604500D01*
G75*
G02*
X136130000Y-81854500I0J-250000D01*
G01*
X136130000Y-82604500D01*
G75*
G02*
X135880000Y-82854500I-250000J0D01*
G01*
X134630000Y-82854500D01*
G75*
G02*
X134380000Y-82604500I0J250000D01*
G01*
X134380000Y-81854500D01*
G75*
G02*
X134630000Y-81604500I250000J0D01*
G01*
G37*
%TD.AperFunction*%
%TO.P,R39,2*%
%TO.N,Net-(R39-Pad2)*%
%TA.AperFunction,SMDPad,CuDef*%
G36*
G01*
X134630000Y-84404500D02*
X135880000Y-84404500D01*
G75*
G02*
X136130000Y-84654500I0J-250000D01*
G01*
X136130000Y-85404500D01*
G75*
G02*
X135880000Y-85654500I-250000J0D01*
G01*
X134630000Y-85654500D01*
G75*
G02*
X134380000Y-85404500I0J250000D01*
G01*
X134380000Y-84654500D01*
G75*
G02*
X134630000Y-84404500I250000J0D01*
G01*
G37*
%TD.AperFunction*%
%TD*%
%TO.P,R40,1*%
%TO.N,Net-(R40-Pad1)*%
%TA.AperFunction,SMDPad,CuDef*%
G36*
G01*
X138378250Y-88356500D02*
X137465750Y-88356500D01*
G75*
G02*
X137222000Y-88112750I0J243750D01*
G01*
X137222000Y-87625250D01*
G75*
G02*
X137465750Y-87381500I243750J0D01*
G01*
X138378250Y-87381500D01*
G75*
G02*
X138622000Y-87625250I0J-243750D01*
G01*
X138622000Y-88112750D01*
G75*
G02*
X138378250Y-88356500I-243750J0D01*
G01*
G37*
%TD.AperFunction*%
%TO.P,R40,2*%
%TO.N,Net-(R39-Pad2)*%
%TA.AperFunction,SMDPad,CuDef*%
G36*
G01*
X138378250Y-86481500D02*
X137465750Y-86481500D01*
G75*
G02*
X137222000Y-86237750I0J243750D01*
G01*
X137222000Y-85750250D01*
G75*
G02*
X137465750Y-85506500I243750J0D01*
G01*
X138378250Y-85506500D01*
G75*
G02*
X138622000Y-85750250I0J-243750D01*
G01*
X138622000Y-86237750D01*
G75*
G02*
X138378250Y-86481500I-243750J0D01*
G01*
G37*
%TD.AperFunction*%
%TD*%
%TO.P,R41,2*%
%TO.N,Net-(R41-Pad2)*%
%TA.AperFunction,SMDPad,CuDef*%
G36*
G01*
X134630000Y-89297000D02*
X135880000Y-89297000D01*
G75*
G02*
X136130000Y-89547000I0J-250000D01*
G01*
X136130000Y-90297000D01*
G75*
G02*
X135880000Y-90547000I-250000J0D01*
G01*
X134630000Y-90547000D01*
G75*
G02*
X134380000Y-90297000I0J250000D01*
G01*
X134380000Y-89547000D01*
G75*
G02*
X134630000Y-89297000I250000J0D01*
G01*
G37*
%TD.AperFunction*%
%TO.P,R41,1*%
%TO.N,Net-(R39-Pad2)*%
%TA.AperFunction,SMDPad,CuDef*%
G36*
G01*
X134630000Y-86497000D02*
X135880000Y-86497000D01*
G75*
G02*
X136130000Y-86747000I0J-250000D01*
G01*
X136130000Y-87497000D01*
G75*
G02*
X135880000Y-87747000I-250000J0D01*
G01*
X134630000Y-87747000D01*
G75*
G02*
X134380000Y-87497000I0J250000D01*
G01*
X134380000Y-86747000D01*
G75*
G02*
X134630000Y-86497000I250000J0D01*
G01*
G37*
%TD.AperFunction*%
%TD*%
%TO.P,R42,2*%
%TO.N,Net-(R41-Pad2)*%
%TA.AperFunction,SMDPad,CuDef*%
G36*
G01*
X138378250Y-90814500D02*
X137465750Y-90814500D01*
G75*
G02*
X137222000Y-90570750I0J243750D01*
G01*
X137222000Y-90083250D01*
G75*
G02*
X137465750Y-89839500I243750J0D01*
G01*
X138378250Y-89839500D01*
G75*
G02*
X138622000Y-90083250I0J-243750D01*
G01*
X138622000Y-90570750D01*
G75*
G02*
X138378250Y-90814500I-243750J0D01*
G01*
G37*
%TD.AperFunction*%
%TO.P,R42,1*%
%TO.N,Net-(R42-Pad1)*%
%TA.AperFunction,SMDPad,CuDef*%
G36*
G01*
X138378250Y-92689500D02*
X137465750Y-92689500D01*
G75*
G02*
X137222000Y-92445750I0J243750D01*
G01*
X137222000Y-91958250D01*
G75*
G02*
X137465750Y-91714500I243750J0D01*
G01*
X138378250Y-91714500D01*
G75*
G02*
X138622000Y-91958250I0J-243750D01*
G01*
X138622000Y-92445750D01*
G75*
G02*
X138378250Y-92689500I-243750J0D01*
G01*
G37*
%TD.AperFunction*%
%TD*%
%TO.P,R43,1*%
%TO.N,Net-(R41-Pad2)*%
%TA.AperFunction,SMDPad,CuDef*%
G36*
G01*
X134630000Y-91383500D02*
X135880000Y-91383500D01*
G75*
G02*
X136130000Y-91633500I0J-250000D01*
G01*
X136130000Y-92383500D01*
G75*
G02*
X135880000Y-92633500I-250000J0D01*
G01*
X134630000Y-92633500D01*
G75*
G02*
X134380000Y-92383500I0J250000D01*
G01*
X134380000Y-91633500D01*
G75*
G02*
X134630000Y-91383500I250000J0D01*
G01*
G37*
%TD.AperFunction*%
%TO.P,R43,2*%
%TO.N,Net-(R43-Pad2)*%
%TA.AperFunction,SMDPad,CuDef*%
G36*
G01*
X134630000Y-94183500D02*
X135880000Y-94183500D01*
G75*
G02*
X136130000Y-94433500I0J-250000D01*
G01*
X136130000Y-95183500D01*
G75*
G02*
X135880000Y-95433500I-250000J0D01*
G01*
X134630000Y-95433500D01*
G75*
G02*
X134380000Y-95183500I0J250000D01*
G01*
X134380000Y-94433500D01*
G75*
G02*
X134630000Y-94183500I250000J0D01*
G01*
G37*
%TD.AperFunction*%
%TD*%
%TO.P,R44,1*%
%TO.N,Net-(R44-Pad1)*%
%TA.AperFunction,SMDPad,CuDef*%
G36*
G01*
X138378250Y-98135500D02*
X137465750Y-98135500D01*
G75*
G02*
X137222000Y-97891750I0J243750D01*
G01*
X137222000Y-97404250D01*
G75*
G02*
X137465750Y-97160500I243750J0D01*
G01*
X138378250Y-97160500D01*
G75*
G02*
X138622000Y-97404250I0J-243750D01*
G01*
X138622000Y-97891750D01*
G75*
G02*
X138378250Y-98135500I-243750J0D01*
G01*
G37*
%TD.AperFunction*%
%TO.P,R44,2*%
%TO.N,Net-(R43-Pad2)*%
%TA.AperFunction,SMDPad,CuDef*%
G36*
G01*
X138378250Y-96260500D02*
X137465750Y-96260500D01*
G75*
G02*
X137222000Y-96016750I0J243750D01*
G01*
X137222000Y-95529250D01*
G75*
G02*
X137465750Y-95285500I243750J0D01*
G01*
X138378250Y-95285500D01*
G75*
G02*
X138622000Y-95529250I0J-243750D01*
G01*
X138622000Y-96016750D01*
G75*
G02*
X138378250Y-96260500I-243750J0D01*
G01*
G37*
%TD.AperFunction*%
%TD*%
%TO.P,R45,1*%
%TO.N,Net-(R43-Pad2)*%
%TA.AperFunction,SMDPad,CuDef*%
G36*
G01*
X134630000Y-96273000D02*
X135880000Y-96273000D01*
G75*
G02*
X136130000Y-96523000I0J-250000D01*
G01*
X136130000Y-97273000D01*
G75*
G02*
X135880000Y-97523000I-250000J0D01*
G01*
X134630000Y-97523000D01*
G75*
G02*
X134380000Y-97273000I0J250000D01*
G01*
X134380000Y-96523000D01*
G75*
G02*
X134630000Y-96273000I250000J0D01*
G01*
G37*
%TD.AperFunction*%
%TO.P,R45,2*%
%TO.N,Net-(R45-Pad2)*%
%TA.AperFunction,SMDPad,CuDef*%
G36*
G01*
X134630000Y-99073000D02*
X135880000Y-99073000D01*
G75*
G02*
X136130000Y-99323000I0J-250000D01*
G01*
X136130000Y-100073000D01*
G75*
G02*
X135880000Y-100323000I-250000J0D01*
G01*
X134630000Y-100323000D01*
G75*
G02*
X134380000Y-100073000I0J250000D01*
G01*
X134380000Y-99323000D01*
G75*
G02*
X134630000Y-99073000I250000J0D01*
G01*
G37*
%TD.AperFunction*%
%TD*%
%TO.P,R46,2*%
%TO.N,Net-(R45-Pad2)*%
%TA.AperFunction,SMDPad,CuDef*%
G36*
G01*
X138378250Y-100627000D02*
X137465750Y-100627000D01*
G75*
G02*
X137222000Y-100383250I0J243750D01*
G01*
X137222000Y-99895750D01*
G75*
G02*
X137465750Y-99652000I243750J0D01*
G01*
X138378250Y-99652000D01*
G75*
G02*
X138622000Y-99895750I0J-243750D01*
G01*
X138622000Y-100383250D01*
G75*
G02*
X138378250Y-100627000I-243750J0D01*
G01*
G37*
%TD.AperFunction*%
%TO.P,R46,1*%
%TO.N,Net-(R46-Pad1)*%
%TA.AperFunction,SMDPad,CuDef*%
G36*
G01*
X138378250Y-102502000D02*
X137465750Y-102502000D01*
G75*
G02*
X137222000Y-102258250I0J243750D01*
G01*
X137222000Y-101770750D01*
G75*
G02*
X137465750Y-101527000I243750J0D01*
G01*
X138378250Y-101527000D01*
G75*
G02*
X138622000Y-101770750I0J-243750D01*
G01*
X138622000Y-102258250D01*
G75*
G02*
X138378250Y-102502000I-243750J0D01*
G01*
G37*
%TD.AperFunction*%
%TD*%
%TO.P,R47,2*%
%TO.N,Net-(R47-Pad2)*%
%TA.AperFunction,SMDPad,CuDef*%
G36*
G01*
X134630000Y-103962500D02*
X135880000Y-103962500D01*
G75*
G02*
X136130000Y-104212500I0J-250000D01*
G01*
X136130000Y-104962500D01*
G75*
G02*
X135880000Y-105212500I-250000J0D01*
G01*
X134630000Y-105212500D01*
G75*
G02*
X134380000Y-104962500I0J250000D01*
G01*
X134380000Y-104212500D01*
G75*
G02*
X134630000Y-103962500I250000J0D01*
G01*
G37*
%TD.AperFunction*%
%TO.P,R47,1*%
%TO.N,Net-(R45-Pad2)*%
%TA.AperFunction,SMDPad,CuDef*%
G36*
G01*
X134630000Y-101162500D02*
X135880000Y-101162500D01*
G75*
G02*
X136130000Y-101412500I0J-250000D01*
G01*
X136130000Y-102162500D01*
G75*
G02*
X135880000Y-102412500I-250000J0D01*
G01*
X134630000Y-102412500D01*
G75*
G02*
X134380000Y-102162500I0J250000D01*
G01*
X134380000Y-101412500D01*
G75*
G02*
X134630000Y-101162500I250000J0D01*
G01*
G37*
%TD.AperFunction*%
%TD*%
%TO.P,R48,1*%
%TO.N,Net-(R48-Pad1)*%
%TA.AperFunction,SMDPad,CuDef*%
G36*
G01*
X138441750Y-107899500D02*
X137529250Y-107899500D01*
G75*
G02*
X137285500Y-107655750I0J243750D01*
G01*
X137285500Y-107168250D01*
G75*
G02*
X137529250Y-106924500I243750J0D01*
G01*
X138441750Y-106924500D01*
G75*
G02*
X138685500Y-107168250I0J-243750D01*
G01*
X138685500Y-107655750D01*
G75*
G02*
X138441750Y-107899500I-243750J0D01*
G01*
G37*
%TD.AperFunction*%
%TO.P,R48,2*%
%TO.N,Net-(R47-Pad2)*%
%TA.AperFunction,SMDPad,CuDef*%
G36*
G01*
X138441750Y-106024500D02*
X137529250Y-106024500D01*
G75*
G02*
X137285500Y-105780750I0J243750D01*
G01*
X137285500Y-105293250D01*
G75*
G02*
X137529250Y-105049500I243750J0D01*
G01*
X138441750Y-105049500D01*
G75*
G02*
X138685500Y-105293250I0J-243750D01*
G01*
X138685500Y-105780750D01*
G75*
G02*
X138441750Y-106024500I-243750J0D01*
G01*
G37*
%TD.AperFunction*%
%TD*%
%TO.P,R49,2*%
%TO.N,Net-(R49-Pad2)*%
%TA.AperFunction,SMDPad,CuDef*%
G36*
G01*
X134630000Y-108791500D02*
X135880000Y-108791500D01*
G75*
G02*
X136130000Y-109041500I0J-250000D01*
G01*
X136130000Y-109791500D01*
G75*
G02*
X135880000Y-110041500I-250000J0D01*
G01*
X134630000Y-110041500D01*
G75*
G02*
X134380000Y-109791500I0J250000D01*
G01*
X134380000Y-109041500D01*
G75*
G02*
X134630000Y-108791500I250000J0D01*
G01*
G37*
%TD.AperFunction*%
%TO.P,R49,1*%
%TO.N,Net-(R47-Pad2)*%
%TA.AperFunction,SMDPad,CuDef*%
G36*
G01*
X134630000Y-105991500D02*
X135880000Y-105991500D01*
G75*
G02*
X136130000Y-106241500I0J-250000D01*
G01*
X136130000Y-106991500D01*
G75*
G02*
X135880000Y-107241500I-250000J0D01*
G01*
X134630000Y-107241500D01*
G75*
G02*
X134380000Y-106991500I0J250000D01*
G01*
X134380000Y-106241500D01*
G75*
G02*
X134630000Y-105991500I250000J0D01*
G01*
G37*
%TD.AperFunction*%
%TD*%
%TO.P,R50,2*%
%TO.N,Net-(R49-Pad2)*%
%TA.AperFunction,SMDPad,CuDef*%
G36*
G01*
X138441750Y-110342500D02*
X137529250Y-110342500D01*
G75*
G02*
X137285500Y-110098750I0J243750D01*
G01*
X137285500Y-109611250D01*
G75*
G02*
X137529250Y-109367500I243750J0D01*
G01*
X138441750Y-109367500D01*
G75*
G02*
X138685500Y-109611250I0J-243750D01*
G01*
X138685500Y-110098750D01*
G75*
G02*
X138441750Y-110342500I-243750J0D01*
G01*
G37*
%TD.AperFunction*%
%TO.P,R50,1*%
%TO.N,Net-(R50-Pad1)*%
%TA.AperFunction,SMDPad,CuDef*%
G36*
G01*
X138441750Y-112217500D02*
X137529250Y-112217500D01*
G75*
G02*
X137285500Y-111973750I0J243750D01*
G01*
X137285500Y-111486250D01*
G75*
G02*
X137529250Y-111242500I243750J0D01*
G01*
X138441750Y-111242500D01*
G75*
G02*
X138685500Y-111486250I0J-243750D01*
G01*
X138685500Y-111973750D01*
G75*
G02*
X138441750Y-112217500I-243750J0D01*
G01*
G37*
%TD.AperFunction*%
%TD*%
D12*
%TO.P,U9,1*%
%TO.N,Net-(R27-Pad1)*%
X144121500Y-54988500D03*
%TO.P,U9,2*%
%TO.N,GND*%
X144121500Y-54038500D03*
%TO.P,U9,3*%
%TO.N,Net-(U9-Pad3)*%
X144121500Y-53088500D03*
%TO.P,U9,4*%
%TO.N,Net-(R27-Pad1)*%
X141501500Y-53088500D03*
%TO.P,U9,5*%
%TO.N,+3V3*%
X141501500Y-54988500D03*
%TD*%
D13*
%TO.P,U10,1*%
%TO.N,Net-(A1-Pad5)*%
X146558000Y-62150500D03*
%TO.P,U10,2*%
%TO.N,Net-(R26-Pad2)*%
X146558000Y-61650500D03*
%TO.P,U10,3*%
%TO.N,GND*%
X146558000Y-61150500D03*
%TO.P,U10,4*%
%TO.N,Net-(R26-Pad2)*%
X146558000Y-60650500D03*
%TO.P,U10,5*%
%TO.N,Net-(A1-Pad6)*%
X146558000Y-60150500D03*
%TO.P,U10,6*%
%TO.N,Net-(R30-Pad1)*%
X142158000Y-60150500D03*
%TO.P,U10,7*%
%TO.N,GNDA*%
X142158000Y-60650500D03*
%TO.P,U10,8*%
%TO.N,+3V3*%
X142158000Y-61150500D03*
%TO.P,U10,9*%
%TO.N,GNDA*%
X142158000Y-61650500D03*
%TO.P,U10,10*%
%TO.N,Net-(R28-Pad1)*%
X142158000Y-62150500D03*
%TD*%
%TO.P,U11,10*%
%TO.N,Net-(R32-Pad1)*%
X142158000Y-71866000D03*
%TO.P,U11,9*%
%TO.N,GNDA*%
X142158000Y-71366000D03*
%TO.P,U11,8*%
%TO.N,+3V3*%
X142158000Y-70866000D03*
%TO.P,U11,7*%
%TO.N,GNDA*%
X142158000Y-70366000D03*
%TO.P,U11,6*%
%TO.N,Net-(R34-Pad1)*%
X142158000Y-69866000D03*
%TO.P,U11,5*%
%TO.N,Net-(A1-Pad8)*%
X146558000Y-69866000D03*
%TO.P,U11,4*%
%TO.N,Net-(R26-Pad2)*%
X146558000Y-70366000D03*
%TO.P,U11,3*%
%TO.N,GND*%
X146558000Y-70866000D03*
%TO.P,U11,2*%
%TO.N,Net-(R26-Pad2)*%
X146558000Y-71366000D03*
%TO.P,U11,1*%
%TO.N,Net-(A1-Pad7)*%
X146558000Y-71866000D03*
%TD*%
%TO.P,U12,1*%
%TO.N,Net-(A1-Pad9)*%
X146558000Y-81581500D03*
%TO.P,U12,2*%
%TO.N,Net-(R26-Pad2)*%
X146558000Y-81081500D03*
%TO.P,U12,3*%
%TO.N,GND*%
X146558000Y-80581500D03*
%TO.P,U12,4*%
%TO.N,Net-(R26-Pad2)*%
X146558000Y-80081500D03*
%TO.P,U12,5*%
%TO.N,Net-(A1-Pad10)*%
X146558000Y-79581500D03*
%TO.P,U12,6*%
%TO.N,Net-(R38-Pad1)*%
X142158000Y-79581500D03*
%TO.P,U12,7*%
%TO.N,GNDA*%
X142158000Y-80081500D03*
%TO.P,U12,8*%
%TO.N,+3V3*%
X142158000Y-80581500D03*
%TO.P,U12,9*%
%TO.N,GNDA*%
X142158000Y-81081500D03*
%TO.P,U12,10*%
%TO.N,Net-(R36-Pad1)*%
X142158000Y-81581500D03*
%TD*%
%TO.P,U13,1*%
%TO.N,Net-(A1-Pad11)*%
X146576500Y-91360500D03*
%TO.P,U13,2*%
%TO.N,Net-(R26-Pad2)*%
X146576500Y-90860500D03*
%TO.P,U13,3*%
%TO.N,GND*%
X146576500Y-90360500D03*
%TO.P,U13,4*%
%TO.N,Net-(R26-Pad2)*%
X146576500Y-89860500D03*
%TO.P,U13,5*%
%TO.N,Net-(A1-Pad12)*%
X146576500Y-89360500D03*
%TO.P,U13,6*%
%TO.N,Net-(R42-Pad1)*%
X142176500Y-89360500D03*
%TO.P,U13,7*%
%TO.N,GNDA*%
X142176500Y-89860500D03*
%TO.P,U13,8*%
%TO.N,+3V3*%
X142176500Y-90360500D03*
%TO.P,U13,9*%
%TO.N,GNDA*%
X142176500Y-90860500D03*
%TO.P,U13,10*%
%TO.N,Net-(R40-Pad1)*%
X142176500Y-91360500D03*
%TD*%
%TO.P,U14,10*%
%TO.N,Net-(R44-Pad1)*%
X142176500Y-101139500D03*
%TO.P,U14,9*%
%TO.N,GNDA*%
X142176500Y-100639500D03*
%TO.P,U14,8*%
%TO.N,+3V3*%
X142176500Y-100139500D03*
%TO.P,U14,7*%
%TO.N,GNDA*%
X142176500Y-99639500D03*
%TO.P,U14,6*%
%TO.N,Net-(R46-Pad1)*%
X142176500Y-99139500D03*
%TO.P,U14,5*%
%TO.N,Net-(A1-Pad14)*%
X146576500Y-99139500D03*
%TO.P,U14,4*%
%TO.N,Net-(R26-Pad2)*%
X146576500Y-99639500D03*
%TO.P,U14,3*%
%TO.N,GND*%
X146576500Y-100139500D03*
%TO.P,U14,2*%
%TO.N,Net-(R26-Pad2)*%
X146576500Y-100639500D03*
%TO.P,U14,1*%
%TO.N,Net-(A1-Pad13)*%
X146576500Y-101139500D03*
%TD*%
%TO.P,U15,10*%
%TO.N,Net-(R48-Pad1)*%
X142176500Y-110855000D03*
%TO.P,U15,9*%
%TO.N,GNDA*%
X142176500Y-110355000D03*
%TO.P,U15,8*%
%TO.N,+3V3*%
X142176500Y-109855000D03*
%TO.P,U15,7*%
%TO.N,GNDA*%
X142176500Y-109355000D03*
%TO.P,U15,6*%
%TO.N,Net-(R50-Pad1)*%
X142176500Y-108855000D03*
%TO.P,U15,5*%
%TO.N,Net-(A1-Pad16)*%
X146576500Y-108855000D03*
%TO.P,U15,4*%
%TO.N,Net-(R26-Pad2)*%
X146576500Y-109355000D03*
%TO.P,U15,3*%
%TO.N,GND*%
X146576500Y-109855000D03*
%TO.P,U15,2*%
%TO.N,Net-(R26-Pad2)*%
X146576500Y-110355000D03*
%TO.P,U15,1*%
%TO.N,Net-(A1-Pad15)*%
X146576500Y-110855000D03*
%TD*%
D12*
%TO.P,U16,5*%
%TO.N,+3V3*%
X172743500Y-113853000D03*
%TO.P,U16,4*%
%TO.N,Net-(R26-Pad2)*%
X172743500Y-111953000D03*
%TO.P,U16,3*%
%TO.N,GNDA*%
X175363500Y-111953000D03*
%TO.P,U16,2*%
%TO.N,GND*%
X175363500Y-112903000D03*
%TO.P,U16,1*%
%TO.N,Net-(R26-Pad1)*%
X175363500Y-113853000D03*
%TD*%
D14*
%TO.P,Vin1,1*%
%TO.N,Net-(U1-Pad3)*%
X155130500Y-48514000D03*
%TD*%
%TO.P,Vin2,1*%
%TO.N,Net-(U9-Pad3)*%
X138303000Y-48514000D03*
%TD*%
%TO.P,Vout1,1*%
%TO.N,Net-(R25-Pad1)*%
X184150000Y-107188000D03*
%TD*%
%TO.P,Vout2,1*%
%TO.N,Net-(R26-Pad1)*%
X184150000Y-112585500D03*
%TD*%
D15*
%TO.N,+3V3*%
X140589000Y-90360500D03*
X140589000Y-100139500D03*
X140589000Y-109855000D03*
X140589000Y-70866000D03*
X140589000Y-80581500D03*
X140589000Y-61150500D03*
X140589000Y-112712500D03*
D16*
X140589000Y-56578500D03*
D15*
X157416500Y-90360500D03*
X157416500Y-100139500D03*
X157416500Y-109855000D03*
X157416500Y-70866000D03*
X157416500Y-80581500D03*
X157416500Y-61150500D03*
X157416500Y-112712500D03*
D16*
X157416500Y-56578500D03*
D17*
%TO.N,GND*%
X146494500Y-54038500D03*
X172720000Y-115506500D03*
D15*
X145288000Y-90360500D03*
X145288000Y-100139500D03*
X145288000Y-109855000D03*
X145288000Y-70866000D03*
X145288000Y-80581500D03*
X145288000Y-61150500D03*
X162115500Y-90360500D03*
X162115500Y-100139500D03*
X162115500Y-109855000D03*
X162115500Y-70866000D03*
X162115500Y-80581500D03*
X162115500Y-61150500D03*
D17*
X163322000Y-54038500D03*
X172720000Y-110109000D03*
D16*
X156337000Y-115443000D03*
D15*
%TO.N,Net-(A1-Pad5)*%
X166878000Y-68707000D03*
%TO.N,Net-(A1-Pad7)*%
X166814500Y-74104500D03*
%TO.N,Net-(A1-Pad9)*%
X166481000Y-81581500D03*
%TO.N,Net-(A1-Pad11)*%
X166386000Y-91360500D03*
%TO.N,Net-(A1-Pad13)*%
X166179500Y-101155500D03*
%TO.N,Net-(A1-Pad16)*%
X167576500Y-102616000D03*
%TO.N,Net-(R2-Pad1)*%
X160401000Y-62166500D03*
X158871000Y-58680000D03*
%TO.N,Net-(R6-Pad1)*%
X158871000Y-68395500D03*
X160401000Y-71882000D03*
%TO.N,Net-(R10-Pad1)*%
X158871000Y-78111000D03*
X160401000Y-81597500D03*
%TO.N,Net-(R14-Pad1)*%
X158871000Y-87890000D03*
X160401000Y-91376500D03*
%TO.N,Net-(R18-Pad1)*%
X158871000Y-97669000D03*
X160401000Y-101155500D03*
%TO.N,Net-(R22-Pad1)*%
X158871000Y-107384500D03*
X160401000Y-110871000D03*
%TO.N,GNDA*%
X144335500Y-90360500D03*
X144335500Y-100139500D03*
X144335500Y-109855000D03*
X144335500Y-70866000D03*
X144335500Y-80581500D03*
X144335500Y-61150500D03*
X161163000Y-90360500D03*
X161163000Y-100139500D03*
X161163000Y-109855000D03*
X161163000Y-70866000D03*
X161163000Y-80581500D03*
X161163000Y-61150500D03*
D16*
X177038000Y-106997500D03*
X177038000Y-112395000D03*
D15*
%TO.N,Net-(R25-Pad2)*%
X165163500Y-90360500D03*
X165163500Y-100139500D03*
X165163500Y-109855000D03*
X165163500Y-70866000D03*
X165163500Y-80581500D03*
X165163500Y-61150500D03*
D16*
X170688000Y-106553000D03*
D15*
%TO.N,Net-(R26-Pad2)*%
X148336000Y-70866000D03*
D16*
X170688000Y-111950500D03*
D15*
X148336000Y-90360500D03*
X148336000Y-100139500D03*
X148336000Y-109855000D03*
X148336000Y-80581500D03*
X148336000Y-61150500D03*
D16*
X159639000Y-112776000D03*
X166941500Y-112776000D03*
D15*
%TO.N,Net-(R28-Pad1)*%
X143573500Y-62166500D03*
X142043500Y-58680000D03*
%TO.N,Net-(R32-Pad1)*%
X142043500Y-68395500D03*
X143573500Y-71882000D03*
%TO.N,Net-(R36-Pad1)*%
X142043500Y-78111000D03*
X143573500Y-81597500D03*
%TO.N,Net-(R40-Pad1)*%
X142043500Y-87890000D03*
X143573500Y-91376500D03*
%TO.N,Net-(R44-Pad1)*%
X142043500Y-97669000D03*
X143573500Y-101155500D03*
%TO.N,Net-(R48-Pad1)*%
X142043500Y-107384500D03*
X143573500Y-110871000D03*
%TD*%
D18*
%TO.N,*%
X152408614Y-110989386D02*
X152408613Y-110989386D01*
D19*
%TO.N,+3V3*%
X140589000Y-109855000D02*
X140589000Y-109855000D01*
D20*
X142113000Y-109855000D02*
X140589000Y-109855000D01*
D19*
X142113000Y-70866000D02*
X141859000Y-70866000D01*
X140589000Y-70866000D02*
X140589000Y-70866000D01*
X142113000Y-90360500D02*
X141859000Y-90360500D01*
D21*
X170708034Y-113855500D02*
X172720000Y-113855500D01*
D19*
X140589000Y-90360500D02*
X140589000Y-90360500D01*
X142113000Y-109855000D02*
X141859000Y-109855000D01*
D20*
X142113000Y-70866000D02*
X140589000Y-70866000D01*
D19*
X142113000Y-80581500D02*
X141859000Y-80581500D01*
X140589000Y-80581500D02*
X140589000Y-80581500D01*
D20*
X142113000Y-80581500D02*
X140589000Y-80581500D01*
D19*
X142113000Y-61150500D02*
X141859000Y-61150500D01*
X140589000Y-61150500D02*
X140589000Y-61150500D01*
D20*
X142113000Y-61150500D02*
X140589000Y-61150500D01*
D18*
X141438000Y-54986000D02*
X141438000Y-55729500D01*
X141438000Y-55729500D02*
X140589000Y-56578500D01*
X140589000Y-56578500D02*
X140589000Y-56578500D01*
D21*
X140589000Y-112712500D02*
X141732000Y-113855500D01*
D19*
X140589000Y-100139500D02*
X140589000Y-100139500D01*
D20*
X142113000Y-90360500D02*
X140589000Y-90360500D01*
D19*
X142113000Y-100139500D02*
X141859000Y-100139500D01*
D20*
X142113000Y-100139500D02*
X140589000Y-100139500D01*
D21*
X141732000Y-113855500D02*
X153162000Y-113855500D01*
D19*
X158940500Y-90360500D02*
X158686500Y-90360500D01*
X157416500Y-90360500D02*
X157416500Y-90360500D01*
D20*
X158940500Y-90360500D02*
X157416500Y-90360500D01*
D19*
X158940500Y-100139500D02*
X158686500Y-100139500D01*
X157416500Y-100139500D02*
X157416500Y-100139500D01*
D20*
X158940500Y-100139500D02*
X157416500Y-100139500D01*
D19*
X158940500Y-109855000D02*
X158686500Y-109855000D01*
X157416500Y-109855000D02*
X157416500Y-109855000D01*
D20*
X158940500Y-109855000D02*
X157416500Y-109855000D01*
D19*
X158940500Y-70866000D02*
X158686500Y-70866000D01*
X157416500Y-70866000D02*
X157416500Y-70866000D01*
D20*
X158940500Y-70866000D02*
X157416500Y-70866000D01*
D19*
X158940500Y-80581500D02*
X158686500Y-80581500D01*
X157416500Y-80581500D02*
X157416500Y-80581500D01*
D20*
X158940500Y-80581500D02*
X157416500Y-80581500D01*
D19*
X158940500Y-61150500D02*
X158686500Y-61150500D01*
X157416500Y-61150500D02*
X157416500Y-61150500D01*
D20*
X158940500Y-61150500D02*
X157416500Y-61150500D01*
D18*
X158265500Y-54986000D02*
X158265500Y-55729500D01*
X158265500Y-55729500D02*
X157416500Y-56578500D01*
X157416500Y-56578500D02*
X157416500Y-56578500D01*
D21*
X157416500Y-112712500D02*
X158559500Y-113855500D01*
X170708034Y-108458000D02*
X172720000Y-108458000D01*
X168846500Y-106596466D02*
X170708034Y-108458000D01*
X168846500Y-106596466D02*
X168846500Y-105283000D01*
X168846500Y-105283000D02*
X179387500Y-94742000D01*
X179387500Y-94742000D02*
X182816500Y-94742000D01*
X186499500Y-94742000D02*
X182816500Y-94742000D01*
X182816500Y-94742000D02*
X182499000Y-94742000D01*
X170708034Y-113855500D02*
X169291000Y-113855500D01*
X169291000Y-113855500D02*
X169989500Y-113855500D01*
X168846500Y-106596466D02*
X168336103Y-107106863D01*
X168336103Y-113667397D02*
X168148000Y-113855500D01*
X168336103Y-107106863D02*
X168336103Y-113667397D01*
X158559500Y-113855500D02*
X168148000Y-113855500D01*
X168148000Y-113855500D02*
X169291000Y-113855500D01*
X153162000Y-113855500D02*
X158559500Y-113855500D01*
D22*
%TO.N,Net-(A1-Pad19)*%
X186499500Y-89342002D02*
X186499500Y-89662000D01*
X174815500Y-54165500D02*
X178308000Y-57658000D01*
X178308000Y-57658000D02*
X178308000Y-82232500D01*
X185737500Y-89662000D02*
X186499500Y-89662000D01*
X178308000Y-82232500D02*
X185737500Y-89662000D01*
%TO.N,GND*%
X146494500Y-54038500D02*
X146494500Y-54038500D01*
D21*
X146492000Y-54036000D02*
X146494500Y-54038500D01*
X144058000Y-54036000D02*
X146492000Y-54036000D01*
D18*
X175340000Y-112905500D02*
X174274998Y-112905500D01*
X174274998Y-112905500D02*
X174028100Y-113152398D01*
D20*
X146513000Y-90360500D02*
X145288000Y-90360500D01*
X145288000Y-90360500D02*
X145288000Y-90360500D01*
D18*
X174028100Y-113152398D02*
X174028100Y-114905506D01*
D20*
X146513000Y-100139500D02*
X145288000Y-100139500D01*
X145288000Y-100139500D02*
X145288000Y-100139500D01*
X146513000Y-109855000D02*
X145288000Y-109855000D01*
X145288000Y-109855000D02*
X145288000Y-109855000D01*
X145288000Y-70866000D02*
X145288000Y-70866000D01*
X146513000Y-70866000D02*
X145288000Y-70866000D01*
X146513000Y-80581500D02*
X145288000Y-80581500D01*
X145288000Y-80581500D02*
X145288000Y-80581500D01*
X146513000Y-61150500D02*
X145288000Y-61150500D01*
X145288000Y-61150500D02*
X145288000Y-61150500D01*
D18*
X174028100Y-114905506D02*
X173427106Y-115506500D01*
X173427106Y-115506500D02*
X172720000Y-115506500D01*
D20*
X163340500Y-90360500D02*
X162115500Y-90360500D01*
X162115500Y-90360500D02*
X162115500Y-90360500D01*
X163340500Y-100139500D02*
X162115500Y-100139500D01*
X162115500Y-100139500D02*
X162115500Y-100139500D01*
X163340500Y-109855000D02*
X162115500Y-109855000D01*
X162115500Y-109855000D02*
X162115500Y-109855000D01*
X162115500Y-70866000D02*
X162115500Y-70866000D01*
X163340500Y-70866000D02*
X162115500Y-70866000D01*
X163340500Y-80581500D02*
X162115500Y-80581500D01*
X162115500Y-80581500D02*
X162115500Y-80581500D01*
X163340500Y-61150500D02*
X162115500Y-61150500D01*
X162115500Y-61150500D02*
X162115500Y-61150500D01*
D22*
X160655000Y-48514000D02*
X163322000Y-51181000D01*
X163322000Y-51181000D02*
X163322000Y-54038500D01*
X163322000Y-54038500D02*
X163322000Y-54038500D01*
D21*
X163319500Y-54036000D02*
X163322000Y-54038500D01*
X160885500Y-54036000D02*
X163319500Y-54036000D01*
D18*
X174274998Y-107508000D02*
X174028100Y-107754898D01*
X175340000Y-107508000D02*
X174274998Y-107508000D01*
X173427106Y-110109000D02*
X172720000Y-110109000D01*
X174028100Y-109508006D02*
X173427106Y-110109000D01*
X174028100Y-107754898D02*
X174028100Y-109508006D01*
D21*
X156337000Y-115443000D02*
X160718500Y-115443000D01*
X163195000Y-117919500D02*
X164592000Y-117919500D01*
X160718500Y-115443000D02*
X163195000Y-117919500D01*
D22*
%TO.N,Net-(A1-Pad20)*%
X180213000Y-54102000D02*
X180213000Y-81470500D01*
X185864500Y-87122000D02*
X186499500Y-87122000D01*
X180213000Y-81470500D02*
X185864500Y-87122000D01*
D20*
%TO.N,Net-(A1-Pad5)*%
X163340500Y-62150500D02*
X163340500Y-65169500D01*
X166878000Y-68707000D02*
X166878000Y-68707000D01*
X146558000Y-62150500D02*
X148669500Y-64262000D01*
X148669500Y-64262000D02*
X162433000Y-64262000D01*
X162433000Y-64262000D02*
X163576000Y-65405000D01*
X163340500Y-65169500D02*
X163576000Y-65405000D01*
X163576000Y-65405000D02*
X166878000Y-68707000D01*
%TO.N,Net-(A1-Pad6)*%
X147305888Y-60150492D02*
X149304492Y-60150492D01*
X146513000Y-60150500D02*
X147305881Y-60150499D01*
X147305881Y-60150499D02*
X147305888Y-60150492D01*
X164133388Y-60150492D02*
X166131992Y-60150492D01*
X163340500Y-60150500D02*
X164133381Y-60150499D01*
X164133381Y-60150499D02*
X164133388Y-60150492D01*
X166131992Y-60150492D02*
X168402000Y-62420500D01*
X168402000Y-62420500D02*
X168402000Y-70866000D01*
X168402000Y-70866000D02*
X169354500Y-71818500D01*
X169354500Y-72517000D02*
X171259500Y-74422000D01*
X169354500Y-71818500D02*
X169354500Y-72517000D01*
X149304492Y-60150492D02*
X149891984Y-59563000D01*
X162385500Y-60150500D02*
X163340500Y-60150500D01*
X161798000Y-59563000D02*
X162385500Y-60150500D01*
X149891984Y-59563000D02*
X161798000Y-59563000D01*
%TO.N,Net-(A1-Pad7)*%
X163322000Y-71866000D02*
X164576000Y-71866000D01*
X164576000Y-71866000D02*
X166814500Y-74104500D01*
X166814500Y-74104500D02*
X166814500Y-74104500D01*
X166624000Y-73914000D02*
X166814500Y-74104500D01*
X151003000Y-73914000D02*
X166624000Y-73914000D01*
X146494500Y-71866000D02*
X148955000Y-71866000D01*
X148955000Y-71866000D02*
X151003000Y-73914000D01*
%TO.N,Net-(A1-Pad8)*%
X146494500Y-69866000D02*
X148987000Y-69866000D01*
X163322000Y-69866000D02*
X165814500Y-69866000D01*
X165814500Y-69866000D02*
X168211500Y-72263000D01*
X168211500Y-76454000D02*
X171259500Y-79502000D01*
X168211500Y-72263000D02*
X168211500Y-76454000D01*
X148987000Y-69866000D02*
X149574500Y-69278500D01*
X162512500Y-69866000D02*
X163322000Y-69866000D01*
X161925000Y-69278500D02*
X162512500Y-69866000D01*
X149574500Y-69278500D02*
X161925000Y-69278500D01*
%TO.N,Net-(A1-Pad9)*%
X163363000Y-81581500D02*
X166481000Y-81581500D01*
X166481000Y-81581500D02*
X166481000Y-81581500D01*
X146558000Y-81581500D02*
X148733000Y-83756500D01*
X164306000Y-83756500D02*
X166481000Y-81581500D01*
X148733000Y-83756500D02*
X164306000Y-83756500D01*
%TO.N,Net-(A1-Pad10)*%
X166259000Y-79581500D02*
X171259500Y-84582000D01*
X163363000Y-79581500D02*
X166259000Y-79581500D01*
X162956999Y-79581499D02*
X163363001Y-79581499D01*
X162456992Y-79081492D02*
X162956999Y-79581499D01*
X163363001Y-79581499D02*
X163363000Y-79581500D01*
X149931508Y-79081492D02*
X162456992Y-79081492D01*
X146535500Y-79581500D02*
X149431500Y-79581500D01*
X149431500Y-79581500D02*
X149931508Y-79081492D01*
%TO.N,Net-(A1-Pad11)*%
X163363000Y-91360500D02*
X166386000Y-91360500D01*
X166386000Y-91360500D02*
X166386000Y-91360500D01*
X146576500Y-91360500D02*
X148751500Y-93535500D01*
X164211000Y-93535500D02*
X166386000Y-91360500D01*
X148751500Y-93535500D02*
X164211000Y-93535500D01*
D22*
%TO.N,+5V*%
X186499500Y-69342000D02*
X185483500Y-69342000D01*
X185483500Y-69342000D02*
X184150000Y-68008500D01*
X184150000Y-68008500D02*
X184150000Y-57340500D01*
X184150000Y-57340500D02*
X184150000Y-56007000D01*
X184150000Y-56007000D02*
X186118500Y-54038500D01*
D20*
%TO.N,Net-(A1-Pad12)*%
X170958000Y-89360500D02*
X171259500Y-89662000D01*
X163363000Y-89360500D02*
X170958000Y-89360500D01*
X146576500Y-88910500D02*
X146650500Y-88836500D01*
X146576500Y-89360500D02*
X146576500Y-88910500D01*
X162385500Y-89360500D02*
X163363000Y-89360500D01*
X161861500Y-88836500D02*
X162385500Y-89360500D01*
X146650500Y-88836500D02*
X161861500Y-88836500D01*
%TO.N,Net-(A1-Pad13)*%
X146528990Y-101155500D02*
X146513000Y-101139510D01*
X163356490Y-101155500D02*
X163340500Y-101139510D01*
X166179500Y-101155500D02*
X163356490Y-101155500D01*
X146576500Y-101139500D02*
X148955000Y-101139500D01*
X148955000Y-101139500D02*
X151130000Y-103314500D01*
X164020500Y-103314500D02*
X166179500Y-101155500D01*
X151130000Y-103314500D02*
X164020500Y-103314500D01*
%TO.N,Net-(A1-Pad14)*%
X146513000Y-99131500D02*
X150042500Y-99131500D01*
X166870000Y-99131500D02*
X171259500Y-94742000D01*
X163340500Y-99131500D02*
X166870000Y-99131500D01*
X150042500Y-99131500D02*
X150558500Y-98615500D01*
X162568000Y-99131500D02*
X163340500Y-99131500D01*
X162052000Y-98615500D02*
X162568000Y-99131500D01*
X150558500Y-98615500D02*
X162052000Y-98615500D01*
%TO.N,Net-(A1-Pad15)*%
X171259500Y-100901500D02*
X171259500Y-97282000D01*
X166878000Y-109347000D02*
X166878000Y-105283000D01*
X166878000Y-105283000D02*
X171259500Y-100901500D01*
X163363000Y-110855000D02*
X165370000Y-110855000D01*
X165370000Y-110855000D02*
X166878000Y-109347000D01*
X148542500Y-110855000D02*
X146535500Y-110855000D01*
X162576000Y-110855000D02*
X161544000Y-111887000D01*
X150717500Y-113030000D02*
X148542500Y-110855000D01*
X163363000Y-110855000D02*
X162576000Y-110855000D01*
X161544000Y-111887000D02*
X156908500Y-111887000D01*
X156908500Y-111887000D02*
X155765500Y-113030000D01*
X155765500Y-113030000D02*
X150717500Y-113030000D01*
%TO.N,Net-(A1-Pad16)*%
X163363000Y-108855000D02*
X163363000Y-106829500D01*
X163363000Y-106829500D02*
X167576500Y-102616000D01*
X167576500Y-102616000D02*
X167576500Y-102616000D01*
X163363001Y-108854999D02*
X163363000Y-108855000D01*
X162956999Y-108854999D02*
X163363001Y-108854999D01*
X162433000Y-108331000D02*
X162956999Y-108854999D01*
X146576500Y-108855000D02*
X146576500Y-108405000D01*
X146650500Y-108331000D02*
X162433000Y-108331000D01*
X146576500Y-108405000D02*
X146650500Y-108331000D01*
D18*
%TO.N,Net-(R1-Pad1)*%
X152088500Y-53086000D02*
X152085500Y-53083000D01*
X158265500Y-53086000D02*
X152088500Y-53086000D01*
D21*
X160100502Y-54986000D02*
X160095502Y-54991000D01*
X160885500Y-54986000D02*
X160100502Y-54986000D01*
X160095502Y-54981000D02*
X158265500Y-53150998D01*
X158265500Y-53150998D02*
X158265500Y-53086000D01*
X160095502Y-54991000D02*
X160095502Y-54981000D01*
D22*
%TO.N,Net-(R1-Pad2)*%
X152088500Y-55880000D02*
X152085500Y-55883000D01*
X152085500Y-57909000D02*
X152082500Y-57912000D01*
X152085500Y-55883000D02*
X152085500Y-57909000D01*
X153945000Y-55883000D02*
X154686000Y-56624000D01*
X152085500Y-55883000D02*
X153945000Y-55883000D01*
D20*
%TO.N,Net-(R2-Pad1)*%
X154686000Y-58680000D02*
X155009500Y-58680000D01*
D19*
X158871000Y-58680000D02*
X158871000Y-58680000D01*
X158871000Y-58680000D02*
X158871000Y-58680000D01*
D20*
X154686000Y-58680000D02*
X158871000Y-58680000D01*
X158956500Y-62166500D02*
X158940500Y-62150500D01*
X160385000Y-62150500D02*
X160401000Y-62166500D01*
X158940500Y-62150500D02*
X160385000Y-62150500D01*
D22*
%TO.N,Net-(R3-Pad2)*%
X152088500Y-60706000D02*
X152082500Y-60712000D01*
X154686000Y-60706000D02*
X152088500Y-60706000D01*
X152082500Y-60712000D02*
X152082500Y-62738000D01*
D20*
%TO.N,Net-(R4-Pad1)*%
X158940500Y-60150500D02*
X157273500Y-60150500D01*
X157273500Y-60150500D02*
X156146500Y-61277500D01*
X156146500Y-61670500D02*
X154686000Y-63131000D01*
X156146500Y-61277500D02*
X156146500Y-61670500D01*
D22*
%TO.N,Net-(R5-Pad2)*%
X152082500Y-67500500D02*
X152146000Y-67564000D01*
X152082500Y-65538000D02*
X152082500Y-67500500D01*
X153884500Y-65538000D02*
X154686000Y-66339500D01*
X152082500Y-65538000D02*
X153884500Y-65538000D01*
D20*
%TO.N,Net-(R6-Pad1)*%
X158940500Y-71866000D02*
X160385000Y-71866000D01*
D19*
X158871000Y-68395500D02*
X158871000Y-68395500D01*
D20*
X160385000Y-71866000D02*
X160401000Y-71882000D01*
X154686000Y-68395500D02*
X158871000Y-68395500D01*
X158956500Y-71882000D02*
X158940500Y-71866000D01*
D19*
X158871000Y-68395500D02*
X158871000Y-68395500D01*
D22*
%TO.N,Net-(R7-Pad2)*%
X152152000Y-70358000D02*
X152146000Y-70364000D01*
X152146000Y-70364000D02*
X152146000Y-72450500D01*
X154229500Y-70364000D02*
X154686000Y-70820500D01*
X152146000Y-70364000D02*
X154229500Y-70364000D01*
D20*
%TO.N,Net-(R8-Pad1)*%
X158940500Y-69866000D02*
X157273500Y-69866000D01*
X157273500Y-69866000D02*
X156146500Y-70993000D01*
X156146500Y-71235000D02*
X154686000Y-72695500D01*
X156146500Y-70993000D02*
X156146500Y-71235000D01*
D22*
%TO.N,Net-(R10-Pad2)*%
X152149000Y-75247500D02*
X152146000Y-75250500D01*
X152146000Y-75250500D02*
X152146000Y-77340000D01*
X153706500Y-75250500D02*
X154749500Y-76293500D01*
X152146000Y-75250500D02*
X153706500Y-75250500D01*
D20*
%TO.N,Net-(R10-Pad1)*%
X158940500Y-81581500D02*
X160385000Y-81581500D01*
X158956500Y-81597500D02*
X158940500Y-81581500D01*
D19*
X158871000Y-78111000D02*
X158871000Y-78111000D01*
X158871000Y-78111000D02*
X158871000Y-78111000D01*
D20*
X154686000Y-78111000D02*
X158871000Y-78111000D01*
X160385000Y-81581500D02*
X160401000Y-81597500D01*
D22*
%TO.N,Net-(R11-Pad2)*%
X152149000Y-80137000D02*
X152146000Y-80140000D01*
X152146000Y-80140000D02*
X152146000Y-82232500D01*
X154290000Y-80140000D02*
X154749500Y-80599500D01*
X152146000Y-80140000D02*
X154290000Y-80140000D01*
D20*
%TO.N,Net-(R12-Pad1)*%
X158940500Y-79581500D02*
X157273500Y-79581500D01*
X157273500Y-79581500D02*
X156146500Y-80708500D01*
X156146500Y-81077500D02*
X154749500Y-82474500D01*
X156146500Y-80708500D02*
X156146500Y-81077500D01*
D22*
%TO.N,Net-(R13-Pad2)*%
X152152000Y-85026500D02*
X152146000Y-85032500D01*
X152146000Y-85032500D02*
X152146000Y-87119000D01*
X153773000Y-85032500D02*
X154749500Y-86009000D01*
X152146000Y-85032500D02*
X153773000Y-85032500D01*
D20*
%TO.N,Net-(R14-Pad1)*%
X158940500Y-91360500D02*
X160385000Y-91360500D01*
X158956500Y-91376500D02*
X158940500Y-91360500D01*
D19*
X158871000Y-87890000D02*
X158871000Y-87890000D01*
X158871000Y-87890000D02*
X158871000Y-87890000D01*
D20*
X154686000Y-87890000D02*
X158871000Y-87890000D01*
X160385000Y-91360500D02*
X160401000Y-91376500D01*
D22*
%TO.N,Net-(R15-Pad2)*%
X152149000Y-89916000D02*
X152146000Y-89919000D01*
X152146000Y-89919000D02*
X152146000Y-92011500D01*
X154290000Y-89919000D02*
X154749500Y-90378500D01*
X152146000Y-89919000D02*
X154290000Y-89919000D01*
D20*
%TO.N,Net-(R16-Pad1)*%
X158940500Y-89360500D02*
X157273500Y-89360500D01*
X157273500Y-89360500D02*
X156146500Y-90487500D01*
X156146500Y-90856500D02*
X154749500Y-92253500D01*
X156146500Y-90487500D02*
X156146500Y-90856500D01*
D22*
%TO.N,Net-(R17-Pad2)*%
X152152000Y-94805500D02*
X152146000Y-94811500D01*
X152146000Y-94811500D02*
X152146000Y-96898000D01*
X153773000Y-94811500D02*
X154749500Y-95788000D01*
X152146000Y-94811500D02*
X153773000Y-94811500D01*
D20*
%TO.N,Net-(R18-Pad1)*%
X158940500Y-101139500D02*
X160385000Y-101139500D01*
X158956500Y-101155500D02*
X158940500Y-101139500D01*
D19*
X158871000Y-97669000D02*
X158871000Y-97669000D01*
X158871000Y-97669000D02*
X158871000Y-97669000D01*
D20*
X154686000Y-97669000D02*
X158871000Y-97669000D01*
X160385000Y-101139500D02*
X160401000Y-101155500D01*
D22*
%TO.N,Net-(R19-Pad2)*%
X152149000Y-99695000D02*
X152146000Y-99698000D01*
X152146000Y-99698000D02*
X152146000Y-101790500D01*
X154290000Y-99698000D02*
X154749500Y-100157500D01*
X152146000Y-99698000D02*
X154290000Y-99698000D01*
D20*
%TO.N,Net-(R20-Pad1)*%
X158940500Y-99139500D02*
X157273500Y-99139500D01*
X157273500Y-99139500D02*
X156146500Y-100266500D01*
X156146500Y-100635500D02*
X154749500Y-102032500D01*
X156146500Y-100266500D02*
X156146500Y-100635500D01*
D22*
%TO.N,Net-(R21-Pad2)*%
X152152000Y-104584500D02*
X152146000Y-104590500D01*
X152146000Y-104590500D02*
X152146000Y-106616500D01*
X153773000Y-104590500D02*
X154686000Y-105503500D01*
X152146000Y-104590500D02*
X153773000Y-104590500D01*
D20*
%TO.N,Net-(R22-Pad1)*%
X158940500Y-110855000D02*
X160385000Y-110855000D01*
X158956500Y-110871000D02*
X158940500Y-110855000D01*
D19*
X158871000Y-107384500D02*
X158871000Y-107384500D01*
X158871000Y-107384500D02*
X158871000Y-107384500D01*
D20*
X154686000Y-107384500D02*
X158871000Y-107384500D01*
X160385000Y-110855000D02*
X160401000Y-110871000D01*
D22*
%TO.N,Net-(R23-Pad2)*%
X152152000Y-109410500D02*
X152146000Y-109416500D01*
X154229500Y-109416500D02*
X154686000Y-109873000D01*
X152146000Y-109416500D02*
X154229500Y-109416500D01*
D20*
%TO.N,Net-(R24-Pad1)*%
X158940500Y-108855000D02*
X157273500Y-108855000D01*
X157273500Y-108855000D02*
X156146500Y-109982000D01*
X156146500Y-110287500D02*
X156146500Y-109982000D01*
X154686000Y-111748000D02*
X156146500Y-110287500D01*
D22*
%TO.N,Net-(U1-Pad3)*%
X160810499Y-53010999D02*
X160885500Y-53010999D01*
X158913501Y-51114001D02*
X160810499Y-53010999D01*
X155130500Y-48514000D02*
X157730501Y-51114001D01*
X157730501Y-51114001D02*
X158913501Y-51114001D01*
D20*
%TO.N,GNDA*%
X143200500Y-90860500D02*
X143700500Y-90360500D01*
D23*
X143700500Y-90360500D02*
X144335500Y-90360500D01*
D20*
X142113000Y-90860500D02*
X143200500Y-90860500D01*
X143200500Y-89860500D02*
X143184500Y-89860500D01*
X143700500Y-90360500D02*
X143200500Y-89860500D01*
X143184500Y-89860500D02*
X142113000Y-89860500D01*
X143200500Y-100639500D02*
X143700500Y-100139500D01*
D23*
X143700500Y-100139500D02*
X144335500Y-100139500D01*
D20*
X142113000Y-100639500D02*
X143200500Y-100639500D01*
X143200500Y-99639500D02*
X143184500Y-99639500D01*
X143700500Y-100139500D02*
X143200500Y-99639500D01*
X143184500Y-99639500D02*
X142113000Y-99639500D01*
X143200500Y-110355000D02*
X143700500Y-109855000D01*
D23*
X143700500Y-109855000D02*
X144335500Y-109855000D01*
D20*
X142113000Y-110355000D02*
X143200500Y-110355000D01*
X143200500Y-109355000D02*
X143184500Y-109355000D01*
X143700500Y-109855000D02*
X143200500Y-109355000D01*
X143184500Y-109355000D02*
X142113000Y-109355000D01*
X143200500Y-71366000D02*
X143700500Y-70866000D01*
X142113000Y-71366000D02*
X143200500Y-71366000D01*
X143200500Y-70366000D02*
X143184500Y-70366000D01*
D23*
X143700500Y-70866000D02*
X144335500Y-70866000D01*
D20*
X143184500Y-70366000D02*
X142113000Y-70366000D01*
X143700500Y-70866000D02*
X143200500Y-70366000D01*
X143200500Y-81081500D02*
X143700500Y-80581500D01*
D23*
X143700500Y-80581500D02*
X144335500Y-80581500D01*
D20*
X142113000Y-81081500D02*
X143200500Y-81081500D01*
X143200500Y-80081500D02*
X143184500Y-80081500D01*
X143700500Y-80581500D02*
X143200500Y-80081500D01*
X143184500Y-80081500D02*
X142113000Y-80081500D01*
X143184500Y-60650500D02*
X142113000Y-60650500D01*
X143200500Y-60650500D02*
X143184500Y-60650500D01*
X143700500Y-61150500D02*
X143200500Y-60650500D01*
X142113000Y-61650500D02*
X143200500Y-61650500D01*
X143200500Y-61650500D02*
X143700500Y-61150500D01*
D23*
X143700500Y-61150500D02*
X144335500Y-61150500D01*
D20*
X160028000Y-90860500D02*
X160528000Y-90360500D01*
D23*
X160528000Y-90360500D02*
X161163000Y-90360500D01*
D20*
X158940500Y-90860500D02*
X160028000Y-90860500D01*
X160028000Y-89860500D02*
X160012000Y-89860500D01*
X160528000Y-90360500D02*
X160028000Y-89860500D01*
X160012000Y-89860500D02*
X158940500Y-89860500D01*
X160028000Y-100639500D02*
X160528000Y-100139500D01*
D23*
X160528000Y-100139500D02*
X161163000Y-100139500D01*
D20*
X158940500Y-100639500D02*
X160028000Y-100639500D01*
X160028000Y-99639500D02*
X160012000Y-99639500D01*
X160528000Y-100139500D02*
X160028000Y-99639500D01*
X160012000Y-99639500D02*
X158940500Y-99639500D01*
X160028000Y-110355000D02*
X160528000Y-109855000D01*
D23*
X160528000Y-109855000D02*
X161163000Y-109855000D01*
D20*
X158940500Y-110355000D02*
X160028000Y-110355000D01*
X160028000Y-109355000D02*
X160012000Y-109355000D01*
X160528000Y-109855000D02*
X160028000Y-109355000D01*
X160012000Y-109355000D02*
X158940500Y-109355000D01*
X160028000Y-71366000D02*
X160528000Y-70866000D01*
X158940500Y-71366000D02*
X160028000Y-71366000D01*
X160028000Y-70366000D02*
X160012000Y-70366000D01*
D23*
X160528000Y-70866000D02*
X161163000Y-70866000D01*
D20*
X160012000Y-70366000D02*
X158940500Y-70366000D01*
X160528000Y-70866000D02*
X160028000Y-70366000D01*
X160028000Y-81081500D02*
X160528000Y-80581500D01*
D23*
X160528000Y-80581500D02*
X161163000Y-80581500D01*
D20*
X158940500Y-81081500D02*
X160028000Y-81081500D01*
X160028000Y-80081500D02*
X160012000Y-80081500D01*
X160528000Y-80581500D02*
X160028000Y-80081500D01*
X160012000Y-80081500D02*
X158940500Y-80081500D01*
X160012000Y-60650500D02*
X158940500Y-60650500D01*
X160028000Y-60650500D02*
X160012000Y-60650500D01*
X160528000Y-61150500D02*
X160028000Y-60650500D01*
X158940500Y-61650500D02*
X160028000Y-61650500D01*
X160028000Y-61650500D02*
X160528000Y-61150500D01*
D23*
X160528000Y-61150500D02*
X161163000Y-61150500D01*
D21*
X176598500Y-106558000D02*
X175340000Y-106558000D01*
X177038000Y-106997500D02*
X177038000Y-106997500D01*
X177038000Y-106997500D02*
X176598500Y-106558000D01*
X177038000Y-112395000D02*
X177038000Y-112395000D01*
X177038000Y-112395000D02*
X177038000Y-112395000D01*
X176596000Y-111953000D02*
X177038000Y-112395000D01*
X175363500Y-111953000D02*
X176596000Y-111953000D01*
D18*
%TO.N,Net-(R25-Pad1)*%
X177216991Y-108533009D02*
X175340000Y-108533009D01*
X178562000Y-107188000D02*
X177216991Y-108533009D01*
D22*
X184086500Y-107188000D02*
X184150000Y-107251500D01*
X178562000Y-107188000D02*
X184086500Y-107188000D01*
D18*
%TO.N,Net-(R25-Pad2)*%
X169236114Y-108258886D02*
X169236113Y-108258886D01*
D20*
X164340500Y-89860500D02*
X164840500Y-90360500D01*
X163340500Y-90860500D02*
X164340500Y-90860500D01*
X163340500Y-89860500D02*
X164340500Y-89860500D01*
D23*
X165163500Y-90360500D02*
X165163500Y-90360500D01*
D20*
X164340500Y-90860500D02*
X164840500Y-90360500D01*
D23*
X164840500Y-90360500D02*
X165163500Y-90360500D01*
D20*
X164340500Y-99639500D02*
X164840500Y-100139500D01*
X163340500Y-100639500D02*
X164340500Y-100639500D01*
X163340500Y-99639500D02*
X164340500Y-99639500D01*
D23*
X165163500Y-100139500D02*
X165163500Y-100139500D01*
D20*
X164340500Y-100639500D02*
X164840500Y-100139500D01*
D23*
X164840500Y-100139500D02*
X165163500Y-100139500D01*
D20*
X164340500Y-109355000D02*
X164840500Y-109855000D01*
X163340500Y-110355000D02*
X164340500Y-110355000D01*
X163340500Y-109355000D02*
X164340500Y-109355000D01*
D23*
X165163500Y-109855000D02*
X165163500Y-109855000D01*
D20*
X164340500Y-110355000D02*
X164840500Y-109855000D01*
D23*
X164840500Y-109855000D02*
X165163500Y-109855000D01*
X165163500Y-70866000D02*
X165163500Y-70866000D01*
D20*
X164340500Y-71366000D02*
X164840500Y-70866000D01*
X164340500Y-70366000D02*
X164840500Y-70866000D01*
X163340500Y-71366000D02*
X164340500Y-71366000D01*
X163340500Y-70366000D02*
X164340500Y-70366000D01*
D23*
X164840500Y-70866000D02*
X165163500Y-70866000D01*
D20*
X164340500Y-80081500D02*
X164840500Y-80581500D01*
X163340500Y-81081500D02*
X164340500Y-81081500D01*
X163340500Y-80081500D02*
X164340500Y-80081500D01*
D23*
X165163500Y-80581500D02*
X165163500Y-80581500D01*
D20*
X164340500Y-81081500D02*
X164840500Y-80581500D01*
D23*
X164840500Y-80581500D02*
X165163500Y-80581500D01*
D20*
X164340500Y-60650500D02*
X164840500Y-61150500D01*
X163340500Y-60650500D02*
X164340500Y-60650500D01*
X164340500Y-61650500D02*
X164840500Y-61150500D01*
X163340500Y-61650500D02*
X164340500Y-61650500D01*
D23*
X164840500Y-61150500D02*
X165163500Y-61150500D01*
X165163500Y-61150500D02*
X165163500Y-61150500D01*
D18*
X172720000Y-106558000D02*
X173159500Y-106558000D01*
X172715000Y-106553000D02*
X172720000Y-106558000D01*
X170688000Y-106553000D02*
X172715000Y-106553000D01*
X173965000Y-105313000D02*
X178562000Y-105313000D01*
X172720000Y-106558000D02*
X173965000Y-105313000D01*
%TO.N,Net-(R26-Pad1)*%
X178562000Y-112585500D02*
X177216991Y-113930509D01*
X177216991Y-113930509D02*
X175340000Y-113930509D01*
D22*
X184086500Y-112585500D02*
X184150000Y-112649000D01*
X178562000Y-112585500D02*
X184086500Y-112585500D01*
D20*
%TO.N,Net-(R26-Pad2)*%
X147513000Y-71366000D02*
X148013000Y-70866000D01*
X147513000Y-70366000D02*
X148013000Y-70866000D01*
X146513000Y-71366000D02*
X147513000Y-71366000D01*
X146513000Y-70366000D02*
X147513000Y-70366000D01*
D23*
X148013000Y-70866000D02*
X148336000Y-70866000D01*
D20*
X147513000Y-80081500D02*
X148013000Y-80581500D01*
X146513000Y-81081500D02*
X147513000Y-81081500D01*
X146513000Y-80081500D02*
X147513000Y-80081500D01*
D23*
X148336000Y-80581500D02*
X148336000Y-80581500D01*
D20*
X147513000Y-81081500D02*
X148013000Y-80581500D01*
X147513000Y-89860500D02*
X148013000Y-90360500D01*
X146513000Y-90860500D02*
X147513000Y-90860500D01*
X146513000Y-89860500D02*
X147513000Y-89860500D01*
D23*
X148336000Y-90360500D02*
X148336000Y-90360500D01*
D20*
X147513000Y-90860500D02*
X148013000Y-90360500D01*
D23*
X148013000Y-90360500D02*
X148336000Y-90360500D01*
D20*
X147513000Y-99639500D02*
X148013000Y-100139500D01*
X146513000Y-100639500D02*
X147513000Y-100639500D01*
X146513000Y-99639500D02*
X147513000Y-99639500D01*
D23*
X148336000Y-100139500D02*
X148336000Y-100139500D01*
D20*
X147513000Y-100639500D02*
X148013000Y-100139500D01*
D23*
X148013000Y-100139500D02*
X148336000Y-100139500D01*
D20*
X147513000Y-109355000D02*
X148013000Y-109855000D01*
X146513000Y-110355000D02*
X147513000Y-110355000D01*
X146513000Y-109355000D02*
X147513000Y-109355000D01*
D23*
X148336000Y-109855000D02*
X148336000Y-109855000D01*
D20*
X147513000Y-110355000D02*
X148013000Y-109855000D01*
D23*
X148013000Y-109855000D02*
X148336000Y-109855000D01*
X148336000Y-70866000D02*
X148336000Y-70866000D01*
X148013000Y-80581500D02*
X148336000Y-80581500D01*
D20*
X147513000Y-60650500D02*
X148013000Y-61150500D01*
X146513000Y-60650500D02*
X147513000Y-60650500D01*
X147513000Y-61650500D02*
X148013000Y-61150500D01*
X146513000Y-61650500D02*
X147513000Y-61650500D01*
D23*
X148013000Y-61150500D02*
X148336000Y-61150500D01*
X148336000Y-61150500D02*
X148336000Y-61150500D01*
D18*
X173965000Y-110710500D02*
X178562000Y-110710500D01*
X172720000Y-111955500D02*
X173965000Y-110710500D01*
X172720000Y-111955500D02*
X173159500Y-111955500D01*
X172715000Y-111950500D02*
X172720000Y-111955500D01*
X170688000Y-111950500D02*
X172715000Y-111950500D01*
D21*
X159639000Y-112776000D02*
X166941500Y-112776000D01*
X166941500Y-112776000D02*
X166941500Y-112776000D01*
D18*
%TO.N,Net-(R27-Pad1)*%
X135261000Y-53086000D02*
X135258000Y-53083000D01*
X141438000Y-53086000D02*
X135261000Y-53086000D01*
D21*
X143273002Y-54986000D02*
X143268002Y-54991000D01*
X143268002Y-54981000D02*
X141438000Y-53150998D01*
X141438000Y-53150998D02*
X141438000Y-53086000D01*
X143268002Y-54991000D02*
X143268002Y-54981000D01*
X144058000Y-54986000D02*
X143273002Y-54986000D01*
D22*
%TO.N,Net-(R27-Pad2)*%
X135261000Y-55880000D02*
X135258000Y-55883000D01*
X135258000Y-57909000D02*
X135255000Y-57912000D01*
X135258000Y-55883000D02*
X135258000Y-57909000D01*
X137117500Y-55883000D02*
X137858500Y-56624000D01*
X135258000Y-55883000D02*
X137117500Y-55883000D01*
D20*
%TO.N,Net-(R28-Pad1)*%
X137858500Y-58680000D02*
X138182000Y-58680000D01*
D19*
X142043500Y-58680000D02*
X142043500Y-58680000D01*
X142043500Y-58680000D02*
X142043500Y-58680000D01*
D20*
X137858500Y-58680000D02*
X142043500Y-58680000D01*
X142129000Y-62166500D02*
X142113000Y-62150500D01*
X143557500Y-62150500D02*
X143573500Y-62166500D01*
X142113000Y-62150500D02*
X143557500Y-62150500D01*
D22*
%TO.N,Net-(R29-Pad2)*%
X135261000Y-60706000D02*
X135255000Y-60712000D01*
X137858500Y-60706000D02*
X135261000Y-60706000D01*
X135255000Y-60712000D02*
X135255000Y-62738000D01*
D20*
%TO.N,Net-(R30-Pad1)*%
X142113000Y-60150500D02*
X140446000Y-60150500D01*
X140446000Y-60150500D02*
X139319000Y-61277500D01*
X139319000Y-61670500D02*
X137858500Y-63131000D01*
X139319000Y-61277500D02*
X139319000Y-61670500D01*
D22*
%TO.N,Net-(R31-Pad2)*%
X135255000Y-67500500D02*
X135318500Y-67564000D01*
X135255000Y-65538000D02*
X135255000Y-67500500D01*
X137057000Y-65538000D02*
X137858500Y-66339500D01*
X135255000Y-65538000D02*
X137057000Y-65538000D01*
D20*
%TO.N,Net-(R32-Pad1)*%
X142113000Y-71866000D02*
X143557500Y-71866000D01*
D19*
X142043500Y-68395500D02*
X142043500Y-68395500D01*
D20*
X143557500Y-71866000D02*
X143573500Y-71882000D01*
X137858500Y-68395500D02*
X142043500Y-68395500D01*
X142129000Y-71882000D02*
X142113000Y-71866000D01*
D19*
X142043500Y-68395500D02*
X142043500Y-68395500D01*
D22*
%TO.N,Net-(R33-Pad2)*%
X137402000Y-70364000D02*
X137858500Y-70820500D01*
X135324500Y-70358000D02*
X135318500Y-70364000D01*
X135318500Y-70364000D02*
X135318500Y-72450500D01*
X135318500Y-70364000D02*
X137402000Y-70364000D01*
D20*
%TO.N,Net-(R34-Pad1)*%
X142113000Y-69866000D02*
X140446000Y-69866000D01*
X140446000Y-69866000D02*
X139319000Y-70993000D01*
X139319000Y-71235000D02*
X137858500Y-72695500D01*
X139319000Y-70993000D02*
X139319000Y-71235000D01*
D22*
%TO.N,Net-(R35-Pad2)*%
X136879000Y-75250500D02*
X137922000Y-76293500D01*
X135318500Y-75250500D02*
X136879000Y-75250500D01*
X135318500Y-75250500D02*
X135318500Y-77340000D01*
X135321500Y-75247500D02*
X135318500Y-75250500D01*
D20*
%TO.N,Net-(R36-Pad1)*%
X142113000Y-81581500D02*
X143557500Y-81581500D01*
X142129000Y-81597500D02*
X142113000Y-81581500D01*
D19*
X142043500Y-78111000D02*
X142043500Y-78111000D01*
X142043500Y-78111000D02*
X142043500Y-78111000D01*
D20*
X137858500Y-78111000D02*
X142043500Y-78111000D01*
X143557500Y-81581500D02*
X143573500Y-81597500D01*
D22*
%TO.N,Net-(R37-Pad2)*%
X135321500Y-80137000D02*
X135318500Y-80140000D01*
X135318500Y-80140000D02*
X135318500Y-82232500D01*
X137462500Y-80140000D02*
X137922000Y-80599500D01*
X135318500Y-80140000D02*
X137462500Y-80140000D01*
D20*
%TO.N,Net-(R38-Pad1)*%
X142113000Y-79581500D02*
X140446000Y-79581500D01*
X140446000Y-79581500D02*
X139319000Y-80708500D01*
X139319000Y-81077500D02*
X137922000Y-82474500D01*
X139319000Y-80708500D02*
X139319000Y-81077500D01*
D22*
%TO.N,Net-(R39-Pad2)*%
X135324500Y-85026500D02*
X135318500Y-85032500D01*
X135318500Y-85032500D02*
X135318500Y-87119000D01*
X136945500Y-85032500D02*
X137922000Y-86009000D01*
X135318500Y-85032500D02*
X136945500Y-85032500D01*
D20*
%TO.N,Net-(R40-Pad1)*%
X142113000Y-91360500D02*
X143557500Y-91360500D01*
X142129000Y-91376500D02*
X142113000Y-91360500D01*
D19*
X142043500Y-87890000D02*
X142043500Y-87890000D01*
X142043500Y-87890000D02*
X142043500Y-87890000D01*
D20*
X137858500Y-87890000D02*
X142043500Y-87890000D01*
X143557500Y-91360500D02*
X143573500Y-91376500D01*
D22*
%TO.N,Net-(R41-Pad2)*%
X135321500Y-89916000D02*
X135318500Y-89919000D01*
X135318500Y-89919000D02*
X135318500Y-92011500D01*
X137462500Y-89919000D02*
X137922000Y-90378500D01*
X135318500Y-89919000D02*
X137462500Y-89919000D01*
D20*
%TO.N,Net-(R42-Pad1)*%
X142113000Y-89360500D02*
X140446000Y-89360500D01*
X140446000Y-89360500D02*
X139319000Y-90487500D01*
X139319000Y-90856500D02*
X137922000Y-92253500D01*
X139319000Y-90487500D02*
X139319000Y-90856500D01*
D22*
%TO.N,Net-(R43-Pad2)*%
X135324500Y-94805500D02*
X135318500Y-94811500D01*
X135318500Y-94811500D02*
X135318500Y-96898000D01*
X136945500Y-94811500D02*
X137922000Y-95788000D01*
X135318500Y-94811500D02*
X136945500Y-94811500D01*
D20*
%TO.N,Net-(R44-Pad1)*%
X142113000Y-101139500D02*
X143557500Y-101139500D01*
X142129000Y-101155500D02*
X142113000Y-101139500D01*
D19*
X142043500Y-97669000D02*
X142043500Y-97669000D01*
X142043500Y-97669000D02*
X142043500Y-97669000D01*
D20*
X137858500Y-97669000D02*
X142043500Y-97669000D01*
X143557500Y-101139500D02*
X143573500Y-101155500D01*
D22*
%TO.N,Net-(R45-Pad2)*%
X135321500Y-99695000D02*
X135318500Y-99698000D01*
X135318500Y-99698000D02*
X135318500Y-101790500D01*
X137462500Y-99698000D02*
X137922000Y-100157500D01*
X135318500Y-99698000D02*
X137462500Y-99698000D01*
D20*
%TO.N,Net-(R46-Pad1)*%
X142113000Y-99139500D02*
X140446000Y-99139500D01*
X140446000Y-99139500D02*
X139319000Y-100266500D01*
X139319000Y-100635500D02*
X137922000Y-102032500D01*
X139319000Y-100266500D02*
X139319000Y-100635500D01*
D22*
%TO.N,Net-(R47-Pad2)*%
X135324500Y-104584500D02*
X135318500Y-104590500D01*
X135318500Y-104590500D02*
X135318500Y-106616500D01*
X136945500Y-104590500D02*
X137858500Y-105503500D01*
X135318500Y-104590500D02*
X136945500Y-104590500D01*
D20*
%TO.N,Net-(R48-Pad1)*%
X143557500Y-110855000D02*
X143573500Y-110871000D01*
X142113000Y-110855000D02*
X143557500Y-110855000D01*
X142129000Y-110871000D02*
X142113000Y-110855000D01*
D19*
X142043500Y-107384500D02*
X142043500Y-107384500D01*
X142043500Y-107384500D02*
X142043500Y-107384500D01*
D20*
X137858500Y-107384500D02*
X142043500Y-107384500D01*
D22*
%TO.N,Net-(R49-Pad2)*%
X135324500Y-109410500D02*
X135318500Y-109416500D01*
X137402000Y-109416500D02*
X137858500Y-109873000D01*
X135318500Y-109416500D02*
X137402000Y-109416500D01*
D20*
%TO.N,Net-(R50-Pad1)*%
X142113000Y-108855000D02*
X140446000Y-108855000D01*
X140446000Y-108855000D02*
X139319000Y-109982000D01*
X139319000Y-110287500D02*
X139319000Y-109982000D01*
X137858500Y-111748000D02*
X139319000Y-110287500D01*
D22*
%TO.N,Net-(U9-Pad3)*%
X143982999Y-53010999D02*
X144058000Y-53010999D01*
X142086001Y-51114001D02*
X143982999Y-53010999D01*
X138303000Y-48514000D02*
X140903001Y-51114001D01*
X140903001Y-51114001D02*
X142086001Y-51114001D01*
%TD*%
M02*
