%TF.GenerationSoftware,KiCad,Pcbnew,5.1.6-c6e7f7d~86~ubuntu18.04.1*%
%TF.CreationDate,2020-07-15T12:18:57+12:00*%
%TF.ProjectId,Volume Controller,566f6c75-6d65-4204-936f-6e74726f6c6c,rev?*%
%TF.SameCoordinates,Original*%
%TF.FileFunction,Legend,Top*%
%TF.FilePolarity,Positive*%
%FSLAX46Y46*%
G04 Gerber Fmt 4.6, Leading zero omitted, Abs format (unit mm)*
G04 Created by KiCad (PCBNEW 5.1.6-c6e7f7d~86~ubuntu18.04.1) date 2020-07-15 12:18:57*
%MOMM*%
%LPD*%
G01*
G04 APERTURE LIST*
%ADD10C,0.120000*%
%ADD11C,0.150000*%
G04 APERTURE END LIST*
D10*
%TO.C,A1*%
X187899500Y-57782000D02*
X169859500Y-57782000D01*
X187899500Y-101222000D02*
X187899500Y-57782000D01*
X169859500Y-101222000D02*
X187899500Y-101222000D01*
X172529500Y-98552000D02*
X169859500Y-98552000D01*
X172529500Y-62992000D02*
X172529500Y-98552000D01*
X172529500Y-62992000D02*
X169859500Y-62992000D01*
X185229500Y-98552000D02*
X187899500Y-98552000D01*
X185229500Y-60452000D02*
X185229500Y-98552000D01*
X185229500Y-60452000D02*
X187899500Y-60452000D01*
X169859500Y-57782000D02*
X169859500Y-60452000D01*
X169859500Y-62992000D02*
X169859500Y-101222000D01*
X172529500Y-60452000D02*
X169859500Y-60452000D01*
X172529500Y-62992000D02*
X172529500Y-60452000D01*
%TO.C,R1*%
X151175500Y-53880936D02*
X151175500Y-55085064D01*
X152995500Y-53880936D02*
X152995500Y-55085064D01*
%TO.C,R3*%
X151172500Y-58709936D02*
X151172500Y-59914064D01*
X152992500Y-58709936D02*
X152992500Y-59914064D01*
%TO.C,R5*%
X151172500Y-63535936D02*
X151172500Y-64740064D01*
X152992500Y-63535936D02*
X152992500Y-64740064D01*
%TO.C,R7*%
X151236000Y-68361936D02*
X151236000Y-69566064D01*
X153056000Y-68361936D02*
X153056000Y-69566064D01*
%TO.C,R9*%
X153056000Y-73248436D02*
X153056000Y-74452564D01*
X151236000Y-73248436D02*
X151236000Y-74452564D01*
%TO.C,R11*%
X151236000Y-78137936D02*
X151236000Y-79342064D01*
X153056000Y-78137936D02*
X153056000Y-79342064D01*
%TO.C,R13*%
X153056000Y-83030436D02*
X153056000Y-84234564D01*
X151236000Y-83030436D02*
X151236000Y-84234564D01*
%TO.C,R15*%
X153056000Y-87916936D02*
X153056000Y-89121064D01*
X151236000Y-87916936D02*
X151236000Y-89121064D01*
%TO.C,R17*%
X153056000Y-92809436D02*
X153056000Y-94013564D01*
X151236000Y-92809436D02*
X151236000Y-94013564D01*
%TO.C,R19*%
X153056000Y-97695936D02*
X153056000Y-98900064D01*
X151236000Y-97695936D02*
X151236000Y-98900064D01*
%TO.C,R21*%
X153056000Y-102588436D02*
X153056000Y-103792564D01*
X151236000Y-102588436D02*
X151236000Y-103792564D01*
%TO.C,R23*%
X153056000Y-107414436D02*
X153056000Y-108618564D01*
X151236000Y-107414436D02*
X151236000Y-108618564D01*
%TO.C,U1*%
X158695500Y-55546000D02*
X161125500Y-55546000D01*
X160455500Y-52476000D02*
X158695500Y-52476000D01*
D11*
%TO.C,U2*%
X162815500Y-62825500D02*
X162815500Y-62600500D01*
X159465500Y-62825500D02*
X159465500Y-62525500D01*
X159465500Y-59475500D02*
X159465500Y-59775500D01*
X162815500Y-59475500D02*
X162815500Y-59775500D01*
X162815500Y-62825500D02*
X159465500Y-62825500D01*
X162815500Y-59475500D02*
X159465500Y-59475500D01*
X162815500Y-62600500D02*
X164040500Y-62600500D01*
%TO.C,U3*%
X162797000Y-72316000D02*
X164022000Y-72316000D01*
X162797000Y-69191000D02*
X159447000Y-69191000D01*
X162797000Y-72541000D02*
X159447000Y-72541000D01*
X162797000Y-69191000D02*
X162797000Y-69491000D01*
X159447000Y-69191000D02*
X159447000Y-69491000D01*
X159447000Y-72541000D02*
X159447000Y-72241000D01*
X162797000Y-72541000D02*
X162797000Y-72316000D01*
%TO.C,U4*%
X162838000Y-82031500D02*
X164063000Y-82031500D01*
X162838000Y-78906500D02*
X159488000Y-78906500D01*
X162838000Y-82256500D02*
X159488000Y-82256500D01*
X162838000Y-78906500D02*
X162838000Y-79206500D01*
X159488000Y-78906500D02*
X159488000Y-79206500D01*
X159488000Y-82256500D02*
X159488000Y-81956500D01*
X162838000Y-82256500D02*
X162838000Y-82031500D01*
%TO.C,U5*%
X162838000Y-91810500D02*
X164063000Y-91810500D01*
X162838000Y-88685500D02*
X159488000Y-88685500D01*
X162838000Y-92035500D02*
X159488000Y-92035500D01*
X162838000Y-88685500D02*
X162838000Y-88985500D01*
X159488000Y-88685500D02*
X159488000Y-88985500D01*
X159488000Y-92035500D02*
X159488000Y-91735500D01*
X162838000Y-92035500D02*
X162838000Y-91810500D01*
%TO.C,U6*%
X162815500Y-101806500D02*
X162815500Y-101581500D01*
X159465500Y-101806500D02*
X159465500Y-101506500D01*
X159465500Y-98456500D02*
X159465500Y-98756500D01*
X162815500Y-98456500D02*
X162815500Y-98756500D01*
X162815500Y-101806500D02*
X159465500Y-101806500D01*
X162815500Y-98456500D02*
X159465500Y-98456500D01*
X162815500Y-101581500D02*
X164040500Y-101581500D01*
%TO.C,U7*%
X162838000Y-111530000D02*
X162838000Y-111305000D01*
X159488000Y-111530000D02*
X159488000Y-111230000D01*
X159488000Y-108180000D02*
X159488000Y-108480000D01*
X162838000Y-108180000D02*
X162838000Y-108480000D01*
X162838000Y-111530000D02*
X159488000Y-111530000D01*
X162838000Y-108180000D02*
X159488000Y-108180000D01*
X162838000Y-111305000D02*
X164063000Y-111305000D01*
D10*
%TO.C,U8*%
X174910000Y-105948000D02*
X173150000Y-105948000D01*
X173150000Y-109018000D02*
X175580000Y-109018000D01*
%TO.C,R8*%
X155396000Y-72016578D02*
X155396000Y-71499422D01*
X153976000Y-72016578D02*
X153976000Y-71499422D01*
%TO.C,R10*%
X154039500Y-77489578D02*
X154039500Y-76972422D01*
X155459500Y-77489578D02*
X155459500Y-76972422D01*
%TO.C,R12*%
X154039500Y-81795578D02*
X154039500Y-81278422D01*
X155459500Y-81795578D02*
X155459500Y-81278422D01*
%TO.C,R14*%
X155459500Y-87205078D02*
X155459500Y-86687922D01*
X154039500Y-87205078D02*
X154039500Y-86687922D01*
%TO.C,R16*%
X154039500Y-91574578D02*
X154039500Y-91057422D01*
X155459500Y-91574578D02*
X155459500Y-91057422D01*
%TO.C,R18*%
X154039500Y-96984078D02*
X154039500Y-96466922D01*
X155459500Y-96984078D02*
X155459500Y-96466922D01*
%TO.C,R20*%
X155459500Y-101353578D02*
X155459500Y-100836422D01*
X154039500Y-101353578D02*
X154039500Y-100836422D01*
%TO.C,R22*%
X155396000Y-106699578D02*
X155396000Y-106182422D01*
X153976000Y-106699578D02*
X153976000Y-106182422D01*
%TO.C,R24*%
X153976000Y-111069078D02*
X153976000Y-110551922D01*
X155396000Y-111069078D02*
X155396000Y-110551922D01*
%TO.C,R2*%
X155396000Y-57907578D02*
X155396000Y-57390422D01*
X153976000Y-57907578D02*
X153976000Y-57390422D01*
%TO.C,R4*%
X153976000Y-62364578D02*
X153976000Y-61847422D01*
X155396000Y-62364578D02*
X155396000Y-61847422D01*
%TO.C,R6*%
X153976000Y-67623078D02*
X153976000Y-67105922D01*
X155396000Y-67623078D02*
X155396000Y-67105922D01*
%TO.C,+5V1*%
X187338281Y-54165500D02*
G75*
G03*
X187338281Y-54165500I-1600781J0D01*
G01*
%TO.C,GND1*%
X166192781Y-117919500D02*
G75*
G03*
X166192781Y-117919500I-1600781J0D01*
G01*
%TO.C,GNDA1*%
X159652281Y-117856000D02*
G75*
G03*
X159652281Y-117856000I-1600781J0D01*
G01*
%TO.C,J1*%
X162255781Y-48514000D02*
G75*
G03*
X162255781Y-48514000I-1600781J0D01*
G01*
%TO.C,J2*%
X167653281Y-48387000D02*
G75*
G03*
X167653281Y-48387000I-1600781J0D01*
G01*
%TO.C,J3*%
X173177781Y-48387000D02*
G75*
G03*
X173177781Y-48387000I-1600781J0D01*
G01*
%TO.C,ModeSelect1*%
X176416281Y-54165500D02*
G75*
G03*
X176416281Y-54165500I-1600781J0D01*
G01*
%TO.C,ModeSelect2*%
X181813781Y-54102000D02*
G75*
G03*
X181813781Y-54102000I-1600781J0D01*
G01*
%TO.C,R25*%
X179399000Y-106509078D02*
X179399000Y-105991922D01*
X177979000Y-106509078D02*
X177979000Y-105991922D01*
%TO.C,R26*%
X179399000Y-111891578D02*
X179399000Y-111374422D01*
X177979000Y-111891578D02*
X177979000Y-111374422D01*
%TO.C,R27*%
X134345000Y-53877936D02*
X134345000Y-55082064D01*
X136165000Y-53877936D02*
X136165000Y-55082064D01*
%TO.C,R28*%
X137148500Y-57931578D02*
X137148500Y-57414422D01*
X138568500Y-57931578D02*
X138568500Y-57414422D01*
%TO.C,R29*%
X134345000Y-58709936D02*
X134345000Y-59914064D01*
X136165000Y-58709936D02*
X136165000Y-59914064D01*
%TO.C,R30*%
X138568500Y-62122578D02*
X138568500Y-61605422D01*
X137148500Y-62122578D02*
X137148500Y-61605422D01*
%TO.C,R31*%
X136165000Y-63535936D02*
X136165000Y-64740064D01*
X134345000Y-63535936D02*
X134345000Y-64740064D01*
%TO.C,R32*%
X137148500Y-67680578D02*
X137148500Y-67163422D01*
X138568500Y-67680578D02*
X138568500Y-67163422D01*
%TO.C,R33*%
X136165000Y-68358936D02*
X136165000Y-69563064D01*
X134345000Y-68358936D02*
X134345000Y-69563064D01*
%TO.C,R34*%
X137148500Y-72013578D02*
X137148500Y-71496422D01*
X138568500Y-72013578D02*
X138568500Y-71496422D01*
%TO.C,R35*%
X134345000Y-73248436D02*
X134345000Y-74452564D01*
X136165000Y-73248436D02*
X136165000Y-74452564D01*
%TO.C,R36*%
X138632000Y-77411078D02*
X138632000Y-76893922D01*
X137212000Y-77411078D02*
X137212000Y-76893922D01*
%TO.C,R37*%
X136165000Y-78137936D02*
X136165000Y-79342064D01*
X134345000Y-78137936D02*
X134345000Y-79342064D01*
%TO.C,R38*%
X137212000Y-81856078D02*
X137212000Y-81338922D01*
X138632000Y-81856078D02*
X138632000Y-81338922D01*
%TO.C,R39*%
X134345000Y-83027436D02*
X134345000Y-84231564D01*
X136165000Y-83027436D02*
X136165000Y-84231564D01*
%TO.C,R40*%
X138632000Y-87190078D02*
X138632000Y-86672922D01*
X137212000Y-87190078D02*
X137212000Y-86672922D01*
%TO.C,R41*%
X136165000Y-87919936D02*
X136165000Y-89124064D01*
X134345000Y-87919936D02*
X134345000Y-89124064D01*
%TO.C,R42*%
X137212000Y-91523078D02*
X137212000Y-91005922D01*
X138632000Y-91523078D02*
X138632000Y-91005922D01*
%TO.C,R43*%
X134345000Y-92806436D02*
X134345000Y-94010564D01*
X136165000Y-92806436D02*
X136165000Y-94010564D01*
%TO.C,R44*%
X138632000Y-96969078D02*
X138632000Y-96451922D01*
X137212000Y-96969078D02*
X137212000Y-96451922D01*
%TO.C,R45*%
X134345000Y-97695936D02*
X134345000Y-98900064D01*
X136165000Y-97695936D02*
X136165000Y-98900064D01*
%TO.C,R46*%
X137212000Y-101335578D02*
X137212000Y-100818422D01*
X138632000Y-101335578D02*
X138632000Y-100818422D01*
%TO.C,R47*%
X136165000Y-102585436D02*
X136165000Y-103789564D01*
X134345000Y-102585436D02*
X134345000Y-103789564D01*
%TO.C,R48*%
X138695500Y-106733078D02*
X138695500Y-106215922D01*
X137275500Y-106733078D02*
X137275500Y-106215922D01*
%TO.C,R49*%
X136165000Y-107414436D02*
X136165000Y-108618564D01*
X134345000Y-107414436D02*
X134345000Y-108618564D01*
%TO.C,R50*%
X137275500Y-111051078D02*
X137275500Y-110533922D01*
X138695500Y-111051078D02*
X138695500Y-110533922D01*
%TO.C,U9*%
X141931500Y-55548500D02*
X144361500Y-55548500D01*
X143691500Y-52478500D02*
X141931500Y-52478500D01*
D11*
%TO.C,U10*%
X146033000Y-62600500D02*
X147258000Y-62600500D01*
X146033000Y-59475500D02*
X142683000Y-59475500D01*
X146033000Y-62825500D02*
X142683000Y-62825500D01*
X146033000Y-59475500D02*
X146033000Y-59775500D01*
X142683000Y-59475500D02*
X142683000Y-59775500D01*
X142683000Y-62825500D02*
X142683000Y-62525500D01*
X146033000Y-62825500D02*
X146033000Y-62600500D01*
%TO.C,U11*%
X146033000Y-72541000D02*
X146033000Y-72316000D01*
X142683000Y-72541000D02*
X142683000Y-72241000D01*
X142683000Y-69191000D02*
X142683000Y-69491000D01*
X146033000Y-69191000D02*
X146033000Y-69491000D01*
X146033000Y-72541000D02*
X142683000Y-72541000D01*
X146033000Y-69191000D02*
X142683000Y-69191000D01*
X146033000Y-72316000D02*
X147258000Y-72316000D01*
%TO.C,U12*%
X146033000Y-82031500D02*
X147258000Y-82031500D01*
X146033000Y-78906500D02*
X142683000Y-78906500D01*
X146033000Y-82256500D02*
X142683000Y-82256500D01*
X146033000Y-78906500D02*
X146033000Y-79206500D01*
X142683000Y-78906500D02*
X142683000Y-79206500D01*
X142683000Y-82256500D02*
X142683000Y-81956500D01*
X146033000Y-82256500D02*
X146033000Y-82031500D01*
%TO.C,U13*%
X146051500Y-91810500D02*
X147276500Y-91810500D01*
X146051500Y-88685500D02*
X142701500Y-88685500D01*
X146051500Y-92035500D02*
X142701500Y-92035500D01*
X146051500Y-88685500D02*
X146051500Y-88985500D01*
X142701500Y-88685500D02*
X142701500Y-88985500D01*
X142701500Y-92035500D02*
X142701500Y-91735500D01*
X146051500Y-92035500D02*
X146051500Y-91810500D01*
%TO.C,U14*%
X146051500Y-101814500D02*
X146051500Y-101589500D01*
X142701500Y-101814500D02*
X142701500Y-101514500D01*
X142701500Y-98464500D02*
X142701500Y-98764500D01*
X146051500Y-98464500D02*
X146051500Y-98764500D01*
X146051500Y-101814500D02*
X142701500Y-101814500D01*
X146051500Y-98464500D02*
X142701500Y-98464500D01*
X146051500Y-101589500D02*
X147276500Y-101589500D01*
%TO.C,U15*%
X146051500Y-111530000D02*
X146051500Y-111305000D01*
X142701500Y-111530000D02*
X142701500Y-111230000D01*
X142701500Y-108180000D02*
X142701500Y-108480000D01*
X146051500Y-108180000D02*
X146051500Y-108480000D01*
X146051500Y-111530000D02*
X142701500Y-111530000D01*
X146051500Y-108180000D02*
X142701500Y-108180000D01*
X146051500Y-111305000D02*
X147276500Y-111305000D01*
D10*
%TO.C,U16*%
X174933500Y-111343000D02*
X173173500Y-111343000D01*
X173173500Y-114413000D02*
X175603500Y-114413000D01*
%TO.C,Vin1*%
X156731281Y-48514000D02*
G75*
G03*
X156731281Y-48514000I-1600781J0D01*
G01*
%TO.C,Vin2*%
X139903781Y-48514000D02*
G75*
G03*
X139903781Y-48514000I-1600781J0D01*
G01*
%TO.C,Vout1*%
X185750781Y-107188000D02*
G75*
G03*
X185750781Y-107188000I-1600781J0D01*
G01*
%TO.C,Vout2*%
X185750781Y-112585500D02*
G75*
G03*
X185750781Y-112585500I-1600781J0D01*
G01*
%TO.C,A1*%
D11*
X178165214Y-56808666D02*
X178641404Y-56808666D01*
X178069976Y-57094380D02*
X178403309Y-56094380D01*
X178736642Y-57094380D01*
X179593785Y-57094380D02*
X179022357Y-57094380D01*
X179308071Y-57094380D02*
X179308071Y-56094380D01*
X179212833Y-56237238D01*
X179117595Y-56332476D01*
X179022357Y-56380095D01*
%TO.C,R1*%
X154357880Y-54649666D02*
X153881690Y-54983000D01*
X154357880Y-55221095D02*
X153357880Y-55221095D01*
X153357880Y-54840142D01*
X153405500Y-54744904D01*
X153453119Y-54697285D01*
X153548357Y-54649666D01*
X153691214Y-54649666D01*
X153786452Y-54697285D01*
X153834071Y-54744904D01*
X153881690Y-54840142D01*
X153881690Y-55221095D01*
X154357880Y-53697285D02*
X154357880Y-54268714D01*
X154357880Y-53983000D02*
X153357880Y-53983000D01*
X153500738Y-54078238D01*
X153595976Y-54173476D01*
X153643595Y-54268714D01*
%TO.C,R3*%
X154354880Y-59478666D02*
X153878690Y-59812000D01*
X154354880Y-60050095D02*
X153354880Y-60050095D01*
X153354880Y-59669142D01*
X153402500Y-59573904D01*
X153450119Y-59526285D01*
X153545357Y-59478666D01*
X153688214Y-59478666D01*
X153783452Y-59526285D01*
X153831071Y-59573904D01*
X153878690Y-59669142D01*
X153878690Y-60050095D01*
X153354880Y-59145333D02*
X153354880Y-58526285D01*
X153735833Y-58859619D01*
X153735833Y-58716761D01*
X153783452Y-58621523D01*
X153831071Y-58573904D01*
X153926309Y-58526285D01*
X154164404Y-58526285D01*
X154259642Y-58573904D01*
X154307261Y-58621523D01*
X154354880Y-58716761D01*
X154354880Y-59002476D01*
X154307261Y-59097714D01*
X154259642Y-59145333D01*
%TO.C,R5*%
X154354880Y-64304666D02*
X153878690Y-64638000D01*
X154354880Y-64876095D02*
X153354880Y-64876095D01*
X153354880Y-64495142D01*
X153402500Y-64399904D01*
X153450119Y-64352285D01*
X153545357Y-64304666D01*
X153688214Y-64304666D01*
X153783452Y-64352285D01*
X153831071Y-64399904D01*
X153878690Y-64495142D01*
X153878690Y-64876095D01*
X153354880Y-63399904D02*
X153354880Y-63876095D01*
X153831071Y-63923714D01*
X153783452Y-63876095D01*
X153735833Y-63780857D01*
X153735833Y-63542761D01*
X153783452Y-63447523D01*
X153831071Y-63399904D01*
X153926309Y-63352285D01*
X154164404Y-63352285D01*
X154259642Y-63399904D01*
X154307261Y-63447523D01*
X154354880Y-63542761D01*
X154354880Y-63780857D01*
X154307261Y-63876095D01*
X154259642Y-63923714D01*
%TO.C,R7*%
X154418380Y-69130666D02*
X153942190Y-69464000D01*
X154418380Y-69702095D02*
X153418380Y-69702095D01*
X153418380Y-69321142D01*
X153466000Y-69225904D01*
X153513619Y-69178285D01*
X153608857Y-69130666D01*
X153751714Y-69130666D01*
X153846952Y-69178285D01*
X153894571Y-69225904D01*
X153942190Y-69321142D01*
X153942190Y-69702095D01*
X153418380Y-68797333D02*
X153418380Y-68130666D01*
X154418380Y-68559238D01*
%TO.C,R9*%
X154418380Y-74017166D02*
X153942190Y-74350500D01*
X154418380Y-74588595D02*
X153418380Y-74588595D01*
X153418380Y-74207642D01*
X153466000Y-74112404D01*
X153513619Y-74064785D01*
X153608857Y-74017166D01*
X153751714Y-74017166D01*
X153846952Y-74064785D01*
X153894571Y-74112404D01*
X153942190Y-74207642D01*
X153942190Y-74588595D01*
X154418380Y-73540976D02*
X154418380Y-73350500D01*
X154370761Y-73255261D01*
X154323142Y-73207642D01*
X154180285Y-73112404D01*
X153989809Y-73064785D01*
X153608857Y-73064785D01*
X153513619Y-73112404D01*
X153466000Y-73160023D01*
X153418380Y-73255261D01*
X153418380Y-73445738D01*
X153466000Y-73540976D01*
X153513619Y-73588595D01*
X153608857Y-73636214D01*
X153846952Y-73636214D01*
X153942190Y-73588595D01*
X153989809Y-73540976D01*
X154037428Y-73445738D01*
X154037428Y-73255261D01*
X153989809Y-73160023D01*
X153942190Y-73112404D01*
X153846952Y-73064785D01*
%TO.C,R11*%
X154418380Y-79382857D02*
X153942190Y-79716190D01*
X154418380Y-79954285D02*
X153418380Y-79954285D01*
X153418380Y-79573333D01*
X153466000Y-79478095D01*
X153513619Y-79430476D01*
X153608857Y-79382857D01*
X153751714Y-79382857D01*
X153846952Y-79430476D01*
X153894571Y-79478095D01*
X153942190Y-79573333D01*
X153942190Y-79954285D01*
X154418380Y-78430476D02*
X154418380Y-79001904D01*
X154418380Y-78716190D02*
X153418380Y-78716190D01*
X153561238Y-78811428D01*
X153656476Y-78906666D01*
X153704095Y-79001904D01*
X154418380Y-77478095D02*
X154418380Y-78049523D01*
X154418380Y-77763809D02*
X153418380Y-77763809D01*
X153561238Y-77859047D01*
X153656476Y-77954285D01*
X153704095Y-78049523D01*
%TO.C,R13*%
X154418380Y-84275357D02*
X153942190Y-84608690D01*
X154418380Y-84846785D02*
X153418380Y-84846785D01*
X153418380Y-84465833D01*
X153466000Y-84370595D01*
X153513619Y-84322976D01*
X153608857Y-84275357D01*
X153751714Y-84275357D01*
X153846952Y-84322976D01*
X153894571Y-84370595D01*
X153942190Y-84465833D01*
X153942190Y-84846785D01*
X154418380Y-83322976D02*
X154418380Y-83894404D01*
X154418380Y-83608690D02*
X153418380Y-83608690D01*
X153561238Y-83703928D01*
X153656476Y-83799166D01*
X153704095Y-83894404D01*
X153418380Y-82989642D02*
X153418380Y-82370595D01*
X153799333Y-82703928D01*
X153799333Y-82561071D01*
X153846952Y-82465833D01*
X153894571Y-82418214D01*
X153989809Y-82370595D01*
X154227904Y-82370595D01*
X154323142Y-82418214D01*
X154370761Y-82465833D01*
X154418380Y-82561071D01*
X154418380Y-82846785D01*
X154370761Y-82942023D01*
X154323142Y-82989642D01*
%TO.C,R15*%
X154418380Y-89161857D02*
X153942190Y-89495190D01*
X154418380Y-89733285D02*
X153418380Y-89733285D01*
X153418380Y-89352333D01*
X153466000Y-89257095D01*
X153513619Y-89209476D01*
X153608857Y-89161857D01*
X153751714Y-89161857D01*
X153846952Y-89209476D01*
X153894571Y-89257095D01*
X153942190Y-89352333D01*
X153942190Y-89733285D01*
X154418380Y-88209476D02*
X154418380Y-88780904D01*
X154418380Y-88495190D02*
X153418380Y-88495190D01*
X153561238Y-88590428D01*
X153656476Y-88685666D01*
X153704095Y-88780904D01*
X153418380Y-87304714D02*
X153418380Y-87780904D01*
X153894571Y-87828523D01*
X153846952Y-87780904D01*
X153799333Y-87685666D01*
X153799333Y-87447571D01*
X153846952Y-87352333D01*
X153894571Y-87304714D01*
X153989809Y-87257095D01*
X154227904Y-87257095D01*
X154323142Y-87304714D01*
X154370761Y-87352333D01*
X154418380Y-87447571D01*
X154418380Y-87685666D01*
X154370761Y-87780904D01*
X154323142Y-87828523D01*
%TO.C,R17*%
X154418380Y-94054357D02*
X153942190Y-94387690D01*
X154418380Y-94625785D02*
X153418380Y-94625785D01*
X153418380Y-94244833D01*
X153466000Y-94149595D01*
X153513619Y-94101976D01*
X153608857Y-94054357D01*
X153751714Y-94054357D01*
X153846952Y-94101976D01*
X153894571Y-94149595D01*
X153942190Y-94244833D01*
X153942190Y-94625785D01*
X154418380Y-93101976D02*
X154418380Y-93673404D01*
X154418380Y-93387690D02*
X153418380Y-93387690D01*
X153561238Y-93482928D01*
X153656476Y-93578166D01*
X153704095Y-93673404D01*
X153418380Y-92768642D02*
X153418380Y-92101976D01*
X154418380Y-92530547D01*
%TO.C,R19*%
X154418380Y-98940857D02*
X153942190Y-99274190D01*
X154418380Y-99512285D02*
X153418380Y-99512285D01*
X153418380Y-99131333D01*
X153466000Y-99036095D01*
X153513619Y-98988476D01*
X153608857Y-98940857D01*
X153751714Y-98940857D01*
X153846952Y-98988476D01*
X153894571Y-99036095D01*
X153942190Y-99131333D01*
X153942190Y-99512285D01*
X154418380Y-97988476D02*
X154418380Y-98559904D01*
X154418380Y-98274190D02*
X153418380Y-98274190D01*
X153561238Y-98369428D01*
X153656476Y-98464666D01*
X153704095Y-98559904D01*
X154418380Y-97512285D02*
X154418380Y-97321809D01*
X154370761Y-97226571D01*
X154323142Y-97178952D01*
X154180285Y-97083714D01*
X153989809Y-97036095D01*
X153608857Y-97036095D01*
X153513619Y-97083714D01*
X153466000Y-97131333D01*
X153418380Y-97226571D01*
X153418380Y-97417047D01*
X153466000Y-97512285D01*
X153513619Y-97559904D01*
X153608857Y-97607523D01*
X153846952Y-97607523D01*
X153942190Y-97559904D01*
X153989809Y-97512285D01*
X154037428Y-97417047D01*
X154037428Y-97226571D01*
X153989809Y-97131333D01*
X153942190Y-97083714D01*
X153846952Y-97036095D01*
%TO.C,R21*%
X154418380Y-103833357D02*
X153942190Y-104166690D01*
X154418380Y-104404785D02*
X153418380Y-104404785D01*
X153418380Y-104023833D01*
X153466000Y-103928595D01*
X153513619Y-103880976D01*
X153608857Y-103833357D01*
X153751714Y-103833357D01*
X153846952Y-103880976D01*
X153894571Y-103928595D01*
X153942190Y-104023833D01*
X153942190Y-104404785D01*
X153513619Y-103452404D02*
X153466000Y-103404785D01*
X153418380Y-103309547D01*
X153418380Y-103071452D01*
X153466000Y-102976214D01*
X153513619Y-102928595D01*
X153608857Y-102880976D01*
X153704095Y-102880976D01*
X153846952Y-102928595D01*
X154418380Y-103500023D01*
X154418380Y-102880976D01*
X154418380Y-101928595D02*
X154418380Y-102500023D01*
X154418380Y-102214309D02*
X153418380Y-102214309D01*
X153561238Y-102309547D01*
X153656476Y-102404785D01*
X153704095Y-102500023D01*
%TO.C,R23*%
X154418380Y-108659357D02*
X153942190Y-108992690D01*
X154418380Y-109230785D02*
X153418380Y-109230785D01*
X153418380Y-108849833D01*
X153466000Y-108754595D01*
X153513619Y-108706976D01*
X153608857Y-108659357D01*
X153751714Y-108659357D01*
X153846952Y-108706976D01*
X153894571Y-108754595D01*
X153942190Y-108849833D01*
X153942190Y-109230785D01*
X153513619Y-108278404D02*
X153466000Y-108230785D01*
X153418380Y-108135547D01*
X153418380Y-107897452D01*
X153466000Y-107802214D01*
X153513619Y-107754595D01*
X153608857Y-107706976D01*
X153704095Y-107706976D01*
X153846952Y-107754595D01*
X154418380Y-108326023D01*
X154418380Y-107706976D01*
X153418380Y-107373642D02*
X153418380Y-106754595D01*
X153799333Y-107087928D01*
X153799333Y-106945071D01*
X153846952Y-106849833D01*
X153894571Y-106802214D01*
X153989809Y-106754595D01*
X154227904Y-106754595D01*
X154323142Y-106802214D01*
X154370761Y-106849833D01*
X154418380Y-106945071D01*
X154418380Y-107230785D01*
X154370761Y-107326023D01*
X154323142Y-107373642D01*
%TO.C,U1*%
X158813595Y-55938380D02*
X158813595Y-56747904D01*
X158861214Y-56843142D01*
X158908833Y-56890761D01*
X159004071Y-56938380D01*
X159194547Y-56938380D01*
X159289785Y-56890761D01*
X159337404Y-56843142D01*
X159385023Y-56747904D01*
X159385023Y-55938380D01*
X160385023Y-56938380D02*
X159813595Y-56938380D01*
X160099309Y-56938380D02*
X160099309Y-55938380D01*
X160004071Y-56081238D01*
X159908833Y-56176476D01*
X159813595Y-56224095D01*
%TO.C,U2*%
X160378595Y-63202880D02*
X160378595Y-64012404D01*
X160426214Y-64107642D01*
X160473833Y-64155261D01*
X160569071Y-64202880D01*
X160759547Y-64202880D01*
X160854785Y-64155261D01*
X160902404Y-64107642D01*
X160950023Y-64012404D01*
X160950023Y-63202880D01*
X161378595Y-63298119D02*
X161426214Y-63250500D01*
X161521452Y-63202880D01*
X161759547Y-63202880D01*
X161854785Y-63250500D01*
X161902404Y-63298119D01*
X161950023Y-63393357D01*
X161950023Y-63488595D01*
X161902404Y-63631452D01*
X161330976Y-64202880D01*
X161950023Y-64202880D01*
%TO.C,U3*%
X160360095Y-72918380D02*
X160360095Y-73727904D01*
X160407714Y-73823142D01*
X160455333Y-73870761D01*
X160550571Y-73918380D01*
X160741047Y-73918380D01*
X160836285Y-73870761D01*
X160883904Y-73823142D01*
X160931523Y-73727904D01*
X160931523Y-72918380D01*
X161312476Y-72918380D02*
X161931523Y-72918380D01*
X161598190Y-73299333D01*
X161741047Y-73299333D01*
X161836285Y-73346952D01*
X161883904Y-73394571D01*
X161931523Y-73489809D01*
X161931523Y-73727904D01*
X161883904Y-73823142D01*
X161836285Y-73870761D01*
X161741047Y-73918380D01*
X161455333Y-73918380D01*
X161360095Y-73870761D01*
X161312476Y-73823142D01*
%TO.C,U4*%
X160401095Y-82633880D02*
X160401095Y-83443404D01*
X160448714Y-83538642D01*
X160496333Y-83586261D01*
X160591571Y-83633880D01*
X160782047Y-83633880D01*
X160877285Y-83586261D01*
X160924904Y-83538642D01*
X160972523Y-83443404D01*
X160972523Y-82633880D01*
X161877285Y-82967214D02*
X161877285Y-83633880D01*
X161639190Y-82586261D02*
X161401095Y-83300547D01*
X162020142Y-83300547D01*
%TO.C,U5*%
X160401095Y-92412880D02*
X160401095Y-93222404D01*
X160448714Y-93317642D01*
X160496333Y-93365261D01*
X160591571Y-93412880D01*
X160782047Y-93412880D01*
X160877285Y-93365261D01*
X160924904Y-93317642D01*
X160972523Y-93222404D01*
X160972523Y-92412880D01*
X161924904Y-92412880D02*
X161448714Y-92412880D01*
X161401095Y-92889071D01*
X161448714Y-92841452D01*
X161543952Y-92793833D01*
X161782047Y-92793833D01*
X161877285Y-92841452D01*
X161924904Y-92889071D01*
X161972523Y-92984309D01*
X161972523Y-93222404D01*
X161924904Y-93317642D01*
X161877285Y-93365261D01*
X161782047Y-93412880D01*
X161543952Y-93412880D01*
X161448714Y-93365261D01*
X161401095Y-93317642D01*
%TO.C,U6*%
X160378595Y-102183880D02*
X160378595Y-102993404D01*
X160426214Y-103088642D01*
X160473833Y-103136261D01*
X160569071Y-103183880D01*
X160759547Y-103183880D01*
X160854785Y-103136261D01*
X160902404Y-103088642D01*
X160950023Y-102993404D01*
X160950023Y-102183880D01*
X161854785Y-102183880D02*
X161664309Y-102183880D01*
X161569071Y-102231500D01*
X161521452Y-102279119D01*
X161426214Y-102421976D01*
X161378595Y-102612452D01*
X161378595Y-102993404D01*
X161426214Y-103088642D01*
X161473833Y-103136261D01*
X161569071Y-103183880D01*
X161759547Y-103183880D01*
X161854785Y-103136261D01*
X161902404Y-103088642D01*
X161950023Y-102993404D01*
X161950023Y-102755309D01*
X161902404Y-102660071D01*
X161854785Y-102612452D01*
X161759547Y-102564833D01*
X161569071Y-102564833D01*
X161473833Y-102612452D01*
X161426214Y-102660071D01*
X161378595Y-102755309D01*
%TO.C,U7*%
X160401095Y-111907380D02*
X160401095Y-112716904D01*
X160448714Y-112812142D01*
X160496333Y-112859761D01*
X160591571Y-112907380D01*
X160782047Y-112907380D01*
X160877285Y-112859761D01*
X160924904Y-112812142D01*
X160972523Y-112716904D01*
X160972523Y-111907380D01*
X161353476Y-111907380D02*
X162020142Y-111907380D01*
X161591571Y-112907380D01*
%TO.C,U8*%
X173268095Y-109410380D02*
X173268095Y-110219904D01*
X173315714Y-110315142D01*
X173363333Y-110362761D01*
X173458571Y-110410380D01*
X173649047Y-110410380D01*
X173744285Y-110362761D01*
X173791904Y-110315142D01*
X173839523Y-110219904D01*
X173839523Y-109410380D01*
X174458571Y-109838952D02*
X174363333Y-109791333D01*
X174315714Y-109743714D01*
X174268095Y-109648476D01*
X174268095Y-109600857D01*
X174315714Y-109505619D01*
X174363333Y-109458000D01*
X174458571Y-109410380D01*
X174649047Y-109410380D01*
X174744285Y-109458000D01*
X174791904Y-109505619D01*
X174839523Y-109600857D01*
X174839523Y-109648476D01*
X174791904Y-109743714D01*
X174744285Y-109791333D01*
X174649047Y-109838952D01*
X174458571Y-109838952D01*
X174363333Y-109886571D01*
X174315714Y-109934190D01*
X174268095Y-110029428D01*
X174268095Y-110219904D01*
X174315714Y-110315142D01*
X174363333Y-110362761D01*
X174458571Y-110410380D01*
X174649047Y-110410380D01*
X174744285Y-110362761D01*
X174791904Y-110315142D01*
X174839523Y-110219904D01*
X174839523Y-110029428D01*
X174791904Y-109934190D01*
X174744285Y-109886571D01*
X174649047Y-109838952D01*
%TO.C,R8*%
X153488380Y-71924666D02*
X153012190Y-72258000D01*
X153488380Y-72496095D02*
X152488380Y-72496095D01*
X152488380Y-72115142D01*
X152536000Y-72019904D01*
X152583619Y-71972285D01*
X152678857Y-71924666D01*
X152821714Y-71924666D01*
X152916952Y-71972285D01*
X152964571Y-72019904D01*
X153012190Y-72115142D01*
X153012190Y-72496095D01*
X152916952Y-71353238D02*
X152869333Y-71448476D01*
X152821714Y-71496095D01*
X152726476Y-71543714D01*
X152678857Y-71543714D01*
X152583619Y-71496095D01*
X152536000Y-71448476D01*
X152488380Y-71353238D01*
X152488380Y-71162761D01*
X152536000Y-71067523D01*
X152583619Y-71019904D01*
X152678857Y-70972285D01*
X152726476Y-70972285D01*
X152821714Y-71019904D01*
X152869333Y-71067523D01*
X152916952Y-71162761D01*
X152916952Y-71353238D01*
X152964571Y-71448476D01*
X153012190Y-71496095D01*
X153107428Y-71543714D01*
X153297904Y-71543714D01*
X153393142Y-71496095D01*
X153440761Y-71448476D01*
X153488380Y-71353238D01*
X153488380Y-71162761D01*
X153440761Y-71067523D01*
X153393142Y-71019904D01*
X153297904Y-70972285D01*
X153107428Y-70972285D01*
X153012190Y-71019904D01*
X152964571Y-71067523D01*
X152916952Y-71162761D01*
%TO.C,R10*%
X153551880Y-77873857D02*
X153075690Y-78207190D01*
X153551880Y-78445285D02*
X152551880Y-78445285D01*
X152551880Y-78064333D01*
X152599500Y-77969095D01*
X152647119Y-77921476D01*
X152742357Y-77873857D01*
X152885214Y-77873857D01*
X152980452Y-77921476D01*
X153028071Y-77969095D01*
X153075690Y-78064333D01*
X153075690Y-78445285D01*
X153551880Y-76921476D02*
X153551880Y-77492904D01*
X153551880Y-77207190D02*
X152551880Y-77207190D01*
X152694738Y-77302428D01*
X152789976Y-77397666D01*
X152837595Y-77492904D01*
X152551880Y-76302428D02*
X152551880Y-76207190D01*
X152599500Y-76111952D01*
X152647119Y-76064333D01*
X152742357Y-76016714D01*
X152932833Y-75969095D01*
X153170928Y-75969095D01*
X153361404Y-76016714D01*
X153456642Y-76064333D01*
X153504261Y-76111952D01*
X153551880Y-76207190D01*
X153551880Y-76302428D01*
X153504261Y-76397666D01*
X153456642Y-76445285D01*
X153361404Y-76492904D01*
X153170928Y-76540523D01*
X152932833Y-76540523D01*
X152742357Y-76492904D01*
X152647119Y-76445285D01*
X152599500Y-76397666D01*
X152551880Y-76302428D01*
%TO.C,R12*%
X153551880Y-82179857D02*
X153075690Y-82513190D01*
X153551880Y-82751285D02*
X152551880Y-82751285D01*
X152551880Y-82370333D01*
X152599500Y-82275095D01*
X152647119Y-82227476D01*
X152742357Y-82179857D01*
X152885214Y-82179857D01*
X152980452Y-82227476D01*
X153028071Y-82275095D01*
X153075690Y-82370333D01*
X153075690Y-82751285D01*
X153551880Y-81227476D02*
X153551880Y-81798904D01*
X153551880Y-81513190D02*
X152551880Y-81513190D01*
X152694738Y-81608428D01*
X152789976Y-81703666D01*
X152837595Y-81798904D01*
X152647119Y-80846523D02*
X152599500Y-80798904D01*
X152551880Y-80703666D01*
X152551880Y-80465571D01*
X152599500Y-80370333D01*
X152647119Y-80322714D01*
X152742357Y-80275095D01*
X152837595Y-80275095D01*
X152980452Y-80322714D01*
X153551880Y-80894142D01*
X153551880Y-80275095D01*
%TO.C,R14*%
X153551880Y-87589357D02*
X153075690Y-87922690D01*
X153551880Y-88160785D02*
X152551880Y-88160785D01*
X152551880Y-87779833D01*
X152599500Y-87684595D01*
X152647119Y-87636976D01*
X152742357Y-87589357D01*
X152885214Y-87589357D01*
X152980452Y-87636976D01*
X153028071Y-87684595D01*
X153075690Y-87779833D01*
X153075690Y-88160785D01*
X153551880Y-86636976D02*
X153551880Y-87208404D01*
X153551880Y-86922690D02*
X152551880Y-86922690D01*
X152694738Y-87017928D01*
X152789976Y-87113166D01*
X152837595Y-87208404D01*
X152885214Y-85779833D02*
X153551880Y-85779833D01*
X152504261Y-86017928D02*
X153218547Y-86256023D01*
X153218547Y-85636976D01*
%TO.C,R16*%
X153551880Y-91958857D02*
X153075690Y-92292190D01*
X153551880Y-92530285D02*
X152551880Y-92530285D01*
X152551880Y-92149333D01*
X152599500Y-92054095D01*
X152647119Y-92006476D01*
X152742357Y-91958857D01*
X152885214Y-91958857D01*
X152980452Y-92006476D01*
X153028071Y-92054095D01*
X153075690Y-92149333D01*
X153075690Y-92530285D01*
X153551880Y-91006476D02*
X153551880Y-91577904D01*
X153551880Y-91292190D02*
X152551880Y-91292190D01*
X152694738Y-91387428D01*
X152789976Y-91482666D01*
X152837595Y-91577904D01*
X152551880Y-90149333D02*
X152551880Y-90339809D01*
X152599500Y-90435047D01*
X152647119Y-90482666D01*
X152789976Y-90577904D01*
X152980452Y-90625523D01*
X153361404Y-90625523D01*
X153456642Y-90577904D01*
X153504261Y-90530285D01*
X153551880Y-90435047D01*
X153551880Y-90244571D01*
X153504261Y-90149333D01*
X153456642Y-90101714D01*
X153361404Y-90054095D01*
X153123309Y-90054095D01*
X153028071Y-90101714D01*
X152980452Y-90149333D01*
X152932833Y-90244571D01*
X152932833Y-90435047D01*
X152980452Y-90530285D01*
X153028071Y-90577904D01*
X153123309Y-90625523D01*
%TO.C,R18*%
X153551880Y-97368357D02*
X153075690Y-97701690D01*
X153551880Y-97939785D02*
X152551880Y-97939785D01*
X152551880Y-97558833D01*
X152599500Y-97463595D01*
X152647119Y-97415976D01*
X152742357Y-97368357D01*
X152885214Y-97368357D01*
X152980452Y-97415976D01*
X153028071Y-97463595D01*
X153075690Y-97558833D01*
X153075690Y-97939785D01*
X153551880Y-96415976D02*
X153551880Y-96987404D01*
X153551880Y-96701690D02*
X152551880Y-96701690D01*
X152694738Y-96796928D01*
X152789976Y-96892166D01*
X152837595Y-96987404D01*
X152980452Y-95844547D02*
X152932833Y-95939785D01*
X152885214Y-95987404D01*
X152789976Y-96035023D01*
X152742357Y-96035023D01*
X152647119Y-95987404D01*
X152599500Y-95939785D01*
X152551880Y-95844547D01*
X152551880Y-95654071D01*
X152599500Y-95558833D01*
X152647119Y-95511214D01*
X152742357Y-95463595D01*
X152789976Y-95463595D01*
X152885214Y-95511214D01*
X152932833Y-95558833D01*
X152980452Y-95654071D01*
X152980452Y-95844547D01*
X153028071Y-95939785D01*
X153075690Y-95987404D01*
X153170928Y-96035023D01*
X153361404Y-96035023D01*
X153456642Y-95987404D01*
X153504261Y-95939785D01*
X153551880Y-95844547D01*
X153551880Y-95654071D01*
X153504261Y-95558833D01*
X153456642Y-95511214D01*
X153361404Y-95463595D01*
X153170928Y-95463595D01*
X153075690Y-95511214D01*
X153028071Y-95558833D01*
X152980452Y-95654071D01*
%TO.C,R20*%
X153551880Y-101737857D02*
X153075690Y-102071190D01*
X153551880Y-102309285D02*
X152551880Y-102309285D01*
X152551880Y-101928333D01*
X152599500Y-101833095D01*
X152647119Y-101785476D01*
X152742357Y-101737857D01*
X152885214Y-101737857D01*
X152980452Y-101785476D01*
X153028071Y-101833095D01*
X153075690Y-101928333D01*
X153075690Y-102309285D01*
X152647119Y-101356904D02*
X152599500Y-101309285D01*
X152551880Y-101214047D01*
X152551880Y-100975952D01*
X152599500Y-100880714D01*
X152647119Y-100833095D01*
X152742357Y-100785476D01*
X152837595Y-100785476D01*
X152980452Y-100833095D01*
X153551880Y-101404523D01*
X153551880Y-100785476D01*
X152551880Y-100166428D02*
X152551880Y-100071190D01*
X152599500Y-99975952D01*
X152647119Y-99928333D01*
X152742357Y-99880714D01*
X152932833Y-99833095D01*
X153170928Y-99833095D01*
X153361404Y-99880714D01*
X153456642Y-99928333D01*
X153504261Y-99975952D01*
X153551880Y-100071190D01*
X153551880Y-100166428D01*
X153504261Y-100261666D01*
X153456642Y-100309285D01*
X153361404Y-100356904D01*
X153170928Y-100404523D01*
X152932833Y-100404523D01*
X152742357Y-100356904D01*
X152647119Y-100309285D01*
X152599500Y-100261666D01*
X152551880Y-100166428D01*
%TO.C,R22*%
X153488380Y-107083857D02*
X153012190Y-107417190D01*
X153488380Y-107655285D02*
X152488380Y-107655285D01*
X152488380Y-107274333D01*
X152536000Y-107179095D01*
X152583619Y-107131476D01*
X152678857Y-107083857D01*
X152821714Y-107083857D01*
X152916952Y-107131476D01*
X152964571Y-107179095D01*
X153012190Y-107274333D01*
X153012190Y-107655285D01*
X152583619Y-106702904D02*
X152536000Y-106655285D01*
X152488380Y-106560047D01*
X152488380Y-106321952D01*
X152536000Y-106226714D01*
X152583619Y-106179095D01*
X152678857Y-106131476D01*
X152774095Y-106131476D01*
X152916952Y-106179095D01*
X153488380Y-106750523D01*
X153488380Y-106131476D01*
X152583619Y-105750523D02*
X152536000Y-105702904D01*
X152488380Y-105607666D01*
X152488380Y-105369571D01*
X152536000Y-105274333D01*
X152583619Y-105226714D01*
X152678857Y-105179095D01*
X152774095Y-105179095D01*
X152916952Y-105226714D01*
X153488380Y-105798142D01*
X153488380Y-105179095D01*
%TO.C,R24*%
X153488380Y-111453357D02*
X153012190Y-111786690D01*
X153488380Y-112024785D02*
X152488380Y-112024785D01*
X152488380Y-111643833D01*
X152536000Y-111548595D01*
X152583619Y-111500976D01*
X152678857Y-111453357D01*
X152821714Y-111453357D01*
X152916952Y-111500976D01*
X152964571Y-111548595D01*
X153012190Y-111643833D01*
X153012190Y-112024785D01*
X152583619Y-111072404D02*
X152536000Y-111024785D01*
X152488380Y-110929547D01*
X152488380Y-110691452D01*
X152536000Y-110596214D01*
X152583619Y-110548595D01*
X152678857Y-110500976D01*
X152774095Y-110500976D01*
X152916952Y-110548595D01*
X153488380Y-111120023D01*
X153488380Y-110500976D01*
X152821714Y-109643833D02*
X153488380Y-109643833D01*
X152440761Y-109881928D02*
X153155047Y-110120023D01*
X153155047Y-109500976D01*
%TO.C,R2*%
X153488380Y-57815666D02*
X153012190Y-58149000D01*
X153488380Y-58387095D02*
X152488380Y-58387095D01*
X152488380Y-58006142D01*
X152536000Y-57910904D01*
X152583619Y-57863285D01*
X152678857Y-57815666D01*
X152821714Y-57815666D01*
X152916952Y-57863285D01*
X152964571Y-57910904D01*
X153012190Y-58006142D01*
X153012190Y-58387095D01*
X152583619Y-57434714D02*
X152536000Y-57387095D01*
X152488380Y-57291857D01*
X152488380Y-57053761D01*
X152536000Y-56958523D01*
X152583619Y-56910904D01*
X152678857Y-56863285D01*
X152774095Y-56863285D01*
X152916952Y-56910904D01*
X153488380Y-57482333D01*
X153488380Y-56863285D01*
%TO.C,R4*%
X153488380Y-62272666D02*
X153012190Y-62606000D01*
X153488380Y-62844095D02*
X152488380Y-62844095D01*
X152488380Y-62463142D01*
X152536000Y-62367904D01*
X152583619Y-62320285D01*
X152678857Y-62272666D01*
X152821714Y-62272666D01*
X152916952Y-62320285D01*
X152964571Y-62367904D01*
X153012190Y-62463142D01*
X153012190Y-62844095D01*
X152821714Y-61415523D02*
X153488380Y-61415523D01*
X152440761Y-61653619D02*
X153155047Y-61891714D01*
X153155047Y-61272666D01*
%TO.C,R6*%
X153488380Y-67531166D02*
X153012190Y-67864500D01*
X153488380Y-68102595D02*
X152488380Y-68102595D01*
X152488380Y-67721642D01*
X152536000Y-67626404D01*
X152583619Y-67578785D01*
X152678857Y-67531166D01*
X152821714Y-67531166D01*
X152916952Y-67578785D01*
X152964571Y-67626404D01*
X153012190Y-67721642D01*
X153012190Y-68102595D01*
X152488380Y-66674023D02*
X152488380Y-66864500D01*
X152536000Y-66959738D01*
X152583619Y-67007357D01*
X152726476Y-67102595D01*
X152916952Y-67150214D01*
X153297904Y-67150214D01*
X153393142Y-67102595D01*
X153440761Y-67054976D01*
X153488380Y-66959738D01*
X153488380Y-66769261D01*
X153440761Y-66674023D01*
X153393142Y-66626404D01*
X153297904Y-66578785D01*
X153059809Y-66578785D01*
X152964571Y-66626404D01*
X152916952Y-66674023D01*
X152869333Y-66769261D01*
X152869333Y-66959738D01*
X152916952Y-67054976D01*
X152964571Y-67102595D01*
X153059809Y-67150214D01*
%TO.C,+5V1*%
X183975595Y-56636928D02*
X184737500Y-56636928D01*
X184356547Y-57017880D02*
X184356547Y-56255976D01*
X185689880Y-56017880D02*
X185213690Y-56017880D01*
X185166071Y-56494071D01*
X185213690Y-56446452D01*
X185308928Y-56398833D01*
X185547023Y-56398833D01*
X185642261Y-56446452D01*
X185689880Y-56494071D01*
X185737500Y-56589309D01*
X185737500Y-56827404D01*
X185689880Y-56922642D01*
X185642261Y-56970261D01*
X185547023Y-57017880D01*
X185308928Y-57017880D01*
X185213690Y-56970261D01*
X185166071Y-56922642D01*
X186023214Y-56017880D02*
X186356547Y-57017880D01*
X186689880Y-56017880D01*
X187547023Y-57017880D02*
X186975595Y-57017880D01*
X187261309Y-57017880D02*
X187261309Y-56017880D01*
X187166071Y-56160738D01*
X187070833Y-56255976D01*
X186975595Y-56303595D01*
%TO.C,GND1*%
X163353904Y-119819500D02*
X163258666Y-119771880D01*
X163115809Y-119771880D01*
X162972952Y-119819500D01*
X162877714Y-119914738D01*
X162830095Y-120009976D01*
X162782476Y-120200452D01*
X162782476Y-120343309D01*
X162830095Y-120533785D01*
X162877714Y-120629023D01*
X162972952Y-120724261D01*
X163115809Y-120771880D01*
X163211047Y-120771880D01*
X163353904Y-120724261D01*
X163401523Y-120676642D01*
X163401523Y-120343309D01*
X163211047Y-120343309D01*
X163830095Y-120771880D02*
X163830095Y-119771880D01*
X164401523Y-120771880D01*
X164401523Y-119771880D01*
X164877714Y-120771880D02*
X164877714Y-119771880D01*
X165115809Y-119771880D01*
X165258666Y-119819500D01*
X165353904Y-119914738D01*
X165401523Y-120009976D01*
X165449142Y-120200452D01*
X165449142Y-120343309D01*
X165401523Y-120533785D01*
X165353904Y-120629023D01*
X165258666Y-120724261D01*
X165115809Y-120771880D01*
X164877714Y-120771880D01*
X166401523Y-120771880D02*
X165830095Y-120771880D01*
X166115809Y-120771880D02*
X166115809Y-119771880D01*
X166020571Y-119914738D01*
X165925333Y-120009976D01*
X165830095Y-120057595D01*
%TO.C,GNDA1*%
X156384833Y-119756000D02*
X156289595Y-119708380D01*
X156146738Y-119708380D01*
X156003880Y-119756000D01*
X155908642Y-119851238D01*
X155861023Y-119946476D01*
X155813404Y-120136952D01*
X155813404Y-120279809D01*
X155861023Y-120470285D01*
X155908642Y-120565523D01*
X156003880Y-120660761D01*
X156146738Y-120708380D01*
X156241976Y-120708380D01*
X156384833Y-120660761D01*
X156432452Y-120613142D01*
X156432452Y-120279809D01*
X156241976Y-120279809D01*
X156861023Y-120708380D02*
X156861023Y-119708380D01*
X157432452Y-120708380D01*
X157432452Y-119708380D01*
X157908642Y-120708380D02*
X157908642Y-119708380D01*
X158146738Y-119708380D01*
X158289595Y-119756000D01*
X158384833Y-119851238D01*
X158432452Y-119946476D01*
X158480071Y-120136952D01*
X158480071Y-120279809D01*
X158432452Y-120470285D01*
X158384833Y-120565523D01*
X158289595Y-120660761D01*
X158146738Y-120708380D01*
X157908642Y-120708380D01*
X158861023Y-120422666D02*
X159337214Y-120422666D01*
X158765785Y-120708380D02*
X159099119Y-119708380D01*
X159432452Y-120708380D01*
X160289595Y-120708380D02*
X159718166Y-120708380D01*
X160003880Y-120708380D02*
X160003880Y-119708380D01*
X159908642Y-119851238D01*
X159813404Y-119946476D01*
X159718166Y-119994095D01*
%TO.C,J1*%
X160321666Y-50366380D02*
X160321666Y-51080666D01*
X160274047Y-51223523D01*
X160178809Y-51318761D01*
X160035952Y-51366380D01*
X159940714Y-51366380D01*
X161321666Y-51366380D02*
X160750238Y-51366380D01*
X161035952Y-51366380D02*
X161035952Y-50366380D01*
X160940714Y-50509238D01*
X160845476Y-50604476D01*
X160750238Y-50652095D01*
%TO.C,J2*%
X165719166Y-50239380D02*
X165719166Y-50953666D01*
X165671547Y-51096523D01*
X165576309Y-51191761D01*
X165433452Y-51239380D01*
X165338214Y-51239380D01*
X166147738Y-50334619D02*
X166195357Y-50287000D01*
X166290595Y-50239380D01*
X166528690Y-50239380D01*
X166623928Y-50287000D01*
X166671547Y-50334619D01*
X166719166Y-50429857D01*
X166719166Y-50525095D01*
X166671547Y-50667952D01*
X166100119Y-51239380D01*
X166719166Y-51239380D01*
%TO.C,J3*%
X171243666Y-50239380D02*
X171243666Y-50953666D01*
X171196047Y-51096523D01*
X171100809Y-51191761D01*
X170957952Y-51239380D01*
X170862714Y-51239380D01*
X171624619Y-50239380D02*
X172243666Y-50239380D01*
X171910333Y-50620333D01*
X172053190Y-50620333D01*
X172148428Y-50667952D01*
X172196047Y-50715571D01*
X172243666Y-50810809D01*
X172243666Y-51048904D01*
X172196047Y-51144142D01*
X172148428Y-51191761D01*
X172053190Y-51239380D01*
X171767476Y-51239380D01*
X171672238Y-51191761D01*
X171624619Y-51144142D01*
%TO.C,ModeSelect1*%
X177667880Y-58617880D02*
X176667880Y-58617880D01*
X177382166Y-58284547D01*
X176667880Y-57951214D01*
X177667880Y-57951214D01*
X177667880Y-57332166D02*
X177620261Y-57427404D01*
X177572642Y-57475023D01*
X177477404Y-57522642D01*
X177191690Y-57522642D01*
X177096452Y-57475023D01*
X177048833Y-57427404D01*
X177001214Y-57332166D01*
X177001214Y-57189309D01*
X177048833Y-57094071D01*
X177096452Y-57046452D01*
X177191690Y-56998833D01*
X177477404Y-56998833D01*
X177572642Y-57046452D01*
X177620261Y-57094071D01*
X177667880Y-57189309D01*
X177667880Y-57332166D01*
X177667880Y-56141690D02*
X176667880Y-56141690D01*
X177620261Y-56141690D02*
X177667880Y-56236928D01*
X177667880Y-56427404D01*
X177620261Y-56522642D01*
X177572642Y-56570261D01*
X177477404Y-56617880D01*
X177191690Y-56617880D01*
X177096452Y-56570261D01*
X177048833Y-56522642D01*
X177001214Y-56427404D01*
X177001214Y-56236928D01*
X177048833Y-56141690D01*
X177620261Y-55284547D02*
X177667880Y-55379785D01*
X177667880Y-55570261D01*
X177620261Y-55665500D01*
X177525023Y-55713119D01*
X177144071Y-55713119D01*
X177048833Y-55665500D01*
X177001214Y-55570261D01*
X177001214Y-55379785D01*
X177048833Y-55284547D01*
X177144071Y-55236928D01*
X177239309Y-55236928D01*
X177334547Y-55713119D01*
X177620261Y-54855976D02*
X177667880Y-54713119D01*
X177667880Y-54475023D01*
X177620261Y-54379785D01*
X177572642Y-54332166D01*
X177477404Y-54284547D01*
X177382166Y-54284547D01*
X177286928Y-54332166D01*
X177239309Y-54379785D01*
X177191690Y-54475023D01*
X177144071Y-54665500D01*
X177096452Y-54760738D01*
X177048833Y-54808357D01*
X176953595Y-54855976D01*
X176858357Y-54855976D01*
X176763119Y-54808357D01*
X176715500Y-54760738D01*
X176667880Y-54665500D01*
X176667880Y-54427404D01*
X176715500Y-54284547D01*
X177620261Y-53475023D02*
X177667880Y-53570261D01*
X177667880Y-53760738D01*
X177620261Y-53855976D01*
X177525023Y-53903595D01*
X177144071Y-53903595D01*
X177048833Y-53855976D01*
X177001214Y-53760738D01*
X177001214Y-53570261D01*
X177048833Y-53475023D01*
X177144071Y-53427404D01*
X177239309Y-53427404D01*
X177334547Y-53903595D01*
X177667880Y-52855976D02*
X177620261Y-52951214D01*
X177525023Y-52998833D01*
X176667880Y-52998833D01*
X177620261Y-52094071D02*
X177667880Y-52189309D01*
X177667880Y-52379785D01*
X177620261Y-52475023D01*
X177525023Y-52522642D01*
X177144071Y-52522642D01*
X177048833Y-52475023D01*
X177001214Y-52379785D01*
X177001214Y-52189309D01*
X177048833Y-52094071D01*
X177144071Y-52046452D01*
X177239309Y-52046452D01*
X177334547Y-52522642D01*
X177620261Y-51189309D02*
X177667880Y-51284547D01*
X177667880Y-51475023D01*
X177620261Y-51570261D01*
X177572642Y-51617880D01*
X177477404Y-51665500D01*
X177191690Y-51665500D01*
X177096452Y-51617880D01*
X177048833Y-51570261D01*
X177001214Y-51475023D01*
X177001214Y-51284547D01*
X177048833Y-51189309D01*
X177001214Y-50903595D02*
X177001214Y-50522642D01*
X176667880Y-50760738D02*
X177525023Y-50760738D01*
X177620261Y-50713119D01*
X177667880Y-50617880D01*
X177667880Y-50522642D01*
X177667880Y-49665500D02*
X177667880Y-50236928D01*
X177667880Y-49951214D02*
X176667880Y-49951214D01*
X176810738Y-50046452D01*
X176905976Y-50141690D01*
X176953595Y-50236928D01*
%TO.C,ModeSelect2*%
X183065380Y-58554380D02*
X182065380Y-58554380D01*
X182779666Y-58221047D01*
X182065380Y-57887714D01*
X183065380Y-57887714D01*
X183065380Y-57268666D02*
X183017761Y-57363904D01*
X182970142Y-57411523D01*
X182874904Y-57459142D01*
X182589190Y-57459142D01*
X182493952Y-57411523D01*
X182446333Y-57363904D01*
X182398714Y-57268666D01*
X182398714Y-57125809D01*
X182446333Y-57030571D01*
X182493952Y-56982952D01*
X182589190Y-56935333D01*
X182874904Y-56935333D01*
X182970142Y-56982952D01*
X183017761Y-57030571D01*
X183065380Y-57125809D01*
X183065380Y-57268666D01*
X183065380Y-56078190D02*
X182065380Y-56078190D01*
X183017761Y-56078190D02*
X183065380Y-56173428D01*
X183065380Y-56363904D01*
X183017761Y-56459142D01*
X182970142Y-56506761D01*
X182874904Y-56554380D01*
X182589190Y-56554380D01*
X182493952Y-56506761D01*
X182446333Y-56459142D01*
X182398714Y-56363904D01*
X182398714Y-56173428D01*
X182446333Y-56078190D01*
X183017761Y-55221047D02*
X183065380Y-55316285D01*
X183065380Y-55506761D01*
X183017761Y-55602000D01*
X182922523Y-55649619D01*
X182541571Y-55649619D01*
X182446333Y-55602000D01*
X182398714Y-55506761D01*
X182398714Y-55316285D01*
X182446333Y-55221047D01*
X182541571Y-55173428D01*
X182636809Y-55173428D01*
X182732047Y-55649619D01*
X183017761Y-54792476D02*
X183065380Y-54649619D01*
X183065380Y-54411523D01*
X183017761Y-54316285D01*
X182970142Y-54268666D01*
X182874904Y-54221047D01*
X182779666Y-54221047D01*
X182684428Y-54268666D01*
X182636809Y-54316285D01*
X182589190Y-54411523D01*
X182541571Y-54602000D01*
X182493952Y-54697238D01*
X182446333Y-54744857D01*
X182351095Y-54792476D01*
X182255857Y-54792476D01*
X182160619Y-54744857D01*
X182113000Y-54697238D01*
X182065380Y-54602000D01*
X182065380Y-54363904D01*
X182113000Y-54221047D01*
X183017761Y-53411523D02*
X183065380Y-53506761D01*
X183065380Y-53697238D01*
X183017761Y-53792476D01*
X182922523Y-53840095D01*
X182541571Y-53840095D01*
X182446333Y-53792476D01*
X182398714Y-53697238D01*
X182398714Y-53506761D01*
X182446333Y-53411523D01*
X182541571Y-53363904D01*
X182636809Y-53363904D01*
X182732047Y-53840095D01*
X183065380Y-52792476D02*
X183017761Y-52887714D01*
X182922523Y-52935333D01*
X182065380Y-52935333D01*
X183017761Y-52030571D02*
X183065380Y-52125809D01*
X183065380Y-52316285D01*
X183017761Y-52411523D01*
X182922523Y-52459142D01*
X182541571Y-52459142D01*
X182446333Y-52411523D01*
X182398714Y-52316285D01*
X182398714Y-52125809D01*
X182446333Y-52030571D01*
X182541571Y-51982952D01*
X182636809Y-51982952D01*
X182732047Y-52459142D01*
X183017761Y-51125809D02*
X183065380Y-51221047D01*
X183065380Y-51411523D01*
X183017761Y-51506761D01*
X182970142Y-51554380D01*
X182874904Y-51602000D01*
X182589190Y-51602000D01*
X182493952Y-51554380D01*
X182446333Y-51506761D01*
X182398714Y-51411523D01*
X182398714Y-51221047D01*
X182446333Y-51125809D01*
X182398714Y-50840095D02*
X182398714Y-50459142D01*
X182065380Y-50697238D02*
X182922523Y-50697238D01*
X183017761Y-50649619D01*
X183065380Y-50554380D01*
X183065380Y-50459142D01*
X182160619Y-50173428D02*
X182113000Y-50125809D01*
X182065380Y-50030571D01*
X182065380Y-49792476D01*
X182113000Y-49697238D01*
X182160619Y-49649619D01*
X182255857Y-49602000D01*
X182351095Y-49602000D01*
X182493952Y-49649619D01*
X183065380Y-50221047D01*
X183065380Y-49602000D01*
%TO.C,R25*%
X177491380Y-106893357D02*
X177015190Y-107226690D01*
X177491380Y-107464785D02*
X176491380Y-107464785D01*
X176491380Y-107083833D01*
X176539000Y-106988595D01*
X176586619Y-106940976D01*
X176681857Y-106893357D01*
X176824714Y-106893357D01*
X176919952Y-106940976D01*
X176967571Y-106988595D01*
X177015190Y-107083833D01*
X177015190Y-107464785D01*
X176586619Y-106512404D02*
X176539000Y-106464785D01*
X176491380Y-106369547D01*
X176491380Y-106131452D01*
X176539000Y-106036214D01*
X176586619Y-105988595D01*
X176681857Y-105940976D01*
X176777095Y-105940976D01*
X176919952Y-105988595D01*
X177491380Y-106560023D01*
X177491380Y-105940976D01*
X176491380Y-105036214D02*
X176491380Y-105512404D01*
X176967571Y-105560023D01*
X176919952Y-105512404D01*
X176872333Y-105417166D01*
X176872333Y-105179071D01*
X176919952Y-105083833D01*
X176967571Y-105036214D01*
X177062809Y-104988595D01*
X177300904Y-104988595D01*
X177396142Y-105036214D01*
X177443761Y-105083833D01*
X177491380Y-105179071D01*
X177491380Y-105417166D01*
X177443761Y-105512404D01*
X177396142Y-105560023D01*
%TO.C,R26*%
X177491380Y-112275857D02*
X177015190Y-112609190D01*
X177491380Y-112847285D02*
X176491380Y-112847285D01*
X176491380Y-112466333D01*
X176539000Y-112371095D01*
X176586619Y-112323476D01*
X176681857Y-112275857D01*
X176824714Y-112275857D01*
X176919952Y-112323476D01*
X176967571Y-112371095D01*
X177015190Y-112466333D01*
X177015190Y-112847285D01*
X176586619Y-111894904D02*
X176539000Y-111847285D01*
X176491380Y-111752047D01*
X176491380Y-111513952D01*
X176539000Y-111418714D01*
X176586619Y-111371095D01*
X176681857Y-111323476D01*
X176777095Y-111323476D01*
X176919952Y-111371095D01*
X177491380Y-111942523D01*
X177491380Y-111323476D01*
X176491380Y-110466333D02*
X176491380Y-110656809D01*
X176539000Y-110752047D01*
X176586619Y-110799666D01*
X176729476Y-110894904D01*
X176919952Y-110942523D01*
X177300904Y-110942523D01*
X177396142Y-110894904D01*
X177443761Y-110847285D01*
X177491380Y-110752047D01*
X177491380Y-110561571D01*
X177443761Y-110466333D01*
X177396142Y-110418714D01*
X177300904Y-110371095D01*
X177062809Y-110371095D01*
X176967571Y-110418714D01*
X176919952Y-110466333D01*
X176872333Y-110561571D01*
X176872333Y-110752047D01*
X176919952Y-110847285D01*
X176967571Y-110894904D01*
X177062809Y-110942523D01*
%TO.C,R27*%
X137527380Y-55122857D02*
X137051190Y-55456190D01*
X137527380Y-55694285D02*
X136527380Y-55694285D01*
X136527380Y-55313333D01*
X136575000Y-55218095D01*
X136622619Y-55170476D01*
X136717857Y-55122857D01*
X136860714Y-55122857D01*
X136955952Y-55170476D01*
X137003571Y-55218095D01*
X137051190Y-55313333D01*
X137051190Y-55694285D01*
X136622619Y-54741904D02*
X136575000Y-54694285D01*
X136527380Y-54599047D01*
X136527380Y-54360952D01*
X136575000Y-54265714D01*
X136622619Y-54218095D01*
X136717857Y-54170476D01*
X136813095Y-54170476D01*
X136955952Y-54218095D01*
X137527380Y-54789523D01*
X137527380Y-54170476D01*
X136527380Y-53837142D02*
X136527380Y-53170476D01*
X137527380Y-53599047D01*
%TO.C,R28*%
X136660880Y-58315857D02*
X136184690Y-58649190D01*
X136660880Y-58887285D02*
X135660880Y-58887285D01*
X135660880Y-58506333D01*
X135708500Y-58411095D01*
X135756119Y-58363476D01*
X135851357Y-58315857D01*
X135994214Y-58315857D01*
X136089452Y-58363476D01*
X136137071Y-58411095D01*
X136184690Y-58506333D01*
X136184690Y-58887285D01*
X135756119Y-57934904D02*
X135708500Y-57887285D01*
X135660880Y-57792047D01*
X135660880Y-57553952D01*
X135708500Y-57458714D01*
X135756119Y-57411095D01*
X135851357Y-57363476D01*
X135946595Y-57363476D01*
X136089452Y-57411095D01*
X136660880Y-57982523D01*
X136660880Y-57363476D01*
X136089452Y-56792047D02*
X136041833Y-56887285D01*
X135994214Y-56934904D01*
X135898976Y-56982523D01*
X135851357Y-56982523D01*
X135756119Y-56934904D01*
X135708500Y-56887285D01*
X135660880Y-56792047D01*
X135660880Y-56601571D01*
X135708500Y-56506333D01*
X135756119Y-56458714D01*
X135851357Y-56411095D01*
X135898976Y-56411095D01*
X135994214Y-56458714D01*
X136041833Y-56506333D01*
X136089452Y-56601571D01*
X136089452Y-56792047D01*
X136137071Y-56887285D01*
X136184690Y-56934904D01*
X136279928Y-56982523D01*
X136470404Y-56982523D01*
X136565642Y-56934904D01*
X136613261Y-56887285D01*
X136660880Y-56792047D01*
X136660880Y-56601571D01*
X136613261Y-56506333D01*
X136565642Y-56458714D01*
X136470404Y-56411095D01*
X136279928Y-56411095D01*
X136184690Y-56458714D01*
X136137071Y-56506333D01*
X136089452Y-56601571D01*
%TO.C,R29*%
X137527380Y-59954857D02*
X137051190Y-60288190D01*
X137527380Y-60526285D02*
X136527380Y-60526285D01*
X136527380Y-60145333D01*
X136575000Y-60050095D01*
X136622619Y-60002476D01*
X136717857Y-59954857D01*
X136860714Y-59954857D01*
X136955952Y-60002476D01*
X137003571Y-60050095D01*
X137051190Y-60145333D01*
X137051190Y-60526285D01*
X136622619Y-59573904D02*
X136575000Y-59526285D01*
X136527380Y-59431047D01*
X136527380Y-59192952D01*
X136575000Y-59097714D01*
X136622619Y-59050095D01*
X136717857Y-59002476D01*
X136813095Y-59002476D01*
X136955952Y-59050095D01*
X137527380Y-59621523D01*
X137527380Y-59002476D01*
X137527380Y-58526285D02*
X137527380Y-58335809D01*
X137479761Y-58240571D01*
X137432142Y-58192952D01*
X137289285Y-58097714D01*
X137098809Y-58050095D01*
X136717857Y-58050095D01*
X136622619Y-58097714D01*
X136575000Y-58145333D01*
X136527380Y-58240571D01*
X136527380Y-58431047D01*
X136575000Y-58526285D01*
X136622619Y-58573904D01*
X136717857Y-58621523D01*
X136955952Y-58621523D01*
X137051190Y-58573904D01*
X137098809Y-58526285D01*
X137146428Y-58431047D01*
X137146428Y-58240571D01*
X137098809Y-58145333D01*
X137051190Y-58097714D01*
X136955952Y-58050095D01*
%TO.C,R30*%
X136660880Y-62506857D02*
X136184690Y-62840190D01*
X136660880Y-63078285D02*
X135660880Y-63078285D01*
X135660880Y-62697333D01*
X135708500Y-62602095D01*
X135756119Y-62554476D01*
X135851357Y-62506857D01*
X135994214Y-62506857D01*
X136089452Y-62554476D01*
X136137071Y-62602095D01*
X136184690Y-62697333D01*
X136184690Y-63078285D01*
X135660880Y-62173523D02*
X135660880Y-61554476D01*
X136041833Y-61887809D01*
X136041833Y-61744952D01*
X136089452Y-61649714D01*
X136137071Y-61602095D01*
X136232309Y-61554476D01*
X136470404Y-61554476D01*
X136565642Y-61602095D01*
X136613261Y-61649714D01*
X136660880Y-61744952D01*
X136660880Y-62030666D01*
X136613261Y-62125904D01*
X136565642Y-62173523D01*
X135660880Y-60935428D02*
X135660880Y-60840190D01*
X135708500Y-60744952D01*
X135756119Y-60697333D01*
X135851357Y-60649714D01*
X136041833Y-60602095D01*
X136279928Y-60602095D01*
X136470404Y-60649714D01*
X136565642Y-60697333D01*
X136613261Y-60744952D01*
X136660880Y-60840190D01*
X136660880Y-60935428D01*
X136613261Y-61030666D01*
X136565642Y-61078285D01*
X136470404Y-61125904D01*
X136279928Y-61173523D01*
X136041833Y-61173523D01*
X135851357Y-61125904D01*
X135756119Y-61078285D01*
X135708500Y-61030666D01*
X135660880Y-60935428D01*
%TO.C,R31*%
X137527380Y-64780857D02*
X137051190Y-65114190D01*
X137527380Y-65352285D02*
X136527380Y-65352285D01*
X136527380Y-64971333D01*
X136575000Y-64876095D01*
X136622619Y-64828476D01*
X136717857Y-64780857D01*
X136860714Y-64780857D01*
X136955952Y-64828476D01*
X137003571Y-64876095D01*
X137051190Y-64971333D01*
X137051190Y-65352285D01*
X136527380Y-64447523D02*
X136527380Y-63828476D01*
X136908333Y-64161809D01*
X136908333Y-64018952D01*
X136955952Y-63923714D01*
X137003571Y-63876095D01*
X137098809Y-63828476D01*
X137336904Y-63828476D01*
X137432142Y-63876095D01*
X137479761Y-63923714D01*
X137527380Y-64018952D01*
X137527380Y-64304666D01*
X137479761Y-64399904D01*
X137432142Y-64447523D01*
X137527380Y-62876095D02*
X137527380Y-63447523D01*
X137527380Y-63161809D02*
X136527380Y-63161809D01*
X136670238Y-63257047D01*
X136765476Y-63352285D01*
X136813095Y-63447523D01*
%TO.C,R32*%
X136660880Y-68064857D02*
X136184690Y-68398190D01*
X136660880Y-68636285D02*
X135660880Y-68636285D01*
X135660880Y-68255333D01*
X135708500Y-68160095D01*
X135756119Y-68112476D01*
X135851357Y-68064857D01*
X135994214Y-68064857D01*
X136089452Y-68112476D01*
X136137071Y-68160095D01*
X136184690Y-68255333D01*
X136184690Y-68636285D01*
X135660880Y-67731523D02*
X135660880Y-67112476D01*
X136041833Y-67445809D01*
X136041833Y-67302952D01*
X136089452Y-67207714D01*
X136137071Y-67160095D01*
X136232309Y-67112476D01*
X136470404Y-67112476D01*
X136565642Y-67160095D01*
X136613261Y-67207714D01*
X136660880Y-67302952D01*
X136660880Y-67588666D01*
X136613261Y-67683904D01*
X136565642Y-67731523D01*
X135756119Y-66731523D02*
X135708500Y-66683904D01*
X135660880Y-66588666D01*
X135660880Y-66350571D01*
X135708500Y-66255333D01*
X135756119Y-66207714D01*
X135851357Y-66160095D01*
X135946595Y-66160095D01*
X136089452Y-66207714D01*
X136660880Y-66779142D01*
X136660880Y-66160095D01*
%TO.C,R33*%
X137527380Y-69603857D02*
X137051190Y-69937190D01*
X137527380Y-70175285D02*
X136527380Y-70175285D01*
X136527380Y-69794333D01*
X136575000Y-69699095D01*
X136622619Y-69651476D01*
X136717857Y-69603857D01*
X136860714Y-69603857D01*
X136955952Y-69651476D01*
X137003571Y-69699095D01*
X137051190Y-69794333D01*
X137051190Y-70175285D01*
X136527380Y-69270523D02*
X136527380Y-68651476D01*
X136908333Y-68984809D01*
X136908333Y-68841952D01*
X136955952Y-68746714D01*
X137003571Y-68699095D01*
X137098809Y-68651476D01*
X137336904Y-68651476D01*
X137432142Y-68699095D01*
X137479761Y-68746714D01*
X137527380Y-68841952D01*
X137527380Y-69127666D01*
X137479761Y-69222904D01*
X137432142Y-69270523D01*
X136527380Y-68318142D02*
X136527380Y-67699095D01*
X136908333Y-68032428D01*
X136908333Y-67889571D01*
X136955952Y-67794333D01*
X137003571Y-67746714D01*
X137098809Y-67699095D01*
X137336904Y-67699095D01*
X137432142Y-67746714D01*
X137479761Y-67794333D01*
X137527380Y-67889571D01*
X137527380Y-68175285D01*
X137479761Y-68270523D01*
X137432142Y-68318142D01*
%TO.C,R34*%
X136660880Y-72397857D02*
X136184690Y-72731190D01*
X136660880Y-72969285D02*
X135660880Y-72969285D01*
X135660880Y-72588333D01*
X135708500Y-72493095D01*
X135756119Y-72445476D01*
X135851357Y-72397857D01*
X135994214Y-72397857D01*
X136089452Y-72445476D01*
X136137071Y-72493095D01*
X136184690Y-72588333D01*
X136184690Y-72969285D01*
X135660880Y-72064523D02*
X135660880Y-71445476D01*
X136041833Y-71778809D01*
X136041833Y-71635952D01*
X136089452Y-71540714D01*
X136137071Y-71493095D01*
X136232309Y-71445476D01*
X136470404Y-71445476D01*
X136565642Y-71493095D01*
X136613261Y-71540714D01*
X136660880Y-71635952D01*
X136660880Y-71921666D01*
X136613261Y-72016904D01*
X136565642Y-72064523D01*
X135994214Y-70588333D02*
X136660880Y-70588333D01*
X135613261Y-70826428D02*
X136327547Y-71064523D01*
X136327547Y-70445476D01*
%TO.C,R35*%
X137527380Y-74493357D02*
X137051190Y-74826690D01*
X137527380Y-75064785D02*
X136527380Y-75064785D01*
X136527380Y-74683833D01*
X136575000Y-74588595D01*
X136622619Y-74540976D01*
X136717857Y-74493357D01*
X136860714Y-74493357D01*
X136955952Y-74540976D01*
X137003571Y-74588595D01*
X137051190Y-74683833D01*
X137051190Y-75064785D01*
X136527380Y-74160023D02*
X136527380Y-73540976D01*
X136908333Y-73874309D01*
X136908333Y-73731452D01*
X136955952Y-73636214D01*
X137003571Y-73588595D01*
X137098809Y-73540976D01*
X137336904Y-73540976D01*
X137432142Y-73588595D01*
X137479761Y-73636214D01*
X137527380Y-73731452D01*
X137527380Y-74017166D01*
X137479761Y-74112404D01*
X137432142Y-74160023D01*
X136527380Y-72636214D02*
X136527380Y-73112404D01*
X137003571Y-73160023D01*
X136955952Y-73112404D01*
X136908333Y-73017166D01*
X136908333Y-72779071D01*
X136955952Y-72683833D01*
X137003571Y-72636214D01*
X137098809Y-72588595D01*
X137336904Y-72588595D01*
X137432142Y-72636214D01*
X137479761Y-72683833D01*
X137527380Y-72779071D01*
X137527380Y-73017166D01*
X137479761Y-73112404D01*
X137432142Y-73160023D01*
%TO.C,R36*%
X136724380Y-77795357D02*
X136248190Y-78128690D01*
X136724380Y-78366785D02*
X135724380Y-78366785D01*
X135724380Y-77985833D01*
X135772000Y-77890595D01*
X135819619Y-77842976D01*
X135914857Y-77795357D01*
X136057714Y-77795357D01*
X136152952Y-77842976D01*
X136200571Y-77890595D01*
X136248190Y-77985833D01*
X136248190Y-78366785D01*
X135724380Y-77462023D02*
X135724380Y-76842976D01*
X136105333Y-77176309D01*
X136105333Y-77033452D01*
X136152952Y-76938214D01*
X136200571Y-76890595D01*
X136295809Y-76842976D01*
X136533904Y-76842976D01*
X136629142Y-76890595D01*
X136676761Y-76938214D01*
X136724380Y-77033452D01*
X136724380Y-77319166D01*
X136676761Y-77414404D01*
X136629142Y-77462023D01*
X135724380Y-75985833D02*
X135724380Y-76176309D01*
X135772000Y-76271547D01*
X135819619Y-76319166D01*
X135962476Y-76414404D01*
X136152952Y-76462023D01*
X136533904Y-76462023D01*
X136629142Y-76414404D01*
X136676761Y-76366785D01*
X136724380Y-76271547D01*
X136724380Y-76081071D01*
X136676761Y-75985833D01*
X136629142Y-75938214D01*
X136533904Y-75890595D01*
X136295809Y-75890595D01*
X136200571Y-75938214D01*
X136152952Y-75985833D01*
X136105333Y-76081071D01*
X136105333Y-76271547D01*
X136152952Y-76366785D01*
X136200571Y-76414404D01*
X136295809Y-76462023D01*
%TO.C,R37*%
X137527380Y-79382857D02*
X137051190Y-79716190D01*
X137527380Y-79954285D02*
X136527380Y-79954285D01*
X136527380Y-79573333D01*
X136575000Y-79478095D01*
X136622619Y-79430476D01*
X136717857Y-79382857D01*
X136860714Y-79382857D01*
X136955952Y-79430476D01*
X137003571Y-79478095D01*
X137051190Y-79573333D01*
X137051190Y-79954285D01*
X136527380Y-79049523D02*
X136527380Y-78430476D01*
X136908333Y-78763809D01*
X136908333Y-78620952D01*
X136955952Y-78525714D01*
X137003571Y-78478095D01*
X137098809Y-78430476D01*
X137336904Y-78430476D01*
X137432142Y-78478095D01*
X137479761Y-78525714D01*
X137527380Y-78620952D01*
X137527380Y-78906666D01*
X137479761Y-79001904D01*
X137432142Y-79049523D01*
X136527380Y-78097142D02*
X136527380Y-77430476D01*
X137527380Y-77859047D01*
%TO.C,R38*%
X136724380Y-82240357D02*
X136248190Y-82573690D01*
X136724380Y-82811785D02*
X135724380Y-82811785D01*
X135724380Y-82430833D01*
X135772000Y-82335595D01*
X135819619Y-82287976D01*
X135914857Y-82240357D01*
X136057714Y-82240357D01*
X136152952Y-82287976D01*
X136200571Y-82335595D01*
X136248190Y-82430833D01*
X136248190Y-82811785D01*
X135724380Y-81907023D02*
X135724380Y-81287976D01*
X136105333Y-81621309D01*
X136105333Y-81478452D01*
X136152952Y-81383214D01*
X136200571Y-81335595D01*
X136295809Y-81287976D01*
X136533904Y-81287976D01*
X136629142Y-81335595D01*
X136676761Y-81383214D01*
X136724380Y-81478452D01*
X136724380Y-81764166D01*
X136676761Y-81859404D01*
X136629142Y-81907023D01*
X136152952Y-80716547D02*
X136105333Y-80811785D01*
X136057714Y-80859404D01*
X135962476Y-80907023D01*
X135914857Y-80907023D01*
X135819619Y-80859404D01*
X135772000Y-80811785D01*
X135724380Y-80716547D01*
X135724380Y-80526071D01*
X135772000Y-80430833D01*
X135819619Y-80383214D01*
X135914857Y-80335595D01*
X135962476Y-80335595D01*
X136057714Y-80383214D01*
X136105333Y-80430833D01*
X136152952Y-80526071D01*
X136152952Y-80716547D01*
X136200571Y-80811785D01*
X136248190Y-80859404D01*
X136343428Y-80907023D01*
X136533904Y-80907023D01*
X136629142Y-80859404D01*
X136676761Y-80811785D01*
X136724380Y-80716547D01*
X136724380Y-80526071D01*
X136676761Y-80430833D01*
X136629142Y-80383214D01*
X136533904Y-80335595D01*
X136343428Y-80335595D01*
X136248190Y-80383214D01*
X136200571Y-80430833D01*
X136152952Y-80526071D01*
%TO.C,R39*%
X137527380Y-84272357D02*
X137051190Y-84605690D01*
X137527380Y-84843785D02*
X136527380Y-84843785D01*
X136527380Y-84462833D01*
X136575000Y-84367595D01*
X136622619Y-84319976D01*
X136717857Y-84272357D01*
X136860714Y-84272357D01*
X136955952Y-84319976D01*
X137003571Y-84367595D01*
X137051190Y-84462833D01*
X137051190Y-84843785D01*
X136527380Y-83939023D02*
X136527380Y-83319976D01*
X136908333Y-83653309D01*
X136908333Y-83510452D01*
X136955952Y-83415214D01*
X137003571Y-83367595D01*
X137098809Y-83319976D01*
X137336904Y-83319976D01*
X137432142Y-83367595D01*
X137479761Y-83415214D01*
X137527380Y-83510452D01*
X137527380Y-83796166D01*
X137479761Y-83891404D01*
X137432142Y-83939023D01*
X137527380Y-82843785D02*
X137527380Y-82653309D01*
X137479761Y-82558071D01*
X137432142Y-82510452D01*
X137289285Y-82415214D01*
X137098809Y-82367595D01*
X136717857Y-82367595D01*
X136622619Y-82415214D01*
X136575000Y-82462833D01*
X136527380Y-82558071D01*
X136527380Y-82748547D01*
X136575000Y-82843785D01*
X136622619Y-82891404D01*
X136717857Y-82939023D01*
X136955952Y-82939023D01*
X137051190Y-82891404D01*
X137098809Y-82843785D01*
X137146428Y-82748547D01*
X137146428Y-82558071D01*
X137098809Y-82462833D01*
X137051190Y-82415214D01*
X136955952Y-82367595D01*
%TO.C,R40*%
X136724380Y-87574357D02*
X136248190Y-87907690D01*
X136724380Y-88145785D02*
X135724380Y-88145785D01*
X135724380Y-87764833D01*
X135772000Y-87669595D01*
X135819619Y-87621976D01*
X135914857Y-87574357D01*
X136057714Y-87574357D01*
X136152952Y-87621976D01*
X136200571Y-87669595D01*
X136248190Y-87764833D01*
X136248190Y-88145785D01*
X136057714Y-86717214D02*
X136724380Y-86717214D01*
X135676761Y-86955309D02*
X136391047Y-87193404D01*
X136391047Y-86574357D01*
X135724380Y-86002928D02*
X135724380Y-85907690D01*
X135772000Y-85812452D01*
X135819619Y-85764833D01*
X135914857Y-85717214D01*
X136105333Y-85669595D01*
X136343428Y-85669595D01*
X136533904Y-85717214D01*
X136629142Y-85764833D01*
X136676761Y-85812452D01*
X136724380Y-85907690D01*
X136724380Y-86002928D01*
X136676761Y-86098166D01*
X136629142Y-86145785D01*
X136533904Y-86193404D01*
X136343428Y-86241023D01*
X136105333Y-86241023D01*
X135914857Y-86193404D01*
X135819619Y-86145785D01*
X135772000Y-86098166D01*
X135724380Y-86002928D01*
%TO.C,R41*%
X137527380Y-89164857D02*
X137051190Y-89498190D01*
X137527380Y-89736285D02*
X136527380Y-89736285D01*
X136527380Y-89355333D01*
X136575000Y-89260095D01*
X136622619Y-89212476D01*
X136717857Y-89164857D01*
X136860714Y-89164857D01*
X136955952Y-89212476D01*
X137003571Y-89260095D01*
X137051190Y-89355333D01*
X137051190Y-89736285D01*
X136860714Y-88307714D02*
X137527380Y-88307714D01*
X136479761Y-88545809D02*
X137194047Y-88783904D01*
X137194047Y-88164857D01*
X137527380Y-87260095D02*
X137527380Y-87831523D01*
X137527380Y-87545809D02*
X136527380Y-87545809D01*
X136670238Y-87641047D01*
X136765476Y-87736285D01*
X136813095Y-87831523D01*
%TO.C,R42*%
X136724380Y-91907357D02*
X136248190Y-92240690D01*
X136724380Y-92478785D02*
X135724380Y-92478785D01*
X135724380Y-92097833D01*
X135772000Y-92002595D01*
X135819619Y-91954976D01*
X135914857Y-91907357D01*
X136057714Y-91907357D01*
X136152952Y-91954976D01*
X136200571Y-92002595D01*
X136248190Y-92097833D01*
X136248190Y-92478785D01*
X136057714Y-91050214D02*
X136724380Y-91050214D01*
X135676761Y-91288309D02*
X136391047Y-91526404D01*
X136391047Y-90907357D01*
X135819619Y-90574023D02*
X135772000Y-90526404D01*
X135724380Y-90431166D01*
X135724380Y-90193071D01*
X135772000Y-90097833D01*
X135819619Y-90050214D01*
X135914857Y-90002595D01*
X136010095Y-90002595D01*
X136152952Y-90050214D01*
X136724380Y-90621642D01*
X136724380Y-90002595D01*
%TO.C,R43*%
X137527380Y-94051357D02*
X137051190Y-94384690D01*
X137527380Y-94622785D02*
X136527380Y-94622785D01*
X136527380Y-94241833D01*
X136575000Y-94146595D01*
X136622619Y-94098976D01*
X136717857Y-94051357D01*
X136860714Y-94051357D01*
X136955952Y-94098976D01*
X137003571Y-94146595D01*
X137051190Y-94241833D01*
X137051190Y-94622785D01*
X136860714Y-93194214D02*
X137527380Y-93194214D01*
X136479761Y-93432309D02*
X137194047Y-93670404D01*
X137194047Y-93051357D01*
X136527380Y-92765642D02*
X136527380Y-92146595D01*
X136908333Y-92479928D01*
X136908333Y-92337071D01*
X136955952Y-92241833D01*
X137003571Y-92194214D01*
X137098809Y-92146595D01*
X137336904Y-92146595D01*
X137432142Y-92194214D01*
X137479761Y-92241833D01*
X137527380Y-92337071D01*
X137527380Y-92622785D01*
X137479761Y-92718023D01*
X137432142Y-92765642D01*
%TO.C,R44*%
X136724380Y-97353357D02*
X136248190Y-97686690D01*
X136724380Y-97924785D02*
X135724380Y-97924785D01*
X135724380Y-97543833D01*
X135772000Y-97448595D01*
X135819619Y-97400976D01*
X135914857Y-97353357D01*
X136057714Y-97353357D01*
X136152952Y-97400976D01*
X136200571Y-97448595D01*
X136248190Y-97543833D01*
X136248190Y-97924785D01*
X136057714Y-96496214D02*
X136724380Y-96496214D01*
X135676761Y-96734309D02*
X136391047Y-96972404D01*
X136391047Y-96353357D01*
X136057714Y-95543833D02*
X136724380Y-95543833D01*
X135676761Y-95781928D02*
X136391047Y-96020023D01*
X136391047Y-95400976D01*
%TO.C,R45*%
X137527380Y-98940857D02*
X137051190Y-99274190D01*
X137527380Y-99512285D02*
X136527380Y-99512285D01*
X136527380Y-99131333D01*
X136575000Y-99036095D01*
X136622619Y-98988476D01*
X136717857Y-98940857D01*
X136860714Y-98940857D01*
X136955952Y-98988476D01*
X137003571Y-99036095D01*
X137051190Y-99131333D01*
X137051190Y-99512285D01*
X136860714Y-98083714D02*
X137527380Y-98083714D01*
X136479761Y-98321809D02*
X137194047Y-98559904D01*
X137194047Y-97940857D01*
X136527380Y-97083714D02*
X136527380Y-97559904D01*
X137003571Y-97607523D01*
X136955952Y-97559904D01*
X136908333Y-97464666D01*
X136908333Y-97226571D01*
X136955952Y-97131333D01*
X137003571Y-97083714D01*
X137098809Y-97036095D01*
X137336904Y-97036095D01*
X137432142Y-97083714D01*
X137479761Y-97131333D01*
X137527380Y-97226571D01*
X137527380Y-97464666D01*
X137479761Y-97559904D01*
X137432142Y-97607523D01*
%TO.C,R46*%
X136724380Y-101719857D02*
X136248190Y-102053190D01*
X136724380Y-102291285D02*
X135724380Y-102291285D01*
X135724380Y-101910333D01*
X135772000Y-101815095D01*
X135819619Y-101767476D01*
X135914857Y-101719857D01*
X136057714Y-101719857D01*
X136152952Y-101767476D01*
X136200571Y-101815095D01*
X136248190Y-101910333D01*
X136248190Y-102291285D01*
X136057714Y-100862714D02*
X136724380Y-100862714D01*
X135676761Y-101100809D02*
X136391047Y-101338904D01*
X136391047Y-100719857D01*
X135724380Y-99910333D02*
X135724380Y-100100809D01*
X135772000Y-100196047D01*
X135819619Y-100243666D01*
X135962476Y-100338904D01*
X136152952Y-100386523D01*
X136533904Y-100386523D01*
X136629142Y-100338904D01*
X136676761Y-100291285D01*
X136724380Y-100196047D01*
X136724380Y-100005571D01*
X136676761Y-99910333D01*
X136629142Y-99862714D01*
X136533904Y-99815095D01*
X136295809Y-99815095D01*
X136200571Y-99862714D01*
X136152952Y-99910333D01*
X136105333Y-100005571D01*
X136105333Y-100196047D01*
X136152952Y-100291285D01*
X136200571Y-100338904D01*
X136295809Y-100386523D01*
%TO.C,R47*%
X137527380Y-103830357D02*
X137051190Y-104163690D01*
X137527380Y-104401785D02*
X136527380Y-104401785D01*
X136527380Y-104020833D01*
X136575000Y-103925595D01*
X136622619Y-103877976D01*
X136717857Y-103830357D01*
X136860714Y-103830357D01*
X136955952Y-103877976D01*
X137003571Y-103925595D01*
X137051190Y-104020833D01*
X137051190Y-104401785D01*
X136860714Y-102973214D02*
X137527380Y-102973214D01*
X136479761Y-103211309D02*
X137194047Y-103449404D01*
X137194047Y-102830357D01*
X136527380Y-102544642D02*
X136527380Y-101877976D01*
X137527380Y-102306547D01*
%TO.C,R48*%
X136787880Y-107117357D02*
X136311690Y-107450690D01*
X136787880Y-107688785D02*
X135787880Y-107688785D01*
X135787880Y-107307833D01*
X135835500Y-107212595D01*
X135883119Y-107164976D01*
X135978357Y-107117357D01*
X136121214Y-107117357D01*
X136216452Y-107164976D01*
X136264071Y-107212595D01*
X136311690Y-107307833D01*
X136311690Y-107688785D01*
X136121214Y-106260214D02*
X136787880Y-106260214D01*
X135740261Y-106498309D02*
X136454547Y-106736404D01*
X136454547Y-106117357D01*
X136216452Y-105593547D02*
X136168833Y-105688785D01*
X136121214Y-105736404D01*
X136025976Y-105784023D01*
X135978357Y-105784023D01*
X135883119Y-105736404D01*
X135835500Y-105688785D01*
X135787880Y-105593547D01*
X135787880Y-105403071D01*
X135835500Y-105307833D01*
X135883119Y-105260214D01*
X135978357Y-105212595D01*
X136025976Y-105212595D01*
X136121214Y-105260214D01*
X136168833Y-105307833D01*
X136216452Y-105403071D01*
X136216452Y-105593547D01*
X136264071Y-105688785D01*
X136311690Y-105736404D01*
X136406928Y-105784023D01*
X136597404Y-105784023D01*
X136692642Y-105736404D01*
X136740261Y-105688785D01*
X136787880Y-105593547D01*
X136787880Y-105403071D01*
X136740261Y-105307833D01*
X136692642Y-105260214D01*
X136597404Y-105212595D01*
X136406928Y-105212595D01*
X136311690Y-105260214D01*
X136264071Y-105307833D01*
X136216452Y-105403071D01*
%TO.C,R49*%
X137527380Y-108659357D02*
X137051190Y-108992690D01*
X137527380Y-109230785D02*
X136527380Y-109230785D01*
X136527380Y-108849833D01*
X136575000Y-108754595D01*
X136622619Y-108706976D01*
X136717857Y-108659357D01*
X136860714Y-108659357D01*
X136955952Y-108706976D01*
X137003571Y-108754595D01*
X137051190Y-108849833D01*
X137051190Y-109230785D01*
X136860714Y-107802214D02*
X137527380Y-107802214D01*
X136479761Y-108040309D02*
X137194047Y-108278404D01*
X137194047Y-107659357D01*
X137527380Y-107230785D02*
X137527380Y-107040309D01*
X137479761Y-106945071D01*
X137432142Y-106897452D01*
X137289285Y-106802214D01*
X137098809Y-106754595D01*
X136717857Y-106754595D01*
X136622619Y-106802214D01*
X136575000Y-106849833D01*
X136527380Y-106945071D01*
X136527380Y-107135547D01*
X136575000Y-107230785D01*
X136622619Y-107278404D01*
X136717857Y-107326023D01*
X136955952Y-107326023D01*
X137051190Y-107278404D01*
X137098809Y-107230785D01*
X137146428Y-107135547D01*
X137146428Y-106945071D01*
X137098809Y-106849833D01*
X137051190Y-106802214D01*
X136955952Y-106754595D01*
%TO.C,R50*%
X136787880Y-111435357D02*
X136311690Y-111768690D01*
X136787880Y-112006785D02*
X135787880Y-112006785D01*
X135787880Y-111625833D01*
X135835500Y-111530595D01*
X135883119Y-111482976D01*
X135978357Y-111435357D01*
X136121214Y-111435357D01*
X136216452Y-111482976D01*
X136264071Y-111530595D01*
X136311690Y-111625833D01*
X136311690Y-112006785D01*
X135787880Y-110530595D02*
X135787880Y-111006785D01*
X136264071Y-111054404D01*
X136216452Y-111006785D01*
X136168833Y-110911547D01*
X136168833Y-110673452D01*
X136216452Y-110578214D01*
X136264071Y-110530595D01*
X136359309Y-110482976D01*
X136597404Y-110482976D01*
X136692642Y-110530595D01*
X136740261Y-110578214D01*
X136787880Y-110673452D01*
X136787880Y-110911547D01*
X136740261Y-111006785D01*
X136692642Y-111054404D01*
X135787880Y-109863928D02*
X135787880Y-109768690D01*
X135835500Y-109673452D01*
X135883119Y-109625833D01*
X135978357Y-109578214D01*
X136168833Y-109530595D01*
X136406928Y-109530595D01*
X136597404Y-109578214D01*
X136692642Y-109625833D01*
X136740261Y-109673452D01*
X136787880Y-109768690D01*
X136787880Y-109863928D01*
X136740261Y-109959166D01*
X136692642Y-110006785D01*
X136597404Y-110054404D01*
X136406928Y-110102023D01*
X136168833Y-110102023D01*
X135978357Y-110054404D01*
X135883119Y-110006785D01*
X135835500Y-109959166D01*
X135787880Y-109863928D01*
%TO.C,U9*%
X142049595Y-55940880D02*
X142049595Y-56750404D01*
X142097214Y-56845642D01*
X142144833Y-56893261D01*
X142240071Y-56940880D01*
X142430547Y-56940880D01*
X142525785Y-56893261D01*
X142573404Y-56845642D01*
X142621023Y-56750404D01*
X142621023Y-55940880D01*
X143144833Y-56940880D02*
X143335309Y-56940880D01*
X143430547Y-56893261D01*
X143478166Y-56845642D01*
X143573404Y-56702785D01*
X143621023Y-56512309D01*
X143621023Y-56131357D01*
X143573404Y-56036119D01*
X143525785Y-55988500D01*
X143430547Y-55940880D01*
X143240071Y-55940880D01*
X143144833Y-55988500D01*
X143097214Y-56036119D01*
X143049595Y-56131357D01*
X143049595Y-56369452D01*
X143097214Y-56464690D01*
X143144833Y-56512309D01*
X143240071Y-56559928D01*
X143430547Y-56559928D01*
X143525785Y-56512309D01*
X143573404Y-56464690D01*
X143621023Y-56369452D01*
%TO.C,U10*%
X143119904Y-63202880D02*
X143119904Y-64012404D01*
X143167523Y-64107642D01*
X143215142Y-64155261D01*
X143310380Y-64202880D01*
X143500857Y-64202880D01*
X143596095Y-64155261D01*
X143643714Y-64107642D01*
X143691333Y-64012404D01*
X143691333Y-63202880D01*
X144691333Y-64202880D02*
X144119904Y-64202880D01*
X144405619Y-64202880D02*
X144405619Y-63202880D01*
X144310380Y-63345738D01*
X144215142Y-63440976D01*
X144119904Y-63488595D01*
X145310380Y-63202880D02*
X145405619Y-63202880D01*
X145500857Y-63250500D01*
X145548476Y-63298119D01*
X145596095Y-63393357D01*
X145643714Y-63583833D01*
X145643714Y-63821928D01*
X145596095Y-64012404D01*
X145548476Y-64107642D01*
X145500857Y-64155261D01*
X145405619Y-64202880D01*
X145310380Y-64202880D01*
X145215142Y-64155261D01*
X145167523Y-64107642D01*
X145119904Y-64012404D01*
X145072285Y-63821928D01*
X145072285Y-63583833D01*
X145119904Y-63393357D01*
X145167523Y-63298119D01*
X145215142Y-63250500D01*
X145310380Y-63202880D01*
%TO.C,U11*%
X143119904Y-72918380D02*
X143119904Y-73727904D01*
X143167523Y-73823142D01*
X143215142Y-73870761D01*
X143310380Y-73918380D01*
X143500857Y-73918380D01*
X143596095Y-73870761D01*
X143643714Y-73823142D01*
X143691333Y-73727904D01*
X143691333Y-72918380D01*
X144691333Y-73918380D02*
X144119904Y-73918380D01*
X144405619Y-73918380D02*
X144405619Y-72918380D01*
X144310380Y-73061238D01*
X144215142Y-73156476D01*
X144119904Y-73204095D01*
X145643714Y-73918380D02*
X145072285Y-73918380D01*
X145358000Y-73918380D02*
X145358000Y-72918380D01*
X145262761Y-73061238D01*
X145167523Y-73156476D01*
X145072285Y-73204095D01*
%TO.C,U12*%
X143119904Y-82633880D02*
X143119904Y-83443404D01*
X143167523Y-83538642D01*
X143215142Y-83586261D01*
X143310380Y-83633880D01*
X143500857Y-83633880D01*
X143596095Y-83586261D01*
X143643714Y-83538642D01*
X143691333Y-83443404D01*
X143691333Y-82633880D01*
X144691333Y-83633880D02*
X144119904Y-83633880D01*
X144405619Y-83633880D02*
X144405619Y-82633880D01*
X144310380Y-82776738D01*
X144215142Y-82871976D01*
X144119904Y-82919595D01*
X145072285Y-82729119D02*
X145119904Y-82681500D01*
X145215142Y-82633880D01*
X145453238Y-82633880D01*
X145548476Y-82681500D01*
X145596095Y-82729119D01*
X145643714Y-82824357D01*
X145643714Y-82919595D01*
X145596095Y-83062452D01*
X145024666Y-83633880D01*
X145643714Y-83633880D01*
%TO.C,U13*%
X143138404Y-92412880D02*
X143138404Y-93222404D01*
X143186023Y-93317642D01*
X143233642Y-93365261D01*
X143328880Y-93412880D01*
X143519357Y-93412880D01*
X143614595Y-93365261D01*
X143662214Y-93317642D01*
X143709833Y-93222404D01*
X143709833Y-92412880D01*
X144709833Y-93412880D02*
X144138404Y-93412880D01*
X144424119Y-93412880D02*
X144424119Y-92412880D01*
X144328880Y-92555738D01*
X144233642Y-92650976D01*
X144138404Y-92698595D01*
X145043166Y-92412880D02*
X145662214Y-92412880D01*
X145328880Y-92793833D01*
X145471738Y-92793833D01*
X145566976Y-92841452D01*
X145614595Y-92889071D01*
X145662214Y-92984309D01*
X145662214Y-93222404D01*
X145614595Y-93317642D01*
X145566976Y-93365261D01*
X145471738Y-93412880D01*
X145186023Y-93412880D01*
X145090785Y-93365261D01*
X145043166Y-93317642D01*
%TO.C,U14*%
X143138404Y-102191880D02*
X143138404Y-103001404D01*
X143186023Y-103096642D01*
X143233642Y-103144261D01*
X143328880Y-103191880D01*
X143519357Y-103191880D01*
X143614595Y-103144261D01*
X143662214Y-103096642D01*
X143709833Y-103001404D01*
X143709833Y-102191880D01*
X144709833Y-103191880D02*
X144138404Y-103191880D01*
X144424119Y-103191880D02*
X144424119Y-102191880D01*
X144328880Y-102334738D01*
X144233642Y-102429976D01*
X144138404Y-102477595D01*
X145566976Y-102525214D02*
X145566976Y-103191880D01*
X145328880Y-102144261D02*
X145090785Y-102858547D01*
X145709833Y-102858547D01*
%TO.C,U15*%
X143138404Y-111907380D02*
X143138404Y-112716904D01*
X143186023Y-112812142D01*
X143233642Y-112859761D01*
X143328880Y-112907380D01*
X143519357Y-112907380D01*
X143614595Y-112859761D01*
X143662214Y-112812142D01*
X143709833Y-112716904D01*
X143709833Y-111907380D01*
X144709833Y-112907380D02*
X144138404Y-112907380D01*
X144424119Y-112907380D02*
X144424119Y-111907380D01*
X144328880Y-112050238D01*
X144233642Y-112145476D01*
X144138404Y-112193095D01*
X145614595Y-111907380D02*
X145138404Y-111907380D01*
X145090785Y-112383571D01*
X145138404Y-112335952D01*
X145233642Y-112288333D01*
X145471738Y-112288333D01*
X145566976Y-112335952D01*
X145614595Y-112383571D01*
X145662214Y-112478809D01*
X145662214Y-112716904D01*
X145614595Y-112812142D01*
X145566976Y-112859761D01*
X145471738Y-112907380D01*
X145233642Y-112907380D01*
X145138404Y-112859761D01*
X145090785Y-112812142D01*
%TO.C,U16*%
X172815404Y-114805380D02*
X172815404Y-115614904D01*
X172863023Y-115710142D01*
X172910642Y-115757761D01*
X173005880Y-115805380D01*
X173196357Y-115805380D01*
X173291595Y-115757761D01*
X173339214Y-115710142D01*
X173386833Y-115614904D01*
X173386833Y-114805380D01*
X174386833Y-115805380D02*
X173815404Y-115805380D01*
X174101119Y-115805380D02*
X174101119Y-114805380D01*
X174005880Y-114948238D01*
X173910642Y-115043476D01*
X173815404Y-115091095D01*
X175243976Y-114805380D02*
X175053500Y-114805380D01*
X174958261Y-114853000D01*
X174910642Y-114900619D01*
X174815404Y-115043476D01*
X174767785Y-115233952D01*
X174767785Y-115614904D01*
X174815404Y-115710142D01*
X174863023Y-115757761D01*
X174958261Y-115805380D01*
X175148738Y-115805380D01*
X175243976Y-115757761D01*
X175291595Y-115710142D01*
X175339214Y-115614904D01*
X175339214Y-115376809D01*
X175291595Y-115281571D01*
X175243976Y-115233952D01*
X175148738Y-115186333D01*
X174958261Y-115186333D01*
X174863023Y-115233952D01*
X174815404Y-115281571D01*
X174767785Y-115376809D01*
%TO.C,Vin1*%
X153630500Y-50366380D02*
X153963833Y-51366380D01*
X154297166Y-50366380D01*
X154630500Y-51366380D02*
X154630500Y-50699714D01*
X154630500Y-50366380D02*
X154582880Y-50414000D01*
X154630500Y-50461619D01*
X154678119Y-50414000D01*
X154630500Y-50366380D01*
X154630500Y-50461619D01*
X155106690Y-50699714D02*
X155106690Y-51366380D01*
X155106690Y-50794952D02*
X155154309Y-50747333D01*
X155249547Y-50699714D01*
X155392404Y-50699714D01*
X155487642Y-50747333D01*
X155535261Y-50842571D01*
X155535261Y-51366380D01*
X156535261Y-51366380D02*
X155963833Y-51366380D01*
X156249547Y-51366380D02*
X156249547Y-50366380D01*
X156154309Y-50509238D01*
X156059071Y-50604476D01*
X155963833Y-50652095D01*
%TO.C,Vin2*%
X136803000Y-50366380D02*
X137136333Y-51366380D01*
X137469666Y-50366380D01*
X137803000Y-51366380D02*
X137803000Y-50699714D01*
X137803000Y-50366380D02*
X137755380Y-50414000D01*
X137803000Y-50461619D01*
X137850619Y-50414000D01*
X137803000Y-50366380D01*
X137803000Y-50461619D01*
X138279190Y-50699714D02*
X138279190Y-51366380D01*
X138279190Y-50794952D02*
X138326809Y-50747333D01*
X138422047Y-50699714D01*
X138564904Y-50699714D01*
X138660142Y-50747333D01*
X138707761Y-50842571D01*
X138707761Y-51366380D01*
X139136333Y-50461619D02*
X139183952Y-50414000D01*
X139279190Y-50366380D01*
X139517285Y-50366380D01*
X139612523Y-50414000D01*
X139660142Y-50461619D01*
X139707761Y-50556857D01*
X139707761Y-50652095D01*
X139660142Y-50794952D01*
X139088714Y-51366380D01*
X139707761Y-51366380D01*
%TO.C,Vout1*%
X182150000Y-109040380D02*
X182483333Y-110040380D01*
X182816666Y-109040380D01*
X183292857Y-110040380D02*
X183197619Y-109992761D01*
X183150000Y-109945142D01*
X183102380Y-109849904D01*
X183102380Y-109564190D01*
X183150000Y-109468952D01*
X183197619Y-109421333D01*
X183292857Y-109373714D01*
X183435714Y-109373714D01*
X183530952Y-109421333D01*
X183578571Y-109468952D01*
X183626190Y-109564190D01*
X183626190Y-109849904D01*
X183578571Y-109945142D01*
X183530952Y-109992761D01*
X183435714Y-110040380D01*
X183292857Y-110040380D01*
X184483333Y-109373714D02*
X184483333Y-110040380D01*
X184054761Y-109373714D02*
X184054761Y-109897523D01*
X184102380Y-109992761D01*
X184197619Y-110040380D01*
X184340476Y-110040380D01*
X184435714Y-109992761D01*
X184483333Y-109945142D01*
X184816666Y-109373714D02*
X185197619Y-109373714D01*
X184959523Y-109040380D02*
X184959523Y-109897523D01*
X185007142Y-109992761D01*
X185102380Y-110040380D01*
X185197619Y-110040380D01*
X186054761Y-110040380D02*
X185483333Y-110040380D01*
X185769047Y-110040380D02*
X185769047Y-109040380D01*
X185673809Y-109183238D01*
X185578571Y-109278476D01*
X185483333Y-109326095D01*
%TO.C,Vout2*%
X182150000Y-114437880D02*
X182483333Y-115437880D01*
X182816666Y-114437880D01*
X183292857Y-115437880D02*
X183197619Y-115390261D01*
X183150000Y-115342642D01*
X183102380Y-115247404D01*
X183102380Y-114961690D01*
X183150000Y-114866452D01*
X183197619Y-114818833D01*
X183292857Y-114771214D01*
X183435714Y-114771214D01*
X183530952Y-114818833D01*
X183578571Y-114866452D01*
X183626190Y-114961690D01*
X183626190Y-115247404D01*
X183578571Y-115342642D01*
X183530952Y-115390261D01*
X183435714Y-115437880D01*
X183292857Y-115437880D01*
X184483333Y-114771214D02*
X184483333Y-115437880D01*
X184054761Y-114771214D02*
X184054761Y-115295023D01*
X184102380Y-115390261D01*
X184197619Y-115437880D01*
X184340476Y-115437880D01*
X184435714Y-115390261D01*
X184483333Y-115342642D01*
X184816666Y-114771214D02*
X185197619Y-114771214D01*
X184959523Y-114437880D02*
X184959523Y-115295023D01*
X185007142Y-115390261D01*
X185102380Y-115437880D01*
X185197619Y-115437880D01*
X185483333Y-114533119D02*
X185530952Y-114485500D01*
X185626190Y-114437880D01*
X185864285Y-114437880D01*
X185959523Y-114485500D01*
X186007142Y-114533119D01*
X186054761Y-114628357D01*
X186054761Y-114723595D01*
X186007142Y-114866452D01*
X185435714Y-115437880D01*
X186054761Y-115437880D01*
%TD*%
M02*
