%TF.GenerationSoftware,KiCad,Pcbnew,5.1.6-c6e7f7d~87~ubuntu18.04.1*%
%TF.CreationDate,2021-01-11T16:49:14+13:00*%
%TF.ProjectId,Dual Output Converter,4475616c-204f-4757-9470-757420436f6e,rev?*%
%TF.SameCoordinates,Original*%
%TF.FileFunction,Paste,Top*%
%TF.FilePolarity,Positive*%
%FSLAX46Y46*%
G04 Gerber Fmt 4.6, Leading zero omitted, Abs format (unit mm)*
G04 Created by KiCad (PCBNEW 5.1.6-c6e7f7d~87~ubuntu18.04.1) date 2021-01-11 16:49:14*
%MOMM*%
%LPD*%
G01*
G04 APERTURE LIST*
%ADD10R,0.900000X1.200000*%
%ADD11R,5.400000X2.900000*%
%ADD12R,2.600000X3.100000*%
%ADD13R,1.550000X0.600000*%
G04 APERTURE END LIST*
%TO.C,C1*%
G36*
G01*
X87199150Y-54607400D02*
X88111650Y-54607400D01*
G75*
G02*
X88355400Y-54851150I0J-243750D01*
G01*
X88355400Y-55338650D01*
G75*
G02*
X88111650Y-55582400I-243750J0D01*
G01*
X87199150Y-55582400D01*
G75*
G02*
X86955400Y-55338650I0J243750D01*
G01*
X86955400Y-54851150D01*
G75*
G02*
X87199150Y-54607400I243750J0D01*
G01*
G37*
G36*
G01*
X87199150Y-56482400D02*
X88111650Y-56482400D01*
G75*
G02*
X88355400Y-56726150I0J-243750D01*
G01*
X88355400Y-57213650D01*
G75*
G02*
X88111650Y-57457400I-243750J0D01*
G01*
X87199150Y-57457400D01*
G75*
G02*
X86955400Y-57213650I0J243750D01*
G01*
X86955400Y-56726150D01*
G75*
G02*
X87199150Y-56482400I243750J0D01*
G01*
G37*
%TD*%
%TO.C,C3*%
G36*
G01*
X96368550Y-59715100D02*
X97281050Y-59715100D01*
G75*
G02*
X97524800Y-59958850I0J-243750D01*
G01*
X97524800Y-60446350D01*
G75*
G02*
X97281050Y-60690100I-243750J0D01*
G01*
X96368550Y-60690100D01*
G75*
G02*
X96124800Y-60446350I0J243750D01*
G01*
X96124800Y-59958850D01*
G75*
G02*
X96368550Y-59715100I243750J0D01*
G01*
G37*
G36*
G01*
X96368550Y-61590100D02*
X97281050Y-61590100D01*
G75*
G02*
X97524800Y-61833850I0J-243750D01*
G01*
X97524800Y-62321350D01*
G75*
G02*
X97281050Y-62565100I-243750J0D01*
G01*
X96368550Y-62565100D01*
G75*
G02*
X96124800Y-62321350I0J243750D01*
G01*
X96124800Y-61833850D01*
G75*
G02*
X96368550Y-61590100I243750J0D01*
G01*
G37*
%TD*%
%TO.C,C4*%
G36*
G01*
X97917950Y-89961900D02*
X98830450Y-89961900D01*
G75*
G02*
X99074200Y-90205650I0J-243750D01*
G01*
X99074200Y-90693150D01*
G75*
G02*
X98830450Y-90936900I-243750J0D01*
G01*
X97917950Y-90936900D01*
G75*
G02*
X97674200Y-90693150I0J243750D01*
G01*
X97674200Y-90205650D01*
G75*
G02*
X97917950Y-89961900I243750J0D01*
G01*
G37*
G36*
G01*
X97917950Y-88086900D02*
X98830450Y-88086900D01*
G75*
G02*
X99074200Y-88330650I0J-243750D01*
G01*
X99074200Y-88818150D01*
G75*
G02*
X98830450Y-89061900I-243750J0D01*
G01*
X97917950Y-89061900D01*
G75*
G02*
X97674200Y-88818150I0J243750D01*
G01*
X97674200Y-88330650D01*
G75*
G02*
X97917950Y-88086900I243750J0D01*
G01*
G37*
%TD*%
%TO.C,C5*%
G36*
G01*
X87199150Y-88861100D02*
X88111650Y-88861100D01*
G75*
G02*
X88355400Y-89104850I0J-243750D01*
G01*
X88355400Y-89592350D01*
G75*
G02*
X88111650Y-89836100I-243750J0D01*
G01*
X87199150Y-89836100D01*
G75*
G02*
X86955400Y-89592350I0J243750D01*
G01*
X86955400Y-89104850D01*
G75*
G02*
X87199150Y-88861100I243750J0D01*
G01*
G37*
G36*
G01*
X87199150Y-90736100D02*
X88111650Y-90736100D01*
G75*
G02*
X88355400Y-90979850I0J-243750D01*
G01*
X88355400Y-91467350D01*
G75*
G02*
X88111650Y-91711100I-243750J0D01*
G01*
X87199150Y-91711100D01*
G75*
G02*
X86955400Y-91467350I0J243750D01*
G01*
X86955400Y-90979850D01*
G75*
G02*
X87199150Y-90736100I243750J0D01*
G01*
G37*
%TD*%
%TO.C,C7*%
G36*
G01*
X96470150Y-95663700D02*
X97382650Y-95663700D01*
G75*
G02*
X97626400Y-95907450I0J-243750D01*
G01*
X97626400Y-96394950D01*
G75*
G02*
X97382650Y-96638700I-243750J0D01*
G01*
X96470150Y-96638700D01*
G75*
G02*
X96226400Y-96394950I0J243750D01*
G01*
X96226400Y-95907450D01*
G75*
G02*
X96470150Y-95663700I243750J0D01*
G01*
G37*
G36*
G01*
X96470150Y-93788700D02*
X97382650Y-93788700D01*
G75*
G02*
X97626400Y-94032450I0J-243750D01*
G01*
X97626400Y-94519950D01*
G75*
G02*
X97382650Y-94763700I-243750J0D01*
G01*
X96470150Y-94763700D01*
G75*
G02*
X96226400Y-94519950I0J243750D01*
G01*
X96226400Y-94032450D01*
G75*
G02*
X96470150Y-93788700I243750J0D01*
G01*
G37*
%TD*%
%TO.C,C8*%
G36*
G01*
X96362000Y-75276200D02*
X96362000Y-77276200D01*
G75*
G02*
X96112000Y-77526200I-250000J0D01*
G01*
X92612000Y-77526200D01*
G75*
G02*
X92362000Y-77276200I0J250000D01*
G01*
X92362000Y-75276200D01*
G75*
G02*
X92612000Y-75026200I250000J0D01*
G01*
X96112000Y-75026200D01*
G75*
G02*
X96362000Y-75276200I0J-250000D01*
G01*
G37*
G36*
G01*
X104362000Y-75276200D02*
X104362000Y-77276200D01*
G75*
G02*
X104112000Y-77526200I-250000J0D01*
G01*
X100612000Y-77526200D01*
G75*
G02*
X100362000Y-77276200I0J250000D01*
G01*
X100362000Y-75276200D01*
G75*
G02*
X100612000Y-75026200I250000J0D01*
G01*
X104112000Y-75026200D01*
G75*
G02*
X104362000Y-75276200I0J-250000D01*
G01*
G37*
%TD*%
D10*
%TO.C,D1*%
X93853000Y-56184800D03*
X90553000Y-56184800D03*
%TD*%
%TO.C,D2*%
X90602800Y-90537800D03*
X93902800Y-90537800D03*
%TD*%
D11*
%TO.C,L1*%
X78917800Y-66370200D03*
X78917800Y-56470200D03*
%TD*%
%TO.C,L2*%
X79044800Y-90264400D03*
X79044800Y-100164400D03*
%TD*%
%TO.C,R1*%
G36*
G01*
X81157000Y-73777000D02*
X81157000Y-72527000D01*
G75*
G02*
X81407000Y-72277000I250000J0D01*
G01*
X82157000Y-72277000D01*
G75*
G02*
X82407000Y-72527000I0J-250000D01*
G01*
X82407000Y-73777000D01*
G75*
G02*
X82157000Y-74027000I-250000J0D01*
G01*
X81407000Y-74027000D01*
G75*
G02*
X81157000Y-73777000I0J250000D01*
G01*
G37*
G36*
G01*
X83957000Y-73777000D02*
X83957000Y-72527000D01*
G75*
G02*
X84207000Y-72277000I250000J0D01*
G01*
X84957000Y-72277000D01*
G75*
G02*
X85207000Y-72527000I0J-250000D01*
G01*
X85207000Y-73777000D01*
G75*
G02*
X84957000Y-74027000I-250000J0D01*
G01*
X84207000Y-74027000D01*
G75*
G02*
X83957000Y-73777000I0J250000D01*
G01*
G37*
%TD*%
D12*
%TO.C,U1*%
X90805000Y-61442600D03*
D13*
X88105000Y-59537600D03*
X88105000Y-60807600D03*
X88105000Y-62077600D03*
X88105000Y-63347600D03*
X93505000Y-63347600D03*
X93505000Y-62077600D03*
X93505000Y-60807600D03*
X93505000Y-59537600D03*
%TD*%
%TO.C,U2*%
X93657400Y-93662000D03*
X93657400Y-94932000D03*
X93657400Y-96202000D03*
X93657400Y-97472000D03*
X88257400Y-97472000D03*
X88257400Y-96202000D03*
X88257400Y-94932000D03*
X88257400Y-93662000D03*
D12*
X90957400Y-95567000D03*
%TD*%
%TO.C,C2*%
G36*
G01*
X83876700Y-78850600D02*
X83876700Y-76800600D01*
G75*
G02*
X84126700Y-76550600I250000J0D01*
G01*
X85701700Y-76550600D01*
G75*
G02*
X85951700Y-76800600I0J-250000D01*
G01*
X85951700Y-78850600D01*
G75*
G02*
X85701700Y-79100600I-250000J0D01*
G01*
X84126700Y-79100600D01*
G75*
G02*
X83876700Y-78850600I0J250000D01*
G01*
G37*
G36*
G01*
X77651700Y-78850600D02*
X77651700Y-76800600D01*
G75*
G02*
X77901700Y-76550600I250000J0D01*
G01*
X79476700Y-76550600D01*
G75*
G02*
X79726700Y-76800600I0J-250000D01*
G01*
X79726700Y-78850600D01*
G75*
G02*
X79476700Y-79100600I-250000J0D01*
G01*
X77901700Y-79100600D01*
G75*
G02*
X77651700Y-78850600I0J250000D01*
G01*
G37*
%TD*%
%TO.C,C6*%
G36*
G01*
X77473900Y-113102000D02*
X77473900Y-111052000D01*
G75*
G02*
X77723900Y-110802000I250000J0D01*
G01*
X79298900Y-110802000D01*
G75*
G02*
X79548900Y-111052000I0J-250000D01*
G01*
X79548900Y-113102000D01*
G75*
G02*
X79298900Y-113352000I-250000J0D01*
G01*
X77723900Y-113352000D01*
G75*
G02*
X77473900Y-113102000I0J250000D01*
G01*
G37*
G36*
G01*
X83698900Y-113102000D02*
X83698900Y-111052000D01*
G75*
G02*
X83948900Y-110802000I250000J0D01*
G01*
X85523900Y-110802000D01*
G75*
G02*
X85773900Y-111052000I0J-250000D01*
G01*
X85773900Y-113102000D01*
G75*
G02*
X85523900Y-113352000I-250000J0D01*
G01*
X83948900Y-113352000D01*
G75*
G02*
X83698900Y-113102000I0J250000D01*
G01*
G37*
%TD*%
%TO.C,R2*%
G36*
G01*
X84041300Y-70500400D02*
X84041300Y-69250400D01*
G75*
G02*
X84291300Y-69000400I250000J0D01*
G01*
X85041300Y-69000400D01*
G75*
G02*
X85291300Y-69250400I0J-250000D01*
G01*
X85291300Y-70500400D01*
G75*
G02*
X85041300Y-70750400I-250000J0D01*
G01*
X84291300Y-70750400D01*
G75*
G02*
X84041300Y-70500400I0J250000D01*
G01*
G37*
G36*
G01*
X86841300Y-70500400D02*
X86841300Y-69250400D01*
G75*
G02*
X87091300Y-69000400I250000J0D01*
G01*
X87841300Y-69000400D01*
G75*
G02*
X88091300Y-69250400I0J-250000D01*
G01*
X88091300Y-70500400D01*
G75*
G02*
X87841300Y-70750400I-250000J0D01*
G01*
X87091300Y-70750400D01*
G75*
G02*
X86841300Y-70500400I0J250000D01*
G01*
G37*
%TD*%
%TO.C,R3*%
G36*
G01*
X89838500Y-67020600D02*
X89838500Y-65770600D01*
G75*
G02*
X90088500Y-65520600I250000J0D01*
G01*
X90838500Y-65520600D01*
G75*
G02*
X91088500Y-65770600I0J-250000D01*
G01*
X91088500Y-67020600D01*
G75*
G02*
X90838500Y-67270600I-250000J0D01*
G01*
X90088500Y-67270600D01*
G75*
G02*
X89838500Y-67020600I0J250000D01*
G01*
G37*
G36*
G01*
X87038500Y-67020600D02*
X87038500Y-65770600D01*
G75*
G02*
X87288500Y-65520600I250000J0D01*
G01*
X88038500Y-65520600D01*
G75*
G02*
X88288500Y-65770600I0J-250000D01*
G01*
X88288500Y-67020600D01*
G75*
G02*
X88038500Y-67270600I-250000J0D01*
G01*
X87288500Y-67270600D01*
G75*
G02*
X87038500Y-67020600I0J250000D01*
G01*
G37*
%TD*%
%TO.C,R4*%
G36*
G01*
X81298100Y-107723600D02*
X81298100Y-106473600D01*
G75*
G02*
X81548100Y-106223600I250000J0D01*
G01*
X82298100Y-106223600D01*
G75*
G02*
X82548100Y-106473600I0J-250000D01*
G01*
X82548100Y-107723600D01*
G75*
G02*
X82298100Y-107973600I-250000J0D01*
G01*
X81548100Y-107973600D01*
G75*
G02*
X81298100Y-107723600I0J250000D01*
G01*
G37*
G36*
G01*
X84098100Y-107723600D02*
X84098100Y-106473600D01*
G75*
G02*
X84348100Y-106223600I250000J0D01*
G01*
X85098100Y-106223600D01*
G75*
G02*
X85348100Y-106473600I0J-250000D01*
G01*
X85348100Y-107723600D01*
G75*
G02*
X85098100Y-107973600I-250000J0D01*
G01*
X84348100Y-107973600D01*
G75*
G02*
X84098100Y-107723600I0J250000D01*
G01*
G37*
%TD*%
%TO.C,R5*%
G36*
G01*
X87044500Y-104599400D02*
X87044500Y-103349400D01*
G75*
G02*
X87294500Y-103099400I250000J0D01*
G01*
X88044500Y-103099400D01*
G75*
G02*
X88294500Y-103349400I0J-250000D01*
G01*
X88294500Y-104599400D01*
G75*
G02*
X88044500Y-104849400I-250000J0D01*
G01*
X87294500Y-104849400D01*
G75*
G02*
X87044500Y-104599400I0J250000D01*
G01*
G37*
G36*
G01*
X84244500Y-104599400D02*
X84244500Y-103349400D01*
G75*
G02*
X84494500Y-103099400I250000J0D01*
G01*
X85244500Y-103099400D01*
G75*
G02*
X85494500Y-103349400I0J-250000D01*
G01*
X85494500Y-104599400D01*
G75*
G02*
X85244500Y-104849400I-250000J0D01*
G01*
X84494500Y-104849400D01*
G75*
G02*
X84244500Y-104599400I0J250000D01*
G01*
G37*
%TD*%
%TO.C,R6*%
G36*
G01*
X87267100Y-101399000D02*
X87267100Y-100149000D01*
G75*
G02*
X87517100Y-99899000I250000J0D01*
G01*
X88267100Y-99899000D01*
G75*
G02*
X88517100Y-100149000I0J-250000D01*
G01*
X88517100Y-101399000D01*
G75*
G02*
X88267100Y-101649000I-250000J0D01*
G01*
X87517100Y-101649000D01*
G75*
G02*
X87267100Y-101399000I0J250000D01*
G01*
G37*
G36*
G01*
X90067100Y-101399000D02*
X90067100Y-100149000D01*
G75*
G02*
X90317100Y-99899000I250000J0D01*
G01*
X91067100Y-99899000D01*
G75*
G02*
X91317100Y-100149000I0J-250000D01*
G01*
X91317100Y-101399000D01*
G75*
G02*
X91067100Y-101649000I-250000J0D01*
G01*
X90317100Y-101649000D01*
G75*
G02*
X90067100Y-101399000I0J250000D01*
G01*
G37*
%TD*%
M02*
