%TF.GenerationSoftware,KiCad,Pcbnew,5.1.6-c6e7f7d~87~ubuntu18.04.1*%
%TF.CreationDate,2021-01-11T16:49:14+13:00*%
%TF.ProjectId,Dual Output Converter,4475616c-204f-4757-9470-757420436f6e,rev?*%
%TF.SameCoordinates,Original*%
%TF.FileFunction,Legend,Top*%
%TF.FilePolarity,Positive*%
%FSLAX46Y46*%
G04 Gerber Fmt 4.6, Leading zero omitted, Abs format (unit mm)*
G04 Created by KiCad (PCBNEW 5.1.6-c6e7f7d~87~ubuntu18.04.1) date 2021-01-11 16:49:14*
%MOMM*%
%LPD*%
G01*
G04 APERTURE LIST*
%ADD10C,0.150000*%
%ADD11C,0.300000*%
%ADD12C,0.120000*%
G04 APERTURE END LIST*
D10*
X89049885Y-120213380D02*
X89049885Y-119213380D01*
X89383219Y-119927666D01*
X89716552Y-119213380D01*
X89716552Y-120213380D01*
X90192742Y-120213380D02*
X90192742Y-119546714D01*
X90192742Y-119213380D02*
X90145123Y-119261000D01*
X90192742Y-119308619D01*
X90240361Y-119261000D01*
X90192742Y-119213380D01*
X90192742Y-119308619D01*
X90668933Y-120213380D02*
X90668933Y-119546714D01*
X90668933Y-119737190D02*
X90716552Y-119641952D01*
X90764171Y-119594333D01*
X90859409Y-119546714D01*
X90954647Y-119546714D01*
X91430838Y-120213380D02*
X91335600Y-120165761D01*
X91287980Y-120118142D01*
X91240361Y-120022904D01*
X91240361Y-119737190D01*
X91287980Y-119641952D01*
X91335600Y-119594333D01*
X91430838Y-119546714D01*
X91573695Y-119546714D01*
X91668933Y-119594333D01*
X91716552Y-119641952D01*
X91764171Y-119737190D01*
X91764171Y-120022904D01*
X91716552Y-120118142D01*
X91668933Y-120165761D01*
X91573695Y-120213380D01*
X91430838Y-120213380D01*
X93240361Y-119213380D02*
X93240361Y-119927666D01*
X93192742Y-120070523D01*
X93097504Y-120165761D01*
X92954647Y-120213380D01*
X92859409Y-120213380D01*
X94145123Y-120213380D02*
X94145123Y-119689571D01*
X94097504Y-119594333D01*
X94002266Y-119546714D01*
X93811790Y-119546714D01*
X93716552Y-119594333D01*
X94145123Y-120165761D02*
X94049885Y-120213380D01*
X93811790Y-120213380D01*
X93716552Y-120165761D01*
X93668933Y-120070523D01*
X93668933Y-119975285D01*
X93716552Y-119880047D01*
X93811790Y-119832428D01*
X94049885Y-119832428D01*
X94145123Y-119784809D01*
X94621314Y-119546714D02*
X94621314Y-120213380D01*
X94621314Y-119641952D02*
X94668933Y-119594333D01*
X94764171Y-119546714D01*
X94907028Y-119546714D01*
X95002266Y-119594333D01*
X95049885Y-119689571D01*
X95049885Y-120213380D01*
X96240361Y-119308619D02*
X96287980Y-119261000D01*
X96383219Y-119213380D01*
X96621314Y-119213380D01*
X96716552Y-119261000D01*
X96764171Y-119308619D01*
X96811790Y-119403857D01*
X96811790Y-119499095D01*
X96764171Y-119641952D01*
X96192742Y-120213380D01*
X96811790Y-120213380D01*
X97430838Y-119213380D02*
X97526076Y-119213380D01*
X97621314Y-119261000D01*
X97668933Y-119308619D01*
X97716552Y-119403857D01*
X97764171Y-119594333D01*
X97764171Y-119832428D01*
X97716552Y-120022904D01*
X97668933Y-120118142D01*
X97621314Y-120165761D01*
X97526076Y-120213380D01*
X97430838Y-120213380D01*
X97335600Y-120165761D01*
X97287980Y-120118142D01*
X97240361Y-120022904D01*
X97192742Y-119832428D01*
X97192742Y-119594333D01*
X97240361Y-119403857D01*
X97287980Y-119308619D01*
X97335600Y-119261000D01*
X97430838Y-119213380D01*
X98145123Y-119308619D02*
X98192742Y-119261000D01*
X98287980Y-119213380D01*
X98526076Y-119213380D01*
X98621314Y-119261000D01*
X98668933Y-119308619D01*
X98716552Y-119403857D01*
X98716552Y-119499095D01*
X98668933Y-119641952D01*
X98097504Y-120213380D01*
X98716552Y-120213380D01*
X99668933Y-120213380D02*
X99097504Y-120213380D01*
X99383219Y-120213380D02*
X99383219Y-119213380D01*
X99287980Y-119356238D01*
X99192742Y-119451476D01*
X99097504Y-119499095D01*
X83680161Y-117130580D02*
X84251590Y-117130580D01*
X83965876Y-118130580D02*
X83965876Y-117130580D01*
X84584923Y-118130580D02*
X84584923Y-117130580D01*
X84965876Y-117130580D01*
X85061114Y-117178200D01*
X85108733Y-117225819D01*
X85156352Y-117321057D01*
X85156352Y-117463914D01*
X85108733Y-117559152D01*
X85061114Y-117606771D01*
X84965876Y-117654390D01*
X84584923Y-117654390D01*
X85537304Y-118082961D02*
X85680161Y-118130580D01*
X85918257Y-118130580D01*
X86013495Y-118082961D01*
X86061114Y-118035342D01*
X86108733Y-117940104D01*
X86108733Y-117844866D01*
X86061114Y-117749628D01*
X86013495Y-117702009D01*
X85918257Y-117654390D01*
X85727780Y-117606771D01*
X85632542Y-117559152D01*
X85584923Y-117511533D01*
X85537304Y-117416295D01*
X85537304Y-117321057D01*
X85584923Y-117225819D01*
X85632542Y-117178200D01*
X85727780Y-117130580D01*
X85965876Y-117130580D01*
X86108733Y-117178200D01*
X87013495Y-117130580D02*
X86537304Y-117130580D01*
X86489685Y-117606771D01*
X86537304Y-117559152D01*
X86632542Y-117511533D01*
X86870638Y-117511533D01*
X86965876Y-117559152D01*
X87013495Y-117606771D01*
X87061114Y-117702009D01*
X87061114Y-117940104D01*
X87013495Y-118035342D01*
X86965876Y-118082961D01*
X86870638Y-118130580D01*
X86632542Y-118130580D01*
X86537304Y-118082961D01*
X86489685Y-118035342D01*
X87918257Y-117463914D02*
X87918257Y-118130580D01*
X87680161Y-117082961D02*
X87442066Y-117797247D01*
X88061114Y-117797247D01*
X88346828Y-117130580D02*
X88965876Y-117130580D01*
X88632542Y-117511533D01*
X88775400Y-117511533D01*
X88870638Y-117559152D01*
X88918257Y-117606771D01*
X88965876Y-117702009D01*
X88965876Y-117940104D01*
X88918257Y-118035342D01*
X88870638Y-118082961D01*
X88775400Y-118130580D01*
X88489685Y-118130580D01*
X88394447Y-118082961D01*
X88346828Y-118035342D01*
X89584923Y-117130580D02*
X89680161Y-117130580D01*
X89775400Y-117178200D01*
X89823019Y-117225819D01*
X89870638Y-117321057D01*
X89918257Y-117511533D01*
X89918257Y-117749628D01*
X89870638Y-117940104D01*
X89823019Y-118035342D01*
X89775400Y-118082961D01*
X89680161Y-118130580D01*
X89584923Y-118130580D01*
X89489685Y-118082961D01*
X89442066Y-118035342D01*
X89394447Y-117940104D01*
X89346828Y-117749628D01*
X89346828Y-117511533D01*
X89394447Y-117321057D01*
X89442066Y-117225819D01*
X89489685Y-117178200D01*
X89584923Y-117130580D01*
X91108733Y-118130580D02*
X91108733Y-117130580D01*
X91346828Y-117130580D01*
X91489685Y-117178200D01*
X91584923Y-117273438D01*
X91632542Y-117368676D01*
X91680161Y-117559152D01*
X91680161Y-117702009D01*
X91632542Y-117892485D01*
X91584923Y-117987723D01*
X91489685Y-118082961D01*
X91346828Y-118130580D01*
X91108733Y-118130580D01*
X92537304Y-117463914D02*
X92537304Y-118130580D01*
X92108733Y-117463914D02*
X92108733Y-117987723D01*
X92156352Y-118082961D01*
X92251590Y-118130580D01*
X92394447Y-118130580D01*
X92489685Y-118082961D01*
X92537304Y-118035342D01*
X93442066Y-118130580D02*
X93442066Y-117606771D01*
X93394447Y-117511533D01*
X93299209Y-117463914D01*
X93108733Y-117463914D01*
X93013495Y-117511533D01*
X93442066Y-118082961D02*
X93346828Y-118130580D01*
X93108733Y-118130580D01*
X93013495Y-118082961D01*
X92965876Y-117987723D01*
X92965876Y-117892485D01*
X93013495Y-117797247D01*
X93108733Y-117749628D01*
X93346828Y-117749628D01*
X93442066Y-117702009D01*
X94061114Y-118130580D02*
X93965876Y-118082961D01*
X93918257Y-117987723D01*
X93918257Y-117130580D01*
X95394447Y-117130580D02*
X95584923Y-117130580D01*
X95680161Y-117178200D01*
X95775400Y-117273438D01*
X95823019Y-117463914D01*
X95823019Y-117797247D01*
X95775400Y-117987723D01*
X95680161Y-118082961D01*
X95584923Y-118130580D01*
X95394447Y-118130580D01*
X95299209Y-118082961D01*
X95203971Y-117987723D01*
X95156352Y-117797247D01*
X95156352Y-117463914D01*
X95203971Y-117273438D01*
X95299209Y-117178200D01*
X95394447Y-117130580D01*
X96680161Y-117463914D02*
X96680161Y-118130580D01*
X96251590Y-117463914D02*
X96251590Y-117987723D01*
X96299209Y-118082961D01*
X96394447Y-118130580D01*
X96537304Y-118130580D01*
X96632542Y-118082961D01*
X96680161Y-118035342D01*
X97013495Y-117463914D02*
X97394447Y-117463914D01*
X97156352Y-117130580D02*
X97156352Y-117987723D01*
X97203971Y-118082961D01*
X97299209Y-118130580D01*
X97394447Y-118130580D01*
X97727780Y-117463914D02*
X97727780Y-118463914D01*
X97727780Y-117511533D02*
X97823019Y-117463914D01*
X98013495Y-117463914D01*
X98108733Y-117511533D01*
X98156352Y-117559152D01*
X98203971Y-117654390D01*
X98203971Y-117940104D01*
X98156352Y-118035342D01*
X98108733Y-118082961D01*
X98013495Y-118130580D01*
X97823019Y-118130580D01*
X97727780Y-118082961D01*
X99061114Y-117463914D02*
X99061114Y-118130580D01*
X98632542Y-117463914D02*
X98632542Y-117987723D01*
X98680161Y-118082961D01*
X98775400Y-118130580D01*
X98918257Y-118130580D01*
X99013495Y-118082961D01*
X99061114Y-118035342D01*
X99394447Y-117463914D02*
X99775400Y-117463914D01*
X99537304Y-117130580D02*
X99537304Y-117987723D01*
X99584923Y-118082961D01*
X99680161Y-118130580D01*
X99775400Y-118130580D01*
X101442066Y-118035342D02*
X101394447Y-118082961D01*
X101251590Y-118130580D01*
X101156352Y-118130580D01*
X101013495Y-118082961D01*
X100918257Y-117987723D01*
X100870638Y-117892485D01*
X100823019Y-117702009D01*
X100823019Y-117559152D01*
X100870638Y-117368676D01*
X100918257Y-117273438D01*
X101013495Y-117178200D01*
X101156352Y-117130580D01*
X101251590Y-117130580D01*
X101394447Y-117178200D01*
X101442066Y-117225819D01*
X102013495Y-118130580D02*
X101918257Y-118082961D01*
X101870638Y-118035342D01*
X101823019Y-117940104D01*
X101823019Y-117654390D01*
X101870638Y-117559152D01*
X101918257Y-117511533D01*
X102013495Y-117463914D01*
X102156352Y-117463914D01*
X102251590Y-117511533D01*
X102299209Y-117559152D01*
X102346828Y-117654390D01*
X102346828Y-117940104D01*
X102299209Y-118035342D01*
X102251590Y-118082961D01*
X102156352Y-118130580D01*
X102013495Y-118130580D01*
X102775400Y-117463914D02*
X102775400Y-118130580D01*
X102775400Y-117559152D02*
X102823019Y-117511533D01*
X102918257Y-117463914D01*
X103061114Y-117463914D01*
X103156352Y-117511533D01*
X103203971Y-117606771D01*
X103203971Y-118130580D01*
X103584923Y-117463914D02*
X103823019Y-118130580D01*
X104061114Y-117463914D01*
X104823019Y-118082961D02*
X104727780Y-118130580D01*
X104537304Y-118130580D01*
X104442066Y-118082961D01*
X104394447Y-117987723D01*
X104394447Y-117606771D01*
X104442066Y-117511533D01*
X104537304Y-117463914D01*
X104727780Y-117463914D01*
X104823019Y-117511533D01*
X104870638Y-117606771D01*
X104870638Y-117702009D01*
X104394447Y-117797247D01*
X105299209Y-118130580D02*
X105299209Y-117463914D01*
X105299209Y-117654390D02*
X105346828Y-117559152D01*
X105394447Y-117511533D01*
X105489685Y-117463914D01*
X105584923Y-117463914D01*
X105775400Y-117463914D02*
X106156352Y-117463914D01*
X105918257Y-117130580D02*
X105918257Y-117987723D01*
X105965876Y-118082961D01*
X106061114Y-118130580D01*
X106156352Y-118130580D01*
X106870638Y-118082961D02*
X106775399Y-118130580D01*
X106584923Y-118130580D01*
X106489685Y-118082961D01*
X106442066Y-117987723D01*
X106442066Y-117606771D01*
X106489685Y-117511533D01*
X106584923Y-117463914D01*
X106775399Y-117463914D01*
X106870638Y-117511533D01*
X106918257Y-117606771D01*
X106918257Y-117702009D01*
X106442066Y-117797247D01*
X107346828Y-118130580D02*
X107346828Y-117463914D01*
X107346828Y-117654390D02*
X107394447Y-117559152D01*
X107442066Y-117511533D01*
X107537304Y-117463914D01*
X107632542Y-117463914D01*
D11*
X102235142Y-89191400D02*
X102092285Y-89119971D01*
X101878000Y-89119971D01*
X101663714Y-89191400D01*
X101520857Y-89334257D01*
X101449428Y-89477114D01*
X101378000Y-89762828D01*
X101378000Y-89977114D01*
X101449428Y-90262828D01*
X101520857Y-90405685D01*
X101663714Y-90548542D01*
X101878000Y-90619971D01*
X102020857Y-90619971D01*
X102235142Y-90548542D01*
X102306571Y-90477114D01*
X102306571Y-89977114D01*
X102020857Y-89977114D01*
X102949428Y-90619971D02*
X102949428Y-89119971D01*
X103806571Y-90619971D01*
X103806571Y-89119971D01*
X104520857Y-90619971D02*
X104520857Y-89119971D01*
X104878000Y-89119971D01*
X105092285Y-89191400D01*
X105235142Y-89334257D01*
X105306571Y-89477114D01*
X105378000Y-89762828D01*
X105378000Y-89977114D01*
X105306571Y-90262828D01*
X105235142Y-90405685D01*
X105092285Y-90548542D01*
X104878000Y-90619971D01*
X104520857Y-90619971D01*
X99554114Y-64267400D02*
X99482685Y-64195971D01*
X99339828Y-63981685D01*
X99268400Y-63838828D01*
X99196971Y-63624542D01*
X99125542Y-63267400D01*
X99125542Y-62981685D01*
X99196971Y-62624542D01*
X99268400Y-62410257D01*
X99339828Y-62267400D01*
X99482685Y-62053114D01*
X99554114Y-61981685D01*
X100125542Y-63124542D02*
X101268400Y-63124542D01*
X100696971Y-63695971D02*
X100696971Y-62553114D01*
X101911257Y-62338828D02*
X101982685Y-62267400D01*
X102125542Y-62195971D01*
X102482685Y-62195971D01*
X102625542Y-62267400D01*
X102696971Y-62338828D01*
X102768400Y-62481685D01*
X102768400Y-62624542D01*
X102696971Y-62838828D01*
X101839828Y-63695971D01*
X102768400Y-63695971D01*
X104054114Y-62695971D02*
X104054114Y-63695971D01*
X103696971Y-62124542D02*
X103339828Y-63195971D01*
X104268400Y-63195971D01*
X104625542Y-62195971D02*
X105125542Y-63695971D01*
X105625542Y-62195971D01*
X105982685Y-64267400D02*
X106054114Y-64195971D01*
X106196971Y-63981685D01*
X106268400Y-63838828D01*
X106339828Y-63624542D01*
X106411257Y-63267400D01*
X106411257Y-62981685D01*
X106339828Y-62624542D01*
X106268400Y-62410257D01*
X106196971Y-62267400D01*
X106054114Y-62053114D01*
X105982685Y-61981685D01*
X101410485Y-59579771D02*
X101910485Y-61079771D01*
X102410485Y-59579771D01*
X102910485Y-61079771D02*
X102910485Y-60079771D01*
X102910485Y-59579771D02*
X102839057Y-59651200D01*
X102910485Y-59722628D01*
X102981914Y-59651200D01*
X102910485Y-59579771D01*
X102910485Y-59722628D01*
X103624771Y-60079771D02*
X103624771Y-61079771D01*
X103624771Y-60222628D02*
X103696200Y-60151200D01*
X103839057Y-60079771D01*
X104053342Y-60079771D01*
X104196200Y-60151200D01*
X104267628Y-60294057D01*
X104267628Y-61079771D01*
X68351542Y-92061600D02*
X68208685Y-91990171D01*
X67994400Y-91990171D01*
X67780114Y-92061600D01*
X67637257Y-92204457D01*
X67565828Y-92347314D01*
X67494400Y-92633028D01*
X67494400Y-92847314D01*
X67565828Y-93133028D01*
X67637257Y-93275885D01*
X67780114Y-93418742D01*
X67994400Y-93490171D01*
X68137257Y-93490171D01*
X68351542Y-93418742D01*
X68422971Y-93347314D01*
X68422971Y-92847314D01*
X68137257Y-92847314D01*
X69065828Y-93490171D02*
X69065828Y-91990171D01*
X69922971Y-93490171D01*
X69922971Y-91990171D01*
X70637257Y-93490171D02*
X70637257Y-91990171D01*
X70994400Y-91990171D01*
X71208685Y-92061600D01*
X71351542Y-92204457D01*
X71422971Y-92347314D01*
X71494400Y-92633028D01*
X71494400Y-92847314D01*
X71422971Y-93133028D01*
X71351542Y-93275885D01*
X71208685Y-93418742D01*
X70994400Y-93490171D01*
X70637257Y-93490171D01*
X66597542Y-113949942D02*
X67740400Y-113949942D01*
X69240400Y-114521371D02*
X68383257Y-114521371D01*
X68811828Y-114521371D02*
X68811828Y-113021371D01*
X68668971Y-113235657D01*
X68526114Y-113378514D01*
X68383257Y-113449942D01*
X69811828Y-113164228D02*
X69883257Y-113092800D01*
X70026114Y-113021371D01*
X70383257Y-113021371D01*
X70526114Y-113092800D01*
X70597542Y-113164228D01*
X70668971Y-113307085D01*
X70668971Y-113449942D01*
X70597542Y-113664228D01*
X69740400Y-114521371D01*
X70668971Y-114521371D01*
X71097542Y-113021371D02*
X71597542Y-114521371D01*
X72097542Y-113021371D01*
X66851542Y-71150942D02*
X67994400Y-71150942D01*
X67422971Y-71722371D02*
X67422971Y-70579514D01*
X69494400Y-71722371D02*
X68637257Y-71722371D01*
X69065828Y-71722371D02*
X69065828Y-70222371D01*
X68922971Y-70436657D01*
X68780114Y-70579514D01*
X68637257Y-70650942D01*
X70065828Y-70365228D02*
X70137257Y-70293800D01*
X70280114Y-70222371D01*
X70637257Y-70222371D01*
X70780114Y-70293800D01*
X70851542Y-70365228D01*
X70922971Y-70508085D01*
X70922971Y-70650942D01*
X70851542Y-70865228D01*
X69994400Y-71722371D01*
X70922971Y-71722371D01*
X71351542Y-70222371D02*
X71851542Y-71722371D01*
X72351542Y-70222371D01*
D12*
%TO.C,C1*%
X86945400Y-55773822D02*
X86945400Y-56290978D01*
X88365400Y-55773822D02*
X88365400Y-56290978D01*
%TO.C,C3*%
X96114800Y-60881522D02*
X96114800Y-61398678D01*
X97534800Y-60881522D02*
X97534800Y-61398678D01*
%TO.C,C4*%
X99084200Y-89253322D02*
X99084200Y-89770478D01*
X97664200Y-89253322D02*
X97664200Y-89770478D01*
%TO.C,C5*%
X86945400Y-90027522D02*
X86945400Y-90544678D01*
X88365400Y-90027522D02*
X88365400Y-90544678D01*
%TO.C,C7*%
X97636400Y-94955122D02*
X97636400Y-95472278D01*
X96216400Y-94955122D02*
X96216400Y-95472278D01*
%TO.C,C8*%
X93102000Y-71016200D02*
X93102000Y-74766200D01*
X93102000Y-81536200D02*
X93102000Y-77786200D01*
X102557563Y-81536200D02*
X93102000Y-81536200D01*
X102557563Y-71016200D02*
X93102000Y-71016200D01*
X103622000Y-72080637D02*
X103622000Y-74766200D01*
X103622000Y-80471763D02*
X103622000Y-77786200D01*
X103622000Y-80471763D02*
X102557563Y-81536200D01*
X103622000Y-72080637D02*
X102557563Y-71016200D01*
X105112000Y-79036200D02*
X103862000Y-79036200D01*
X104487000Y-79661200D02*
X104487000Y-78411200D01*
%TO.C,D1*%
X94453000Y-57184800D02*
X90553000Y-57184800D01*
X94453000Y-55184800D02*
X90553000Y-55184800D01*
X94453000Y-57184800D02*
X94453000Y-55184800D01*
%TO.C,D2*%
X94502800Y-91537800D02*
X94502800Y-89537800D01*
X94502800Y-89537800D02*
X90602800Y-89537800D01*
X94502800Y-91537800D02*
X90602800Y-91537800D01*
%TO.C,J1*%
X105232781Y-66624200D02*
G75*
G03*
X105232781Y-66624200I-1600781J0D01*
G01*
%TO.C,J2*%
X70587181Y-75285600D02*
G75*
G03*
X70587181Y-75285600I-1600781J0D01*
G01*
%TO.C,J3*%
X104419981Y-85064600D02*
G75*
G03*
X104419981Y-85064600I-1600781J0D01*
G01*
%TO.C,J4*%
X70485581Y-96621600D02*
G75*
G03*
X70485581Y-96621600I-1600781J0D01*
G01*
%TO.C,J5*%
X70917381Y-117932200D02*
G75*
G03*
X70917381Y-117932200I-1600781J0D01*
G01*
%TO.C,J6*%
X97892181Y-66014600D02*
G75*
G03*
X97892181Y-66014600I-1600781J0D01*
G01*
%TO.C,J7*%
X98247781Y-99961200D02*
G75*
G03*
X98247781Y-99961200I-1600781J0D01*
G01*
%TO.C,L1*%
X72617800Y-55120200D02*
X75617800Y-55120200D01*
X72617800Y-67720200D02*
X72617800Y-55120200D01*
X75617800Y-67720200D02*
X72617800Y-67720200D01*
X85217800Y-67720200D02*
X82217800Y-67720200D01*
X85217800Y-55120200D02*
X85217800Y-67720200D01*
X82217800Y-55120200D02*
X85217800Y-55120200D01*
%TO.C,L2*%
X82344800Y-88914400D02*
X85344800Y-88914400D01*
X85344800Y-88914400D02*
X85344800Y-101514400D01*
X85344800Y-101514400D02*
X82344800Y-101514400D01*
X75744800Y-101514400D02*
X72744800Y-101514400D01*
X72744800Y-101514400D02*
X72744800Y-88914400D01*
X72744800Y-88914400D02*
X75744800Y-88914400D01*
%TO.C,R1*%
X82579936Y-74062000D02*
X83784064Y-74062000D01*
X82579936Y-72242000D02*
X83784064Y-72242000D01*
D10*
%TO.C,U1*%
X88730000Y-58917600D02*
X87330000Y-58917600D01*
X88730000Y-64017600D02*
X92880000Y-64017600D01*
X88730000Y-58867600D02*
X92880000Y-58867600D01*
X88730000Y-64017600D02*
X88730000Y-63872600D01*
X92880000Y-64017600D02*
X92880000Y-63872600D01*
X92880000Y-58867600D02*
X92880000Y-59012600D01*
X88730000Y-58867600D02*
X88730000Y-58917600D01*
%TO.C,U2*%
X88882400Y-92992000D02*
X88882400Y-93042000D01*
X93032400Y-92992000D02*
X93032400Y-93137000D01*
X93032400Y-98142000D02*
X93032400Y-97997000D01*
X88882400Y-98142000D02*
X88882400Y-97997000D01*
X88882400Y-92992000D02*
X93032400Y-92992000D01*
X88882400Y-98142000D02*
X93032400Y-98142000D01*
X88882400Y-93042000D02*
X87482400Y-93042000D01*
D12*
%TO.C,C2*%
X85451700Y-75565600D02*
X77391700Y-75565600D01*
X77391700Y-75565600D02*
X77391700Y-80085600D01*
X77391700Y-80085600D02*
X85451700Y-80085600D01*
%TO.C,C6*%
X77213900Y-114337000D02*
X85273900Y-114337000D01*
X77213900Y-109817000D02*
X77213900Y-114337000D01*
X85273900Y-109817000D02*
X77213900Y-109817000D01*
%TO.C,R2*%
X85464236Y-70785400D02*
X86668364Y-70785400D01*
X85464236Y-68965400D02*
X86668364Y-68965400D01*
%TO.C,R3*%
X88461436Y-65485600D02*
X89665564Y-65485600D01*
X88461436Y-67305600D02*
X89665564Y-67305600D01*
%TO.C,R4*%
X82721036Y-108008600D02*
X83925164Y-108008600D01*
X82721036Y-106188600D02*
X83925164Y-106188600D01*
%TO.C,R5*%
X85667436Y-103064400D02*
X86871564Y-103064400D01*
X85667436Y-104884400D02*
X86871564Y-104884400D01*
%TO.C,R6*%
X88690036Y-101684000D02*
X89894164Y-101684000D01*
X88690036Y-99864000D02*
X89894164Y-99864000D01*
%TO.C,C1*%
D10*
X89662542Y-56199066D02*
X89710161Y-56246685D01*
X89757780Y-56389542D01*
X89757780Y-56484780D01*
X89710161Y-56627638D01*
X89614923Y-56722876D01*
X89519685Y-56770495D01*
X89329209Y-56818114D01*
X89186352Y-56818114D01*
X88995876Y-56770495D01*
X88900638Y-56722876D01*
X88805400Y-56627638D01*
X88757780Y-56484780D01*
X88757780Y-56389542D01*
X88805400Y-56246685D01*
X88853019Y-56199066D01*
X89757780Y-55246685D02*
X89757780Y-55818114D01*
X89757780Y-55532400D02*
X88757780Y-55532400D01*
X88900638Y-55627638D01*
X88995876Y-55722876D01*
X89043495Y-55818114D01*
%TO.C,C3*%
X98831942Y-61306766D02*
X98879561Y-61354385D01*
X98927180Y-61497242D01*
X98927180Y-61592480D01*
X98879561Y-61735338D01*
X98784323Y-61830576D01*
X98689085Y-61878195D01*
X98498609Y-61925814D01*
X98355752Y-61925814D01*
X98165276Y-61878195D01*
X98070038Y-61830576D01*
X97974800Y-61735338D01*
X97927180Y-61592480D01*
X97927180Y-61497242D01*
X97974800Y-61354385D01*
X98022419Y-61306766D01*
X97927180Y-60973433D02*
X97927180Y-60354385D01*
X98308133Y-60687719D01*
X98308133Y-60544861D01*
X98355752Y-60449623D01*
X98403371Y-60402004D01*
X98498609Y-60354385D01*
X98736704Y-60354385D01*
X98831942Y-60402004D01*
X98879561Y-60449623D01*
X98927180Y-60544861D01*
X98927180Y-60830576D01*
X98879561Y-60925814D01*
X98831942Y-60973433D01*
%TO.C,C4*%
X100381342Y-89678566D02*
X100428961Y-89726185D01*
X100476580Y-89869042D01*
X100476580Y-89964280D01*
X100428961Y-90107138D01*
X100333723Y-90202376D01*
X100238485Y-90249995D01*
X100048009Y-90297614D01*
X99905152Y-90297614D01*
X99714676Y-90249995D01*
X99619438Y-90202376D01*
X99524200Y-90107138D01*
X99476580Y-89964280D01*
X99476580Y-89869042D01*
X99524200Y-89726185D01*
X99571819Y-89678566D01*
X99809914Y-88821423D02*
X100476580Y-88821423D01*
X99428961Y-89059519D02*
X100143247Y-89297614D01*
X100143247Y-88678566D01*
%TO.C,C5*%
X89662542Y-90452766D02*
X89710161Y-90500385D01*
X89757780Y-90643242D01*
X89757780Y-90738480D01*
X89710161Y-90881338D01*
X89614923Y-90976576D01*
X89519685Y-91024195D01*
X89329209Y-91071814D01*
X89186352Y-91071814D01*
X88995876Y-91024195D01*
X88900638Y-90976576D01*
X88805400Y-90881338D01*
X88757780Y-90738480D01*
X88757780Y-90643242D01*
X88805400Y-90500385D01*
X88853019Y-90452766D01*
X88757780Y-89548004D02*
X88757780Y-90024195D01*
X89233971Y-90071814D01*
X89186352Y-90024195D01*
X89138733Y-89928957D01*
X89138733Y-89690861D01*
X89186352Y-89595623D01*
X89233971Y-89548004D01*
X89329209Y-89500385D01*
X89567304Y-89500385D01*
X89662542Y-89548004D01*
X89710161Y-89595623D01*
X89757780Y-89690861D01*
X89757780Y-89928957D01*
X89710161Y-90024195D01*
X89662542Y-90071814D01*
%TO.C,C7*%
X98933542Y-95380366D02*
X98981161Y-95427985D01*
X99028780Y-95570842D01*
X99028780Y-95666080D01*
X98981161Y-95808938D01*
X98885923Y-95904176D01*
X98790685Y-95951795D01*
X98600209Y-95999414D01*
X98457352Y-95999414D01*
X98266876Y-95951795D01*
X98171638Y-95904176D01*
X98076400Y-95808938D01*
X98028780Y-95666080D01*
X98028780Y-95570842D01*
X98076400Y-95427985D01*
X98124019Y-95380366D01*
X98028780Y-95047033D02*
X98028780Y-94380366D01*
X99028780Y-94808938D01*
%TO.C,C8*%
X98195333Y-82833342D02*
X98147714Y-82880961D01*
X98004857Y-82928580D01*
X97909619Y-82928580D01*
X97766761Y-82880961D01*
X97671523Y-82785723D01*
X97623904Y-82690485D01*
X97576285Y-82500009D01*
X97576285Y-82357152D01*
X97623904Y-82166676D01*
X97671523Y-82071438D01*
X97766761Y-81976200D01*
X97909619Y-81928580D01*
X98004857Y-81928580D01*
X98147714Y-81976200D01*
X98195333Y-82023819D01*
X98766761Y-82357152D02*
X98671523Y-82309533D01*
X98623904Y-82261914D01*
X98576285Y-82166676D01*
X98576285Y-82119057D01*
X98623904Y-82023819D01*
X98671523Y-81976200D01*
X98766761Y-81928580D01*
X98957238Y-81928580D01*
X99052476Y-81976200D01*
X99100095Y-82023819D01*
X99147714Y-82119057D01*
X99147714Y-82166676D01*
X99100095Y-82261914D01*
X99052476Y-82309533D01*
X98957238Y-82357152D01*
X98766761Y-82357152D01*
X98671523Y-82404771D01*
X98623904Y-82452390D01*
X98576285Y-82547628D01*
X98576285Y-82738104D01*
X98623904Y-82833342D01*
X98671523Y-82880961D01*
X98766761Y-82928580D01*
X98957238Y-82928580D01*
X99052476Y-82880961D01*
X99100095Y-82833342D01*
X99147714Y-82738104D01*
X99147714Y-82547628D01*
X99100095Y-82452390D01*
X99052476Y-82404771D01*
X98957238Y-82357152D01*
%TO.C,D1*%
X91464904Y-58637180D02*
X91464904Y-57637180D01*
X91703000Y-57637180D01*
X91845857Y-57684800D01*
X91941095Y-57780038D01*
X91988714Y-57875276D01*
X92036333Y-58065752D01*
X92036333Y-58208609D01*
X91988714Y-58399085D01*
X91941095Y-58494323D01*
X91845857Y-58589561D01*
X91703000Y-58637180D01*
X91464904Y-58637180D01*
X92988714Y-58637180D02*
X92417285Y-58637180D01*
X92703000Y-58637180D02*
X92703000Y-57637180D01*
X92607761Y-57780038D01*
X92512523Y-57875276D01*
X92417285Y-57922895D01*
%TO.C,D2*%
X91514704Y-92990180D02*
X91514704Y-91990180D01*
X91752800Y-91990180D01*
X91895657Y-92037800D01*
X91990895Y-92133038D01*
X92038514Y-92228276D01*
X92086133Y-92418752D01*
X92086133Y-92561609D01*
X92038514Y-92752085D01*
X91990895Y-92847323D01*
X91895657Y-92942561D01*
X91752800Y-92990180D01*
X91514704Y-92990180D01*
X92467085Y-92085419D02*
X92514704Y-92037800D01*
X92609942Y-91990180D01*
X92848038Y-91990180D01*
X92943276Y-92037800D01*
X92990895Y-92085419D01*
X93038514Y-92180657D01*
X93038514Y-92275895D01*
X92990895Y-92418752D01*
X92419466Y-92990180D01*
X93038514Y-92990180D01*
%TO.C,J1*%
X103298666Y-68476580D02*
X103298666Y-69190866D01*
X103251047Y-69333723D01*
X103155809Y-69428961D01*
X103012952Y-69476580D01*
X102917714Y-69476580D01*
X104298666Y-69476580D02*
X103727238Y-69476580D01*
X104012952Y-69476580D02*
X104012952Y-68476580D01*
X103917714Y-68619438D01*
X103822476Y-68714676D01*
X103727238Y-68762295D01*
%TO.C,J2*%
X68653066Y-77137980D02*
X68653066Y-77852266D01*
X68605447Y-77995123D01*
X68510209Y-78090361D01*
X68367352Y-78137980D01*
X68272114Y-78137980D01*
X69081638Y-77233219D02*
X69129257Y-77185600D01*
X69224495Y-77137980D01*
X69462590Y-77137980D01*
X69557828Y-77185600D01*
X69605447Y-77233219D01*
X69653066Y-77328457D01*
X69653066Y-77423695D01*
X69605447Y-77566552D01*
X69034019Y-78137980D01*
X69653066Y-78137980D01*
%TO.C,J3*%
X102485866Y-86916980D02*
X102485866Y-87631266D01*
X102438247Y-87774123D01*
X102343009Y-87869361D01*
X102200152Y-87916980D01*
X102104914Y-87916980D01*
X102866819Y-86916980D02*
X103485866Y-86916980D01*
X103152533Y-87297933D01*
X103295390Y-87297933D01*
X103390628Y-87345552D01*
X103438247Y-87393171D01*
X103485866Y-87488409D01*
X103485866Y-87726504D01*
X103438247Y-87821742D01*
X103390628Y-87869361D01*
X103295390Y-87916980D01*
X103009676Y-87916980D01*
X102914438Y-87869361D01*
X102866819Y-87821742D01*
%TO.C,J4*%
X68551466Y-98473980D02*
X68551466Y-99188266D01*
X68503847Y-99331123D01*
X68408609Y-99426361D01*
X68265752Y-99473980D01*
X68170514Y-99473980D01*
X69456228Y-98807314D02*
X69456228Y-99473980D01*
X69218133Y-98426361D02*
X68980038Y-99140647D01*
X69599085Y-99140647D01*
%TO.C,J5*%
X68983266Y-119784580D02*
X68983266Y-120498866D01*
X68935647Y-120641723D01*
X68840409Y-120736961D01*
X68697552Y-120784580D01*
X68602314Y-120784580D01*
X69935647Y-119784580D02*
X69459457Y-119784580D01*
X69411838Y-120260771D01*
X69459457Y-120213152D01*
X69554695Y-120165533D01*
X69792790Y-120165533D01*
X69888028Y-120213152D01*
X69935647Y-120260771D01*
X69983266Y-120356009D01*
X69983266Y-120594104D01*
X69935647Y-120689342D01*
X69888028Y-120736961D01*
X69792790Y-120784580D01*
X69554695Y-120784580D01*
X69459457Y-120736961D01*
X69411838Y-120689342D01*
%TO.C,J6*%
X95958066Y-67866980D02*
X95958066Y-68581266D01*
X95910447Y-68724123D01*
X95815209Y-68819361D01*
X95672352Y-68866980D01*
X95577114Y-68866980D01*
X96862828Y-67866980D02*
X96672352Y-67866980D01*
X96577114Y-67914600D01*
X96529495Y-67962219D01*
X96434257Y-68105076D01*
X96386638Y-68295552D01*
X96386638Y-68676504D01*
X96434257Y-68771742D01*
X96481876Y-68819361D01*
X96577114Y-68866980D01*
X96767590Y-68866980D01*
X96862828Y-68819361D01*
X96910447Y-68771742D01*
X96958066Y-68676504D01*
X96958066Y-68438409D01*
X96910447Y-68343171D01*
X96862828Y-68295552D01*
X96767590Y-68247933D01*
X96577114Y-68247933D01*
X96481876Y-68295552D01*
X96434257Y-68343171D01*
X96386638Y-68438409D01*
%TO.C,J7*%
X96313666Y-101813580D02*
X96313666Y-102527866D01*
X96266047Y-102670723D01*
X96170809Y-102765961D01*
X96027952Y-102813580D01*
X95932714Y-102813580D01*
X96694619Y-101813580D02*
X97361285Y-101813580D01*
X96932714Y-102813580D01*
%TO.C,L1*%
X72270180Y-61586866D02*
X72270180Y-62063057D01*
X71270180Y-62063057D01*
X72270180Y-60729723D02*
X72270180Y-61301152D01*
X72270180Y-61015438D02*
X71270180Y-61015438D01*
X71413038Y-61110676D01*
X71508276Y-61205914D01*
X71555895Y-61301152D01*
%TO.C,L2*%
X72397180Y-95381066D02*
X72397180Y-95857257D01*
X71397180Y-95857257D01*
X71492419Y-95095352D02*
X71444800Y-95047733D01*
X71397180Y-94952495D01*
X71397180Y-94714400D01*
X71444800Y-94619161D01*
X71492419Y-94571542D01*
X71587657Y-94523923D01*
X71682895Y-94523923D01*
X71825752Y-94571542D01*
X72397180Y-95142971D01*
X72397180Y-94523923D01*
%TO.C,R1*%
X83015333Y-71784380D02*
X82682000Y-71308190D01*
X82443904Y-71784380D02*
X82443904Y-70784380D01*
X82824857Y-70784380D01*
X82920095Y-70832000D01*
X82967714Y-70879619D01*
X83015333Y-70974857D01*
X83015333Y-71117714D01*
X82967714Y-71212952D01*
X82920095Y-71260571D01*
X82824857Y-71308190D01*
X82443904Y-71308190D01*
X83967714Y-71784380D02*
X83396285Y-71784380D01*
X83682000Y-71784380D02*
X83682000Y-70784380D01*
X83586761Y-70927238D01*
X83491523Y-71022476D01*
X83396285Y-71070095D01*
%TO.C,U1*%
X90043095Y-57394980D02*
X90043095Y-58204504D01*
X90090714Y-58299742D01*
X90138333Y-58347361D01*
X90233571Y-58394980D01*
X90424047Y-58394980D01*
X90519285Y-58347361D01*
X90566904Y-58299742D01*
X90614523Y-58204504D01*
X90614523Y-57394980D01*
X91614523Y-58394980D02*
X91043095Y-58394980D01*
X91328809Y-58394980D02*
X91328809Y-57394980D01*
X91233571Y-57537838D01*
X91138333Y-57633076D01*
X91043095Y-57680695D01*
%TO.C,U2*%
X90195495Y-91519380D02*
X90195495Y-92328904D01*
X90243114Y-92424142D01*
X90290733Y-92471761D01*
X90385971Y-92519380D01*
X90576447Y-92519380D01*
X90671685Y-92471761D01*
X90719304Y-92424142D01*
X90766923Y-92328904D01*
X90766923Y-91519380D01*
X91195495Y-91614619D02*
X91243114Y-91567000D01*
X91338352Y-91519380D01*
X91576447Y-91519380D01*
X91671685Y-91567000D01*
X91719304Y-91614619D01*
X91766923Y-91709857D01*
X91766923Y-91805095D01*
X91719304Y-91947952D01*
X91147876Y-92519380D01*
X91766923Y-92519380D01*
%TO.C,C2*%
X81635033Y-75082742D02*
X81587414Y-75130361D01*
X81444557Y-75177980D01*
X81349319Y-75177980D01*
X81206461Y-75130361D01*
X81111223Y-75035123D01*
X81063604Y-74939885D01*
X81015985Y-74749409D01*
X81015985Y-74606552D01*
X81063604Y-74416076D01*
X81111223Y-74320838D01*
X81206461Y-74225600D01*
X81349319Y-74177980D01*
X81444557Y-74177980D01*
X81587414Y-74225600D01*
X81635033Y-74273219D01*
X82015985Y-74273219D02*
X82063604Y-74225600D01*
X82158842Y-74177980D01*
X82396938Y-74177980D01*
X82492176Y-74225600D01*
X82539795Y-74273219D01*
X82587414Y-74368457D01*
X82587414Y-74463695D01*
X82539795Y-74606552D01*
X81968366Y-75177980D01*
X82587414Y-75177980D01*
%TO.C,C6*%
X81457233Y-109334142D02*
X81409614Y-109381761D01*
X81266757Y-109429380D01*
X81171519Y-109429380D01*
X81028661Y-109381761D01*
X80933423Y-109286523D01*
X80885804Y-109191285D01*
X80838185Y-109000809D01*
X80838185Y-108857952D01*
X80885804Y-108667476D01*
X80933423Y-108572238D01*
X81028661Y-108477000D01*
X81171519Y-108429380D01*
X81266757Y-108429380D01*
X81409614Y-108477000D01*
X81457233Y-108524619D01*
X82314376Y-108429380D02*
X82123900Y-108429380D01*
X82028661Y-108477000D01*
X81981042Y-108524619D01*
X81885804Y-108667476D01*
X81838185Y-108857952D01*
X81838185Y-109238904D01*
X81885804Y-109334142D01*
X81933423Y-109381761D01*
X82028661Y-109429380D01*
X82219138Y-109429380D01*
X82314376Y-109381761D01*
X82361995Y-109334142D01*
X82409614Y-109238904D01*
X82409614Y-109000809D01*
X82361995Y-108905571D01*
X82314376Y-108857952D01*
X82219138Y-108810333D01*
X82028661Y-108810333D01*
X81933423Y-108857952D01*
X81885804Y-108905571D01*
X81838185Y-109000809D01*
%TO.C,R2*%
X85899633Y-68507780D02*
X85566300Y-68031590D01*
X85328204Y-68507780D02*
X85328204Y-67507780D01*
X85709157Y-67507780D01*
X85804395Y-67555400D01*
X85852014Y-67603019D01*
X85899633Y-67698257D01*
X85899633Y-67841114D01*
X85852014Y-67936352D01*
X85804395Y-67983971D01*
X85709157Y-68031590D01*
X85328204Y-68031590D01*
X86280585Y-67603019D02*
X86328204Y-67555400D01*
X86423442Y-67507780D01*
X86661538Y-67507780D01*
X86756776Y-67555400D01*
X86804395Y-67603019D01*
X86852014Y-67698257D01*
X86852014Y-67793495D01*
X86804395Y-67936352D01*
X86232966Y-68507780D01*
X86852014Y-68507780D01*
%TO.C,R3*%
X88896833Y-65027980D02*
X88563500Y-64551790D01*
X88325404Y-65027980D02*
X88325404Y-64027980D01*
X88706357Y-64027980D01*
X88801595Y-64075600D01*
X88849214Y-64123219D01*
X88896833Y-64218457D01*
X88896833Y-64361314D01*
X88849214Y-64456552D01*
X88801595Y-64504171D01*
X88706357Y-64551790D01*
X88325404Y-64551790D01*
X89230166Y-64027980D02*
X89849214Y-64027980D01*
X89515880Y-64408933D01*
X89658738Y-64408933D01*
X89753976Y-64456552D01*
X89801595Y-64504171D01*
X89849214Y-64599409D01*
X89849214Y-64837504D01*
X89801595Y-64932742D01*
X89753976Y-64980361D01*
X89658738Y-65027980D01*
X89373023Y-65027980D01*
X89277785Y-64980361D01*
X89230166Y-64932742D01*
%TO.C,R4*%
X83156433Y-105730980D02*
X82823100Y-105254790D01*
X82585004Y-105730980D02*
X82585004Y-104730980D01*
X82965957Y-104730980D01*
X83061195Y-104778600D01*
X83108814Y-104826219D01*
X83156433Y-104921457D01*
X83156433Y-105064314D01*
X83108814Y-105159552D01*
X83061195Y-105207171D01*
X82965957Y-105254790D01*
X82585004Y-105254790D01*
X84013576Y-105064314D02*
X84013576Y-105730980D01*
X83775480Y-104683361D02*
X83537385Y-105397647D01*
X84156433Y-105397647D01*
%TO.C,R5*%
X86102833Y-102606780D02*
X85769500Y-102130590D01*
X85531404Y-102606780D02*
X85531404Y-101606780D01*
X85912357Y-101606780D01*
X86007595Y-101654400D01*
X86055214Y-101702019D01*
X86102833Y-101797257D01*
X86102833Y-101940114D01*
X86055214Y-102035352D01*
X86007595Y-102082971D01*
X85912357Y-102130590D01*
X85531404Y-102130590D01*
X87007595Y-101606780D02*
X86531404Y-101606780D01*
X86483785Y-102082971D01*
X86531404Y-102035352D01*
X86626642Y-101987733D01*
X86864738Y-101987733D01*
X86959976Y-102035352D01*
X87007595Y-102082971D01*
X87055214Y-102178209D01*
X87055214Y-102416304D01*
X87007595Y-102511542D01*
X86959976Y-102559161D01*
X86864738Y-102606780D01*
X86626642Y-102606780D01*
X86531404Y-102559161D01*
X86483785Y-102511542D01*
%TO.C,R6*%
X89125433Y-99406380D02*
X88792100Y-98930190D01*
X88554004Y-99406380D02*
X88554004Y-98406380D01*
X88934957Y-98406380D01*
X89030195Y-98454000D01*
X89077814Y-98501619D01*
X89125433Y-98596857D01*
X89125433Y-98739714D01*
X89077814Y-98834952D01*
X89030195Y-98882571D01*
X88934957Y-98930190D01*
X88554004Y-98930190D01*
X89982576Y-98406380D02*
X89792100Y-98406380D01*
X89696861Y-98454000D01*
X89649242Y-98501619D01*
X89554004Y-98644476D01*
X89506385Y-98834952D01*
X89506385Y-99215904D01*
X89554004Y-99311142D01*
X89601623Y-99358761D01*
X89696861Y-99406380D01*
X89887338Y-99406380D01*
X89982576Y-99358761D01*
X90030195Y-99311142D01*
X90077814Y-99215904D01*
X90077814Y-98977809D01*
X90030195Y-98882571D01*
X89982576Y-98834952D01*
X89887338Y-98787333D01*
X89696861Y-98787333D01*
X89601623Y-98834952D01*
X89554004Y-98882571D01*
X89506385Y-98977809D01*
%TD*%
M02*
