%TF.GenerationSoftware,KiCad,Pcbnew,5.1.6-c6e7f7d~87~ubuntu18.04.1*%
%TF.CreationDate,2021-01-11T16:49:14+13:00*%
%TF.ProjectId,Dual Output Converter,4475616c-204f-4757-9470-757420436f6e,rev?*%
%TF.SameCoordinates,Original*%
%TF.FileFunction,Soldermask,Top*%
%TF.FilePolarity,Negative*%
%FSLAX46Y46*%
G04 Gerber Fmt 4.6, Leading zero omitted, Abs format (unit mm)*
G04 Created by KiCad (PCBNEW 5.1.6-c6e7f7d~87~ubuntu18.04.1) date 2021-01-11 16:49:14*
%MOMM*%
%LPD*%
G01*
G04 APERTURE LIST*
%ADD10R,1.000000X1.300000*%
%ADD11C,2.700000*%
%ADD12R,5.500000X3.000000*%
%ADD13R,2.700000X3.200000*%
%ADD14R,1.650000X0.700000*%
G04 APERTURE END LIST*
%TO.C,C1*%
G36*
G01*
X87174150Y-54557400D02*
X88136650Y-54557400D01*
G75*
G02*
X88405400Y-54826150I0J-268750D01*
G01*
X88405400Y-55363650D01*
G75*
G02*
X88136650Y-55632400I-268750J0D01*
G01*
X87174150Y-55632400D01*
G75*
G02*
X86905400Y-55363650I0J268750D01*
G01*
X86905400Y-54826150D01*
G75*
G02*
X87174150Y-54557400I268750J0D01*
G01*
G37*
G36*
G01*
X87174150Y-56432400D02*
X88136650Y-56432400D01*
G75*
G02*
X88405400Y-56701150I0J-268750D01*
G01*
X88405400Y-57238650D01*
G75*
G02*
X88136650Y-57507400I-268750J0D01*
G01*
X87174150Y-57507400D01*
G75*
G02*
X86905400Y-57238650I0J268750D01*
G01*
X86905400Y-56701150D01*
G75*
G02*
X87174150Y-56432400I268750J0D01*
G01*
G37*
%TD*%
%TO.C,C3*%
G36*
G01*
X96343550Y-59665100D02*
X97306050Y-59665100D01*
G75*
G02*
X97574800Y-59933850I0J-268750D01*
G01*
X97574800Y-60471350D01*
G75*
G02*
X97306050Y-60740100I-268750J0D01*
G01*
X96343550Y-60740100D01*
G75*
G02*
X96074800Y-60471350I0J268750D01*
G01*
X96074800Y-59933850D01*
G75*
G02*
X96343550Y-59665100I268750J0D01*
G01*
G37*
G36*
G01*
X96343550Y-61540100D02*
X97306050Y-61540100D01*
G75*
G02*
X97574800Y-61808850I0J-268750D01*
G01*
X97574800Y-62346350D01*
G75*
G02*
X97306050Y-62615100I-268750J0D01*
G01*
X96343550Y-62615100D01*
G75*
G02*
X96074800Y-62346350I0J268750D01*
G01*
X96074800Y-61808850D01*
G75*
G02*
X96343550Y-61540100I268750J0D01*
G01*
G37*
%TD*%
%TO.C,C4*%
G36*
G01*
X97892950Y-89911900D02*
X98855450Y-89911900D01*
G75*
G02*
X99124200Y-90180650I0J-268750D01*
G01*
X99124200Y-90718150D01*
G75*
G02*
X98855450Y-90986900I-268750J0D01*
G01*
X97892950Y-90986900D01*
G75*
G02*
X97624200Y-90718150I0J268750D01*
G01*
X97624200Y-90180650D01*
G75*
G02*
X97892950Y-89911900I268750J0D01*
G01*
G37*
G36*
G01*
X97892950Y-88036900D02*
X98855450Y-88036900D01*
G75*
G02*
X99124200Y-88305650I0J-268750D01*
G01*
X99124200Y-88843150D01*
G75*
G02*
X98855450Y-89111900I-268750J0D01*
G01*
X97892950Y-89111900D01*
G75*
G02*
X97624200Y-88843150I0J268750D01*
G01*
X97624200Y-88305650D01*
G75*
G02*
X97892950Y-88036900I268750J0D01*
G01*
G37*
%TD*%
%TO.C,C5*%
G36*
G01*
X87174150Y-88811100D02*
X88136650Y-88811100D01*
G75*
G02*
X88405400Y-89079850I0J-268750D01*
G01*
X88405400Y-89617350D01*
G75*
G02*
X88136650Y-89886100I-268750J0D01*
G01*
X87174150Y-89886100D01*
G75*
G02*
X86905400Y-89617350I0J268750D01*
G01*
X86905400Y-89079850D01*
G75*
G02*
X87174150Y-88811100I268750J0D01*
G01*
G37*
G36*
G01*
X87174150Y-90686100D02*
X88136650Y-90686100D01*
G75*
G02*
X88405400Y-90954850I0J-268750D01*
G01*
X88405400Y-91492350D01*
G75*
G02*
X88136650Y-91761100I-268750J0D01*
G01*
X87174150Y-91761100D01*
G75*
G02*
X86905400Y-91492350I0J268750D01*
G01*
X86905400Y-90954850D01*
G75*
G02*
X87174150Y-90686100I268750J0D01*
G01*
G37*
%TD*%
%TO.C,C7*%
G36*
G01*
X96445150Y-95613700D02*
X97407650Y-95613700D01*
G75*
G02*
X97676400Y-95882450I0J-268750D01*
G01*
X97676400Y-96419950D01*
G75*
G02*
X97407650Y-96688700I-268750J0D01*
G01*
X96445150Y-96688700D01*
G75*
G02*
X96176400Y-96419950I0J268750D01*
G01*
X96176400Y-95882450D01*
G75*
G02*
X96445150Y-95613700I268750J0D01*
G01*
G37*
G36*
G01*
X96445150Y-93738700D02*
X97407650Y-93738700D01*
G75*
G02*
X97676400Y-94007450I0J-268750D01*
G01*
X97676400Y-94544950D01*
G75*
G02*
X97407650Y-94813700I-268750J0D01*
G01*
X96445150Y-94813700D01*
G75*
G02*
X96176400Y-94544950I0J268750D01*
G01*
X96176400Y-94007450D01*
G75*
G02*
X96445150Y-93738700I268750J0D01*
G01*
G37*
%TD*%
%TO.C,C8*%
G36*
G01*
X96412000Y-75236200D02*
X96412000Y-77316200D01*
G75*
G02*
X96152000Y-77576200I-260000J0D01*
G01*
X92572000Y-77576200D01*
G75*
G02*
X92312000Y-77316200I0J260000D01*
G01*
X92312000Y-75236200D01*
G75*
G02*
X92572000Y-74976200I260000J0D01*
G01*
X96152000Y-74976200D01*
G75*
G02*
X96412000Y-75236200I0J-260000D01*
G01*
G37*
G36*
G01*
X104412000Y-75236200D02*
X104412000Y-77316200D01*
G75*
G02*
X104152000Y-77576200I-260000J0D01*
G01*
X100572000Y-77576200D01*
G75*
G02*
X100312000Y-77316200I0J260000D01*
G01*
X100312000Y-75236200D01*
G75*
G02*
X100572000Y-74976200I260000J0D01*
G01*
X104152000Y-74976200D01*
G75*
G02*
X104412000Y-75236200I0J-260000D01*
G01*
G37*
%TD*%
D10*
%TO.C,D1*%
X93853000Y-56184800D03*
X90553000Y-56184800D03*
%TD*%
%TO.C,D2*%
X90602800Y-90537800D03*
X93902800Y-90537800D03*
%TD*%
D11*
%TO.C,J1*%
X103632000Y-66624200D03*
%TD*%
%TO.C,J2*%
X68986400Y-75285600D03*
%TD*%
%TO.C,J3*%
X102819200Y-85064600D03*
%TD*%
%TO.C,J4*%
X68884800Y-96621600D03*
%TD*%
%TO.C,J5*%
X69316600Y-117932200D03*
%TD*%
%TO.C,J6*%
X96291400Y-66014600D03*
%TD*%
%TO.C,J7*%
X96647000Y-99961200D03*
%TD*%
D12*
%TO.C,L1*%
X78917800Y-66370200D03*
X78917800Y-56470200D03*
%TD*%
%TO.C,L2*%
X79044800Y-90264400D03*
X79044800Y-100164400D03*
%TD*%
%TO.C,R1*%
G36*
G01*
X81107000Y-73807000D02*
X81107000Y-72497000D01*
G75*
G02*
X81377000Y-72227000I270000J0D01*
G01*
X82187000Y-72227000D01*
G75*
G02*
X82457000Y-72497000I0J-270000D01*
G01*
X82457000Y-73807000D01*
G75*
G02*
X82187000Y-74077000I-270000J0D01*
G01*
X81377000Y-74077000D01*
G75*
G02*
X81107000Y-73807000I0J270000D01*
G01*
G37*
G36*
G01*
X83907000Y-73807000D02*
X83907000Y-72497000D01*
G75*
G02*
X84177000Y-72227000I270000J0D01*
G01*
X84987000Y-72227000D01*
G75*
G02*
X85257000Y-72497000I0J-270000D01*
G01*
X85257000Y-73807000D01*
G75*
G02*
X84987000Y-74077000I-270000J0D01*
G01*
X84177000Y-74077000D01*
G75*
G02*
X83907000Y-73807000I0J270000D01*
G01*
G37*
%TD*%
D13*
%TO.C,U1*%
X90805000Y-61442600D03*
D14*
X88105000Y-59537600D03*
X88105000Y-60807600D03*
X88105000Y-62077600D03*
X88105000Y-63347600D03*
X93505000Y-63347600D03*
X93505000Y-62077600D03*
X93505000Y-60807600D03*
X93505000Y-59537600D03*
%TD*%
%TO.C,U2*%
X93657400Y-93662000D03*
X93657400Y-94932000D03*
X93657400Y-96202000D03*
X93657400Y-97472000D03*
X88257400Y-97472000D03*
X88257400Y-96202000D03*
X88257400Y-94932000D03*
X88257400Y-93662000D03*
D13*
X90957400Y-95567000D03*
%TD*%
%TO.C,C2*%
G36*
G01*
X83826700Y-78888552D02*
X83826700Y-76762648D01*
G75*
G02*
X84088748Y-76500600I262048J0D01*
G01*
X85739652Y-76500600D01*
G75*
G02*
X86001700Y-76762648I0J-262048D01*
G01*
X86001700Y-78888552D01*
G75*
G02*
X85739652Y-79150600I-262048J0D01*
G01*
X84088748Y-79150600D01*
G75*
G02*
X83826700Y-78888552I0J262048D01*
G01*
G37*
G36*
G01*
X77601700Y-78888552D02*
X77601700Y-76762648D01*
G75*
G02*
X77863748Y-76500600I262048J0D01*
G01*
X79514652Y-76500600D01*
G75*
G02*
X79776700Y-76762648I0J-262048D01*
G01*
X79776700Y-78888552D01*
G75*
G02*
X79514652Y-79150600I-262048J0D01*
G01*
X77863748Y-79150600D01*
G75*
G02*
X77601700Y-78888552I0J262048D01*
G01*
G37*
%TD*%
%TO.C,C6*%
G36*
G01*
X77423900Y-113139952D02*
X77423900Y-111014048D01*
G75*
G02*
X77685948Y-110752000I262048J0D01*
G01*
X79336852Y-110752000D01*
G75*
G02*
X79598900Y-111014048I0J-262048D01*
G01*
X79598900Y-113139952D01*
G75*
G02*
X79336852Y-113402000I-262048J0D01*
G01*
X77685948Y-113402000D01*
G75*
G02*
X77423900Y-113139952I0J262048D01*
G01*
G37*
G36*
G01*
X83648900Y-113139952D02*
X83648900Y-111014048D01*
G75*
G02*
X83910948Y-110752000I262048J0D01*
G01*
X85561852Y-110752000D01*
G75*
G02*
X85823900Y-111014048I0J-262048D01*
G01*
X85823900Y-113139952D01*
G75*
G02*
X85561852Y-113402000I-262048J0D01*
G01*
X83910948Y-113402000D01*
G75*
G02*
X83648900Y-113139952I0J262048D01*
G01*
G37*
%TD*%
%TO.C,R2*%
G36*
G01*
X83991300Y-70530400D02*
X83991300Y-69220400D01*
G75*
G02*
X84261300Y-68950400I270000J0D01*
G01*
X85071300Y-68950400D01*
G75*
G02*
X85341300Y-69220400I0J-270000D01*
G01*
X85341300Y-70530400D01*
G75*
G02*
X85071300Y-70800400I-270000J0D01*
G01*
X84261300Y-70800400D01*
G75*
G02*
X83991300Y-70530400I0J270000D01*
G01*
G37*
G36*
G01*
X86791300Y-70530400D02*
X86791300Y-69220400D01*
G75*
G02*
X87061300Y-68950400I270000J0D01*
G01*
X87871300Y-68950400D01*
G75*
G02*
X88141300Y-69220400I0J-270000D01*
G01*
X88141300Y-70530400D01*
G75*
G02*
X87871300Y-70800400I-270000J0D01*
G01*
X87061300Y-70800400D01*
G75*
G02*
X86791300Y-70530400I0J270000D01*
G01*
G37*
%TD*%
%TO.C,R3*%
G36*
G01*
X89788500Y-67050600D02*
X89788500Y-65740600D01*
G75*
G02*
X90058500Y-65470600I270000J0D01*
G01*
X90868500Y-65470600D01*
G75*
G02*
X91138500Y-65740600I0J-270000D01*
G01*
X91138500Y-67050600D01*
G75*
G02*
X90868500Y-67320600I-270000J0D01*
G01*
X90058500Y-67320600D01*
G75*
G02*
X89788500Y-67050600I0J270000D01*
G01*
G37*
G36*
G01*
X86988500Y-67050600D02*
X86988500Y-65740600D01*
G75*
G02*
X87258500Y-65470600I270000J0D01*
G01*
X88068500Y-65470600D01*
G75*
G02*
X88338500Y-65740600I0J-270000D01*
G01*
X88338500Y-67050600D01*
G75*
G02*
X88068500Y-67320600I-270000J0D01*
G01*
X87258500Y-67320600D01*
G75*
G02*
X86988500Y-67050600I0J270000D01*
G01*
G37*
%TD*%
%TO.C,R4*%
G36*
G01*
X81248100Y-107753600D02*
X81248100Y-106443600D01*
G75*
G02*
X81518100Y-106173600I270000J0D01*
G01*
X82328100Y-106173600D01*
G75*
G02*
X82598100Y-106443600I0J-270000D01*
G01*
X82598100Y-107753600D01*
G75*
G02*
X82328100Y-108023600I-270000J0D01*
G01*
X81518100Y-108023600D01*
G75*
G02*
X81248100Y-107753600I0J270000D01*
G01*
G37*
G36*
G01*
X84048100Y-107753600D02*
X84048100Y-106443600D01*
G75*
G02*
X84318100Y-106173600I270000J0D01*
G01*
X85128100Y-106173600D01*
G75*
G02*
X85398100Y-106443600I0J-270000D01*
G01*
X85398100Y-107753600D01*
G75*
G02*
X85128100Y-108023600I-270000J0D01*
G01*
X84318100Y-108023600D01*
G75*
G02*
X84048100Y-107753600I0J270000D01*
G01*
G37*
%TD*%
%TO.C,R5*%
G36*
G01*
X86994500Y-104629400D02*
X86994500Y-103319400D01*
G75*
G02*
X87264500Y-103049400I270000J0D01*
G01*
X88074500Y-103049400D01*
G75*
G02*
X88344500Y-103319400I0J-270000D01*
G01*
X88344500Y-104629400D01*
G75*
G02*
X88074500Y-104899400I-270000J0D01*
G01*
X87264500Y-104899400D01*
G75*
G02*
X86994500Y-104629400I0J270000D01*
G01*
G37*
G36*
G01*
X84194500Y-104629400D02*
X84194500Y-103319400D01*
G75*
G02*
X84464500Y-103049400I270000J0D01*
G01*
X85274500Y-103049400D01*
G75*
G02*
X85544500Y-103319400I0J-270000D01*
G01*
X85544500Y-104629400D01*
G75*
G02*
X85274500Y-104899400I-270000J0D01*
G01*
X84464500Y-104899400D01*
G75*
G02*
X84194500Y-104629400I0J270000D01*
G01*
G37*
%TD*%
%TO.C,R6*%
G36*
G01*
X87217100Y-101429000D02*
X87217100Y-100119000D01*
G75*
G02*
X87487100Y-99849000I270000J0D01*
G01*
X88297100Y-99849000D01*
G75*
G02*
X88567100Y-100119000I0J-270000D01*
G01*
X88567100Y-101429000D01*
G75*
G02*
X88297100Y-101699000I-270000J0D01*
G01*
X87487100Y-101699000D01*
G75*
G02*
X87217100Y-101429000I0J270000D01*
G01*
G37*
G36*
G01*
X90017100Y-101429000D02*
X90017100Y-100119000D01*
G75*
G02*
X90287100Y-99849000I270000J0D01*
G01*
X91097100Y-99849000D01*
G75*
G02*
X91367100Y-100119000I0J-270000D01*
G01*
X91367100Y-101429000D01*
G75*
G02*
X91097100Y-101699000I-270000J0D01*
G01*
X90287100Y-101699000D01*
G75*
G02*
X90017100Y-101429000I0J270000D01*
G01*
G37*
%TD*%
M02*
