%TF.GenerationSoftware,KiCad,Pcbnew,5.1.6-c6e7f7d~87~ubuntu18.04.1*%
%TF.CreationDate,2021-01-11T16:49:14+13:00*%
%TF.ProjectId,Dual Output Converter,4475616c-204f-4757-9470-757420436f6e,rev?*%
%TF.SameCoordinates,Original*%
%TF.FileFunction,Copper,L2,Bot*%
%TF.FilePolarity,Positive*%
%FSLAX46Y46*%
G04 Gerber Fmt 4.6, Leading zero omitted, Abs format (unit mm)*
G04 Created by KiCad (PCBNEW 5.1.6-c6e7f7d~87~ubuntu18.04.1) date 2021-01-11 16:49:14*
%MOMM*%
%LPD*%
G01*
G04 APERTURE LIST*
%TA.AperFunction,NonConductor*%
%ADD10C,0.100000*%
%TD*%
%TA.AperFunction,ComponentPad*%
%ADD11C,2.600000*%
%TD*%
%TA.AperFunction,Conductor*%
%ADD12R,2.950000X4.500000*%
%TD*%
%TA.AperFunction,ViaPad*%
%ADD13C,0.600000*%
%TD*%
G04 APERTURE END LIST*
D10*
G36*
X92303600Y-98044000D02*
G01*
X92278200Y-102387400D01*
X97332800Y-102387400D01*
X97307400Y-114909600D01*
X83820000Y-114909600D01*
X83794600Y-109220000D01*
X89484200Y-109194600D01*
X89509600Y-93218000D01*
X89509600Y-89509600D01*
X92303600Y-89509600D01*
X92303600Y-98044000D01*
G37*
X92303600Y-98044000D02*
X92278200Y-102387400D01*
X97332800Y-102387400D01*
X97307400Y-114909600D01*
X83820000Y-114909600D01*
X83794600Y-109220000D01*
X89484200Y-109194600D01*
X89509600Y-93218000D01*
X89509600Y-89509600D01*
X92303600Y-89509600D01*
X92303600Y-98044000D01*
G36*
X92151200Y-63982600D02*
G01*
X92125800Y-68326000D01*
X97180400Y-68326000D01*
X97155000Y-80848200D01*
X83667600Y-80848200D01*
X83642200Y-75158600D01*
X89331800Y-75133200D01*
X89357200Y-59156600D01*
X89357200Y-55448200D01*
X92151200Y-55448200D01*
X92151200Y-63982600D01*
G37*
X92151200Y-63982600D02*
X92125800Y-68326000D01*
X97180400Y-68326000D01*
X97155000Y-80848200D01*
X83667600Y-80848200D01*
X83642200Y-75158600D01*
X89331800Y-75133200D01*
X89357200Y-59156600D01*
X89357200Y-55448200D01*
X92151200Y-55448200D01*
X92151200Y-63982600D01*
D11*
%TO.P,J1,1*%
%TO.N,Net-(C3-Pad1)*%
X103632000Y-66624200D03*
%TD*%
%TO.P,J2,1*%
%TO.N,Net-(C2-Pad1)*%
X68986400Y-75285600D03*
%TD*%
%TO.P,J3,1*%
%TO.N,Net-(C2-Pad2)*%
X102819200Y-85064600D03*
%TD*%
%TO.P,J4,1*%
%TO.N,Net-(C2-Pad2)*%
X68884800Y-96621600D03*
%TD*%
%TO.P,J5,1*%
%TO.N,Net-(C6-Pad2)*%
X69316600Y-117932200D03*
%TD*%
%TO.P,J6,1*%
%TO.N,Net-(J6-Pad1)*%
X96291400Y-66014600D03*
%TD*%
%TO.P,J7,1*%
%TO.N,Net-(J7-Pad1)*%
X96647000Y-99961200D03*
%TD*%
D12*
%TO.N,Net-(C2-Pad2)*%
%TO.C,U1*%
X90805000Y-61442600D03*
D13*
X90205000Y-59642600D03*
X90205000Y-60842600D03*
X91405000Y-60842600D03*
X91405000Y-59642600D03*
X90205000Y-63242600D03*
X90205000Y-62142600D03*
X91405000Y-62142600D03*
X91405000Y-63242600D03*
%TD*%
%TO.N,Net-(C6-Pad2)*%
%TO.C,U2*%
X91557400Y-97367000D03*
X91557400Y-96267000D03*
X90357400Y-96267000D03*
X90357400Y-97367000D03*
X91557400Y-93767000D03*
X91557400Y-94967000D03*
X90357400Y-94967000D03*
X90357400Y-93767000D03*
D12*
X90957400Y-95567000D03*
%TD*%
M02*
