M48
; DRILL file {KiCad 5.1.6-c6e7f7d~87~ubuntu18.04.1} date Mon Jan 11 16:48:50 2021
; FORMAT={-:-/ absolute / metric / decimal}
; #@! TF.CreationDate,2021-01-11T16:48:50+13:00
; #@! TF.GenerationSoftware,Kicad,Pcbnew,5.1.6-c6e7f7d~87~ubuntu18.04.1
; #@! TF.FileFunction,Plated,1,2,PTH
FMAT,2
METRIC
T1C0.300
T2C1.300
%
G90
G05
T1
X90.357Y-93.767
X90.357Y-94.967
X90.357Y-96.267
X90.357Y-97.367
X91.557Y-93.767
X91.557Y-94.967
X91.557Y-96.267
X91.557Y-97.367
X90.205Y-59.643
X90.205Y-60.843
X90.205Y-62.143
X90.205Y-63.243
X91.405Y-59.643
X91.405Y-60.843
X91.405Y-62.143
X91.405Y-63.243
T2
X68.885Y-96.622
X96.291Y-66.015
X103.632Y-66.624
X69.317Y-117.932
X96.647Y-99.961
X68.986Y-75.286
X102.819Y-85.065
T0
M30
