G04 #@! TF.GenerationSoftware,KiCad,Pcbnew,5.0.1+dfsg1-3*
G04 #@! TF.CreationDate,2019-02-08T02:38:29+00:00*
G04 #@! TF.ProjectId,Trimodal Blameless_backup,5472696D6F64616C20426C616D656C65,rev?*
G04 #@! TF.SameCoordinates,Original*
G04 #@! TF.FileFunction,Copper,L1,Top,Signal*
G04 #@! TF.FilePolarity,Positive*
%FSLAX46Y46*%
G04 Gerber Fmt 4.6, Leading zero omitted, Abs format (unit mm)*
G04 Created by KiCad (PCBNEW 5.0.1+dfsg1-3) date Fri 08 Feb 2019 02:38:29 UTC*
%MOMM*%
%LPD*%
G01*
G04 APERTURE LIST*
G04 #@! TA.AperFunction,ComponentPad*
%ADD10C,6.000000*%
G04 #@! TD*
G04 #@! TA.AperFunction,ComponentPad*
%ADD11C,2.600000*%
G04 #@! TD*
G04 #@! TA.AperFunction,Conductor*
%ADD12C,0.100000*%
G04 #@! TD*
G04 #@! TA.AperFunction,ComponentPad*
%ADD13C,6.350000*%
G04 #@! TD*
G04 #@! TA.AperFunction,ComponentPad*
%ADD14O,2.400000X2.400000*%
G04 #@! TD*
G04 #@! TA.AperFunction,ComponentPad*
%ADD15C,2.400000*%
G04 #@! TD*
G04 #@! TA.AperFunction,ComponentPad*
%ADD16R,2.000000X2.000000*%
G04 #@! TD*
G04 #@! TA.AperFunction,ComponentPad*
%ADD17C,2.000000*%
G04 #@! TD*
G04 #@! TA.AperFunction,ComponentPad*
%ADD18R,2.400000X2.400000*%
G04 #@! TD*
G04 #@! TA.AperFunction,ComponentPad*
%ADD19C,1.600000*%
G04 #@! TD*
G04 #@! TA.AperFunction,ComponentPad*
%ADD20R,1.600000X1.600000*%
G04 #@! TD*
G04 #@! TA.AperFunction,ComponentPad*
%ADD21R,2.200000X2.200000*%
G04 #@! TD*
G04 #@! TA.AperFunction,ComponentPad*
%ADD22O,2.200000X2.200000*%
G04 #@! TD*
G04 #@! TA.AperFunction,ComponentPad*
%ADD23C,3.000000*%
G04 #@! TD*
G04 #@! TA.AperFunction,ComponentPad*
%ADD24O,1.800000X1.800000*%
G04 #@! TD*
G04 #@! TA.AperFunction,ComponentPad*
%ADD25R,1.800000X1.800000*%
G04 #@! TD*
G04 #@! TA.AperFunction,ComponentPad*
%ADD26C,1.300000*%
G04 #@! TD*
G04 #@! TA.AperFunction,ComponentPad*
%ADD27R,1.300000X1.300000*%
G04 #@! TD*
G04 #@! TA.AperFunction,ComponentPad*
%ADD28O,1.500000X1.050000*%
G04 #@! TD*
G04 #@! TA.AperFunction,ComponentPad*
%ADD29R,1.500000X1.050000*%
G04 #@! TD*
G04 #@! TA.AperFunction,ComponentPad*
%ADD30O,1.600000X1.600000*%
G04 #@! TD*
G04 #@! TA.AperFunction,ComponentPad*
%ADD31R,1.524000X1.524000*%
G04 #@! TD*
G04 #@! TA.AperFunction,ComponentPad*
%ADD32C,1.524000*%
G04 #@! TD*
G04 #@! TA.AperFunction,ComponentPad*
%ADD33C,2.340000*%
G04 #@! TD*
G04 #@! TA.AperFunction,ViaPad*
%ADD34C,1.000000*%
G04 #@! TD*
G04 #@! TA.AperFunction,ViaPad*
%ADD35C,3.000000*%
G04 #@! TD*
G04 #@! TA.AperFunction,ViaPad*
%ADD36C,2.000000*%
G04 #@! TD*
G04 #@! TA.AperFunction,Conductor*
%ADD37C,1.000000*%
G04 #@! TD*
G04 #@! TA.AperFunction,Conductor*
%ADD38C,3.000000*%
G04 #@! TD*
G04 #@! TA.AperFunction,Conductor*
%ADD39C,2.000000*%
G04 #@! TD*
G04 APERTURE END LIST*
D10*
G04 #@! TO.P,HS2,1*
G04 #@! TO.N,N/C*
X101600000Y-116840000D03*
X76200000Y-116840000D03*
G04 #@! TD*
D11*
G04 #@! TO.P,TR9,1*
G04 #@! TO.N,Net-(R26-Pad1)*
X43979212Y-63550252D03*
D12*
G04 #@! TD*
G04 #@! TO.N,Net-(R26-Pad1)*
G04 #@! TO.C,TR9*
G36*
X43979212Y-61711774D02*
X45817690Y-63550252D01*
X43979212Y-65388730D01*
X42140734Y-63550252D01*
X43979212Y-61711774D01*
X43979212Y-61711774D01*
G37*
D11*
G04 #@! TO.P,TR9,2*
G04 #@! TO.N,VCC*
X36257606Y-55828646D03*
D13*
G04 #@! TO.P,TR9,3*
G04 #@! TO.N,Net-(R17-Pad2)*
X49530000Y-50292000D03*
X28175375Y-71646625D03*
G04 #@! TD*
D14*
G04 #@! TO.P,R16,2*
G04 #@! TO.N,NFB*
X64770000Y-86360000D03*
D15*
G04 #@! TO.P,R16,1*
G04 #@! TO.N,Net-(D7-Pad1)*
X64770000Y-116840000D03*
G04 #@! TD*
D13*
G04 #@! TO.P,TR7,3*
G04 #@! TO.N,Net-(D7-Pad1)*
X29495627Y-92400163D03*
X50850252Y-113754788D03*
D11*
G04 #@! TO.P,TR7,2*
G04 #@! TO.N,VAA*
X45313606Y-100482394D03*
G04 #@! TO.P,TR7,1*
G04 #@! TO.N,Net-(R25-Pad2)*
X37592000Y-108204000D03*
D12*
G04 #@! TD*
G04 #@! TO.N,Net-(R25-Pad2)*
G04 #@! TO.C,TR7*
G36*
X39430478Y-108204000D02*
X37592000Y-110042478D01*
X35753522Y-108204000D01*
X37592000Y-106365522D01*
X39430478Y-108204000D01*
X39430478Y-108204000D01*
G37*
D16*
G04 #@! TO.P,C2,1*
G04 #@! TO.N,Net-(C2-Pad1)*
X161798000Y-64770000D03*
D17*
G04 #@! TO.P,C2,2*
G04 #@! TO.N,GND*
X161798000Y-69770000D03*
G04 #@! TD*
G04 #@! TO.P,C9,2*
G04 #@! TO.N,GND*
X110744000Y-134192000D03*
D16*
G04 #@! TO.P,C9,1*
G04 #@! TO.N,VAA*
X110744000Y-139192000D03*
G04 #@! TD*
G04 #@! TO.P,C10,1*
G04 #@! TO.N,GND*
X105156000Y-43354000D03*
D17*
G04 #@! TO.P,C10,2*
G04 #@! TO.N,VCC*
X105156000Y-38354000D03*
G04 #@! TD*
D18*
G04 #@! TO.P,C12,1*
G04 #@! TO.N,GND*
X154940000Y-39878000D03*
D15*
G04 #@! TO.P,C12,2*
G04 #@! TO.N,Net-(C12-Pad2)*
X154940000Y-34878000D03*
G04 #@! TD*
D19*
G04 #@! TO.P,C1,2*
G04 #@! TO.N,Net-(C1-Pad2)*
X189150000Y-100330000D03*
D20*
G04 #@! TO.P,C1,1*
G04 #@! TO.N,Net-(C1-Pad1)*
X184150000Y-100330000D03*
G04 #@! TD*
G04 #@! TO.P,C4,1*
G04 #@! TO.N,Net-(C4-Pad1)*
X86360000Y-132080000D03*
D19*
G04 #@! TO.P,C4,2*
G04 #@! TO.N,Net-(C3-Pad1)*
X86360000Y-127080000D03*
G04 #@! TD*
G04 #@! TO.P,C5,2*
G04 #@! TO.N,NFB*
X134620000Y-78058000D03*
D20*
G04 #@! TO.P,C5,1*
G04 #@! TO.N,Net-(C5-Pad1)*
X134620000Y-83058000D03*
G04 #@! TD*
G04 #@! TO.P,C15,1*
G04 #@! TO.N,Net-(C15-Pad1)*
X178308000Y-59182000D03*
D19*
G04 #@! TO.P,C15,2*
G04 #@! TO.N,Net-(C15-Pad2)*
X183308000Y-59182000D03*
G04 #@! TD*
G04 #@! TO.P,C14,2*
G04 #@! TO.N,Net-(C14-Pad2)*
X166544000Y-108458000D03*
D20*
G04 #@! TO.P,C14,1*
G04 #@! TO.N,VAA*
X161544000Y-108458000D03*
G04 #@! TD*
G04 #@! TO.P,C11,1*
G04 #@! TO.N,VAA*
X135636000Y-134112000D03*
D19*
G04 #@! TO.P,C11,2*
G04 #@! TO.N,Net-(C11-Pad2)*
X135636000Y-139112000D03*
G04 #@! TD*
G04 #@! TO.P,C3,2*
G04 #@! TO.N,Net-(C3-Pad2)*
X148590000Y-58928000D03*
G04 #@! TO.P,C3,1*
G04 #@! TO.N,Net-(C3-Pad1)*
X143590000Y-58928000D03*
G04 #@! TD*
G04 #@! TO.P,C16,1*
G04 #@! TO.N,Net-(C16-Pad1)*
X187198000Y-84074000D03*
G04 #@! TO.P,C16,2*
G04 #@! TO.N,GND*
X187198000Y-79074000D03*
G04 #@! TD*
G04 #@! TO.P,C13,2*
G04 #@! TO.N,VCC*
X114808000Y-38260000D03*
G04 #@! TO.P,C13,1*
G04 #@! TO.N,GND*
X114808000Y-48260000D03*
G04 #@! TD*
G04 #@! TO.P,C7,1*
G04 #@! TO.N,VAA*
X183134000Y-116078000D03*
G04 #@! TO.P,C7,2*
G04 #@! TO.N,GND*
X183134000Y-106078000D03*
G04 #@! TD*
G04 #@! TO.P,C6,2*
G04 #@! TO.N,GND*
X102710000Y-71120000D03*
G04 #@! TO.P,C6,1*
G04 #@! TO.N,Net-(C6-Pad1)*
X92710000Y-71120000D03*
G04 #@! TD*
G04 #@! TO.P,C17,1*
G04 #@! TO.N,GND*
X188214000Y-45720000D03*
G04 #@! TO.P,C17,2*
G04 #@! TO.N,Net-(C12-Pad2)*
X188214000Y-35720000D03*
G04 #@! TD*
D11*
G04 #@! TO.P,J4,1*
G04 #@! TO.N,GND*
X119888000Y-74168000D03*
G04 #@! TD*
G04 #@! TO.P,J3,1*
G04 #@! TO.N,Net-(J3-Pad1)*
X95250000Y-102870000D03*
G04 #@! TD*
G04 #@! TO.P,J2,1*
G04 #@! TO.N,GND*
X190246000Y-74930000D03*
G04 #@! TD*
G04 #@! TO.P,J1,1*
G04 #@! TO.N,Net-(C1-Pad2)*
X190500000Y-93472000D03*
G04 #@! TD*
D21*
G04 #@! TO.P,D5,1*
G04 #@! TO.N,Net-(D5-Pad1)*
X125984000Y-56896000D03*
D22*
G04 #@! TO.P,D5,2*
G04 #@! TO.N,Net-(D5-Pad2)*
X133604000Y-56896000D03*
G04 #@! TD*
D21*
G04 #@! TO.P,D1,1*
G04 #@! TO.N,Net-(D1-Pad1)*
X166370000Y-52070000D03*
D22*
G04 #@! TO.P,D1,2*
G04 #@! TO.N,Net-(C2-Pad1)*
X166370000Y-59690000D03*
G04 #@! TD*
G04 #@! TO.P,D2,2*
G04 #@! TO.N,Net-(D1-Pad1)*
X166370000Y-46990000D03*
D21*
G04 #@! TO.P,D2,1*
G04 #@! TO.N,GND*
X166370000Y-39370000D03*
G04 #@! TD*
G04 #@! TO.P,D4,1*
G04 #@! TO.N,Net-(D3-Pad2)*
X170180000Y-46990000D03*
D22*
G04 #@! TO.P,D4,2*
G04 #@! TO.N,GND*
X170180000Y-39370000D03*
G04 #@! TD*
G04 #@! TO.P,D6,2*
G04 #@! TO.N,Net-(D5-Pad1)*
X125984000Y-45212000D03*
D21*
G04 #@! TO.P,D6,1*
G04 #@! TO.N,VCC*
X125984000Y-37592000D03*
G04 #@! TD*
G04 #@! TO.P,D7,1*
G04 #@! TO.N,Net-(D7-Pad1)*
X164592000Y-81280000D03*
D22*
G04 #@! TO.P,D7,2*
G04 #@! TO.N,Net-(D7-Pad2)*
X164592000Y-88900000D03*
G04 #@! TD*
G04 #@! TO.P,D8,2*
G04 #@! TO.N,Net-(D8-Pad2)*
X108458000Y-74422000D03*
D21*
G04 #@! TO.P,D8,1*
G04 #@! TO.N,Net-(D8-Pad1)*
X108458000Y-66802000D03*
G04 #@! TD*
G04 #@! TO.P,D9,1*
G04 #@! TO.N,Net-(D9-Pad1)*
X138176000Y-105156000D03*
D22*
G04 #@! TO.P,D9,2*
G04 #@! TO.N,Net-(D9-Pad2)*
X138176000Y-112776000D03*
G04 #@! TD*
D23*
G04 #@! TO.P,F1,2*
G04 #@! TO.N,VAA*
X87630000Y-142240000D03*
G04 #@! TO.P,F1,1*
G04 #@! TO.N,+24V*
X65030000Y-142240000D03*
G04 #@! TD*
G04 #@! TO.P,F2,1*
G04 #@! TO.N,-24V*
X64014000Y-33782000D03*
G04 #@! TO.P,F2,2*
G04 #@! TO.N,VCC*
X86614000Y-33782000D03*
G04 #@! TD*
D15*
G04 #@! TO.P,L1,1*
G04 #@! TO.N,NFB*
X83820000Y-77470000D03*
D14*
G04 #@! TO.P,L1,2*
G04 #@! TO.N,Net-(J3-Pad1)*
X83820000Y-102870000D03*
G04 #@! TD*
D24*
G04 #@! TO.P,TR6,3*
G04 #@! TO.N,Net-(D7-Pad1)*
X91440000Y-112776000D03*
G04 #@! TO.P,TR6,2*
G04 #@! TO.N,Net-(R25-Pad2)*
X88900000Y-112776000D03*
D25*
G04 #@! TO.P,TR6,1*
G04 #@! TO.N,Net-(D7-Pad2)*
X86360000Y-112776000D03*
G04 #@! TD*
G04 #@! TO.P,TR13,1*
G04 #@! TO.N,Net-(R10-Pad2)*
X91440000Y-120650000D03*
D24*
G04 #@! TO.P,TR13,2*
G04 #@! TO.N,Net-(C4-Pad1)*
X88900000Y-120650000D03*
G04 #@! TO.P,TR13,3*
G04 #@! TO.N,Net-(C3-Pad1)*
X86360000Y-120650000D03*
G04 #@! TD*
D26*
G04 #@! TO.P,TR12,2*
G04 #@! TO.N,Net-(C3-Pad2)*
X145542000Y-63754000D03*
G04 #@! TO.P,TR12,3*
G04 #@! TO.N,GND*
X144272000Y-65024000D03*
D27*
G04 #@! TO.P,TR12,1*
G04 #@! TO.N,Net-(R36-Pad1)*
X144272000Y-62484000D03*
G04 #@! TD*
G04 #@! TO.P,TR20,1*
G04 #@! TO.N,Net-(C3-Pad1)*
X126746000Y-93218000D03*
D26*
G04 #@! TO.P,TR20,3*
G04 #@! TO.N,Net-(R11-Pad2)*
X126746000Y-95758000D03*
G04 #@! TO.P,TR20,2*
G04 #@! TO.N,Net-(R32-Pad1)*
X128016000Y-94488000D03*
G04 #@! TD*
G04 #@! TO.P,TR21,2*
G04 #@! TO.N,Net-(R41-Pad2)*
X159004000Y-124714000D03*
G04 #@! TO.P,TR21,3*
G04 #@! TO.N,Net-(R49-Pad1)*
X160274000Y-123444000D03*
D27*
G04 #@! TO.P,TR21,1*
G04 #@! TO.N,VAA*
X160274000Y-125984000D03*
G04 #@! TD*
G04 #@! TO.P,TR19,1*
G04 #@! TO.N,NFB*
X142494000Y-77724000D03*
D26*
G04 #@! TO.P,TR19,3*
G04 #@! TO.N,Net-(D8-Pad2)*
X142494000Y-80264000D03*
G04 #@! TO.P,TR19,2*
G04 #@! TO.N,Net-(R27-Pad2)*
X143764000Y-78994000D03*
G04 #@! TD*
G04 #@! TO.P,TR17,2*
G04 #@! TO.N,Net-(D5-Pad2)*
X131826000Y-62230000D03*
G04 #@! TO.P,TR17,3*
G04 #@! TO.N,Net-(TR15-Pad1)*
X130556000Y-63500000D03*
D27*
G04 #@! TO.P,TR17,1*
G04 #@! TO.N,Net-(R45-Pad1)*
X130556000Y-60960000D03*
G04 #@! TD*
G04 #@! TO.P,TR16,1*
G04 #@! TO.N,Net-(TR15-Pad1)*
X119380000Y-103124000D03*
D26*
G04 #@! TO.P,TR16,3*
G04 #@! TO.N,Net-(R15-Pad2)*
X119380000Y-105664000D03*
G04 #@! TO.P,TR16,2*
G04 #@! TO.N,Net-(R20-Pad2)*
X120650000Y-104394000D03*
G04 #@! TD*
G04 #@! TO.P,TR15,2*
G04 #@! TO.N,Net-(R30-Pad1)*
X133604000Y-106172000D03*
G04 #@! TO.P,TR15,3*
G04 #@! TO.N,Net-(C4-Pad1)*
X132334000Y-107442000D03*
D27*
G04 #@! TO.P,TR15,1*
G04 #@! TO.N,Net-(TR15-Pad1)*
X132334000Y-104902000D03*
G04 #@! TD*
G04 #@! TO.P,TR14,1*
G04 #@! TO.N,Net-(C4-Pad1)*
X106680000Y-105410000D03*
D26*
G04 #@! TO.P,TR14,3*
G04 #@! TO.N,Net-(C3-Pad1)*
X106680000Y-102870000D03*
G04 #@! TO.P,TR14,2*
G04 #@! TO.N,Net-(R15-Pad2)*
X105410000Y-104140000D03*
G04 #@! TD*
G04 #@! TO.P,TR11,2*
G04 #@! TO.N,Net-(TR10-Pad2)*
X176784000Y-50546000D03*
G04 #@! TO.P,TR11,3*
X175514000Y-51816000D03*
D27*
G04 #@! TO.P,TR11,1*
G04 #@! TO.N,Net-(R7-Pad1)*
X175514000Y-49276000D03*
G04 #@! TD*
G04 #@! TO.P,TR10,1*
G04 #@! TO.N,Net-(R6-Pad1)*
X181102000Y-49276000D03*
D26*
G04 #@! TO.P,TR10,3*
G04 #@! TO.N,Net-(C3-Pad2)*
X181102000Y-51816000D03*
G04 #@! TO.P,TR10,2*
G04 #@! TO.N,Net-(TR10-Pad2)*
X182372000Y-50546000D03*
G04 #@! TD*
G04 #@! TO.P,TR5,2*
G04 #@! TO.N,Net-(R49-Pad1)*
X148844000Y-126492000D03*
G04 #@! TO.P,TR5,3*
G04 #@! TO.N,Net-(R10-Pad1)*
X150114000Y-125222000D03*
D27*
G04 #@! TO.P,TR5,1*
G04 #@! TO.N,Net-(R13-Pad2)*
X150114000Y-127762000D03*
G04 #@! TD*
G04 #@! TO.P,TR4,1*
G04 #@! TO.N,Net-(R34-Pad1)*
X144526000Y-52832000D03*
D26*
G04 #@! TO.P,TR4,3*
G04 #@! TO.N,Net-(C3-Pad1)*
X144526000Y-55372000D03*
G04 #@! TO.P,TR4,2*
G04 #@! TO.N,Net-(R36-Pad1)*
X145796000Y-54102000D03*
G04 #@! TD*
G04 #@! TO.P,TR3,2*
G04 #@! TO.N,Net-(R40-Pad1)*
X171450000Y-79502000D03*
G04 #@! TO.P,TR3,3*
G04 #@! TO.N,Net-(TR10-Pad2)*
X172720000Y-78232000D03*
D27*
G04 #@! TO.P,TR3,1*
G04 #@! TO.N,Net-(R3-Pad2)*
X172720000Y-80772000D03*
G04 #@! TD*
G04 #@! TO.P,TR18,1*
G04 #@! TO.N,NFB*
X150114000Y-77724000D03*
D26*
G04 #@! TO.P,TR18,3*
G04 #@! TO.N,Net-(D7-Pad1)*
X150114000Y-80264000D03*
G04 #@! TO.P,TR18,2*
G04 #@! TO.N,Net-(R21-Pad2)*
X151384000Y-78994000D03*
G04 #@! TD*
G04 #@! TO.P,TR2,2*
G04 #@! TO.N,Net-(C16-Pad1)*
X182372000Y-79502000D03*
G04 #@! TO.P,TR2,3*
G04 #@! TO.N,Net-(C3-Pad2)*
X181102000Y-80772000D03*
D27*
G04 #@! TO.P,TR2,1*
G04 #@! TO.N,Net-(R2-Pad2)*
X181102000Y-78232000D03*
G04 #@! TD*
G04 #@! TO.P,TR1,1*
G04 #@! TO.N,Net-(R4-Pad2)*
X176022000Y-101854000D03*
D26*
G04 #@! TO.P,TR1,3*
G04 #@! TO.N,Net-(R35-Pad1)*
X176022000Y-99314000D03*
G04 #@! TO.P,TR1,2*
G04 #@! TO.N,Net-(C14-Pad2)*
X174752000Y-100584000D03*
G04 #@! TD*
G04 #@! TO.P,Q6,2*
G04 #@! TO.N,Net-(Q6-Pad2)*
X153162000Y-62484000D03*
G04 #@! TO.P,Q6,3*
G04 #@! TO.N,Net-(C3-Pad2)*
X151892000Y-63754000D03*
D27*
G04 #@! TO.P,Q6,1*
G04 #@! TO.N,Net-(C12-Pad2)*
X151892000Y-61214000D03*
G04 #@! TD*
D28*
G04 #@! TO.P,RG1,2*
G04 #@! TO.N,Net-(R30-Pad2)*
X149352000Y-108204000D03*
G04 #@! TO.P,RG1,3*
G04 #@! TO.N,Net-(R17-Pad2)*
X149352000Y-106934000D03*
D29*
G04 #@! TO.P,RG1,1*
G04 #@! TO.N,N/C*
X149352000Y-109474000D03*
G04 #@! TD*
D19*
G04 #@! TO.P,R42,1*
G04 #@! TO.N,VAA*
X150368000Y-84328000D03*
D30*
G04 #@! TO.P,R42,2*
G04 #@! TO.N,Net-(C5-Pad1)*
X140208000Y-84328000D03*
G04 #@! TD*
G04 #@! TO.P,R12,2*
G04 #@! TO.N,Net-(C4-Pad1)*
X80010000Y-132080000D03*
D19*
G04 #@! TO.P,R12,1*
G04 #@! TO.N,Net-(D7-Pad2)*
X69850000Y-132080000D03*
G04 #@! TD*
G04 #@! TO.P,R11,1*
G04 #@! TO.N,Net-(R10-Pad2)*
X113030000Y-112268000D03*
D30*
G04 #@! TO.P,R11,2*
G04 #@! TO.N,Net-(R11-Pad2)*
X113030000Y-102108000D03*
G04 #@! TD*
G04 #@! TO.P,R10,2*
G04 #@! TO.N,Net-(R10-Pad2)*
X92710000Y-128270000D03*
D19*
G04 #@! TO.P,R10,1*
G04 #@! TO.N,Net-(R10-Pad1)*
X102870000Y-128270000D03*
G04 #@! TD*
G04 #@! TO.P,R14,1*
G04 #@! TO.N,Net-(R10-Pad1)*
X102870000Y-132080000D03*
D30*
G04 #@! TO.P,R14,2*
G04 #@! TO.N,Net-(C4-Pad1)*
X92710000Y-132080000D03*
G04 #@! TD*
G04 #@! TO.P,R9,2*
G04 #@! TO.N,Net-(C1-Pad1)*
X183134000Y-94234000D03*
D19*
G04 #@! TO.P,R9,1*
G04 #@! TO.N,Net-(C16-Pad1)*
X183134000Y-84074000D03*
G04 #@! TD*
G04 #@! TO.P,R8,1*
G04 #@! TO.N,NFB*
X154940000Y-75946000D03*
D30*
G04 #@! TO.P,R8,2*
G04 #@! TO.N,Net-(R40-Pad1)*
X165100000Y-75946000D03*
G04 #@! TD*
G04 #@! TO.P,R7,2*
G04 #@! TO.N,Net-(C12-Pad2)*
X175514000Y-35306000D03*
D19*
G04 #@! TO.P,R7,1*
G04 #@! TO.N,Net-(R7-Pad1)*
X175514000Y-45466000D03*
G04 #@! TD*
G04 #@! TO.P,R6,1*
G04 #@! TO.N,Net-(R6-Pad1)*
X181102000Y-45720000D03*
D30*
G04 #@! TO.P,R6,2*
G04 #@! TO.N,Net-(C12-Pad2)*
X181102000Y-35560000D03*
G04 #@! TD*
G04 #@! TO.P,R5,2*
G04 #@! TO.N,Net-(C14-Pad2)*
X170180000Y-105918000D03*
D19*
G04 #@! TO.P,R5,1*
G04 #@! TO.N,Net-(R49-Pad1)*
X170180000Y-116078000D03*
G04 #@! TD*
G04 #@! TO.P,R4,1*
G04 #@! TO.N,VAA*
X176276000Y-116078000D03*
D30*
G04 #@! TO.P,R4,2*
G04 #@! TO.N,Net-(R4-Pad2)*
X176276000Y-105918000D03*
G04 #@! TD*
G04 #@! TO.P,R2,2*
G04 #@! TO.N,Net-(R2-Pad2)*
X179324000Y-84074000D03*
D19*
G04 #@! TO.P,R2,1*
G04 #@! TO.N,Net-(R2-Pad1)*
X179324000Y-94234000D03*
G04 #@! TD*
G04 #@! TO.P,R1,1*
G04 #@! TO.N,Net-(C16-Pad1)*
X185166000Y-75184000D03*
D30*
G04 #@! TO.P,R1,2*
G04 #@! TO.N,Net-(C15-Pad2)*
X185166000Y-65024000D03*
G04 #@! TD*
G04 #@! TO.P,R34,2*
G04 #@! TO.N,Net-(Q6-Pad2)*
X152146000Y-48260000D03*
D19*
G04 #@! TO.P,R34,1*
G04 #@! TO.N,Net-(R34-Pad1)*
X141986000Y-48260000D03*
G04 #@! TD*
G04 #@! TO.P,R15,1*
G04 #@! TO.N,Net-(C4-Pad1)*
X132334000Y-117348000D03*
D30*
G04 #@! TO.P,R15,2*
G04 #@! TO.N,Net-(R15-Pad2)*
X122174000Y-117348000D03*
G04 #@! TD*
G04 #@! TO.P,R35,2*
G04 #@! TO.N,Net-(R2-Pad1)*
X175514000Y-84074000D03*
D19*
G04 #@! TO.P,R35,1*
G04 #@! TO.N,Net-(R35-Pad1)*
X175514000Y-94234000D03*
G04 #@! TD*
G04 #@! TO.P,R36,1*
G04 #@! TO.N,Net-(R36-Pad1)*
X140208000Y-60452000D03*
D30*
G04 #@! TO.P,R36,2*
G04 #@! TO.N,Net-(C12-Pad2)*
X140208000Y-50292000D03*
G04 #@! TD*
G04 #@! TO.P,R37,2*
G04 #@! TO.N,Net-(C12-Pad2)*
X135890000Y-47848118D03*
D19*
G04 #@! TO.P,R37,1*
G04 #@! TO.N,VCC*
X135890000Y-37688118D03*
G04 #@! TD*
G04 #@! TO.P,R38,1*
G04 #@! TO.N,Net-(R34-Pad1)*
X139282124Y-37688118D03*
D30*
G04 #@! TO.P,R38,2*
G04 #@! TO.N,Net-(C12-Pad2)*
X139282124Y-47848118D03*
G04 #@! TD*
G04 #@! TO.P,R39,2*
G04 #@! TO.N,GND*
X168656000Y-120142000D03*
D19*
G04 #@! TO.P,R39,1*
G04 #@! TO.N,Net-(C11-Pad2)*
X168656000Y-130302000D03*
G04 #@! TD*
G04 #@! TO.P,R40,1*
G04 #@! TO.N,Net-(R40-Pad1)*
X169926000Y-74930000D03*
D30*
G04 #@! TO.P,R40,2*
G04 #@! TO.N,Net-(C2-Pad1)*
X169926000Y-64770000D03*
G04 #@! TD*
G04 #@! TO.P,R3,2*
G04 #@! TO.N,Net-(R3-Pad2)*
X171704000Y-84074000D03*
D19*
G04 #@! TO.P,R3,1*
G04 #@! TO.N,Net-(R2-Pad1)*
X171704000Y-94234000D03*
G04 #@! TD*
G04 #@! TO.P,R13,1*
G04 #@! TO.N,VAA*
X160274000Y-133604000D03*
D30*
G04 #@! TO.P,R13,2*
G04 #@! TO.N,Net-(R13-Pad2)*
X150114000Y-133604000D03*
G04 #@! TD*
G04 #@! TO.P,R43,2*
G04 #@! TO.N,Net-(R30-Pad2)*
X150368000Y-87884000D03*
D19*
G04 #@! TO.P,R43,1*
G04 #@! TO.N,Net-(C5-Pad1)*
X140208000Y-87884000D03*
G04 #@! TD*
G04 #@! TO.P,R44,1*
G04 #@! TO.N,Net-(D9-Pad2)*
X141986000Y-101600000D03*
D30*
G04 #@! TO.P,R44,2*
G04 #@! TO.N,Net-(D5-Pad2)*
X141986000Y-91440000D03*
G04 #@! TD*
G04 #@! TO.P,R45,2*
G04 #@! TO.N,VCC*
X130556000Y-37592000D03*
D19*
G04 #@! TO.P,R45,1*
G04 #@! TO.N,Net-(R45-Pad1)*
X130556000Y-47752000D03*
G04 #@! TD*
G04 #@! TO.P,R46,1*
G04 #@! TO.N,Net-(C15-Pad2)*
X187960000Y-59690000D03*
D30*
G04 #@! TO.P,R46,2*
G04 #@! TO.N,GND*
X187960000Y-49530000D03*
G04 #@! TD*
G04 #@! TO.P,R47,2*
G04 #@! TO.N,Net-(C15-Pad1)*
X176784000Y-65024000D03*
D19*
G04 #@! TO.P,R47,1*
G04 #@! TO.N,Net-(R40-Pad1)*
X176784000Y-75184000D03*
G04 #@! TD*
G04 #@! TO.P,R48,1*
G04 #@! TO.N,Net-(C1-Pad2)*
X190754000Y-88900000D03*
D30*
G04 #@! TO.P,R48,2*
G04 #@! TO.N,GND*
X190754000Y-78740000D03*
G04 #@! TD*
G04 #@! TO.P,R49,2*
G04 #@! TO.N,Net-(C11-Pad2)*
X165100000Y-130302000D03*
D19*
G04 #@! TO.P,R49,1*
G04 #@! TO.N,Net-(R49-Pad1)*
X165100000Y-120142000D03*
G04 #@! TD*
G04 #@! TO.P,R18,1*
G04 #@! TO.N,NFB*
X78740000Y-71120000D03*
D30*
G04 #@! TO.P,R18,2*
G04 #@! TO.N,Net-(C6-Pad1)*
X88900000Y-71120000D03*
G04 #@! TD*
G04 #@! TO.P,R19,2*
G04 #@! TO.N,NFB*
X73660000Y-77470000D03*
D19*
G04 #@! TO.P,R19,1*
G04 #@! TO.N,Net-(J3-Pad1)*
X73660000Y-87630000D03*
G04 #@! TD*
G04 #@! TO.P,R41,1*
G04 #@! TO.N,Net-(R13-Pad2)*
X155194000Y-130302000D03*
D30*
G04 #@! TO.P,R41,2*
G04 #@! TO.N,Net-(R41-Pad2)*
X155194000Y-120142000D03*
G04 #@! TD*
G04 #@! TO.P,R21,2*
G04 #@! TO.N,Net-(R21-Pad2)*
X156972000Y-81026000D03*
D19*
G04 #@! TO.P,R21,1*
G04 #@! TO.N,VAA*
X156972000Y-91186000D03*
G04 #@! TD*
G04 #@! TO.P,R23,1*
G04 #@! TO.N,Net-(D7-Pad1)*
X160528000Y-91186000D03*
D30*
G04 #@! TO.P,R23,2*
G04 #@! TO.N,Net-(R21-Pad2)*
X160528000Y-81026000D03*
G04 #@! TD*
G04 #@! TO.P,R24,2*
G04 #@! TO.N,Net-(C3-Pad1)*
X133096000Y-53086000D03*
D19*
G04 #@! TO.P,R24,1*
G04 #@! TO.N,Net-(D8-Pad1)*
X122936000Y-53086000D03*
G04 #@! TD*
G04 #@! TO.P,R25,1*
G04 #@! TO.N,VAA*
X60960000Y-127000000D03*
D30*
G04 #@! TO.P,R25,2*
G04 #@! TO.N,Net-(R25-Pad2)*
X71120000Y-127000000D03*
G04 #@! TD*
G04 #@! TO.P,R26,2*
G04 #@! TO.N,VCC*
X62992000Y-42164000D03*
D19*
G04 #@! TO.P,R26,1*
G04 #@! TO.N,Net-(R26-Pad1)*
X73152000Y-42164000D03*
G04 #@! TD*
G04 #@! TO.P,R27,1*
G04 #@! TO.N,Net-(R17-Pad2)*
X149352000Y-101600000D03*
D30*
G04 #@! TO.P,R27,2*
G04 #@! TO.N,Net-(R27-Pad2)*
X149352000Y-91440000D03*
G04 #@! TD*
G04 #@! TO.P,R29,2*
G04 #@! TO.N,VCC*
X135890000Y-34544000D03*
D19*
G04 #@! TO.P,R29,1*
G04 #@! TO.N,Net-(R27-Pad2)*
X146050000Y-34544000D03*
G04 #@! TD*
G04 #@! TO.P,R31,1*
G04 #@! TO.N,Net-(R30-Pad1)*
X145796000Y-101600000D03*
D30*
G04 #@! TO.P,R31,2*
G04 #@! TO.N,Net-(R17-Pad2)*
X145796000Y-91440000D03*
G04 #@! TD*
G04 #@! TO.P,R32,2*
G04 #@! TO.N,Net-(C3-Pad1)*
X107950000Y-86360000D03*
D19*
G04 #@! TO.P,R32,1*
G04 #@! TO.N,Net-(R32-Pad1)*
X118110000Y-86360000D03*
G04 #@! TD*
G04 #@! TO.P,R33,1*
G04 #@! TO.N,Net-(D9-Pad1)*
X138176000Y-101600000D03*
D30*
G04 #@! TO.P,R33,2*
G04 #@! TO.N,Net-(R32-Pad1)*
X138176000Y-91440000D03*
G04 #@! TD*
G04 #@! TO.P,R30,2*
G04 #@! TO.N,Net-(R30-Pad2)*
X153162000Y-91186000D03*
D19*
G04 #@! TO.P,R30,1*
G04 #@! TO.N,Net-(R30-Pad1)*
X153162000Y-101346000D03*
G04 #@! TD*
G04 #@! TO.P,R20,1*
G04 #@! TO.N,Net-(D7-Pad1)*
X132334000Y-113538000D03*
D30*
G04 #@! TO.P,R20,2*
G04 #@! TO.N,Net-(R20-Pad2)*
X122174000Y-113538000D03*
G04 #@! TD*
D15*
G04 #@! TO.P,R17,1*
G04 #@! TO.N,NFB*
X64770000Y-78740000D03*
D14*
G04 #@! TO.P,R17,2*
G04 #@! TO.N,Net-(R17-Pad2)*
X64770000Y-48260000D03*
G04 #@! TD*
D10*
G04 #@! TO.P,HS1,1*
G04 #@! TO.N,N/C*
X76200000Y-57150000D03*
X101600000Y-57150000D03*
G04 #@! TD*
D25*
G04 #@! TO.P,TR8,1*
G04 #@! TO.N,Net-(D8-Pad1)*
X91440000Y-59436000D03*
D24*
G04 #@! TO.P,TR8,2*
G04 #@! TO.N,Net-(R26-Pad1)*
X88900000Y-59436000D03*
G04 #@! TO.P,TR8,3*
G04 #@! TO.N,Net-(R17-Pad2)*
X86360000Y-59436000D03*
G04 #@! TD*
D21*
G04 #@! TO.P,D3,1*
G04 #@! TO.N,Net-(C2-Pad1)*
X170180000Y-59690000D03*
D22*
G04 #@! TO.P,D3,2*
G04 #@! TO.N,Net-(D3-Pad2)*
X170180000Y-52070000D03*
G04 #@! TD*
D11*
G04 #@! TO.P,JL1,1*
G04 #@! TO.N,Net-(JL1-Pad1)*
X56896000Y-141986000D03*
G04 #@! TD*
G04 #@! TO.P,JL2,1*
G04 #@! TO.N,Net-(JL2-Pad1)*
X56134000Y-33782000D03*
G04 #@! TD*
G04 #@! TO.P,TP1,1*
G04 #@! TO.N,Net-(TP1-Pad1)*
X318516000Y-68580000D03*
G04 #@! TD*
G04 #@! TO.P,TP2,1*
G04 #@! TO.N,Net-(TP2-Pad1)*
X319278000Y-57658000D03*
G04 #@! TD*
G04 #@! TO.P,TP3,1*
G04 #@! TO.N,Net-(TP3-Pad1)*
X316230000Y-64516000D03*
G04 #@! TD*
G04 #@! TO.P,TP4,1*
G04 #@! TO.N,Net-(TP4-Pad1)*
X314706000Y-69596000D03*
G04 #@! TD*
G04 #@! TO.P,TP5,1*
G04 #@! TO.N,Net-(TP5-Pad1)*
X320802000Y-73914000D03*
G04 #@! TD*
G04 #@! TO.P,TP6,1*
G04 #@! TO.N,Net-(TP6-Pad1)*
X113792000Y-63246000D03*
G04 #@! TD*
D19*
G04 #@! TO.P,R22,1*
G04 #@! TO.N,Net-(R11-Pad2)*
X126238000Y-100076000D03*
D30*
G04 #@! TO.P,R22,2*
G04 #@! TO.N,Net-(PR1-Pad1)*
X126238000Y-110236000D03*
G04 #@! TD*
D31*
G04 #@! TO.P,SW1,1*
G04 #@! TO.N,VAA*
X124206000Y-130302000D03*
D32*
G04 #@! TO.P,SW1,2*
G04 #@! TO.N,Net-(D9-Pad2)*
X121666000Y-130302000D03*
G04 #@! TO.P,SW1,3*
G04 #@! TO.N,N/C*
X119126000Y-130302000D03*
G04 #@! TO.P,SW1,4*
X119126000Y-132842000D03*
G04 #@! TO.P,SW1,5*
X121666000Y-132842000D03*
G04 #@! TO.P,SW1,6*
X124206000Y-132842000D03*
G04 #@! TD*
D33*
G04 #@! TO.P,PR1,3*
G04 #@! TO.N,Net-(C3-Pad1)*
X114634000Y-99314000D03*
G04 #@! TO.P,PR1,2*
X117134000Y-89314000D03*
G04 #@! TO.P,PR1,1*
G04 #@! TO.N,Net-(PR1-Pad1)*
X119634000Y-99314000D03*
G04 #@! TD*
D34*
G04 #@! TO.N,NFB*
X113538000Y-77470000D03*
X98044000Y-77470000D03*
G04 #@! TO.N,Net-(D7-Pad1)*
X162560000Y-93726000D03*
X162560000Y-78740000D03*
G04 #@! TO.N,Net-(C3-Pad1)*
X122682000Y-88900000D03*
X122682000Y-70358000D03*
G04 #@! TO.N,Net-(R27-Pad2)*
X146812000Y-80518000D03*
X146812000Y-67818000D03*
X151130000Y-45212000D03*
X142748000Y-45212000D03*
G04 #@! TO.N,Net-(D8-Pad1)*
X119380000Y-53086000D03*
X108458000Y-53086000D03*
G04 #@! TO.N,Net-(R49-Pad1)*
X145796000Y-129540000D03*
X162052000Y-118364000D03*
D35*
G04 #@! TO.N,GND*
X110744000Y-128270000D03*
X118618000Y-68072000D03*
D36*
G04 #@! TO.N,Net-(D9-Pad2)*
X138176000Y-126238000D03*
X138176000Y-118872000D03*
D34*
G04 #@! TO.N,Net-(D5-Pad2)*
X127254000Y-67564000D03*
X127254000Y-81026000D03*
G04 #@! TO.N,Net-(R15-Pad2)*
X102362000Y-107188000D03*
X107950000Y-108458000D03*
G04 #@! TO.N,Net-(R10-Pad1)*
X140462000Y-132588000D03*
X126492000Y-132588000D03*
G04 #@! TO.N,Net-(C3-Pad2)*
X178054000Y-80772000D03*
X181102000Y-65786000D03*
X151892000Y-66548000D03*
G04 #@! TO.N,Net-(TR10-Pad2)*
X172720000Y-75692000D03*
X178308000Y-54356000D03*
X184912000Y-54356000D03*
X172720000Y-67818000D03*
G04 #@! TO.N,Net-(TR15-Pad1)*
X130556000Y-66040000D03*
X130556000Y-91240894D03*
G04 #@! TD*
D37*
G04 #@! TO.N,NFB*
X113538000Y-77470000D02*
X98044000Y-77470000D01*
G04 #@! TO.N,Net-(D7-Pad1)*
X162560000Y-78740000D02*
X162560000Y-93726000D01*
G04 #@! TO.N,Net-(C3-Pad1)*
X122682000Y-70358000D02*
X122682000Y-88900000D01*
G04 #@! TO.N,Net-(R27-Pad2)*
X146812000Y-79810894D02*
X146812000Y-67818000D01*
X146812000Y-80518000D02*
X146812000Y-79810894D01*
X151130000Y-45212000D02*
X142748000Y-45212000D01*
G04 #@! TO.N,Net-(D8-Pad1)*
X119380000Y-53086000D02*
X108458000Y-53086000D01*
G04 #@! TO.N,Net-(R49-Pad1)*
X150896002Y-129540000D02*
X162052000Y-118384002D01*
X145796000Y-129540000D02*
X150896002Y-129540000D01*
D38*
G04 #@! TO.N,GND*
X110529999Y-125934679D02*
X110529999Y-83780001D01*
X110744000Y-128270000D02*
X110744000Y-126148680D01*
X110744000Y-126148680D02*
X110529999Y-125934679D01*
X110529999Y-83780001D02*
X111037999Y-83780001D01*
X111037999Y-83780001D02*
X116078000Y-78740000D01*
X116078000Y-78740000D02*
X116078000Y-77724000D01*
X116078000Y-77724000D02*
X118618000Y-68072000D01*
D39*
G04 #@! TO.N,Net-(D9-Pad2)*
X138176000Y-118872000D02*
X138176000Y-126238000D01*
D37*
G04 #@! TO.N,Net-(D5-Pad2)*
X127254000Y-67564000D02*
X127254000Y-80010000D01*
X127254000Y-80010000D02*
X127254000Y-81026000D01*
G04 #@! TO.N,Net-(R15-Pad2)*
X103632000Y-108458000D02*
X102362000Y-107188000D01*
X107950000Y-108458000D02*
X103632000Y-108458000D01*
G04 #@! TO.N,Net-(R10-Pad1)*
X140462000Y-132588000D02*
X126492000Y-132588000D01*
G04 #@! TO.N,Net-(C3-Pad2)*
X181102000Y-66493106D02*
X181102000Y-65786000D01*
X178054000Y-76134002D02*
X181102000Y-73086002D01*
X178054000Y-80772000D02*
X178054000Y-76134002D01*
X181102000Y-67310000D02*
X181102000Y-66493106D01*
X151892000Y-66548000D02*
X151892000Y-66548000D01*
X152599106Y-66548000D02*
X151892000Y-66548000D01*
X173147070Y-66548000D02*
X152599106Y-66548000D01*
X181102000Y-67818000D02*
X174417070Y-67818000D01*
X181102000Y-67818000D02*
X181102000Y-67310000D01*
X174417070Y-67818000D02*
X173147070Y-66548000D01*
X181102000Y-73086002D02*
X181102000Y-67818000D01*
G04 #@! TO.N,Net-(TR10-Pad2)*
X184912000Y-54356000D02*
X178308000Y-54356000D01*
X172720000Y-75692000D02*
X172720000Y-67818000D01*
X172720000Y-67818000D02*
X172720000Y-67818000D01*
G04 #@! TO.N,Net-(TR15-Pad1)*
X130556000Y-91240894D02*
X130556000Y-91240894D01*
X130556000Y-91240894D02*
X130556000Y-66802000D01*
X130556000Y-66040000D02*
X130556000Y-66802000D01*
G04 #@! TD*
M02*
