M48
;DRILL file {KiCad 5.0.1+dfsg1-3} date Fri 08 Feb 2019 02:38:33 UTC
;FORMAT={-:-/ absolute / inch / decimal}
FMAT,2
INCH,TZ
T1C0.0197
T2C0.0295
T3C0.0315
T4C0.0320
T5C0.0394
T6C0.0433
T7C0.0472
T8C0.0512
T9C0.0591
T10C0.1378
T11C0.1575
%
G90
G05
M72
T1
X3.86Y-3.05
X4.03Y-4.22
X4.25Y-4.27
X4.27Y-2.09
X4.36Y-5.05
X4.47Y-3.05
X4.67Y-2.68
X4.7Y-2.09
X4.83Y-2.77
X4.83Y-3.5
X4.98Y-5.22
X5.01Y-2.66
X5.01Y-3.19
X5.14Y-2.6
X5.14Y-3.5922
X5.44Y-4.68
X5.44Y-4.97
X5.53Y-5.22
X5.62Y-1.78
X5.74Y-5.1
X5.78Y-2.67
X5.78Y-3.17
X5.95Y-1.78
X5.98Y-2.62
X6.38Y-4.66
X6.4Y-3.1
X6.4Y-3.69
X6.8Y-2.67
X6.8Y-2.98
X7.01Y-3.18
X7.02Y-2.14
X7.13Y-2.59
X7.28Y-2.14
T2
X5.91Y-3.06
X5.91Y-3.16
X5.96Y-3.11
X5.98Y-2.41
X5.98Y-2.51
X6.03Y-2.46
X5.21Y-4.13
X5.21Y-4.23
X5.26Y-4.18
X7.13Y-1.94
X7.13Y-2.04
X7.18Y-1.99
X5.86Y-4.98
X5.91Y-4.93
X5.91Y-5.03
X5.69Y-2.08
X5.69Y-2.18
X5.74Y-2.13
X5.14Y-2.4
X5.14Y-2.5
X5.19Y-2.45
X4.7Y-4.06
X4.7Y-4.16
X4.75Y-4.11
X6.88Y-3.96
X6.93Y-3.91
X6.93Y-4.01
X5.61Y-3.06
X5.61Y-3.16
X5.66Y-3.11
X7.13Y-3.08
X7.13Y-3.18
X7.18Y-3.13
X6.75Y-3.13
X6.8Y-3.08
X6.8Y-3.18
X4.15Y-4.1
X4.2Y-4.05
X4.2Y-4.15
X4.99Y-3.67
X4.99Y-3.77
X5.04Y-3.72
X6.91Y-1.94
X6.91Y-2.04
X6.96Y-1.99
X5.68Y-2.46
X5.68Y-2.56
X5.73Y-2.51
X5.88Y-4.21
X5.88Y-4.26
X5.88Y-4.31
X6.26Y-4.91
X6.31Y-4.86
X6.31Y-4.96
T3
X2.75Y-5.2
X3.15Y-5.2
X5.59Y-1.9
X5.99Y-1.9
X4.97Y-3.94
X4.97Y-4.34
X5.6531Y-2.32
X5.85Y-2.32
X5.4835Y-1.4838
X5.4835Y-1.8838
X6.1Y-2.99
X6.5Y-2.99
X5.52Y-3.46
X5.92Y-3.46
X5.88Y-3.6
X5.88Y-4.
X7.41Y-1.4063
X7.41Y-1.8
X7.21Y-4.1763
X7.21Y-4.57
X6.7Y-4.17
X6.7Y-4.57
X7.51Y-3.1
X7.51Y-3.5
X6.18Y-3.19
X6.18Y-3.59
X6.91Y-3.31
X6.91Y-3.71
X7.37Y-3.1131
X7.37Y-3.31
X4.84Y-2.09
X5.24Y-2.09
X6.03Y-3.59
X6.03Y-3.99
X4.52Y-1.5063
X4.52Y-1.9
X5.44Y-3.6
X5.44Y-4.
X7.25Y-3.95
X7.4469Y-3.95
X3.1Y-2.8
X3.5Y-2.8
X5.52Y-3.32
X5.92Y-3.32
X6.96Y-2.56
X6.96Y-2.96
X3.65Y-2.8
X4.0437Y-2.8
X2.48Y-1.66
X2.88Y-1.66
X6.5Y-4.73
X6.5Y-5.13
X6.94Y-4.17
X6.94Y-4.57
X6.36Y-4.27
X6.5569Y-4.27
X6.69Y-2.55
X6.69Y-2.95
X2.4Y-5.
X2.8Y-5.
X7.13Y-1.4
X7.13Y-1.8
X4.81Y-4.47
X5.21Y-4.47
X5.52Y-1.98
X5.52Y-2.38
X5.3Y-3.0731
X5.3Y-3.27
X2.9Y-3.05
X2.9Y-3.45
X3.65Y-5.05
X4.05Y-5.05
X6.11Y-4.73
X6.11Y-5.13
X7.06Y-3.31
X7.06Y-3.71
X7.4Y-1.95
X7.4Y-2.35
X6.32Y-3.19
X6.32Y-3.59
X7.29Y-2.56
X7.29Y-2.96
X5.34Y-5.28
X5.34Y-5.4769
X6.76Y-3.31
X6.76Y-3.71
X6.91Y-1.39
X6.91Y-1.79
X5.74Y-3.6
X5.74Y-4.
X3.4Y-5.0031
X3.4Y-5.2
X5.35Y-1.36
X5.75Y-1.36
X4.81Y-4.62
X5.21Y-4.62
X5.35Y-1.4838
X5.35Y-1.8838
X7.21Y-3.31
X7.21Y-3.71
X3.65Y-5.2
X4.05Y-5.2
X4.25Y-3.4
X4.65Y-3.4
X5.14Y-1.48
X5.14Y-1.88
X4.45Y-4.02
X4.45Y-4.42
X5.59Y-3.6
X5.59Y-4.
X5.91Y-5.26
X6.31Y-5.26
X6.64Y-4.73
X6.64Y-5.13
X7.02Y-2.33
X7.2169Y-2.33
T4
X4.69Y-5.13
X4.69Y-5.23
X4.79Y-5.13
X4.79Y-5.23
X4.89Y-5.13
X4.89Y-5.23
T5
X4.14Y-1.51
X4.14Y-1.7069
X3.4Y-4.75
X3.5Y-4.75
X3.6Y-4.75
X6.37Y-2.55
X6.37Y-2.7469
X4.36Y-5.2831
X4.36Y-5.48
X3.4Y-4.44
X3.5Y-4.44
X3.6Y-4.44
X3.4Y-2.34
X3.5Y-2.34
X3.6Y-2.34
T6
X6.7Y-1.55
X6.7Y-1.85
X4.27Y-2.63
X4.27Y-2.93
X4.96Y-1.48
X4.96Y-1.78
X6.55Y-1.55
X6.55Y-1.85
X6.7Y-2.05
X6.7Y-2.35
X4.96Y-2.24
X5.26Y-2.24
X5.44Y-4.14
X5.44Y-4.44
X6.48Y-3.2
X6.48Y-3.5
X6.55Y-2.05
X6.55Y-2.35
T7
X2.55Y-3.4
X2.55Y-4.6
X3.3Y-3.05
X3.3Y-4.05
X2.55Y-1.9
X2.55Y-3.1
X6.1Y-1.3731
X6.1Y-1.57
T8
X12.45Y-2.54
X12.54Y-2.7
X4.48Y-2.49
X12.63Y-2.91
X7.5Y-3.68
X4.72Y-2.92
X2.24Y-5.59
X12.57Y-2.27
X1.48Y-4.26
X1.784Y-3.956
X3.75Y-4.05
X4.5131Y-3.91
X4.6116Y-3.5163
X4.71Y-3.91
X12.39Y-2.74
X2.21Y-1.33
X7.49Y-2.95
X1.4275Y-2.198
X1.7315Y-2.502
T9
X2.5602Y-5.6
X3.45Y-5.6
X2.5202Y-1.33
X3.41Y-1.33
T10
X3.Y-2.25
X4.Y-2.25
X3.Y-4.6
X4.Y-4.6
T11
X1.1612Y-3.6378
X2.002Y-4.4785
X1.1093Y-2.8207
X1.95Y-1.98
T0
M30
