M48
; DRILL file {KiCad 5.1.6-c6e7f7d~87~ubuntu18.04.1} date Fri Apr  9 12:13:02 2021
; FORMAT={-:-/ absolute / metric / decimal}
; #@! TF.CreationDate,2021-04-09T12:13:02+12:00
; #@! TF.GenerationSoftware,Kicad,Pcbnew,5.1.6-c6e7f7d~87~ubuntu18.04.1
; #@! TF.FileFunction,Plated,1,2,PTH
FMAT,2
METRIC
T1C0.300
T2C0.600
T3C1.000
T4C1.190
T5C1.300
%
G90
G05
T1
X105.54Y-90.713
X105.54Y-91.913
X106.64Y-90.713
X106.64Y-91.913
X107.94Y-90.713
X107.94Y-91.913
X109.14Y-90.713
X109.14Y-91.913
X112.582Y-140.63
X112.582Y-141.83
X112.582Y-143.13
X112.582Y-144.23
X113.782Y-140.63
X113.782Y-141.83
X113.782Y-143.13
X113.782Y-144.23
X112.43Y-106.506
X112.43Y-107.706
X112.43Y-109.006
X112.43Y-110.106
X113.63Y-106.506
X113.63Y-107.706
X113.63Y-109.006
X113.63Y-110.106
T2
X38.481Y-45.593
X38.481Y-57.912
X38.481Y-70.231
X38.481Y-82.55
X38.481Y-94.869
X38.481Y-107.188
X38.481Y-119.507
X38.481Y-131.826
X38.481Y-144.145
X38.481Y-156.464
X38.481Y-168.783
X40.132Y-29.083
X40.132Y-35.56
X40.132Y-41.402
X40.132Y-47.879
X40.132Y-53.721
X40.132Y-60.198
X40.132Y-66.04
X40.132Y-72.517
X40.132Y-78.359
X40.132Y-84.836
X40.132Y-90.678
X40.132Y-97.155
X40.132Y-102.997
X40.132Y-109.474
X40.132Y-115.316
X40.132Y-121.793
X40.132Y-127.635
X40.132Y-134.112
X40.132Y-139.954
X40.132Y-146.431
X40.132Y-152.273
X40.132Y-158.75
X41.884Y-37.947
X41.884Y-50.267
X41.884Y-62.585
X41.884Y-74.904
X41.884Y-87.224
X41.884Y-99.542
X41.884Y-111.861
X41.884Y-124.18
X41.884Y-136.499
X41.884Y-148.819
X41.884Y-161.137
X41.91Y-27.432
X43.942Y-26.162
X45.466Y-35.306
X45.466Y-47.625
X45.466Y-59.944
X45.466Y-72.263
X45.466Y-84.582
X45.466Y-96.901
X45.466Y-109.22
X45.466Y-121.539
X45.466Y-133.858
X45.466Y-146.177
X45.466Y-158.496
X45.466Y-170.815
X45.593Y-29.083
X45.593Y-41.402
X45.593Y-53.721
X45.593Y-66.04
X45.593Y-78.359
X45.593Y-90.678
X45.593Y-102.997
X45.593Y-115.316
X45.593Y-127.635
X45.593Y-139.954
X45.593Y-152.273
X45.593Y-164.592
X49.514Y-35.671
X49.514Y-47.99
X49.514Y-60.309
X49.514Y-72.628
X49.514Y-84.947
X49.514Y-97.266
X49.514Y-109.585
X49.514Y-121.904
X49.514Y-134.223
X49.514Y-146.542
X49.514Y-158.861
X49.514Y-171.18
X51.705Y-28.591
X51.705Y-40.91
X51.705Y-53.229
X51.705Y-65.548
X51.705Y-77.867
X51.705Y-90.186
X51.705Y-102.505
X51.705Y-114.824
X51.705Y-127.143
X51.705Y-139.462
X51.705Y-151.781
X51.705Y-164.1
X51.705Y-174.736
X53.705Y-35.671
X53.705Y-47.99
X53.705Y-60.309
X53.705Y-72.628
X53.705Y-84.947
X53.705Y-97.266
X53.705Y-109.585
X53.705Y-121.904
X53.705Y-134.223
X53.705Y-146.542
X53.705Y-158.861
X53.705Y-171.18
X53.705Y-176.546
X55.245Y-36.957
X55.245Y-49.276
X55.245Y-61.595
X55.245Y-73.914
X55.245Y-86.233
X55.245Y-98.552
X55.245Y-110.871
X55.245Y-123.19
X55.245Y-135.509
X55.245Y-147.828
X55.245Y-160.147
X55.245Y-172.466
X57.896Y-35.671
X57.896Y-47.99
X57.896Y-60.309
X57.896Y-72.628
X57.896Y-84.947
X57.896Y-97.266
X57.896Y-109.585
X57.896Y-121.904
X57.896Y-134.223
X57.896Y-146.542
X57.896Y-158.861
X57.896Y-171.18
X60.087Y-28.591
X60.087Y-40.91
X60.087Y-53.229
X60.087Y-65.548
X60.087Y-77.867
X60.087Y-90.186
X60.087Y-102.505
X60.087Y-114.824
X60.087Y-127.143
X60.087Y-139.462
X60.087Y-151.781
X60.087Y-164.1
X62.087Y-35.671
X62.087Y-47.99
X62.087Y-60.309
X62.087Y-72.628
X62.087Y-84.947
X62.087Y-97.266
X62.087Y-109.585
X62.087Y-121.904
X62.087Y-134.223
X62.087Y-146.542
X62.087Y-158.861
X62.087Y-171.18
X64.389Y-29.083
X64.389Y-41.402
X64.389Y-53.721
X64.389Y-66.04
X64.389Y-78.359
X64.389Y-90.678
X64.389Y-102.997
X64.389Y-115.316
X64.389Y-127.635
X64.389Y-139.954
X64.389Y-152.273
X64.389Y-164.592
X70.993Y-28.448
X70.993Y-40.767
X70.993Y-53.086
X70.993Y-65.405
X70.993Y-77.724
X70.993Y-90.043
X70.993Y-102.362
X70.993Y-114.681
X70.993Y-127.0
X70.993Y-139.319
X70.993Y-151.638
X70.993Y-163.957
X73.66Y-28.448
X73.66Y-40.767
X73.66Y-53.086
X73.66Y-65.405
X73.66Y-77.724
X73.66Y-90.043
X73.66Y-102.362
X73.66Y-114.681
X73.66Y-127.0
X73.66Y-139.319
X73.66Y-151.638
X73.66Y-163.957
X83.82Y-163.576
X86.36Y-74.168
X87.63Y-174.879
X90.043Y-26.162
X90.17Y-27.94
X91.44Y-52.07
X95.123Y-73.279
X95.504Y-168.148
X95.758Y-27.94
X95.758Y-70.358
X97.282Y-33.274
X121.158Y-43.434
X127.0Y-66.294
X129.159Y-76.2
T3
X89.027Y-132.08
X89.027Y-160.401
X90.424Y-176.657
X92.329Y-160.401
X95.631Y-163.576
X96.012Y-76.454
X119.38Y-173.101
X119.888Y-104.394
X123.698Y-165.1
X123.825Y-70.231
X107.569Y-63.5
X107.569Y-66.04
X107.569Y-68.58
X107.569Y-71.12
X104.902Y-34.036
X104.902Y-36.576
X105.029Y-46.482
X107.569Y-46.482
X110.109Y-46.482
X112.649Y-46.482
X105.156Y-41.529
X107.696Y-41.529
X114.173Y-51.308
X116.713Y-51.308
X85.09Y-31.496
X85.09Y-34.036
X85.09Y-36.576
X85.09Y-39.116
X85.09Y-41.656
X85.09Y-44.196
X85.09Y-46.736
X85.09Y-49.276
X85.09Y-51.816
X85.09Y-54.356
X85.09Y-56.896
X85.09Y-59.436
X85.09Y-61.976
X85.09Y-64.516
X85.09Y-67.056
X100.33Y-31.496
X100.33Y-34.036
X100.33Y-36.576
X100.33Y-39.116
X100.33Y-41.656
X100.33Y-44.196
X100.33Y-46.736
X100.33Y-49.276
X100.33Y-51.816
X100.33Y-54.356
X100.33Y-56.896
X100.33Y-59.436
X100.33Y-61.976
X100.33Y-64.516
X100.33Y-67.056
T4
X114.046Y-57.658
X116.586Y-57.658
X119.126Y-57.658
T5
X125.857Y-113.487
X119.38Y-168.656
X123.444Y-27.432
X109.22Y-168.783
X114.046Y-27.559
X119.38Y-177.165
X125.044Y-131.928
X112.776Y-41.656
X109.22Y-177.292
T0
M30
