%TF.GenerationSoftware,KiCad,Pcbnew,5.1.6-c6e7f7d~87~ubuntu18.04.1*%
%TF.CreationDate,2021-04-09T12:13:12+12:00*%
%TF.ProjectId,Volume Control 3 Mar18,566f6c75-6d65-4204-936f-6e74726f6c20,rev?*%
%TF.SameCoordinates,Original*%
%TF.FileFunction,Soldermask,Top*%
%TF.FilePolarity,Negative*%
%FSLAX46Y46*%
G04 Gerber Fmt 4.6, Leading zero omitted, Abs format (unit mm)*
G04 Created by KiCad (PCBNEW 5.1.6-c6e7f7d~87~ubuntu18.04.1) date 2021-04-09 12:13:12*
%MOMM*%
%LPD*%
G01*
G04 APERTURE LIST*
%ADD10R,1.650000X0.700000*%
%ADD11R,2.700000X3.200000*%
%ADD12R,1.000000X1.300000*%
%ADD13C,2.700000*%
%ADD14R,5.500000X3.000000*%
%ADD15R,1.700000X1.700000*%
%ADD16O,1.700000X1.700000*%
%ADD17R,1.000000X0.900000*%
%ADD18R,1.300000X1.000000*%
%ADD19R,2.800000X3.700000*%
%ADD20R,3.200000X2.700000*%
%ADD21R,0.700000X1.650000*%
%ADD22O,1.800000X1.800000*%
%ADD23R,1.800000X1.800000*%
%ADD24O,1.840000X2.290000*%
G04 APERTURE END LIST*
%TO.C,C15*%
G36*
G01*
X91232000Y-154459250D02*
X91232000Y-153896750D01*
G75*
G02*
X91475750Y-153653000I243750J0D01*
G01*
X91963250Y-153653000D01*
G75*
G02*
X92207000Y-153896750I0J-243750D01*
G01*
X92207000Y-154459250D01*
G75*
G02*
X91963250Y-154703000I-243750J0D01*
G01*
X91475750Y-154703000D01*
G75*
G02*
X91232000Y-154459250I0J243750D01*
G01*
G37*
G36*
G01*
X89657000Y-154459250D02*
X89657000Y-153896750D01*
G75*
G02*
X89900750Y-153653000I243750J0D01*
G01*
X90388250Y-153653000D01*
G75*
G02*
X90632000Y-153896750I0J-243750D01*
G01*
X90632000Y-154459250D01*
G75*
G02*
X90388250Y-154703000I-243750J0D01*
G01*
X89900750Y-154703000D01*
G75*
G02*
X89657000Y-154459250I0J243750D01*
G01*
G37*
%TD*%
%TO.C,VCC12*%
G36*
G01*
X123363000Y-100564000D02*
X123363000Y-101874000D01*
G75*
G02*
X123093000Y-102144000I-270000J0D01*
G01*
X122283000Y-102144000D01*
G75*
G02*
X122013000Y-101874000I0J270000D01*
G01*
X122013000Y-100564000D01*
G75*
G02*
X122283000Y-100294000I270000J0D01*
G01*
X123093000Y-100294000D01*
G75*
G02*
X123363000Y-100564000I0J-270000D01*
G01*
G37*
G36*
G01*
X120563000Y-100564000D02*
X120563000Y-101874000D01*
G75*
G02*
X120293000Y-102144000I-270000J0D01*
G01*
X119483000Y-102144000D01*
G75*
G02*
X119213000Y-101874000I0J270000D01*
G01*
X119213000Y-100564000D01*
G75*
G02*
X119483000Y-100294000I270000J0D01*
G01*
X120293000Y-100294000D01*
G75*
G02*
X120563000Y-100564000I0J-270000D01*
G01*
G37*
%TD*%
%TO.C,VCC8*%
G36*
G01*
X126637000Y-122099200D02*
X126637000Y-124179200D01*
G75*
G02*
X126377000Y-124439200I-260000J0D01*
G01*
X122797000Y-124439200D01*
G75*
G02*
X122537000Y-124179200I0J260000D01*
G01*
X122537000Y-122099200D01*
G75*
G02*
X122797000Y-121839200I260000J0D01*
G01*
X126377000Y-121839200D01*
G75*
G02*
X126637000Y-122099200I0J-260000D01*
G01*
G37*
G36*
G01*
X118637000Y-122099200D02*
X118637000Y-124179200D01*
G75*
G02*
X118377000Y-124439200I-260000J0D01*
G01*
X114797000Y-124439200D01*
G75*
G02*
X114537000Y-124179200I0J260000D01*
G01*
X114537000Y-122099200D01*
G75*
G02*
X114797000Y-121839200I260000J0D01*
G01*
X118377000Y-121839200D01*
G75*
G02*
X118637000Y-122099200I0J-260000D01*
G01*
G37*
%TD*%
%TO.C,VCC5*%
G36*
G01*
X109399150Y-137549100D02*
X110361650Y-137549100D01*
G75*
G02*
X110630400Y-137817850I0J-268750D01*
G01*
X110630400Y-138355350D01*
G75*
G02*
X110361650Y-138624100I-268750J0D01*
G01*
X109399150Y-138624100D01*
G75*
G02*
X109130400Y-138355350I0J268750D01*
G01*
X109130400Y-137817850D01*
G75*
G02*
X109399150Y-137549100I268750J0D01*
G01*
G37*
G36*
G01*
X109399150Y-135674100D02*
X110361650Y-135674100D01*
G75*
G02*
X110630400Y-135942850I0J-268750D01*
G01*
X110630400Y-136480350D01*
G75*
G02*
X110361650Y-136749100I-268750J0D01*
G01*
X109399150Y-136749100D01*
G75*
G02*
X109130400Y-136480350I0J268750D01*
G01*
X109130400Y-135942850D01*
G75*
G02*
X109399150Y-135674100I268750J0D01*
G01*
G37*
%TD*%
%TO.C,VCC3*%
G36*
G01*
X118568550Y-108403100D02*
X119531050Y-108403100D01*
G75*
G02*
X119799800Y-108671850I0J-268750D01*
G01*
X119799800Y-109209350D01*
G75*
G02*
X119531050Y-109478100I-268750J0D01*
G01*
X118568550Y-109478100D01*
G75*
G02*
X118299800Y-109209350I0J268750D01*
G01*
X118299800Y-108671850D01*
G75*
G02*
X118568550Y-108403100I268750J0D01*
G01*
G37*
G36*
G01*
X118568550Y-106528100D02*
X119531050Y-106528100D01*
G75*
G02*
X119799800Y-106796850I0J-268750D01*
G01*
X119799800Y-107334350D01*
G75*
G02*
X119531050Y-107603100I-268750J0D01*
G01*
X118568550Y-107603100D01*
G75*
G02*
X118299800Y-107334350I0J268750D01*
G01*
X118299800Y-106796850D01*
G75*
G02*
X118568550Y-106528100I268750J0D01*
G01*
G37*
%TD*%
%TO.C,VCR2*%
G36*
G01*
X109016300Y-117393400D02*
X109016300Y-116083400D01*
G75*
G02*
X109286300Y-115813400I270000J0D01*
G01*
X110096300Y-115813400D01*
G75*
G02*
X110366300Y-116083400I0J-270000D01*
G01*
X110366300Y-117393400D01*
G75*
G02*
X110096300Y-117663400I-270000J0D01*
G01*
X109286300Y-117663400D01*
G75*
G02*
X109016300Y-117393400I0J270000D01*
G01*
G37*
G36*
G01*
X106216300Y-117393400D02*
X106216300Y-116083400D01*
G75*
G02*
X106486300Y-115813400I270000J0D01*
G01*
X107296300Y-115813400D01*
G75*
G02*
X107566300Y-116083400I0J-270000D01*
G01*
X107566300Y-117393400D01*
G75*
G02*
X107296300Y-117663400I-270000J0D01*
G01*
X106486300Y-117663400D01*
G75*
G02*
X106216300Y-117393400I0J270000D01*
G01*
G37*
%TD*%
D10*
%TO.C,VCU1*%
X115730000Y-106400600D03*
X115730000Y-107670600D03*
X115730000Y-108940600D03*
X115730000Y-110210600D03*
X110330000Y-110210600D03*
X110330000Y-108940600D03*
X110330000Y-107670600D03*
X110330000Y-106400600D03*
D11*
X113030000Y-108305600D03*
%TD*%
%TO.C,VCR1*%
G36*
G01*
X106132000Y-120670000D02*
X106132000Y-119360000D01*
G75*
G02*
X106402000Y-119090000I270000J0D01*
G01*
X107212000Y-119090000D01*
G75*
G02*
X107482000Y-119360000I0J-270000D01*
G01*
X107482000Y-120670000D01*
G75*
G02*
X107212000Y-120940000I-270000J0D01*
G01*
X106402000Y-120940000D01*
G75*
G02*
X106132000Y-120670000I0J270000D01*
G01*
G37*
G36*
G01*
X103332000Y-120670000D02*
X103332000Y-119360000D01*
G75*
G02*
X103602000Y-119090000I270000J0D01*
G01*
X104412000Y-119090000D01*
G75*
G02*
X104682000Y-119360000I0J-270000D01*
G01*
X104682000Y-120670000D01*
G75*
G02*
X104412000Y-120940000I-270000J0D01*
G01*
X103602000Y-120940000D01*
G75*
G02*
X103332000Y-120670000I0J270000D01*
G01*
G37*
%TD*%
%TO.C,VCC4*%
G36*
G01*
X120117950Y-134899900D02*
X121080450Y-134899900D01*
G75*
G02*
X121349200Y-135168650I0J-268750D01*
G01*
X121349200Y-135706150D01*
G75*
G02*
X121080450Y-135974900I-268750J0D01*
G01*
X120117950Y-135974900D01*
G75*
G02*
X119849200Y-135706150I0J268750D01*
G01*
X119849200Y-135168650D01*
G75*
G02*
X120117950Y-134899900I268750J0D01*
G01*
G37*
G36*
G01*
X120117950Y-136774900D02*
X121080450Y-136774900D01*
G75*
G02*
X121349200Y-137043650I0J-268750D01*
G01*
X121349200Y-137581150D01*
G75*
G02*
X121080450Y-137849900I-268750J0D01*
G01*
X120117950Y-137849900D01*
G75*
G02*
X119849200Y-137581150I0J268750D01*
G01*
X119849200Y-137043650D01*
G75*
G02*
X120117950Y-136774900I268750J0D01*
G01*
G37*
%TD*%
D12*
%TO.C,VCD2*%
X116127800Y-137400800D03*
X112827800Y-137400800D03*
%TD*%
D13*
%TO.C,VCJ3*%
X125044200Y-131927600D03*
%TD*%
%TO.C,VCC6*%
G36*
G01*
X105873900Y-160002952D02*
X105873900Y-157877048D01*
G75*
G02*
X106135948Y-157615000I262048J0D01*
G01*
X107786852Y-157615000D01*
G75*
G02*
X108048900Y-157877048I0J-262048D01*
G01*
X108048900Y-160002952D01*
G75*
G02*
X107786852Y-160265000I-262048J0D01*
G01*
X106135948Y-160265000D01*
G75*
G02*
X105873900Y-160002952I0J262048D01*
G01*
G37*
G36*
G01*
X99648900Y-160002952D02*
X99648900Y-157877048D01*
G75*
G02*
X99910948Y-157615000I262048J0D01*
G01*
X101561852Y-157615000D01*
G75*
G02*
X101823900Y-157877048I0J-262048D01*
G01*
X101823900Y-160002952D01*
G75*
G02*
X101561852Y-160265000I-262048J0D01*
G01*
X99910948Y-160265000D01*
G75*
G02*
X99648900Y-160002952I0J262048D01*
G01*
G37*
%TD*%
%TO.C,VCR6*%
G36*
G01*
X112242100Y-148292000D02*
X112242100Y-146982000D01*
G75*
G02*
X112512100Y-146712000I270000J0D01*
G01*
X113322100Y-146712000D01*
G75*
G02*
X113592100Y-146982000I0J-270000D01*
G01*
X113592100Y-148292000D01*
G75*
G02*
X113322100Y-148562000I-270000J0D01*
G01*
X112512100Y-148562000D01*
G75*
G02*
X112242100Y-148292000I0J270000D01*
G01*
G37*
G36*
G01*
X109442100Y-148292000D02*
X109442100Y-146982000D01*
G75*
G02*
X109712100Y-146712000I270000J0D01*
G01*
X110522100Y-146712000D01*
G75*
G02*
X110792100Y-146982000I0J-270000D01*
G01*
X110792100Y-148292000D01*
G75*
G02*
X110522100Y-148562000I-270000J0D01*
G01*
X109712100Y-148562000D01*
G75*
G02*
X109442100Y-148292000I0J270000D01*
G01*
G37*
%TD*%
D11*
%TO.C,VCU2*%
X113182400Y-142430000D03*
D10*
X110482400Y-140525000D03*
X110482400Y-141795000D03*
X110482400Y-143065000D03*
X110482400Y-144335000D03*
X115882400Y-144335000D03*
X115882400Y-143065000D03*
X115882400Y-141795000D03*
X115882400Y-140525000D03*
%TD*%
D13*
%TO.C,VCJ1*%
X125857000Y-113487200D03*
%TD*%
D14*
%TO.C,VCL1*%
X101142800Y-103333200D03*
X101142800Y-113233200D03*
%TD*%
%TO.C,VCR3*%
G36*
G01*
X109213500Y-113913600D02*
X109213500Y-112603600D01*
G75*
G02*
X109483500Y-112333600I270000J0D01*
G01*
X110293500Y-112333600D01*
G75*
G02*
X110563500Y-112603600I0J-270000D01*
G01*
X110563500Y-113913600D01*
G75*
G02*
X110293500Y-114183600I-270000J0D01*
G01*
X109483500Y-114183600D01*
G75*
G02*
X109213500Y-113913600I0J270000D01*
G01*
G37*
G36*
G01*
X112013500Y-113913600D02*
X112013500Y-112603600D01*
G75*
G02*
X112283500Y-112333600I270000J0D01*
G01*
X113093500Y-112333600D01*
G75*
G02*
X113363500Y-112603600I0J-270000D01*
G01*
X113363500Y-113913600D01*
G75*
G02*
X113093500Y-114183600I-270000J0D01*
G01*
X112283500Y-114183600D01*
G75*
G02*
X112013500Y-113913600I0J270000D01*
G01*
G37*
%TD*%
D12*
%TO.C,VCD1*%
X112778000Y-103047800D03*
X116078000Y-103047800D03*
%TD*%
%TO.C,VCC2*%
G36*
G01*
X99826700Y-125751552D02*
X99826700Y-123625648D01*
G75*
G02*
X100088748Y-123363600I262048J0D01*
G01*
X101739652Y-123363600D01*
G75*
G02*
X102001700Y-123625648I0J-262048D01*
G01*
X102001700Y-125751552D01*
G75*
G02*
X101739652Y-126013600I-262048J0D01*
G01*
X100088748Y-126013600D01*
G75*
G02*
X99826700Y-125751552I0J262048D01*
G01*
G37*
G36*
G01*
X106051700Y-125751552D02*
X106051700Y-123625648D01*
G75*
G02*
X106313748Y-123363600I262048J0D01*
G01*
X107964652Y-123363600D01*
G75*
G02*
X108226700Y-123625648I0J-262048D01*
G01*
X108226700Y-125751552D01*
G75*
G02*
X107964652Y-126013600I-262048J0D01*
G01*
X106313748Y-126013600D01*
G75*
G02*
X106051700Y-125751552I0J262048D01*
G01*
G37*
%TD*%
D14*
%TO.C,VCL2*%
X101269800Y-147027400D03*
X101269800Y-137127400D03*
%TD*%
%TO.C,VCC1*%
G36*
G01*
X109399150Y-103295400D02*
X110361650Y-103295400D01*
G75*
G02*
X110630400Y-103564150I0J-268750D01*
G01*
X110630400Y-104101650D01*
G75*
G02*
X110361650Y-104370400I-268750J0D01*
G01*
X109399150Y-104370400D01*
G75*
G02*
X109130400Y-104101650I0J268750D01*
G01*
X109130400Y-103564150D01*
G75*
G02*
X109399150Y-103295400I268750J0D01*
G01*
G37*
G36*
G01*
X109399150Y-101420400D02*
X110361650Y-101420400D01*
G75*
G02*
X110630400Y-101689150I0J-268750D01*
G01*
X110630400Y-102226650D01*
G75*
G02*
X110361650Y-102495400I-268750J0D01*
G01*
X109399150Y-102495400D01*
G75*
G02*
X109130400Y-102226650I0J268750D01*
G01*
X109130400Y-101689150D01*
G75*
G02*
X109399150Y-101420400I268750J0D01*
G01*
G37*
%TD*%
%TO.C,VCC7*%
G36*
G01*
X118670150Y-140601700D02*
X119632650Y-140601700D01*
G75*
G02*
X119901400Y-140870450I0J-268750D01*
G01*
X119901400Y-141407950D01*
G75*
G02*
X119632650Y-141676700I-268750J0D01*
G01*
X118670150Y-141676700D01*
G75*
G02*
X118401400Y-141407950I0J268750D01*
G01*
X118401400Y-140870450D01*
G75*
G02*
X118670150Y-140601700I268750J0D01*
G01*
G37*
G36*
G01*
X118670150Y-142476700D02*
X119632650Y-142476700D01*
G75*
G02*
X119901400Y-142745450I0J-268750D01*
G01*
X119901400Y-143282950D01*
G75*
G02*
X119632650Y-143551700I-268750J0D01*
G01*
X118670150Y-143551700D01*
G75*
G02*
X118401400Y-143282950I0J268750D01*
G01*
X118401400Y-142745450D01*
G75*
G02*
X118670150Y-142476700I268750J0D01*
G01*
G37*
%TD*%
%TO.C,VCR4*%
G36*
G01*
X106273100Y-154616600D02*
X106273100Y-153306600D01*
G75*
G02*
X106543100Y-153036600I270000J0D01*
G01*
X107353100Y-153036600D01*
G75*
G02*
X107623100Y-153306600I0J-270000D01*
G01*
X107623100Y-154616600D01*
G75*
G02*
X107353100Y-154886600I-270000J0D01*
G01*
X106543100Y-154886600D01*
G75*
G02*
X106273100Y-154616600I0J270000D01*
G01*
G37*
G36*
G01*
X103473100Y-154616600D02*
X103473100Y-153306600D01*
G75*
G02*
X103743100Y-153036600I270000J0D01*
G01*
X104553100Y-153036600D01*
G75*
G02*
X104823100Y-153306600I0J-270000D01*
G01*
X104823100Y-154616600D01*
G75*
G02*
X104553100Y-154886600I-270000J0D01*
G01*
X103743100Y-154886600D01*
G75*
G02*
X103473100Y-154616600I0J270000D01*
G01*
G37*
%TD*%
%TO.C,VCR5*%
G36*
G01*
X106419500Y-151492400D02*
X106419500Y-150182400D01*
G75*
G02*
X106689500Y-149912400I270000J0D01*
G01*
X107499500Y-149912400D01*
G75*
G02*
X107769500Y-150182400I0J-270000D01*
G01*
X107769500Y-151492400D01*
G75*
G02*
X107499500Y-151762400I-270000J0D01*
G01*
X106689500Y-151762400D01*
G75*
G02*
X106419500Y-151492400I0J270000D01*
G01*
G37*
G36*
G01*
X109219500Y-151492400D02*
X109219500Y-150182400D01*
G75*
G02*
X109489500Y-149912400I270000J0D01*
G01*
X110299500Y-149912400D01*
G75*
G02*
X110569500Y-150182400I0J-270000D01*
G01*
X110569500Y-151492400D01*
G75*
G02*
X110299500Y-151762400I-270000J0D01*
G01*
X109489500Y-151762400D01*
G75*
G02*
X109219500Y-151492400I0J270000D01*
G01*
G37*
%TD*%
D15*
%TO.C,A1*%
X85090000Y-31496000D03*
D16*
X100330000Y-64516000D03*
X85090000Y-34036000D03*
X100330000Y-61976000D03*
X85090000Y-36576000D03*
X100330000Y-59436000D03*
X85090000Y-39116000D03*
X100330000Y-56896000D03*
X85090000Y-41656000D03*
X100330000Y-54356000D03*
X85090000Y-44196000D03*
X100330000Y-51816000D03*
X85090000Y-46736000D03*
X100330000Y-49276000D03*
X85090000Y-49276000D03*
X100330000Y-46736000D03*
X85090000Y-51816000D03*
X100330000Y-44196000D03*
X85090000Y-54356000D03*
X100330000Y-41656000D03*
X85090000Y-56896000D03*
X100330000Y-39116000D03*
X85090000Y-59436000D03*
X100330000Y-36576000D03*
X85090000Y-61976000D03*
X100330000Y-34036000D03*
X85090000Y-64516000D03*
X100330000Y-31496000D03*
X85090000Y-67056000D03*
X100330000Y-67056000D03*
%TD*%
%TO.C,C2*%
G36*
G01*
X76992500Y-42009750D02*
X76992500Y-42572250D01*
G75*
G02*
X76748750Y-42816000I-243750J0D01*
G01*
X76261250Y-42816000D01*
G75*
G02*
X76017500Y-42572250I0J243750D01*
G01*
X76017500Y-42009750D01*
G75*
G02*
X76261250Y-41766000I243750J0D01*
G01*
X76748750Y-41766000D01*
G75*
G02*
X76992500Y-42009750I0J-243750D01*
G01*
G37*
G36*
G01*
X75417500Y-42009750D02*
X75417500Y-42572250D01*
G75*
G02*
X75173750Y-42816000I-243750J0D01*
G01*
X74686250Y-42816000D01*
G75*
G02*
X74442500Y-42572250I0J243750D01*
G01*
X74442500Y-42009750D01*
G75*
G02*
X74686250Y-41766000I243750J0D01*
G01*
X75173750Y-41766000D01*
G75*
G02*
X75417500Y-42009750I0J-243750D01*
G01*
G37*
%TD*%
%TO.C,C3*%
G36*
G01*
X76992500Y-54328750D02*
X76992500Y-54891250D01*
G75*
G02*
X76748750Y-55135000I-243750J0D01*
G01*
X76261250Y-55135000D01*
G75*
G02*
X76017500Y-54891250I0J243750D01*
G01*
X76017500Y-54328750D01*
G75*
G02*
X76261250Y-54085000I243750J0D01*
G01*
X76748750Y-54085000D01*
G75*
G02*
X76992500Y-54328750I0J-243750D01*
G01*
G37*
G36*
G01*
X75417500Y-54328750D02*
X75417500Y-54891250D01*
G75*
G02*
X75173750Y-55135000I-243750J0D01*
G01*
X74686250Y-55135000D01*
G75*
G02*
X74442500Y-54891250I0J243750D01*
G01*
X74442500Y-54328750D01*
G75*
G02*
X74686250Y-54085000I243750J0D01*
G01*
X75173750Y-54085000D01*
G75*
G02*
X75417500Y-54328750I0J-243750D01*
G01*
G37*
%TD*%
%TO.C,C4*%
G36*
G01*
X76992500Y-66647750D02*
X76992500Y-67210250D01*
G75*
G02*
X76748750Y-67454000I-243750J0D01*
G01*
X76261250Y-67454000D01*
G75*
G02*
X76017500Y-67210250I0J243750D01*
G01*
X76017500Y-66647750D01*
G75*
G02*
X76261250Y-66404000I243750J0D01*
G01*
X76748750Y-66404000D01*
G75*
G02*
X76992500Y-66647750I0J-243750D01*
G01*
G37*
G36*
G01*
X75417500Y-66647750D02*
X75417500Y-67210250D01*
G75*
G02*
X75173750Y-67454000I-243750J0D01*
G01*
X74686250Y-67454000D01*
G75*
G02*
X74442500Y-67210250I0J243750D01*
G01*
X74442500Y-66647750D01*
G75*
G02*
X74686250Y-66404000I243750J0D01*
G01*
X75173750Y-66404000D01*
G75*
G02*
X75417500Y-66647750I0J-243750D01*
G01*
G37*
%TD*%
%TO.C,C5*%
G36*
G01*
X75417500Y-78966750D02*
X75417500Y-79529250D01*
G75*
G02*
X75173750Y-79773000I-243750J0D01*
G01*
X74686250Y-79773000D01*
G75*
G02*
X74442500Y-79529250I0J243750D01*
G01*
X74442500Y-78966750D01*
G75*
G02*
X74686250Y-78723000I243750J0D01*
G01*
X75173750Y-78723000D01*
G75*
G02*
X75417500Y-78966750I0J-243750D01*
G01*
G37*
G36*
G01*
X76992500Y-78966750D02*
X76992500Y-79529250D01*
G75*
G02*
X76748750Y-79773000I-243750J0D01*
G01*
X76261250Y-79773000D01*
G75*
G02*
X76017500Y-79529250I0J243750D01*
G01*
X76017500Y-78966750D01*
G75*
G02*
X76261250Y-78723000I243750J0D01*
G01*
X76748750Y-78723000D01*
G75*
G02*
X76992500Y-78966750I0J-243750D01*
G01*
G37*
%TD*%
%TO.C,C6*%
G36*
G01*
X76941500Y-91285750D02*
X76941500Y-91848250D01*
G75*
G02*
X76697750Y-92092000I-243750J0D01*
G01*
X76210250Y-92092000D01*
G75*
G02*
X75966500Y-91848250I0J243750D01*
G01*
X75966500Y-91285750D01*
G75*
G02*
X76210250Y-91042000I243750J0D01*
G01*
X76697750Y-91042000D01*
G75*
G02*
X76941500Y-91285750I0J-243750D01*
G01*
G37*
G36*
G01*
X75366500Y-91285750D02*
X75366500Y-91848250D01*
G75*
G02*
X75122750Y-92092000I-243750J0D01*
G01*
X74635250Y-92092000D01*
G75*
G02*
X74391500Y-91848250I0J243750D01*
G01*
X74391500Y-91285750D01*
G75*
G02*
X74635250Y-91042000I243750J0D01*
G01*
X75122750Y-91042000D01*
G75*
G02*
X75366500Y-91285750I0J-243750D01*
G01*
G37*
%TD*%
%TO.C,C7*%
G36*
G01*
X75493500Y-103604750D02*
X75493500Y-104167250D01*
G75*
G02*
X75249750Y-104411000I-243750J0D01*
G01*
X74762250Y-104411000D01*
G75*
G02*
X74518500Y-104167250I0J243750D01*
G01*
X74518500Y-103604750D01*
G75*
G02*
X74762250Y-103361000I243750J0D01*
G01*
X75249750Y-103361000D01*
G75*
G02*
X75493500Y-103604750I0J-243750D01*
G01*
G37*
G36*
G01*
X77068500Y-103604750D02*
X77068500Y-104167250D01*
G75*
G02*
X76824750Y-104411000I-243750J0D01*
G01*
X76337250Y-104411000D01*
G75*
G02*
X76093500Y-104167250I0J243750D01*
G01*
X76093500Y-103604750D01*
G75*
G02*
X76337250Y-103361000I243750J0D01*
G01*
X76824750Y-103361000D01*
G75*
G02*
X77068500Y-103604750I0J-243750D01*
G01*
G37*
%TD*%
%TO.C,C8*%
G36*
G01*
X76992500Y-115923750D02*
X76992500Y-116486250D01*
G75*
G02*
X76748750Y-116730000I-243750J0D01*
G01*
X76261250Y-116730000D01*
G75*
G02*
X76017500Y-116486250I0J243750D01*
G01*
X76017500Y-115923750D01*
G75*
G02*
X76261250Y-115680000I243750J0D01*
G01*
X76748750Y-115680000D01*
G75*
G02*
X76992500Y-115923750I0J-243750D01*
G01*
G37*
G36*
G01*
X75417500Y-115923750D02*
X75417500Y-116486250D01*
G75*
G02*
X75173750Y-116730000I-243750J0D01*
G01*
X74686250Y-116730000D01*
G75*
G02*
X74442500Y-116486250I0J243750D01*
G01*
X74442500Y-115923750D01*
G75*
G02*
X74686250Y-115680000I243750J0D01*
G01*
X75173750Y-115680000D01*
G75*
G02*
X75417500Y-115923750I0J-243750D01*
G01*
G37*
%TD*%
%TO.C,C9*%
G36*
G01*
X75417500Y-128242750D02*
X75417500Y-128805250D01*
G75*
G02*
X75173750Y-129049000I-243750J0D01*
G01*
X74686250Y-129049000D01*
G75*
G02*
X74442500Y-128805250I0J243750D01*
G01*
X74442500Y-128242750D01*
G75*
G02*
X74686250Y-127999000I243750J0D01*
G01*
X75173750Y-127999000D01*
G75*
G02*
X75417500Y-128242750I0J-243750D01*
G01*
G37*
G36*
G01*
X76992500Y-128242750D02*
X76992500Y-128805250D01*
G75*
G02*
X76748750Y-129049000I-243750J0D01*
G01*
X76261250Y-129049000D01*
G75*
G02*
X76017500Y-128805250I0J243750D01*
G01*
X76017500Y-128242750D01*
G75*
G02*
X76261250Y-127999000I243750J0D01*
G01*
X76748750Y-127999000D01*
G75*
G02*
X76992500Y-128242750I0J-243750D01*
G01*
G37*
%TD*%
%TO.C,C10*%
G36*
G01*
X76992500Y-140561750D02*
X76992500Y-141124250D01*
G75*
G02*
X76748750Y-141368000I-243750J0D01*
G01*
X76261250Y-141368000D01*
G75*
G02*
X76017500Y-141124250I0J243750D01*
G01*
X76017500Y-140561750D01*
G75*
G02*
X76261250Y-140318000I243750J0D01*
G01*
X76748750Y-140318000D01*
G75*
G02*
X76992500Y-140561750I0J-243750D01*
G01*
G37*
G36*
G01*
X75417500Y-140561750D02*
X75417500Y-141124250D01*
G75*
G02*
X75173750Y-141368000I-243750J0D01*
G01*
X74686250Y-141368000D01*
G75*
G02*
X74442500Y-141124250I0J243750D01*
G01*
X74442500Y-140561750D01*
G75*
G02*
X74686250Y-140318000I243750J0D01*
G01*
X75173750Y-140318000D01*
G75*
G02*
X75417500Y-140561750I0J-243750D01*
G01*
G37*
%TD*%
%TO.C,C11*%
G36*
G01*
X114934500Y-174270750D02*
X114934500Y-175233250D01*
G75*
G02*
X114665750Y-175502000I-268750J0D01*
G01*
X114128250Y-175502000D01*
G75*
G02*
X113859500Y-175233250I0J268750D01*
G01*
X113859500Y-174270750D01*
G75*
G02*
X114128250Y-174002000I268750J0D01*
G01*
X114665750Y-174002000D01*
G75*
G02*
X114934500Y-174270750I0J-268750D01*
G01*
G37*
G36*
G01*
X113059500Y-174270750D02*
X113059500Y-175233250D01*
G75*
G02*
X112790750Y-175502000I-268750J0D01*
G01*
X112253250Y-175502000D01*
G75*
G02*
X111984500Y-175233250I0J268750D01*
G01*
X111984500Y-174270750D01*
G75*
G02*
X112253250Y-174002000I268750J0D01*
G01*
X112790750Y-174002000D01*
G75*
G02*
X113059500Y-174270750I0J-268750D01*
G01*
G37*
%TD*%
%TO.C,C12*%
G36*
G01*
X75417500Y-152880750D02*
X75417500Y-153443250D01*
G75*
G02*
X75173750Y-153687000I-243750J0D01*
G01*
X74686250Y-153687000D01*
G75*
G02*
X74442500Y-153443250I0J243750D01*
G01*
X74442500Y-152880750D01*
G75*
G02*
X74686250Y-152637000I243750J0D01*
G01*
X75173750Y-152637000D01*
G75*
G02*
X75417500Y-152880750I0J-243750D01*
G01*
G37*
G36*
G01*
X76992500Y-152880750D02*
X76992500Y-153443250D01*
G75*
G02*
X76748750Y-153687000I-243750J0D01*
G01*
X76261250Y-153687000D01*
G75*
G02*
X76017500Y-153443250I0J243750D01*
G01*
X76017500Y-152880750D01*
G75*
G02*
X76261250Y-152637000I243750J0D01*
G01*
X76748750Y-152637000D01*
G75*
G02*
X76992500Y-152880750I0J-243750D01*
G01*
G37*
%TD*%
%TO.C,C13*%
G36*
G01*
X75366500Y-165199750D02*
X75366500Y-165762250D01*
G75*
G02*
X75122750Y-166006000I-243750J0D01*
G01*
X74635250Y-166006000D01*
G75*
G02*
X74391500Y-165762250I0J243750D01*
G01*
X74391500Y-165199750D01*
G75*
G02*
X74635250Y-164956000I243750J0D01*
G01*
X75122750Y-164956000D01*
G75*
G02*
X75366500Y-165199750I0J-243750D01*
G01*
G37*
G36*
G01*
X76941500Y-165199750D02*
X76941500Y-165762250D01*
G75*
G02*
X76697750Y-166006000I-243750J0D01*
G01*
X76210250Y-166006000D01*
G75*
G02*
X75966500Y-165762250I0J243750D01*
G01*
X75966500Y-165199750D01*
G75*
G02*
X76210250Y-164956000I243750J0D01*
G01*
X76697750Y-164956000D01*
G75*
G02*
X76941500Y-165199750I0J-243750D01*
G01*
G37*
%TD*%
D13*
%TO.C,J16*%
X119380000Y-177165000D03*
%TD*%
%TO.C,J17*%
X109220000Y-177292000D03*
%TD*%
D17*
%TO.C,Q7*%
X49514000Y-43241000D03*
X49514000Y-41341000D03*
X47514000Y-42291000D03*
%TD*%
%TO.C,Q8*%
X51689000Y-42418000D03*
X53689000Y-41468000D03*
X53689000Y-43368000D03*
%TD*%
%TO.C,Q9*%
X71406000Y-46609000D03*
X73406000Y-45659000D03*
X73406000Y-47559000D03*
%TD*%
%TO.C,Q10*%
X55912000Y-42357000D03*
X57912000Y-41407000D03*
X57912000Y-43307000D03*
%TD*%
%TO.C,Q11*%
X62071000Y-43241000D03*
X62071000Y-41341000D03*
X60071000Y-42291000D03*
%TD*%
%TO.C,Q12*%
X69199000Y-47559000D03*
X69199000Y-45659000D03*
X67199000Y-46609000D03*
%TD*%
%TO.C,Q13*%
X47530000Y-54676000D03*
X49530000Y-53726000D03*
X49530000Y-55626000D03*
%TD*%
%TO.C,Q14*%
X53689000Y-55621000D03*
X53689000Y-53721000D03*
X51689000Y-54671000D03*
%TD*%
%TO.C,Q15*%
X71406000Y-58989000D03*
X73406000Y-58039000D03*
X73406000Y-59939000D03*
%TD*%
%TO.C,Q16*%
X57880000Y-55621000D03*
X57880000Y-53721000D03*
X55880000Y-54671000D03*
%TD*%
%TO.C,Q17*%
X60103000Y-54676000D03*
X62103000Y-53726000D03*
X62103000Y-55626000D03*
%TD*%
%TO.C,Q18*%
X67183000Y-58928000D03*
X69183000Y-57978000D03*
X69183000Y-59878000D03*
%TD*%
%TO.C,Q19*%
X49530000Y-67945000D03*
X49530000Y-66045000D03*
X47530000Y-66995000D03*
%TD*%
%TO.C,Q20*%
X53689000Y-67940000D03*
X53689000Y-66040000D03*
X51689000Y-66990000D03*
%TD*%
%TO.C,Q21*%
X71406000Y-71247000D03*
X73406000Y-70297000D03*
X73406000Y-72197000D03*
%TD*%
%TO.C,Q22*%
X55896000Y-66990000D03*
X57896000Y-66040000D03*
X57896000Y-67940000D03*
%TD*%
%TO.C,Q23*%
X60087000Y-66929000D03*
X62087000Y-65979000D03*
X62087000Y-67879000D03*
%TD*%
%TO.C,Q24*%
X69183000Y-72197000D03*
X69183000Y-70297000D03*
X67183000Y-71247000D03*
%TD*%
%TO.C,Q25*%
X47498000Y-79314000D03*
X49498000Y-78364000D03*
X49498000Y-80264000D03*
%TD*%
%TO.C,Q26*%
X51721000Y-79314000D03*
X53721000Y-78364000D03*
X53721000Y-80264000D03*
%TD*%
%TO.C,Q27*%
X73406000Y-84516000D03*
X73406000Y-82616000D03*
X71406000Y-83566000D03*
%TD*%
%TO.C,Q28*%
X57912000Y-80264000D03*
X57912000Y-78364000D03*
X55912000Y-79314000D03*
%TD*%
%TO.C,Q29*%
X62071000Y-80198000D03*
X62071000Y-78298000D03*
X60071000Y-79248000D03*
%TD*%
%TO.C,Q30*%
X69215000Y-84582000D03*
X69215000Y-82682000D03*
X67215000Y-83632000D03*
%TD*%
%TO.C,Q31*%
X49530000Y-92583000D03*
X49530000Y-90683000D03*
X47530000Y-91633000D03*
%TD*%
%TO.C,Q32*%
X51689000Y-91628000D03*
X53689000Y-90678000D03*
X53689000Y-92578000D03*
%TD*%
%TO.C,Q33*%
X71406000Y-95885000D03*
X73406000Y-94935000D03*
X73406000Y-96835000D03*
%TD*%
%TO.C,Q34*%
X55880000Y-91628000D03*
X57880000Y-90678000D03*
X57880000Y-92578000D03*
%TD*%
%TO.C,Q35*%
X62071000Y-92517000D03*
X62071000Y-90617000D03*
X60071000Y-91567000D03*
%TD*%
%TO.C,Q36*%
X69183000Y-96835000D03*
X69183000Y-94935000D03*
X67183000Y-95885000D03*
%TD*%
%TO.C,Q37*%
X47498000Y-103952000D03*
X49498000Y-103002000D03*
X49498000Y-104902000D03*
%TD*%
%TO.C,Q38*%
X51721000Y-103952000D03*
X53721000Y-103002000D03*
X53721000Y-104902000D03*
%TD*%
%TO.C,Q39*%
X71406000Y-108270000D03*
X73406000Y-107320000D03*
X73406000Y-109220000D03*
%TD*%
%TO.C,Q40*%
X57912000Y-104902000D03*
X57912000Y-103002000D03*
X55912000Y-103952000D03*
%TD*%
%TO.C,Q41*%
X60103000Y-103952000D03*
X62103000Y-103002000D03*
X62103000Y-104902000D03*
%TD*%
%TO.C,Q42*%
X67215000Y-108270000D03*
X69215000Y-107320000D03*
X69215000Y-109220000D03*
%TD*%
%TO.C,Q43*%
X47498000Y-116271000D03*
X49498000Y-115321000D03*
X49498000Y-117221000D03*
%TD*%
%TO.C,Q44*%
X51689000Y-116266000D03*
X53689000Y-115316000D03*
X53689000Y-117216000D03*
%TD*%
%TO.C,Q45*%
X73406000Y-121539000D03*
X73406000Y-119639000D03*
X71406000Y-120589000D03*
%TD*%
%TO.C,Q46*%
X57880000Y-117216000D03*
X57880000Y-115316000D03*
X55880000Y-116266000D03*
%TD*%
%TO.C,Q47*%
X60071000Y-116205000D03*
X62071000Y-115255000D03*
X62071000Y-117155000D03*
%TD*%
%TO.C,Q48*%
X69215000Y-121539000D03*
X69215000Y-119639000D03*
X67215000Y-120589000D03*
%TD*%
%TO.C,Q49*%
X47498000Y-128590000D03*
X49498000Y-127640000D03*
X49498000Y-129540000D03*
%TD*%
%TO.C,Q50*%
X53689000Y-129535000D03*
X53689000Y-127635000D03*
X51689000Y-128585000D03*
%TD*%
%TO.C,Q51*%
X71406000Y-132781000D03*
X73406000Y-131831000D03*
X73406000Y-133731000D03*
%TD*%
%TO.C,Q52*%
X57896000Y-129535000D03*
X57896000Y-127635000D03*
X55896000Y-128585000D03*
%TD*%
%TO.C,Q53*%
X60071000Y-128524000D03*
X62071000Y-127574000D03*
X62071000Y-129474000D03*
%TD*%
%TO.C,Q54*%
X67215000Y-132908000D03*
X69215000Y-131958000D03*
X69215000Y-133858000D03*
%TD*%
%TO.C,Q55*%
X49498000Y-141859000D03*
X49498000Y-139959000D03*
X47498000Y-140909000D03*
%TD*%
%TO.C,Q56*%
X51689000Y-140904000D03*
X53689000Y-139954000D03*
X53689000Y-141854000D03*
%TD*%
%TO.C,Q57*%
X71406000Y-145227000D03*
X73406000Y-144277000D03*
X73406000Y-146177000D03*
%TD*%
%TO.C,Q58*%
X57880000Y-141854000D03*
X57880000Y-139954000D03*
X55880000Y-140904000D03*
%TD*%
%TO.C,Q59*%
X62071000Y-141793000D03*
X62071000Y-139893000D03*
X60071000Y-140843000D03*
%TD*%
%TO.C,Q60*%
X69215000Y-146177000D03*
X69215000Y-144277000D03*
X67215000Y-145227000D03*
%TD*%
%TO.C,Q61*%
X49498000Y-154178000D03*
X49498000Y-152278000D03*
X47498000Y-153228000D03*
%TD*%
%TO.C,Q62*%
X53689000Y-154173000D03*
X53689000Y-152273000D03*
X51689000Y-153223000D03*
%TD*%
%TO.C,Q63*%
X73406000Y-158430000D03*
X73406000Y-156530000D03*
X71406000Y-157480000D03*
%TD*%
%TO.C,Q64*%
X57880000Y-154173000D03*
X57880000Y-152273000D03*
X55880000Y-153223000D03*
%TD*%
%TO.C,Q65*%
X62071000Y-154112000D03*
X62071000Y-152212000D03*
X60071000Y-153162000D03*
%TD*%
%TO.C,Q66*%
X67199000Y-157480000D03*
X69199000Y-156530000D03*
X69199000Y-158430000D03*
%TD*%
%TO.C,Q67*%
X47498000Y-165547000D03*
X49498000Y-164597000D03*
X49498000Y-166497000D03*
%TD*%
%TO.C,Q68*%
X51689000Y-165542000D03*
X53689000Y-164592000D03*
X53689000Y-166492000D03*
%TD*%
%TO.C,Q69*%
X73406000Y-170749000D03*
X73406000Y-168849000D03*
X71406000Y-169799000D03*
%TD*%
%TO.C,Q70*%
X55880000Y-165542000D03*
X57880000Y-164592000D03*
X57880000Y-166492000D03*
%TD*%
%TO.C,Q71*%
X62071000Y-166431000D03*
X62071000Y-164531000D03*
X60071000Y-165481000D03*
%TD*%
%TO.C,Q72*%
X67183000Y-169799000D03*
X69183000Y-168849000D03*
X69183000Y-170749000D03*
%TD*%
%TO.C,R7*%
G36*
G01*
X39644500Y-43588250D02*
X39644500Y-43025750D01*
G75*
G02*
X39888250Y-42782000I243750J0D01*
G01*
X40375750Y-42782000D01*
G75*
G02*
X40619500Y-43025750I0J-243750D01*
G01*
X40619500Y-43588250D01*
G75*
G02*
X40375750Y-43832000I-243750J0D01*
G01*
X39888250Y-43832000D01*
G75*
G02*
X39644500Y-43588250I0J243750D01*
G01*
G37*
G36*
G01*
X41219500Y-43588250D02*
X41219500Y-43025750D01*
G75*
G02*
X41463250Y-42782000I243750J0D01*
G01*
X41950750Y-42782000D01*
G75*
G02*
X42194500Y-43025750I0J-243750D01*
G01*
X42194500Y-43588250D01*
G75*
G02*
X41950750Y-43832000I-243750J0D01*
G01*
X41463250Y-43832000D01*
G75*
G02*
X41219500Y-43588250I0J243750D01*
G01*
G37*
%TD*%
%TO.C,R8*%
G36*
G01*
X67918250Y-43814500D02*
X66955750Y-43814500D01*
G75*
G02*
X66687000Y-43545750I0J268750D01*
G01*
X66687000Y-43008250D01*
G75*
G02*
X66955750Y-42739500I268750J0D01*
G01*
X67918250Y-42739500D01*
G75*
G02*
X68187000Y-43008250I0J-268750D01*
G01*
X68187000Y-43545750D01*
G75*
G02*
X67918250Y-43814500I-268750J0D01*
G01*
G37*
G36*
G01*
X67918250Y-41939500D02*
X66955750Y-41939500D01*
G75*
G02*
X66687000Y-41670750I0J268750D01*
G01*
X66687000Y-41133250D01*
G75*
G02*
X66955750Y-40864500I268750J0D01*
G01*
X67918250Y-40864500D01*
G75*
G02*
X68187000Y-41133250I0J-268750D01*
G01*
X68187000Y-41670750D01*
G75*
G02*
X67918250Y-41939500I-268750J0D01*
G01*
G37*
%TD*%
%TO.C,R9*%
G36*
G01*
X43947000Y-41120750D02*
X43947000Y-41683250D01*
G75*
G02*
X43703250Y-41927000I-243750J0D01*
G01*
X43215750Y-41927000D01*
G75*
G02*
X42972000Y-41683250I0J243750D01*
G01*
X42972000Y-41120750D01*
G75*
G02*
X43215750Y-40877000I243750J0D01*
G01*
X43703250Y-40877000D01*
G75*
G02*
X43947000Y-41120750I0J-243750D01*
G01*
G37*
G36*
G01*
X42372000Y-41120750D02*
X42372000Y-41683250D01*
G75*
G02*
X42128250Y-41927000I-243750J0D01*
G01*
X41640750Y-41927000D01*
G75*
G02*
X41397000Y-41683250I0J243750D01*
G01*
X41397000Y-41120750D01*
G75*
G02*
X41640750Y-40877000I243750J0D01*
G01*
X42128250Y-40877000D01*
G75*
G02*
X42372000Y-41120750I0J-243750D01*
G01*
G37*
%TD*%
%TO.C,R10*%
G36*
G01*
X44175500Y-43025750D02*
X44175500Y-43588250D01*
G75*
G02*
X43931750Y-43832000I-243750J0D01*
G01*
X43444250Y-43832000D01*
G75*
G02*
X43200500Y-43588250I0J243750D01*
G01*
X43200500Y-43025750D01*
G75*
G02*
X43444250Y-42782000I243750J0D01*
G01*
X43931750Y-42782000D01*
G75*
G02*
X44175500Y-43025750I0J-243750D01*
G01*
G37*
G36*
G01*
X45750500Y-43025750D02*
X45750500Y-43588250D01*
G75*
G02*
X45506750Y-43832000I-243750J0D01*
G01*
X45019250Y-43832000D01*
G75*
G02*
X44775500Y-43588250I0J243750D01*
G01*
X44775500Y-43025750D01*
G75*
G02*
X45019250Y-42782000I243750J0D01*
G01*
X45506750Y-42782000D01*
G75*
G02*
X45750500Y-43025750I0J-243750D01*
G01*
G37*
%TD*%
%TO.C,R11*%
G36*
G01*
X75291000Y-43902000D02*
X76601000Y-43902000D01*
G75*
G02*
X76871000Y-44172000I0J-270000D01*
G01*
X76871000Y-44982000D01*
G75*
G02*
X76601000Y-45252000I-270000J0D01*
G01*
X75291000Y-45252000D01*
G75*
G02*
X75021000Y-44982000I0J270000D01*
G01*
X75021000Y-44172000D01*
G75*
G02*
X75291000Y-43902000I270000J0D01*
G01*
G37*
G36*
G01*
X75291000Y-46702000D02*
X76601000Y-46702000D01*
G75*
G02*
X76871000Y-46972000I0J-270000D01*
G01*
X76871000Y-47782000D01*
G75*
G02*
X76601000Y-48052000I-270000J0D01*
G01*
X75291000Y-48052000D01*
G75*
G02*
X75021000Y-47782000I0J270000D01*
G01*
X75021000Y-46972000D01*
G75*
G02*
X75291000Y-46702000I270000J0D01*
G01*
G37*
%TD*%
%TO.C,R12*%
G36*
G01*
X71187500Y-43661250D02*
X71187500Y-42698750D01*
G75*
G02*
X71456250Y-42430000I268750J0D01*
G01*
X71993750Y-42430000D01*
G75*
G02*
X72262500Y-42698750I0J-268750D01*
G01*
X72262500Y-43661250D01*
G75*
G02*
X71993750Y-43930000I-268750J0D01*
G01*
X71456250Y-43930000D01*
G75*
G02*
X71187500Y-43661250I0J268750D01*
G01*
G37*
G36*
G01*
X69312500Y-43661250D02*
X69312500Y-42698750D01*
G75*
G02*
X69581250Y-42430000I268750J0D01*
G01*
X70118750Y-42430000D01*
G75*
G02*
X70387500Y-42698750I0J-268750D01*
G01*
X70387500Y-43661250D01*
G75*
G02*
X70118750Y-43930000I-268750J0D01*
G01*
X69581250Y-43930000D01*
G75*
G02*
X69312500Y-43661250I0J268750D01*
G01*
G37*
%TD*%
%TO.C,R13*%
G36*
G01*
X41219500Y-55907250D02*
X41219500Y-55344750D01*
G75*
G02*
X41463250Y-55101000I243750J0D01*
G01*
X41950750Y-55101000D01*
G75*
G02*
X42194500Y-55344750I0J-243750D01*
G01*
X42194500Y-55907250D01*
G75*
G02*
X41950750Y-56151000I-243750J0D01*
G01*
X41463250Y-56151000D01*
G75*
G02*
X41219500Y-55907250I0J243750D01*
G01*
G37*
G36*
G01*
X39644500Y-55907250D02*
X39644500Y-55344750D01*
G75*
G02*
X39888250Y-55101000I243750J0D01*
G01*
X40375750Y-55101000D01*
G75*
G02*
X40619500Y-55344750I0J-243750D01*
G01*
X40619500Y-55907250D01*
G75*
G02*
X40375750Y-56151000I-243750J0D01*
G01*
X39888250Y-56151000D01*
G75*
G02*
X39644500Y-55907250I0J243750D01*
G01*
G37*
%TD*%
%TO.C,R14*%
G36*
G01*
X67918250Y-56133500D02*
X66955750Y-56133500D01*
G75*
G02*
X66687000Y-55864750I0J268750D01*
G01*
X66687000Y-55327250D01*
G75*
G02*
X66955750Y-55058500I268750J0D01*
G01*
X67918250Y-55058500D01*
G75*
G02*
X68187000Y-55327250I0J-268750D01*
G01*
X68187000Y-55864750D01*
G75*
G02*
X67918250Y-56133500I-268750J0D01*
G01*
G37*
G36*
G01*
X67918250Y-54258500D02*
X66955750Y-54258500D01*
G75*
G02*
X66687000Y-53989750I0J268750D01*
G01*
X66687000Y-53452250D01*
G75*
G02*
X66955750Y-53183500I268750J0D01*
G01*
X67918250Y-53183500D01*
G75*
G02*
X68187000Y-53452250I0J-268750D01*
G01*
X68187000Y-53989750D01*
G75*
G02*
X67918250Y-54258500I-268750J0D01*
G01*
G37*
%TD*%
%TO.C,R15*%
G36*
G01*
X42346500Y-53439750D02*
X42346500Y-54002250D01*
G75*
G02*
X42102750Y-54246000I-243750J0D01*
G01*
X41615250Y-54246000D01*
G75*
G02*
X41371500Y-54002250I0J243750D01*
G01*
X41371500Y-53439750D01*
G75*
G02*
X41615250Y-53196000I243750J0D01*
G01*
X42102750Y-53196000D01*
G75*
G02*
X42346500Y-53439750I0J-243750D01*
G01*
G37*
G36*
G01*
X43921500Y-53439750D02*
X43921500Y-54002250D01*
G75*
G02*
X43677750Y-54246000I-243750J0D01*
G01*
X43190250Y-54246000D01*
G75*
G02*
X42946500Y-54002250I0J243750D01*
G01*
X42946500Y-53439750D01*
G75*
G02*
X43190250Y-53196000I243750J0D01*
G01*
X43677750Y-53196000D01*
G75*
G02*
X43921500Y-53439750I0J-243750D01*
G01*
G37*
%TD*%
%TO.C,R16*%
G36*
G01*
X45750500Y-55344750D02*
X45750500Y-55907250D01*
G75*
G02*
X45506750Y-56151000I-243750J0D01*
G01*
X45019250Y-56151000D01*
G75*
G02*
X44775500Y-55907250I0J243750D01*
G01*
X44775500Y-55344750D01*
G75*
G02*
X45019250Y-55101000I243750J0D01*
G01*
X45506750Y-55101000D01*
G75*
G02*
X45750500Y-55344750I0J-243750D01*
G01*
G37*
G36*
G01*
X44175500Y-55344750D02*
X44175500Y-55907250D01*
G75*
G02*
X43931750Y-56151000I-243750J0D01*
G01*
X43444250Y-56151000D01*
G75*
G02*
X43200500Y-55907250I0J243750D01*
G01*
X43200500Y-55344750D01*
G75*
G02*
X43444250Y-55101000I243750J0D01*
G01*
X43931750Y-55101000D01*
G75*
G02*
X44175500Y-55344750I0J-243750D01*
G01*
G37*
%TD*%
%TO.C,R17*%
G36*
G01*
X75291000Y-59015000D02*
X76601000Y-59015000D01*
G75*
G02*
X76871000Y-59285000I0J-270000D01*
G01*
X76871000Y-60095000D01*
G75*
G02*
X76601000Y-60365000I-270000J0D01*
G01*
X75291000Y-60365000D01*
G75*
G02*
X75021000Y-60095000I0J270000D01*
G01*
X75021000Y-59285000D01*
G75*
G02*
X75291000Y-59015000I270000J0D01*
G01*
G37*
G36*
G01*
X75291000Y-56215000D02*
X76601000Y-56215000D01*
G75*
G02*
X76871000Y-56485000I0J-270000D01*
G01*
X76871000Y-57295000D01*
G75*
G02*
X76601000Y-57565000I-270000J0D01*
G01*
X75291000Y-57565000D01*
G75*
G02*
X75021000Y-57295000I0J270000D01*
G01*
X75021000Y-56485000D01*
G75*
G02*
X75291000Y-56215000I270000J0D01*
G01*
G37*
%TD*%
%TO.C,R18*%
G36*
G01*
X71187500Y-55980250D02*
X71187500Y-55017750D01*
G75*
G02*
X71456250Y-54749000I268750J0D01*
G01*
X71993750Y-54749000D01*
G75*
G02*
X72262500Y-55017750I0J-268750D01*
G01*
X72262500Y-55980250D01*
G75*
G02*
X71993750Y-56249000I-268750J0D01*
G01*
X71456250Y-56249000D01*
G75*
G02*
X71187500Y-55980250I0J268750D01*
G01*
G37*
G36*
G01*
X69312500Y-55980250D02*
X69312500Y-55017750D01*
G75*
G02*
X69581250Y-54749000I268750J0D01*
G01*
X70118750Y-54749000D01*
G75*
G02*
X70387500Y-55017750I0J-268750D01*
G01*
X70387500Y-55980250D01*
G75*
G02*
X70118750Y-56249000I-268750J0D01*
G01*
X69581250Y-56249000D01*
G75*
G02*
X69312500Y-55980250I0J268750D01*
G01*
G37*
%TD*%
%TO.C,R19*%
G36*
G01*
X39644500Y-68226250D02*
X39644500Y-67663750D01*
G75*
G02*
X39888250Y-67420000I243750J0D01*
G01*
X40375750Y-67420000D01*
G75*
G02*
X40619500Y-67663750I0J-243750D01*
G01*
X40619500Y-68226250D01*
G75*
G02*
X40375750Y-68470000I-243750J0D01*
G01*
X39888250Y-68470000D01*
G75*
G02*
X39644500Y-68226250I0J243750D01*
G01*
G37*
G36*
G01*
X41219500Y-68226250D02*
X41219500Y-67663750D01*
G75*
G02*
X41463250Y-67420000I243750J0D01*
G01*
X41950750Y-67420000D01*
G75*
G02*
X42194500Y-67663750I0J-243750D01*
G01*
X42194500Y-68226250D01*
G75*
G02*
X41950750Y-68470000I-243750J0D01*
G01*
X41463250Y-68470000D01*
G75*
G02*
X41219500Y-68226250I0J243750D01*
G01*
G37*
%TD*%
%TO.C,R20*%
G36*
G01*
X67918250Y-66577500D02*
X66955750Y-66577500D01*
G75*
G02*
X66687000Y-66308750I0J268750D01*
G01*
X66687000Y-65771250D01*
G75*
G02*
X66955750Y-65502500I268750J0D01*
G01*
X67918250Y-65502500D01*
G75*
G02*
X68187000Y-65771250I0J-268750D01*
G01*
X68187000Y-66308750D01*
G75*
G02*
X67918250Y-66577500I-268750J0D01*
G01*
G37*
G36*
G01*
X67918250Y-68452500D02*
X66955750Y-68452500D01*
G75*
G02*
X66687000Y-68183750I0J268750D01*
G01*
X66687000Y-67646250D01*
G75*
G02*
X66955750Y-67377500I268750J0D01*
G01*
X67918250Y-67377500D01*
G75*
G02*
X68187000Y-67646250I0J-268750D01*
G01*
X68187000Y-68183750D01*
G75*
G02*
X67918250Y-68452500I-268750J0D01*
G01*
G37*
%TD*%
%TO.C,R21*%
G36*
G01*
X43921500Y-65758750D02*
X43921500Y-66321250D01*
G75*
G02*
X43677750Y-66565000I-243750J0D01*
G01*
X43190250Y-66565000D01*
G75*
G02*
X42946500Y-66321250I0J243750D01*
G01*
X42946500Y-65758750D01*
G75*
G02*
X43190250Y-65515000I243750J0D01*
G01*
X43677750Y-65515000D01*
G75*
G02*
X43921500Y-65758750I0J-243750D01*
G01*
G37*
G36*
G01*
X42346500Y-65758750D02*
X42346500Y-66321250D01*
G75*
G02*
X42102750Y-66565000I-243750J0D01*
G01*
X41615250Y-66565000D01*
G75*
G02*
X41371500Y-66321250I0J243750D01*
G01*
X41371500Y-65758750D01*
G75*
G02*
X41615250Y-65515000I243750J0D01*
G01*
X42102750Y-65515000D01*
G75*
G02*
X42346500Y-65758750I0J-243750D01*
G01*
G37*
%TD*%
%TO.C,R22*%
G36*
G01*
X44124500Y-67663750D02*
X44124500Y-68226250D01*
G75*
G02*
X43880750Y-68470000I-243750J0D01*
G01*
X43393250Y-68470000D01*
G75*
G02*
X43149500Y-68226250I0J243750D01*
G01*
X43149500Y-67663750D01*
G75*
G02*
X43393250Y-67420000I243750J0D01*
G01*
X43880750Y-67420000D01*
G75*
G02*
X44124500Y-67663750I0J-243750D01*
G01*
G37*
G36*
G01*
X45699500Y-67663750D02*
X45699500Y-68226250D01*
G75*
G02*
X45455750Y-68470000I-243750J0D01*
G01*
X44968250Y-68470000D01*
G75*
G02*
X44724500Y-68226250I0J243750D01*
G01*
X44724500Y-67663750D01*
G75*
G02*
X44968250Y-67420000I243750J0D01*
G01*
X45455750Y-67420000D01*
G75*
G02*
X45699500Y-67663750I0J-243750D01*
G01*
G37*
%TD*%
%TO.C,R23*%
G36*
G01*
X75291000Y-68540000D02*
X76601000Y-68540000D01*
G75*
G02*
X76871000Y-68810000I0J-270000D01*
G01*
X76871000Y-69620000D01*
G75*
G02*
X76601000Y-69890000I-270000J0D01*
G01*
X75291000Y-69890000D01*
G75*
G02*
X75021000Y-69620000I0J270000D01*
G01*
X75021000Y-68810000D01*
G75*
G02*
X75291000Y-68540000I270000J0D01*
G01*
G37*
G36*
G01*
X75291000Y-71340000D02*
X76601000Y-71340000D01*
G75*
G02*
X76871000Y-71610000I0J-270000D01*
G01*
X76871000Y-72420000D01*
G75*
G02*
X76601000Y-72690000I-270000J0D01*
G01*
X75291000Y-72690000D01*
G75*
G02*
X75021000Y-72420000I0J270000D01*
G01*
X75021000Y-71610000D01*
G75*
G02*
X75291000Y-71340000I270000J0D01*
G01*
G37*
%TD*%
%TO.C,R24*%
G36*
G01*
X69312500Y-68299250D02*
X69312500Y-67336750D01*
G75*
G02*
X69581250Y-67068000I268750J0D01*
G01*
X70118750Y-67068000D01*
G75*
G02*
X70387500Y-67336750I0J-268750D01*
G01*
X70387500Y-68299250D01*
G75*
G02*
X70118750Y-68568000I-268750J0D01*
G01*
X69581250Y-68568000D01*
G75*
G02*
X69312500Y-68299250I0J268750D01*
G01*
G37*
G36*
G01*
X71187500Y-68299250D02*
X71187500Y-67336750D01*
G75*
G02*
X71456250Y-67068000I268750J0D01*
G01*
X71993750Y-67068000D01*
G75*
G02*
X72262500Y-67336750I0J-268750D01*
G01*
X72262500Y-68299250D01*
G75*
G02*
X71993750Y-68568000I-268750J0D01*
G01*
X71456250Y-68568000D01*
G75*
G02*
X71187500Y-68299250I0J268750D01*
G01*
G37*
%TD*%
%TO.C,R25*%
G36*
G01*
X41194000Y-80545250D02*
X41194000Y-79982750D01*
G75*
G02*
X41437750Y-79739000I243750J0D01*
G01*
X41925250Y-79739000D01*
G75*
G02*
X42169000Y-79982750I0J-243750D01*
G01*
X42169000Y-80545250D01*
G75*
G02*
X41925250Y-80789000I-243750J0D01*
G01*
X41437750Y-80789000D01*
G75*
G02*
X41194000Y-80545250I0J243750D01*
G01*
G37*
G36*
G01*
X39619000Y-80545250D02*
X39619000Y-79982750D01*
G75*
G02*
X39862750Y-79739000I243750J0D01*
G01*
X40350250Y-79739000D01*
G75*
G02*
X40594000Y-79982750I0J-243750D01*
G01*
X40594000Y-80545250D01*
G75*
G02*
X40350250Y-80789000I-243750J0D01*
G01*
X39862750Y-80789000D01*
G75*
G02*
X39619000Y-80545250I0J243750D01*
G01*
G37*
%TD*%
%TO.C,R26*%
G36*
G01*
X67918250Y-78896500D02*
X66955750Y-78896500D01*
G75*
G02*
X66687000Y-78627750I0J268750D01*
G01*
X66687000Y-78090250D01*
G75*
G02*
X66955750Y-77821500I268750J0D01*
G01*
X67918250Y-77821500D01*
G75*
G02*
X68187000Y-78090250I0J-268750D01*
G01*
X68187000Y-78627750D01*
G75*
G02*
X67918250Y-78896500I-268750J0D01*
G01*
G37*
G36*
G01*
X67918250Y-80771500D02*
X66955750Y-80771500D01*
G75*
G02*
X66687000Y-80502750I0J268750D01*
G01*
X66687000Y-79965250D01*
G75*
G02*
X66955750Y-79696500I268750J0D01*
G01*
X67918250Y-79696500D01*
G75*
G02*
X68187000Y-79965250I0J-268750D01*
G01*
X68187000Y-80502750D01*
G75*
G02*
X67918250Y-80771500I-268750J0D01*
G01*
G37*
%TD*%
%TO.C,R27*%
G36*
G01*
X42372000Y-78077750D02*
X42372000Y-78640250D01*
G75*
G02*
X42128250Y-78884000I-243750J0D01*
G01*
X41640750Y-78884000D01*
G75*
G02*
X41397000Y-78640250I0J243750D01*
G01*
X41397000Y-78077750D01*
G75*
G02*
X41640750Y-77834000I243750J0D01*
G01*
X42128250Y-77834000D01*
G75*
G02*
X42372000Y-78077750I0J-243750D01*
G01*
G37*
G36*
G01*
X43947000Y-78077750D02*
X43947000Y-78640250D01*
G75*
G02*
X43703250Y-78884000I-243750J0D01*
G01*
X43215750Y-78884000D01*
G75*
G02*
X42972000Y-78640250I0J243750D01*
G01*
X42972000Y-78077750D01*
G75*
G02*
X43215750Y-77834000I243750J0D01*
G01*
X43703250Y-77834000D01*
G75*
G02*
X43947000Y-78077750I0J-243750D01*
G01*
G37*
%TD*%
%TO.C,R28*%
G36*
G01*
X45699500Y-79982750D02*
X45699500Y-80545250D01*
G75*
G02*
X45455750Y-80789000I-243750J0D01*
G01*
X44968250Y-80789000D01*
G75*
G02*
X44724500Y-80545250I0J243750D01*
G01*
X44724500Y-79982750D01*
G75*
G02*
X44968250Y-79739000I243750J0D01*
G01*
X45455750Y-79739000D01*
G75*
G02*
X45699500Y-79982750I0J-243750D01*
G01*
G37*
G36*
G01*
X44124500Y-79982750D02*
X44124500Y-80545250D01*
G75*
G02*
X43880750Y-80789000I-243750J0D01*
G01*
X43393250Y-80789000D01*
G75*
G02*
X43149500Y-80545250I0J243750D01*
G01*
X43149500Y-79982750D01*
G75*
G02*
X43393250Y-79739000I243750J0D01*
G01*
X43880750Y-79739000D01*
G75*
G02*
X44124500Y-79982750I0J-243750D01*
G01*
G37*
%TD*%
%TO.C,R29*%
G36*
G01*
X75291000Y-83659000D02*
X76601000Y-83659000D01*
G75*
G02*
X76871000Y-83929000I0J-270000D01*
G01*
X76871000Y-84739000D01*
G75*
G02*
X76601000Y-85009000I-270000J0D01*
G01*
X75291000Y-85009000D01*
G75*
G02*
X75021000Y-84739000I0J270000D01*
G01*
X75021000Y-83929000D01*
G75*
G02*
X75291000Y-83659000I270000J0D01*
G01*
G37*
G36*
G01*
X75291000Y-80859000D02*
X76601000Y-80859000D01*
G75*
G02*
X76871000Y-81129000I0J-270000D01*
G01*
X76871000Y-81939000D01*
G75*
G02*
X76601000Y-82209000I-270000J0D01*
G01*
X75291000Y-82209000D01*
G75*
G02*
X75021000Y-81939000I0J270000D01*
G01*
X75021000Y-81129000D01*
G75*
G02*
X75291000Y-80859000I270000J0D01*
G01*
G37*
%TD*%
%TO.C,R30*%
G36*
G01*
X71187500Y-80618250D02*
X71187500Y-79655750D01*
G75*
G02*
X71456250Y-79387000I268750J0D01*
G01*
X71993750Y-79387000D01*
G75*
G02*
X72262500Y-79655750I0J-268750D01*
G01*
X72262500Y-80618250D01*
G75*
G02*
X71993750Y-80887000I-268750J0D01*
G01*
X71456250Y-80887000D01*
G75*
G02*
X71187500Y-80618250I0J268750D01*
G01*
G37*
G36*
G01*
X69312500Y-80618250D02*
X69312500Y-79655750D01*
G75*
G02*
X69581250Y-79387000I268750J0D01*
G01*
X70118750Y-79387000D01*
G75*
G02*
X70387500Y-79655750I0J-268750D01*
G01*
X70387500Y-80618250D01*
G75*
G02*
X70118750Y-80887000I-268750J0D01*
G01*
X69581250Y-80887000D01*
G75*
G02*
X69312500Y-80618250I0J268750D01*
G01*
G37*
%TD*%
%TO.C,R31*%
G36*
G01*
X39644500Y-92864250D02*
X39644500Y-92301750D01*
G75*
G02*
X39888250Y-92058000I243750J0D01*
G01*
X40375750Y-92058000D01*
G75*
G02*
X40619500Y-92301750I0J-243750D01*
G01*
X40619500Y-92864250D01*
G75*
G02*
X40375750Y-93108000I-243750J0D01*
G01*
X39888250Y-93108000D01*
G75*
G02*
X39644500Y-92864250I0J243750D01*
G01*
G37*
G36*
G01*
X41219500Y-92864250D02*
X41219500Y-92301750D01*
G75*
G02*
X41463250Y-92058000I243750J0D01*
G01*
X41950750Y-92058000D01*
G75*
G02*
X42194500Y-92301750I0J-243750D01*
G01*
X42194500Y-92864250D01*
G75*
G02*
X41950750Y-93108000I-243750J0D01*
G01*
X41463250Y-93108000D01*
G75*
G02*
X41219500Y-92864250I0J243750D01*
G01*
G37*
%TD*%
%TO.C,R32*%
G36*
G01*
X67918250Y-91245500D02*
X66955750Y-91245500D01*
G75*
G02*
X66687000Y-90976750I0J268750D01*
G01*
X66687000Y-90439250D01*
G75*
G02*
X66955750Y-90170500I268750J0D01*
G01*
X67918250Y-90170500D01*
G75*
G02*
X68187000Y-90439250I0J-268750D01*
G01*
X68187000Y-90976750D01*
G75*
G02*
X67918250Y-91245500I-268750J0D01*
G01*
G37*
G36*
G01*
X67918250Y-93120500D02*
X66955750Y-93120500D01*
G75*
G02*
X66687000Y-92851750I0J268750D01*
G01*
X66687000Y-92314250D01*
G75*
G02*
X66955750Y-92045500I268750J0D01*
G01*
X67918250Y-92045500D01*
G75*
G02*
X68187000Y-92314250I0J-268750D01*
G01*
X68187000Y-92851750D01*
G75*
G02*
X67918250Y-93120500I-268750J0D01*
G01*
G37*
%TD*%
%TO.C,R33*%
G36*
G01*
X43947000Y-90396750D02*
X43947000Y-90959250D01*
G75*
G02*
X43703250Y-91203000I-243750J0D01*
G01*
X43215750Y-91203000D01*
G75*
G02*
X42972000Y-90959250I0J243750D01*
G01*
X42972000Y-90396750D01*
G75*
G02*
X43215750Y-90153000I243750J0D01*
G01*
X43703250Y-90153000D01*
G75*
G02*
X43947000Y-90396750I0J-243750D01*
G01*
G37*
G36*
G01*
X42372000Y-90396750D02*
X42372000Y-90959250D01*
G75*
G02*
X42128250Y-91203000I-243750J0D01*
G01*
X41640750Y-91203000D01*
G75*
G02*
X41397000Y-90959250I0J243750D01*
G01*
X41397000Y-90396750D01*
G75*
G02*
X41640750Y-90153000I243750J0D01*
G01*
X42128250Y-90153000D01*
G75*
G02*
X42372000Y-90396750I0J-243750D01*
G01*
G37*
%TD*%
%TO.C,R34*%
G36*
G01*
X44124500Y-92301750D02*
X44124500Y-92864250D01*
G75*
G02*
X43880750Y-93108000I-243750J0D01*
G01*
X43393250Y-93108000D01*
G75*
G02*
X43149500Y-92864250I0J243750D01*
G01*
X43149500Y-92301750D01*
G75*
G02*
X43393250Y-92058000I243750J0D01*
G01*
X43880750Y-92058000D01*
G75*
G02*
X44124500Y-92301750I0J-243750D01*
G01*
G37*
G36*
G01*
X45699500Y-92301750D02*
X45699500Y-92864250D01*
G75*
G02*
X45455750Y-93108000I-243750J0D01*
G01*
X44968250Y-93108000D01*
G75*
G02*
X44724500Y-92864250I0J243750D01*
G01*
X44724500Y-92301750D01*
G75*
G02*
X44968250Y-92058000I243750J0D01*
G01*
X45455750Y-92058000D01*
G75*
G02*
X45699500Y-92301750I0J-243750D01*
G01*
G37*
%TD*%
%TO.C,R35*%
G36*
G01*
X75291000Y-93178000D02*
X76601000Y-93178000D01*
G75*
G02*
X76871000Y-93448000I0J-270000D01*
G01*
X76871000Y-94258000D01*
G75*
G02*
X76601000Y-94528000I-270000J0D01*
G01*
X75291000Y-94528000D01*
G75*
G02*
X75021000Y-94258000I0J270000D01*
G01*
X75021000Y-93448000D01*
G75*
G02*
X75291000Y-93178000I270000J0D01*
G01*
G37*
G36*
G01*
X75291000Y-95978000D02*
X76601000Y-95978000D01*
G75*
G02*
X76871000Y-96248000I0J-270000D01*
G01*
X76871000Y-97058000D01*
G75*
G02*
X76601000Y-97328000I-270000J0D01*
G01*
X75291000Y-97328000D01*
G75*
G02*
X75021000Y-97058000I0J270000D01*
G01*
X75021000Y-96248000D01*
G75*
G02*
X75291000Y-95978000I270000J0D01*
G01*
G37*
%TD*%
%TO.C,R36*%
G36*
G01*
X69312500Y-92937250D02*
X69312500Y-91974750D01*
G75*
G02*
X69581250Y-91706000I268750J0D01*
G01*
X70118750Y-91706000D01*
G75*
G02*
X70387500Y-91974750I0J-268750D01*
G01*
X70387500Y-92937250D01*
G75*
G02*
X70118750Y-93206000I-268750J0D01*
G01*
X69581250Y-93206000D01*
G75*
G02*
X69312500Y-92937250I0J268750D01*
G01*
G37*
G36*
G01*
X71187500Y-92937250D02*
X71187500Y-91974750D01*
G75*
G02*
X71456250Y-91706000I268750J0D01*
G01*
X71993750Y-91706000D01*
G75*
G02*
X72262500Y-91974750I0J-268750D01*
G01*
X72262500Y-92937250D01*
G75*
G02*
X71993750Y-93206000I-268750J0D01*
G01*
X71456250Y-93206000D01*
G75*
G02*
X71187500Y-92937250I0J268750D01*
G01*
G37*
%TD*%
%TO.C,R37*%
G36*
G01*
X39644500Y-105183250D02*
X39644500Y-104620750D01*
G75*
G02*
X39888250Y-104377000I243750J0D01*
G01*
X40375750Y-104377000D01*
G75*
G02*
X40619500Y-104620750I0J-243750D01*
G01*
X40619500Y-105183250D01*
G75*
G02*
X40375750Y-105427000I-243750J0D01*
G01*
X39888250Y-105427000D01*
G75*
G02*
X39644500Y-105183250I0J243750D01*
G01*
G37*
G36*
G01*
X41219500Y-105183250D02*
X41219500Y-104620750D01*
G75*
G02*
X41463250Y-104377000I243750J0D01*
G01*
X41950750Y-104377000D01*
G75*
G02*
X42194500Y-104620750I0J-243750D01*
G01*
X42194500Y-105183250D01*
G75*
G02*
X41950750Y-105427000I-243750J0D01*
G01*
X41463250Y-105427000D01*
G75*
G02*
X41219500Y-105183250I0J243750D01*
G01*
G37*
%TD*%
%TO.C,R38*%
G36*
G01*
X67918250Y-105409500D02*
X66955750Y-105409500D01*
G75*
G02*
X66687000Y-105140750I0J268750D01*
G01*
X66687000Y-104603250D01*
G75*
G02*
X66955750Y-104334500I268750J0D01*
G01*
X67918250Y-104334500D01*
G75*
G02*
X68187000Y-104603250I0J-268750D01*
G01*
X68187000Y-105140750D01*
G75*
G02*
X67918250Y-105409500I-268750J0D01*
G01*
G37*
G36*
G01*
X67918250Y-103534500D02*
X66955750Y-103534500D01*
G75*
G02*
X66687000Y-103265750I0J268750D01*
G01*
X66687000Y-102728250D01*
G75*
G02*
X66955750Y-102459500I268750J0D01*
G01*
X67918250Y-102459500D01*
G75*
G02*
X68187000Y-102728250I0J-268750D01*
G01*
X68187000Y-103265750D01*
G75*
G02*
X67918250Y-103534500I-268750J0D01*
G01*
G37*
%TD*%
%TO.C,R39*%
G36*
G01*
X42346500Y-102715750D02*
X42346500Y-103278250D01*
G75*
G02*
X42102750Y-103522000I-243750J0D01*
G01*
X41615250Y-103522000D01*
G75*
G02*
X41371500Y-103278250I0J243750D01*
G01*
X41371500Y-102715750D01*
G75*
G02*
X41615250Y-102472000I243750J0D01*
G01*
X42102750Y-102472000D01*
G75*
G02*
X42346500Y-102715750I0J-243750D01*
G01*
G37*
G36*
G01*
X43921500Y-102715750D02*
X43921500Y-103278250D01*
G75*
G02*
X43677750Y-103522000I-243750J0D01*
G01*
X43190250Y-103522000D01*
G75*
G02*
X42946500Y-103278250I0J243750D01*
G01*
X42946500Y-102715750D01*
G75*
G02*
X43190250Y-102472000I243750J0D01*
G01*
X43677750Y-102472000D01*
G75*
G02*
X43921500Y-102715750I0J-243750D01*
G01*
G37*
%TD*%
%TO.C,R40*%
G36*
G01*
X45750500Y-104620750D02*
X45750500Y-105183250D01*
G75*
G02*
X45506750Y-105427000I-243750J0D01*
G01*
X45019250Y-105427000D01*
G75*
G02*
X44775500Y-105183250I0J243750D01*
G01*
X44775500Y-104620750D01*
G75*
G02*
X45019250Y-104377000I243750J0D01*
G01*
X45506750Y-104377000D01*
G75*
G02*
X45750500Y-104620750I0J-243750D01*
G01*
G37*
G36*
G01*
X44175500Y-104620750D02*
X44175500Y-105183250D01*
G75*
G02*
X43931750Y-105427000I-243750J0D01*
G01*
X43444250Y-105427000D01*
G75*
G02*
X43200500Y-105183250I0J243750D01*
G01*
X43200500Y-104620750D01*
G75*
G02*
X43444250Y-104377000I243750J0D01*
G01*
X43931750Y-104377000D01*
G75*
G02*
X44175500Y-104620750I0J-243750D01*
G01*
G37*
%TD*%
%TO.C,R41*%
G36*
G01*
X75291000Y-108294000D02*
X76601000Y-108294000D01*
G75*
G02*
X76871000Y-108564000I0J-270000D01*
G01*
X76871000Y-109374000D01*
G75*
G02*
X76601000Y-109644000I-270000J0D01*
G01*
X75291000Y-109644000D01*
G75*
G02*
X75021000Y-109374000I0J270000D01*
G01*
X75021000Y-108564000D01*
G75*
G02*
X75291000Y-108294000I270000J0D01*
G01*
G37*
G36*
G01*
X75291000Y-105494000D02*
X76601000Y-105494000D01*
G75*
G02*
X76871000Y-105764000I0J-270000D01*
G01*
X76871000Y-106574000D01*
G75*
G02*
X76601000Y-106844000I-270000J0D01*
G01*
X75291000Y-106844000D01*
G75*
G02*
X75021000Y-106574000I0J270000D01*
G01*
X75021000Y-105764000D01*
G75*
G02*
X75291000Y-105494000I270000J0D01*
G01*
G37*
%TD*%
%TO.C,R42*%
G36*
G01*
X71187500Y-105256250D02*
X71187500Y-104293750D01*
G75*
G02*
X71456250Y-104025000I268750J0D01*
G01*
X71993750Y-104025000D01*
G75*
G02*
X72262500Y-104293750I0J-268750D01*
G01*
X72262500Y-105256250D01*
G75*
G02*
X71993750Y-105525000I-268750J0D01*
G01*
X71456250Y-105525000D01*
G75*
G02*
X71187500Y-105256250I0J268750D01*
G01*
G37*
G36*
G01*
X69312500Y-105256250D02*
X69312500Y-104293750D01*
G75*
G02*
X69581250Y-104025000I268750J0D01*
G01*
X70118750Y-104025000D01*
G75*
G02*
X70387500Y-104293750I0J-268750D01*
G01*
X70387500Y-105256250D01*
G75*
G02*
X70118750Y-105525000I-268750J0D01*
G01*
X69581250Y-105525000D01*
G75*
G02*
X69312500Y-105256250I0J268750D01*
G01*
G37*
%TD*%
%TO.C,R43*%
G36*
G01*
X39644500Y-117502250D02*
X39644500Y-116939750D01*
G75*
G02*
X39888250Y-116696000I243750J0D01*
G01*
X40375750Y-116696000D01*
G75*
G02*
X40619500Y-116939750I0J-243750D01*
G01*
X40619500Y-117502250D01*
G75*
G02*
X40375750Y-117746000I-243750J0D01*
G01*
X39888250Y-117746000D01*
G75*
G02*
X39644500Y-117502250I0J243750D01*
G01*
G37*
G36*
G01*
X41219500Y-117502250D02*
X41219500Y-116939750D01*
G75*
G02*
X41463250Y-116696000I243750J0D01*
G01*
X41950750Y-116696000D01*
G75*
G02*
X42194500Y-116939750I0J-243750D01*
G01*
X42194500Y-117502250D01*
G75*
G02*
X41950750Y-117746000I-243750J0D01*
G01*
X41463250Y-117746000D01*
G75*
G02*
X41219500Y-117502250I0J243750D01*
G01*
G37*
%TD*%
%TO.C,R44*%
G36*
G01*
X67918250Y-117728500D02*
X66955750Y-117728500D01*
G75*
G02*
X66687000Y-117459750I0J268750D01*
G01*
X66687000Y-116922250D01*
G75*
G02*
X66955750Y-116653500I268750J0D01*
G01*
X67918250Y-116653500D01*
G75*
G02*
X68187000Y-116922250I0J-268750D01*
G01*
X68187000Y-117459750D01*
G75*
G02*
X67918250Y-117728500I-268750J0D01*
G01*
G37*
G36*
G01*
X67918250Y-115853500D02*
X66955750Y-115853500D01*
G75*
G02*
X66687000Y-115584750I0J268750D01*
G01*
X66687000Y-115047250D01*
G75*
G02*
X66955750Y-114778500I268750J0D01*
G01*
X67918250Y-114778500D01*
G75*
G02*
X68187000Y-115047250I0J-268750D01*
G01*
X68187000Y-115584750D01*
G75*
G02*
X67918250Y-115853500I-268750J0D01*
G01*
G37*
%TD*%
%TO.C,R45*%
G36*
G01*
X43921500Y-115034750D02*
X43921500Y-115597250D01*
G75*
G02*
X43677750Y-115841000I-243750J0D01*
G01*
X43190250Y-115841000D01*
G75*
G02*
X42946500Y-115597250I0J243750D01*
G01*
X42946500Y-115034750D01*
G75*
G02*
X43190250Y-114791000I243750J0D01*
G01*
X43677750Y-114791000D01*
G75*
G02*
X43921500Y-115034750I0J-243750D01*
G01*
G37*
G36*
G01*
X42346500Y-115034750D02*
X42346500Y-115597250D01*
G75*
G02*
X42102750Y-115841000I-243750J0D01*
G01*
X41615250Y-115841000D01*
G75*
G02*
X41371500Y-115597250I0J243750D01*
G01*
X41371500Y-115034750D01*
G75*
G02*
X41615250Y-114791000I243750J0D01*
G01*
X42102750Y-114791000D01*
G75*
G02*
X42346500Y-115034750I0J-243750D01*
G01*
G37*
%TD*%
%TO.C,R46*%
G36*
G01*
X44175500Y-116939750D02*
X44175500Y-117502250D01*
G75*
G02*
X43931750Y-117746000I-243750J0D01*
G01*
X43444250Y-117746000D01*
G75*
G02*
X43200500Y-117502250I0J243750D01*
G01*
X43200500Y-116939750D01*
G75*
G02*
X43444250Y-116696000I243750J0D01*
G01*
X43931750Y-116696000D01*
G75*
G02*
X44175500Y-116939750I0J-243750D01*
G01*
G37*
G36*
G01*
X45750500Y-116939750D02*
X45750500Y-117502250D01*
G75*
G02*
X45506750Y-117746000I-243750J0D01*
G01*
X45019250Y-117746000D01*
G75*
G02*
X44775500Y-117502250I0J243750D01*
G01*
X44775500Y-116939750D01*
G75*
G02*
X45019250Y-116696000I243750J0D01*
G01*
X45506750Y-116696000D01*
G75*
G02*
X45750500Y-116939750I0J-243750D01*
G01*
G37*
%TD*%
%TO.C,R47*%
G36*
G01*
X75291000Y-117816000D02*
X76601000Y-117816000D01*
G75*
G02*
X76871000Y-118086000I0J-270000D01*
G01*
X76871000Y-118896000D01*
G75*
G02*
X76601000Y-119166000I-270000J0D01*
G01*
X75291000Y-119166000D01*
G75*
G02*
X75021000Y-118896000I0J270000D01*
G01*
X75021000Y-118086000D01*
G75*
G02*
X75291000Y-117816000I270000J0D01*
G01*
G37*
G36*
G01*
X75291000Y-120616000D02*
X76601000Y-120616000D01*
G75*
G02*
X76871000Y-120886000I0J-270000D01*
G01*
X76871000Y-121696000D01*
G75*
G02*
X76601000Y-121966000I-270000J0D01*
G01*
X75291000Y-121966000D01*
G75*
G02*
X75021000Y-121696000I0J270000D01*
G01*
X75021000Y-120886000D01*
G75*
G02*
X75291000Y-120616000I270000J0D01*
G01*
G37*
%TD*%
%TO.C,R48*%
G36*
G01*
X69312500Y-117575250D02*
X69312500Y-116612750D01*
G75*
G02*
X69581250Y-116344000I268750J0D01*
G01*
X70118750Y-116344000D01*
G75*
G02*
X70387500Y-116612750I0J-268750D01*
G01*
X70387500Y-117575250D01*
G75*
G02*
X70118750Y-117844000I-268750J0D01*
G01*
X69581250Y-117844000D01*
G75*
G02*
X69312500Y-117575250I0J268750D01*
G01*
G37*
G36*
G01*
X71187500Y-117575250D02*
X71187500Y-116612750D01*
G75*
G02*
X71456250Y-116344000I268750J0D01*
G01*
X71993750Y-116344000D01*
G75*
G02*
X72262500Y-116612750I0J-268750D01*
G01*
X72262500Y-117575250D01*
G75*
G02*
X71993750Y-117844000I-268750J0D01*
G01*
X71456250Y-117844000D01*
G75*
G02*
X71187500Y-117575250I0J268750D01*
G01*
G37*
%TD*%
%TO.C,R49*%
G36*
G01*
X41219500Y-129821250D02*
X41219500Y-129258750D01*
G75*
G02*
X41463250Y-129015000I243750J0D01*
G01*
X41950750Y-129015000D01*
G75*
G02*
X42194500Y-129258750I0J-243750D01*
G01*
X42194500Y-129821250D01*
G75*
G02*
X41950750Y-130065000I-243750J0D01*
G01*
X41463250Y-130065000D01*
G75*
G02*
X41219500Y-129821250I0J243750D01*
G01*
G37*
G36*
G01*
X39644500Y-129821250D02*
X39644500Y-129258750D01*
G75*
G02*
X39888250Y-129015000I243750J0D01*
G01*
X40375750Y-129015000D01*
G75*
G02*
X40619500Y-129258750I0J-243750D01*
G01*
X40619500Y-129821250D01*
G75*
G02*
X40375750Y-130065000I-243750J0D01*
G01*
X39888250Y-130065000D01*
G75*
G02*
X39644500Y-129821250I0J243750D01*
G01*
G37*
%TD*%
%TO.C,R50*%
G36*
G01*
X67918250Y-128202500D02*
X66955750Y-128202500D01*
G75*
G02*
X66687000Y-127933750I0J268750D01*
G01*
X66687000Y-127396250D01*
G75*
G02*
X66955750Y-127127500I268750J0D01*
G01*
X67918250Y-127127500D01*
G75*
G02*
X68187000Y-127396250I0J-268750D01*
G01*
X68187000Y-127933750D01*
G75*
G02*
X67918250Y-128202500I-268750J0D01*
G01*
G37*
G36*
G01*
X67918250Y-130077500D02*
X66955750Y-130077500D01*
G75*
G02*
X66687000Y-129808750I0J268750D01*
G01*
X66687000Y-129271250D01*
G75*
G02*
X66955750Y-129002500I268750J0D01*
G01*
X67918250Y-129002500D01*
G75*
G02*
X68187000Y-129271250I0J-268750D01*
G01*
X68187000Y-129808750D01*
G75*
G02*
X67918250Y-130077500I-268750J0D01*
G01*
G37*
%TD*%
%TO.C,R51*%
G36*
G01*
X42372000Y-127353750D02*
X42372000Y-127916250D01*
G75*
G02*
X42128250Y-128160000I-243750J0D01*
G01*
X41640750Y-128160000D01*
G75*
G02*
X41397000Y-127916250I0J243750D01*
G01*
X41397000Y-127353750D01*
G75*
G02*
X41640750Y-127110000I243750J0D01*
G01*
X42128250Y-127110000D01*
G75*
G02*
X42372000Y-127353750I0J-243750D01*
G01*
G37*
G36*
G01*
X43947000Y-127353750D02*
X43947000Y-127916250D01*
G75*
G02*
X43703250Y-128160000I-243750J0D01*
G01*
X43215750Y-128160000D01*
G75*
G02*
X42972000Y-127916250I0J243750D01*
G01*
X42972000Y-127353750D01*
G75*
G02*
X43215750Y-127110000I243750J0D01*
G01*
X43703250Y-127110000D01*
G75*
G02*
X43947000Y-127353750I0J-243750D01*
G01*
G37*
%TD*%
%TO.C,R52*%
G36*
G01*
X45750500Y-129258750D02*
X45750500Y-129821250D01*
G75*
G02*
X45506750Y-130065000I-243750J0D01*
G01*
X45019250Y-130065000D01*
G75*
G02*
X44775500Y-129821250I0J243750D01*
G01*
X44775500Y-129258750D01*
G75*
G02*
X45019250Y-129015000I243750J0D01*
G01*
X45506750Y-129015000D01*
G75*
G02*
X45750500Y-129258750I0J-243750D01*
G01*
G37*
G36*
G01*
X44175500Y-129258750D02*
X44175500Y-129821250D01*
G75*
G02*
X43931750Y-130065000I-243750J0D01*
G01*
X43444250Y-130065000D01*
G75*
G02*
X43200500Y-129821250I0J243750D01*
G01*
X43200500Y-129258750D01*
G75*
G02*
X43444250Y-129015000I243750J0D01*
G01*
X43931750Y-129015000D01*
G75*
G02*
X44175500Y-129258750I0J-243750D01*
G01*
G37*
%TD*%
%TO.C,R53*%
G36*
G01*
X75291000Y-132935000D02*
X76601000Y-132935000D01*
G75*
G02*
X76871000Y-133205000I0J-270000D01*
G01*
X76871000Y-134015000D01*
G75*
G02*
X76601000Y-134285000I-270000J0D01*
G01*
X75291000Y-134285000D01*
G75*
G02*
X75021000Y-134015000I0J270000D01*
G01*
X75021000Y-133205000D01*
G75*
G02*
X75291000Y-132935000I270000J0D01*
G01*
G37*
G36*
G01*
X75291000Y-130135000D02*
X76601000Y-130135000D01*
G75*
G02*
X76871000Y-130405000I0J-270000D01*
G01*
X76871000Y-131215000D01*
G75*
G02*
X76601000Y-131485000I-270000J0D01*
G01*
X75291000Y-131485000D01*
G75*
G02*
X75021000Y-131215000I0J270000D01*
G01*
X75021000Y-130405000D01*
G75*
G02*
X75291000Y-130135000I270000J0D01*
G01*
G37*
%TD*%
%TO.C,R54*%
G36*
G01*
X71217500Y-129894250D02*
X71217500Y-128931750D01*
G75*
G02*
X71486250Y-128663000I268750J0D01*
G01*
X72023750Y-128663000D01*
G75*
G02*
X72292500Y-128931750I0J-268750D01*
G01*
X72292500Y-129894250D01*
G75*
G02*
X72023750Y-130163000I-268750J0D01*
G01*
X71486250Y-130163000D01*
G75*
G02*
X71217500Y-129894250I0J268750D01*
G01*
G37*
G36*
G01*
X69342500Y-129894250D02*
X69342500Y-128931750D01*
G75*
G02*
X69611250Y-128663000I268750J0D01*
G01*
X70148750Y-128663000D01*
G75*
G02*
X70417500Y-128931750I0J-268750D01*
G01*
X70417500Y-129894250D01*
G75*
G02*
X70148750Y-130163000I-268750J0D01*
G01*
X69611250Y-130163000D01*
G75*
G02*
X69342500Y-129894250I0J268750D01*
G01*
G37*
%TD*%
%TO.C,R55*%
G36*
G01*
X39644500Y-142267250D02*
X39644500Y-141704750D01*
G75*
G02*
X39888250Y-141461000I243750J0D01*
G01*
X40375750Y-141461000D01*
G75*
G02*
X40619500Y-141704750I0J-243750D01*
G01*
X40619500Y-142267250D01*
G75*
G02*
X40375750Y-142511000I-243750J0D01*
G01*
X39888250Y-142511000D01*
G75*
G02*
X39644500Y-142267250I0J243750D01*
G01*
G37*
G36*
G01*
X41219500Y-142267250D02*
X41219500Y-141704750D01*
G75*
G02*
X41463250Y-141461000I243750J0D01*
G01*
X41950750Y-141461000D01*
G75*
G02*
X42194500Y-141704750I0J-243750D01*
G01*
X42194500Y-142267250D01*
G75*
G02*
X41950750Y-142511000I-243750J0D01*
G01*
X41463250Y-142511000D01*
G75*
G02*
X41219500Y-142267250I0J243750D01*
G01*
G37*
%TD*%
%TO.C,R56*%
G36*
G01*
X67918250Y-140491500D02*
X66955750Y-140491500D01*
G75*
G02*
X66687000Y-140222750I0J268750D01*
G01*
X66687000Y-139685250D01*
G75*
G02*
X66955750Y-139416500I268750J0D01*
G01*
X67918250Y-139416500D01*
G75*
G02*
X68187000Y-139685250I0J-268750D01*
G01*
X68187000Y-140222750D01*
G75*
G02*
X67918250Y-140491500I-268750J0D01*
G01*
G37*
G36*
G01*
X67918250Y-142366500D02*
X66955750Y-142366500D01*
G75*
G02*
X66687000Y-142097750I0J268750D01*
G01*
X66687000Y-141560250D01*
G75*
G02*
X66955750Y-141291500I268750J0D01*
G01*
X67918250Y-141291500D01*
G75*
G02*
X68187000Y-141560250I0J-268750D01*
G01*
X68187000Y-142097750D01*
G75*
G02*
X67918250Y-142366500I-268750J0D01*
G01*
G37*
%TD*%
%TO.C,R57*%
G36*
G01*
X42372000Y-139672750D02*
X42372000Y-140235250D01*
G75*
G02*
X42128250Y-140479000I-243750J0D01*
G01*
X41640750Y-140479000D01*
G75*
G02*
X41397000Y-140235250I0J243750D01*
G01*
X41397000Y-139672750D01*
G75*
G02*
X41640750Y-139429000I243750J0D01*
G01*
X42128250Y-139429000D01*
G75*
G02*
X42372000Y-139672750I0J-243750D01*
G01*
G37*
G36*
G01*
X43947000Y-139672750D02*
X43947000Y-140235250D01*
G75*
G02*
X43703250Y-140479000I-243750J0D01*
G01*
X43215750Y-140479000D01*
G75*
G02*
X42972000Y-140235250I0J243750D01*
G01*
X42972000Y-139672750D01*
G75*
G02*
X43215750Y-139429000I243750J0D01*
G01*
X43703250Y-139429000D01*
G75*
G02*
X43947000Y-139672750I0J-243750D01*
G01*
G37*
%TD*%
%TO.C,R58*%
G36*
G01*
X45725000Y-141704750D02*
X45725000Y-142267250D01*
G75*
G02*
X45481250Y-142511000I-243750J0D01*
G01*
X44993750Y-142511000D01*
G75*
G02*
X44750000Y-142267250I0J243750D01*
G01*
X44750000Y-141704750D01*
G75*
G02*
X44993750Y-141461000I243750J0D01*
G01*
X45481250Y-141461000D01*
G75*
G02*
X45725000Y-141704750I0J-243750D01*
G01*
G37*
G36*
G01*
X44150000Y-141704750D02*
X44150000Y-142267250D01*
G75*
G02*
X43906250Y-142511000I-243750J0D01*
G01*
X43418750Y-142511000D01*
G75*
G02*
X43175000Y-142267250I0J243750D01*
G01*
X43175000Y-141704750D01*
G75*
G02*
X43418750Y-141461000I243750J0D01*
G01*
X43906250Y-141461000D01*
G75*
G02*
X44150000Y-141704750I0J-243750D01*
G01*
G37*
%TD*%
%TO.C,R59*%
G36*
G01*
X75291000Y-142454000D02*
X76601000Y-142454000D01*
G75*
G02*
X76871000Y-142724000I0J-270000D01*
G01*
X76871000Y-143534000D01*
G75*
G02*
X76601000Y-143804000I-270000J0D01*
G01*
X75291000Y-143804000D01*
G75*
G02*
X75021000Y-143534000I0J270000D01*
G01*
X75021000Y-142724000D01*
G75*
G02*
X75291000Y-142454000I270000J0D01*
G01*
G37*
G36*
G01*
X75291000Y-145254000D02*
X76601000Y-145254000D01*
G75*
G02*
X76871000Y-145524000I0J-270000D01*
G01*
X76871000Y-146334000D01*
G75*
G02*
X76601000Y-146604000I-270000J0D01*
G01*
X75291000Y-146604000D01*
G75*
G02*
X75021000Y-146334000I0J270000D01*
G01*
X75021000Y-145524000D01*
G75*
G02*
X75291000Y-145254000I270000J0D01*
G01*
G37*
%TD*%
%TO.C,R60*%
G36*
G01*
X69312500Y-142213250D02*
X69312500Y-141250750D01*
G75*
G02*
X69581250Y-140982000I268750J0D01*
G01*
X70118750Y-140982000D01*
G75*
G02*
X70387500Y-141250750I0J-268750D01*
G01*
X70387500Y-142213250D01*
G75*
G02*
X70118750Y-142482000I-268750J0D01*
G01*
X69581250Y-142482000D01*
G75*
G02*
X69312500Y-142213250I0J268750D01*
G01*
G37*
G36*
G01*
X71187500Y-142213250D02*
X71187500Y-141250750D01*
G75*
G02*
X71456250Y-140982000I268750J0D01*
G01*
X71993750Y-140982000D01*
G75*
G02*
X72262500Y-141250750I0J-268750D01*
G01*
X72262500Y-142213250D01*
G75*
G02*
X71993750Y-142482000I-268750J0D01*
G01*
X71456250Y-142482000D01*
G75*
G02*
X71187500Y-142213250I0J268750D01*
G01*
G37*
%TD*%
%TO.C,R61*%
G36*
G01*
X39644500Y-154459250D02*
X39644500Y-153896750D01*
G75*
G02*
X39888250Y-153653000I243750J0D01*
G01*
X40375750Y-153653000D01*
G75*
G02*
X40619500Y-153896750I0J-243750D01*
G01*
X40619500Y-154459250D01*
G75*
G02*
X40375750Y-154703000I-243750J0D01*
G01*
X39888250Y-154703000D01*
G75*
G02*
X39644500Y-154459250I0J243750D01*
G01*
G37*
G36*
G01*
X41219500Y-154459250D02*
X41219500Y-153896750D01*
G75*
G02*
X41463250Y-153653000I243750J0D01*
G01*
X41950750Y-153653000D01*
G75*
G02*
X42194500Y-153896750I0J-243750D01*
G01*
X42194500Y-154459250D01*
G75*
G02*
X41950750Y-154703000I-243750J0D01*
G01*
X41463250Y-154703000D01*
G75*
G02*
X41219500Y-154459250I0J243750D01*
G01*
G37*
%TD*%
%TO.C,R62*%
G36*
G01*
X67918250Y-154715500D02*
X66955750Y-154715500D01*
G75*
G02*
X66687000Y-154446750I0J268750D01*
G01*
X66687000Y-153909250D01*
G75*
G02*
X66955750Y-153640500I268750J0D01*
G01*
X67918250Y-153640500D01*
G75*
G02*
X68187000Y-153909250I0J-268750D01*
G01*
X68187000Y-154446750D01*
G75*
G02*
X67918250Y-154715500I-268750J0D01*
G01*
G37*
G36*
G01*
X67918250Y-152840500D02*
X66955750Y-152840500D01*
G75*
G02*
X66687000Y-152571750I0J268750D01*
G01*
X66687000Y-152034250D01*
G75*
G02*
X66955750Y-151765500I268750J0D01*
G01*
X67918250Y-151765500D01*
G75*
G02*
X68187000Y-152034250I0J-268750D01*
G01*
X68187000Y-152571750D01*
G75*
G02*
X67918250Y-152840500I-268750J0D01*
G01*
G37*
%TD*%
%TO.C,R63*%
G36*
G01*
X101563482Y-176040000D02*
X99350518Y-176040000D01*
G75*
G02*
X99082000Y-175771482I0J268518D01*
G01*
X99082000Y-174858518D01*
G75*
G02*
X99350518Y-174590000I268518J0D01*
G01*
X101563482Y-174590000D01*
G75*
G02*
X101832000Y-174858518I0J-268518D01*
G01*
X101832000Y-175771482D01*
G75*
G02*
X101563482Y-176040000I-268518J0D01*
G01*
G37*
G36*
G01*
X101563482Y-171540000D02*
X99350518Y-171540000D01*
G75*
G02*
X99082000Y-171271482I0J268518D01*
G01*
X99082000Y-170358518D01*
G75*
G02*
X99350518Y-170090000I268518J0D01*
G01*
X101563482Y-170090000D01*
G75*
G02*
X101832000Y-170358518I0J-268518D01*
G01*
X101832000Y-171271482D01*
G75*
G02*
X101563482Y-171540000I-268518J0D01*
G01*
G37*
%TD*%
%TO.C,R64*%
G36*
G01*
X43947000Y-151991750D02*
X43947000Y-152554250D01*
G75*
G02*
X43703250Y-152798000I-243750J0D01*
G01*
X43215750Y-152798000D01*
G75*
G02*
X42972000Y-152554250I0J243750D01*
G01*
X42972000Y-151991750D01*
G75*
G02*
X43215750Y-151748000I243750J0D01*
G01*
X43703250Y-151748000D01*
G75*
G02*
X43947000Y-151991750I0J-243750D01*
G01*
G37*
G36*
G01*
X42372000Y-151991750D02*
X42372000Y-152554250D01*
G75*
G02*
X42128250Y-152798000I-243750J0D01*
G01*
X41640750Y-152798000D01*
G75*
G02*
X41397000Y-152554250I0J243750D01*
G01*
X41397000Y-151991750D01*
G75*
G02*
X41640750Y-151748000I243750J0D01*
G01*
X42128250Y-151748000D01*
G75*
G02*
X42372000Y-151991750I0J-243750D01*
G01*
G37*
%TD*%
%TO.C,R65*%
G36*
G01*
X44124500Y-153896750D02*
X44124500Y-154459250D01*
G75*
G02*
X43880750Y-154703000I-243750J0D01*
G01*
X43393250Y-154703000D01*
G75*
G02*
X43149500Y-154459250I0J243750D01*
G01*
X43149500Y-153896750D01*
G75*
G02*
X43393250Y-153653000I243750J0D01*
G01*
X43880750Y-153653000D01*
G75*
G02*
X44124500Y-153896750I0J-243750D01*
G01*
G37*
G36*
G01*
X45699500Y-153896750D02*
X45699500Y-154459250D01*
G75*
G02*
X45455750Y-154703000I-243750J0D01*
G01*
X44968250Y-154703000D01*
G75*
G02*
X44724500Y-154459250I0J243750D01*
G01*
X44724500Y-153896750D01*
G75*
G02*
X44968250Y-153653000I243750J0D01*
G01*
X45455750Y-153653000D01*
G75*
G02*
X45699500Y-153896750I0J-243750D01*
G01*
G37*
%TD*%
%TO.C,R66*%
G36*
G01*
X75291000Y-154767000D02*
X76601000Y-154767000D01*
G75*
G02*
X76871000Y-155037000I0J-270000D01*
G01*
X76871000Y-155847000D01*
G75*
G02*
X76601000Y-156117000I-270000J0D01*
G01*
X75291000Y-156117000D01*
G75*
G02*
X75021000Y-155847000I0J270000D01*
G01*
X75021000Y-155037000D01*
G75*
G02*
X75291000Y-154767000I270000J0D01*
G01*
G37*
G36*
G01*
X75291000Y-157567000D02*
X76601000Y-157567000D01*
G75*
G02*
X76871000Y-157837000I0J-270000D01*
G01*
X76871000Y-158647000D01*
G75*
G02*
X76601000Y-158917000I-270000J0D01*
G01*
X75291000Y-158917000D01*
G75*
G02*
X75021000Y-158647000I0J270000D01*
G01*
X75021000Y-157837000D01*
G75*
G02*
X75291000Y-157567000I270000J0D01*
G01*
G37*
%TD*%
%TO.C,R67*%
G36*
G01*
X71187500Y-154532250D02*
X71187500Y-153569750D01*
G75*
G02*
X71456250Y-153301000I268750J0D01*
G01*
X71993750Y-153301000D01*
G75*
G02*
X72262500Y-153569750I0J-268750D01*
G01*
X72262500Y-154532250D01*
G75*
G02*
X71993750Y-154801000I-268750J0D01*
G01*
X71456250Y-154801000D01*
G75*
G02*
X71187500Y-154532250I0J268750D01*
G01*
G37*
G36*
G01*
X69312500Y-154532250D02*
X69312500Y-153569750D01*
G75*
G02*
X69581250Y-153301000I268750J0D01*
G01*
X70118750Y-153301000D01*
G75*
G02*
X70387500Y-153569750I0J-268750D01*
G01*
X70387500Y-154532250D01*
G75*
G02*
X70118750Y-154801000I-268750J0D01*
G01*
X69581250Y-154801000D01*
G75*
G02*
X69312500Y-154532250I0J268750D01*
G01*
G37*
%TD*%
%TO.C,R68*%
G36*
G01*
X96667500Y-174144250D02*
X96667500Y-173581750D01*
G75*
G02*
X96911250Y-173338000I243750J0D01*
G01*
X97398750Y-173338000D01*
G75*
G02*
X97642500Y-173581750I0J-243750D01*
G01*
X97642500Y-174144250D01*
G75*
G02*
X97398750Y-174388000I-243750J0D01*
G01*
X96911250Y-174388000D01*
G75*
G02*
X96667500Y-174144250I0J243750D01*
G01*
G37*
G36*
G01*
X95092500Y-174144250D02*
X95092500Y-173581750D01*
G75*
G02*
X95336250Y-173338000I243750J0D01*
G01*
X95823750Y-173338000D01*
G75*
G02*
X96067500Y-173581750I0J-243750D01*
G01*
X96067500Y-174144250D01*
G75*
G02*
X95823750Y-174388000I-243750J0D01*
G01*
X95336250Y-174388000D01*
G75*
G02*
X95092500Y-174144250I0J243750D01*
G01*
G37*
%TD*%
%TO.C,R69*%
G36*
G01*
X41219500Y-166778250D02*
X41219500Y-166215750D01*
G75*
G02*
X41463250Y-165972000I243750J0D01*
G01*
X41950750Y-165972000D01*
G75*
G02*
X42194500Y-166215750I0J-243750D01*
G01*
X42194500Y-166778250D01*
G75*
G02*
X41950750Y-167022000I-243750J0D01*
G01*
X41463250Y-167022000D01*
G75*
G02*
X41219500Y-166778250I0J243750D01*
G01*
G37*
G36*
G01*
X39644500Y-166778250D02*
X39644500Y-166215750D01*
G75*
G02*
X39888250Y-165972000I243750J0D01*
G01*
X40375750Y-165972000D01*
G75*
G02*
X40619500Y-166215750I0J-243750D01*
G01*
X40619500Y-166778250D01*
G75*
G02*
X40375750Y-167022000I-243750J0D01*
G01*
X39888250Y-167022000D01*
G75*
G02*
X39644500Y-166778250I0J243750D01*
G01*
G37*
%TD*%
%TO.C,R70*%
G36*
G01*
X67918250Y-167034500D02*
X66955750Y-167034500D01*
G75*
G02*
X66687000Y-166765750I0J268750D01*
G01*
X66687000Y-166228250D01*
G75*
G02*
X66955750Y-165959500I268750J0D01*
G01*
X67918250Y-165959500D01*
G75*
G02*
X68187000Y-166228250I0J-268750D01*
G01*
X68187000Y-166765750D01*
G75*
G02*
X67918250Y-167034500I-268750J0D01*
G01*
G37*
G36*
G01*
X67918250Y-165159500D02*
X66955750Y-165159500D01*
G75*
G02*
X66687000Y-164890750I0J268750D01*
G01*
X66687000Y-164353250D01*
G75*
G02*
X66955750Y-164084500I268750J0D01*
G01*
X67918250Y-164084500D01*
G75*
G02*
X68187000Y-164353250I0J-268750D01*
G01*
X68187000Y-164890750D01*
G75*
G02*
X67918250Y-165159500I-268750J0D01*
G01*
G37*
%TD*%
%TO.C,R71*%
G36*
G01*
X96667500Y-171858250D02*
X96667500Y-171295750D01*
G75*
G02*
X96911250Y-171052000I243750J0D01*
G01*
X97398750Y-171052000D01*
G75*
G02*
X97642500Y-171295750I0J-243750D01*
G01*
X97642500Y-171858250D01*
G75*
G02*
X97398750Y-172102000I-243750J0D01*
G01*
X96911250Y-172102000D01*
G75*
G02*
X96667500Y-171858250I0J243750D01*
G01*
G37*
G36*
G01*
X95092500Y-171858250D02*
X95092500Y-171295750D01*
G75*
G02*
X95336250Y-171052000I243750J0D01*
G01*
X95823750Y-171052000D01*
G75*
G02*
X96067500Y-171295750I0J-243750D01*
G01*
X96067500Y-171858250D01*
G75*
G02*
X95823750Y-172102000I-243750J0D01*
G01*
X95336250Y-172102000D01*
G75*
G02*
X95092500Y-171858250I0J243750D01*
G01*
G37*
%TD*%
%TO.C,R72*%
G36*
G01*
X43947000Y-164310750D02*
X43947000Y-164873250D01*
G75*
G02*
X43703250Y-165117000I-243750J0D01*
G01*
X43215750Y-165117000D01*
G75*
G02*
X42972000Y-164873250I0J243750D01*
G01*
X42972000Y-164310750D01*
G75*
G02*
X43215750Y-164067000I243750J0D01*
G01*
X43703250Y-164067000D01*
G75*
G02*
X43947000Y-164310750I0J-243750D01*
G01*
G37*
G36*
G01*
X42372000Y-164310750D02*
X42372000Y-164873250D01*
G75*
G02*
X42128250Y-165117000I-243750J0D01*
G01*
X41640750Y-165117000D01*
G75*
G02*
X41397000Y-164873250I0J243750D01*
G01*
X41397000Y-164310750D01*
G75*
G02*
X41640750Y-164067000I243750J0D01*
G01*
X42128250Y-164067000D01*
G75*
G02*
X42372000Y-164310750I0J-243750D01*
G01*
G37*
%TD*%
%TO.C,R73*%
G36*
G01*
X44124500Y-166215750D02*
X44124500Y-166778250D01*
G75*
G02*
X43880750Y-167022000I-243750J0D01*
G01*
X43393250Y-167022000D01*
G75*
G02*
X43149500Y-166778250I0J243750D01*
G01*
X43149500Y-166215750D01*
G75*
G02*
X43393250Y-165972000I243750J0D01*
G01*
X43880750Y-165972000D01*
G75*
G02*
X44124500Y-166215750I0J-243750D01*
G01*
G37*
G36*
G01*
X45699500Y-166215750D02*
X45699500Y-166778250D01*
G75*
G02*
X45455750Y-167022000I-243750J0D01*
G01*
X44968250Y-167022000D01*
G75*
G02*
X44724500Y-166778250I0J243750D01*
G01*
X44724500Y-166215750D01*
G75*
G02*
X44968250Y-165972000I243750J0D01*
G01*
X45455750Y-165972000D01*
G75*
G02*
X45699500Y-166215750I0J-243750D01*
G01*
G37*
%TD*%
%TO.C,R74*%
G36*
G01*
X75291000Y-169892000D02*
X76601000Y-169892000D01*
G75*
G02*
X76871000Y-170162000I0J-270000D01*
G01*
X76871000Y-170972000D01*
G75*
G02*
X76601000Y-171242000I-270000J0D01*
G01*
X75291000Y-171242000D01*
G75*
G02*
X75021000Y-170972000I0J270000D01*
G01*
X75021000Y-170162000D01*
G75*
G02*
X75291000Y-169892000I270000J0D01*
G01*
G37*
G36*
G01*
X75291000Y-167092000D02*
X76601000Y-167092000D01*
G75*
G02*
X76871000Y-167362000I0J-270000D01*
G01*
X76871000Y-168172000D01*
G75*
G02*
X76601000Y-168442000I-270000J0D01*
G01*
X75291000Y-168442000D01*
G75*
G02*
X75021000Y-168172000I0J270000D01*
G01*
X75021000Y-167362000D01*
G75*
G02*
X75291000Y-167092000I270000J0D01*
G01*
G37*
%TD*%
%TO.C,R75*%
G36*
G01*
X69312500Y-166851250D02*
X69312500Y-165888750D01*
G75*
G02*
X69581250Y-165620000I268750J0D01*
G01*
X70118750Y-165620000D01*
G75*
G02*
X70387500Y-165888750I0J-268750D01*
G01*
X70387500Y-166851250D01*
G75*
G02*
X70118750Y-167120000I-268750J0D01*
G01*
X69581250Y-167120000D01*
G75*
G02*
X69312500Y-166851250I0J268750D01*
G01*
G37*
G36*
G01*
X71187500Y-166851250D02*
X71187500Y-165888750D01*
G75*
G02*
X71456250Y-165620000I268750J0D01*
G01*
X71993750Y-165620000D01*
G75*
G02*
X72262500Y-165888750I0J-268750D01*
G01*
X72262500Y-166851250D01*
G75*
G02*
X71993750Y-167120000I-268750J0D01*
G01*
X71456250Y-167120000D01*
G75*
G02*
X71187500Y-166851250I0J268750D01*
G01*
G37*
%TD*%
%TO.C,U1*%
G36*
G01*
X93986000Y-173307000D02*
X93986000Y-173657000D01*
G75*
G02*
X93811000Y-173832000I-175000J0D01*
G01*
X92111000Y-173832000D01*
G75*
G02*
X91936000Y-173657000I0J175000D01*
G01*
X91936000Y-173307000D01*
G75*
G02*
X92111000Y-173132000I175000J0D01*
G01*
X93811000Y-173132000D01*
G75*
G02*
X93986000Y-173307000I0J-175000D01*
G01*
G37*
G36*
G01*
X93986000Y-172037000D02*
X93986000Y-172387000D01*
G75*
G02*
X93811000Y-172562000I-175000J0D01*
G01*
X92111000Y-172562000D01*
G75*
G02*
X91936000Y-172387000I0J175000D01*
G01*
X91936000Y-172037000D01*
G75*
G02*
X92111000Y-171862000I175000J0D01*
G01*
X93811000Y-171862000D01*
G75*
G02*
X93986000Y-172037000I0J-175000D01*
G01*
G37*
G36*
G01*
X93986000Y-170767000D02*
X93986000Y-171117000D01*
G75*
G02*
X93811000Y-171292000I-175000J0D01*
G01*
X92111000Y-171292000D01*
G75*
G02*
X91936000Y-171117000I0J175000D01*
G01*
X91936000Y-170767000D01*
G75*
G02*
X92111000Y-170592000I175000J0D01*
G01*
X93811000Y-170592000D01*
G75*
G02*
X93986000Y-170767000I0J-175000D01*
G01*
G37*
G36*
G01*
X93986000Y-169497000D02*
X93986000Y-169847000D01*
G75*
G02*
X93811000Y-170022000I-175000J0D01*
G01*
X92111000Y-170022000D01*
G75*
G02*
X91936000Y-169847000I0J175000D01*
G01*
X91936000Y-169497000D01*
G75*
G02*
X92111000Y-169322000I175000J0D01*
G01*
X93811000Y-169322000D01*
G75*
G02*
X93986000Y-169497000I0J-175000D01*
G01*
G37*
G36*
G01*
X89036000Y-169497000D02*
X89036000Y-169847000D01*
G75*
G02*
X88861000Y-170022000I-175000J0D01*
G01*
X87161000Y-170022000D01*
G75*
G02*
X86986000Y-169847000I0J175000D01*
G01*
X86986000Y-169497000D01*
G75*
G02*
X87161000Y-169322000I175000J0D01*
G01*
X88861000Y-169322000D01*
G75*
G02*
X89036000Y-169497000I0J-175000D01*
G01*
G37*
G36*
G01*
X89036000Y-170767000D02*
X89036000Y-171117000D01*
G75*
G02*
X88861000Y-171292000I-175000J0D01*
G01*
X87161000Y-171292000D01*
G75*
G02*
X86986000Y-171117000I0J175000D01*
G01*
X86986000Y-170767000D01*
G75*
G02*
X87161000Y-170592000I175000J0D01*
G01*
X88861000Y-170592000D01*
G75*
G02*
X89036000Y-170767000I0J-175000D01*
G01*
G37*
G36*
G01*
X89036000Y-172037000D02*
X89036000Y-172387000D01*
G75*
G02*
X88861000Y-172562000I-175000J0D01*
G01*
X87161000Y-172562000D01*
G75*
G02*
X86986000Y-172387000I0J175000D01*
G01*
X86986000Y-172037000D01*
G75*
G02*
X87161000Y-171862000I175000J0D01*
G01*
X88861000Y-171862000D01*
G75*
G02*
X89036000Y-172037000I0J-175000D01*
G01*
G37*
G36*
G01*
X89036000Y-173307000D02*
X89036000Y-173657000D01*
G75*
G02*
X88861000Y-173832000I-175000J0D01*
G01*
X87161000Y-173832000D01*
G75*
G02*
X86986000Y-173657000I0J175000D01*
G01*
X86986000Y-173307000D01*
G75*
G02*
X87161000Y-173132000I175000J0D01*
G01*
X88861000Y-173132000D01*
G75*
G02*
X89036000Y-173307000I0J-175000D01*
G01*
G37*
%TD*%
%TO.C,C16*%
G36*
G01*
X98198250Y-163835000D02*
X97635750Y-163835000D01*
G75*
G02*
X97392000Y-163591250I0J243750D01*
G01*
X97392000Y-163103750D01*
G75*
G02*
X97635750Y-162860000I243750J0D01*
G01*
X98198250Y-162860000D01*
G75*
G02*
X98442000Y-163103750I0J-243750D01*
G01*
X98442000Y-163591250D01*
G75*
G02*
X98198250Y-163835000I-243750J0D01*
G01*
G37*
G36*
G01*
X98198250Y-162260000D02*
X97635750Y-162260000D01*
G75*
G02*
X97392000Y-162016250I0J243750D01*
G01*
X97392000Y-161528750D01*
G75*
G02*
X97635750Y-161285000I243750J0D01*
G01*
X98198250Y-161285000D01*
G75*
G02*
X98442000Y-161528750I0J-243750D01*
G01*
X98442000Y-162016250D01*
G75*
G02*
X98198250Y-162260000I-243750J0D01*
G01*
G37*
%TD*%
D13*
%TO.C,J4*%
X112776000Y-41656000D03*
%TD*%
%TO.C,J5*%
X114046000Y-27559000D03*
%TD*%
%TO.C,J6*%
X123444000Y-27432000D03*
%TD*%
%TO.C,R87*%
G36*
G01*
X65121262Y-47125000D02*
X64164738Y-47125000D01*
G75*
G02*
X63893000Y-46853262I0J271738D01*
G01*
X63893000Y-46146738D01*
G75*
G02*
X64164738Y-45875000I271738J0D01*
G01*
X65121262Y-45875000D01*
G75*
G02*
X65393000Y-46146738I0J-271738D01*
G01*
X65393000Y-46853262D01*
G75*
G02*
X65121262Y-47125000I-271738J0D01*
G01*
G37*
G36*
G01*
X65121262Y-45075000D02*
X64164738Y-45075000D01*
G75*
G02*
X63893000Y-44803262I0J271738D01*
G01*
X63893000Y-44096738D01*
G75*
G02*
X64164738Y-43825000I271738J0D01*
G01*
X65121262Y-43825000D01*
G75*
G02*
X65393000Y-44096738I0J-271738D01*
G01*
X65393000Y-44803262D01*
G75*
G02*
X65121262Y-45075000I-271738J0D01*
G01*
G37*
%TD*%
%TO.C,R95*%
G36*
G01*
X65121262Y-57385000D02*
X64164738Y-57385000D01*
G75*
G02*
X63893000Y-57113262I0J271738D01*
G01*
X63893000Y-56406738D01*
G75*
G02*
X64164738Y-56135000I271738J0D01*
G01*
X65121262Y-56135000D01*
G75*
G02*
X65393000Y-56406738I0J-271738D01*
G01*
X65393000Y-57113262D01*
G75*
G02*
X65121262Y-57385000I-271738J0D01*
G01*
G37*
G36*
G01*
X65121262Y-59435000D02*
X64164738Y-59435000D01*
G75*
G02*
X63893000Y-59163262I0J271738D01*
G01*
X63893000Y-58456738D01*
G75*
G02*
X64164738Y-58185000I271738J0D01*
G01*
X65121262Y-58185000D01*
G75*
G02*
X65393000Y-58456738I0J-271738D01*
G01*
X65393000Y-59163262D01*
G75*
G02*
X65121262Y-59435000I-271738J0D01*
G01*
G37*
%TD*%
%TO.C,R103*%
G36*
G01*
X65121262Y-71745000D02*
X64164738Y-71745000D01*
G75*
G02*
X63893000Y-71473262I0J271738D01*
G01*
X63893000Y-70766738D01*
G75*
G02*
X64164738Y-70495000I271738J0D01*
G01*
X65121262Y-70495000D01*
G75*
G02*
X65393000Y-70766738I0J-271738D01*
G01*
X65393000Y-71473262D01*
G75*
G02*
X65121262Y-71745000I-271738J0D01*
G01*
G37*
G36*
G01*
X65121262Y-69695000D02*
X64164738Y-69695000D01*
G75*
G02*
X63893000Y-69423262I0J271738D01*
G01*
X63893000Y-68716738D01*
G75*
G02*
X64164738Y-68445000I271738J0D01*
G01*
X65121262Y-68445000D01*
G75*
G02*
X65393000Y-68716738I0J-271738D01*
G01*
X65393000Y-69423262D01*
G75*
G02*
X65121262Y-69695000I-271738J0D01*
G01*
G37*
%TD*%
%TO.C,R111*%
G36*
G01*
X65121262Y-82014000D02*
X64164738Y-82014000D01*
G75*
G02*
X63893000Y-81742262I0J271738D01*
G01*
X63893000Y-81035738D01*
G75*
G02*
X64164738Y-80764000I271738J0D01*
G01*
X65121262Y-80764000D01*
G75*
G02*
X65393000Y-81035738I0J-271738D01*
G01*
X65393000Y-81742262D01*
G75*
G02*
X65121262Y-82014000I-271738J0D01*
G01*
G37*
G36*
G01*
X65121262Y-84064000D02*
X64164738Y-84064000D01*
G75*
G02*
X63893000Y-83792262I0J271738D01*
G01*
X63893000Y-83085738D01*
G75*
G02*
X64164738Y-82814000I271738J0D01*
G01*
X65121262Y-82814000D01*
G75*
G02*
X65393000Y-83085738I0J-271738D01*
G01*
X65393000Y-83792262D01*
G75*
G02*
X65121262Y-84064000I-271738J0D01*
G01*
G37*
%TD*%
%TO.C,R119*%
G36*
G01*
X65121262Y-94333000D02*
X64164738Y-94333000D01*
G75*
G02*
X63893000Y-94061262I0J271738D01*
G01*
X63893000Y-93354738D01*
G75*
G02*
X64164738Y-93083000I271738J0D01*
G01*
X65121262Y-93083000D01*
G75*
G02*
X65393000Y-93354738I0J-271738D01*
G01*
X65393000Y-94061262D01*
G75*
G02*
X65121262Y-94333000I-271738J0D01*
G01*
G37*
G36*
G01*
X65121262Y-96383000D02*
X64164738Y-96383000D01*
G75*
G02*
X63893000Y-96111262I0J271738D01*
G01*
X63893000Y-95404738D01*
G75*
G02*
X64164738Y-95133000I271738J0D01*
G01*
X65121262Y-95133000D01*
G75*
G02*
X65393000Y-95404738I0J-271738D01*
G01*
X65393000Y-96111262D01*
G75*
G02*
X65121262Y-96383000I-271738J0D01*
G01*
G37*
%TD*%
%TO.C,R127*%
G36*
G01*
X65121262Y-108702000D02*
X64164738Y-108702000D01*
G75*
G02*
X63893000Y-108430262I0J271738D01*
G01*
X63893000Y-107723738D01*
G75*
G02*
X64164738Y-107452000I271738J0D01*
G01*
X65121262Y-107452000D01*
G75*
G02*
X65393000Y-107723738I0J-271738D01*
G01*
X65393000Y-108430262D01*
G75*
G02*
X65121262Y-108702000I-271738J0D01*
G01*
G37*
G36*
G01*
X65121262Y-106652000D02*
X64164738Y-106652000D01*
G75*
G02*
X63893000Y-106380262I0J271738D01*
G01*
X63893000Y-105673738D01*
G75*
G02*
X64164738Y-105402000I271738J0D01*
G01*
X65121262Y-105402000D01*
G75*
G02*
X65393000Y-105673738I0J-271738D01*
G01*
X65393000Y-106380262D01*
G75*
G02*
X65121262Y-106652000I-271738J0D01*
G01*
G37*
%TD*%
%TO.C,R135*%
G36*
G01*
X65121262Y-118971000D02*
X64164738Y-118971000D01*
G75*
G02*
X63893000Y-118699262I0J271738D01*
G01*
X63893000Y-117992738D01*
G75*
G02*
X64164738Y-117721000I271738J0D01*
G01*
X65121262Y-117721000D01*
G75*
G02*
X65393000Y-117992738I0J-271738D01*
G01*
X65393000Y-118699262D01*
G75*
G02*
X65121262Y-118971000I-271738J0D01*
G01*
G37*
G36*
G01*
X65121262Y-121021000D02*
X64164738Y-121021000D01*
G75*
G02*
X63893000Y-120749262I0J271738D01*
G01*
X63893000Y-120042738D01*
G75*
G02*
X64164738Y-119771000I271738J0D01*
G01*
X65121262Y-119771000D01*
G75*
G02*
X65393000Y-120042738I0J-271738D01*
G01*
X65393000Y-120749262D01*
G75*
G02*
X65121262Y-121021000I-271738J0D01*
G01*
G37*
%TD*%
%TO.C,R143*%
G36*
G01*
X65121262Y-131290000D02*
X64164738Y-131290000D01*
G75*
G02*
X63893000Y-131018262I0J271738D01*
G01*
X63893000Y-130311738D01*
G75*
G02*
X64164738Y-130040000I271738J0D01*
G01*
X65121262Y-130040000D01*
G75*
G02*
X65393000Y-130311738I0J-271738D01*
G01*
X65393000Y-131018262D01*
G75*
G02*
X65121262Y-131290000I-271738J0D01*
G01*
G37*
G36*
G01*
X65121262Y-133340000D02*
X64164738Y-133340000D01*
G75*
G02*
X63893000Y-133068262I0J271738D01*
G01*
X63893000Y-132361738D01*
G75*
G02*
X64164738Y-132090000I271738J0D01*
G01*
X65121262Y-132090000D01*
G75*
G02*
X65393000Y-132361738I0J-271738D01*
G01*
X65393000Y-133068262D01*
G75*
G02*
X65121262Y-133340000I-271738J0D01*
G01*
G37*
%TD*%
%TO.C,R151*%
G36*
G01*
X65121262Y-145677000D02*
X64164738Y-145677000D01*
G75*
G02*
X63893000Y-145405262I0J271738D01*
G01*
X63893000Y-144698738D01*
G75*
G02*
X64164738Y-144427000I271738J0D01*
G01*
X65121262Y-144427000D01*
G75*
G02*
X65393000Y-144698738I0J-271738D01*
G01*
X65393000Y-145405262D01*
G75*
G02*
X65121262Y-145677000I-271738J0D01*
G01*
G37*
G36*
G01*
X65121262Y-143627000D02*
X64164738Y-143627000D01*
G75*
G02*
X63893000Y-143355262I0J271738D01*
G01*
X63893000Y-142648738D01*
G75*
G02*
X64164738Y-142377000I271738J0D01*
G01*
X65121262Y-142377000D01*
G75*
G02*
X65393000Y-142648738I0J-271738D01*
G01*
X65393000Y-143355262D01*
G75*
G02*
X65121262Y-143627000I-271738J0D01*
G01*
G37*
%TD*%
%TO.C,R159*%
G36*
G01*
X65121262Y-157987000D02*
X64164738Y-157987000D01*
G75*
G02*
X63893000Y-157715262I0J271738D01*
G01*
X63893000Y-157008738D01*
G75*
G02*
X64164738Y-156737000I271738J0D01*
G01*
X65121262Y-156737000D01*
G75*
G02*
X65393000Y-157008738I0J-271738D01*
G01*
X65393000Y-157715262D01*
G75*
G02*
X65121262Y-157987000I-271738J0D01*
G01*
G37*
G36*
G01*
X65121262Y-155937000D02*
X64164738Y-155937000D01*
G75*
G02*
X63893000Y-155665262I0J271738D01*
G01*
X63893000Y-154958738D01*
G75*
G02*
X64164738Y-154687000I271738J0D01*
G01*
X65121262Y-154687000D01*
G75*
G02*
X65393000Y-154958738I0J-271738D01*
G01*
X65393000Y-155665262D01*
G75*
G02*
X65121262Y-155937000I-271738J0D01*
G01*
G37*
%TD*%
%TO.C,R166*%
G36*
G01*
X84907500Y-172874250D02*
X84907500Y-172311750D01*
G75*
G02*
X85151250Y-172068000I243750J0D01*
G01*
X85638750Y-172068000D01*
G75*
G02*
X85882500Y-172311750I0J-243750D01*
G01*
X85882500Y-172874250D01*
G75*
G02*
X85638750Y-173118000I-243750J0D01*
G01*
X85151250Y-173118000D01*
G75*
G02*
X84907500Y-172874250I0J243750D01*
G01*
G37*
G36*
G01*
X83332500Y-172874250D02*
X83332500Y-172311750D01*
G75*
G02*
X83576250Y-172068000I243750J0D01*
G01*
X84063750Y-172068000D01*
G75*
G02*
X84307500Y-172311750I0J-243750D01*
G01*
X84307500Y-172874250D01*
G75*
G02*
X84063750Y-173118000I-243750J0D01*
G01*
X83576250Y-173118000D01*
G75*
G02*
X83332500Y-172874250I0J243750D01*
G01*
G37*
%TD*%
%TO.C,R168*%
G36*
G01*
X65121262Y-168265000D02*
X64164738Y-168265000D01*
G75*
G02*
X63893000Y-167993262I0J271738D01*
G01*
X63893000Y-167286738D01*
G75*
G02*
X64164738Y-167015000I271738J0D01*
G01*
X65121262Y-167015000D01*
G75*
G02*
X65393000Y-167286738I0J-271738D01*
G01*
X65393000Y-167993262D01*
G75*
G02*
X65121262Y-168265000I-271738J0D01*
G01*
G37*
G36*
G01*
X65121262Y-170315000D02*
X64164738Y-170315000D01*
G75*
G02*
X63893000Y-170043262I0J271738D01*
G01*
X63893000Y-169336738D01*
G75*
G02*
X64164738Y-169065000I271738J0D01*
G01*
X65121262Y-169065000D01*
G75*
G02*
X65393000Y-169336738I0J-271738D01*
G01*
X65393000Y-170043262D01*
G75*
G02*
X65121262Y-170315000I-271738J0D01*
G01*
G37*
%TD*%
%TO.C,R172*%
G36*
G01*
X83332500Y-170588250D02*
X83332500Y-170025750D01*
G75*
G02*
X83576250Y-169782000I243750J0D01*
G01*
X84063750Y-169782000D01*
G75*
G02*
X84307500Y-170025750I0J-243750D01*
G01*
X84307500Y-170588250D01*
G75*
G02*
X84063750Y-170832000I-243750J0D01*
G01*
X83576250Y-170832000D01*
G75*
G02*
X83332500Y-170588250I0J243750D01*
G01*
G37*
G36*
G01*
X84907500Y-170588250D02*
X84907500Y-170025750D01*
G75*
G02*
X85151250Y-169782000I243750J0D01*
G01*
X85638750Y-169782000D01*
G75*
G02*
X85882500Y-170025750I0J-243750D01*
G01*
X85882500Y-170588250D01*
G75*
G02*
X85638750Y-170832000I-243750J0D01*
G01*
X85151250Y-170832000D01*
G75*
G02*
X84907500Y-170588250I0J243750D01*
G01*
G37*
%TD*%
%TO.C,U2*%
G36*
G01*
X110411000Y-37790000D02*
X110061000Y-37790000D01*
G75*
G02*
X109886000Y-37615000I0J175000D01*
G01*
X109886000Y-35915000D01*
G75*
G02*
X110061000Y-35740000I175000J0D01*
G01*
X110411000Y-35740000D01*
G75*
G02*
X110586000Y-35915000I0J-175000D01*
G01*
X110586000Y-37615000D01*
G75*
G02*
X110411000Y-37790000I-175000J0D01*
G01*
G37*
G36*
G01*
X111681000Y-37790000D02*
X111331000Y-37790000D01*
G75*
G02*
X111156000Y-37615000I0J175000D01*
G01*
X111156000Y-35915000D01*
G75*
G02*
X111331000Y-35740000I175000J0D01*
G01*
X111681000Y-35740000D01*
G75*
G02*
X111856000Y-35915000I0J-175000D01*
G01*
X111856000Y-37615000D01*
G75*
G02*
X111681000Y-37790000I-175000J0D01*
G01*
G37*
G36*
G01*
X112951000Y-37790000D02*
X112601000Y-37790000D01*
G75*
G02*
X112426000Y-37615000I0J175000D01*
G01*
X112426000Y-35915000D01*
G75*
G02*
X112601000Y-35740000I175000J0D01*
G01*
X112951000Y-35740000D01*
G75*
G02*
X113126000Y-35915000I0J-175000D01*
G01*
X113126000Y-37615000D01*
G75*
G02*
X112951000Y-37790000I-175000J0D01*
G01*
G37*
G36*
G01*
X114221000Y-37790000D02*
X113871000Y-37790000D01*
G75*
G02*
X113696000Y-37615000I0J175000D01*
G01*
X113696000Y-35915000D01*
G75*
G02*
X113871000Y-35740000I175000J0D01*
G01*
X114221000Y-35740000D01*
G75*
G02*
X114396000Y-35915000I0J-175000D01*
G01*
X114396000Y-37615000D01*
G75*
G02*
X114221000Y-37790000I-175000J0D01*
G01*
G37*
G36*
G01*
X114221000Y-32840000D02*
X113871000Y-32840000D01*
G75*
G02*
X113696000Y-32665000I0J175000D01*
G01*
X113696000Y-30965000D01*
G75*
G02*
X113871000Y-30790000I175000J0D01*
G01*
X114221000Y-30790000D01*
G75*
G02*
X114396000Y-30965000I0J-175000D01*
G01*
X114396000Y-32665000D01*
G75*
G02*
X114221000Y-32840000I-175000J0D01*
G01*
G37*
G36*
G01*
X112951000Y-32840000D02*
X112601000Y-32840000D01*
G75*
G02*
X112426000Y-32665000I0J175000D01*
G01*
X112426000Y-30965000D01*
G75*
G02*
X112601000Y-30790000I175000J0D01*
G01*
X112951000Y-30790000D01*
G75*
G02*
X113126000Y-30965000I0J-175000D01*
G01*
X113126000Y-32665000D01*
G75*
G02*
X112951000Y-32840000I-175000J0D01*
G01*
G37*
G36*
G01*
X111681000Y-32840000D02*
X111331000Y-32840000D01*
G75*
G02*
X111156000Y-32665000I0J175000D01*
G01*
X111156000Y-30965000D01*
G75*
G02*
X111331000Y-30790000I175000J0D01*
G01*
X111681000Y-30790000D01*
G75*
G02*
X111856000Y-30965000I0J-175000D01*
G01*
X111856000Y-32665000D01*
G75*
G02*
X111681000Y-32840000I-175000J0D01*
G01*
G37*
G36*
G01*
X110411000Y-32840000D02*
X110061000Y-32840000D01*
G75*
G02*
X109886000Y-32665000I0J175000D01*
G01*
X109886000Y-30965000D01*
G75*
G02*
X110061000Y-30790000I175000J0D01*
G01*
X110411000Y-30790000D01*
G75*
G02*
X110586000Y-30965000I0J-175000D01*
G01*
X110586000Y-32665000D01*
G75*
G02*
X110411000Y-32840000I-175000J0D01*
G01*
G37*
%TD*%
%TO.C,VCC9*%
G36*
G01*
X119614000Y-97248000D02*
X120924000Y-97248000D01*
G75*
G02*
X121194000Y-97518000I0J-270000D01*
G01*
X121194000Y-98328000D01*
G75*
G02*
X120924000Y-98598000I-270000J0D01*
G01*
X119614000Y-98598000D01*
G75*
G02*
X119344000Y-98328000I0J270000D01*
G01*
X119344000Y-97518000D01*
G75*
G02*
X119614000Y-97248000I270000J0D01*
G01*
G37*
G36*
G01*
X119614000Y-94448000D02*
X120924000Y-94448000D01*
G75*
G02*
X121194000Y-94718000I0J-270000D01*
G01*
X121194000Y-95528000D01*
G75*
G02*
X120924000Y-95798000I-270000J0D01*
G01*
X119614000Y-95798000D01*
G75*
G02*
X119344000Y-95528000I0J270000D01*
G01*
X119344000Y-94718000D01*
G75*
G02*
X119614000Y-94448000I270000J0D01*
G01*
G37*
%TD*%
%TO.C,VCC10*%
G36*
G01*
X114124000Y-87783750D02*
X114124000Y-88746250D01*
G75*
G02*
X113855250Y-89015000I-268750J0D01*
G01*
X113317750Y-89015000D01*
G75*
G02*
X113049000Y-88746250I0J268750D01*
G01*
X113049000Y-87783750D01*
G75*
G02*
X113317750Y-87515000I268750J0D01*
G01*
X113855250Y-87515000D01*
G75*
G02*
X114124000Y-87783750I0J-268750D01*
G01*
G37*
G36*
G01*
X112249000Y-87783750D02*
X112249000Y-88746250D01*
G75*
G02*
X111980250Y-89015000I-268750J0D01*
G01*
X111442750Y-89015000D01*
G75*
G02*
X111174000Y-88746250I0J268750D01*
G01*
X111174000Y-87783750D01*
G75*
G02*
X111442750Y-87515000I268750J0D01*
G01*
X111980250Y-87515000D01*
G75*
G02*
X112249000Y-87783750I0J-268750D01*
G01*
G37*
%TD*%
%TO.C,VCC11*%
G36*
G01*
X89511000Y-76182000D02*
X91591000Y-76182000D01*
G75*
G02*
X91851000Y-76442000I0J-260000D01*
G01*
X91851000Y-80022000D01*
G75*
G02*
X91591000Y-80282000I-260000J0D01*
G01*
X89511000Y-80282000D01*
G75*
G02*
X89251000Y-80022000I0J260000D01*
G01*
X89251000Y-76442000D01*
G75*
G02*
X89511000Y-76182000I260000J0D01*
G01*
G37*
G36*
G01*
X89511000Y-84182000D02*
X91591000Y-84182000D01*
G75*
G02*
X91851000Y-84442000I0J-260000D01*
G01*
X91851000Y-88022000D01*
G75*
G02*
X91591000Y-88282000I-260000J0D01*
G01*
X89511000Y-88282000D01*
G75*
G02*
X89251000Y-88022000I0J260000D01*
G01*
X89251000Y-84442000D01*
G75*
G02*
X89511000Y-84182000I260000J0D01*
G01*
G37*
%TD*%
D18*
%TO.C,VCD3*%
X112649000Y-94360000D03*
X112649000Y-91060000D03*
%TD*%
D19*
%TO.C,VCL3*%
X103333000Y-79883000D03*
X111633000Y-79883000D03*
%TD*%
%TO.C,VCR7*%
G36*
G01*
X97124500Y-82577250D02*
X97124500Y-82014750D01*
G75*
G02*
X97368250Y-81771000I243750J0D01*
G01*
X97855750Y-81771000D01*
G75*
G02*
X98099500Y-82014750I0J-243750D01*
G01*
X98099500Y-82577250D01*
G75*
G02*
X97855750Y-82821000I-243750J0D01*
G01*
X97368250Y-82821000D01*
G75*
G02*
X97124500Y-82577250I0J243750D01*
G01*
G37*
G36*
G01*
X98699500Y-82577250D02*
X98699500Y-82014750D01*
G75*
G02*
X98943250Y-81771000I243750J0D01*
G01*
X99430750Y-81771000D01*
G75*
G02*
X99674500Y-82014750I0J-243750D01*
G01*
X99674500Y-82577250D01*
G75*
G02*
X99430750Y-82821000I-243750J0D01*
G01*
X98943250Y-82821000D01*
G75*
G02*
X98699500Y-82577250I0J243750D01*
G01*
G37*
%TD*%
%TO.C,VCR8*%
G36*
G01*
X101499750Y-89935000D02*
X102462250Y-89935000D01*
G75*
G02*
X102731000Y-90203750I0J-268750D01*
G01*
X102731000Y-90741250D01*
G75*
G02*
X102462250Y-91010000I-268750J0D01*
G01*
X101499750Y-91010000D01*
G75*
G02*
X101231000Y-90741250I0J268750D01*
G01*
X101231000Y-90203750D01*
G75*
G02*
X101499750Y-89935000I268750J0D01*
G01*
G37*
G36*
G01*
X101499750Y-88060000D02*
X102462250Y-88060000D01*
G75*
G02*
X102731000Y-88328750I0J-268750D01*
G01*
X102731000Y-88866250D01*
G75*
G02*
X102462250Y-89135000I-268750J0D01*
G01*
X101499750Y-89135000D01*
G75*
G02*
X101231000Y-88866250I0J268750D01*
G01*
X101231000Y-88328750D01*
G75*
G02*
X101499750Y-88060000I268750J0D01*
G01*
G37*
%TD*%
D20*
%TO.C,VCU3*%
X107340400Y-91313000D03*
D21*
X109245400Y-88613000D03*
X107975400Y-88613000D03*
X106705400Y-88613000D03*
X105435400Y-88613000D03*
X105435400Y-94013000D03*
X106705400Y-94013000D03*
X107975400Y-94013000D03*
X109245400Y-94013000D03*
%TD*%
D17*
%TO.C,Q77*%
X49498000Y-46670000D03*
X47498000Y-47620000D03*
X47498000Y-45720000D03*
%TD*%
%TO.C,Q78*%
X51689000Y-45720000D03*
X51689000Y-47620000D03*
X53689000Y-46670000D03*
%TD*%
%TO.C,Q79*%
X57912000Y-46609000D03*
X55912000Y-47559000D03*
X55912000Y-45659000D03*
%TD*%
%TO.C,Q80*%
X62071000Y-46543000D03*
X60071000Y-47493000D03*
X60071000Y-45593000D03*
%TD*%
%TO.C,Q81*%
X49514000Y-58928000D03*
X47514000Y-59878000D03*
X47514000Y-57978000D03*
%TD*%
%TO.C,Q82*%
X51705000Y-57978000D03*
X51705000Y-59878000D03*
X53705000Y-58928000D03*
%TD*%
%TO.C,Q83*%
X55880000Y-57912000D03*
X55880000Y-59812000D03*
X57880000Y-58862000D03*
%TD*%
%TO.C,Q84*%
X62071000Y-58862000D03*
X60071000Y-59812000D03*
X60071000Y-57912000D03*
%TD*%
%TO.C,Q85*%
X49498000Y-71181000D03*
X47498000Y-72131000D03*
X47498000Y-70231000D03*
%TD*%
%TO.C,Q86*%
X51705000Y-70231000D03*
X51705000Y-72131000D03*
X53705000Y-71181000D03*
%TD*%
%TO.C,Q87*%
X55880000Y-70231000D03*
X55880000Y-72131000D03*
X57880000Y-71181000D03*
%TD*%
%TO.C,Q88*%
X62087000Y-71247000D03*
X60087000Y-72197000D03*
X60087000Y-70297000D03*
%TD*%
%TO.C,Q89*%
X49514000Y-83566000D03*
X47514000Y-84516000D03*
X47514000Y-82616000D03*
%TD*%
%TO.C,Q90*%
X51705000Y-82616000D03*
X51705000Y-84516000D03*
X53705000Y-83566000D03*
%TD*%
%TO.C,Q91*%
X55880000Y-82555000D03*
X55880000Y-84455000D03*
X57880000Y-83505000D03*
%TD*%
%TO.C,Q92*%
X62071000Y-83500000D03*
X60071000Y-84450000D03*
X60071000Y-82550000D03*
%TD*%
%TO.C,Q93*%
X49498000Y-95819000D03*
X47498000Y-96769000D03*
X47498000Y-94869000D03*
%TD*%
%TO.C,Q94*%
X51689000Y-94869000D03*
X51689000Y-96769000D03*
X53689000Y-95819000D03*
%TD*%
%TO.C,Q95*%
X55880000Y-94869000D03*
X55880000Y-96769000D03*
X57880000Y-95819000D03*
%TD*%
%TO.C,Q96*%
X62087000Y-95819000D03*
X60087000Y-96769000D03*
X60087000Y-94869000D03*
%TD*%
%TO.C,Q97*%
X49498000Y-108138000D03*
X47498000Y-109088000D03*
X47498000Y-107188000D03*
%TD*%
%TO.C,Q98*%
X51689000Y-107188000D03*
X51689000Y-109088000D03*
X53689000Y-108138000D03*
%TD*%
%TO.C,Q99*%
X55880000Y-107188000D03*
X55880000Y-109088000D03*
X57880000Y-108138000D03*
%TD*%
%TO.C,Q100*%
X60071000Y-107188000D03*
X60071000Y-109088000D03*
X62071000Y-108138000D03*
%TD*%
%TO.C,Q101*%
X49498000Y-120457000D03*
X47498000Y-121407000D03*
X47498000Y-119507000D03*
%TD*%
%TO.C,Q102*%
X51705000Y-119573000D03*
X51705000Y-121473000D03*
X53705000Y-120523000D03*
%TD*%
%TO.C,Q103*%
X55880000Y-119507000D03*
X55880000Y-121407000D03*
X57880000Y-120457000D03*
%TD*%
%TO.C,Q104*%
X60087000Y-119573000D03*
X60087000Y-121473000D03*
X62087000Y-120523000D03*
%TD*%
%TO.C,Q105*%
X49514000Y-132842000D03*
X47514000Y-133792000D03*
X47514000Y-131892000D03*
%TD*%
%TO.C,Q106*%
X51705000Y-131892000D03*
X51705000Y-133792000D03*
X53705000Y-132842000D03*
%TD*%
%TO.C,Q107*%
X57880000Y-132776000D03*
X55880000Y-133726000D03*
X55880000Y-131826000D03*
%TD*%
%TO.C,Q108*%
X62087000Y-132842000D03*
X60087000Y-133792000D03*
X60087000Y-131892000D03*
%TD*%
%TO.C,Q109*%
X49514000Y-145161000D03*
X47514000Y-146111000D03*
X47514000Y-144211000D03*
%TD*%
%TO.C,Q110*%
X53689000Y-145161000D03*
X51689000Y-146111000D03*
X51689000Y-144211000D03*
%TD*%
%TO.C,Q111*%
X55880000Y-144145000D03*
X55880000Y-146045000D03*
X57880000Y-145095000D03*
%TD*%
%TO.C,Q112*%
X62087000Y-145161000D03*
X60087000Y-146111000D03*
X60087000Y-144211000D03*
%TD*%
%TO.C,Q113*%
X49514000Y-157480000D03*
X47514000Y-158430000D03*
X47514000Y-156530000D03*
%TD*%
%TO.C,Q114*%
X51705000Y-156530000D03*
X51705000Y-158430000D03*
X53705000Y-157480000D03*
%TD*%
%TO.C,Q115*%
X55880000Y-156464000D03*
X55880000Y-158364000D03*
X57880000Y-157414000D03*
%TD*%
%TO.C,Q116*%
X62087000Y-157480000D03*
X60087000Y-158430000D03*
X60087000Y-156530000D03*
%TD*%
%TO.C,Q117*%
X49514000Y-169799000D03*
X47514000Y-170749000D03*
X47514000Y-168849000D03*
%TD*%
%TO.C,Q118*%
X51705000Y-168849000D03*
X51705000Y-170749000D03*
X53705000Y-169799000D03*
%TD*%
%TO.C,Q119*%
X57880000Y-169733000D03*
X55880000Y-170683000D03*
X55880000Y-168783000D03*
%TD*%
%TO.C,Q120*%
X60087000Y-168849000D03*
X60087000Y-170749000D03*
X62087000Y-169799000D03*
%TD*%
%TO.C,R80*%
G36*
G01*
X41219500Y-45874250D02*
X41219500Y-45311750D01*
G75*
G02*
X41463250Y-45068000I243750J0D01*
G01*
X41950750Y-45068000D01*
G75*
G02*
X42194500Y-45311750I0J-243750D01*
G01*
X42194500Y-45874250D01*
G75*
G02*
X41950750Y-46118000I-243750J0D01*
G01*
X41463250Y-46118000D01*
G75*
G02*
X41219500Y-45874250I0J243750D01*
G01*
G37*
G36*
G01*
X39644500Y-45874250D02*
X39644500Y-45311750D01*
G75*
G02*
X39888250Y-45068000I243750J0D01*
G01*
X40375750Y-45068000D01*
G75*
G02*
X40619500Y-45311750I0J-243750D01*
G01*
X40619500Y-45874250D01*
G75*
G02*
X40375750Y-46118000I-243750J0D01*
G01*
X39888250Y-46118000D01*
G75*
G02*
X39644500Y-45874250I0J243750D01*
G01*
G37*
%TD*%
%TO.C,R81*%
G36*
G01*
X43972500Y-47343750D02*
X43972500Y-47906250D01*
G75*
G02*
X43728750Y-48150000I-243750J0D01*
G01*
X43241250Y-48150000D01*
G75*
G02*
X42997500Y-47906250I0J243750D01*
G01*
X42997500Y-47343750D01*
G75*
G02*
X43241250Y-47100000I243750J0D01*
G01*
X43728750Y-47100000D01*
G75*
G02*
X43972500Y-47343750I0J-243750D01*
G01*
G37*
G36*
G01*
X42397500Y-47343750D02*
X42397500Y-47906250D01*
G75*
G02*
X42153750Y-48150000I-243750J0D01*
G01*
X41666250Y-48150000D01*
G75*
G02*
X41422500Y-47906250I0J243750D01*
G01*
X41422500Y-47343750D01*
G75*
G02*
X41666250Y-47100000I243750J0D01*
G01*
X42153750Y-47100000D01*
G75*
G02*
X42397500Y-47343750I0J-243750D01*
G01*
G37*
%TD*%
%TO.C,R82*%
G36*
G01*
X44150000Y-45311750D02*
X44150000Y-45874250D01*
G75*
G02*
X43906250Y-46118000I-243750J0D01*
G01*
X43418750Y-46118000D01*
G75*
G02*
X43175000Y-45874250I0J243750D01*
G01*
X43175000Y-45311750D01*
G75*
G02*
X43418750Y-45068000I243750J0D01*
G01*
X43906250Y-45068000D01*
G75*
G02*
X44150000Y-45311750I0J-243750D01*
G01*
G37*
G36*
G01*
X45725000Y-45311750D02*
X45725000Y-45874250D01*
G75*
G02*
X45481250Y-46118000I-243750J0D01*
G01*
X44993750Y-46118000D01*
G75*
G02*
X44750000Y-45874250I0J243750D01*
G01*
X44750000Y-45311750D01*
G75*
G02*
X44993750Y-45068000I243750J0D01*
G01*
X45481250Y-45068000D01*
G75*
G02*
X45725000Y-45311750I0J-243750D01*
G01*
G37*
%TD*%
%TO.C,R83*%
G36*
G01*
X39593500Y-58193250D02*
X39593500Y-57630750D01*
G75*
G02*
X39837250Y-57387000I243750J0D01*
G01*
X40324750Y-57387000D01*
G75*
G02*
X40568500Y-57630750I0J-243750D01*
G01*
X40568500Y-58193250D01*
G75*
G02*
X40324750Y-58437000I-243750J0D01*
G01*
X39837250Y-58437000D01*
G75*
G02*
X39593500Y-58193250I0J243750D01*
G01*
G37*
G36*
G01*
X41168500Y-58193250D02*
X41168500Y-57630750D01*
G75*
G02*
X41412250Y-57387000I243750J0D01*
G01*
X41899750Y-57387000D01*
G75*
G02*
X42143500Y-57630750I0J-243750D01*
G01*
X42143500Y-58193250D01*
G75*
G02*
X41899750Y-58437000I-243750J0D01*
G01*
X41412250Y-58437000D01*
G75*
G02*
X41168500Y-58193250I0J243750D01*
G01*
G37*
%TD*%
%TO.C,R84*%
G36*
G01*
X42397500Y-59662750D02*
X42397500Y-60225250D01*
G75*
G02*
X42153750Y-60469000I-243750J0D01*
G01*
X41666250Y-60469000D01*
G75*
G02*
X41422500Y-60225250I0J243750D01*
G01*
X41422500Y-59662750D01*
G75*
G02*
X41666250Y-59419000I243750J0D01*
G01*
X42153750Y-59419000D01*
G75*
G02*
X42397500Y-59662750I0J-243750D01*
G01*
G37*
G36*
G01*
X43972500Y-59662750D02*
X43972500Y-60225250D01*
G75*
G02*
X43728750Y-60469000I-243750J0D01*
G01*
X43241250Y-60469000D01*
G75*
G02*
X42997500Y-60225250I0J243750D01*
G01*
X42997500Y-59662750D01*
G75*
G02*
X43241250Y-59419000I243750J0D01*
G01*
X43728750Y-59419000D01*
G75*
G02*
X43972500Y-59662750I0J-243750D01*
G01*
G37*
%TD*%
%TO.C,R85*%
G36*
G01*
X45725000Y-57630750D02*
X45725000Y-58193250D01*
G75*
G02*
X45481250Y-58437000I-243750J0D01*
G01*
X44993750Y-58437000D01*
G75*
G02*
X44750000Y-58193250I0J243750D01*
G01*
X44750000Y-57630750D01*
G75*
G02*
X44993750Y-57387000I243750J0D01*
G01*
X45481250Y-57387000D01*
G75*
G02*
X45725000Y-57630750I0J-243750D01*
G01*
G37*
G36*
G01*
X44150000Y-57630750D02*
X44150000Y-58193250D01*
G75*
G02*
X43906250Y-58437000I-243750J0D01*
G01*
X43418750Y-58437000D01*
G75*
G02*
X43175000Y-58193250I0J243750D01*
G01*
X43175000Y-57630750D01*
G75*
G02*
X43418750Y-57387000I243750J0D01*
G01*
X43906250Y-57387000D01*
G75*
G02*
X44150000Y-57630750I0J-243750D01*
G01*
G37*
%TD*%
%TO.C,R86*%
G36*
G01*
X41194000Y-70512250D02*
X41194000Y-69949750D01*
G75*
G02*
X41437750Y-69706000I243750J0D01*
G01*
X41925250Y-69706000D01*
G75*
G02*
X42169000Y-69949750I0J-243750D01*
G01*
X42169000Y-70512250D01*
G75*
G02*
X41925250Y-70756000I-243750J0D01*
G01*
X41437750Y-70756000D01*
G75*
G02*
X41194000Y-70512250I0J243750D01*
G01*
G37*
G36*
G01*
X39619000Y-70512250D02*
X39619000Y-69949750D01*
G75*
G02*
X39862750Y-69706000I243750J0D01*
G01*
X40350250Y-69706000D01*
G75*
G02*
X40594000Y-69949750I0J-243750D01*
G01*
X40594000Y-70512250D01*
G75*
G02*
X40350250Y-70756000I-243750J0D01*
G01*
X39862750Y-70756000D01*
G75*
G02*
X39619000Y-70512250I0J243750D01*
G01*
G37*
%TD*%
%TO.C,R88*%
G36*
G01*
X43972500Y-71981750D02*
X43972500Y-72544250D01*
G75*
G02*
X43728750Y-72788000I-243750J0D01*
G01*
X43241250Y-72788000D01*
G75*
G02*
X42997500Y-72544250I0J243750D01*
G01*
X42997500Y-71981750D01*
G75*
G02*
X43241250Y-71738000I243750J0D01*
G01*
X43728750Y-71738000D01*
G75*
G02*
X43972500Y-71981750I0J-243750D01*
G01*
G37*
G36*
G01*
X42397500Y-71981750D02*
X42397500Y-72544250D01*
G75*
G02*
X42153750Y-72788000I-243750J0D01*
G01*
X41666250Y-72788000D01*
G75*
G02*
X41422500Y-72544250I0J243750D01*
G01*
X41422500Y-71981750D01*
G75*
G02*
X41666250Y-71738000I243750J0D01*
G01*
X42153750Y-71738000D01*
G75*
G02*
X42397500Y-71981750I0J-243750D01*
G01*
G37*
%TD*%
%TO.C,R89*%
G36*
G01*
X44124500Y-69949750D02*
X44124500Y-70512250D01*
G75*
G02*
X43880750Y-70756000I-243750J0D01*
G01*
X43393250Y-70756000D01*
G75*
G02*
X43149500Y-70512250I0J243750D01*
G01*
X43149500Y-69949750D01*
G75*
G02*
X43393250Y-69706000I243750J0D01*
G01*
X43880750Y-69706000D01*
G75*
G02*
X44124500Y-69949750I0J-243750D01*
G01*
G37*
G36*
G01*
X45699500Y-69949750D02*
X45699500Y-70512250D01*
G75*
G02*
X45455750Y-70756000I-243750J0D01*
G01*
X44968250Y-70756000D01*
G75*
G02*
X44724500Y-70512250I0J243750D01*
G01*
X44724500Y-69949750D01*
G75*
G02*
X44968250Y-69706000I243750J0D01*
G01*
X45455750Y-69706000D01*
G75*
G02*
X45699500Y-69949750I0J-243750D01*
G01*
G37*
%TD*%
%TO.C,R90*%
G36*
G01*
X39619000Y-82831250D02*
X39619000Y-82268750D01*
G75*
G02*
X39862750Y-82025000I243750J0D01*
G01*
X40350250Y-82025000D01*
G75*
G02*
X40594000Y-82268750I0J-243750D01*
G01*
X40594000Y-82831250D01*
G75*
G02*
X40350250Y-83075000I-243750J0D01*
G01*
X39862750Y-83075000D01*
G75*
G02*
X39619000Y-82831250I0J243750D01*
G01*
G37*
G36*
G01*
X41194000Y-82831250D02*
X41194000Y-82268750D01*
G75*
G02*
X41437750Y-82025000I243750J0D01*
G01*
X41925250Y-82025000D01*
G75*
G02*
X42169000Y-82268750I0J-243750D01*
G01*
X42169000Y-82831250D01*
G75*
G02*
X41925250Y-83075000I-243750J0D01*
G01*
X41437750Y-83075000D01*
G75*
G02*
X41194000Y-82831250I0J243750D01*
G01*
G37*
%TD*%
%TO.C,R91*%
G36*
G01*
X42346500Y-84300750D02*
X42346500Y-84863250D01*
G75*
G02*
X42102750Y-85107000I-243750J0D01*
G01*
X41615250Y-85107000D01*
G75*
G02*
X41371500Y-84863250I0J243750D01*
G01*
X41371500Y-84300750D01*
G75*
G02*
X41615250Y-84057000I243750J0D01*
G01*
X42102750Y-84057000D01*
G75*
G02*
X42346500Y-84300750I0J-243750D01*
G01*
G37*
G36*
G01*
X43921500Y-84300750D02*
X43921500Y-84863250D01*
G75*
G02*
X43677750Y-85107000I-243750J0D01*
G01*
X43190250Y-85107000D01*
G75*
G02*
X42946500Y-84863250I0J243750D01*
G01*
X42946500Y-84300750D01*
G75*
G02*
X43190250Y-84057000I243750J0D01*
G01*
X43677750Y-84057000D01*
G75*
G02*
X43921500Y-84300750I0J-243750D01*
G01*
G37*
%TD*%
%TO.C,R92*%
G36*
G01*
X45699500Y-82268750D02*
X45699500Y-82831250D01*
G75*
G02*
X45455750Y-83075000I-243750J0D01*
G01*
X44968250Y-83075000D01*
G75*
G02*
X44724500Y-82831250I0J243750D01*
G01*
X44724500Y-82268750D01*
G75*
G02*
X44968250Y-82025000I243750J0D01*
G01*
X45455750Y-82025000D01*
G75*
G02*
X45699500Y-82268750I0J-243750D01*
G01*
G37*
G36*
G01*
X44124500Y-82268750D02*
X44124500Y-82831250D01*
G75*
G02*
X43880750Y-83075000I-243750J0D01*
G01*
X43393250Y-83075000D01*
G75*
G02*
X43149500Y-82831250I0J243750D01*
G01*
X43149500Y-82268750D01*
G75*
G02*
X43393250Y-82025000I243750J0D01*
G01*
X43880750Y-82025000D01*
G75*
G02*
X44124500Y-82268750I0J-243750D01*
G01*
G37*
%TD*%
%TO.C,R93*%
G36*
G01*
X41194000Y-95150250D02*
X41194000Y-94587750D01*
G75*
G02*
X41437750Y-94344000I243750J0D01*
G01*
X41925250Y-94344000D01*
G75*
G02*
X42169000Y-94587750I0J-243750D01*
G01*
X42169000Y-95150250D01*
G75*
G02*
X41925250Y-95394000I-243750J0D01*
G01*
X41437750Y-95394000D01*
G75*
G02*
X41194000Y-95150250I0J243750D01*
G01*
G37*
G36*
G01*
X39619000Y-95150250D02*
X39619000Y-94587750D01*
G75*
G02*
X39862750Y-94344000I243750J0D01*
G01*
X40350250Y-94344000D01*
G75*
G02*
X40594000Y-94587750I0J-243750D01*
G01*
X40594000Y-95150250D01*
G75*
G02*
X40350250Y-95394000I-243750J0D01*
G01*
X39862750Y-95394000D01*
G75*
G02*
X39619000Y-95150250I0J243750D01*
G01*
G37*
%TD*%
%TO.C,R94*%
G36*
G01*
X43972500Y-96619750D02*
X43972500Y-97182250D01*
G75*
G02*
X43728750Y-97426000I-243750J0D01*
G01*
X43241250Y-97426000D01*
G75*
G02*
X42997500Y-97182250I0J243750D01*
G01*
X42997500Y-96619750D01*
G75*
G02*
X43241250Y-96376000I243750J0D01*
G01*
X43728750Y-96376000D01*
G75*
G02*
X43972500Y-96619750I0J-243750D01*
G01*
G37*
G36*
G01*
X42397500Y-96619750D02*
X42397500Y-97182250D01*
G75*
G02*
X42153750Y-97426000I-243750J0D01*
G01*
X41666250Y-97426000D01*
G75*
G02*
X41422500Y-97182250I0J243750D01*
G01*
X41422500Y-96619750D01*
G75*
G02*
X41666250Y-96376000I243750J0D01*
G01*
X42153750Y-96376000D01*
G75*
G02*
X42397500Y-96619750I0J-243750D01*
G01*
G37*
%TD*%
%TO.C,R96*%
G36*
G01*
X44124500Y-94587750D02*
X44124500Y-95150250D01*
G75*
G02*
X43880750Y-95394000I-243750J0D01*
G01*
X43393250Y-95394000D01*
G75*
G02*
X43149500Y-95150250I0J243750D01*
G01*
X43149500Y-94587750D01*
G75*
G02*
X43393250Y-94344000I243750J0D01*
G01*
X43880750Y-94344000D01*
G75*
G02*
X44124500Y-94587750I0J-243750D01*
G01*
G37*
G36*
G01*
X45699500Y-94587750D02*
X45699500Y-95150250D01*
G75*
G02*
X45455750Y-95394000I-243750J0D01*
G01*
X44968250Y-95394000D01*
G75*
G02*
X44724500Y-95150250I0J243750D01*
G01*
X44724500Y-94587750D01*
G75*
G02*
X44968250Y-94344000I243750J0D01*
G01*
X45455750Y-94344000D01*
G75*
G02*
X45699500Y-94587750I0J-243750D01*
G01*
G37*
%TD*%
%TO.C,R97*%
G36*
G01*
X39619000Y-107469250D02*
X39619000Y-106906750D01*
G75*
G02*
X39862750Y-106663000I243750J0D01*
G01*
X40350250Y-106663000D01*
G75*
G02*
X40594000Y-106906750I0J-243750D01*
G01*
X40594000Y-107469250D01*
G75*
G02*
X40350250Y-107713000I-243750J0D01*
G01*
X39862750Y-107713000D01*
G75*
G02*
X39619000Y-107469250I0J243750D01*
G01*
G37*
G36*
G01*
X41194000Y-107469250D02*
X41194000Y-106906750D01*
G75*
G02*
X41437750Y-106663000I243750J0D01*
G01*
X41925250Y-106663000D01*
G75*
G02*
X42169000Y-106906750I0J-243750D01*
G01*
X42169000Y-107469250D01*
G75*
G02*
X41925250Y-107713000I-243750J0D01*
G01*
X41437750Y-107713000D01*
G75*
G02*
X41194000Y-107469250I0J243750D01*
G01*
G37*
%TD*%
%TO.C,R98*%
G36*
G01*
X42346500Y-108938750D02*
X42346500Y-109501250D01*
G75*
G02*
X42102750Y-109745000I-243750J0D01*
G01*
X41615250Y-109745000D01*
G75*
G02*
X41371500Y-109501250I0J243750D01*
G01*
X41371500Y-108938750D01*
G75*
G02*
X41615250Y-108695000I243750J0D01*
G01*
X42102750Y-108695000D01*
G75*
G02*
X42346500Y-108938750I0J-243750D01*
G01*
G37*
G36*
G01*
X43921500Y-108938750D02*
X43921500Y-109501250D01*
G75*
G02*
X43677750Y-109745000I-243750J0D01*
G01*
X43190250Y-109745000D01*
G75*
G02*
X42946500Y-109501250I0J243750D01*
G01*
X42946500Y-108938750D01*
G75*
G02*
X43190250Y-108695000I243750J0D01*
G01*
X43677750Y-108695000D01*
G75*
G02*
X43921500Y-108938750I0J-243750D01*
G01*
G37*
%TD*%
%TO.C,R99*%
G36*
G01*
X45750500Y-106906750D02*
X45750500Y-107469250D01*
G75*
G02*
X45506750Y-107713000I-243750J0D01*
G01*
X45019250Y-107713000D01*
G75*
G02*
X44775500Y-107469250I0J243750D01*
G01*
X44775500Y-106906750D01*
G75*
G02*
X45019250Y-106663000I243750J0D01*
G01*
X45506750Y-106663000D01*
G75*
G02*
X45750500Y-106906750I0J-243750D01*
G01*
G37*
G36*
G01*
X44175500Y-106906750D02*
X44175500Y-107469250D01*
G75*
G02*
X43931750Y-107713000I-243750J0D01*
G01*
X43444250Y-107713000D01*
G75*
G02*
X43200500Y-107469250I0J243750D01*
G01*
X43200500Y-106906750D01*
G75*
G02*
X43444250Y-106663000I243750J0D01*
G01*
X43931750Y-106663000D01*
G75*
G02*
X44175500Y-106906750I0J-243750D01*
G01*
G37*
%TD*%
%TO.C,R100*%
G36*
G01*
X41219500Y-119788250D02*
X41219500Y-119225750D01*
G75*
G02*
X41463250Y-118982000I243750J0D01*
G01*
X41950750Y-118982000D01*
G75*
G02*
X42194500Y-119225750I0J-243750D01*
G01*
X42194500Y-119788250D01*
G75*
G02*
X41950750Y-120032000I-243750J0D01*
G01*
X41463250Y-120032000D01*
G75*
G02*
X41219500Y-119788250I0J243750D01*
G01*
G37*
G36*
G01*
X39644500Y-119788250D02*
X39644500Y-119225750D01*
G75*
G02*
X39888250Y-118982000I243750J0D01*
G01*
X40375750Y-118982000D01*
G75*
G02*
X40619500Y-119225750I0J-243750D01*
G01*
X40619500Y-119788250D01*
G75*
G02*
X40375750Y-120032000I-243750J0D01*
G01*
X39888250Y-120032000D01*
G75*
G02*
X39644500Y-119788250I0J243750D01*
G01*
G37*
%TD*%
%TO.C,R101*%
G36*
G01*
X43921500Y-121257750D02*
X43921500Y-121820250D01*
G75*
G02*
X43677750Y-122064000I-243750J0D01*
G01*
X43190250Y-122064000D01*
G75*
G02*
X42946500Y-121820250I0J243750D01*
G01*
X42946500Y-121257750D01*
G75*
G02*
X43190250Y-121014000I243750J0D01*
G01*
X43677750Y-121014000D01*
G75*
G02*
X43921500Y-121257750I0J-243750D01*
G01*
G37*
G36*
G01*
X42346500Y-121257750D02*
X42346500Y-121820250D01*
G75*
G02*
X42102750Y-122064000I-243750J0D01*
G01*
X41615250Y-122064000D01*
G75*
G02*
X41371500Y-121820250I0J243750D01*
G01*
X41371500Y-121257750D01*
G75*
G02*
X41615250Y-121014000I243750J0D01*
G01*
X42102750Y-121014000D01*
G75*
G02*
X42346500Y-121257750I0J-243750D01*
G01*
G37*
%TD*%
%TO.C,R102*%
G36*
G01*
X44124500Y-119225750D02*
X44124500Y-119788250D01*
G75*
G02*
X43880750Y-120032000I-243750J0D01*
G01*
X43393250Y-120032000D01*
G75*
G02*
X43149500Y-119788250I0J243750D01*
G01*
X43149500Y-119225750D01*
G75*
G02*
X43393250Y-118982000I243750J0D01*
G01*
X43880750Y-118982000D01*
G75*
G02*
X44124500Y-119225750I0J-243750D01*
G01*
G37*
G36*
G01*
X45699500Y-119225750D02*
X45699500Y-119788250D01*
G75*
G02*
X45455750Y-120032000I-243750J0D01*
G01*
X44968250Y-120032000D01*
G75*
G02*
X44724500Y-119788250I0J243750D01*
G01*
X44724500Y-119225750D01*
G75*
G02*
X44968250Y-118982000I243750J0D01*
G01*
X45455750Y-118982000D01*
G75*
G02*
X45699500Y-119225750I0J-243750D01*
G01*
G37*
%TD*%
%TO.C,R104*%
G36*
G01*
X39619000Y-132107250D02*
X39619000Y-131544750D01*
G75*
G02*
X39862750Y-131301000I243750J0D01*
G01*
X40350250Y-131301000D01*
G75*
G02*
X40594000Y-131544750I0J-243750D01*
G01*
X40594000Y-132107250D01*
G75*
G02*
X40350250Y-132351000I-243750J0D01*
G01*
X39862750Y-132351000D01*
G75*
G02*
X39619000Y-132107250I0J243750D01*
G01*
G37*
G36*
G01*
X41194000Y-132107250D02*
X41194000Y-131544750D01*
G75*
G02*
X41437750Y-131301000I243750J0D01*
G01*
X41925250Y-131301000D01*
G75*
G02*
X42169000Y-131544750I0J-243750D01*
G01*
X42169000Y-132107250D01*
G75*
G02*
X41925250Y-132351000I-243750J0D01*
G01*
X41437750Y-132351000D01*
G75*
G02*
X41194000Y-132107250I0J243750D01*
G01*
G37*
%TD*%
%TO.C,R105*%
G36*
G01*
X42346500Y-133576750D02*
X42346500Y-134139250D01*
G75*
G02*
X42102750Y-134383000I-243750J0D01*
G01*
X41615250Y-134383000D01*
G75*
G02*
X41371500Y-134139250I0J243750D01*
G01*
X41371500Y-133576750D01*
G75*
G02*
X41615250Y-133333000I243750J0D01*
G01*
X42102750Y-133333000D01*
G75*
G02*
X42346500Y-133576750I0J-243750D01*
G01*
G37*
G36*
G01*
X43921500Y-133576750D02*
X43921500Y-134139250D01*
G75*
G02*
X43677750Y-134383000I-243750J0D01*
G01*
X43190250Y-134383000D01*
G75*
G02*
X42946500Y-134139250I0J243750D01*
G01*
X42946500Y-133576750D01*
G75*
G02*
X43190250Y-133333000I243750J0D01*
G01*
X43677750Y-133333000D01*
G75*
G02*
X43921500Y-133576750I0J-243750D01*
G01*
G37*
%TD*%
%TO.C,R106*%
G36*
G01*
X45699500Y-131544750D02*
X45699500Y-132107250D01*
G75*
G02*
X45455750Y-132351000I-243750J0D01*
G01*
X44968250Y-132351000D01*
G75*
G02*
X44724500Y-132107250I0J243750D01*
G01*
X44724500Y-131544750D01*
G75*
G02*
X44968250Y-131301000I243750J0D01*
G01*
X45455750Y-131301000D01*
G75*
G02*
X45699500Y-131544750I0J-243750D01*
G01*
G37*
G36*
G01*
X44124500Y-131544750D02*
X44124500Y-132107250D01*
G75*
G02*
X43880750Y-132351000I-243750J0D01*
G01*
X43393250Y-132351000D01*
G75*
G02*
X43149500Y-132107250I0J243750D01*
G01*
X43149500Y-131544750D01*
G75*
G02*
X43393250Y-131301000I243750J0D01*
G01*
X43880750Y-131301000D01*
G75*
G02*
X44124500Y-131544750I0J-243750D01*
G01*
G37*
%TD*%
%TO.C,R107*%
G36*
G01*
X41219500Y-144426250D02*
X41219500Y-143863750D01*
G75*
G02*
X41463250Y-143620000I243750J0D01*
G01*
X41950750Y-143620000D01*
G75*
G02*
X42194500Y-143863750I0J-243750D01*
G01*
X42194500Y-144426250D01*
G75*
G02*
X41950750Y-144670000I-243750J0D01*
G01*
X41463250Y-144670000D01*
G75*
G02*
X41219500Y-144426250I0J243750D01*
G01*
G37*
G36*
G01*
X39644500Y-144426250D02*
X39644500Y-143863750D01*
G75*
G02*
X39888250Y-143620000I243750J0D01*
G01*
X40375750Y-143620000D01*
G75*
G02*
X40619500Y-143863750I0J-243750D01*
G01*
X40619500Y-144426250D01*
G75*
G02*
X40375750Y-144670000I-243750J0D01*
G01*
X39888250Y-144670000D01*
G75*
G02*
X39644500Y-144426250I0J243750D01*
G01*
G37*
%TD*%
%TO.C,R108*%
G36*
G01*
X43972500Y-145895750D02*
X43972500Y-146458250D01*
G75*
G02*
X43728750Y-146702000I-243750J0D01*
G01*
X43241250Y-146702000D01*
G75*
G02*
X42997500Y-146458250I0J243750D01*
G01*
X42997500Y-145895750D01*
G75*
G02*
X43241250Y-145652000I243750J0D01*
G01*
X43728750Y-145652000D01*
G75*
G02*
X43972500Y-145895750I0J-243750D01*
G01*
G37*
G36*
G01*
X42397500Y-145895750D02*
X42397500Y-146458250D01*
G75*
G02*
X42153750Y-146702000I-243750J0D01*
G01*
X41666250Y-146702000D01*
G75*
G02*
X41422500Y-146458250I0J243750D01*
G01*
X41422500Y-145895750D01*
G75*
G02*
X41666250Y-145652000I243750J0D01*
G01*
X42153750Y-145652000D01*
G75*
G02*
X42397500Y-145895750I0J-243750D01*
G01*
G37*
%TD*%
%TO.C,R109*%
G36*
G01*
X44150000Y-143863750D02*
X44150000Y-144426250D01*
G75*
G02*
X43906250Y-144670000I-243750J0D01*
G01*
X43418750Y-144670000D01*
G75*
G02*
X43175000Y-144426250I0J243750D01*
G01*
X43175000Y-143863750D01*
G75*
G02*
X43418750Y-143620000I243750J0D01*
G01*
X43906250Y-143620000D01*
G75*
G02*
X44150000Y-143863750I0J-243750D01*
G01*
G37*
G36*
G01*
X45725000Y-143863750D02*
X45725000Y-144426250D01*
G75*
G02*
X45481250Y-144670000I-243750J0D01*
G01*
X44993750Y-144670000D01*
G75*
G02*
X44750000Y-144426250I0J243750D01*
G01*
X44750000Y-143863750D01*
G75*
G02*
X44993750Y-143620000I243750J0D01*
G01*
X45481250Y-143620000D01*
G75*
G02*
X45725000Y-143863750I0J-243750D01*
G01*
G37*
%TD*%
%TO.C,R110*%
G36*
G01*
X39619000Y-156745250D02*
X39619000Y-156182750D01*
G75*
G02*
X39862750Y-155939000I243750J0D01*
G01*
X40350250Y-155939000D01*
G75*
G02*
X40594000Y-156182750I0J-243750D01*
G01*
X40594000Y-156745250D01*
G75*
G02*
X40350250Y-156989000I-243750J0D01*
G01*
X39862750Y-156989000D01*
G75*
G02*
X39619000Y-156745250I0J243750D01*
G01*
G37*
G36*
G01*
X41194000Y-156745250D02*
X41194000Y-156182750D01*
G75*
G02*
X41437750Y-155939000I243750J0D01*
G01*
X41925250Y-155939000D01*
G75*
G02*
X42169000Y-156182750I0J-243750D01*
G01*
X42169000Y-156745250D01*
G75*
G02*
X41925250Y-156989000I-243750J0D01*
G01*
X41437750Y-156989000D01*
G75*
G02*
X41194000Y-156745250I0J243750D01*
G01*
G37*
%TD*%
%TO.C,R112*%
G36*
G01*
X42397500Y-158214750D02*
X42397500Y-158777250D01*
G75*
G02*
X42153750Y-159021000I-243750J0D01*
G01*
X41666250Y-159021000D01*
G75*
G02*
X41422500Y-158777250I0J243750D01*
G01*
X41422500Y-158214750D01*
G75*
G02*
X41666250Y-157971000I243750J0D01*
G01*
X42153750Y-157971000D01*
G75*
G02*
X42397500Y-158214750I0J-243750D01*
G01*
G37*
G36*
G01*
X43972500Y-158214750D02*
X43972500Y-158777250D01*
G75*
G02*
X43728750Y-159021000I-243750J0D01*
G01*
X43241250Y-159021000D01*
G75*
G02*
X42997500Y-158777250I0J243750D01*
G01*
X42997500Y-158214750D01*
G75*
G02*
X43241250Y-157971000I243750J0D01*
G01*
X43728750Y-157971000D01*
G75*
G02*
X43972500Y-158214750I0J-243750D01*
G01*
G37*
%TD*%
%TO.C,R113*%
G36*
G01*
X45725000Y-156182750D02*
X45725000Y-156745250D01*
G75*
G02*
X45481250Y-156989000I-243750J0D01*
G01*
X44993750Y-156989000D01*
G75*
G02*
X44750000Y-156745250I0J243750D01*
G01*
X44750000Y-156182750D01*
G75*
G02*
X44993750Y-155939000I243750J0D01*
G01*
X45481250Y-155939000D01*
G75*
G02*
X45725000Y-156182750I0J-243750D01*
G01*
G37*
G36*
G01*
X44150000Y-156182750D02*
X44150000Y-156745250D01*
G75*
G02*
X43906250Y-156989000I-243750J0D01*
G01*
X43418750Y-156989000D01*
G75*
G02*
X43175000Y-156745250I0J243750D01*
G01*
X43175000Y-156182750D01*
G75*
G02*
X43418750Y-155939000I243750J0D01*
G01*
X43906250Y-155939000D01*
G75*
G02*
X44150000Y-156182750I0J-243750D01*
G01*
G37*
%TD*%
%TO.C,R114*%
G36*
G01*
X41194000Y-169064250D02*
X41194000Y-168501750D01*
G75*
G02*
X41437750Y-168258000I243750J0D01*
G01*
X41925250Y-168258000D01*
G75*
G02*
X42169000Y-168501750I0J-243750D01*
G01*
X42169000Y-169064250D01*
G75*
G02*
X41925250Y-169308000I-243750J0D01*
G01*
X41437750Y-169308000D01*
G75*
G02*
X41194000Y-169064250I0J243750D01*
G01*
G37*
G36*
G01*
X39619000Y-169064250D02*
X39619000Y-168501750D01*
G75*
G02*
X39862750Y-168258000I243750J0D01*
G01*
X40350250Y-168258000D01*
G75*
G02*
X40594000Y-168501750I0J-243750D01*
G01*
X40594000Y-169064250D01*
G75*
G02*
X40350250Y-169308000I-243750J0D01*
G01*
X39862750Y-169308000D01*
G75*
G02*
X39619000Y-169064250I0J243750D01*
G01*
G37*
%TD*%
%TO.C,R115*%
G36*
G01*
X43947000Y-170533750D02*
X43947000Y-171096250D01*
G75*
G02*
X43703250Y-171340000I-243750J0D01*
G01*
X43215750Y-171340000D01*
G75*
G02*
X42972000Y-171096250I0J243750D01*
G01*
X42972000Y-170533750D01*
G75*
G02*
X43215750Y-170290000I243750J0D01*
G01*
X43703250Y-170290000D01*
G75*
G02*
X43947000Y-170533750I0J-243750D01*
G01*
G37*
G36*
G01*
X42372000Y-170533750D02*
X42372000Y-171096250D01*
G75*
G02*
X42128250Y-171340000I-243750J0D01*
G01*
X41640750Y-171340000D01*
G75*
G02*
X41397000Y-171096250I0J243750D01*
G01*
X41397000Y-170533750D01*
G75*
G02*
X41640750Y-170290000I243750J0D01*
G01*
X42128250Y-170290000D01*
G75*
G02*
X42372000Y-170533750I0J-243750D01*
G01*
G37*
%TD*%
%TO.C,R116*%
G36*
G01*
X44150000Y-168501750D02*
X44150000Y-169064250D01*
G75*
G02*
X43906250Y-169308000I-243750J0D01*
G01*
X43418750Y-169308000D01*
G75*
G02*
X43175000Y-169064250I0J243750D01*
G01*
X43175000Y-168501750D01*
G75*
G02*
X43418750Y-168258000I243750J0D01*
G01*
X43906250Y-168258000D01*
G75*
G02*
X44150000Y-168501750I0J-243750D01*
G01*
G37*
G36*
G01*
X45725000Y-168501750D02*
X45725000Y-169064250D01*
G75*
G02*
X45481250Y-169308000I-243750J0D01*
G01*
X44993750Y-169308000D01*
G75*
G02*
X44750000Y-169064250I0J243750D01*
G01*
X44750000Y-168501750D01*
G75*
G02*
X44993750Y-168258000I243750J0D01*
G01*
X45481250Y-168258000D01*
G75*
G02*
X45725000Y-168501750I0J-243750D01*
G01*
G37*
%TD*%
%TO.C,Q1*%
X47530000Y-29911000D03*
X49530000Y-28961000D03*
X49530000Y-30861000D03*
%TD*%
%TO.C,Q2*%
X53705000Y-30922000D03*
X53705000Y-29022000D03*
X51705000Y-29972000D03*
%TD*%
%TO.C,R1*%
G36*
G01*
X39619000Y-31396250D02*
X39619000Y-30833750D01*
G75*
G02*
X39862750Y-30590000I243750J0D01*
G01*
X40350250Y-30590000D01*
G75*
G02*
X40594000Y-30833750I0J-243750D01*
G01*
X40594000Y-31396250D01*
G75*
G02*
X40350250Y-31640000I-243750J0D01*
G01*
X39862750Y-31640000D01*
G75*
G02*
X39619000Y-31396250I0J243750D01*
G01*
G37*
G36*
G01*
X41194000Y-31396250D02*
X41194000Y-30833750D01*
G75*
G02*
X41437750Y-30590000I243750J0D01*
G01*
X41925250Y-30590000D01*
G75*
G02*
X42169000Y-30833750I0J-243750D01*
G01*
X42169000Y-31396250D01*
G75*
G02*
X41925250Y-31640000I-243750J0D01*
G01*
X41437750Y-31640000D01*
G75*
G02*
X41194000Y-31396250I0J243750D01*
G01*
G37*
%TD*%
%TO.C,R3*%
G36*
G01*
X42372000Y-28801750D02*
X42372000Y-29364250D01*
G75*
G02*
X42128250Y-29608000I-243750J0D01*
G01*
X41640750Y-29608000D01*
G75*
G02*
X41397000Y-29364250I0J243750D01*
G01*
X41397000Y-28801750D01*
G75*
G02*
X41640750Y-28558000I243750J0D01*
G01*
X42128250Y-28558000D01*
G75*
G02*
X42372000Y-28801750I0J-243750D01*
G01*
G37*
G36*
G01*
X43947000Y-28801750D02*
X43947000Y-29364250D01*
G75*
G02*
X43703250Y-29608000I-243750J0D01*
G01*
X43215750Y-29608000D01*
G75*
G02*
X42972000Y-29364250I0J243750D01*
G01*
X42972000Y-28801750D01*
G75*
G02*
X43215750Y-28558000I243750J0D01*
G01*
X43703250Y-28558000D01*
G75*
G02*
X43947000Y-28801750I0J-243750D01*
G01*
G37*
%TD*%
%TO.C,R4*%
G36*
G01*
X45699500Y-30833750D02*
X45699500Y-31396250D01*
G75*
G02*
X45455750Y-31640000I-243750J0D01*
G01*
X44968250Y-31640000D01*
G75*
G02*
X44724500Y-31396250I0J243750D01*
G01*
X44724500Y-30833750D01*
G75*
G02*
X44968250Y-30590000I243750J0D01*
G01*
X45455750Y-30590000D01*
G75*
G02*
X45699500Y-30833750I0J-243750D01*
G01*
G37*
G36*
G01*
X44124500Y-30833750D02*
X44124500Y-31396250D01*
G75*
G02*
X43880750Y-31640000I-243750J0D01*
G01*
X43393250Y-31640000D01*
G75*
G02*
X43149500Y-31396250I0J243750D01*
G01*
X43149500Y-30833750D01*
G75*
G02*
X43393250Y-30590000I243750J0D01*
G01*
X43880750Y-30590000D01*
G75*
G02*
X44124500Y-30833750I0J-243750D01*
G01*
G37*
%TD*%
%TO.C,R77*%
G36*
G01*
X42372000Y-35024750D02*
X42372000Y-35587250D01*
G75*
G02*
X42128250Y-35831000I-243750J0D01*
G01*
X41640750Y-35831000D01*
G75*
G02*
X41397000Y-35587250I0J243750D01*
G01*
X41397000Y-35024750D01*
G75*
G02*
X41640750Y-34781000I243750J0D01*
G01*
X42128250Y-34781000D01*
G75*
G02*
X42372000Y-35024750I0J-243750D01*
G01*
G37*
G36*
G01*
X43947000Y-35024750D02*
X43947000Y-35587250D01*
G75*
G02*
X43703250Y-35831000I-243750J0D01*
G01*
X43215750Y-35831000D01*
G75*
G02*
X42972000Y-35587250I0J243750D01*
G01*
X42972000Y-35024750D01*
G75*
G02*
X43215750Y-34781000I243750J0D01*
G01*
X43703250Y-34781000D01*
G75*
G02*
X43947000Y-35024750I0J-243750D01*
G01*
G37*
%TD*%
%TO.C,R78*%
G36*
G01*
X45725000Y-32992750D02*
X45725000Y-33555250D01*
G75*
G02*
X45481250Y-33799000I-243750J0D01*
G01*
X44993750Y-33799000D01*
G75*
G02*
X44750000Y-33555250I0J243750D01*
G01*
X44750000Y-32992750D01*
G75*
G02*
X44993750Y-32749000I243750J0D01*
G01*
X45481250Y-32749000D01*
G75*
G02*
X45725000Y-32992750I0J-243750D01*
G01*
G37*
G36*
G01*
X44150000Y-32992750D02*
X44150000Y-33555250D01*
G75*
G02*
X43906250Y-33799000I-243750J0D01*
G01*
X43418750Y-33799000D01*
G75*
G02*
X43175000Y-33555250I0J243750D01*
G01*
X43175000Y-32992750D01*
G75*
G02*
X43418750Y-32749000I243750J0D01*
G01*
X43906250Y-32749000D01*
G75*
G02*
X44150000Y-32992750I0J-243750D01*
G01*
G37*
%TD*%
%TO.C,C1*%
G36*
G01*
X77094000Y-29690750D02*
X77094000Y-30253250D01*
G75*
G02*
X76850250Y-30497000I-243750J0D01*
G01*
X76362750Y-30497000D01*
G75*
G02*
X76119000Y-30253250I0J243750D01*
G01*
X76119000Y-29690750D01*
G75*
G02*
X76362750Y-29447000I243750J0D01*
G01*
X76850250Y-29447000D01*
G75*
G02*
X77094000Y-29690750I0J-243750D01*
G01*
G37*
G36*
G01*
X75519000Y-29690750D02*
X75519000Y-30253250D01*
G75*
G02*
X75275250Y-30497000I-243750J0D01*
G01*
X74787750Y-30497000D01*
G75*
G02*
X74544000Y-30253250I0J243750D01*
G01*
X74544000Y-29690750D01*
G75*
G02*
X74787750Y-29447000I243750J0D01*
G01*
X75275250Y-29447000D01*
G75*
G02*
X75519000Y-29690750I0J-243750D01*
G01*
G37*
%TD*%
%TO.C,Q3*%
X71374000Y-34290000D03*
X73374000Y-33340000D03*
X73374000Y-35240000D03*
%TD*%
%TO.C,Q4*%
X55896000Y-29845000D03*
X57896000Y-28895000D03*
X57896000Y-30795000D03*
%TD*%
%TO.C,Q5*%
X62087000Y-30922000D03*
X62087000Y-29022000D03*
X60087000Y-29972000D03*
%TD*%
%TO.C,Q6*%
X69056000Y-35240000D03*
X69056000Y-33340000D03*
X67056000Y-34290000D03*
%TD*%
%TO.C,Q73*%
X49514000Y-34290000D03*
X47514000Y-35240000D03*
X47514000Y-33340000D03*
%TD*%
%TO.C,Q74*%
X53705000Y-34290000D03*
X51705000Y-35240000D03*
X51705000Y-33340000D03*
%TD*%
%TO.C,Q75*%
X55912000Y-33340000D03*
X55912000Y-35240000D03*
X57912000Y-34290000D03*
%TD*%
%TO.C,Q76*%
X60087000Y-33340000D03*
X60087000Y-35240000D03*
X62087000Y-34290000D03*
%TD*%
%TO.C,R2*%
G36*
G01*
X67918250Y-29572000D02*
X66955750Y-29572000D01*
G75*
G02*
X66687000Y-29303250I0J268750D01*
G01*
X66687000Y-28765750D01*
G75*
G02*
X66955750Y-28497000I268750J0D01*
G01*
X67918250Y-28497000D01*
G75*
G02*
X68187000Y-28765750I0J-268750D01*
G01*
X68187000Y-29303250D01*
G75*
G02*
X67918250Y-29572000I-268750J0D01*
G01*
G37*
G36*
G01*
X67918250Y-31447000D02*
X66955750Y-31447000D01*
G75*
G02*
X66687000Y-31178250I0J268750D01*
G01*
X66687000Y-30640750D01*
G75*
G02*
X66955750Y-30372000I268750J0D01*
G01*
X67918250Y-30372000D01*
G75*
G02*
X68187000Y-30640750I0J-268750D01*
G01*
X68187000Y-31178250D01*
G75*
G02*
X67918250Y-31447000I-268750J0D01*
G01*
G37*
%TD*%
%TO.C,R5*%
G36*
G01*
X75164000Y-31580000D02*
X76474000Y-31580000D01*
G75*
G02*
X76744000Y-31850000I0J-270000D01*
G01*
X76744000Y-32660000D01*
G75*
G02*
X76474000Y-32930000I-270000J0D01*
G01*
X75164000Y-32930000D01*
G75*
G02*
X74894000Y-32660000I0J270000D01*
G01*
X74894000Y-31850000D01*
G75*
G02*
X75164000Y-31580000I270000J0D01*
G01*
G37*
G36*
G01*
X75164000Y-34380000D02*
X76474000Y-34380000D01*
G75*
G02*
X76744000Y-34650000I0J-270000D01*
G01*
X76744000Y-35460000D01*
G75*
G02*
X76474000Y-35730000I-270000J0D01*
G01*
X75164000Y-35730000D01*
G75*
G02*
X74894000Y-35460000I0J270000D01*
G01*
X74894000Y-34650000D01*
G75*
G02*
X75164000Y-34380000I270000J0D01*
G01*
G37*
%TD*%
%TO.C,R6*%
G36*
G01*
X69137000Y-31215250D02*
X69137000Y-30252750D01*
G75*
G02*
X69405750Y-29984000I268750J0D01*
G01*
X69943250Y-29984000D01*
G75*
G02*
X70212000Y-30252750I0J-268750D01*
G01*
X70212000Y-31215250D01*
G75*
G02*
X69943250Y-31484000I-268750J0D01*
G01*
X69405750Y-31484000D01*
G75*
G02*
X69137000Y-31215250I0J268750D01*
G01*
G37*
G36*
G01*
X71012000Y-31215250D02*
X71012000Y-30252750D01*
G75*
G02*
X71280750Y-29984000I268750J0D01*
G01*
X71818250Y-29984000D01*
G75*
G02*
X72087000Y-30252750I0J-268750D01*
G01*
X72087000Y-31215250D01*
G75*
G02*
X71818250Y-31484000I-268750J0D01*
G01*
X71280750Y-31484000D01*
G75*
G02*
X71012000Y-31215250I0J268750D01*
G01*
G37*
%TD*%
%TO.C,R79*%
G36*
G01*
X64994262Y-34797000D02*
X64037738Y-34797000D01*
G75*
G02*
X63766000Y-34525262I0J271738D01*
G01*
X63766000Y-33818738D01*
G75*
G02*
X64037738Y-33547000I271738J0D01*
G01*
X64994262Y-33547000D01*
G75*
G02*
X65266000Y-33818738I0J-271738D01*
G01*
X65266000Y-34525262D01*
G75*
G02*
X64994262Y-34797000I-271738J0D01*
G01*
G37*
G36*
G01*
X64994262Y-32747000D02*
X64037738Y-32747000D01*
G75*
G02*
X63766000Y-32475262I0J271738D01*
G01*
X63766000Y-31768738D01*
G75*
G02*
X64037738Y-31497000I271738J0D01*
G01*
X64994262Y-31497000D01*
G75*
G02*
X65266000Y-31768738I0J-271738D01*
G01*
X65266000Y-32475262D01*
G75*
G02*
X64994262Y-32747000I-271738J0D01*
G01*
G37*
%TD*%
%TO.C,C14*%
G36*
G01*
X114886000Y-171095750D02*
X114886000Y-172058250D01*
G75*
G02*
X114617250Y-172327000I-268750J0D01*
G01*
X114079750Y-172327000D01*
G75*
G02*
X113811000Y-172058250I0J268750D01*
G01*
X113811000Y-171095750D01*
G75*
G02*
X114079750Y-170827000I268750J0D01*
G01*
X114617250Y-170827000D01*
G75*
G02*
X114886000Y-171095750I0J-268750D01*
G01*
G37*
G36*
G01*
X113011000Y-171095750D02*
X113011000Y-172058250D01*
G75*
G02*
X112742250Y-172327000I-268750J0D01*
G01*
X112204750Y-172327000D01*
G75*
G02*
X111936000Y-172058250I0J268750D01*
G01*
X111936000Y-171095750D01*
G75*
G02*
X112204750Y-170827000I268750J0D01*
G01*
X112742250Y-170827000D01*
G75*
G02*
X113011000Y-171095750I0J-268750D01*
G01*
G37*
%TD*%
D13*
%TO.C,J8*%
X109220000Y-168783000D03*
%TD*%
%TO.C,R117*%
G36*
G01*
X105754482Y-176040000D02*
X103541518Y-176040000D01*
G75*
G02*
X103273000Y-175771482I0J268518D01*
G01*
X103273000Y-174858518D01*
G75*
G02*
X103541518Y-174590000I268518J0D01*
G01*
X105754482Y-174590000D01*
G75*
G02*
X106023000Y-174858518I0J-268518D01*
G01*
X106023000Y-175771482D01*
G75*
G02*
X105754482Y-176040000I-268518J0D01*
G01*
G37*
G36*
G01*
X105754482Y-171540000D02*
X103541518Y-171540000D01*
G75*
G02*
X103273000Y-171271482I0J268518D01*
G01*
X103273000Y-170358518D01*
G75*
G02*
X103541518Y-170090000I268518J0D01*
G01*
X105754482Y-170090000D01*
G75*
G02*
X106023000Y-170358518I0J-268518D01*
G01*
X106023000Y-171271482D01*
G75*
G02*
X105754482Y-171540000I-268518J0D01*
G01*
G37*
%TD*%
%TO.C,C17*%
G36*
G01*
X117193750Y-33243500D02*
X117756250Y-33243500D01*
G75*
G02*
X118000000Y-33487250I0J-243750D01*
G01*
X118000000Y-33974750D01*
G75*
G02*
X117756250Y-34218500I-243750J0D01*
G01*
X117193750Y-34218500D01*
G75*
G02*
X116950000Y-33974750I0J243750D01*
G01*
X116950000Y-33487250D01*
G75*
G02*
X117193750Y-33243500I243750J0D01*
G01*
G37*
G36*
G01*
X117193750Y-34818500D02*
X117756250Y-34818500D01*
G75*
G02*
X118000000Y-35062250I0J-243750D01*
G01*
X118000000Y-35549750D01*
G75*
G02*
X117756250Y-35793500I-243750J0D01*
G01*
X117193750Y-35793500D01*
G75*
G02*
X116950000Y-35549750I0J243750D01*
G01*
X116950000Y-35062250D01*
G75*
G02*
X117193750Y-34818500I243750J0D01*
G01*
G37*
%TD*%
%TO.C,C18*%
G36*
G01*
X117193750Y-38781000D02*
X117756250Y-38781000D01*
G75*
G02*
X118000000Y-39024750I0J-243750D01*
G01*
X118000000Y-39512250D01*
G75*
G02*
X117756250Y-39756000I-243750J0D01*
G01*
X117193750Y-39756000D01*
G75*
G02*
X116950000Y-39512250I0J243750D01*
G01*
X116950000Y-39024750D01*
G75*
G02*
X117193750Y-38781000I243750J0D01*
G01*
G37*
G36*
G01*
X117193750Y-37206000D02*
X117756250Y-37206000D01*
G75*
G02*
X118000000Y-37449750I0J-243750D01*
G01*
X118000000Y-37937250D01*
G75*
G02*
X117756250Y-38181000I-243750J0D01*
G01*
X117193750Y-38181000D01*
G75*
G02*
X116950000Y-37937250I0J243750D01*
G01*
X116950000Y-37449750D01*
G75*
G02*
X117193750Y-37206000I243750J0D01*
G01*
G37*
%TD*%
%TO.C,VCC13*%
G36*
G01*
X119614000Y-34507000D02*
X120924000Y-34507000D01*
G75*
G02*
X121194000Y-34777000I0J-270000D01*
G01*
X121194000Y-35587000D01*
G75*
G02*
X120924000Y-35857000I-270000J0D01*
G01*
X119614000Y-35857000D01*
G75*
G02*
X119344000Y-35587000I0J270000D01*
G01*
X119344000Y-34777000D01*
G75*
G02*
X119614000Y-34507000I270000J0D01*
G01*
G37*
G36*
G01*
X119614000Y-31707000D02*
X120924000Y-31707000D01*
G75*
G02*
X121194000Y-31977000I0J-270000D01*
G01*
X121194000Y-32787000D01*
G75*
G02*
X120924000Y-33057000I-270000J0D01*
G01*
X119614000Y-33057000D01*
G75*
G02*
X119344000Y-32787000I0J270000D01*
G01*
X119344000Y-31977000D01*
G75*
G02*
X119614000Y-31707000I270000J0D01*
G01*
G37*
%TD*%
%TO.C,VCC14*%
G36*
G01*
X119614000Y-37171000D02*
X120924000Y-37171000D01*
G75*
G02*
X121194000Y-37441000I0J-270000D01*
G01*
X121194000Y-38251000D01*
G75*
G02*
X120924000Y-38521000I-270000J0D01*
G01*
X119614000Y-38521000D01*
G75*
G02*
X119344000Y-38251000I0J270000D01*
G01*
X119344000Y-37441000D01*
G75*
G02*
X119614000Y-37171000I270000J0D01*
G01*
G37*
G36*
G01*
X119614000Y-39971000D02*
X120924000Y-39971000D01*
G75*
G02*
X121194000Y-40241000I0J-270000D01*
G01*
X121194000Y-41051000D01*
G75*
G02*
X120924000Y-41321000I-270000J0D01*
G01*
X119614000Y-41321000D01*
G75*
G02*
X119344000Y-41051000I0J270000D01*
G01*
X119344000Y-40241000D01*
G75*
G02*
X119614000Y-39971000I270000J0D01*
G01*
G37*
%TD*%
%TO.C,VCC15*%
G36*
G01*
X93137000Y-150856000D02*
X93137000Y-152166000D01*
G75*
G02*
X92867000Y-152436000I-270000J0D01*
G01*
X92057000Y-152436000D01*
G75*
G02*
X91787000Y-152166000I0J270000D01*
G01*
X91787000Y-150856000D01*
G75*
G02*
X92057000Y-150586000I270000J0D01*
G01*
X92867000Y-150586000D01*
G75*
G02*
X93137000Y-150856000I0J-270000D01*
G01*
G37*
G36*
G01*
X90337000Y-150856000D02*
X90337000Y-152166000D01*
G75*
G02*
X90067000Y-152436000I-270000J0D01*
G01*
X89257000Y-152436000D01*
G75*
G02*
X88987000Y-152166000I0J270000D01*
G01*
X88987000Y-150856000D01*
G75*
G02*
X89257000Y-150586000I270000J0D01*
G01*
X90067000Y-150586000D01*
G75*
G02*
X90337000Y-150856000I0J-270000D01*
G01*
G37*
%TD*%
%TO.C,VCC16*%
G36*
G01*
X94722000Y-160240000D02*
X96032000Y-160240000D01*
G75*
G02*
X96302000Y-160510000I0J-270000D01*
G01*
X96302000Y-161320000D01*
G75*
G02*
X96032000Y-161590000I-270000J0D01*
G01*
X94722000Y-161590000D01*
G75*
G02*
X94452000Y-161320000I0J270000D01*
G01*
X94452000Y-160510000D01*
G75*
G02*
X94722000Y-160240000I270000J0D01*
G01*
G37*
G36*
G01*
X94722000Y-157440000D02*
X96032000Y-157440000D01*
G75*
G02*
X96302000Y-157710000I0J-270000D01*
G01*
X96302000Y-158520000D01*
G75*
G02*
X96032000Y-158790000I-270000J0D01*
G01*
X94722000Y-158790000D01*
G75*
G02*
X94452000Y-158520000I0J270000D01*
G01*
X94452000Y-157710000D01*
G75*
G02*
X94722000Y-157440000I270000J0D01*
G01*
G37*
%TD*%
%TO.C,R76*%
G36*
G01*
X39619000Y-33555250D02*
X39619000Y-32992750D01*
G75*
G02*
X39862750Y-32749000I243750J0D01*
G01*
X40350250Y-32749000D01*
G75*
G02*
X40594000Y-32992750I0J-243750D01*
G01*
X40594000Y-33555250D01*
G75*
G02*
X40350250Y-33799000I-243750J0D01*
G01*
X39862750Y-33799000D01*
G75*
G02*
X39619000Y-33555250I0J243750D01*
G01*
G37*
G36*
G01*
X41194000Y-33555250D02*
X41194000Y-32992750D01*
G75*
G02*
X41437750Y-32749000I243750J0D01*
G01*
X41925250Y-32749000D01*
G75*
G02*
X42169000Y-32992750I0J-243750D01*
G01*
X42169000Y-33555250D01*
G75*
G02*
X41925250Y-33799000I-243750J0D01*
G01*
X41437750Y-33799000D01*
G75*
G02*
X41194000Y-33555250I0J243750D01*
G01*
G37*
%TD*%
%TO.C,J9*%
X119380000Y-168656000D03*
%TD*%
D22*
%TO.C,J7*%
X107569000Y-71120000D03*
X107569000Y-68580000D03*
X107569000Y-66040000D03*
D23*
X107569000Y-63500000D03*
%TD*%
D22*
%TO.C,J13*%
X105156000Y-41529000D03*
D23*
X107696000Y-41529000D03*
%TD*%
%TO.C,J14*%
X104902000Y-34036000D03*
D22*
X104902000Y-36576000D03*
%TD*%
%TO.C,C19*%
G36*
G01*
X104294250Y-72649000D02*
X103731750Y-72649000D01*
G75*
G02*
X103488000Y-72405250I0J243750D01*
G01*
X103488000Y-71917750D01*
G75*
G02*
X103731750Y-71674000I243750J0D01*
G01*
X104294250Y-71674000D01*
G75*
G02*
X104538000Y-71917750I0J-243750D01*
G01*
X104538000Y-72405250D01*
G75*
G02*
X104294250Y-72649000I-243750J0D01*
G01*
G37*
G36*
G01*
X104294250Y-71074000D02*
X103731750Y-71074000D01*
G75*
G02*
X103488000Y-70830250I0J243750D01*
G01*
X103488000Y-70342750D01*
G75*
G02*
X103731750Y-70099000I243750J0D01*
G01*
X104294250Y-70099000D01*
G75*
G02*
X104538000Y-70342750I0J-243750D01*
G01*
X104538000Y-70830250D01*
G75*
G02*
X104294250Y-71074000I-243750J0D01*
G01*
G37*
%TD*%
%TO.C,C20*%
G36*
G01*
X103731750Y-67711500D02*
X104294250Y-67711500D01*
G75*
G02*
X104538000Y-67955250I0J-243750D01*
G01*
X104538000Y-68442750D01*
G75*
G02*
X104294250Y-68686500I-243750J0D01*
G01*
X103731750Y-68686500D01*
G75*
G02*
X103488000Y-68442750I0J243750D01*
G01*
X103488000Y-67955250D01*
G75*
G02*
X103731750Y-67711500I243750J0D01*
G01*
G37*
G36*
G01*
X103731750Y-66136500D02*
X104294250Y-66136500D01*
G75*
G02*
X104538000Y-66380250I0J-243750D01*
G01*
X104538000Y-66867750D01*
G75*
G02*
X104294250Y-67111500I-243750J0D01*
G01*
X103731750Y-67111500D01*
G75*
G02*
X103488000Y-66867750I0J243750D01*
G01*
X103488000Y-66380250D01*
G75*
G02*
X103731750Y-66136500I243750J0D01*
G01*
G37*
%TD*%
%TO.C,C21*%
G36*
G01*
X118089500Y-65123750D02*
X118089500Y-65686250D01*
G75*
G02*
X117845750Y-65930000I-243750J0D01*
G01*
X117358250Y-65930000D01*
G75*
G02*
X117114500Y-65686250I0J243750D01*
G01*
X117114500Y-65123750D01*
G75*
G02*
X117358250Y-64880000I243750J0D01*
G01*
X117845750Y-64880000D01*
G75*
G02*
X118089500Y-65123750I0J-243750D01*
G01*
G37*
G36*
G01*
X116514500Y-65123750D02*
X116514500Y-65686250D01*
G75*
G02*
X116270750Y-65930000I-243750J0D01*
G01*
X115783250Y-65930000D01*
G75*
G02*
X115539500Y-65686250I0J243750D01*
G01*
X115539500Y-65123750D01*
G75*
G02*
X115783250Y-64880000I243750J0D01*
G01*
X116270750Y-64880000D01*
G75*
G02*
X116514500Y-65123750I0J-243750D01*
G01*
G37*
%TD*%
%TO.C,C22*%
G36*
G01*
X107535000Y-27325000D02*
X107535000Y-26015000D01*
G75*
G02*
X107805000Y-25745000I270000J0D01*
G01*
X108615000Y-25745000D01*
G75*
G02*
X108885000Y-26015000I0J-270000D01*
G01*
X108885000Y-27325000D01*
G75*
G02*
X108615000Y-27595000I-270000J0D01*
G01*
X107805000Y-27595000D01*
G75*
G02*
X107535000Y-27325000I0J270000D01*
G01*
G37*
G36*
G01*
X104735000Y-27325000D02*
X104735000Y-26015000D01*
G75*
G02*
X105005000Y-25745000I270000J0D01*
G01*
X105815000Y-25745000D01*
G75*
G02*
X106085000Y-26015000I0J-270000D01*
G01*
X106085000Y-27325000D01*
G75*
G02*
X105815000Y-27595000I-270000J0D01*
G01*
X105005000Y-27595000D01*
G75*
G02*
X104735000Y-27325000I0J270000D01*
G01*
G37*
%TD*%
%TO.C,C23*%
G36*
G01*
X104094000Y-30627000D02*
X104094000Y-29317000D01*
G75*
G02*
X104364000Y-29047000I270000J0D01*
G01*
X105174000Y-29047000D01*
G75*
G02*
X105444000Y-29317000I0J-270000D01*
G01*
X105444000Y-30627000D01*
G75*
G02*
X105174000Y-30897000I-270000J0D01*
G01*
X104364000Y-30897000D01*
G75*
G02*
X104094000Y-30627000I0J270000D01*
G01*
G37*
G36*
G01*
X106894000Y-30627000D02*
X106894000Y-29317000D01*
G75*
G02*
X107164000Y-29047000I270000J0D01*
G01*
X107974000Y-29047000D01*
G75*
G02*
X108244000Y-29317000I0J-270000D01*
G01*
X108244000Y-30627000D01*
G75*
G02*
X107974000Y-30897000I-270000J0D01*
G01*
X107164000Y-30897000D01*
G75*
G02*
X106894000Y-30627000I0J270000D01*
G01*
G37*
%TD*%
%TO.C,J1*%
G36*
G01*
X113126000Y-58538633D02*
X113126000Y-56777367D01*
G75*
G02*
X113390367Y-56513000I264367J0D01*
G01*
X114701633Y-56513000D01*
G75*
G02*
X114966000Y-56777367I0J-264367D01*
G01*
X114966000Y-58538633D01*
G75*
G02*
X114701633Y-58803000I-264367J0D01*
G01*
X113390367Y-58803000D01*
G75*
G02*
X113126000Y-58538633I0J264367D01*
G01*
G37*
D24*
X116586000Y-57658000D03*
X119126000Y-57658000D03*
%TD*%
D23*
%TO.C,J2*%
X116713000Y-51308000D03*
D22*
X114173000Y-51308000D03*
%TD*%
D23*
%TO.C,J3*%
X112649000Y-46482000D03*
D22*
X110109000Y-46482000D03*
X107569000Y-46482000D03*
X105029000Y-46482000D03*
%TD*%
%TO.C,R118*%
G36*
G01*
X98905000Y-72800738D02*
X98905000Y-73757262D01*
G75*
G02*
X98633262Y-74029000I-271738J0D01*
G01*
X97926738Y-74029000D01*
G75*
G02*
X97655000Y-73757262I0J271738D01*
G01*
X97655000Y-72800738D01*
G75*
G02*
X97926738Y-72529000I271738J0D01*
G01*
X98633262Y-72529000D01*
G75*
G02*
X98905000Y-72800738I0J-271738D01*
G01*
G37*
G36*
G01*
X100955000Y-72800738D02*
X100955000Y-73757262D01*
G75*
G02*
X100683262Y-74029000I-271738J0D01*
G01*
X99976738Y-74029000D01*
G75*
G02*
X99705000Y-73757262I0J271738D01*
G01*
X99705000Y-72800738D01*
G75*
G02*
X99976738Y-72529000I271738J0D01*
G01*
X100683262Y-72529000D01*
G75*
G02*
X100955000Y-72800738I0J-271738D01*
G01*
G37*
%TD*%
%TO.C,R120*%
G36*
G01*
X100964000Y-69879738D02*
X100964000Y-70836262D01*
G75*
G02*
X100692262Y-71108000I-271738J0D01*
G01*
X99985738Y-71108000D01*
G75*
G02*
X99714000Y-70836262I0J271738D01*
G01*
X99714000Y-69879738D01*
G75*
G02*
X99985738Y-69608000I271738J0D01*
G01*
X100692262Y-69608000D01*
G75*
G02*
X100964000Y-69879738I0J-271738D01*
G01*
G37*
G36*
G01*
X98914000Y-69879738D02*
X98914000Y-70836262D01*
G75*
G02*
X98642262Y-71108000I-271738J0D01*
G01*
X97935738Y-71108000D01*
G75*
G02*
X97664000Y-70836262I0J271738D01*
G01*
X97664000Y-69879738D01*
G75*
G02*
X97935738Y-69608000I271738J0D01*
G01*
X98642262Y-69608000D01*
G75*
G02*
X98914000Y-69879738I0J-271738D01*
G01*
G37*
%TD*%
%TO.C,R121*%
G36*
G01*
X120169250Y-66146500D02*
X119606750Y-66146500D01*
G75*
G02*
X119363000Y-65902750I0J243750D01*
G01*
X119363000Y-65415250D01*
G75*
G02*
X119606750Y-65171500I243750J0D01*
G01*
X120169250Y-65171500D01*
G75*
G02*
X120413000Y-65415250I0J-243750D01*
G01*
X120413000Y-65902750D01*
G75*
G02*
X120169250Y-66146500I-243750J0D01*
G01*
G37*
G36*
G01*
X120169250Y-64571500D02*
X119606750Y-64571500D01*
G75*
G02*
X119363000Y-64327750I0J243750D01*
G01*
X119363000Y-63840250D01*
G75*
G02*
X119606750Y-63596500I243750J0D01*
G01*
X120169250Y-63596500D01*
G75*
G02*
X120413000Y-63840250I0J-243750D01*
G01*
X120413000Y-64327750D01*
G75*
G02*
X120169250Y-64571500I-243750J0D01*
G01*
G37*
%TD*%
%TO.C,R122*%
G36*
G01*
X108377000Y-51970250D02*
X108377000Y-51407750D01*
G75*
G02*
X108620750Y-51164000I243750J0D01*
G01*
X109108250Y-51164000D01*
G75*
G02*
X109352000Y-51407750I0J-243750D01*
G01*
X109352000Y-51970250D01*
G75*
G02*
X109108250Y-52214000I-243750J0D01*
G01*
X108620750Y-52214000D01*
G75*
G02*
X108377000Y-51970250I0J243750D01*
G01*
G37*
G36*
G01*
X106802000Y-51970250D02*
X106802000Y-51407750D01*
G75*
G02*
X107045750Y-51164000I243750J0D01*
G01*
X107533250Y-51164000D01*
G75*
G02*
X107777000Y-51407750I0J-243750D01*
G01*
X107777000Y-51970250D01*
G75*
G02*
X107533250Y-52214000I-243750J0D01*
G01*
X107045750Y-52214000D01*
G75*
G02*
X106802000Y-51970250I0J243750D01*
G01*
G37*
%TD*%
%TO.C,R123*%
G36*
G01*
X118061000Y-62256750D02*
X118061000Y-63219250D01*
G75*
G02*
X117792250Y-63488000I-268750J0D01*
G01*
X117254750Y-63488000D01*
G75*
G02*
X116986000Y-63219250I0J268750D01*
G01*
X116986000Y-62256750D01*
G75*
G02*
X117254750Y-61988000I268750J0D01*
G01*
X117792250Y-61988000D01*
G75*
G02*
X118061000Y-62256750I0J-268750D01*
G01*
G37*
G36*
G01*
X116186000Y-62256750D02*
X116186000Y-63219250D01*
G75*
G02*
X115917250Y-63488000I-268750J0D01*
G01*
X115379750Y-63488000D01*
G75*
G02*
X115111000Y-63219250I0J268750D01*
G01*
X115111000Y-62256750D01*
G75*
G02*
X115379750Y-61988000I268750J0D01*
G01*
X115917250Y-61988000D01*
G75*
G02*
X116186000Y-62256750I0J-268750D01*
G01*
G37*
%TD*%
%TO.C,R124*%
G36*
G01*
X95277250Y-30688000D02*
X94714750Y-30688000D01*
G75*
G02*
X94471000Y-30444250I0J243750D01*
G01*
X94471000Y-29956750D01*
G75*
G02*
X94714750Y-29713000I243750J0D01*
G01*
X95277250Y-29713000D01*
G75*
G02*
X95521000Y-29956750I0J-243750D01*
G01*
X95521000Y-30444250D01*
G75*
G02*
X95277250Y-30688000I-243750J0D01*
G01*
G37*
G36*
G01*
X95277250Y-32263000D02*
X94714750Y-32263000D01*
G75*
G02*
X94471000Y-32019250I0J243750D01*
G01*
X94471000Y-31531750D01*
G75*
G02*
X94714750Y-31288000I243750J0D01*
G01*
X95277250Y-31288000D01*
G75*
G02*
X95521000Y-31531750I0J-243750D01*
G01*
X95521000Y-32019250D01*
G75*
G02*
X95277250Y-32263000I-243750J0D01*
G01*
G37*
%TD*%
%TO.C,R125*%
G36*
G01*
X92991250Y-30713500D02*
X92428750Y-30713500D01*
G75*
G02*
X92185000Y-30469750I0J243750D01*
G01*
X92185000Y-29982250D01*
G75*
G02*
X92428750Y-29738500I243750J0D01*
G01*
X92991250Y-29738500D01*
G75*
G02*
X93235000Y-29982250I0J-243750D01*
G01*
X93235000Y-30469750D01*
G75*
G02*
X92991250Y-30713500I-243750J0D01*
G01*
G37*
G36*
G01*
X92991250Y-32288500D02*
X92428750Y-32288500D01*
G75*
G02*
X92185000Y-32044750I0J243750D01*
G01*
X92185000Y-31557250D01*
G75*
G02*
X92428750Y-31313500I243750J0D01*
G01*
X92991250Y-31313500D01*
G75*
G02*
X93235000Y-31557250I0J-243750D01*
G01*
X93235000Y-32044750D01*
G75*
G02*
X92991250Y-32288500I-243750J0D01*
G01*
G37*
%TD*%
%TO.C,R126*%
G36*
G01*
X97563250Y-32288500D02*
X97000750Y-32288500D01*
G75*
G02*
X96757000Y-32044750I0J243750D01*
G01*
X96757000Y-31557250D01*
G75*
G02*
X97000750Y-31313500I243750J0D01*
G01*
X97563250Y-31313500D01*
G75*
G02*
X97807000Y-31557250I0J-243750D01*
G01*
X97807000Y-32044750D01*
G75*
G02*
X97563250Y-32288500I-243750J0D01*
G01*
G37*
G36*
G01*
X97563250Y-30713500D02*
X97000750Y-30713500D01*
G75*
G02*
X96757000Y-30469750I0J243750D01*
G01*
X96757000Y-29982250D01*
G75*
G02*
X97000750Y-29738500I243750J0D01*
G01*
X97563250Y-29738500D01*
G75*
G02*
X97807000Y-29982250I0J-243750D01*
G01*
X97807000Y-30469750D01*
G75*
G02*
X97563250Y-30713500I-243750J0D01*
G01*
G37*
%TD*%
%TO.C,R128*%
G36*
G01*
X95912250Y-34853500D02*
X95349750Y-34853500D01*
G75*
G02*
X95106000Y-34609750I0J243750D01*
G01*
X95106000Y-34122250D01*
G75*
G02*
X95349750Y-33878500I243750J0D01*
G01*
X95912250Y-33878500D01*
G75*
G02*
X96156000Y-34122250I0J-243750D01*
G01*
X96156000Y-34609750D01*
G75*
G02*
X95912250Y-34853500I-243750J0D01*
G01*
G37*
G36*
G01*
X95912250Y-36428500D02*
X95349750Y-36428500D01*
G75*
G02*
X95106000Y-36184750I0J243750D01*
G01*
X95106000Y-35697250D01*
G75*
G02*
X95349750Y-35453500I243750J0D01*
G01*
X95912250Y-35453500D01*
G75*
G02*
X96156000Y-35697250I0J-243750D01*
G01*
X96156000Y-36184750D01*
G75*
G02*
X95912250Y-36428500I-243750J0D01*
G01*
G37*
%TD*%
%TO.C,R129*%
G36*
G01*
X91340250Y-36454000D02*
X90777750Y-36454000D01*
G75*
G02*
X90534000Y-36210250I0J243750D01*
G01*
X90534000Y-35722750D01*
G75*
G02*
X90777750Y-35479000I243750J0D01*
G01*
X91340250Y-35479000D01*
G75*
G02*
X91584000Y-35722750I0J-243750D01*
G01*
X91584000Y-36210250D01*
G75*
G02*
X91340250Y-36454000I-243750J0D01*
G01*
G37*
G36*
G01*
X91340250Y-34879000D02*
X90777750Y-34879000D01*
G75*
G02*
X90534000Y-34635250I0J243750D01*
G01*
X90534000Y-34147750D01*
G75*
G02*
X90777750Y-33904000I243750J0D01*
G01*
X91340250Y-33904000D01*
G75*
G02*
X91584000Y-34147750I0J-243750D01*
G01*
X91584000Y-34635250D01*
G75*
G02*
X91340250Y-34879000I-243750J0D01*
G01*
G37*
%TD*%
%TO.C,R130*%
G36*
G01*
X93626250Y-36454000D02*
X93063750Y-36454000D01*
G75*
G02*
X92820000Y-36210250I0J243750D01*
G01*
X92820000Y-35722750D01*
G75*
G02*
X93063750Y-35479000I243750J0D01*
G01*
X93626250Y-35479000D01*
G75*
G02*
X93870000Y-35722750I0J-243750D01*
G01*
X93870000Y-36210250D01*
G75*
G02*
X93626250Y-36454000I-243750J0D01*
G01*
G37*
G36*
G01*
X93626250Y-34879000D02*
X93063750Y-34879000D01*
G75*
G02*
X92820000Y-34635250I0J243750D01*
G01*
X92820000Y-34147750D01*
G75*
G02*
X93063750Y-33904000I243750J0D01*
G01*
X93626250Y-33904000D01*
G75*
G02*
X93870000Y-34147750I0J-243750D01*
G01*
X93870000Y-34635250D01*
G75*
G02*
X93626250Y-34879000I-243750J0D01*
G01*
G37*
%TD*%
%TO.C,U3*%
G36*
G01*
X119586000Y-67682000D02*
X119936000Y-67682000D01*
G75*
G02*
X120111000Y-67857000I0J-175000D01*
G01*
X120111000Y-69557000D01*
G75*
G02*
X119936000Y-69732000I-175000J0D01*
G01*
X119586000Y-69732000D01*
G75*
G02*
X119411000Y-69557000I0J175000D01*
G01*
X119411000Y-67857000D01*
G75*
G02*
X119586000Y-67682000I175000J0D01*
G01*
G37*
G36*
G01*
X118316000Y-67682000D02*
X118666000Y-67682000D01*
G75*
G02*
X118841000Y-67857000I0J-175000D01*
G01*
X118841000Y-69557000D01*
G75*
G02*
X118666000Y-69732000I-175000J0D01*
G01*
X118316000Y-69732000D01*
G75*
G02*
X118141000Y-69557000I0J175000D01*
G01*
X118141000Y-67857000D01*
G75*
G02*
X118316000Y-67682000I175000J0D01*
G01*
G37*
G36*
G01*
X117046000Y-67682000D02*
X117396000Y-67682000D01*
G75*
G02*
X117571000Y-67857000I0J-175000D01*
G01*
X117571000Y-69557000D01*
G75*
G02*
X117396000Y-69732000I-175000J0D01*
G01*
X117046000Y-69732000D01*
G75*
G02*
X116871000Y-69557000I0J175000D01*
G01*
X116871000Y-67857000D01*
G75*
G02*
X117046000Y-67682000I175000J0D01*
G01*
G37*
G36*
G01*
X115776000Y-67682000D02*
X116126000Y-67682000D01*
G75*
G02*
X116301000Y-67857000I0J-175000D01*
G01*
X116301000Y-69557000D01*
G75*
G02*
X116126000Y-69732000I-175000J0D01*
G01*
X115776000Y-69732000D01*
G75*
G02*
X115601000Y-69557000I0J175000D01*
G01*
X115601000Y-67857000D01*
G75*
G02*
X115776000Y-67682000I175000J0D01*
G01*
G37*
G36*
G01*
X115776000Y-72632000D02*
X116126000Y-72632000D01*
G75*
G02*
X116301000Y-72807000I0J-175000D01*
G01*
X116301000Y-74507000D01*
G75*
G02*
X116126000Y-74682000I-175000J0D01*
G01*
X115776000Y-74682000D01*
G75*
G02*
X115601000Y-74507000I0J175000D01*
G01*
X115601000Y-72807000D01*
G75*
G02*
X115776000Y-72632000I175000J0D01*
G01*
G37*
G36*
G01*
X117046000Y-72632000D02*
X117396000Y-72632000D01*
G75*
G02*
X117571000Y-72807000I0J-175000D01*
G01*
X117571000Y-74507000D01*
G75*
G02*
X117396000Y-74682000I-175000J0D01*
G01*
X117046000Y-74682000D01*
G75*
G02*
X116871000Y-74507000I0J175000D01*
G01*
X116871000Y-72807000D01*
G75*
G02*
X117046000Y-72632000I175000J0D01*
G01*
G37*
G36*
G01*
X118316000Y-72632000D02*
X118666000Y-72632000D01*
G75*
G02*
X118841000Y-72807000I0J-175000D01*
G01*
X118841000Y-74507000D01*
G75*
G02*
X118666000Y-74682000I-175000J0D01*
G01*
X118316000Y-74682000D01*
G75*
G02*
X118141000Y-74507000I0J175000D01*
G01*
X118141000Y-72807000D01*
G75*
G02*
X118316000Y-72632000I175000J0D01*
G01*
G37*
G36*
G01*
X119586000Y-72632000D02*
X119936000Y-72632000D01*
G75*
G02*
X120111000Y-72807000I0J-175000D01*
G01*
X120111000Y-74507000D01*
G75*
G02*
X119936000Y-74682000I-175000J0D01*
G01*
X119586000Y-74682000D01*
G75*
G02*
X119411000Y-74507000I0J175000D01*
G01*
X119411000Y-72807000D01*
G75*
G02*
X119586000Y-72632000I175000J0D01*
G01*
G37*
%TD*%
M02*
