%TF.GenerationSoftware,KiCad,Pcbnew,5.1.6-c6e7f7d~87~ubuntu18.04.1*%
%TF.CreationDate,2021-04-09T12:13:12+12:00*%
%TF.ProjectId,Volume Control 3 Mar18,566f6c75-6d65-4204-936f-6e74726f6c20,rev?*%
%TF.SameCoordinates,Original*%
%TF.FileFunction,Copper,L2,Bot*%
%TF.FilePolarity,Positive*%
%FSLAX46Y46*%
G04 Gerber Fmt 4.6, Leading zero omitted, Abs format (unit mm)*
G04 Created by KiCad (PCBNEW 5.1.6-c6e7f7d~87~ubuntu18.04.1) date 2021-04-09 12:13:12*
%MOMM*%
%LPD*%
G01*
G04 APERTURE LIST*
%TA.AperFunction,NonConductor*%
%ADD10C,0.100000*%
%TD*%
%TA.AperFunction,ViaPad*%
%ADD11C,0.600000*%
%TD*%
%TA.AperFunction,Conductor*%
%ADD12R,2.950000X4.500000*%
%TD*%
%TA.AperFunction,ComponentPad*%
%ADD13C,2.600000*%
%TD*%
%TA.AperFunction,ComponentPad*%
%ADD14R,1.600000X1.600000*%
%TD*%
%TA.AperFunction,ComponentPad*%
%ADD15O,1.600000X1.600000*%
%TD*%
%TA.AperFunction,Conductor*%
%ADD16R,4.500000X2.950000*%
%TD*%
%TA.AperFunction,ComponentPad*%
%ADD17O,1.700000X1.700000*%
%TD*%
%TA.AperFunction,ComponentPad*%
%ADD18R,1.700000X1.700000*%
%TD*%
%TA.AperFunction,ComponentPad*%
%ADD19O,1.740000X2.190000*%
%TD*%
%TA.AperFunction,ViaPad*%
%ADD20C,1.200000*%
%TD*%
%TA.AperFunction,ViaPad*%
%ADD21C,2.400000*%
%TD*%
%TA.AperFunction,Conductor*%
%ADD22C,1.000000*%
%TD*%
%TA.AperFunction,Conductor*%
%ADD23C,2.000000*%
%TD*%
%TA.AperFunction,Conductor*%
%ADD24C,0.600000*%
%TD*%
G04 APERTURE END LIST*
D10*
G36*
X93649800Y-89839800D02*
G01*
X109626400Y-89865200D01*
X113334800Y-89865200D01*
X113334800Y-92659200D01*
X104800400Y-92659200D01*
X100457000Y-92633800D01*
X100457000Y-97688400D01*
X87934800Y-97663000D01*
X87934800Y-84175600D01*
X93624400Y-84150200D01*
X93649800Y-89839800D01*
G37*
X93649800Y-89839800D02*
X109626400Y-89865200D01*
X113334800Y-89865200D01*
X113334800Y-92659200D01*
X104800400Y-92659200D01*
X100457000Y-92633800D01*
X100457000Y-97688400D01*
X87934800Y-97663000D01*
X87934800Y-84175600D01*
X93624400Y-84150200D01*
X93649800Y-89839800D01*
G36*
X114376200Y-110845600D02*
G01*
X114350800Y-115189000D01*
X119405400Y-115189000D01*
X119380000Y-127711200D01*
X105892600Y-127711200D01*
X105867200Y-122021600D01*
X111556800Y-121996200D01*
X111582200Y-106019600D01*
X111582200Y-102311200D01*
X114376200Y-102311200D01*
X114376200Y-110845600D01*
G37*
X114376200Y-110845600D02*
X114350800Y-115189000D01*
X119405400Y-115189000D01*
X119380000Y-127711200D01*
X105892600Y-127711200D01*
X105867200Y-122021600D01*
X111556800Y-121996200D01*
X111582200Y-106019600D01*
X111582200Y-102311200D01*
X114376200Y-102311200D01*
X114376200Y-110845600D01*
G36*
X114528600Y-144907000D02*
G01*
X114503200Y-149250400D01*
X119557800Y-149250400D01*
X119532400Y-161772600D01*
X106045000Y-161772600D01*
X106019600Y-156083000D01*
X111709200Y-156057600D01*
X111734600Y-140081000D01*
X111734600Y-136372600D01*
X114528600Y-136372600D01*
X114528600Y-144907000D01*
G37*
X114528600Y-144907000D02*
X114503200Y-149250400D01*
X119557800Y-149250400D01*
X119532400Y-161772600D01*
X106045000Y-161772600D01*
X106019600Y-156083000D01*
X111709200Y-156057600D01*
X111734600Y-140081000D01*
X111734600Y-136372600D01*
X114528600Y-136372600D01*
X114528600Y-144907000D01*
D11*
%TO.N,Net-(A1-Pad29)*%
%TO.C,VCU1*%
X113630000Y-110105600D03*
X113630000Y-109005600D03*
X112430000Y-109005600D03*
X112430000Y-110105600D03*
X113630000Y-106505600D03*
X113630000Y-107705600D03*
X112430000Y-107705600D03*
X112430000Y-106505600D03*
D12*
X113030000Y-108305600D03*
%TD*%
D13*
%TO.P,VCJ3,1*%
%TO.N,Net-(A1-Pad29)*%
X125044200Y-131927600D03*
%TD*%
D12*
%TO.N,Net-(C16-Pad1)*%
%TO.C,VCU2*%
X113182400Y-142430000D03*
D11*
X112582400Y-140630000D03*
X112582400Y-141830000D03*
X113782400Y-141830000D03*
X113782400Y-140630000D03*
X112582400Y-144230000D03*
X112582400Y-143130000D03*
X113782400Y-143130000D03*
X113782400Y-144230000D03*
%TD*%
D13*
%TO.P,VCJ1,1*%
%TO.N,Net-(VCC12-Pad1)*%
X125857000Y-113487200D03*
%TD*%
D14*
%TO.P,A1,1*%
%TO.N,Net-(A1-Pad1)*%
X85090000Y-31496000D03*
D15*
%TO.P,A1,17*%
%TO.N,Net-(A1-Pad17)*%
X100330000Y-64516000D03*
%TO.P,A1,2*%
%TO.N,Net-(A1-Pad2)*%
X85090000Y-34036000D03*
%TO.P,A1,18*%
%TO.N,Net-(A1-Pad18)*%
X100330000Y-61976000D03*
%TO.P,A1,3*%
%TO.N,Net-(A1-Pad3)*%
X85090000Y-36576000D03*
%TO.P,A1,19*%
%TO.N,Net-(A1-Pad19)*%
X100330000Y-59436000D03*
%TO.P,A1,4*%
%TO.N,Net-(A1-Pad29)*%
X85090000Y-39116000D03*
%TO.P,A1,20*%
%TO.N,Net-(A1-Pad20)*%
X100330000Y-56896000D03*
%TO.P,A1,5*%
%TO.N,Net-(A1-Pad5)*%
X85090000Y-41656000D03*
%TO.P,A1,21*%
%TO.N,Net-(A1-Pad21)*%
X100330000Y-54356000D03*
%TO.P,A1,6*%
%TO.N,Net-(A1-Pad6)*%
X85090000Y-44196000D03*
%TO.P,A1,22*%
%TO.N,Net-(A1-Pad22)*%
X100330000Y-51816000D03*
%TO.P,A1,7*%
%TO.N,Net-(A1-Pad7)*%
X85090000Y-46736000D03*
%TO.P,A1,23*%
%TO.N,Net-(A1-Pad23)*%
X100330000Y-49276000D03*
%TO.P,A1,8*%
%TO.N,Net-(A1-Pad8)*%
X85090000Y-49276000D03*
%TO.P,A1,24*%
%TO.N,Net-(A1-Pad24)*%
X100330000Y-46736000D03*
%TO.P,A1,9*%
%TO.N,Net-(A1-Pad9)*%
X85090000Y-51816000D03*
%TO.P,A1,25*%
%TO.N,Net-(A1-Pad25)*%
X100330000Y-44196000D03*
%TO.P,A1,10*%
%TO.N,Net-(A1-Pad10)*%
X85090000Y-54356000D03*
%TO.P,A1,26*%
%TO.N,Net-(A1-Pad26)*%
X100330000Y-41656000D03*
%TO.P,A1,11*%
%TO.N,Net-(A1-Pad11)*%
X85090000Y-56896000D03*
%TO.P,A1,27*%
%TO.N,Net-(A1-Pad27)*%
X100330000Y-39116000D03*
%TO.P,A1,12*%
%TO.N,Net-(A1-Pad12)*%
X85090000Y-59436000D03*
%TO.P,A1,28*%
%TO.N,Net-(A1-Pad28)*%
X100330000Y-36576000D03*
%TO.P,A1,13*%
%TO.N,Net-(A1-Pad13)*%
X85090000Y-61976000D03*
%TO.P,A1,29*%
%TO.N,Net-(A1-Pad29)*%
X100330000Y-34036000D03*
%TO.P,A1,14*%
%TO.N,Net-(A1-Pad14)*%
X85090000Y-64516000D03*
%TO.P,A1,30*%
%TO.N,Net-(A1-Pad30)*%
X100330000Y-31496000D03*
%TO.P,A1,15*%
%TO.N,Net-(A1-Pad15)*%
X85090000Y-67056000D03*
%TO.P,A1,16*%
%TO.N,Net-(A1-Pad16)*%
X100330000Y-67056000D03*
%TD*%
D13*
%TO.P,J16,1*%
%TO.N,Net-(A1-Pad29)*%
X119380000Y-177165000D03*
%TD*%
%TO.P,J17,1*%
%TO.N,Net-(C11-Pad2)*%
X109220000Y-177292000D03*
%TD*%
%TO.P,J4,1*%
%TO.N,Net-(J4-Pad1)*%
X112776000Y-41656000D03*
%TD*%
%TO.P,J5,1*%
%TO.N,Net-(J5-Pad1)*%
X114046000Y-27559000D03*
%TD*%
%TO.P,J6,1*%
%TO.N,Net-(A1-Pad29)*%
X123444000Y-27432000D03*
%TD*%
D16*
%TO.N,Net-(A1-Pad29)*%
%TO.C,VCU3*%
X107340400Y-91313000D03*
D11*
X109140400Y-90713000D03*
X107940400Y-90713000D03*
X107940400Y-91913000D03*
X109140400Y-91913000D03*
X105540400Y-90713000D03*
X106640400Y-90713000D03*
X106640400Y-91913000D03*
X105540400Y-91913000D03*
%TD*%
D13*
%TO.P,J8,1*%
%TO.N,Net-(C14-Pad2)*%
X109220000Y-168783000D03*
%TD*%
%TO.P,J9,1*%
%TO.N,Net-(A1-Pad29)*%
X119380000Y-168656000D03*
%TD*%
D17*
%TO.P,J7,4*%
%TO.N,Net-(C19-Pad2)*%
X107569000Y-71120000D03*
%TO.P,J7,3*%
%TO.N,Net-(C20-Pad2)*%
X107569000Y-68580000D03*
%TO.P,J7,2*%
%TO.N,Net-(A1-Pad27)*%
X107569000Y-66040000D03*
D18*
%TO.P,J7,1*%
%TO.N,Net-(A1-Pad29)*%
X107569000Y-63500000D03*
%TD*%
D17*
%TO.P,J13,2*%
%TO.N,Net-(A1-Pad25)*%
X105156000Y-41529000D03*
D18*
%TO.P,J13,1*%
%TO.N,Net-(A1-Pad29)*%
X107696000Y-41529000D03*
%TD*%
%TO.P,J14,1*%
%TO.N,Net-(A1-Pad29)*%
X104902000Y-34036000D03*
D17*
%TO.P,J14,2*%
%TO.N,Net-(A1-Pad26)*%
X104902000Y-36576000D03*
%TD*%
%TO.P,J1,1*%
%TO.N,Net-(A1-Pad29)*%
%TA.AperFunction,ComponentPad*%
G36*
G01*
X113176000Y-58503001D02*
X113176000Y-56812999D01*
G75*
G02*
X113425999Y-56563000I249999J0D01*
G01*
X114666001Y-56563000D01*
G75*
G02*
X114916000Y-56812999I0J-249999D01*
G01*
X114916000Y-58503001D01*
G75*
G02*
X114666001Y-58753000I-249999J0D01*
G01*
X113425999Y-58753000D01*
G75*
G02*
X113176000Y-58503001I0J249999D01*
G01*
G37*
%TD.AperFunction*%
D19*
%TO.P,J1,2*%
%TO.N,Net-(J1-Pad2)*%
X116586000Y-57658000D03*
%TO.P,J1,3*%
%TO.N,Net-(J1-Pad3)*%
X119126000Y-57658000D03*
%TD*%
D18*
%TO.P,J2,1*%
%TO.N,Net-(A1-Pad29)*%
X116713000Y-51308000D03*
D17*
%TO.P,J2,2*%
%TO.N,Net-(A1-Pad22)*%
X114173000Y-51308000D03*
%TD*%
D18*
%TO.P,J3,1*%
%TO.N,Net-(A1-Pad29)*%
X112649000Y-46482000D03*
D17*
%TO.P,J3,2*%
%TO.N,Net-(A1-Pad27)*%
X110109000Y-46482000D03*
%TO.P,J3,3*%
%TO.N,Net-(A1-Pad23)*%
X107569000Y-46482000D03*
%TO.P,J3,4*%
%TO.N,Net-(A1-Pad24)*%
X105029000Y-46482000D03*
%TD*%
D20*
%TO.N,Net-(A1-Pad29)*%
X62087000Y-35671000D03*
X73660000Y-28448000D03*
X60087000Y-28591000D03*
X62087000Y-47990000D03*
X73660000Y-40767000D03*
X60087000Y-40910000D03*
X73660000Y-53086000D03*
X62087000Y-60309000D03*
X60087000Y-53229000D03*
X73660000Y-65405000D03*
X62087000Y-72628000D03*
X60087000Y-65548000D03*
X73660000Y-77724000D03*
X62087000Y-84947000D03*
X60087000Y-77867000D03*
X73660000Y-90043000D03*
X62087000Y-97266000D03*
X60087000Y-90186000D03*
X73660000Y-102362000D03*
X62087000Y-109585000D03*
X60087000Y-102505000D03*
X73660000Y-114681000D03*
X62087000Y-121904000D03*
X60087000Y-114824000D03*
X73660000Y-127000000D03*
X62087000Y-134223000D03*
X60087000Y-127143000D03*
X73660000Y-139319000D03*
X62087000Y-146542000D03*
X60087000Y-139462000D03*
X73660000Y-151638000D03*
X62087000Y-158861000D03*
X60087000Y-151781000D03*
X73660000Y-163957000D03*
X62087000Y-171180000D03*
X60087000Y-164100000D03*
D21*
X92329000Y-160401000D03*
X90424000Y-176657000D03*
X123825000Y-70231000D03*
X119380000Y-173101000D03*
X119888000Y-104394000D03*
D20*
X97282000Y-33274000D03*
D21*
X123698000Y-165100000D03*
D20*
%TO.N,Net-(A1-Pad20)*%
X91440000Y-52070000D03*
%TO.N,Net-(A1-Pad5)*%
X95758000Y-70358000D03*
%TO.N,Net-(A1-Pad6)*%
X95123000Y-73279000D03*
D21*
%TO.N,Net-(A1-Pad27)*%
X96012000Y-76454000D03*
D20*
%TO.N,Net-(A1-Pad15)*%
X86360000Y-74168000D03*
%TO.N,Net-(Q1-Pad3)*%
X45593000Y-29083000D03*
%TO.N,Net-(Q14-Pad3)*%
X51705000Y-28591000D03*
X51705000Y-40910000D03*
X51705000Y-53229000D03*
X51705000Y-65548000D03*
X51705000Y-77867000D03*
X51705000Y-90186000D03*
X51705000Y-102505000D03*
X51705000Y-114824000D03*
X51705000Y-127143000D03*
X51705000Y-139462000D03*
X51705000Y-151781000D03*
X51705000Y-164100000D03*
X51705000Y-174736000D03*
%TO.N,Net-(Q10-Pad3)*%
X45593000Y-41402000D03*
%TO.N,Net-(Q13-Pad3)*%
X45593000Y-53721000D03*
%TO.N,Net-(Q19-Pad3)*%
X45593000Y-66040000D03*
%TO.N,Net-(Q25-Pad3)*%
X45593000Y-78359000D03*
%TO.N,Net-(Q31-Pad3)*%
X45593000Y-90678000D03*
%TO.N,Net-(Q37-Pad3)*%
X45593000Y-102997000D03*
%TO.N,Net-(Q43-Pad3)*%
X45593000Y-115316000D03*
%TO.N,Net-(Q49-Pad3)*%
X45593000Y-127635000D03*
%TO.N,Net-(Q55-Pad3)*%
X45593000Y-139954000D03*
%TO.N,Net-(Q61-Pad3)*%
X45593000Y-152273000D03*
%TO.N,Net-(Q67-Pad3)*%
X45593000Y-164592000D03*
%TO.N,Net-(R1-Pad2)*%
X40132000Y-29083000D03*
X40132000Y-35560000D03*
%TO.N,Net-(C23-Pad1)*%
X41910000Y-27432000D03*
%TO.N,Net-(R13-Pad1)*%
X40132000Y-47879000D03*
X40132000Y-41402000D03*
%TO.N,Net-(R13-Pad2)*%
X40132000Y-53721000D03*
X40132000Y-60198000D03*
%TO.N,Net-(R19-Pad2)*%
X40132000Y-66040000D03*
X40132000Y-72517000D03*
%TO.N,Net-(R25-Pad2)*%
X40132000Y-78359000D03*
X40132000Y-84836000D03*
%TO.N,Net-(R31-Pad2)*%
X40132000Y-90678000D03*
X40132000Y-97155000D03*
%TO.N,Net-(R37-Pad2)*%
X40132000Y-102997000D03*
X40132000Y-109474000D03*
%TO.N,Net-(R43-Pad2)*%
X40132000Y-115316000D03*
X40132000Y-121793000D03*
%TO.N,Net-(R49-Pad2)*%
X40132000Y-127635000D03*
X40132000Y-134112000D03*
%TO.N,Net-(R55-Pad2)*%
X40132000Y-139954000D03*
X40132000Y-146431000D03*
%TO.N,Net-(R61-Pad2)*%
X40132000Y-152273000D03*
X40132000Y-158750000D03*
%TO.N,Net-(C15-Pad1)*%
X70993000Y-28448000D03*
X70993000Y-40767000D03*
X70993000Y-53086000D03*
X70993000Y-65405000D03*
X70993000Y-77724000D03*
X70993000Y-90043000D03*
X70993000Y-102362000D03*
X70993000Y-114681000D03*
X70993000Y-127000000D03*
X70993000Y-139319000D03*
X70993000Y-151638000D03*
X70993000Y-163957000D03*
D21*
X89027000Y-160401000D03*
D20*
X87630000Y-174879000D03*
D21*
X89027000Y-132080000D03*
D20*
X127000000Y-66294000D03*
%TO.N,Net-(Q73-Pad3)*%
X45466000Y-35306000D03*
X57896000Y-35671000D03*
X55245000Y-36957000D03*
X49514000Y-35671000D03*
%TO.N,Net-(Q81-Pad3)*%
X49514000Y-60309000D03*
X57896000Y-60309000D03*
X45466000Y-59944000D03*
X55245000Y-61595000D03*
%TO.N,Net-(Q85-Pad3)*%
X49514000Y-72628000D03*
X57896000Y-72628000D03*
X45466000Y-72263000D03*
X55245000Y-73914000D03*
%TO.N,Net-(Q93-Pad3)*%
X49514000Y-97266000D03*
X57896000Y-97266000D03*
X45466000Y-96901000D03*
X55245000Y-98552000D03*
%TO.N,Net-(Q102-Pad3)*%
X53705000Y-35671000D03*
X53705000Y-47990000D03*
X53705000Y-60309000D03*
X53705000Y-72628000D03*
X53705000Y-84947000D03*
X53705000Y-97266000D03*
X53705000Y-109585000D03*
X53705000Y-121904000D03*
X53705000Y-134223000D03*
X53705000Y-146542000D03*
X53705000Y-158861000D03*
X53705000Y-171180000D03*
X53705000Y-176546000D03*
%TO.N,Net-(Q105-Pad3)*%
X49514000Y-134223000D03*
X57896000Y-134223000D03*
X45466000Y-133858000D03*
X55245000Y-135509000D03*
%TO.N,Net-(Q109-Pad3)*%
X49514000Y-146542000D03*
X57896000Y-146542000D03*
X45466000Y-146177000D03*
X55245000Y-147828000D03*
%TO.N,Net-(Q117-Pad3)*%
X49514000Y-171180000D03*
X57896000Y-171180000D03*
X45466000Y-170815000D03*
X55245000Y-172466000D03*
%TO.N,Net-(C22-Pad1)*%
X43942000Y-26162000D03*
%TO.N,Net-(R76-Pad2)*%
X41884500Y-37947500D03*
X38481000Y-45593000D03*
%TO.N,Net-(R100-Pad1)*%
X41884500Y-111861500D03*
X38481000Y-119507000D03*
%TO.N,Net-(R100-Pad2)*%
X41884500Y-124180500D03*
X38481000Y-131826000D03*
%TO.N,Net-(Q77-Pad3)*%
X45466000Y-47625000D03*
X57896000Y-47990000D03*
X55245000Y-49276000D03*
X49514000Y-47990000D03*
%TO.N,Net-(Q89-Pad3)*%
X49514000Y-84947000D03*
X57896000Y-84947000D03*
X45466000Y-84582000D03*
X55245000Y-86233000D03*
%TO.N,Net-(Q97-Pad3)*%
X49514000Y-109585000D03*
X57896000Y-109585000D03*
X45466000Y-109220000D03*
X55245000Y-110871000D03*
%TO.N,Net-(Q101-Pad3)*%
X49514000Y-121904000D03*
X57896000Y-121904000D03*
X45466000Y-121539000D03*
X55245000Y-123190000D03*
%TO.N,Net-(Q113-Pad3)*%
X49514000Y-158861000D03*
X57896000Y-158861000D03*
X45466000Y-158496000D03*
X55245000Y-160147000D03*
%TO.N,Net-(R80-Pad2)*%
X41884500Y-50266500D03*
X38481000Y-57912000D03*
%TO.N,Net-(R83-Pad2)*%
X41884500Y-62585500D03*
X38481000Y-70231000D03*
%TO.N,Net-(R86-Pad2)*%
X41884500Y-74904500D03*
X38481000Y-82550000D03*
%TO.N,Net-(R90-Pad2)*%
X41884500Y-87223500D03*
X38481000Y-94869000D03*
%TO.N,Net-(R93-Pad2)*%
X41884500Y-99542500D03*
X38481000Y-107188000D03*
%TO.N,Net-(R104-Pad2)*%
X41884500Y-136499500D03*
X38481000Y-144145000D03*
%TO.N,Net-(R107-Pad2)*%
X41884500Y-148818500D03*
X38481000Y-156464000D03*
%TO.N,Net-(R110-Pad2)*%
X41884500Y-161137500D03*
X38481000Y-168783000D03*
%TO.N,Net-(C16-Pad1)*%
X64389000Y-29083000D03*
X64389000Y-41402000D03*
X64389000Y-53721000D03*
X64389000Y-66040000D03*
X64389000Y-78359000D03*
X64389000Y-90678000D03*
X64389000Y-102997000D03*
X64389000Y-115316000D03*
X64389000Y-127635000D03*
X64389000Y-139954000D03*
X64389000Y-152273000D03*
X64389000Y-164592000D03*
D21*
X95631000Y-163576000D03*
D20*
X83820000Y-163576000D03*
X95504000Y-168148000D03*
X121158000Y-43434000D03*
X129159000Y-76200000D03*
%TO.N,Net-(C22-Pad1)*%
X90043000Y-26162000D03*
%TO.N,Net-(C23-Pad1)*%
X90170000Y-27940000D03*
X95758000Y-27940000D03*
%TD*%
D22*
%TO.N,Net-(A1-Pad29)*%
X62087000Y-35671000D02*
X62087000Y-38973000D01*
X60087000Y-38973000D02*
X60087000Y-40910000D01*
X73660000Y-38989000D02*
X73660000Y-40767000D01*
X60087000Y-28591000D02*
X60087000Y-38973000D01*
X73660000Y-28448000D02*
X73660000Y-38989000D01*
X62087000Y-38973000D02*
X62087000Y-47990000D01*
X62087000Y-47990000D02*
X62087000Y-51292000D01*
X60087000Y-51292000D02*
X60087000Y-53229000D01*
X73660000Y-51308000D02*
X73660000Y-53086000D01*
X60087000Y-40910000D02*
X60087000Y-51292000D01*
X73660000Y-40767000D02*
X73660000Y-51308000D01*
X62087000Y-51292000D02*
X62087000Y-60309000D01*
X73660000Y-63627000D02*
X73660000Y-65405000D01*
X73660000Y-53086000D02*
X73660000Y-63627000D01*
X62087000Y-63611000D02*
X62087000Y-72628000D01*
X60087000Y-53229000D02*
X60087000Y-63611000D01*
X62087000Y-60309000D02*
X62087000Y-63611000D01*
X60087000Y-63611000D02*
X60087000Y-65548000D01*
X73660000Y-75946000D02*
X73660000Y-77724000D01*
X73660000Y-65405000D02*
X73660000Y-75946000D01*
X62087000Y-75930000D02*
X62087000Y-84947000D01*
X60087000Y-65548000D02*
X60087000Y-75930000D01*
X62087000Y-72628000D02*
X62087000Y-75930000D01*
X60087000Y-75930000D02*
X60087000Y-77867000D01*
X73660000Y-88265000D02*
X73660000Y-90043000D01*
X73660000Y-77724000D02*
X73660000Y-88265000D01*
X62087000Y-88249000D02*
X62087000Y-97266000D01*
X60087000Y-77867000D02*
X60087000Y-88249000D01*
X62087000Y-84947000D02*
X62087000Y-88249000D01*
X60087000Y-88249000D02*
X60087000Y-90186000D01*
X73660000Y-100584000D02*
X73660000Y-102362000D01*
X73660000Y-90043000D02*
X73660000Y-100584000D01*
X62087000Y-100568000D02*
X62087000Y-109585000D01*
X60087000Y-90186000D02*
X60087000Y-100568000D01*
X62087000Y-97266000D02*
X62087000Y-100568000D01*
X60087000Y-100568000D02*
X60087000Y-102505000D01*
X73660000Y-112903000D02*
X73660000Y-114681000D01*
X73660000Y-102362000D02*
X73660000Y-112903000D01*
X62087000Y-112887000D02*
X62087000Y-121904000D01*
X60087000Y-102505000D02*
X60087000Y-112887000D01*
X62087000Y-109585000D02*
X62087000Y-112887000D01*
X60087000Y-112887000D02*
X60087000Y-114824000D01*
X73660000Y-125222000D02*
X73660000Y-127000000D01*
X73660000Y-114681000D02*
X73660000Y-125222000D01*
X62087000Y-125206000D02*
X62087000Y-134223000D01*
X60087000Y-114824000D02*
X60087000Y-125206000D01*
X62087000Y-121904000D02*
X62087000Y-125206000D01*
X60087000Y-125206000D02*
X60087000Y-127143000D01*
X73660000Y-137541000D02*
X73660000Y-139319000D01*
X73660000Y-127000000D02*
X73660000Y-137541000D01*
X62087000Y-137525000D02*
X62087000Y-146542000D01*
X60087000Y-127143000D02*
X60087000Y-137525000D01*
X62087000Y-134223000D02*
X62087000Y-137525000D01*
X60087000Y-137525000D02*
X60087000Y-139462000D01*
X73660000Y-149860000D02*
X73660000Y-151638000D01*
X73660000Y-139319000D02*
X73660000Y-149860000D01*
X62087000Y-149844000D02*
X62087000Y-158861000D01*
X60087000Y-139462000D02*
X60087000Y-149844000D01*
X62087000Y-146542000D02*
X62087000Y-149844000D01*
X60087000Y-149844000D02*
X60087000Y-151781000D01*
X73660000Y-162179000D02*
X73660000Y-163957000D01*
X73660000Y-151638000D02*
X73660000Y-162179000D01*
X62087000Y-162163000D02*
X62087000Y-171180000D01*
X60087000Y-151781000D02*
X60087000Y-162163000D01*
X62087000Y-158861000D02*
X62087000Y-162163000D01*
X60087000Y-162163000D02*
X60087000Y-164100000D01*
X73660000Y-163957000D02*
X75565000Y-163957000D01*
X75565000Y-163957000D02*
X82042000Y-157480000D01*
D23*
X90424000Y-176657000D02*
X90424000Y-176784000D01*
D22*
X62087000Y-171180000D02*
X62087000Y-172069000D01*
X62087000Y-172069000D02*
X64008000Y-173990000D01*
X64008000Y-173990000D02*
X80772000Y-173990000D01*
X83439000Y-176657000D02*
X90424000Y-176657000D01*
X80772000Y-173990000D02*
X83439000Y-176657000D01*
X62484000Y-176022000D02*
X60087000Y-173625000D01*
X60087000Y-173625000D02*
X60087000Y-164100000D01*
X82169000Y-178562000D02*
X79629000Y-176022000D01*
X79629000Y-176022000D02*
X62484000Y-176022000D01*
X90424000Y-176657000D02*
X88519000Y-178562000D01*
X88519000Y-178562000D02*
X82169000Y-178562000D01*
X91789001Y-175291999D02*
X100425001Y-175291999D01*
X90424000Y-176657000D02*
X91789001Y-175291999D01*
X102616000Y-173101000D02*
X119380000Y-173101000D01*
X100425001Y-175291999D02*
X102616000Y-173101000D01*
D23*
X119380000Y-168656000D02*
X119380000Y-177165000D01*
X119888000Y-104394000D02*
X119888000Y-112395000D01*
X119888000Y-112395000D02*
X122047000Y-114554000D01*
X122047000Y-114554000D02*
X122047000Y-125095000D01*
X125044200Y-128092200D02*
X125044200Y-131927600D01*
X122047000Y-125095000D02*
X125044200Y-128092200D01*
X123825000Y-73279000D02*
X117729000Y-79375000D01*
X123825000Y-70231000D02*
X123825000Y-73279000D01*
X87249000Y-79375000D02*
X83312000Y-83312000D01*
X83312000Y-83312000D02*
X83312000Y-143383000D01*
X117729000Y-79375000D02*
X87249000Y-79375000D01*
X83312000Y-143383000D02*
X93472000Y-153543000D01*
X93472000Y-153543000D02*
X93472000Y-155702000D01*
X93472000Y-155702000D02*
X92329000Y-156845000D01*
D22*
X82042000Y-157480000D02*
X89916000Y-157480000D01*
X91313000Y-158877000D02*
X92329000Y-158877000D01*
D23*
X92329000Y-156845000D02*
X92329000Y-158877000D01*
D22*
X89916000Y-157480000D02*
X91313000Y-158877000D01*
D23*
X92329000Y-158877000D02*
X92329000Y-160401000D01*
X90424000Y-176657000D02*
X90424000Y-169926000D01*
X92329000Y-168021000D02*
X92329000Y-160401000D01*
X90424000Y-169926000D02*
X92329000Y-168021000D01*
D22*
X85090000Y-39116000D02*
X96266000Y-39116000D01*
X96266000Y-39116000D02*
X97663000Y-37719000D01*
X97663000Y-37719000D02*
X97663000Y-35433000D01*
X99060000Y-34036000D02*
X100330000Y-34036000D01*
X97663000Y-35433000D02*
X99060000Y-34036000D01*
X108204000Y-63500000D02*
X114046000Y-57658000D01*
X107569000Y-63500000D02*
X108204000Y-63500000D01*
X97282000Y-33274000D02*
X97282000Y-31242000D01*
X97282000Y-31242000D02*
X99060000Y-29464000D01*
X99155001Y-29559001D02*
X111347001Y-29559001D01*
X99060000Y-29464000D02*
X99155001Y-29559001D01*
X111347001Y-29559001D02*
X112268000Y-30480000D01*
X120396000Y-30480000D02*
X123444000Y-27432000D01*
X112268000Y-30480000D02*
X120396000Y-30480000D01*
X123698000Y-165100000D02*
X122174000Y-165100000D01*
X122174000Y-165100000D02*
X121412000Y-165862000D01*
X121412000Y-165862000D02*
X117348000Y-165862000D01*
X117348000Y-165862000D02*
X111760000Y-171450000D01*
X111760000Y-171450000D02*
X94488000Y-171450000D01*
X90424000Y-175514000D02*
X90424000Y-176657000D01*
X94488000Y-171450000D02*
X90424000Y-175514000D01*
D24*
%TO.N,Net-(A1-Pad20)*%
X91440000Y-52070000D02*
X94996000Y-52070000D01*
X99822000Y-56896000D02*
X100330000Y-56896000D01*
X94996000Y-52070000D02*
X99822000Y-56896000D01*
%TO.N,Net-(A1-Pad5)*%
X85090000Y-41656000D02*
X86487000Y-41656000D01*
X86487000Y-41656000D02*
X89154000Y-44323000D01*
X89154000Y-44323000D02*
X89154000Y-63119000D01*
X89154000Y-63119000D02*
X92710000Y-66675000D01*
X92710000Y-66675000D02*
X92710000Y-68199000D01*
X92710000Y-68199000D02*
X94869000Y-70358000D01*
X94869000Y-70358000D02*
X95758000Y-70358000D01*
X95758000Y-70358000D02*
X95758000Y-70358000D01*
%TO.N,Net-(A1-Pad6)*%
X85090000Y-44196000D02*
X86360000Y-44196000D01*
X86360000Y-44196000D02*
X87884000Y-45720000D01*
X87884000Y-45720000D02*
X87884000Y-63627000D01*
X87884000Y-63627000D02*
X91313000Y-67056000D01*
X91313000Y-67056000D02*
X91313000Y-70993000D01*
X91313000Y-70993000D02*
X93599000Y-73279000D01*
X93599000Y-73279000D02*
X95123000Y-73279000D01*
X95123000Y-73279000D02*
X95123000Y-73279000D01*
D22*
%TO.N,Net-(A1-Pad27)*%
X100330000Y-39116000D02*
X102743000Y-41529000D01*
X102743000Y-42418000D02*
X104267000Y-43942000D01*
X102743000Y-41529000D02*
X102743000Y-42418000D01*
X104267000Y-43942000D02*
X108204000Y-43942000D01*
X110109000Y-45847000D02*
X110109000Y-46482000D01*
X108204000Y-43942000D02*
X110109000Y-45847000D01*
D23*
X110109000Y-46482000D02*
X110109000Y-51435000D01*
X110109000Y-51435000D02*
X104140000Y-57404000D01*
X104140000Y-70866000D02*
X98552000Y-76454000D01*
X98552000Y-76454000D02*
X96012000Y-76454000D01*
X96012000Y-76454000D02*
X96012000Y-76454000D01*
X107569000Y-66040000D02*
X104140000Y-66040000D01*
X104140000Y-57404000D02*
X104140000Y-66040000D01*
X104140000Y-66040000D02*
X104140000Y-70866000D01*
D24*
%TO.N,Net-(A1-Pad15)*%
X86360000Y-68326000D02*
X85090000Y-67056000D01*
X86360000Y-74168000D02*
X86360000Y-68326000D01*
D22*
%TO.N,Net-(Q14-Pad3)*%
X51705000Y-38973000D02*
X51705000Y-40910000D01*
X51705000Y-28591000D02*
X51705000Y-38973000D01*
X51705000Y-51292000D02*
X51705000Y-53229000D01*
X51705000Y-40910000D02*
X51705000Y-51292000D01*
X51705000Y-63611000D02*
X51705000Y-65548000D01*
X51705000Y-53229000D02*
X51705000Y-63611000D01*
X51705000Y-75930000D02*
X51705000Y-77867000D01*
X51705000Y-65548000D02*
X51705000Y-75930000D01*
X51705000Y-88249000D02*
X51705000Y-90186000D01*
X51705000Y-77867000D02*
X51705000Y-88249000D01*
X51705000Y-100568000D02*
X51705000Y-102505000D01*
X51705000Y-90186000D02*
X51705000Y-100568000D01*
X51705000Y-112887000D02*
X51705000Y-114824000D01*
X51705000Y-102505000D02*
X51705000Y-112887000D01*
X51705000Y-125206000D02*
X51705000Y-127143000D01*
X51705000Y-114824000D02*
X51705000Y-125206000D01*
X51705000Y-137525000D02*
X51705000Y-139462000D01*
X51705000Y-127143000D02*
X51705000Y-137525000D01*
X51705000Y-149844000D02*
X51705000Y-151781000D01*
X51705000Y-139462000D02*
X51705000Y-149844000D01*
X51705000Y-162163000D02*
X51705000Y-164100000D01*
X51705000Y-151781000D02*
X51705000Y-162163000D01*
X51705000Y-174482000D02*
X51705000Y-174736000D01*
X51705000Y-164100000D02*
X51705000Y-174482000D01*
D24*
%TO.N,Net-(R1-Pad2)*%
X40132000Y-29083000D02*
X40132000Y-35560000D01*
X40132000Y-35560000D02*
X40132000Y-35560000D01*
%TO.N,Net-(C23-Pad1)*%
X41910000Y-27432000D02*
X69723000Y-27432000D01*
X69723000Y-27432000D02*
X70104000Y-27051000D01*
%TO.N,Net-(R13-Pad1)*%
X40132000Y-47879000D02*
X40132000Y-47879000D01*
X40132000Y-41402000D02*
X40132000Y-47879000D01*
%TO.N,Net-(R13-Pad2)*%
X40132000Y-53721000D02*
X40132000Y-60198000D01*
X40132000Y-60198000D02*
X40132000Y-60198000D01*
%TO.N,Net-(R19-Pad2)*%
X40132000Y-66040000D02*
X40132000Y-72517000D01*
X40132000Y-72517000D02*
X40132000Y-72517000D01*
%TO.N,Net-(R25-Pad2)*%
X40132000Y-78359000D02*
X40132000Y-84836000D01*
X40132000Y-84836000D02*
X40132000Y-84836000D01*
%TO.N,Net-(R31-Pad2)*%
X40132000Y-90678000D02*
X40132000Y-97155000D01*
X40132000Y-97155000D02*
X40132000Y-97155000D01*
%TO.N,Net-(R37-Pad2)*%
X40132000Y-102997000D02*
X40132000Y-109474000D01*
X40132000Y-109474000D02*
X40132000Y-109474000D01*
%TO.N,Net-(R43-Pad2)*%
X40132000Y-115316000D02*
X40132000Y-121793000D01*
X40132000Y-121793000D02*
X40132000Y-121793000D01*
%TO.N,Net-(R49-Pad2)*%
X40132000Y-127635000D02*
X40132000Y-134112000D01*
X40132000Y-134112000D02*
X40132000Y-134112000D01*
%TO.N,Net-(R55-Pad2)*%
X40132000Y-139954000D02*
X40132000Y-146431000D01*
X40132000Y-146431000D02*
X40132000Y-146431000D01*
%TO.N,Net-(R61-Pad2)*%
X40132000Y-152273000D02*
X40132000Y-158750000D01*
X40132000Y-158750000D02*
X40132000Y-158750000D01*
D22*
%TO.N,Net-(C15-Pad1)*%
X70993000Y-28448000D02*
X70993000Y-38989000D01*
X70993000Y-38989000D02*
X70993000Y-40767000D01*
X70993000Y-40767000D02*
X70993000Y-51308000D01*
X70993000Y-51308000D02*
X70993000Y-53086000D01*
X70993000Y-53086000D02*
X70993000Y-63627000D01*
X70993000Y-63627000D02*
X70993000Y-65405000D01*
X70993000Y-65405000D02*
X70993000Y-75946000D01*
X70993000Y-75946000D02*
X70993000Y-77724000D01*
X70993000Y-77724000D02*
X70993000Y-88265000D01*
X70993000Y-88265000D02*
X70993000Y-90043000D01*
X70993000Y-90043000D02*
X70993000Y-100584000D01*
X70993000Y-100584000D02*
X70993000Y-102362000D01*
X70993000Y-102362000D02*
X70993000Y-112903000D01*
X70993000Y-112903000D02*
X70993000Y-114681000D01*
X70993000Y-114681000D02*
X70993000Y-125222000D01*
X70993000Y-125222000D02*
X70993000Y-127000000D01*
X70993000Y-127000000D02*
X70993000Y-137541000D01*
X70993000Y-137541000D02*
X70993000Y-139319000D01*
X70993000Y-139319000D02*
X70993000Y-149860000D01*
X70993000Y-149860000D02*
X70993000Y-151638000D01*
X70993000Y-151638000D02*
X70993000Y-162179000D01*
X70993000Y-162179000D02*
X70993000Y-163957000D01*
X70993000Y-163957000D02*
X72898000Y-165862000D01*
X72898000Y-165862000D02*
X78232000Y-165862000D01*
X83693000Y-160401000D02*
X89027000Y-160401000D01*
X78232000Y-165862000D02*
X83693000Y-160401000D01*
X89027000Y-160401000D02*
X89027000Y-164846000D01*
X89027000Y-167902823D02*
X87630000Y-169299823D01*
X89027000Y-164846000D02*
X89027000Y-167902823D01*
X87630000Y-169299823D02*
X87630000Y-174879000D01*
X87630000Y-174879000D02*
X87630000Y-174879000D01*
X89027000Y-132080000D02*
X89027000Y-118999000D01*
X89027000Y-118999000D02*
X111252000Y-96774000D01*
X111252000Y-96774000D02*
X115824000Y-96774000D01*
X115824000Y-96774000D02*
X127000000Y-85598000D01*
X127000000Y-85598000D02*
X127000000Y-66421000D01*
X127000000Y-66421000D02*
X127000000Y-66421000D01*
D24*
%TO.N,Net-(Q73-Pad3)*%
X45466000Y-35306000D02*
X46609000Y-36449000D01*
X46609000Y-36449000D02*
X48736000Y-36449000D01*
X48736000Y-36449000D02*
X49514000Y-35671000D01*
X55245000Y-36957000D02*
X55245000Y-36957000D01*
X57928000Y-35671000D02*
X56531000Y-35671000D01*
X56531000Y-35671000D02*
X55245000Y-36957000D01*
%TO.N,Net-(Q81-Pad3)*%
X46609000Y-61087000D02*
X48736000Y-61087000D01*
X55245000Y-61595000D02*
X55245000Y-61595000D01*
X57928000Y-60309000D02*
X56531000Y-60309000D01*
X48736000Y-61087000D02*
X49514000Y-60309000D01*
X45466000Y-59944000D02*
X46609000Y-61087000D01*
X56531000Y-60309000D02*
X55245000Y-61595000D01*
%TO.N,Net-(Q85-Pad3)*%
X46609000Y-73406000D02*
X48736000Y-73406000D01*
X55245000Y-73914000D02*
X55245000Y-73914000D01*
X57928000Y-72628000D02*
X56531000Y-72628000D01*
X48736000Y-73406000D02*
X49514000Y-72628000D01*
X45466000Y-72263000D02*
X46609000Y-73406000D01*
X56531000Y-72628000D02*
X55245000Y-73914000D01*
%TO.N,Net-(Q93-Pad3)*%
X46609000Y-98044000D02*
X48736000Y-98044000D01*
X55245000Y-98552000D02*
X55245000Y-98552000D01*
X57928000Y-97266000D02*
X56531000Y-97266000D01*
X48736000Y-98044000D02*
X49514000Y-97266000D01*
X45466000Y-96901000D02*
X46609000Y-98044000D01*
X56531000Y-97266000D02*
X55245000Y-98552000D01*
D22*
%TO.N,Net-(Q102-Pad3)*%
X53705000Y-35671000D02*
X53705000Y-38973000D01*
X53705000Y-38973000D02*
X53705000Y-47990000D01*
X53705000Y-47990000D02*
X53705000Y-51292000D01*
X53705000Y-51292000D02*
X53705000Y-60309000D01*
X53705000Y-60309000D02*
X53705000Y-63611000D01*
X53705000Y-63611000D02*
X53705000Y-72628000D01*
X53705000Y-72628000D02*
X53705000Y-75930000D01*
X53705000Y-75930000D02*
X53705000Y-84947000D01*
X53705000Y-84947000D02*
X53705000Y-88249000D01*
X53705000Y-88249000D02*
X53705000Y-97266000D01*
X53705000Y-97266000D02*
X53705000Y-100568000D01*
X53705000Y-100568000D02*
X53705000Y-109585000D01*
X53705000Y-109585000D02*
X53705000Y-112887000D01*
X53705000Y-112887000D02*
X53705000Y-121904000D01*
X53705000Y-121904000D02*
X53705000Y-125206000D01*
X53705000Y-125206000D02*
X53705000Y-134223000D01*
X53705000Y-134223000D02*
X53705000Y-137525000D01*
X53705000Y-137525000D02*
X53705000Y-146542000D01*
X53705000Y-146542000D02*
X53705000Y-149844000D01*
X53705000Y-149844000D02*
X53705000Y-158861000D01*
X53705000Y-158861000D02*
X53705000Y-162163000D01*
X53705000Y-162163000D02*
X53705000Y-171180000D01*
X53705000Y-171180000D02*
X53705000Y-174482000D01*
X53705000Y-174482000D02*
X53705000Y-174641000D01*
X53705000Y-174641000D02*
X53705000Y-176546000D01*
D24*
%TO.N,Net-(Q105-Pad3)*%
X46609000Y-135001000D02*
X48736000Y-135001000D01*
X55245000Y-135509000D02*
X55245000Y-135509000D01*
X57928000Y-134223000D02*
X56531000Y-134223000D01*
X48736000Y-135001000D02*
X49514000Y-134223000D01*
X45466000Y-133858000D02*
X46609000Y-135001000D01*
X56531000Y-134223000D02*
X55245000Y-135509000D01*
%TO.N,Net-(Q109-Pad3)*%
X46609000Y-147320000D02*
X48736000Y-147320000D01*
X55245000Y-147828000D02*
X55245000Y-147828000D01*
X57928000Y-146542000D02*
X56531000Y-146542000D01*
X48736000Y-147320000D02*
X49514000Y-146542000D01*
X45466000Y-146177000D02*
X46609000Y-147320000D01*
X56531000Y-146542000D02*
X55245000Y-147828000D01*
%TO.N,Net-(Q117-Pad3)*%
X46609000Y-171958000D02*
X48736000Y-171958000D01*
X55245000Y-172466000D02*
X55245000Y-172466000D01*
X57928000Y-171180000D02*
X56531000Y-171180000D01*
X48736000Y-171958000D02*
X49514000Y-171180000D01*
X45466000Y-170815000D02*
X46609000Y-171958000D01*
X56531000Y-171180000D02*
X55245000Y-172466000D01*
%TO.N,Net-(C22-Pad1)*%
X43942000Y-26162000D02*
X90043000Y-26162000D01*
%TO.N,Net-(R76-Pad2)*%
X41884500Y-37947500D02*
X40284500Y-37947500D01*
X40284500Y-37947500D02*
X38481000Y-39751000D01*
X38481000Y-39751000D02*
X38481000Y-44958000D01*
X38481000Y-44958000D02*
X38481000Y-45593000D01*
X38481000Y-45593000D02*
X38481000Y-45593000D01*
%TO.N,Net-(R100-Pad1)*%
X40284500Y-111861500D02*
X38481000Y-113665000D01*
X41884500Y-111861500D02*
X40284500Y-111861500D01*
X38481000Y-119507000D02*
X38481000Y-119507000D01*
X38481000Y-113665000D02*
X38481000Y-118872000D01*
X38481000Y-118872000D02*
X38481000Y-119507000D01*
%TO.N,Net-(R100-Pad2)*%
X40284500Y-124180500D02*
X38481000Y-125984000D01*
X41884500Y-124180500D02*
X40284500Y-124180500D01*
X38481000Y-131826000D02*
X38481000Y-131826000D01*
X38481000Y-125984000D02*
X38481000Y-131191000D01*
X38481000Y-131191000D02*
X38481000Y-131826000D01*
%TO.N,Net-(Q77-Pad3)*%
X45466000Y-47625000D02*
X46609000Y-48768000D01*
X46609000Y-48768000D02*
X48736000Y-48768000D01*
X48736000Y-48768000D02*
X49514000Y-47990000D01*
X55245000Y-49276000D02*
X55245000Y-49276000D01*
X57928000Y-47990000D02*
X56531000Y-47990000D01*
X56531000Y-47990000D02*
X55245000Y-49276000D01*
%TO.N,Net-(Q89-Pad3)*%
X46609000Y-85725000D02*
X48736000Y-85725000D01*
X55245000Y-86233000D02*
X55245000Y-86233000D01*
X57928000Y-84947000D02*
X56531000Y-84947000D01*
X48736000Y-85725000D02*
X49514000Y-84947000D01*
X45466000Y-84582000D02*
X46609000Y-85725000D01*
X56531000Y-84947000D02*
X55245000Y-86233000D01*
%TO.N,Net-(Q97-Pad3)*%
X46609000Y-110363000D02*
X48736000Y-110363000D01*
X55245000Y-110871000D02*
X55245000Y-110871000D01*
X57928000Y-109585000D02*
X56531000Y-109585000D01*
X48736000Y-110363000D02*
X49514000Y-109585000D01*
X45466000Y-109220000D02*
X46609000Y-110363000D01*
X56531000Y-109585000D02*
X55245000Y-110871000D01*
%TO.N,Net-(Q101-Pad3)*%
X46609000Y-122682000D02*
X48736000Y-122682000D01*
X55245000Y-123190000D02*
X55245000Y-123190000D01*
X57928000Y-121904000D02*
X56531000Y-121904000D01*
X48736000Y-122682000D02*
X49514000Y-121904000D01*
X45466000Y-121539000D02*
X46609000Y-122682000D01*
X56531000Y-121904000D02*
X55245000Y-123190000D01*
%TO.N,Net-(Q113-Pad3)*%
X46609000Y-159639000D02*
X48736000Y-159639000D01*
X55245000Y-160147000D02*
X55245000Y-160147000D01*
X57928000Y-158861000D02*
X56531000Y-158861000D01*
X48736000Y-159639000D02*
X49514000Y-158861000D01*
X45466000Y-158496000D02*
X46609000Y-159639000D01*
X56531000Y-158861000D02*
X55245000Y-160147000D01*
%TO.N,Net-(R80-Pad2)*%
X40284500Y-50266500D02*
X38481000Y-52070000D01*
X38481000Y-57277000D02*
X38481000Y-57912000D01*
X38481000Y-57912000D02*
X38481000Y-57912000D01*
X38481000Y-52070000D02*
X38481000Y-57277000D01*
X41884500Y-50266500D02*
X40284500Y-50266500D01*
%TO.N,Net-(R83-Pad2)*%
X40284500Y-62585500D02*
X38481000Y-64389000D01*
X41884500Y-62585500D02*
X40284500Y-62585500D01*
X38481000Y-70231000D02*
X38481000Y-70231000D01*
X38481000Y-64389000D02*
X38481000Y-69596000D01*
X38481000Y-69596000D02*
X38481000Y-70231000D01*
%TO.N,Net-(R86-Pad2)*%
X40284500Y-74904500D02*
X38481000Y-76708000D01*
X41884500Y-74904500D02*
X40284500Y-74904500D01*
X38481000Y-82550000D02*
X38481000Y-82550000D01*
X38481000Y-76708000D02*
X38481000Y-81915000D01*
X38481000Y-81915000D02*
X38481000Y-82550000D01*
%TO.N,Net-(R90-Pad2)*%
X40284500Y-87223500D02*
X38481000Y-89027000D01*
X41884500Y-87223500D02*
X40284500Y-87223500D01*
X38481000Y-94869000D02*
X38481000Y-94869000D01*
X38481000Y-89027000D02*
X38481000Y-94234000D01*
X38481000Y-94234000D02*
X38481000Y-94869000D01*
%TO.N,Net-(R93-Pad2)*%
X40284500Y-99542500D02*
X38481000Y-101346000D01*
X41884500Y-99542500D02*
X40284500Y-99542500D01*
X38481000Y-107188000D02*
X38481000Y-107188000D01*
X38481000Y-101346000D02*
X38481000Y-106553000D01*
X38481000Y-106553000D02*
X38481000Y-107188000D01*
%TO.N,Net-(R104-Pad2)*%
X40284500Y-136499500D02*
X38481000Y-138303000D01*
X41884500Y-136499500D02*
X40284500Y-136499500D01*
X38481000Y-144145000D02*
X38481000Y-144145000D01*
X38481000Y-138303000D02*
X38481000Y-143510000D01*
X38481000Y-143510000D02*
X38481000Y-144145000D01*
%TO.N,Net-(R107-Pad2)*%
X40284500Y-148818500D02*
X38481000Y-150622000D01*
X41884500Y-148818500D02*
X40284500Y-148818500D01*
X38481000Y-156464000D02*
X38481000Y-156464000D01*
X38481000Y-150622000D02*
X38481000Y-155829000D01*
X38481000Y-155829000D02*
X38481000Y-156464000D01*
%TO.N,Net-(R110-Pad2)*%
X40284500Y-161137500D02*
X38481000Y-162941000D01*
X41884500Y-161137500D02*
X40284500Y-161137500D01*
X38481000Y-168783000D02*
X38481000Y-168783000D01*
X38481000Y-162941000D02*
X38481000Y-168148000D01*
X38481000Y-168148000D02*
X38481000Y-168783000D01*
D22*
%TO.N,Net-(C16-Pad1)*%
X64389000Y-38989000D02*
X64389000Y-41402000D01*
X64389000Y-29083000D02*
X64389000Y-38989000D01*
X64389000Y-51308000D02*
X64389000Y-53721000D01*
X64389000Y-41402000D02*
X64389000Y-51308000D01*
X64389000Y-53721000D02*
X64389000Y-63627000D01*
X64389000Y-63627000D02*
X64389000Y-66040000D01*
X64389000Y-66040000D02*
X64389000Y-75946000D01*
X64389000Y-75946000D02*
X64389000Y-78359000D01*
X64389000Y-78359000D02*
X64389000Y-88265000D01*
X64389000Y-88265000D02*
X64389000Y-90678000D01*
X64389000Y-90678000D02*
X64389000Y-100584000D01*
X64389000Y-100584000D02*
X64389000Y-102997000D01*
X64389000Y-102997000D02*
X64389000Y-112903000D01*
X64389000Y-112903000D02*
X64389000Y-115316000D01*
X64389000Y-115316000D02*
X64389000Y-125222000D01*
X64389000Y-125222000D02*
X64389000Y-127635000D01*
X64389000Y-127635000D02*
X64389000Y-137541000D01*
X64389000Y-137541000D02*
X64389000Y-139954000D01*
X64389000Y-139954000D02*
X64389000Y-149860000D01*
X64389000Y-149860000D02*
X64389000Y-152273000D01*
X64389000Y-152273000D02*
X64389000Y-162179000D01*
X64389000Y-162179000D02*
X64389000Y-164592000D01*
X67945000Y-164592000D02*
X64389000Y-164592000D01*
X79248000Y-168148000D02*
X71501000Y-168148000D01*
X71501000Y-168148000D02*
X67945000Y-164592000D01*
X95504000Y-168148000D02*
X95504000Y-168148000D01*
X95504000Y-168148000D02*
X95504000Y-168148000D01*
X125476000Y-43434000D02*
X121158000Y-43434000D01*
X129159000Y-47117000D02*
X125476000Y-43434000D01*
X129159000Y-138684000D02*
X129159000Y-76200000D01*
X105537000Y-167005000D02*
X108839000Y-163703000D01*
X108839000Y-163703000D02*
X120777000Y-163703000D01*
X120777000Y-163703000D02*
X124206000Y-160274000D01*
X124206000Y-143637000D02*
X129159000Y-138684000D01*
X124206000Y-160274000D02*
X124206000Y-143637000D01*
X95504000Y-163703000D02*
X95631000Y-163576000D01*
X95504000Y-168148000D02*
X95504000Y-163703000D01*
X79248000Y-168148000D02*
X83820000Y-163576000D01*
X105537000Y-167005000D02*
X101092000Y-167005000D01*
X97663000Y-163576000D02*
X95631000Y-163576000D01*
X101092000Y-167005000D02*
X97663000Y-163576000D01*
X129159000Y-76200000D02*
X129159000Y-47117000D01*
D24*
%TO.N,Net-(C23-Pad1)*%
X70104000Y-27051000D02*
X87757000Y-27051000D01*
X87757000Y-27051000D02*
X88646000Y-27940000D01*
X88646000Y-27940000D02*
X90170000Y-27940000D01*
X90170000Y-27940000D02*
X90170000Y-27940000D01*
X90170000Y-27940000D02*
X95758000Y-27940000D01*
X95758000Y-27940000D02*
X95758000Y-27940000D01*
%TD*%
M02*
