%TF.GenerationSoftware,KiCad,Pcbnew,5.1.6-c6e7f7d~87~ubuntu18.04.1*%
%TF.CreationDate,2021-04-09T12:13:12+12:00*%
%TF.ProjectId,Volume Control 3 Mar18,566f6c75-6d65-4204-936f-6e74726f6c20,rev?*%
%TF.SameCoordinates,Original*%
%TF.FileFunction,Paste,Top*%
%TF.FilePolarity,Positive*%
%FSLAX46Y46*%
G04 Gerber Fmt 4.6, Leading zero omitted, Abs format (unit mm)*
G04 Created by KiCad (PCBNEW 5.1.6-c6e7f7d~87~ubuntu18.04.1) date 2021-04-09 12:13:12*
%MOMM*%
%LPD*%
G01*
G04 APERTURE LIST*
%ADD10R,1.550000X0.600000*%
%ADD11R,2.600000X3.100000*%
%ADD12R,0.900000X1.200000*%
%ADD13R,5.400000X2.900000*%
%ADD14R,0.900000X0.800000*%
%ADD15R,1.200000X0.900000*%
%ADD16R,2.700000X3.600000*%
%ADD17R,3.100000X2.600000*%
%ADD18R,0.600000X1.550000*%
G04 APERTURE END LIST*
%TO.C,C15*%
G36*
G01*
X91282000Y-154434250D02*
X91282000Y-153921750D01*
G75*
G02*
X91500750Y-153703000I218750J0D01*
G01*
X91938250Y-153703000D01*
G75*
G02*
X92157000Y-153921750I0J-218750D01*
G01*
X92157000Y-154434250D01*
G75*
G02*
X91938250Y-154653000I-218750J0D01*
G01*
X91500750Y-154653000D01*
G75*
G02*
X91282000Y-154434250I0J218750D01*
G01*
G37*
G36*
G01*
X89707000Y-154434250D02*
X89707000Y-153921750D01*
G75*
G02*
X89925750Y-153703000I218750J0D01*
G01*
X90363250Y-153703000D01*
G75*
G02*
X90582000Y-153921750I0J-218750D01*
G01*
X90582000Y-154434250D01*
G75*
G02*
X90363250Y-154653000I-218750J0D01*
G01*
X89925750Y-154653000D01*
G75*
G02*
X89707000Y-154434250I0J218750D01*
G01*
G37*
%TD*%
%TO.C,VCC12*%
G36*
G01*
X123313000Y-100594000D02*
X123313000Y-101844000D01*
G75*
G02*
X123063000Y-102094000I-250000J0D01*
G01*
X122313000Y-102094000D01*
G75*
G02*
X122063000Y-101844000I0J250000D01*
G01*
X122063000Y-100594000D01*
G75*
G02*
X122313000Y-100344000I250000J0D01*
G01*
X123063000Y-100344000D01*
G75*
G02*
X123313000Y-100594000I0J-250000D01*
G01*
G37*
G36*
G01*
X120513000Y-100594000D02*
X120513000Y-101844000D01*
G75*
G02*
X120263000Y-102094000I-250000J0D01*
G01*
X119513000Y-102094000D01*
G75*
G02*
X119263000Y-101844000I0J250000D01*
G01*
X119263000Y-100594000D01*
G75*
G02*
X119513000Y-100344000I250000J0D01*
G01*
X120263000Y-100344000D01*
G75*
G02*
X120513000Y-100594000I0J-250000D01*
G01*
G37*
%TD*%
%TO.C,VCC8*%
G36*
G01*
X126587000Y-122139200D02*
X126587000Y-124139200D01*
G75*
G02*
X126337000Y-124389200I-250000J0D01*
G01*
X122837000Y-124389200D01*
G75*
G02*
X122587000Y-124139200I0J250000D01*
G01*
X122587000Y-122139200D01*
G75*
G02*
X122837000Y-121889200I250000J0D01*
G01*
X126337000Y-121889200D01*
G75*
G02*
X126587000Y-122139200I0J-250000D01*
G01*
G37*
G36*
G01*
X118587000Y-122139200D02*
X118587000Y-124139200D01*
G75*
G02*
X118337000Y-124389200I-250000J0D01*
G01*
X114837000Y-124389200D01*
G75*
G02*
X114587000Y-124139200I0J250000D01*
G01*
X114587000Y-122139200D01*
G75*
G02*
X114837000Y-121889200I250000J0D01*
G01*
X118337000Y-121889200D01*
G75*
G02*
X118587000Y-122139200I0J-250000D01*
G01*
G37*
%TD*%
%TO.C,VCC5*%
G36*
G01*
X109424150Y-137599100D02*
X110336650Y-137599100D01*
G75*
G02*
X110580400Y-137842850I0J-243750D01*
G01*
X110580400Y-138330350D01*
G75*
G02*
X110336650Y-138574100I-243750J0D01*
G01*
X109424150Y-138574100D01*
G75*
G02*
X109180400Y-138330350I0J243750D01*
G01*
X109180400Y-137842850D01*
G75*
G02*
X109424150Y-137599100I243750J0D01*
G01*
G37*
G36*
G01*
X109424150Y-135724100D02*
X110336650Y-135724100D01*
G75*
G02*
X110580400Y-135967850I0J-243750D01*
G01*
X110580400Y-136455350D01*
G75*
G02*
X110336650Y-136699100I-243750J0D01*
G01*
X109424150Y-136699100D01*
G75*
G02*
X109180400Y-136455350I0J243750D01*
G01*
X109180400Y-135967850D01*
G75*
G02*
X109424150Y-135724100I243750J0D01*
G01*
G37*
%TD*%
%TO.C,VCC3*%
G36*
G01*
X118593550Y-108453100D02*
X119506050Y-108453100D01*
G75*
G02*
X119749800Y-108696850I0J-243750D01*
G01*
X119749800Y-109184350D01*
G75*
G02*
X119506050Y-109428100I-243750J0D01*
G01*
X118593550Y-109428100D01*
G75*
G02*
X118349800Y-109184350I0J243750D01*
G01*
X118349800Y-108696850D01*
G75*
G02*
X118593550Y-108453100I243750J0D01*
G01*
G37*
G36*
G01*
X118593550Y-106578100D02*
X119506050Y-106578100D01*
G75*
G02*
X119749800Y-106821850I0J-243750D01*
G01*
X119749800Y-107309350D01*
G75*
G02*
X119506050Y-107553100I-243750J0D01*
G01*
X118593550Y-107553100D01*
G75*
G02*
X118349800Y-107309350I0J243750D01*
G01*
X118349800Y-106821850D01*
G75*
G02*
X118593550Y-106578100I243750J0D01*
G01*
G37*
%TD*%
%TO.C,VCR2*%
G36*
G01*
X109066300Y-117363400D02*
X109066300Y-116113400D01*
G75*
G02*
X109316300Y-115863400I250000J0D01*
G01*
X110066300Y-115863400D01*
G75*
G02*
X110316300Y-116113400I0J-250000D01*
G01*
X110316300Y-117363400D01*
G75*
G02*
X110066300Y-117613400I-250000J0D01*
G01*
X109316300Y-117613400D01*
G75*
G02*
X109066300Y-117363400I0J250000D01*
G01*
G37*
G36*
G01*
X106266300Y-117363400D02*
X106266300Y-116113400D01*
G75*
G02*
X106516300Y-115863400I250000J0D01*
G01*
X107266300Y-115863400D01*
G75*
G02*
X107516300Y-116113400I0J-250000D01*
G01*
X107516300Y-117363400D01*
G75*
G02*
X107266300Y-117613400I-250000J0D01*
G01*
X106516300Y-117613400D01*
G75*
G02*
X106266300Y-117363400I0J250000D01*
G01*
G37*
%TD*%
D10*
%TO.C,VCU1*%
X115730000Y-106400600D03*
X115730000Y-107670600D03*
X115730000Y-108940600D03*
X115730000Y-110210600D03*
X110330000Y-110210600D03*
X110330000Y-108940600D03*
X110330000Y-107670600D03*
X110330000Y-106400600D03*
D11*
X113030000Y-108305600D03*
%TD*%
%TO.C,VCR1*%
G36*
G01*
X106182000Y-120640000D02*
X106182000Y-119390000D01*
G75*
G02*
X106432000Y-119140000I250000J0D01*
G01*
X107182000Y-119140000D01*
G75*
G02*
X107432000Y-119390000I0J-250000D01*
G01*
X107432000Y-120640000D01*
G75*
G02*
X107182000Y-120890000I-250000J0D01*
G01*
X106432000Y-120890000D01*
G75*
G02*
X106182000Y-120640000I0J250000D01*
G01*
G37*
G36*
G01*
X103382000Y-120640000D02*
X103382000Y-119390000D01*
G75*
G02*
X103632000Y-119140000I250000J0D01*
G01*
X104382000Y-119140000D01*
G75*
G02*
X104632000Y-119390000I0J-250000D01*
G01*
X104632000Y-120640000D01*
G75*
G02*
X104382000Y-120890000I-250000J0D01*
G01*
X103632000Y-120890000D01*
G75*
G02*
X103382000Y-120640000I0J250000D01*
G01*
G37*
%TD*%
%TO.C,VCC4*%
G36*
G01*
X120142950Y-134949900D02*
X121055450Y-134949900D01*
G75*
G02*
X121299200Y-135193650I0J-243750D01*
G01*
X121299200Y-135681150D01*
G75*
G02*
X121055450Y-135924900I-243750J0D01*
G01*
X120142950Y-135924900D01*
G75*
G02*
X119899200Y-135681150I0J243750D01*
G01*
X119899200Y-135193650D01*
G75*
G02*
X120142950Y-134949900I243750J0D01*
G01*
G37*
G36*
G01*
X120142950Y-136824900D02*
X121055450Y-136824900D01*
G75*
G02*
X121299200Y-137068650I0J-243750D01*
G01*
X121299200Y-137556150D01*
G75*
G02*
X121055450Y-137799900I-243750J0D01*
G01*
X120142950Y-137799900D01*
G75*
G02*
X119899200Y-137556150I0J243750D01*
G01*
X119899200Y-137068650D01*
G75*
G02*
X120142950Y-136824900I243750J0D01*
G01*
G37*
%TD*%
D12*
%TO.C,VCD2*%
X116127800Y-137400800D03*
X112827800Y-137400800D03*
%TD*%
%TO.C,VCC6*%
G36*
G01*
X105923900Y-159965000D02*
X105923900Y-157915000D01*
G75*
G02*
X106173900Y-157665000I250000J0D01*
G01*
X107748900Y-157665000D01*
G75*
G02*
X107998900Y-157915000I0J-250000D01*
G01*
X107998900Y-159965000D01*
G75*
G02*
X107748900Y-160215000I-250000J0D01*
G01*
X106173900Y-160215000D01*
G75*
G02*
X105923900Y-159965000I0J250000D01*
G01*
G37*
G36*
G01*
X99698900Y-159965000D02*
X99698900Y-157915000D01*
G75*
G02*
X99948900Y-157665000I250000J0D01*
G01*
X101523900Y-157665000D01*
G75*
G02*
X101773900Y-157915000I0J-250000D01*
G01*
X101773900Y-159965000D01*
G75*
G02*
X101523900Y-160215000I-250000J0D01*
G01*
X99948900Y-160215000D01*
G75*
G02*
X99698900Y-159965000I0J250000D01*
G01*
G37*
%TD*%
%TO.C,VCR6*%
G36*
G01*
X112292100Y-148262000D02*
X112292100Y-147012000D01*
G75*
G02*
X112542100Y-146762000I250000J0D01*
G01*
X113292100Y-146762000D01*
G75*
G02*
X113542100Y-147012000I0J-250000D01*
G01*
X113542100Y-148262000D01*
G75*
G02*
X113292100Y-148512000I-250000J0D01*
G01*
X112542100Y-148512000D01*
G75*
G02*
X112292100Y-148262000I0J250000D01*
G01*
G37*
G36*
G01*
X109492100Y-148262000D02*
X109492100Y-147012000D01*
G75*
G02*
X109742100Y-146762000I250000J0D01*
G01*
X110492100Y-146762000D01*
G75*
G02*
X110742100Y-147012000I0J-250000D01*
G01*
X110742100Y-148262000D01*
G75*
G02*
X110492100Y-148512000I-250000J0D01*
G01*
X109742100Y-148512000D01*
G75*
G02*
X109492100Y-148262000I0J250000D01*
G01*
G37*
%TD*%
D11*
%TO.C,VCU2*%
X113182400Y-142430000D03*
D10*
X110482400Y-140525000D03*
X110482400Y-141795000D03*
X110482400Y-143065000D03*
X110482400Y-144335000D03*
X115882400Y-144335000D03*
X115882400Y-143065000D03*
X115882400Y-141795000D03*
X115882400Y-140525000D03*
%TD*%
D13*
%TO.C,VCL1*%
X101142800Y-103333200D03*
X101142800Y-113233200D03*
%TD*%
%TO.C,VCR3*%
G36*
G01*
X109263500Y-113883600D02*
X109263500Y-112633600D01*
G75*
G02*
X109513500Y-112383600I250000J0D01*
G01*
X110263500Y-112383600D01*
G75*
G02*
X110513500Y-112633600I0J-250000D01*
G01*
X110513500Y-113883600D01*
G75*
G02*
X110263500Y-114133600I-250000J0D01*
G01*
X109513500Y-114133600D01*
G75*
G02*
X109263500Y-113883600I0J250000D01*
G01*
G37*
G36*
G01*
X112063500Y-113883600D02*
X112063500Y-112633600D01*
G75*
G02*
X112313500Y-112383600I250000J0D01*
G01*
X113063500Y-112383600D01*
G75*
G02*
X113313500Y-112633600I0J-250000D01*
G01*
X113313500Y-113883600D01*
G75*
G02*
X113063500Y-114133600I-250000J0D01*
G01*
X112313500Y-114133600D01*
G75*
G02*
X112063500Y-113883600I0J250000D01*
G01*
G37*
%TD*%
D12*
%TO.C,VCD1*%
X112778000Y-103047800D03*
X116078000Y-103047800D03*
%TD*%
%TO.C,VCC2*%
G36*
G01*
X99876700Y-125713600D02*
X99876700Y-123663600D01*
G75*
G02*
X100126700Y-123413600I250000J0D01*
G01*
X101701700Y-123413600D01*
G75*
G02*
X101951700Y-123663600I0J-250000D01*
G01*
X101951700Y-125713600D01*
G75*
G02*
X101701700Y-125963600I-250000J0D01*
G01*
X100126700Y-125963600D01*
G75*
G02*
X99876700Y-125713600I0J250000D01*
G01*
G37*
G36*
G01*
X106101700Y-125713600D02*
X106101700Y-123663600D01*
G75*
G02*
X106351700Y-123413600I250000J0D01*
G01*
X107926700Y-123413600D01*
G75*
G02*
X108176700Y-123663600I0J-250000D01*
G01*
X108176700Y-125713600D01*
G75*
G02*
X107926700Y-125963600I-250000J0D01*
G01*
X106351700Y-125963600D01*
G75*
G02*
X106101700Y-125713600I0J250000D01*
G01*
G37*
%TD*%
D13*
%TO.C,VCL2*%
X101269800Y-147027400D03*
X101269800Y-137127400D03*
%TD*%
%TO.C,VCC1*%
G36*
G01*
X109424150Y-103345400D02*
X110336650Y-103345400D01*
G75*
G02*
X110580400Y-103589150I0J-243750D01*
G01*
X110580400Y-104076650D01*
G75*
G02*
X110336650Y-104320400I-243750J0D01*
G01*
X109424150Y-104320400D01*
G75*
G02*
X109180400Y-104076650I0J243750D01*
G01*
X109180400Y-103589150D01*
G75*
G02*
X109424150Y-103345400I243750J0D01*
G01*
G37*
G36*
G01*
X109424150Y-101470400D02*
X110336650Y-101470400D01*
G75*
G02*
X110580400Y-101714150I0J-243750D01*
G01*
X110580400Y-102201650D01*
G75*
G02*
X110336650Y-102445400I-243750J0D01*
G01*
X109424150Y-102445400D01*
G75*
G02*
X109180400Y-102201650I0J243750D01*
G01*
X109180400Y-101714150D01*
G75*
G02*
X109424150Y-101470400I243750J0D01*
G01*
G37*
%TD*%
%TO.C,VCC7*%
G36*
G01*
X118695150Y-140651700D02*
X119607650Y-140651700D01*
G75*
G02*
X119851400Y-140895450I0J-243750D01*
G01*
X119851400Y-141382950D01*
G75*
G02*
X119607650Y-141626700I-243750J0D01*
G01*
X118695150Y-141626700D01*
G75*
G02*
X118451400Y-141382950I0J243750D01*
G01*
X118451400Y-140895450D01*
G75*
G02*
X118695150Y-140651700I243750J0D01*
G01*
G37*
G36*
G01*
X118695150Y-142526700D02*
X119607650Y-142526700D01*
G75*
G02*
X119851400Y-142770450I0J-243750D01*
G01*
X119851400Y-143257950D01*
G75*
G02*
X119607650Y-143501700I-243750J0D01*
G01*
X118695150Y-143501700D01*
G75*
G02*
X118451400Y-143257950I0J243750D01*
G01*
X118451400Y-142770450D01*
G75*
G02*
X118695150Y-142526700I243750J0D01*
G01*
G37*
%TD*%
%TO.C,VCR4*%
G36*
G01*
X106323100Y-154586600D02*
X106323100Y-153336600D01*
G75*
G02*
X106573100Y-153086600I250000J0D01*
G01*
X107323100Y-153086600D01*
G75*
G02*
X107573100Y-153336600I0J-250000D01*
G01*
X107573100Y-154586600D01*
G75*
G02*
X107323100Y-154836600I-250000J0D01*
G01*
X106573100Y-154836600D01*
G75*
G02*
X106323100Y-154586600I0J250000D01*
G01*
G37*
G36*
G01*
X103523100Y-154586600D02*
X103523100Y-153336600D01*
G75*
G02*
X103773100Y-153086600I250000J0D01*
G01*
X104523100Y-153086600D01*
G75*
G02*
X104773100Y-153336600I0J-250000D01*
G01*
X104773100Y-154586600D01*
G75*
G02*
X104523100Y-154836600I-250000J0D01*
G01*
X103773100Y-154836600D01*
G75*
G02*
X103523100Y-154586600I0J250000D01*
G01*
G37*
%TD*%
%TO.C,VCR5*%
G36*
G01*
X106469500Y-151462400D02*
X106469500Y-150212400D01*
G75*
G02*
X106719500Y-149962400I250000J0D01*
G01*
X107469500Y-149962400D01*
G75*
G02*
X107719500Y-150212400I0J-250000D01*
G01*
X107719500Y-151462400D01*
G75*
G02*
X107469500Y-151712400I-250000J0D01*
G01*
X106719500Y-151712400D01*
G75*
G02*
X106469500Y-151462400I0J250000D01*
G01*
G37*
G36*
G01*
X109269500Y-151462400D02*
X109269500Y-150212400D01*
G75*
G02*
X109519500Y-149962400I250000J0D01*
G01*
X110269500Y-149962400D01*
G75*
G02*
X110519500Y-150212400I0J-250000D01*
G01*
X110519500Y-151462400D01*
G75*
G02*
X110269500Y-151712400I-250000J0D01*
G01*
X109519500Y-151712400D01*
G75*
G02*
X109269500Y-151462400I0J250000D01*
G01*
G37*
%TD*%
%TO.C,C2*%
G36*
G01*
X76942500Y-42034750D02*
X76942500Y-42547250D01*
G75*
G02*
X76723750Y-42766000I-218750J0D01*
G01*
X76286250Y-42766000D01*
G75*
G02*
X76067500Y-42547250I0J218750D01*
G01*
X76067500Y-42034750D01*
G75*
G02*
X76286250Y-41816000I218750J0D01*
G01*
X76723750Y-41816000D01*
G75*
G02*
X76942500Y-42034750I0J-218750D01*
G01*
G37*
G36*
G01*
X75367500Y-42034750D02*
X75367500Y-42547250D01*
G75*
G02*
X75148750Y-42766000I-218750J0D01*
G01*
X74711250Y-42766000D01*
G75*
G02*
X74492500Y-42547250I0J218750D01*
G01*
X74492500Y-42034750D01*
G75*
G02*
X74711250Y-41816000I218750J0D01*
G01*
X75148750Y-41816000D01*
G75*
G02*
X75367500Y-42034750I0J-218750D01*
G01*
G37*
%TD*%
%TO.C,C3*%
G36*
G01*
X76942500Y-54353750D02*
X76942500Y-54866250D01*
G75*
G02*
X76723750Y-55085000I-218750J0D01*
G01*
X76286250Y-55085000D01*
G75*
G02*
X76067500Y-54866250I0J218750D01*
G01*
X76067500Y-54353750D01*
G75*
G02*
X76286250Y-54135000I218750J0D01*
G01*
X76723750Y-54135000D01*
G75*
G02*
X76942500Y-54353750I0J-218750D01*
G01*
G37*
G36*
G01*
X75367500Y-54353750D02*
X75367500Y-54866250D01*
G75*
G02*
X75148750Y-55085000I-218750J0D01*
G01*
X74711250Y-55085000D01*
G75*
G02*
X74492500Y-54866250I0J218750D01*
G01*
X74492500Y-54353750D01*
G75*
G02*
X74711250Y-54135000I218750J0D01*
G01*
X75148750Y-54135000D01*
G75*
G02*
X75367500Y-54353750I0J-218750D01*
G01*
G37*
%TD*%
%TO.C,C4*%
G36*
G01*
X76942500Y-66672750D02*
X76942500Y-67185250D01*
G75*
G02*
X76723750Y-67404000I-218750J0D01*
G01*
X76286250Y-67404000D01*
G75*
G02*
X76067500Y-67185250I0J218750D01*
G01*
X76067500Y-66672750D01*
G75*
G02*
X76286250Y-66454000I218750J0D01*
G01*
X76723750Y-66454000D01*
G75*
G02*
X76942500Y-66672750I0J-218750D01*
G01*
G37*
G36*
G01*
X75367500Y-66672750D02*
X75367500Y-67185250D01*
G75*
G02*
X75148750Y-67404000I-218750J0D01*
G01*
X74711250Y-67404000D01*
G75*
G02*
X74492500Y-67185250I0J218750D01*
G01*
X74492500Y-66672750D01*
G75*
G02*
X74711250Y-66454000I218750J0D01*
G01*
X75148750Y-66454000D01*
G75*
G02*
X75367500Y-66672750I0J-218750D01*
G01*
G37*
%TD*%
%TO.C,C5*%
G36*
G01*
X75367500Y-78991750D02*
X75367500Y-79504250D01*
G75*
G02*
X75148750Y-79723000I-218750J0D01*
G01*
X74711250Y-79723000D01*
G75*
G02*
X74492500Y-79504250I0J218750D01*
G01*
X74492500Y-78991750D01*
G75*
G02*
X74711250Y-78773000I218750J0D01*
G01*
X75148750Y-78773000D01*
G75*
G02*
X75367500Y-78991750I0J-218750D01*
G01*
G37*
G36*
G01*
X76942500Y-78991750D02*
X76942500Y-79504250D01*
G75*
G02*
X76723750Y-79723000I-218750J0D01*
G01*
X76286250Y-79723000D01*
G75*
G02*
X76067500Y-79504250I0J218750D01*
G01*
X76067500Y-78991750D01*
G75*
G02*
X76286250Y-78773000I218750J0D01*
G01*
X76723750Y-78773000D01*
G75*
G02*
X76942500Y-78991750I0J-218750D01*
G01*
G37*
%TD*%
%TO.C,C6*%
G36*
G01*
X76891500Y-91310750D02*
X76891500Y-91823250D01*
G75*
G02*
X76672750Y-92042000I-218750J0D01*
G01*
X76235250Y-92042000D01*
G75*
G02*
X76016500Y-91823250I0J218750D01*
G01*
X76016500Y-91310750D01*
G75*
G02*
X76235250Y-91092000I218750J0D01*
G01*
X76672750Y-91092000D01*
G75*
G02*
X76891500Y-91310750I0J-218750D01*
G01*
G37*
G36*
G01*
X75316500Y-91310750D02*
X75316500Y-91823250D01*
G75*
G02*
X75097750Y-92042000I-218750J0D01*
G01*
X74660250Y-92042000D01*
G75*
G02*
X74441500Y-91823250I0J218750D01*
G01*
X74441500Y-91310750D01*
G75*
G02*
X74660250Y-91092000I218750J0D01*
G01*
X75097750Y-91092000D01*
G75*
G02*
X75316500Y-91310750I0J-218750D01*
G01*
G37*
%TD*%
%TO.C,C7*%
G36*
G01*
X75443500Y-103629750D02*
X75443500Y-104142250D01*
G75*
G02*
X75224750Y-104361000I-218750J0D01*
G01*
X74787250Y-104361000D01*
G75*
G02*
X74568500Y-104142250I0J218750D01*
G01*
X74568500Y-103629750D01*
G75*
G02*
X74787250Y-103411000I218750J0D01*
G01*
X75224750Y-103411000D01*
G75*
G02*
X75443500Y-103629750I0J-218750D01*
G01*
G37*
G36*
G01*
X77018500Y-103629750D02*
X77018500Y-104142250D01*
G75*
G02*
X76799750Y-104361000I-218750J0D01*
G01*
X76362250Y-104361000D01*
G75*
G02*
X76143500Y-104142250I0J218750D01*
G01*
X76143500Y-103629750D01*
G75*
G02*
X76362250Y-103411000I218750J0D01*
G01*
X76799750Y-103411000D01*
G75*
G02*
X77018500Y-103629750I0J-218750D01*
G01*
G37*
%TD*%
%TO.C,C8*%
G36*
G01*
X76942500Y-115948750D02*
X76942500Y-116461250D01*
G75*
G02*
X76723750Y-116680000I-218750J0D01*
G01*
X76286250Y-116680000D01*
G75*
G02*
X76067500Y-116461250I0J218750D01*
G01*
X76067500Y-115948750D01*
G75*
G02*
X76286250Y-115730000I218750J0D01*
G01*
X76723750Y-115730000D01*
G75*
G02*
X76942500Y-115948750I0J-218750D01*
G01*
G37*
G36*
G01*
X75367500Y-115948750D02*
X75367500Y-116461250D01*
G75*
G02*
X75148750Y-116680000I-218750J0D01*
G01*
X74711250Y-116680000D01*
G75*
G02*
X74492500Y-116461250I0J218750D01*
G01*
X74492500Y-115948750D01*
G75*
G02*
X74711250Y-115730000I218750J0D01*
G01*
X75148750Y-115730000D01*
G75*
G02*
X75367500Y-115948750I0J-218750D01*
G01*
G37*
%TD*%
%TO.C,C9*%
G36*
G01*
X75367500Y-128267750D02*
X75367500Y-128780250D01*
G75*
G02*
X75148750Y-128999000I-218750J0D01*
G01*
X74711250Y-128999000D01*
G75*
G02*
X74492500Y-128780250I0J218750D01*
G01*
X74492500Y-128267750D01*
G75*
G02*
X74711250Y-128049000I218750J0D01*
G01*
X75148750Y-128049000D01*
G75*
G02*
X75367500Y-128267750I0J-218750D01*
G01*
G37*
G36*
G01*
X76942500Y-128267750D02*
X76942500Y-128780250D01*
G75*
G02*
X76723750Y-128999000I-218750J0D01*
G01*
X76286250Y-128999000D01*
G75*
G02*
X76067500Y-128780250I0J218750D01*
G01*
X76067500Y-128267750D01*
G75*
G02*
X76286250Y-128049000I218750J0D01*
G01*
X76723750Y-128049000D01*
G75*
G02*
X76942500Y-128267750I0J-218750D01*
G01*
G37*
%TD*%
%TO.C,C10*%
G36*
G01*
X76942500Y-140586750D02*
X76942500Y-141099250D01*
G75*
G02*
X76723750Y-141318000I-218750J0D01*
G01*
X76286250Y-141318000D01*
G75*
G02*
X76067500Y-141099250I0J218750D01*
G01*
X76067500Y-140586750D01*
G75*
G02*
X76286250Y-140368000I218750J0D01*
G01*
X76723750Y-140368000D01*
G75*
G02*
X76942500Y-140586750I0J-218750D01*
G01*
G37*
G36*
G01*
X75367500Y-140586750D02*
X75367500Y-141099250D01*
G75*
G02*
X75148750Y-141318000I-218750J0D01*
G01*
X74711250Y-141318000D01*
G75*
G02*
X74492500Y-141099250I0J218750D01*
G01*
X74492500Y-140586750D01*
G75*
G02*
X74711250Y-140368000I218750J0D01*
G01*
X75148750Y-140368000D01*
G75*
G02*
X75367500Y-140586750I0J-218750D01*
G01*
G37*
%TD*%
%TO.C,C11*%
G36*
G01*
X114884500Y-174295750D02*
X114884500Y-175208250D01*
G75*
G02*
X114640750Y-175452000I-243750J0D01*
G01*
X114153250Y-175452000D01*
G75*
G02*
X113909500Y-175208250I0J243750D01*
G01*
X113909500Y-174295750D01*
G75*
G02*
X114153250Y-174052000I243750J0D01*
G01*
X114640750Y-174052000D01*
G75*
G02*
X114884500Y-174295750I0J-243750D01*
G01*
G37*
G36*
G01*
X113009500Y-174295750D02*
X113009500Y-175208250D01*
G75*
G02*
X112765750Y-175452000I-243750J0D01*
G01*
X112278250Y-175452000D01*
G75*
G02*
X112034500Y-175208250I0J243750D01*
G01*
X112034500Y-174295750D01*
G75*
G02*
X112278250Y-174052000I243750J0D01*
G01*
X112765750Y-174052000D01*
G75*
G02*
X113009500Y-174295750I0J-243750D01*
G01*
G37*
%TD*%
%TO.C,C12*%
G36*
G01*
X75367500Y-152905750D02*
X75367500Y-153418250D01*
G75*
G02*
X75148750Y-153637000I-218750J0D01*
G01*
X74711250Y-153637000D01*
G75*
G02*
X74492500Y-153418250I0J218750D01*
G01*
X74492500Y-152905750D01*
G75*
G02*
X74711250Y-152687000I218750J0D01*
G01*
X75148750Y-152687000D01*
G75*
G02*
X75367500Y-152905750I0J-218750D01*
G01*
G37*
G36*
G01*
X76942500Y-152905750D02*
X76942500Y-153418250D01*
G75*
G02*
X76723750Y-153637000I-218750J0D01*
G01*
X76286250Y-153637000D01*
G75*
G02*
X76067500Y-153418250I0J218750D01*
G01*
X76067500Y-152905750D01*
G75*
G02*
X76286250Y-152687000I218750J0D01*
G01*
X76723750Y-152687000D01*
G75*
G02*
X76942500Y-152905750I0J-218750D01*
G01*
G37*
%TD*%
%TO.C,C13*%
G36*
G01*
X75316500Y-165224750D02*
X75316500Y-165737250D01*
G75*
G02*
X75097750Y-165956000I-218750J0D01*
G01*
X74660250Y-165956000D01*
G75*
G02*
X74441500Y-165737250I0J218750D01*
G01*
X74441500Y-165224750D01*
G75*
G02*
X74660250Y-165006000I218750J0D01*
G01*
X75097750Y-165006000D01*
G75*
G02*
X75316500Y-165224750I0J-218750D01*
G01*
G37*
G36*
G01*
X76891500Y-165224750D02*
X76891500Y-165737250D01*
G75*
G02*
X76672750Y-165956000I-218750J0D01*
G01*
X76235250Y-165956000D01*
G75*
G02*
X76016500Y-165737250I0J218750D01*
G01*
X76016500Y-165224750D01*
G75*
G02*
X76235250Y-165006000I218750J0D01*
G01*
X76672750Y-165006000D01*
G75*
G02*
X76891500Y-165224750I0J-218750D01*
G01*
G37*
%TD*%
D14*
%TO.C,Q7*%
X49514000Y-43241000D03*
X49514000Y-41341000D03*
X47514000Y-42291000D03*
%TD*%
%TO.C,Q8*%
X51689000Y-42418000D03*
X53689000Y-41468000D03*
X53689000Y-43368000D03*
%TD*%
%TO.C,Q9*%
X71406000Y-46609000D03*
X73406000Y-45659000D03*
X73406000Y-47559000D03*
%TD*%
%TO.C,Q10*%
X55912000Y-42357000D03*
X57912000Y-41407000D03*
X57912000Y-43307000D03*
%TD*%
%TO.C,Q11*%
X62071000Y-43241000D03*
X62071000Y-41341000D03*
X60071000Y-42291000D03*
%TD*%
%TO.C,Q12*%
X69199000Y-47559000D03*
X69199000Y-45659000D03*
X67199000Y-46609000D03*
%TD*%
%TO.C,Q13*%
X47530000Y-54676000D03*
X49530000Y-53726000D03*
X49530000Y-55626000D03*
%TD*%
%TO.C,Q14*%
X53689000Y-55621000D03*
X53689000Y-53721000D03*
X51689000Y-54671000D03*
%TD*%
%TO.C,Q15*%
X71406000Y-58989000D03*
X73406000Y-58039000D03*
X73406000Y-59939000D03*
%TD*%
%TO.C,Q16*%
X57880000Y-55621000D03*
X57880000Y-53721000D03*
X55880000Y-54671000D03*
%TD*%
%TO.C,Q17*%
X60103000Y-54676000D03*
X62103000Y-53726000D03*
X62103000Y-55626000D03*
%TD*%
%TO.C,Q18*%
X67183000Y-58928000D03*
X69183000Y-57978000D03*
X69183000Y-59878000D03*
%TD*%
%TO.C,Q19*%
X49530000Y-67945000D03*
X49530000Y-66045000D03*
X47530000Y-66995000D03*
%TD*%
%TO.C,Q20*%
X53689000Y-67940000D03*
X53689000Y-66040000D03*
X51689000Y-66990000D03*
%TD*%
%TO.C,Q21*%
X71406000Y-71247000D03*
X73406000Y-70297000D03*
X73406000Y-72197000D03*
%TD*%
%TO.C,Q22*%
X55896000Y-66990000D03*
X57896000Y-66040000D03*
X57896000Y-67940000D03*
%TD*%
%TO.C,Q23*%
X60087000Y-66929000D03*
X62087000Y-65979000D03*
X62087000Y-67879000D03*
%TD*%
%TO.C,Q24*%
X69183000Y-72197000D03*
X69183000Y-70297000D03*
X67183000Y-71247000D03*
%TD*%
%TO.C,Q25*%
X47498000Y-79314000D03*
X49498000Y-78364000D03*
X49498000Y-80264000D03*
%TD*%
%TO.C,Q26*%
X51721000Y-79314000D03*
X53721000Y-78364000D03*
X53721000Y-80264000D03*
%TD*%
%TO.C,Q27*%
X73406000Y-84516000D03*
X73406000Y-82616000D03*
X71406000Y-83566000D03*
%TD*%
%TO.C,Q28*%
X57912000Y-80264000D03*
X57912000Y-78364000D03*
X55912000Y-79314000D03*
%TD*%
%TO.C,Q29*%
X62071000Y-80198000D03*
X62071000Y-78298000D03*
X60071000Y-79248000D03*
%TD*%
%TO.C,Q30*%
X69215000Y-84582000D03*
X69215000Y-82682000D03*
X67215000Y-83632000D03*
%TD*%
%TO.C,Q31*%
X49530000Y-92583000D03*
X49530000Y-90683000D03*
X47530000Y-91633000D03*
%TD*%
%TO.C,Q32*%
X51689000Y-91628000D03*
X53689000Y-90678000D03*
X53689000Y-92578000D03*
%TD*%
%TO.C,Q33*%
X71406000Y-95885000D03*
X73406000Y-94935000D03*
X73406000Y-96835000D03*
%TD*%
%TO.C,Q34*%
X55880000Y-91628000D03*
X57880000Y-90678000D03*
X57880000Y-92578000D03*
%TD*%
%TO.C,Q35*%
X62071000Y-92517000D03*
X62071000Y-90617000D03*
X60071000Y-91567000D03*
%TD*%
%TO.C,Q36*%
X69183000Y-96835000D03*
X69183000Y-94935000D03*
X67183000Y-95885000D03*
%TD*%
%TO.C,Q37*%
X47498000Y-103952000D03*
X49498000Y-103002000D03*
X49498000Y-104902000D03*
%TD*%
%TO.C,Q38*%
X51721000Y-103952000D03*
X53721000Y-103002000D03*
X53721000Y-104902000D03*
%TD*%
%TO.C,Q39*%
X71406000Y-108270000D03*
X73406000Y-107320000D03*
X73406000Y-109220000D03*
%TD*%
%TO.C,Q40*%
X57912000Y-104902000D03*
X57912000Y-103002000D03*
X55912000Y-103952000D03*
%TD*%
%TO.C,Q41*%
X60103000Y-103952000D03*
X62103000Y-103002000D03*
X62103000Y-104902000D03*
%TD*%
%TO.C,Q42*%
X67215000Y-108270000D03*
X69215000Y-107320000D03*
X69215000Y-109220000D03*
%TD*%
%TO.C,Q43*%
X47498000Y-116271000D03*
X49498000Y-115321000D03*
X49498000Y-117221000D03*
%TD*%
%TO.C,Q44*%
X51689000Y-116266000D03*
X53689000Y-115316000D03*
X53689000Y-117216000D03*
%TD*%
%TO.C,Q45*%
X73406000Y-121539000D03*
X73406000Y-119639000D03*
X71406000Y-120589000D03*
%TD*%
%TO.C,Q46*%
X57880000Y-117216000D03*
X57880000Y-115316000D03*
X55880000Y-116266000D03*
%TD*%
%TO.C,Q47*%
X60071000Y-116205000D03*
X62071000Y-115255000D03*
X62071000Y-117155000D03*
%TD*%
%TO.C,Q48*%
X69215000Y-121539000D03*
X69215000Y-119639000D03*
X67215000Y-120589000D03*
%TD*%
%TO.C,Q49*%
X47498000Y-128590000D03*
X49498000Y-127640000D03*
X49498000Y-129540000D03*
%TD*%
%TO.C,Q50*%
X53689000Y-129535000D03*
X53689000Y-127635000D03*
X51689000Y-128585000D03*
%TD*%
%TO.C,Q51*%
X71406000Y-132781000D03*
X73406000Y-131831000D03*
X73406000Y-133731000D03*
%TD*%
%TO.C,Q52*%
X57896000Y-129535000D03*
X57896000Y-127635000D03*
X55896000Y-128585000D03*
%TD*%
%TO.C,Q53*%
X60071000Y-128524000D03*
X62071000Y-127574000D03*
X62071000Y-129474000D03*
%TD*%
%TO.C,Q54*%
X67215000Y-132908000D03*
X69215000Y-131958000D03*
X69215000Y-133858000D03*
%TD*%
%TO.C,Q55*%
X49498000Y-141859000D03*
X49498000Y-139959000D03*
X47498000Y-140909000D03*
%TD*%
%TO.C,Q56*%
X51689000Y-140904000D03*
X53689000Y-139954000D03*
X53689000Y-141854000D03*
%TD*%
%TO.C,Q57*%
X71406000Y-145227000D03*
X73406000Y-144277000D03*
X73406000Y-146177000D03*
%TD*%
%TO.C,Q58*%
X57880000Y-141854000D03*
X57880000Y-139954000D03*
X55880000Y-140904000D03*
%TD*%
%TO.C,Q59*%
X62071000Y-141793000D03*
X62071000Y-139893000D03*
X60071000Y-140843000D03*
%TD*%
%TO.C,Q60*%
X69215000Y-146177000D03*
X69215000Y-144277000D03*
X67215000Y-145227000D03*
%TD*%
%TO.C,Q61*%
X49498000Y-154178000D03*
X49498000Y-152278000D03*
X47498000Y-153228000D03*
%TD*%
%TO.C,Q62*%
X53689000Y-154173000D03*
X53689000Y-152273000D03*
X51689000Y-153223000D03*
%TD*%
%TO.C,Q63*%
X73406000Y-158430000D03*
X73406000Y-156530000D03*
X71406000Y-157480000D03*
%TD*%
%TO.C,Q64*%
X57880000Y-154173000D03*
X57880000Y-152273000D03*
X55880000Y-153223000D03*
%TD*%
%TO.C,Q65*%
X62071000Y-154112000D03*
X62071000Y-152212000D03*
X60071000Y-153162000D03*
%TD*%
%TO.C,Q66*%
X67199000Y-157480000D03*
X69199000Y-156530000D03*
X69199000Y-158430000D03*
%TD*%
%TO.C,Q67*%
X47498000Y-165547000D03*
X49498000Y-164597000D03*
X49498000Y-166497000D03*
%TD*%
%TO.C,Q68*%
X51689000Y-165542000D03*
X53689000Y-164592000D03*
X53689000Y-166492000D03*
%TD*%
%TO.C,Q69*%
X73406000Y-170749000D03*
X73406000Y-168849000D03*
X71406000Y-169799000D03*
%TD*%
%TO.C,Q70*%
X55880000Y-165542000D03*
X57880000Y-164592000D03*
X57880000Y-166492000D03*
%TD*%
%TO.C,Q71*%
X62071000Y-166431000D03*
X62071000Y-164531000D03*
X60071000Y-165481000D03*
%TD*%
%TO.C,Q72*%
X67183000Y-169799000D03*
X69183000Y-168849000D03*
X69183000Y-170749000D03*
%TD*%
%TO.C,R7*%
G36*
G01*
X39694500Y-43563250D02*
X39694500Y-43050750D01*
G75*
G02*
X39913250Y-42832000I218750J0D01*
G01*
X40350750Y-42832000D01*
G75*
G02*
X40569500Y-43050750I0J-218750D01*
G01*
X40569500Y-43563250D01*
G75*
G02*
X40350750Y-43782000I-218750J0D01*
G01*
X39913250Y-43782000D01*
G75*
G02*
X39694500Y-43563250I0J218750D01*
G01*
G37*
G36*
G01*
X41269500Y-43563250D02*
X41269500Y-43050750D01*
G75*
G02*
X41488250Y-42832000I218750J0D01*
G01*
X41925750Y-42832000D01*
G75*
G02*
X42144500Y-43050750I0J-218750D01*
G01*
X42144500Y-43563250D01*
G75*
G02*
X41925750Y-43782000I-218750J0D01*
G01*
X41488250Y-43782000D01*
G75*
G02*
X41269500Y-43563250I0J218750D01*
G01*
G37*
%TD*%
%TO.C,R8*%
G36*
G01*
X67893250Y-43764500D02*
X66980750Y-43764500D01*
G75*
G02*
X66737000Y-43520750I0J243750D01*
G01*
X66737000Y-43033250D01*
G75*
G02*
X66980750Y-42789500I243750J0D01*
G01*
X67893250Y-42789500D01*
G75*
G02*
X68137000Y-43033250I0J-243750D01*
G01*
X68137000Y-43520750D01*
G75*
G02*
X67893250Y-43764500I-243750J0D01*
G01*
G37*
G36*
G01*
X67893250Y-41889500D02*
X66980750Y-41889500D01*
G75*
G02*
X66737000Y-41645750I0J243750D01*
G01*
X66737000Y-41158250D01*
G75*
G02*
X66980750Y-40914500I243750J0D01*
G01*
X67893250Y-40914500D01*
G75*
G02*
X68137000Y-41158250I0J-243750D01*
G01*
X68137000Y-41645750D01*
G75*
G02*
X67893250Y-41889500I-243750J0D01*
G01*
G37*
%TD*%
%TO.C,R9*%
G36*
G01*
X43897000Y-41145750D02*
X43897000Y-41658250D01*
G75*
G02*
X43678250Y-41877000I-218750J0D01*
G01*
X43240750Y-41877000D01*
G75*
G02*
X43022000Y-41658250I0J218750D01*
G01*
X43022000Y-41145750D01*
G75*
G02*
X43240750Y-40927000I218750J0D01*
G01*
X43678250Y-40927000D01*
G75*
G02*
X43897000Y-41145750I0J-218750D01*
G01*
G37*
G36*
G01*
X42322000Y-41145750D02*
X42322000Y-41658250D01*
G75*
G02*
X42103250Y-41877000I-218750J0D01*
G01*
X41665750Y-41877000D01*
G75*
G02*
X41447000Y-41658250I0J218750D01*
G01*
X41447000Y-41145750D01*
G75*
G02*
X41665750Y-40927000I218750J0D01*
G01*
X42103250Y-40927000D01*
G75*
G02*
X42322000Y-41145750I0J-218750D01*
G01*
G37*
%TD*%
%TO.C,R10*%
G36*
G01*
X44125500Y-43050750D02*
X44125500Y-43563250D01*
G75*
G02*
X43906750Y-43782000I-218750J0D01*
G01*
X43469250Y-43782000D01*
G75*
G02*
X43250500Y-43563250I0J218750D01*
G01*
X43250500Y-43050750D01*
G75*
G02*
X43469250Y-42832000I218750J0D01*
G01*
X43906750Y-42832000D01*
G75*
G02*
X44125500Y-43050750I0J-218750D01*
G01*
G37*
G36*
G01*
X45700500Y-43050750D02*
X45700500Y-43563250D01*
G75*
G02*
X45481750Y-43782000I-218750J0D01*
G01*
X45044250Y-43782000D01*
G75*
G02*
X44825500Y-43563250I0J218750D01*
G01*
X44825500Y-43050750D01*
G75*
G02*
X45044250Y-42832000I218750J0D01*
G01*
X45481750Y-42832000D01*
G75*
G02*
X45700500Y-43050750I0J-218750D01*
G01*
G37*
%TD*%
%TO.C,R11*%
G36*
G01*
X75321000Y-43952000D02*
X76571000Y-43952000D01*
G75*
G02*
X76821000Y-44202000I0J-250000D01*
G01*
X76821000Y-44952000D01*
G75*
G02*
X76571000Y-45202000I-250000J0D01*
G01*
X75321000Y-45202000D01*
G75*
G02*
X75071000Y-44952000I0J250000D01*
G01*
X75071000Y-44202000D01*
G75*
G02*
X75321000Y-43952000I250000J0D01*
G01*
G37*
G36*
G01*
X75321000Y-46752000D02*
X76571000Y-46752000D01*
G75*
G02*
X76821000Y-47002000I0J-250000D01*
G01*
X76821000Y-47752000D01*
G75*
G02*
X76571000Y-48002000I-250000J0D01*
G01*
X75321000Y-48002000D01*
G75*
G02*
X75071000Y-47752000I0J250000D01*
G01*
X75071000Y-47002000D01*
G75*
G02*
X75321000Y-46752000I250000J0D01*
G01*
G37*
%TD*%
%TO.C,R12*%
G36*
G01*
X71237500Y-43636250D02*
X71237500Y-42723750D01*
G75*
G02*
X71481250Y-42480000I243750J0D01*
G01*
X71968750Y-42480000D01*
G75*
G02*
X72212500Y-42723750I0J-243750D01*
G01*
X72212500Y-43636250D01*
G75*
G02*
X71968750Y-43880000I-243750J0D01*
G01*
X71481250Y-43880000D01*
G75*
G02*
X71237500Y-43636250I0J243750D01*
G01*
G37*
G36*
G01*
X69362500Y-43636250D02*
X69362500Y-42723750D01*
G75*
G02*
X69606250Y-42480000I243750J0D01*
G01*
X70093750Y-42480000D01*
G75*
G02*
X70337500Y-42723750I0J-243750D01*
G01*
X70337500Y-43636250D01*
G75*
G02*
X70093750Y-43880000I-243750J0D01*
G01*
X69606250Y-43880000D01*
G75*
G02*
X69362500Y-43636250I0J243750D01*
G01*
G37*
%TD*%
%TO.C,R13*%
G36*
G01*
X41269500Y-55882250D02*
X41269500Y-55369750D01*
G75*
G02*
X41488250Y-55151000I218750J0D01*
G01*
X41925750Y-55151000D01*
G75*
G02*
X42144500Y-55369750I0J-218750D01*
G01*
X42144500Y-55882250D01*
G75*
G02*
X41925750Y-56101000I-218750J0D01*
G01*
X41488250Y-56101000D01*
G75*
G02*
X41269500Y-55882250I0J218750D01*
G01*
G37*
G36*
G01*
X39694500Y-55882250D02*
X39694500Y-55369750D01*
G75*
G02*
X39913250Y-55151000I218750J0D01*
G01*
X40350750Y-55151000D01*
G75*
G02*
X40569500Y-55369750I0J-218750D01*
G01*
X40569500Y-55882250D01*
G75*
G02*
X40350750Y-56101000I-218750J0D01*
G01*
X39913250Y-56101000D01*
G75*
G02*
X39694500Y-55882250I0J218750D01*
G01*
G37*
%TD*%
%TO.C,R14*%
G36*
G01*
X67893250Y-56083500D02*
X66980750Y-56083500D01*
G75*
G02*
X66737000Y-55839750I0J243750D01*
G01*
X66737000Y-55352250D01*
G75*
G02*
X66980750Y-55108500I243750J0D01*
G01*
X67893250Y-55108500D01*
G75*
G02*
X68137000Y-55352250I0J-243750D01*
G01*
X68137000Y-55839750D01*
G75*
G02*
X67893250Y-56083500I-243750J0D01*
G01*
G37*
G36*
G01*
X67893250Y-54208500D02*
X66980750Y-54208500D01*
G75*
G02*
X66737000Y-53964750I0J243750D01*
G01*
X66737000Y-53477250D01*
G75*
G02*
X66980750Y-53233500I243750J0D01*
G01*
X67893250Y-53233500D01*
G75*
G02*
X68137000Y-53477250I0J-243750D01*
G01*
X68137000Y-53964750D01*
G75*
G02*
X67893250Y-54208500I-243750J0D01*
G01*
G37*
%TD*%
%TO.C,R15*%
G36*
G01*
X42296500Y-53464750D02*
X42296500Y-53977250D01*
G75*
G02*
X42077750Y-54196000I-218750J0D01*
G01*
X41640250Y-54196000D01*
G75*
G02*
X41421500Y-53977250I0J218750D01*
G01*
X41421500Y-53464750D01*
G75*
G02*
X41640250Y-53246000I218750J0D01*
G01*
X42077750Y-53246000D01*
G75*
G02*
X42296500Y-53464750I0J-218750D01*
G01*
G37*
G36*
G01*
X43871500Y-53464750D02*
X43871500Y-53977250D01*
G75*
G02*
X43652750Y-54196000I-218750J0D01*
G01*
X43215250Y-54196000D01*
G75*
G02*
X42996500Y-53977250I0J218750D01*
G01*
X42996500Y-53464750D01*
G75*
G02*
X43215250Y-53246000I218750J0D01*
G01*
X43652750Y-53246000D01*
G75*
G02*
X43871500Y-53464750I0J-218750D01*
G01*
G37*
%TD*%
%TO.C,R16*%
G36*
G01*
X45700500Y-55369750D02*
X45700500Y-55882250D01*
G75*
G02*
X45481750Y-56101000I-218750J0D01*
G01*
X45044250Y-56101000D01*
G75*
G02*
X44825500Y-55882250I0J218750D01*
G01*
X44825500Y-55369750D01*
G75*
G02*
X45044250Y-55151000I218750J0D01*
G01*
X45481750Y-55151000D01*
G75*
G02*
X45700500Y-55369750I0J-218750D01*
G01*
G37*
G36*
G01*
X44125500Y-55369750D02*
X44125500Y-55882250D01*
G75*
G02*
X43906750Y-56101000I-218750J0D01*
G01*
X43469250Y-56101000D01*
G75*
G02*
X43250500Y-55882250I0J218750D01*
G01*
X43250500Y-55369750D01*
G75*
G02*
X43469250Y-55151000I218750J0D01*
G01*
X43906750Y-55151000D01*
G75*
G02*
X44125500Y-55369750I0J-218750D01*
G01*
G37*
%TD*%
%TO.C,R17*%
G36*
G01*
X75321000Y-59065000D02*
X76571000Y-59065000D01*
G75*
G02*
X76821000Y-59315000I0J-250000D01*
G01*
X76821000Y-60065000D01*
G75*
G02*
X76571000Y-60315000I-250000J0D01*
G01*
X75321000Y-60315000D01*
G75*
G02*
X75071000Y-60065000I0J250000D01*
G01*
X75071000Y-59315000D01*
G75*
G02*
X75321000Y-59065000I250000J0D01*
G01*
G37*
G36*
G01*
X75321000Y-56265000D02*
X76571000Y-56265000D01*
G75*
G02*
X76821000Y-56515000I0J-250000D01*
G01*
X76821000Y-57265000D01*
G75*
G02*
X76571000Y-57515000I-250000J0D01*
G01*
X75321000Y-57515000D01*
G75*
G02*
X75071000Y-57265000I0J250000D01*
G01*
X75071000Y-56515000D01*
G75*
G02*
X75321000Y-56265000I250000J0D01*
G01*
G37*
%TD*%
%TO.C,R18*%
G36*
G01*
X71237500Y-55955250D02*
X71237500Y-55042750D01*
G75*
G02*
X71481250Y-54799000I243750J0D01*
G01*
X71968750Y-54799000D01*
G75*
G02*
X72212500Y-55042750I0J-243750D01*
G01*
X72212500Y-55955250D01*
G75*
G02*
X71968750Y-56199000I-243750J0D01*
G01*
X71481250Y-56199000D01*
G75*
G02*
X71237500Y-55955250I0J243750D01*
G01*
G37*
G36*
G01*
X69362500Y-55955250D02*
X69362500Y-55042750D01*
G75*
G02*
X69606250Y-54799000I243750J0D01*
G01*
X70093750Y-54799000D01*
G75*
G02*
X70337500Y-55042750I0J-243750D01*
G01*
X70337500Y-55955250D01*
G75*
G02*
X70093750Y-56199000I-243750J0D01*
G01*
X69606250Y-56199000D01*
G75*
G02*
X69362500Y-55955250I0J243750D01*
G01*
G37*
%TD*%
%TO.C,R19*%
G36*
G01*
X39694500Y-68201250D02*
X39694500Y-67688750D01*
G75*
G02*
X39913250Y-67470000I218750J0D01*
G01*
X40350750Y-67470000D01*
G75*
G02*
X40569500Y-67688750I0J-218750D01*
G01*
X40569500Y-68201250D01*
G75*
G02*
X40350750Y-68420000I-218750J0D01*
G01*
X39913250Y-68420000D01*
G75*
G02*
X39694500Y-68201250I0J218750D01*
G01*
G37*
G36*
G01*
X41269500Y-68201250D02*
X41269500Y-67688750D01*
G75*
G02*
X41488250Y-67470000I218750J0D01*
G01*
X41925750Y-67470000D01*
G75*
G02*
X42144500Y-67688750I0J-218750D01*
G01*
X42144500Y-68201250D01*
G75*
G02*
X41925750Y-68420000I-218750J0D01*
G01*
X41488250Y-68420000D01*
G75*
G02*
X41269500Y-68201250I0J218750D01*
G01*
G37*
%TD*%
%TO.C,R20*%
G36*
G01*
X67893250Y-66527500D02*
X66980750Y-66527500D01*
G75*
G02*
X66737000Y-66283750I0J243750D01*
G01*
X66737000Y-65796250D01*
G75*
G02*
X66980750Y-65552500I243750J0D01*
G01*
X67893250Y-65552500D01*
G75*
G02*
X68137000Y-65796250I0J-243750D01*
G01*
X68137000Y-66283750D01*
G75*
G02*
X67893250Y-66527500I-243750J0D01*
G01*
G37*
G36*
G01*
X67893250Y-68402500D02*
X66980750Y-68402500D01*
G75*
G02*
X66737000Y-68158750I0J243750D01*
G01*
X66737000Y-67671250D01*
G75*
G02*
X66980750Y-67427500I243750J0D01*
G01*
X67893250Y-67427500D01*
G75*
G02*
X68137000Y-67671250I0J-243750D01*
G01*
X68137000Y-68158750D01*
G75*
G02*
X67893250Y-68402500I-243750J0D01*
G01*
G37*
%TD*%
%TO.C,R21*%
G36*
G01*
X43871500Y-65783750D02*
X43871500Y-66296250D01*
G75*
G02*
X43652750Y-66515000I-218750J0D01*
G01*
X43215250Y-66515000D01*
G75*
G02*
X42996500Y-66296250I0J218750D01*
G01*
X42996500Y-65783750D01*
G75*
G02*
X43215250Y-65565000I218750J0D01*
G01*
X43652750Y-65565000D01*
G75*
G02*
X43871500Y-65783750I0J-218750D01*
G01*
G37*
G36*
G01*
X42296500Y-65783750D02*
X42296500Y-66296250D01*
G75*
G02*
X42077750Y-66515000I-218750J0D01*
G01*
X41640250Y-66515000D01*
G75*
G02*
X41421500Y-66296250I0J218750D01*
G01*
X41421500Y-65783750D01*
G75*
G02*
X41640250Y-65565000I218750J0D01*
G01*
X42077750Y-65565000D01*
G75*
G02*
X42296500Y-65783750I0J-218750D01*
G01*
G37*
%TD*%
%TO.C,R22*%
G36*
G01*
X44074500Y-67688750D02*
X44074500Y-68201250D01*
G75*
G02*
X43855750Y-68420000I-218750J0D01*
G01*
X43418250Y-68420000D01*
G75*
G02*
X43199500Y-68201250I0J218750D01*
G01*
X43199500Y-67688750D01*
G75*
G02*
X43418250Y-67470000I218750J0D01*
G01*
X43855750Y-67470000D01*
G75*
G02*
X44074500Y-67688750I0J-218750D01*
G01*
G37*
G36*
G01*
X45649500Y-67688750D02*
X45649500Y-68201250D01*
G75*
G02*
X45430750Y-68420000I-218750J0D01*
G01*
X44993250Y-68420000D01*
G75*
G02*
X44774500Y-68201250I0J218750D01*
G01*
X44774500Y-67688750D01*
G75*
G02*
X44993250Y-67470000I218750J0D01*
G01*
X45430750Y-67470000D01*
G75*
G02*
X45649500Y-67688750I0J-218750D01*
G01*
G37*
%TD*%
%TO.C,R23*%
G36*
G01*
X75321000Y-68590000D02*
X76571000Y-68590000D01*
G75*
G02*
X76821000Y-68840000I0J-250000D01*
G01*
X76821000Y-69590000D01*
G75*
G02*
X76571000Y-69840000I-250000J0D01*
G01*
X75321000Y-69840000D01*
G75*
G02*
X75071000Y-69590000I0J250000D01*
G01*
X75071000Y-68840000D01*
G75*
G02*
X75321000Y-68590000I250000J0D01*
G01*
G37*
G36*
G01*
X75321000Y-71390000D02*
X76571000Y-71390000D01*
G75*
G02*
X76821000Y-71640000I0J-250000D01*
G01*
X76821000Y-72390000D01*
G75*
G02*
X76571000Y-72640000I-250000J0D01*
G01*
X75321000Y-72640000D01*
G75*
G02*
X75071000Y-72390000I0J250000D01*
G01*
X75071000Y-71640000D01*
G75*
G02*
X75321000Y-71390000I250000J0D01*
G01*
G37*
%TD*%
%TO.C,R24*%
G36*
G01*
X69362500Y-68274250D02*
X69362500Y-67361750D01*
G75*
G02*
X69606250Y-67118000I243750J0D01*
G01*
X70093750Y-67118000D01*
G75*
G02*
X70337500Y-67361750I0J-243750D01*
G01*
X70337500Y-68274250D01*
G75*
G02*
X70093750Y-68518000I-243750J0D01*
G01*
X69606250Y-68518000D01*
G75*
G02*
X69362500Y-68274250I0J243750D01*
G01*
G37*
G36*
G01*
X71237500Y-68274250D02*
X71237500Y-67361750D01*
G75*
G02*
X71481250Y-67118000I243750J0D01*
G01*
X71968750Y-67118000D01*
G75*
G02*
X72212500Y-67361750I0J-243750D01*
G01*
X72212500Y-68274250D01*
G75*
G02*
X71968750Y-68518000I-243750J0D01*
G01*
X71481250Y-68518000D01*
G75*
G02*
X71237500Y-68274250I0J243750D01*
G01*
G37*
%TD*%
%TO.C,R25*%
G36*
G01*
X41244000Y-80520250D02*
X41244000Y-80007750D01*
G75*
G02*
X41462750Y-79789000I218750J0D01*
G01*
X41900250Y-79789000D01*
G75*
G02*
X42119000Y-80007750I0J-218750D01*
G01*
X42119000Y-80520250D01*
G75*
G02*
X41900250Y-80739000I-218750J0D01*
G01*
X41462750Y-80739000D01*
G75*
G02*
X41244000Y-80520250I0J218750D01*
G01*
G37*
G36*
G01*
X39669000Y-80520250D02*
X39669000Y-80007750D01*
G75*
G02*
X39887750Y-79789000I218750J0D01*
G01*
X40325250Y-79789000D01*
G75*
G02*
X40544000Y-80007750I0J-218750D01*
G01*
X40544000Y-80520250D01*
G75*
G02*
X40325250Y-80739000I-218750J0D01*
G01*
X39887750Y-80739000D01*
G75*
G02*
X39669000Y-80520250I0J218750D01*
G01*
G37*
%TD*%
%TO.C,R26*%
G36*
G01*
X67893250Y-78846500D02*
X66980750Y-78846500D01*
G75*
G02*
X66737000Y-78602750I0J243750D01*
G01*
X66737000Y-78115250D01*
G75*
G02*
X66980750Y-77871500I243750J0D01*
G01*
X67893250Y-77871500D01*
G75*
G02*
X68137000Y-78115250I0J-243750D01*
G01*
X68137000Y-78602750D01*
G75*
G02*
X67893250Y-78846500I-243750J0D01*
G01*
G37*
G36*
G01*
X67893250Y-80721500D02*
X66980750Y-80721500D01*
G75*
G02*
X66737000Y-80477750I0J243750D01*
G01*
X66737000Y-79990250D01*
G75*
G02*
X66980750Y-79746500I243750J0D01*
G01*
X67893250Y-79746500D01*
G75*
G02*
X68137000Y-79990250I0J-243750D01*
G01*
X68137000Y-80477750D01*
G75*
G02*
X67893250Y-80721500I-243750J0D01*
G01*
G37*
%TD*%
%TO.C,R27*%
G36*
G01*
X42322000Y-78102750D02*
X42322000Y-78615250D01*
G75*
G02*
X42103250Y-78834000I-218750J0D01*
G01*
X41665750Y-78834000D01*
G75*
G02*
X41447000Y-78615250I0J218750D01*
G01*
X41447000Y-78102750D01*
G75*
G02*
X41665750Y-77884000I218750J0D01*
G01*
X42103250Y-77884000D01*
G75*
G02*
X42322000Y-78102750I0J-218750D01*
G01*
G37*
G36*
G01*
X43897000Y-78102750D02*
X43897000Y-78615250D01*
G75*
G02*
X43678250Y-78834000I-218750J0D01*
G01*
X43240750Y-78834000D01*
G75*
G02*
X43022000Y-78615250I0J218750D01*
G01*
X43022000Y-78102750D01*
G75*
G02*
X43240750Y-77884000I218750J0D01*
G01*
X43678250Y-77884000D01*
G75*
G02*
X43897000Y-78102750I0J-218750D01*
G01*
G37*
%TD*%
%TO.C,R28*%
G36*
G01*
X45649500Y-80007750D02*
X45649500Y-80520250D01*
G75*
G02*
X45430750Y-80739000I-218750J0D01*
G01*
X44993250Y-80739000D01*
G75*
G02*
X44774500Y-80520250I0J218750D01*
G01*
X44774500Y-80007750D01*
G75*
G02*
X44993250Y-79789000I218750J0D01*
G01*
X45430750Y-79789000D01*
G75*
G02*
X45649500Y-80007750I0J-218750D01*
G01*
G37*
G36*
G01*
X44074500Y-80007750D02*
X44074500Y-80520250D01*
G75*
G02*
X43855750Y-80739000I-218750J0D01*
G01*
X43418250Y-80739000D01*
G75*
G02*
X43199500Y-80520250I0J218750D01*
G01*
X43199500Y-80007750D01*
G75*
G02*
X43418250Y-79789000I218750J0D01*
G01*
X43855750Y-79789000D01*
G75*
G02*
X44074500Y-80007750I0J-218750D01*
G01*
G37*
%TD*%
%TO.C,R29*%
G36*
G01*
X75321000Y-83709000D02*
X76571000Y-83709000D01*
G75*
G02*
X76821000Y-83959000I0J-250000D01*
G01*
X76821000Y-84709000D01*
G75*
G02*
X76571000Y-84959000I-250000J0D01*
G01*
X75321000Y-84959000D01*
G75*
G02*
X75071000Y-84709000I0J250000D01*
G01*
X75071000Y-83959000D01*
G75*
G02*
X75321000Y-83709000I250000J0D01*
G01*
G37*
G36*
G01*
X75321000Y-80909000D02*
X76571000Y-80909000D01*
G75*
G02*
X76821000Y-81159000I0J-250000D01*
G01*
X76821000Y-81909000D01*
G75*
G02*
X76571000Y-82159000I-250000J0D01*
G01*
X75321000Y-82159000D01*
G75*
G02*
X75071000Y-81909000I0J250000D01*
G01*
X75071000Y-81159000D01*
G75*
G02*
X75321000Y-80909000I250000J0D01*
G01*
G37*
%TD*%
%TO.C,R30*%
G36*
G01*
X71237500Y-80593250D02*
X71237500Y-79680750D01*
G75*
G02*
X71481250Y-79437000I243750J0D01*
G01*
X71968750Y-79437000D01*
G75*
G02*
X72212500Y-79680750I0J-243750D01*
G01*
X72212500Y-80593250D01*
G75*
G02*
X71968750Y-80837000I-243750J0D01*
G01*
X71481250Y-80837000D01*
G75*
G02*
X71237500Y-80593250I0J243750D01*
G01*
G37*
G36*
G01*
X69362500Y-80593250D02*
X69362500Y-79680750D01*
G75*
G02*
X69606250Y-79437000I243750J0D01*
G01*
X70093750Y-79437000D01*
G75*
G02*
X70337500Y-79680750I0J-243750D01*
G01*
X70337500Y-80593250D01*
G75*
G02*
X70093750Y-80837000I-243750J0D01*
G01*
X69606250Y-80837000D01*
G75*
G02*
X69362500Y-80593250I0J243750D01*
G01*
G37*
%TD*%
%TO.C,R31*%
G36*
G01*
X39694500Y-92839250D02*
X39694500Y-92326750D01*
G75*
G02*
X39913250Y-92108000I218750J0D01*
G01*
X40350750Y-92108000D01*
G75*
G02*
X40569500Y-92326750I0J-218750D01*
G01*
X40569500Y-92839250D01*
G75*
G02*
X40350750Y-93058000I-218750J0D01*
G01*
X39913250Y-93058000D01*
G75*
G02*
X39694500Y-92839250I0J218750D01*
G01*
G37*
G36*
G01*
X41269500Y-92839250D02*
X41269500Y-92326750D01*
G75*
G02*
X41488250Y-92108000I218750J0D01*
G01*
X41925750Y-92108000D01*
G75*
G02*
X42144500Y-92326750I0J-218750D01*
G01*
X42144500Y-92839250D01*
G75*
G02*
X41925750Y-93058000I-218750J0D01*
G01*
X41488250Y-93058000D01*
G75*
G02*
X41269500Y-92839250I0J218750D01*
G01*
G37*
%TD*%
%TO.C,R32*%
G36*
G01*
X67893250Y-91195500D02*
X66980750Y-91195500D01*
G75*
G02*
X66737000Y-90951750I0J243750D01*
G01*
X66737000Y-90464250D01*
G75*
G02*
X66980750Y-90220500I243750J0D01*
G01*
X67893250Y-90220500D01*
G75*
G02*
X68137000Y-90464250I0J-243750D01*
G01*
X68137000Y-90951750D01*
G75*
G02*
X67893250Y-91195500I-243750J0D01*
G01*
G37*
G36*
G01*
X67893250Y-93070500D02*
X66980750Y-93070500D01*
G75*
G02*
X66737000Y-92826750I0J243750D01*
G01*
X66737000Y-92339250D01*
G75*
G02*
X66980750Y-92095500I243750J0D01*
G01*
X67893250Y-92095500D01*
G75*
G02*
X68137000Y-92339250I0J-243750D01*
G01*
X68137000Y-92826750D01*
G75*
G02*
X67893250Y-93070500I-243750J0D01*
G01*
G37*
%TD*%
%TO.C,R33*%
G36*
G01*
X43897000Y-90421750D02*
X43897000Y-90934250D01*
G75*
G02*
X43678250Y-91153000I-218750J0D01*
G01*
X43240750Y-91153000D01*
G75*
G02*
X43022000Y-90934250I0J218750D01*
G01*
X43022000Y-90421750D01*
G75*
G02*
X43240750Y-90203000I218750J0D01*
G01*
X43678250Y-90203000D01*
G75*
G02*
X43897000Y-90421750I0J-218750D01*
G01*
G37*
G36*
G01*
X42322000Y-90421750D02*
X42322000Y-90934250D01*
G75*
G02*
X42103250Y-91153000I-218750J0D01*
G01*
X41665750Y-91153000D01*
G75*
G02*
X41447000Y-90934250I0J218750D01*
G01*
X41447000Y-90421750D01*
G75*
G02*
X41665750Y-90203000I218750J0D01*
G01*
X42103250Y-90203000D01*
G75*
G02*
X42322000Y-90421750I0J-218750D01*
G01*
G37*
%TD*%
%TO.C,R34*%
G36*
G01*
X44074500Y-92326750D02*
X44074500Y-92839250D01*
G75*
G02*
X43855750Y-93058000I-218750J0D01*
G01*
X43418250Y-93058000D01*
G75*
G02*
X43199500Y-92839250I0J218750D01*
G01*
X43199500Y-92326750D01*
G75*
G02*
X43418250Y-92108000I218750J0D01*
G01*
X43855750Y-92108000D01*
G75*
G02*
X44074500Y-92326750I0J-218750D01*
G01*
G37*
G36*
G01*
X45649500Y-92326750D02*
X45649500Y-92839250D01*
G75*
G02*
X45430750Y-93058000I-218750J0D01*
G01*
X44993250Y-93058000D01*
G75*
G02*
X44774500Y-92839250I0J218750D01*
G01*
X44774500Y-92326750D01*
G75*
G02*
X44993250Y-92108000I218750J0D01*
G01*
X45430750Y-92108000D01*
G75*
G02*
X45649500Y-92326750I0J-218750D01*
G01*
G37*
%TD*%
%TO.C,R35*%
G36*
G01*
X75321000Y-93228000D02*
X76571000Y-93228000D01*
G75*
G02*
X76821000Y-93478000I0J-250000D01*
G01*
X76821000Y-94228000D01*
G75*
G02*
X76571000Y-94478000I-250000J0D01*
G01*
X75321000Y-94478000D01*
G75*
G02*
X75071000Y-94228000I0J250000D01*
G01*
X75071000Y-93478000D01*
G75*
G02*
X75321000Y-93228000I250000J0D01*
G01*
G37*
G36*
G01*
X75321000Y-96028000D02*
X76571000Y-96028000D01*
G75*
G02*
X76821000Y-96278000I0J-250000D01*
G01*
X76821000Y-97028000D01*
G75*
G02*
X76571000Y-97278000I-250000J0D01*
G01*
X75321000Y-97278000D01*
G75*
G02*
X75071000Y-97028000I0J250000D01*
G01*
X75071000Y-96278000D01*
G75*
G02*
X75321000Y-96028000I250000J0D01*
G01*
G37*
%TD*%
%TO.C,R36*%
G36*
G01*
X69362500Y-92912250D02*
X69362500Y-91999750D01*
G75*
G02*
X69606250Y-91756000I243750J0D01*
G01*
X70093750Y-91756000D01*
G75*
G02*
X70337500Y-91999750I0J-243750D01*
G01*
X70337500Y-92912250D01*
G75*
G02*
X70093750Y-93156000I-243750J0D01*
G01*
X69606250Y-93156000D01*
G75*
G02*
X69362500Y-92912250I0J243750D01*
G01*
G37*
G36*
G01*
X71237500Y-92912250D02*
X71237500Y-91999750D01*
G75*
G02*
X71481250Y-91756000I243750J0D01*
G01*
X71968750Y-91756000D01*
G75*
G02*
X72212500Y-91999750I0J-243750D01*
G01*
X72212500Y-92912250D01*
G75*
G02*
X71968750Y-93156000I-243750J0D01*
G01*
X71481250Y-93156000D01*
G75*
G02*
X71237500Y-92912250I0J243750D01*
G01*
G37*
%TD*%
%TO.C,R37*%
G36*
G01*
X39694500Y-105158250D02*
X39694500Y-104645750D01*
G75*
G02*
X39913250Y-104427000I218750J0D01*
G01*
X40350750Y-104427000D01*
G75*
G02*
X40569500Y-104645750I0J-218750D01*
G01*
X40569500Y-105158250D01*
G75*
G02*
X40350750Y-105377000I-218750J0D01*
G01*
X39913250Y-105377000D01*
G75*
G02*
X39694500Y-105158250I0J218750D01*
G01*
G37*
G36*
G01*
X41269500Y-105158250D02*
X41269500Y-104645750D01*
G75*
G02*
X41488250Y-104427000I218750J0D01*
G01*
X41925750Y-104427000D01*
G75*
G02*
X42144500Y-104645750I0J-218750D01*
G01*
X42144500Y-105158250D01*
G75*
G02*
X41925750Y-105377000I-218750J0D01*
G01*
X41488250Y-105377000D01*
G75*
G02*
X41269500Y-105158250I0J218750D01*
G01*
G37*
%TD*%
%TO.C,R38*%
G36*
G01*
X67893250Y-105359500D02*
X66980750Y-105359500D01*
G75*
G02*
X66737000Y-105115750I0J243750D01*
G01*
X66737000Y-104628250D01*
G75*
G02*
X66980750Y-104384500I243750J0D01*
G01*
X67893250Y-104384500D01*
G75*
G02*
X68137000Y-104628250I0J-243750D01*
G01*
X68137000Y-105115750D01*
G75*
G02*
X67893250Y-105359500I-243750J0D01*
G01*
G37*
G36*
G01*
X67893250Y-103484500D02*
X66980750Y-103484500D01*
G75*
G02*
X66737000Y-103240750I0J243750D01*
G01*
X66737000Y-102753250D01*
G75*
G02*
X66980750Y-102509500I243750J0D01*
G01*
X67893250Y-102509500D01*
G75*
G02*
X68137000Y-102753250I0J-243750D01*
G01*
X68137000Y-103240750D01*
G75*
G02*
X67893250Y-103484500I-243750J0D01*
G01*
G37*
%TD*%
%TO.C,R39*%
G36*
G01*
X42296500Y-102740750D02*
X42296500Y-103253250D01*
G75*
G02*
X42077750Y-103472000I-218750J0D01*
G01*
X41640250Y-103472000D01*
G75*
G02*
X41421500Y-103253250I0J218750D01*
G01*
X41421500Y-102740750D01*
G75*
G02*
X41640250Y-102522000I218750J0D01*
G01*
X42077750Y-102522000D01*
G75*
G02*
X42296500Y-102740750I0J-218750D01*
G01*
G37*
G36*
G01*
X43871500Y-102740750D02*
X43871500Y-103253250D01*
G75*
G02*
X43652750Y-103472000I-218750J0D01*
G01*
X43215250Y-103472000D01*
G75*
G02*
X42996500Y-103253250I0J218750D01*
G01*
X42996500Y-102740750D01*
G75*
G02*
X43215250Y-102522000I218750J0D01*
G01*
X43652750Y-102522000D01*
G75*
G02*
X43871500Y-102740750I0J-218750D01*
G01*
G37*
%TD*%
%TO.C,R40*%
G36*
G01*
X45700500Y-104645750D02*
X45700500Y-105158250D01*
G75*
G02*
X45481750Y-105377000I-218750J0D01*
G01*
X45044250Y-105377000D01*
G75*
G02*
X44825500Y-105158250I0J218750D01*
G01*
X44825500Y-104645750D01*
G75*
G02*
X45044250Y-104427000I218750J0D01*
G01*
X45481750Y-104427000D01*
G75*
G02*
X45700500Y-104645750I0J-218750D01*
G01*
G37*
G36*
G01*
X44125500Y-104645750D02*
X44125500Y-105158250D01*
G75*
G02*
X43906750Y-105377000I-218750J0D01*
G01*
X43469250Y-105377000D01*
G75*
G02*
X43250500Y-105158250I0J218750D01*
G01*
X43250500Y-104645750D01*
G75*
G02*
X43469250Y-104427000I218750J0D01*
G01*
X43906750Y-104427000D01*
G75*
G02*
X44125500Y-104645750I0J-218750D01*
G01*
G37*
%TD*%
%TO.C,R41*%
G36*
G01*
X75321000Y-108344000D02*
X76571000Y-108344000D01*
G75*
G02*
X76821000Y-108594000I0J-250000D01*
G01*
X76821000Y-109344000D01*
G75*
G02*
X76571000Y-109594000I-250000J0D01*
G01*
X75321000Y-109594000D01*
G75*
G02*
X75071000Y-109344000I0J250000D01*
G01*
X75071000Y-108594000D01*
G75*
G02*
X75321000Y-108344000I250000J0D01*
G01*
G37*
G36*
G01*
X75321000Y-105544000D02*
X76571000Y-105544000D01*
G75*
G02*
X76821000Y-105794000I0J-250000D01*
G01*
X76821000Y-106544000D01*
G75*
G02*
X76571000Y-106794000I-250000J0D01*
G01*
X75321000Y-106794000D01*
G75*
G02*
X75071000Y-106544000I0J250000D01*
G01*
X75071000Y-105794000D01*
G75*
G02*
X75321000Y-105544000I250000J0D01*
G01*
G37*
%TD*%
%TO.C,R42*%
G36*
G01*
X71237500Y-105231250D02*
X71237500Y-104318750D01*
G75*
G02*
X71481250Y-104075000I243750J0D01*
G01*
X71968750Y-104075000D01*
G75*
G02*
X72212500Y-104318750I0J-243750D01*
G01*
X72212500Y-105231250D01*
G75*
G02*
X71968750Y-105475000I-243750J0D01*
G01*
X71481250Y-105475000D01*
G75*
G02*
X71237500Y-105231250I0J243750D01*
G01*
G37*
G36*
G01*
X69362500Y-105231250D02*
X69362500Y-104318750D01*
G75*
G02*
X69606250Y-104075000I243750J0D01*
G01*
X70093750Y-104075000D01*
G75*
G02*
X70337500Y-104318750I0J-243750D01*
G01*
X70337500Y-105231250D01*
G75*
G02*
X70093750Y-105475000I-243750J0D01*
G01*
X69606250Y-105475000D01*
G75*
G02*
X69362500Y-105231250I0J243750D01*
G01*
G37*
%TD*%
%TO.C,R43*%
G36*
G01*
X39694500Y-117477250D02*
X39694500Y-116964750D01*
G75*
G02*
X39913250Y-116746000I218750J0D01*
G01*
X40350750Y-116746000D01*
G75*
G02*
X40569500Y-116964750I0J-218750D01*
G01*
X40569500Y-117477250D01*
G75*
G02*
X40350750Y-117696000I-218750J0D01*
G01*
X39913250Y-117696000D01*
G75*
G02*
X39694500Y-117477250I0J218750D01*
G01*
G37*
G36*
G01*
X41269500Y-117477250D02*
X41269500Y-116964750D01*
G75*
G02*
X41488250Y-116746000I218750J0D01*
G01*
X41925750Y-116746000D01*
G75*
G02*
X42144500Y-116964750I0J-218750D01*
G01*
X42144500Y-117477250D01*
G75*
G02*
X41925750Y-117696000I-218750J0D01*
G01*
X41488250Y-117696000D01*
G75*
G02*
X41269500Y-117477250I0J218750D01*
G01*
G37*
%TD*%
%TO.C,R44*%
G36*
G01*
X67893250Y-117678500D02*
X66980750Y-117678500D01*
G75*
G02*
X66737000Y-117434750I0J243750D01*
G01*
X66737000Y-116947250D01*
G75*
G02*
X66980750Y-116703500I243750J0D01*
G01*
X67893250Y-116703500D01*
G75*
G02*
X68137000Y-116947250I0J-243750D01*
G01*
X68137000Y-117434750D01*
G75*
G02*
X67893250Y-117678500I-243750J0D01*
G01*
G37*
G36*
G01*
X67893250Y-115803500D02*
X66980750Y-115803500D01*
G75*
G02*
X66737000Y-115559750I0J243750D01*
G01*
X66737000Y-115072250D01*
G75*
G02*
X66980750Y-114828500I243750J0D01*
G01*
X67893250Y-114828500D01*
G75*
G02*
X68137000Y-115072250I0J-243750D01*
G01*
X68137000Y-115559750D01*
G75*
G02*
X67893250Y-115803500I-243750J0D01*
G01*
G37*
%TD*%
%TO.C,R45*%
G36*
G01*
X43871500Y-115059750D02*
X43871500Y-115572250D01*
G75*
G02*
X43652750Y-115791000I-218750J0D01*
G01*
X43215250Y-115791000D01*
G75*
G02*
X42996500Y-115572250I0J218750D01*
G01*
X42996500Y-115059750D01*
G75*
G02*
X43215250Y-114841000I218750J0D01*
G01*
X43652750Y-114841000D01*
G75*
G02*
X43871500Y-115059750I0J-218750D01*
G01*
G37*
G36*
G01*
X42296500Y-115059750D02*
X42296500Y-115572250D01*
G75*
G02*
X42077750Y-115791000I-218750J0D01*
G01*
X41640250Y-115791000D01*
G75*
G02*
X41421500Y-115572250I0J218750D01*
G01*
X41421500Y-115059750D01*
G75*
G02*
X41640250Y-114841000I218750J0D01*
G01*
X42077750Y-114841000D01*
G75*
G02*
X42296500Y-115059750I0J-218750D01*
G01*
G37*
%TD*%
%TO.C,R46*%
G36*
G01*
X44125500Y-116964750D02*
X44125500Y-117477250D01*
G75*
G02*
X43906750Y-117696000I-218750J0D01*
G01*
X43469250Y-117696000D01*
G75*
G02*
X43250500Y-117477250I0J218750D01*
G01*
X43250500Y-116964750D01*
G75*
G02*
X43469250Y-116746000I218750J0D01*
G01*
X43906750Y-116746000D01*
G75*
G02*
X44125500Y-116964750I0J-218750D01*
G01*
G37*
G36*
G01*
X45700500Y-116964750D02*
X45700500Y-117477250D01*
G75*
G02*
X45481750Y-117696000I-218750J0D01*
G01*
X45044250Y-117696000D01*
G75*
G02*
X44825500Y-117477250I0J218750D01*
G01*
X44825500Y-116964750D01*
G75*
G02*
X45044250Y-116746000I218750J0D01*
G01*
X45481750Y-116746000D01*
G75*
G02*
X45700500Y-116964750I0J-218750D01*
G01*
G37*
%TD*%
%TO.C,R47*%
G36*
G01*
X75321000Y-117866000D02*
X76571000Y-117866000D01*
G75*
G02*
X76821000Y-118116000I0J-250000D01*
G01*
X76821000Y-118866000D01*
G75*
G02*
X76571000Y-119116000I-250000J0D01*
G01*
X75321000Y-119116000D01*
G75*
G02*
X75071000Y-118866000I0J250000D01*
G01*
X75071000Y-118116000D01*
G75*
G02*
X75321000Y-117866000I250000J0D01*
G01*
G37*
G36*
G01*
X75321000Y-120666000D02*
X76571000Y-120666000D01*
G75*
G02*
X76821000Y-120916000I0J-250000D01*
G01*
X76821000Y-121666000D01*
G75*
G02*
X76571000Y-121916000I-250000J0D01*
G01*
X75321000Y-121916000D01*
G75*
G02*
X75071000Y-121666000I0J250000D01*
G01*
X75071000Y-120916000D01*
G75*
G02*
X75321000Y-120666000I250000J0D01*
G01*
G37*
%TD*%
%TO.C,R48*%
G36*
G01*
X69362500Y-117550250D02*
X69362500Y-116637750D01*
G75*
G02*
X69606250Y-116394000I243750J0D01*
G01*
X70093750Y-116394000D01*
G75*
G02*
X70337500Y-116637750I0J-243750D01*
G01*
X70337500Y-117550250D01*
G75*
G02*
X70093750Y-117794000I-243750J0D01*
G01*
X69606250Y-117794000D01*
G75*
G02*
X69362500Y-117550250I0J243750D01*
G01*
G37*
G36*
G01*
X71237500Y-117550250D02*
X71237500Y-116637750D01*
G75*
G02*
X71481250Y-116394000I243750J0D01*
G01*
X71968750Y-116394000D01*
G75*
G02*
X72212500Y-116637750I0J-243750D01*
G01*
X72212500Y-117550250D01*
G75*
G02*
X71968750Y-117794000I-243750J0D01*
G01*
X71481250Y-117794000D01*
G75*
G02*
X71237500Y-117550250I0J243750D01*
G01*
G37*
%TD*%
%TO.C,R49*%
G36*
G01*
X41269500Y-129796250D02*
X41269500Y-129283750D01*
G75*
G02*
X41488250Y-129065000I218750J0D01*
G01*
X41925750Y-129065000D01*
G75*
G02*
X42144500Y-129283750I0J-218750D01*
G01*
X42144500Y-129796250D01*
G75*
G02*
X41925750Y-130015000I-218750J0D01*
G01*
X41488250Y-130015000D01*
G75*
G02*
X41269500Y-129796250I0J218750D01*
G01*
G37*
G36*
G01*
X39694500Y-129796250D02*
X39694500Y-129283750D01*
G75*
G02*
X39913250Y-129065000I218750J0D01*
G01*
X40350750Y-129065000D01*
G75*
G02*
X40569500Y-129283750I0J-218750D01*
G01*
X40569500Y-129796250D01*
G75*
G02*
X40350750Y-130015000I-218750J0D01*
G01*
X39913250Y-130015000D01*
G75*
G02*
X39694500Y-129796250I0J218750D01*
G01*
G37*
%TD*%
%TO.C,R50*%
G36*
G01*
X67893250Y-128152500D02*
X66980750Y-128152500D01*
G75*
G02*
X66737000Y-127908750I0J243750D01*
G01*
X66737000Y-127421250D01*
G75*
G02*
X66980750Y-127177500I243750J0D01*
G01*
X67893250Y-127177500D01*
G75*
G02*
X68137000Y-127421250I0J-243750D01*
G01*
X68137000Y-127908750D01*
G75*
G02*
X67893250Y-128152500I-243750J0D01*
G01*
G37*
G36*
G01*
X67893250Y-130027500D02*
X66980750Y-130027500D01*
G75*
G02*
X66737000Y-129783750I0J243750D01*
G01*
X66737000Y-129296250D01*
G75*
G02*
X66980750Y-129052500I243750J0D01*
G01*
X67893250Y-129052500D01*
G75*
G02*
X68137000Y-129296250I0J-243750D01*
G01*
X68137000Y-129783750D01*
G75*
G02*
X67893250Y-130027500I-243750J0D01*
G01*
G37*
%TD*%
%TO.C,R51*%
G36*
G01*
X42322000Y-127378750D02*
X42322000Y-127891250D01*
G75*
G02*
X42103250Y-128110000I-218750J0D01*
G01*
X41665750Y-128110000D01*
G75*
G02*
X41447000Y-127891250I0J218750D01*
G01*
X41447000Y-127378750D01*
G75*
G02*
X41665750Y-127160000I218750J0D01*
G01*
X42103250Y-127160000D01*
G75*
G02*
X42322000Y-127378750I0J-218750D01*
G01*
G37*
G36*
G01*
X43897000Y-127378750D02*
X43897000Y-127891250D01*
G75*
G02*
X43678250Y-128110000I-218750J0D01*
G01*
X43240750Y-128110000D01*
G75*
G02*
X43022000Y-127891250I0J218750D01*
G01*
X43022000Y-127378750D01*
G75*
G02*
X43240750Y-127160000I218750J0D01*
G01*
X43678250Y-127160000D01*
G75*
G02*
X43897000Y-127378750I0J-218750D01*
G01*
G37*
%TD*%
%TO.C,R52*%
G36*
G01*
X45700500Y-129283750D02*
X45700500Y-129796250D01*
G75*
G02*
X45481750Y-130015000I-218750J0D01*
G01*
X45044250Y-130015000D01*
G75*
G02*
X44825500Y-129796250I0J218750D01*
G01*
X44825500Y-129283750D01*
G75*
G02*
X45044250Y-129065000I218750J0D01*
G01*
X45481750Y-129065000D01*
G75*
G02*
X45700500Y-129283750I0J-218750D01*
G01*
G37*
G36*
G01*
X44125500Y-129283750D02*
X44125500Y-129796250D01*
G75*
G02*
X43906750Y-130015000I-218750J0D01*
G01*
X43469250Y-130015000D01*
G75*
G02*
X43250500Y-129796250I0J218750D01*
G01*
X43250500Y-129283750D01*
G75*
G02*
X43469250Y-129065000I218750J0D01*
G01*
X43906750Y-129065000D01*
G75*
G02*
X44125500Y-129283750I0J-218750D01*
G01*
G37*
%TD*%
%TO.C,R53*%
G36*
G01*
X75321000Y-132985000D02*
X76571000Y-132985000D01*
G75*
G02*
X76821000Y-133235000I0J-250000D01*
G01*
X76821000Y-133985000D01*
G75*
G02*
X76571000Y-134235000I-250000J0D01*
G01*
X75321000Y-134235000D01*
G75*
G02*
X75071000Y-133985000I0J250000D01*
G01*
X75071000Y-133235000D01*
G75*
G02*
X75321000Y-132985000I250000J0D01*
G01*
G37*
G36*
G01*
X75321000Y-130185000D02*
X76571000Y-130185000D01*
G75*
G02*
X76821000Y-130435000I0J-250000D01*
G01*
X76821000Y-131185000D01*
G75*
G02*
X76571000Y-131435000I-250000J0D01*
G01*
X75321000Y-131435000D01*
G75*
G02*
X75071000Y-131185000I0J250000D01*
G01*
X75071000Y-130435000D01*
G75*
G02*
X75321000Y-130185000I250000J0D01*
G01*
G37*
%TD*%
%TO.C,R54*%
G36*
G01*
X71267500Y-129869250D02*
X71267500Y-128956750D01*
G75*
G02*
X71511250Y-128713000I243750J0D01*
G01*
X71998750Y-128713000D01*
G75*
G02*
X72242500Y-128956750I0J-243750D01*
G01*
X72242500Y-129869250D01*
G75*
G02*
X71998750Y-130113000I-243750J0D01*
G01*
X71511250Y-130113000D01*
G75*
G02*
X71267500Y-129869250I0J243750D01*
G01*
G37*
G36*
G01*
X69392500Y-129869250D02*
X69392500Y-128956750D01*
G75*
G02*
X69636250Y-128713000I243750J0D01*
G01*
X70123750Y-128713000D01*
G75*
G02*
X70367500Y-128956750I0J-243750D01*
G01*
X70367500Y-129869250D01*
G75*
G02*
X70123750Y-130113000I-243750J0D01*
G01*
X69636250Y-130113000D01*
G75*
G02*
X69392500Y-129869250I0J243750D01*
G01*
G37*
%TD*%
%TO.C,R55*%
G36*
G01*
X39694500Y-142242250D02*
X39694500Y-141729750D01*
G75*
G02*
X39913250Y-141511000I218750J0D01*
G01*
X40350750Y-141511000D01*
G75*
G02*
X40569500Y-141729750I0J-218750D01*
G01*
X40569500Y-142242250D01*
G75*
G02*
X40350750Y-142461000I-218750J0D01*
G01*
X39913250Y-142461000D01*
G75*
G02*
X39694500Y-142242250I0J218750D01*
G01*
G37*
G36*
G01*
X41269500Y-142242250D02*
X41269500Y-141729750D01*
G75*
G02*
X41488250Y-141511000I218750J0D01*
G01*
X41925750Y-141511000D01*
G75*
G02*
X42144500Y-141729750I0J-218750D01*
G01*
X42144500Y-142242250D01*
G75*
G02*
X41925750Y-142461000I-218750J0D01*
G01*
X41488250Y-142461000D01*
G75*
G02*
X41269500Y-142242250I0J218750D01*
G01*
G37*
%TD*%
%TO.C,R56*%
G36*
G01*
X67893250Y-140441500D02*
X66980750Y-140441500D01*
G75*
G02*
X66737000Y-140197750I0J243750D01*
G01*
X66737000Y-139710250D01*
G75*
G02*
X66980750Y-139466500I243750J0D01*
G01*
X67893250Y-139466500D01*
G75*
G02*
X68137000Y-139710250I0J-243750D01*
G01*
X68137000Y-140197750D01*
G75*
G02*
X67893250Y-140441500I-243750J0D01*
G01*
G37*
G36*
G01*
X67893250Y-142316500D02*
X66980750Y-142316500D01*
G75*
G02*
X66737000Y-142072750I0J243750D01*
G01*
X66737000Y-141585250D01*
G75*
G02*
X66980750Y-141341500I243750J0D01*
G01*
X67893250Y-141341500D01*
G75*
G02*
X68137000Y-141585250I0J-243750D01*
G01*
X68137000Y-142072750D01*
G75*
G02*
X67893250Y-142316500I-243750J0D01*
G01*
G37*
%TD*%
%TO.C,R57*%
G36*
G01*
X42322000Y-139697750D02*
X42322000Y-140210250D01*
G75*
G02*
X42103250Y-140429000I-218750J0D01*
G01*
X41665750Y-140429000D01*
G75*
G02*
X41447000Y-140210250I0J218750D01*
G01*
X41447000Y-139697750D01*
G75*
G02*
X41665750Y-139479000I218750J0D01*
G01*
X42103250Y-139479000D01*
G75*
G02*
X42322000Y-139697750I0J-218750D01*
G01*
G37*
G36*
G01*
X43897000Y-139697750D02*
X43897000Y-140210250D01*
G75*
G02*
X43678250Y-140429000I-218750J0D01*
G01*
X43240750Y-140429000D01*
G75*
G02*
X43022000Y-140210250I0J218750D01*
G01*
X43022000Y-139697750D01*
G75*
G02*
X43240750Y-139479000I218750J0D01*
G01*
X43678250Y-139479000D01*
G75*
G02*
X43897000Y-139697750I0J-218750D01*
G01*
G37*
%TD*%
%TO.C,R58*%
G36*
G01*
X45675000Y-141729750D02*
X45675000Y-142242250D01*
G75*
G02*
X45456250Y-142461000I-218750J0D01*
G01*
X45018750Y-142461000D01*
G75*
G02*
X44800000Y-142242250I0J218750D01*
G01*
X44800000Y-141729750D01*
G75*
G02*
X45018750Y-141511000I218750J0D01*
G01*
X45456250Y-141511000D01*
G75*
G02*
X45675000Y-141729750I0J-218750D01*
G01*
G37*
G36*
G01*
X44100000Y-141729750D02*
X44100000Y-142242250D01*
G75*
G02*
X43881250Y-142461000I-218750J0D01*
G01*
X43443750Y-142461000D01*
G75*
G02*
X43225000Y-142242250I0J218750D01*
G01*
X43225000Y-141729750D01*
G75*
G02*
X43443750Y-141511000I218750J0D01*
G01*
X43881250Y-141511000D01*
G75*
G02*
X44100000Y-141729750I0J-218750D01*
G01*
G37*
%TD*%
%TO.C,R59*%
G36*
G01*
X75321000Y-142504000D02*
X76571000Y-142504000D01*
G75*
G02*
X76821000Y-142754000I0J-250000D01*
G01*
X76821000Y-143504000D01*
G75*
G02*
X76571000Y-143754000I-250000J0D01*
G01*
X75321000Y-143754000D01*
G75*
G02*
X75071000Y-143504000I0J250000D01*
G01*
X75071000Y-142754000D01*
G75*
G02*
X75321000Y-142504000I250000J0D01*
G01*
G37*
G36*
G01*
X75321000Y-145304000D02*
X76571000Y-145304000D01*
G75*
G02*
X76821000Y-145554000I0J-250000D01*
G01*
X76821000Y-146304000D01*
G75*
G02*
X76571000Y-146554000I-250000J0D01*
G01*
X75321000Y-146554000D01*
G75*
G02*
X75071000Y-146304000I0J250000D01*
G01*
X75071000Y-145554000D01*
G75*
G02*
X75321000Y-145304000I250000J0D01*
G01*
G37*
%TD*%
%TO.C,R60*%
G36*
G01*
X69362500Y-142188250D02*
X69362500Y-141275750D01*
G75*
G02*
X69606250Y-141032000I243750J0D01*
G01*
X70093750Y-141032000D01*
G75*
G02*
X70337500Y-141275750I0J-243750D01*
G01*
X70337500Y-142188250D01*
G75*
G02*
X70093750Y-142432000I-243750J0D01*
G01*
X69606250Y-142432000D01*
G75*
G02*
X69362500Y-142188250I0J243750D01*
G01*
G37*
G36*
G01*
X71237500Y-142188250D02*
X71237500Y-141275750D01*
G75*
G02*
X71481250Y-141032000I243750J0D01*
G01*
X71968750Y-141032000D01*
G75*
G02*
X72212500Y-141275750I0J-243750D01*
G01*
X72212500Y-142188250D01*
G75*
G02*
X71968750Y-142432000I-243750J0D01*
G01*
X71481250Y-142432000D01*
G75*
G02*
X71237500Y-142188250I0J243750D01*
G01*
G37*
%TD*%
%TO.C,R61*%
G36*
G01*
X39694500Y-154434250D02*
X39694500Y-153921750D01*
G75*
G02*
X39913250Y-153703000I218750J0D01*
G01*
X40350750Y-153703000D01*
G75*
G02*
X40569500Y-153921750I0J-218750D01*
G01*
X40569500Y-154434250D01*
G75*
G02*
X40350750Y-154653000I-218750J0D01*
G01*
X39913250Y-154653000D01*
G75*
G02*
X39694500Y-154434250I0J218750D01*
G01*
G37*
G36*
G01*
X41269500Y-154434250D02*
X41269500Y-153921750D01*
G75*
G02*
X41488250Y-153703000I218750J0D01*
G01*
X41925750Y-153703000D01*
G75*
G02*
X42144500Y-153921750I0J-218750D01*
G01*
X42144500Y-154434250D01*
G75*
G02*
X41925750Y-154653000I-218750J0D01*
G01*
X41488250Y-154653000D01*
G75*
G02*
X41269500Y-154434250I0J218750D01*
G01*
G37*
%TD*%
%TO.C,R62*%
G36*
G01*
X67893250Y-154665500D02*
X66980750Y-154665500D01*
G75*
G02*
X66737000Y-154421750I0J243750D01*
G01*
X66737000Y-153934250D01*
G75*
G02*
X66980750Y-153690500I243750J0D01*
G01*
X67893250Y-153690500D01*
G75*
G02*
X68137000Y-153934250I0J-243750D01*
G01*
X68137000Y-154421750D01*
G75*
G02*
X67893250Y-154665500I-243750J0D01*
G01*
G37*
G36*
G01*
X67893250Y-152790500D02*
X66980750Y-152790500D01*
G75*
G02*
X66737000Y-152546750I0J243750D01*
G01*
X66737000Y-152059250D01*
G75*
G02*
X66980750Y-151815500I243750J0D01*
G01*
X67893250Y-151815500D01*
G75*
G02*
X68137000Y-152059250I0J-243750D01*
G01*
X68137000Y-152546750D01*
G75*
G02*
X67893250Y-152790500I-243750J0D01*
G01*
G37*
%TD*%
%TO.C,R63*%
G36*
G01*
X101532001Y-175990000D02*
X99381999Y-175990000D01*
G75*
G02*
X99132000Y-175740001I0J249999D01*
G01*
X99132000Y-174889999D01*
G75*
G02*
X99381999Y-174640000I249999J0D01*
G01*
X101532001Y-174640000D01*
G75*
G02*
X101782000Y-174889999I0J-249999D01*
G01*
X101782000Y-175740001D01*
G75*
G02*
X101532001Y-175990000I-249999J0D01*
G01*
G37*
G36*
G01*
X101532001Y-171490000D02*
X99381999Y-171490000D01*
G75*
G02*
X99132000Y-171240001I0J249999D01*
G01*
X99132000Y-170389999D01*
G75*
G02*
X99381999Y-170140000I249999J0D01*
G01*
X101532001Y-170140000D01*
G75*
G02*
X101782000Y-170389999I0J-249999D01*
G01*
X101782000Y-171240001D01*
G75*
G02*
X101532001Y-171490000I-249999J0D01*
G01*
G37*
%TD*%
%TO.C,R64*%
G36*
G01*
X43897000Y-152016750D02*
X43897000Y-152529250D01*
G75*
G02*
X43678250Y-152748000I-218750J0D01*
G01*
X43240750Y-152748000D01*
G75*
G02*
X43022000Y-152529250I0J218750D01*
G01*
X43022000Y-152016750D01*
G75*
G02*
X43240750Y-151798000I218750J0D01*
G01*
X43678250Y-151798000D01*
G75*
G02*
X43897000Y-152016750I0J-218750D01*
G01*
G37*
G36*
G01*
X42322000Y-152016750D02*
X42322000Y-152529250D01*
G75*
G02*
X42103250Y-152748000I-218750J0D01*
G01*
X41665750Y-152748000D01*
G75*
G02*
X41447000Y-152529250I0J218750D01*
G01*
X41447000Y-152016750D01*
G75*
G02*
X41665750Y-151798000I218750J0D01*
G01*
X42103250Y-151798000D01*
G75*
G02*
X42322000Y-152016750I0J-218750D01*
G01*
G37*
%TD*%
%TO.C,R65*%
G36*
G01*
X44074500Y-153921750D02*
X44074500Y-154434250D01*
G75*
G02*
X43855750Y-154653000I-218750J0D01*
G01*
X43418250Y-154653000D01*
G75*
G02*
X43199500Y-154434250I0J218750D01*
G01*
X43199500Y-153921750D01*
G75*
G02*
X43418250Y-153703000I218750J0D01*
G01*
X43855750Y-153703000D01*
G75*
G02*
X44074500Y-153921750I0J-218750D01*
G01*
G37*
G36*
G01*
X45649500Y-153921750D02*
X45649500Y-154434250D01*
G75*
G02*
X45430750Y-154653000I-218750J0D01*
G01*
X44993250Y-154653000D01*
G75*
G02*
X44774500Y-154434250I0J218750D01*
G01*
X44774500Y-153921750D01*
G75*
G02*
X44993250Y-153703000I218750J0D01*
G01*
X45430750Y-153703000D01*
G75*
G02*
X45649500Y-153921750I0J-218750D01*
G01*
G37*
%TD*%
%TO.C,R66*%
G36*
G01*
X75321000Y-154817000D02*
X76571000Y-154817000D01*
G75*
G02*
X76821000Y-155067000I0J-250000D01*
G01*
X76821000Y-155817000D01*
G75*
G02*
X76571000Y-156067000I-250000J0D01*
G01*
X75321000Y-156067000D01*
G75*
G02*
X75071000Y-155817000I0J250000D01*
G01*
X75071000Y-155067000D01*
G75*
G02*
X75321000Y-154817000I250000J0D01*
G01*
G37*
G36*
G01*
X75321000Y-157617000D02*
X76571000Y-157617000D01*
G75*
G02*
X76821000Y-157867000I0J-250000D01*
G01*
X76821000Y-158617000D01*
G75*
G02*
X76571000Y-158867000I-250000J0D01*
G01*
X75321000Y-158867000D01*
G75*
G02*
X75071000Y-158617000I0J250000D01*
G01*
X75071000Y-157867000D01*
G75*
G02*
X75321000Y-157617000I250000J0D01*
G01*
G37*
%TD*%
%TO.C,R67*%
G36*
G01*
X71237500Y-154507250D02*
X71237500Y-153594750D01*
G75*
G02*
X71481250Y-153351000I243750J0D01*
G01*
X71968750Y-153351000D01*
G75*
G02*
X72212500Y-153594750I0J-243750D01*
G01*
X72212500Y-154507250D01*
G75*
G02*
X71968750Y-154751000I-243750J0D01*
G01*
X71481250Y-154751000D01*
G75*
G02*
X71237500Y-154507250I0J243750D01*
G01*
G37*
G36*
G01*
X69362500Y-154507250D02*
X69362500Y-153594750D01*
G75*
G02*
X69606250Y-153351000I243750J0D01*
G01*
X70093750Y-153351000D01*
G75*
G02*
X70337500Y-153594750I0J-243750D01*
G01*
X70337500Y-154507250D01*
G75*
G02*
X70093750Y-154751000I-243750J0D01*
G01*
X69606250Y-154751000D01*
G75*
G02*
X69362500Y-154507250I0J243750D01*
G01*
G37*
%TD*%
%TO.C,R68*%
G36*
G01*
X96717500Y-174119250D02*
X96717500Y-173606750D01*
G75*
G02*
X96936250Y-173388000I218750J0D01*
G01*
X97373750Y-173388000D01*
G75*
G02*
X97592500Y-173606750I0J-218750D01*
G01*
X97592500Y-174119250D01*
G75*
G02*
X97373750Y-174338000I-218750J0D01*
G01*
X96936250Y-174338000D01*
G75*
G02*
X96717500Y-174119250I0J218750D01*
G01*
G37*
G36*
G01*
X95142500Y-174119250D02*
X95142500Y-173606750D01*
G75*
G02*
X95361250Y-173388000I218750J0D01*
G01*
X95798750Y-173388000D01*
G75*
G02*
X96017500Y-173606750I0J-218750D01*
G01*
X96017500Y-174119250D01*
G75*
G02*
X95798750Y-174338000I-218750J0D01*
G01*
X95361250Y-174338000D01*
G75*
G02*
X95142500Y-174119250I0J218750D01*
G01*
G37*
%TD*%
%TO.C,R69*%
G36*
G01*
X41269500Y-166753250D02*
X41269500Y-166240750D01*
G75*
G02*
X41488250Y-166022000I218750J0D01*
G01*
X41925750Y-166022000D01*
G75*
G02*
X42144500Y-166240750I0J-218750D01*
G01*
X42144500Y-166753250D01*
G75*
G02*
X41925750Y-166972000I-218750J0D01*
G01*
X41488250Y-166972000D01*
G75*
G02*
X41269500Y-166753250I0J218750D01*
G01*
G37*
G36*
G01*
X39694500Y-166753250D02*
X39694500Y-166240750D01*
G75*
G02*
X39913250Y-166022000I218750J0D01*
G01*
X40350750Y-166022000D01*
G75*
G02*
X40569500Y-166240750I0J-218750D01*
G01*
X40569500Y-166753250D01*
G75*
G02*
X40350750Y-166972000I-218750J0D01*
G01*
X39913250Y-166972000D01*
G75*
G02*
X39694500Y-166753250I0J218750D01*
G01*
G37*
%TD*%
%TO.C,R70*%
G36*
G01*
X67893250Y-166984500D02*
X66980750Y-166984500D01*
G75*
G02*
X66737000Y-166740750I0J243750D01*
G01*
X66737000Y-166253250D01*
G75*
G02*
X66980750Y-166009500I243750J0D01*
G01*
X67893250Y-166009500D01*
G75*
G02*
X68137000Y-166253250I0J-243750D01*
G01*
X68137000Y-166740750D01*
G75*
G02*
X67893250Y-166984500I-243750J0D01*
G01*
G37*
G36*
G01*
X67893250Y-165109500D02*
X66980750Y-165109500D01*
G75*
G02*
X66737000Y-164865750I0J243750D01*
G01*
X66737000Y-164378250D01*
G75*
G02*
X66980750Y-164134500I243750J0D01*
G01*
X67893250Y-164134500D01*
G75*
G02*
X68137000Y-164378250I0J-243750D01*
G01*
X68137000Y-164865750D01*
G75*
G02*
X67893250Y-165109500I-243750J0D01*
G01*
G37*
%TD*%
%TO.C,R71*%
G36*
G01*
X96717500Y-171833250D02*
X96717500Y-171320750D01*
G75*
G02*
X96936250Y-171102000I218750J0D01*
G01*
X97373750Y-171102000D01*
G75*
G02*
X97592500Y-171320750I0J-218750D01*
G01*
X97592500Y-171833250D01*
G75*
G02*
X97373750Y-172052000I-218750J0D01*
G01*
X96936250Y-172052000D01*
G75*
G02*
X96717500Y-171833250I0J218750D01*
G01*
G37*
G36*
G01*
X95142500Y-171833250D02*
X95142500Y-171320750D01*
G75*
G02*
X95361250Y-171102000I218750J0D01*
G01*
X95798750Y-171102000D01*
G75*
G02*
X96017500Y-171320750I0J-218750D01*
G01*
X96017500Y-171833250D01*
G75*
G02*
X95798750Y-172052000I-218750J0D01*
G01*
X95361250Y-172052000D01*
G75*
G02*
X95142500Y-171833250I0J218750D01*
G01*
G37*
%TD*%
%TO.C,R72*%
G36*
G01*
X43897000Y-164335750D02*
X43897000Y-164848250D01*
G75*
G02*
X43678250Y-165067000I-218750J0D01*
G01*
X43240750Y-165067000D01*
G75*
G02*
X43022000Y-164848250I0J218750D01*
G01*
X43022000Y-164335750D01*
G75*
G02*
X43240750Y-164117000I218750J0D01*
G01*
X43678250Y-164117000D01*
G75*
G02*
X43897000Y-164335750I0J-218750D01*
G01*
G37*
G36*
G01*
X42322000Y-164335750D02*
X42322000Y-164848250D01*
G75*
G02*
X42103250Y-165067000I-218750J0D01*
G01*
X41665750Y-165067000D01*
G75*
G02*
X41447000Y-164848250I0J218750D01*
G01*
X41447000Y-164335750D01*
G75*
G02*
X41665750Y-164117000I218750J0D01*
G01*
X42103250Y-164117000D01*
G75*
G02*
X42322000Y-164335750I0J-218750D01*
G01*
G37*
%TD*%
%TO.C,R73*%
G36*
G01*
X44074500Y-166240750D02*
X44074500Y-166753250D01*
G75*
G02*
X43855750Y-166972000I-218750J0D01*
G01*
X43418250Y-166972000D01*
G75*
G02*
X43199500Y-166753250I0J218750D01*
G01*
X43199500Y-166240750D01*
G75*
G02*
X43418250Y-166022000I218750J0D01*
G01*
X43855750Y-166022000D01*
G75*
G02*
X44074500Y-166240750I0J-218750D01*
G01*
G37*
G36*
G01*
X45649500Y-166240750D02*
X45649500Y-166753250D01*
G75*
G02*
X45430750Y-166972000I-218750J0D01*
G01*
X44993250Y-166972000D01*
G75*
G02*
X44774500Y-166753250I0J218750D01*
G01*
X44774500Y-166240750D01*
G75*
G02*
X44993250Y-166022000I218750J0D01*
G01*
X45430750Y-166022000D01*
G75*
G02*
X45649500Y-166240750I0J-218750D01*
G01*
G37*
%TD*%
%TO.C,R74*%
G36*
G01*
X75321000Y-169942000D02*
X76571000Y-169942000D01*
G75*
G02*
X76821000Y-170192000I0J-250000D01*
G01*
X76821000Y-170942000D01*
G75*
G02*
X76571000Y-171192000I-250000J0D01*
G01*
X75321000Y-171192000D01*
G75*
G02*
X75071000Y-170942000I0J250000D01*
G01*
X75071000Y-170192000D01*
G75*
G02*
X75321000Y-169942000I250000J0D01*
G01*
G37*
G36*
G01*
X75321000Y-167142000D02*
X76571000Y-167142000D01*
G75*
G02*
X76821000Y-167392000I0J-250000D01*
G01*
X76821000Y-168142000D01*
G75*
G02*
X76571000Y-168392000I-250000J0D01*
G01*
X75321000Y-168392000D01*
G75*
G02*
X75071000Y-168142000I0J250000D01*
G01*
X75071000Y-167392000D01*
G75*
G02*
X75321000Y-167142000I250000J0D01*
G01*
G37*
%TD*%
%TO.C,R75*%
G36*
G01*
X69362500Y-166826250D02*
X69362500Y-165913750D01*
G75*
G02*
X69606250Y-165670000I243750J0D01*
G01*
X70093750Y-165670000D01*
G75*
G02*
X70337500Y-165913750I0J-243750D01*
G01*
X70337500Y-166826250D01*
G75*
G02*
X70093750Y-167070000I-243750J0D01*
G01*
X69606250Y-167070000D01*
G75*
G02*
X69362500Y-166826250I0J243750D01*
G01*
G37*
G36*
G01*
X71237500Y-166826250D02*
X71237500Y-165913750D01*
G75*
G02*
X71481250Y-165670000I243750J0D01*
G01*
X71968750Y-165670000D01*
G75*
G02*
X72212500Y-165913750I0J-243750D01*
G01*
X72212500Y-166826250D01*
G75*
G02*
X71968750Y-167070000I-243750J0D01*
G01*
X71481250Y-167070000D01*
G75*
G02*
X71237500Y-166826250I0J243750D01*
G01*
G37*
%TD*%
%TO.C,U1*%
G36*
G01*
X93936000Y-173332000D02*
X93936000Y-173632000D01*
G75*
G02*
X93786000Y-173782000I-150000J0D01*
G01*
X92136000Y-173782000D01*
G75*
G02*
X91986000Y-173632000I0J150000D01*
G01*
X91986000Y-173332000D01*
G75*
G02*
X92136000Y-173182000I150000J0D01*
G01*
X93786000Y-173182000D01*
G75*
G02*
X93936000Y-173332000I0J-150000D01*
G01*
G37*
G36*
G01*
X93936000Y-172062000D02*
X93936000Y-172362000D01*
G75*
G02*
X93786000Y-172512000I-150000J0D01*
G01*
X92136000Y-172512000D01*
G75*
G02*
X91986000Y-172362000I0J150000D01*
G01*
X91986000Y-172062000D01*
G75*
G02*
X92136000Y-171912000I150000J0D01*
G01*
X93786000Y-171912000D01*
G75*
G02*
X93936000Y-172062000I0J-150000D01*
G01*
G37*
G36*
G01*
X93936000Y-170792000D02*
X93936000Y-171092000D01*
G75*
G02*
X93786000Y-171242000I-150000J0D01*
G01*
X92136000Y-171242000D01*
G75*
G02*
X91986000Y-171092000I0J150000D01*
G01*
X91986000Y-170792000D01*
G75*
G02*
X92136000Y-170642000I150000J0D01*
G01*
X93786000Y-170642000D01*
G75*
G02*
X93936000Y-170792000I0J-150000D01*
G01*
G37*
G36*
G01*
X93936000Y-169522000D02*
X93936000Y-169822000D01*
G75*
G02*
X93786000Y-169972000I-150000J0D01*
G01*
X92136000Y-169972000D01*
G75*
G02*
X91986000Y-169822000I0J150000D01*
G01*
X91986000Y-169522000D01*
G75*
G02*
X92136000Y-169372000I150000J0D01*
G01*
X93786000Y-169372000D01*
G75*
G02*
X93936000Y-169522000I0J-150000D01*
G01*
G37*
G36*
G01*
X88986000Y-169522000D02*
X88986000Y-169822000D01*
G75*
G02*
X88836000Y-169972000I-150000J0D01*
G01*
X87186000Y-169972000D01*
G75*
G02*
X87036000Y-169822000I0J150000D01*
G01*
X87036000Y-169522000D01*
G75*
G02*
X87186000Y-169372000I150000J0D01*
G01*
X88836000Y-169372000D01*
G75*
G02*
X88986000Y-169522000I0J-150000D01*
G01*
G37*
G36*
G01*
X88986000Y-170792000D02*
X88986000Y-171092000D01*
G75*
G02*
X88836000Y-171242000I-150000J0D01*
G01*
X87186000Y-171242000D01*
G75*
G02*
X87036000Y-171092000I0J150000D01*
G01*
X87036000Y-170792000D01*
G75*
G02*
X87186000Y-170642000I150000J0D01*
G01*
X88836000Y-170642000D01*
G75*
G02*
X88986000Y-170792000I0J-150000D01*
G01*
G37*
G36*
G01*
X88986000Y-172062000D02*
X88986000Y-172362000D01*
G75*
G02*
X88836000Y-172512000I-150000J0D01*
G01*
X87186000Y-172512000D01*
G75*
G02*
X87036000Y-172362000I0J150000D01*
G01*
X87036000Y-172062000D01*
G75*
G02*
X87186000Y-171912000I150000J0D01*
G01*
X88836000Y-171912000D01*
G75*
G02*
X88986000Y-172062000I0J-150000D01*
G01*
G37*
G36*
G01*
X88986000Y-173332000D02*
X88986000Y-173632000D01*
G75*
G02*
X88836000Y-173782000I-150000J0D01*
G01*
X87186000Y-173782000D01*
G75*
G02*
X87036000Y-173632000I0J150000D01*
G01*
X87036000Y-173332000D01*
G75*
G02*
X87186000Y-173182000I150000J0D01*
G01*
X88836000Y-173182000D01*
G75*
G02*
X88986000Y-173332000I0J-150000D01*
G01*
G37*
%TD*%
%TO.C,C16*%
G36*
G01*
X98173250Y-163785000D02*
X97660750Y-163785000D01*
G75*
G02*
X97442000Y-163566250I0J218750D01*
G01*
X97442000Y-163128750D01*
G75*
G02*
X97660750Y-162910000I218750J0D01*
G01*
X98173250Y-162910000D01*
G75*
G02*
X98392000Y-163128750I0J-218750D01*
G01*
X98392000Y-163566250D01*
G75*
G02*
X98173250Y-163785000I-218750J0D01*
G01*
G37*
G36*
G01*
X98173250Y-162210000D02*
X97660750Y-162210000D01*
G75*
G02*
X97442000Y-161991250I0J218750D01*
G01*
X97442000Y-161553750D01*
G75*
G02*
X97660750Y-161335000I218750J0D01*
G01*
X98173250Y-161335000D01*
G75*
G02*
X98392000Y-161553750I0J-218750D01*
G01*
X98392000Y-161991250D01*
G75*
G02*
X98173250Y-162210000I-218750J0D01*
G01*
G37*
%TD*%
%TO.C,R87*%
G36*
G01*
X65093001Y-47075000D02*
X64192999Y-47075000D01*
G75*
G02*
X63943000Y-46825001I0J249999D01*
G01*
X63943000Y-46174999D01*
G75*
G02*
X64192999Y-45925000I249999J0D01*
G01*
X65093001Y-45925000D01*
G75*
G02*
X65343000Y-46174999I0J-249999D01*
G01*
X65343000Y-46825001D01*
G75*
G02*
X65093001Y-47075000I-249999J0D01*
G01*
G37*
G36*
G01*
X65093001Y-45025000D02*
X64192999Y-45025000D01*
G75*
G02*
X63943000Y-44775001I0J249999D01*
G01*
X63943000Y-44124999D01*
G75*
G02*
X64192999Y-43875000I249999J0D01*
G01*
X65093001Y-43875000D01*
G75*
G02*
X65343000Y-44124999I0J-249999D01*
G01*
X65343000Y-44775001D01*
G75*
G02*
X65093001Y-45025000I-249999J0D01*
G01*
G37*
%TD*%
%TO.C,R95*%
G36*
G01*
X65093001Y-57335000D02*
X64192999Y-57335000D01*
G75*
G02*
X63943000Y-57085001I0J249999D01*
G01*
X63943000Y-56434999D01*
G75*
G02*
X64192999Y-56185000I249999J0D01*
G01*
X65093001Y-56185000D01*
G75*
G02*
X65343000Y-56434999I0J-249999D01*
G01*
X65343000Y-57085001D01*
G75*
G02*
X65093001Y-57335000I-249999J0D01*
G01*
G37*
G36*
G01*
X65093001Y-59385000D02*
X64192999Y-59385000D01*
G75*
G02*
X63943000Y-59135001I0J249999D01*
G01*
X63943000Y-58484999D01*
G75*
G02*
X64192999Y-58235000I249999J0D01*
G01*
X65093001Y-58235000D01*
G75*
G02*
X65343000Y-58484999I0J-249999D01*
G01*
X65343000Y-59135001D01*
G75*
G02*
X65093001Y-59385000I-249999J0D01*
G01*
G37*
%TD*%
%TO.C,R103*%
G36*
G01*
X65093001Y-71695000D02*
X64192999Y-71695000D01*
G75*
G02*
X63943000Y-71445001I0J249999D01*
G01*
X63943000Y-70794999D01*
G75*
G02*
X64192999Y-70545000I249999J0D01*
G01*
X65093001Y-70545000D01*
G75*
G02*
X65343000Y-70794999I0J-249999D01*
G01*
X65343000Y-71445001D01*
G75*
G02*
X65093001Y-71695000I-249999J0D01*
G01*
G37*
G36*
G01*
X65093001Y-69645000D02*
X64192999Y-69645000D01*
G75*
G02*
X63943000Y-69395001I0J249999D01*
G01*
X63943000Y-68744999D01*
G75*
G02*
X64192999Y-68495000I249999J0D01*
G01*
X65093001Y-68495000D01*
G75*
G02*
X65343000Y-68744999I0J-249999D01*
G01*
X65343000Y-69395001D01*
G75*
G02*
X65093001Y-69645000I-249999J0D01*
G01*
G37*
%TD*%
%TO.C,R111*%
G36*
G01*
X65093001Y-81964000D02*
X64192999Y-81964000D01*
G75*
G02*
X63943000Y-81714001I0J249999D01*
G01*
X63943000Y-81063999D01*
G75*
G02*
X64192999Y-80814000I249999J0D01*
G01*
X65093001Y-80814000D01*
G75*
G02*
X65343000Y-81063999I0J-249999D01*
G01*
X65343000Y-81714001D01*
G75*
G02*
X65093001Y-81964000I-249999J0D01*
G01*
G37*
G36*
G01*
X65093001Y-84014000D02*
X64192999Y-84014000D01*
G75*
G02*
X63943000Y-83764001I0J249999D01*
G01*
X63943000Y-83113999D01*
G75*
G02*
X64192999Y-82864000I249999J0D01*
G01*
X65093001Y-82864000D01*
G75*
G02*
X65343000Y-83113999I0J-249999D01*
G01*
X65343000Y-83764001D01*
G75*
G02*
X65093001Y-84014000I-249999J0D01*
G01*
G37*
%TD*%
%TO.C,R119*%
G36*
G01*
X65093001Y-94283000D02*
X64192999Y-94283000D01*
G75*
G02*
X63943000Y-94033001I0J249999D01*
G01*
X63943000Y-93382999D01*
G75*
G02*
X64192999Y-93133000I249999J0D01*
G01*
X65093001Y-93133000D01*
G75*
G02*
X65343000Y-93382999I0J-249999D01*
G01*
X65343000Y-94033001D01*
G75*
G02*
X65093001Y-94283000I-249999J0D01*
G01*
G37*
G36*
G01*
X65093001Y-96333000D02*
X64192999Y-96333000D01*
G75*
G02*
X63943000Y-96083001I0J249999D01*
G01*
X63943000Y-95432999D01*
G75*
G02*
X64192999Y-95183000I249999J0D01*
G01*
X65093001Y-95183000D01*
G75*
G02*
X65343000Y-95432999I0J-249999D01*
G01*
X65343000Y-96083001D01*
G75*
G02*
X65093001Y-96333000I-249999J0D01*
G01*
G37*
%TD*%
%TO.C,R127*%
G36*
G01*
X65093001Y-108652000D02*
X64192999Y-108652000D01*
G75*
G02*
X63943000Y-108402001I0J249999D01*
G01*
X63943000Y-107751999D01*
G75*
G02*
X64192999Y-107502000I249999J0D01*
G01*
X65093001Y-107502000D01*
G75*
G02*
X65343000Y-107751999I0J-249999D01*
G01*
X65343000Y-108402001D01*
G75*
G02*
X65093001Y-108652000I-249999J0D01*
G01*
G37*
G36*
G01*
X65093001Y-106602000D02*
X64192999Y-106602000D01*
G75*
G02*
X63943000Y-106352001I0J249999D01*
G01*
X63943000Y-105701999D01*
G75*
G02*
X64192999Y-105452000I249999J0D01*
G01*
X65093001Y-105452000D01*
G75*
G02*
X65343000Y-105701999I0J-249999D01*
G01*
X65343000Y-106352001D01*
G75*
G02*
X65093001Y-106602000I-249999J0D01*
G01*
G37*
%TD*%
%TO.C,R135*%
G36*
G01*
X65093001Y-118921000D02*
X64192999Y-118921000D01*
G75*
G02*
X63943000Y-118671001I0J249999D01*
G01*
X63943000Y-118020999D01*
G75*
G02*
X64192999Y-117771000I249999J0D01*
G01*
X65093001Y-117771000D01*
G75*
G02*
X65343000Y-118020999I0J-249999D01*
G01*
X65343000Y-118671001D01*
G75*
G02*
X65093001Y-118921000I-249999J0D01*
G01*
G37*
G36*
G01*
X65093001Y-120971000D02*
X64192999Y-120971000D01*
G75*
G02*
X63943000Y-120721001I0J249999D01*
G01*
X63943000Y-120070999D01*
G75*
G02*
X64192999Y-119821000I249999J0D01*
G01*
X65093001Y-119821000D01*
G75*
G02*
X65343000Y-120070999I0J-249999D01*
G01*
X65343000Y-120721001D01*
G75*
G02*
X65093001Y-120971000I-249999J0D01*
G01*
G37*
%TD*%
%TO.C,R143*%
G36*
G01*
X65093001Y-131240000D02*
X64192999Y-131240000D01*
G75*
G02*
X63943000Y-130990001I0J249999D01*
G01*
X63943000Y-130339999D01*
G75*
G02*
X64192999Y-130090000I249999J0D01*
G01*
X65093001Y-130090000D01*
G75*
G02*
X65343000Y-130339999I0J-249999D01*
G01*
X65343000Y-130990001D01*
G75*
G02*
X65093001Y-131240000I-249999J0D01*
G01*
G37*
G36*
G01*
X65093001Y-133290000D02*
X64192999Y-133290000D01*
G75*
G02*
X63943000Y-133040001I0J249999D01*
G01*
X63943000Y-132389999D01*
G75*
G02*
X64192999Y-132140000I249999J0D01*
G01*
X65093001Y-132140000D01*
G75*
G02*
X65343000Y-132389999I0J-249999D01*
G01*
X65343000Y-133040001D01*
G75*
G02*
X65093001Y-133290000I-249999J0D01*
G01*
G37*
%TD*%
%TO.C,R151*%
G36*
G01*
X65093001Y-145627000D02*
X64192999Y-145627000D01*
G75*
G02*
X63943000Y-145377001I0J249999D01*
G01*
X63943000Y-144726999D01*
G75*
G02*
X64192999Y-144477000I249999J0D01*
G01*
X65093001Y-144477000D01*
G75*
G02*
X65343000Y-144726999I0J-249999D01*
G01*
X65343000Y-145377001D01*
G75*
G02*
X65093001Y-145627000I-249999J0D01*
G01*
G37*
G36*
G01*
X65093001Y-143577000D02*
X64192999Y-143577000D01*
G75*
G02*
X63943000Y-143327001I0J249999D01*
G01*
X63943000Y-142676999D01*
G75*
G02*
X64192999Y-142427000I249999J0D01*
G01*
X65093001Y-142427000D01*
G75*
G02*
X65343000Y-142676999I0J-249999D01*
G01*
X65343000Y-143327001D01*
G75*
G02*
X65093001Y-143577000I-249999J0D01*
G01*
G37*
%TD*%
%TO.C,R159*%
G36*
G01*
X65093001Y-157937000D02*
X64192999Y-157937000D01*
G75*
G02*
X63943000Y-157687001I0J249999D01*
G01*
X63943000Y-157036999D01*
G75*
G02*
X64192999Y-156787000I249999J0D01*
G01*
X65093001Y-156787000D01*
G75*
G02*
X65343000Y-157036999I0J-249999D01*
G01*
X65343000Y-157687001D01*
G75*
G02*
X65093001Y-157937000I-249999J0D01*
G01*
G37*
G36*
G01*
X65093001Y-155887000D02*
X64192999Y-155887000D01*
G75*
G02*
X63943000Y-155637001I0J249999D01*
G01*
X63943000Y-154986999D01*
G75*
G02*
X64192999Y-154737000I249999J0D01*
G01*
X65093001Y-154737000D01*
G75*
G02*
X65343000Y-154986999I0J-249999D01*
G01*
X65343000Y-155637001D01*
G75*
G02*
X65093001Y-155887000I-249999J0D01*
G01*
G37*
%TD*%
%TO.C,R166*%
G36*
G01*
X84957500Y-172849250D02*
X84957500Y-172336750D01*
G75*
G02*
X85176250Y-172118000I218750J0D01*
G01*
X85613750Y-172118000D01*
G75*
G02*
X85832500Y-172336750I0J-218750D01*
G01*
X85832500Y-172849250D01*
G75*
G02*
X85613750Y-173068000I-218750J0D01*
G01*
X85176250Y-173068000D01*
G75*
G02*
X84957500Y-172849250I0J218750D01*
G01*
G37*
G36*
G01*
X83382500Y-172849250D02*
X83382500Y-172336750D01*
G75*
G02*
X83601250Y-172118000I218750J0D01*
G01*
X84038750Y-172118000D01*
G75*
G02*
X84257500Y-172336750I0J-218750D01*
G01*
X84257500Y-172849250D01*
G75*
G02*
X84038750Y-173068000I-218750J0D01*
G01*
X83601250Y-173068000D01*
G75*
G02*
X83382500Y-172849250I0J218750D01*
G01*
G37*
%TD*%
%TO.C,R168*%
G36*
G01*
X65093001Y-168215000D02*
X64192999Y-168215000D01*
G75*
G02*
X63943000Y-167965001I0J249999D01*
G01*
X63943000Y-167314999D01*
G75*
G02*
X64192999Y-167065000I249999J0D01*
G01*
X65093001Y-167065000D01*
G75*
G02*
X65343000Y-167314999I0J-249999D01*
G01*
X65343000Y-167965001D01*
G75*
G02*
X65093001Y-168215000I-249999J0D01*
G01*
G37*
G36*
G01*
X65093001Y-170265000D02*
X64192999Y-170265000D01*
G75*
G02*
X63943000Y-170015001I0J249999D01*
G01*
X63943000Y-169364999D01*
G75*
G02*
X64192999Y-169115000I249999J0D01*
G01*
X65093001Y-169115000D01*
G75*
G02*
X65343000Y-169364999I0J-249999D01*
G01*
X65343000Y-170015001D01*
G75*
G02*
X65093001Y-170265000I-249999J0D01*
G01*
G37*
%TD*%
%TO.C,R172*%
G36*
G01*
X83382500Y-170563250D02*
X83382500Y-170050750D01*
G75*
G02*
X83601250Y-169832000I218750J0D01*
G01*
X84038750Y-169832000D01*
G75*
G02*
X84257500Y-170050750I0J-218750D01*
G01*
X84257500Y-170563250D01*
G75*
G02*
X84038750Y-170782000I-218750J0D01*
G01*
X83601250Y-170782000D01*
G75*
G02*
X83382500Y-170563250I0J218750D01*
G01*
G37*
G36*
G01*
X84957500Y-170563250D02*
X84957500Y-170050750D01*
G75*
G02*
X85176250Y-169832000I218750J0D01*
G01*
X85613750Y-169832000D01*
G75*
G02*
X85832500Y-170050750I0J-218750D01*
G01*
X85832500Y-170563250D01*
G75*
G02*
X85613750Y-170782000I-218750J0D01*
G01*
X85176250Y-170782000D01*
G75*
G02*
X84957500Y-170563250I0J218750D01*
G01*
G37*
%TD*%
%TO.C,U2*%
G36*
G01*
X110386000Y-37740000D02*
X110086000Y-37740000D01*
G75*
G02*
X109936000Y-37590000I0J150000D01*
G01*
X109936000Y-35940000D01*
G75*
G02*
X110086000Y-35790000I150000J0D01*
G01*
X110386000Y-35790000D01*
G75*
G02*
X110536000Y-35940000I0J-150000D01*
G01*
X110536000Y-37590000D01*
G75*
G02*
X110386000Y-37740000I-150000J0D01*
G01*
G37*
G36*
G01*
X111656000Y-37740000D02*
X111356000Y-37740000D01*
G75*
G02*
X111206000Y-37590000I0J150000D01*
G01*
X111206000Y-35940000D01*
G75*
G02*
X111356000Y-35790000I150000J0D01*
G01*
X111656000Y-35790000D01*
G75*
G02*
X111806000Y-35940000I0J-150000D01*
G01*
X111806000Y-37590000D01*
G75*
G02*
X111656000Y-37740000I-150000J0D01*
G01*
G37*
G36*
G01*
X112926000Y-37740000D02*
X112626000Y-37740000D01*
G75*
G02*
X112476000Y-37590000I0J150000D01*
G01*
X112476000Y-35940000D01*
G75*
G02*
X112626000Y-35790000I150000J0D01*
G01*
X112926000Y-35790000D01*
G75*
G02*
X113076000Y-35940000I0J-150000D01*
G01*
X113076000Y-37590000D01*
G75*
G02*
X112926000Y-37740000I-150000J0D01*
G01*
G37*
G36*
G01*
X114196000Y-37740000D02*
X113896000Y-37740000D01*
G75*
G02*
X113746000Y-37590000I0J150000D01*
G01*
X113746000Y-35940000D01*
G75*
G02*
X113896000Y-35790000I150000J0D01*
G01*
X114196000Y-35790000D01*
G75*
G02*
X114346000Y-35940000I0J-150000D01*
G01*
X114346000Y-37590000D01*
G75*
G02*
X114196000Y-37740000I-150000J0D01*
G01*
G37*
G36*
G01*
X114196000Y-32790000D02*
X113896000Y-32790000D01*
G75*
G02*
X113746000Y-32640000I0J150000D01*
G01*
X113746000Y-30990000D01*
G75*
G02*
X113896000Y-30840000I150000J0D01*
G01*
X114196000Y-30840000D01*
G75*
G02*
X114346000Y-30990000I0J-150000D01*
G01*
X114346000Y-32640000D01*
G75*
G02*
X114196000Y-32790000I-150000J0D01*
G01*
G37*
G36*
G01*
X112926000Y-32790000D02*
X112626000Y-32790000D01*
G75*
G02*
X112476000Y-32640000I0J150000D01*
G01*
X112476000Y-30990000D01*
G75*
G02*
X112626000Y-30840000I150000J0D01*
G01*
X112926000Y-30840000D01*
G75*
G02*
X113076000Y-30990000I0J-150000D01*
G01*
X113076000Y-32640000D01*
G75*
G02*
X112926000Y-32790000I-150000J0D01*
G01*
G37*
G36*
G01*
X111656000Y-32790000D02*
X111356000Y-32790000D01*
G75*
G02*
X111206000Y-32640000I0J150000D01*
G01*
X111206000Y-30990000D01*
G75*
G02*
X111356000Y-30840000I150000J0D01*
G01*
X111656000Y-30840000D01*
G75*
G02*
X111806000Y-30990000I0J-150000D01*
G01*
X111806000Y-32640000D01*
G75*
G02*
X111656000Y-32790000I-150000J0D01*
G01*
G37*
G36*
G01*
X110386000Y-32790000D02*
X110086000Y-32790000D01*
G75*
G02*
X109936000Y-32640000I0J150000D01*
G01*
X109936000Y-30990000D01*
G75*
G02*
X110086000Y-30840000I150000J0D01*
G01*
X110386000Y-30840000D01*
G75*
G02*
X110536000Y-30990000I0J-150000D01*
G01*
X110536000Y-32640000D01*
G75*
G02*
X110386000Y-32790000I-150000J0D01*
G01*
G37*
%TD*%
%TO.C,VCC9*%
G36*
G01*
X119644000Y-97298000D02*
X120894000Y-97298000D01*
G75*
G02*
X121144000Y-97548000I0J-250000D01*
G01*
X121144000Y-98298000D01*
G75*
G02*
X120894000Y-98548000I-250000J0D01*
G01*
X119644000Y-98548000D01*
G75*
G02*
X119394000Y-98298000I0J250000D01*
G01*
X119394000Y-97548000D01*
G75*
G02*
X119644000Y-97298000I250000J0D01*
G01*
G37*
G36*
G01*
X119644000Y-94498000D02*
X120894000Y-94498000D01*
G75*
G02*
X121144000Y-94748000I0J-250000D01*
G01*
X121144000Y-95498000D01*
G75*
G02*
X120894000Y-95748000I-250000J0D01*
G01*
X119644000Y-95748000D01*
G75*
G02*
X119394000Y-95498000I0J250000D01*
G01*
X119394000Y-94748000D01*
G75*
G02*
X119644000Y-94498000I250000J0D01*
G01*
G37*
%TD*%
%TO.C,VCC10*%
G36*
G01*
X114074000Y-87808750D02*
X114074000Y-88721250D01*
G75*
G02*
X113830250Y-88965000I-243750J0D01*
G01*
X113342750Y-88965000D01*
G75*
G02*
X113099000Y-88721250I0J243750D01*
G01*
X113099000Y-87808750D01*
G75*
G02*
X113342750Y-87565000I243750J0D01*
G01*
X113830250Y-87565000D01*
G75*
G02*
X114074000Y-87808750I0J-243750D01*
G01*
G37*
G36*
G01*
X112199000Y-87808750D02*
X112199000Y-88721250D01*
G75*
G02*
X111955250Y-88965000I-243750J0D01*
G01*
X111467750Y-88965000D01*
G75*
G02*
X111224000Y-88721250I0J243750D01*
G01*
X111224000Y-87808750D01*
G75*
G02*
X111467750Y-87565000I243750J0D01*
G01*
X111955250Y-87565000D01*
G75*
G02*
X112199000Y-87808750I0J-243750D01*
G01*
G37*
%TD*%
%TO.C,VCC11*%
G36*
G01*
X89551000Y-76232000D02*
X91551000Y-76232000D01*
G75*
G02*
X91801000Y-76482000I0J-250000D01*
G01*
X91801000Y-79982000D01*
G75*
G02*
X91551000Y-80232000I-250000J0D01*
G01*
X89551000Y-80232000D01*
G75*
G02*
X89301000Y-79982000I0J250000D01*
G01*
X89301000Y-76482000D01*
G75*
G02*
X89551000Y-76232000I250000J0D01*
G01*
G37*
G36*
G01*
X89551000Y-84232000D02*
X91551000Y-84232000D01*
G75*
G02*
X91801000Y-84482000I0J-250000D01*
G01*
X91801000Y-87982000D01*
G75*
G02*
X91551000Y-88232000I-250000J0D01*
G01*
X89551000Y-88232000D01*
G75*
G02*
X89301000Y-87982000I0J250000D01*
G01*
X89301000Y-84482000D01*
G75*
G02*
X89551000Y-84232000I250000J0D01*
G01*
G37*
%TD*%
D15*
%TO.C,VCD3*%
X112649000Y-94360000D03*
X112649000Y-91060000D03*
%TD*%
D16*
%TO.C,VCL3*%
X103333000Y-79883000D03*
X111633000Y-79883000D03*
%TD*%
%TO.C,VCR7*%
G36*
G01*
X97174500Y-82552250D02*
X97174500Y-82039750D01*
G75*
G02*
X97393250Y-81821000I218750J0D01*
G01*
X97830750Y-81821000D01*
G75*
G02*
X98049500Y-82039750I0J-218750D01*
G01*
X98049500Y-82552250D01*
G75*
G02*
X97830750Y-82771000I-218750J0D01*
G01*
X97393250Y-82771000D01*
G75*
G02*
X97174500Y-82552250I0J218750D01*
G01*
G37*
G36*
G01*
X98749500Y-82552250D02*
X98749500Y-82039750D01*
G75*
G02*
X98968250Y-81821000I218750J0D01*
G01*
X99405750Y-81821000D01*
G75*
G02*
X99624500Y-82039750I0J-218750D01*
G01*
X99624500Y-82552250D01*
G75*
G02*
X99405750Y-82771000I-218750J0D01*
G01*
X98968250Y-82771000D01*
G75*
G02*
X98749500Y-82552250I0J218750D01*
G01*
G37*
%TD*%
%TO.C,VCR8*%
G36*
G01*
X101524750Y-89985000D02*
X102437250Y-89985000D01*
G75*
G02*
X102681000Y-90228750I0J-243750D01*
G01*
X102681000Y-90716250D01*
G75*
G02*
X102437250Y-90960000I-243750J0D01*
G01*
X101524750Y-90960000D01*
G75*
G02*
X101281000Y-90716250I0J243750D01*
G01*
X101281000Y-90228750D01*
G75*
G02*
X101524750Y-89985000I243750J0D01*
G01*
G37*
G36*
G01*
X101524750Y-88110000D02*
X102437250Y-88110000D01*
G75*
G02*
X102681000Y-88353750I0J-243750D01*
G01*
X102681000Y-88841250D01*
G75*
G02*
X102437250Y-89085000I-243750J0D01*
G01*
X101524750Y-89085000D01*
G75*
G02*
X101281000Y-88841250I0J243750D01*
G01*
X101281000Y-88353750D01*
G75*
G02*
X101524750Y-88110000I243750J0D01*
G01*
G37*
%TD*%
D17*
%TO.C,VCU3*%
X107340400Y-91313000D03*
D18*
X109245400Y-88613000D03*
X107975400Y-88613000D03*
X106705400Y-88613000D03*
X105435400Y-88613000D03*
X105435400Y-94013000D03*
X106705400Y-94013000D03*
X107975400Y-94013000D03*
X109245400Y-94013000D03*
%TD*%
D14*
%TO.C,Q77*%
X49498000Y-46670000D03*
X47498000Y-47620000D03*
X47498000Y-45720000D03*
%TD*%
%TO.C,Q78*%
X51689000Y-45720000D03*
X51689000Y-47620000D03*
X53689000Y-46670000D03*
%TD*%
%TO.C,Q79*%
X57912000Y-46609000D03*
X55912000Y-47559000D03*
X55912000Y-45659000D03*
%TD*%
%TO.C,Q80*%
X62071000Y-46543000D03*
X60071000Y-47493000D03*
X60071000Y-45593000D03*
%TD*%
%TO.C,Q81*%
X49514000Y-58928000D03*
X47514000Y-59878000D03*
X47514000Y-57978000D03*
%TD*%
%TO.C,Q82*%
X51705000Y-57978000D03*
X51705000Y-59878000D03*
X53705000Y-58928000D03*
%TD*%
%TO.C,Q83*%
X55880000Y-57912000D03*
X55880000Y-59812000D03*
X57880000Y-58862000D03*
%TD*%
%TO.C,Q84*%
X62071000Y-58862000D03*
X60071000Y-59812000D03*
X60071000Y-57912000D03*
%TD*%
%TO.C,Q85*%
X49498000Y-71181000D03*
X47498000Y-72131000D03*
X47498000Y-70231000D03*
%TD*%
%TO.C,Q86*%
X51705000Y-70231000D03*
X51705000Y-72131000D03*
X53705000Y-71181000D03*
%TD*%
%TO.C,Q87*%
X55880000Y-70231000D03*
X55880000Y-72131000D03*
X57880000Y-71181000D03*
%TD*%
%TO.C,Q88*%
X62087000Y-71247000D03*
X60087000Y-72197000D03*
X60087000Y-70297000D03*
%TD*%
%TO.C,Q89*%
X49514000Y-83566000D03*
X47514000Y-84516000D03*
X47514000Y-82616000D03*
%TD*%
%TO.C,Q90*%
X51705000Y-82616000D03*
X51705000Y-84516000D03*
X53705000Y-83566000D03*
%TD*%
%TO.C,Q91*%
X55880000Y-82555000D03*
X55880000Y-84455000D03*
X57880000Y-83505000D03*
%TD*%
%TO.C,Q92*%
X62071000Y-83500000D03*
X60071000Y-84450000D03*
X60071000Y-82550000D03*
%TD*%
%TO.C,Q93*%
X49498000Y-95819000D03*
X47498000Y-96769000D03*
X47498000Y-94869000D03*
%TD*%
%TO.C,Q94*%
X51689000Y-94869000D03*
X51689000Y-96769000D03*
X53689000Y-95819000D03*
%TD*%
%TO.C,Q95*%
X55880000Y-94869000D03*
X55880000Y-96769000D03*
X57880000Y-95819000D03*
%TD*%
%TO.C,Q96*%
X62087000Y-95819000D03*
X60087000Y-96769000D03*
X60087000Y-94869000D03*
%TD*%
%TO.C,Q97*%
X49498000Y-108138000D03*
X47498000Y-109088000D03*
X47498000Y-107188000D03*
%TD*%
%TO.C,Q98*%
X51689000Y-107188000D03*
X51689000Y-109088000D03*
X53689000Y-108138000D03*
%TD*%
%TO.C,Q99*%
X55880000Y-107188000D03*
X55880000Y-109088000D03*
X57880000Y-108138000D03*
%TD*%
%TO.C,Q100*%
X60071000Y-107188000D03*
X60071000Y-109088000D03*
X62071000Y-108138000D03*
%TD*%
%TO.C,Q101*%
X49498000Y-120457000D03*
X47498000Y-121407000D03*
X47498000Y-119507000D03*
%TD*%
%TO.C,Q102*%
X51705000Y-119573000D03*
X51705000Y-121473000D03*
X53705000Y-120523000D03*
%TD*%
%TO.C,Q103*%
X55880000Y-119507000D03*
X55880000Y-121407000D03*
X57880000Y-120457000D03*
%TD*%
%TO.C,Q104*%
X60087000Y-119573000D03*
X60087000Y-121473000D03*
X62087000Y-120523000D03*
%TD*%
%TO.C,Q105*%
X49514000Y-132842000D03*
X47514000Y-133792000D03*
X47514000Y-131892000D03*
%TD*%
%TO.C,Q106*%
X51705000Y-131892000D03*
X51705000Y-133792000D03*
X53705000Y-132842000D03*
%TD*%
%TO.C,Q107*%
X57880000Y-132776000D03*
X55880000Y-133726000D03*
X55880000Y-131826000D03*
%TD*%
%TO.C,Q108*%
X62087000Y-132842000D03*
X60087000Y-133792000D03*
X60087000Y-131892000D03*
%TD*%
%TO.C,Q109*%
X49514000Y-145161000D03*
X47514000Y-146111000D03*
X47514000Y-144211000D03*
%TD*%
%TO.C,Q110*%
X53689000Y-145161000D03*
X51689000Y-146111000D03*
X51689000Y-144211000D03*
%TD*%
%TO.C,Q111*%
X55880000Y-144145000D03*
X55880000Y-146045000D03*
X57880000Y-145095000D03*
%TD*%
%TO.C,Q112*%
X62087000Y-145161000D03*
X60087000Y-146111000D03*
X60087000Y-144211000D03*
%TD*%
%TO.C,Q113*%
X49514000Y-157480000D03*
X47514000Y-158430000D03*
X47514000Y-156530000D03*
%TD*%
%TO.C,Q114*%
X51705000Y-156530000D03*
X51705000Y-158430000D03*
X53705000Y-157480000D03*
%TD*%
%TO.C,Q115*%
X55880000Y-156464000D03*
X55880000Y-158364000D03*
X57880000Y-157414000D03*
%TD*%
%TO.C,Q116*%
X62087000Y-157480000D03*
X60087000Y-158430000D03*
X60087000Y-156530000D03*
%TD*%
%TO.C,Q117*%
X49514000Y-169799000D03*
X47514000Y-170749000D03*
X47514000Y-168849000D03*
%TD*%
%TO.C,Q118*%
X51705000Y-168849000D03*
X51705000Y-170749000D03*
X53705000Y-169799000D03*
%TD*%
%TO.C,Q119*%
X57880000Y-169733000D03*
X55880000Y-170683000D03*
X55880000Y-168783000D03*
%TD*%
%TO.C,Q120*%
X60087000Y-168849000D03*
X60087000Y-170749000D03*
X62087000Y-169799000D03*
%TD*%
%TO.C,R80*%
G36*
G01*
X41269500Y-45849250D02*
X41269500Y-45336750D01*
G75*
G02*
X41488250Y-45118000I218750J0D01*
G01*
X41925750Y-45118000D01*
G75*
G02*
X42144500Y-45336750I0J-218750D01*
G01*
X42144500Y-45849250D01*
G75*
G02*
X41925750Y-46068000I-218750J0D01*
G01*
X41488250Y-46068000D01*
G75*
G02*
X41269500Y-45849250I0J218750D01*
G01*
G37*
G36*
G01*
X39694500Y-45849250D02*
X39694500Y-45336750D01*
G75*
G02*
X39913250Y-45118000I218750J0D01*
G01*
X40350750Y-45118000D01*
G75*
G02*
X40569500Y-45336750I0J-218750D01*
G01*
X40569500Y-45849250D01*
G75*
G02*
X40350750Y-46068000I-218750J0D01*
G01*
X39913250Y-46068000D01*
G75*
G02*
X39694500Y-45849250I0J218750D01*
G01*
G37*
%TD*%
%TO.C,R81*%
G36*
G01*
X43922500Y-47368750D02*
X43922500Y-47881250D01*
G75*
G02*
X43703750Y-48100000I-218750J0D01*
G01*
X43266250Y-48100000D01*
G75*
G02*
X43047500Y-47881250I0J218750D01*
G01*
X43047500Y-47368750D01*
G75*
G02*
X43266250Y-47150000I218750J0D01*
G01*
X43703750Y-47150000D01*
G75*
G02*
X43922500Y-47368750I0J-218750D01*
G01*
G37*
G36*
G01*
X42347500Y-47368750D02*
X42347500Y-47881250D01*
G75*
G02*
X42128750Y-48100000I-218750J0D01*
G01*
X41691250Y-48100000D01*
G75*
G02*
X41472500Y-47881250I0J218750D01*
G01*
X41472500Y-47368750D01*
G75*
G02*
X41691250Y-47150000I218750J0D01*
G01*
X42128750Y-47150000D01*
G75*
G02*
X42347500Y-47368750I0J-218750D01*
G01*
G37*
%TD*%
%TO.C,R82*%
G36*
G01*
X44100000Y-45336750D02*
X44100000Y-45849250D01*
G75*
G02*
X43881250Y-46068000I-218750J0D01*
G01*
X43443750Y-46068000D01*
G75*
G02*
X43225000Y-45849250I0J218750D01*
G01*
X43225000Y-45336750D01*
G75*
G02*
X43443750Y-45118000I218750J0D01*
G01*
X43881250Y-45118000D01*
G75*
G02*
X44100000Y-45336750I0J-218750D01*
G01*
G37*
G36*
G01*
X45675000Y-45336750D02*
X45675000Y-45849250D01*
G75*
G02*
X45456250Y-46068000I-218750J0D01*
G01*
X45018750Y-46068000D01*
G75*
G02*
X44800000Y-45849250I0J218750D01*
G01*
X44800000Y-45336750D01*
G75*
G02*
X45018750Y-45118000I218750J0D01*
G01*
X45456250Y-45118000D01*
G75*
G02*
X45675000Y-45336750I0J-218750D01*
G01*
G37*
%TD*%
%TO.C,R83*%
G36*
G01*
X39643500Y-58168250D02*
X39643500Y-57655750D01*
G75*
G02*
X39862250Y-57437000I218750J0D01*
G01*
X40299750Y-57437000D01*
G75*
G02*
X40518500Y-57655750I0J-218750D01*
G01*
X40518500Y-58168250D01*
G75*
G02*
X40299750Y-58387000I-218750J0D01*
G01*
X39862250Y-58387000D01*
G75*
G02*
X39643500Y-58168250I0J218750D01*
G01*
G37*
G36*
G01*
X41218500Y-58168250D02*
X41218500Y-57655750D01*
G75*
G02*
X41437250Y-57437000I218750J0D01*
G01*
X41874750Y-57437000D01*
G75*
G02*
X42093500Y-57655750I0J-218750D01*
G01*
X42093500Y-58168250D01*
G75*
G02*
X41874750Y-58387000I-218750J0D01*
G01*
X41437250Y-58387000D01*
G75*
G02*
X41218500Y-58168250I0J218750D01*
G01*
G37*
%TD*%
%TO.C,R84*%
G36*
G01*
X42347500Y-59687750D02*
X42347500Y-60200250D01*
G75*
G02*
X42128750Y-60419000I-218750J0D01*
G01*
X41691250Y-60419000D01*
G75*
G02*
X41472500Y-60200250I0J218750D01*
G01*
X41472500Y-59687750D01*
G75*
G02*
X41691250Y-59469000I218750J0D01*
G01*
X42128750Y-59469000D01*
G75*
G02*
X42347500Y-59687750I0J-218750D01*
G01*
G37*
G36*
G01*
X43922500Y-59687750D02*
X43922500Y-60200250D01*
G75*
G02*
X43703750Y-60419000I-218750J0D01*
G01*
X43266250Y-60419000D01*
G75*
G02*
X43047500Y-60200250I0J218750D01*
G01*
X43047500Y-59687750D01*
G75*
G02*
X43266250Y-59469000I218750J0D01*
G01*
X43703750Y-59469000D01*
G75*
G02*
X43922500Y-59687750I0J-218750D01*
G01*
G37*
%TD*%
%TO.C,R85*%
G36*
G01*
X45675000Y-57655750D02*
X45675000Y-58168250D01*
G75*
G02*
X45456250Y-58387000I-218750J0D01*
G01*
X45018750Y-58387000D01*
G75*
G02*
X44800000Y-58168250I0J218750D01*
G01*
X44800000Y-57655750D01*
G75*
G02*
X45018750Y-57437000I218750J0D01*
G01*
X45456250Y-57437000D01*
G75*
G02*
X45675000Y-57655750I0J-218750D01*
G01*
G37*
G36*
G01*
X44100000Y-57655750D02*
X44100000Y-58168250D01*
G75*
G02*
X43881250Y-58387000I-218750J0D01*
G01*
X43443750Y-58387000D01*
G75*
G02*
X43225000Y-58168250I0J218750D01*
G01*
X43225000Y-57655750D01*
G75*
G02*
X43443750Y-57437000I218750J0D01*
G01*
X43881250Y-57437000D01*
G75*
G02*
X44100000Y-57655750I0J-218750D01*
G01*
G37*
%TD*%
%TO.C,R86*%
G36*
G01*
X41244000Y-70487250D02*
X41244000Y-69974750D01*
G75*
G02*
X41462750Y-69756000I218750J0D01*
G01*
X41900250Y-69756000D01*
G75*
G02*
X42119000Y-69974750I0J-218750D01*
G01*
X42119000Y-70487250D01*
G75*
G02*
X41900250Y-70706000I-218750J0D01*
G01*
X41462750Y-70706000D01*
G75*
G02*
X41244000Y-70487250I0J218750D01*
G01*
G37*
G36*
G01*
X39669000Y-70487250D02*
X39669000Y-69974750D01*
G75*
G02*
X39887750Y-69756000I218750J0D01*
G01*
X40325250Y-69756000D01*
G75*
G02*
X40544000Y-69974750I0J-218750D01*
G01*
X40544000Y-70487250D01*
G75*
G02*
X40325250Y-70706000I-218750J0D01*
G01*
X39887750Y-70706000D01*
G75*
G02*
X39669000Y-70487250I0J218750D01*
G01*
G37*
%TD*%
%TO.C,R88*%
G36*
G01*
X43922500Y-72006750D02*
X43922500Y-72519250D01*
G75*
G02*
X43703750Y-72738000I-218750J0D01*
G01*
X43266250Y-72738000D01*
G75*
G02*
X43047500Y-72519250I0J218750D01*
G01*
X43047500Y-72006750D01*
G75*
G02*
X43266250Y-71788000I218750J0D01*
G01*
X43703750Y-71788000D01*
G75*
G02*
X43922500Y-72006750I0J-218750D01*
G01*
G37*
G36*
G01*
X42347500Y-72006750D02*
X42347500Y-72519250D01*
G75*
G02*
X42128750Y-72738000I-218750J0D01*
G01*
X41691250Y-72738000D01*
G75*
G02*
X41472500Y-72519250I0J218750D01*
G01*
X41472500Y-72006750D01*
G75*
G02*
X41691250Y-71788000I218750J0D01*
G01*
X42128750Y-71788000D01*
G75*
G02*
X42347500Y-72006750I0J-218750D01*
G01*
G37*
%TD*%
%TO.C,R89*%
G36*
G01*
X44074500Y-69974750D02*
X44074500Y-70487250D01*
G75*
G02*
X43855750Y-70706000I-218750J0D01*
G01*
X43418250Y-70706000D01*
G75*
G02*
X43199500Y-70487250I0J218750D01*
G01*
X43199500Y-69974750D01*
G75*
G02*
X43418250Y-69756000I218750J0D01*
G01*
X43855750Y-69756000D01*
G75*
G02*
X44074500Y-69974750I0J-218750D01*
G01*
G37*
G36*
G01*
X45649500Y-69974750D02*
X45649500Y-70487250D01*
G75*
G02*
X45430750Y-70706000I-218750J0D01*
G01*
X44993250Y-70706000D01*
G75*
G02*
X44774500Y-70487250I0J218750D01*
G01*
X44774500Y-69974750D01*
G75*
G02*
X44993250Y-69756000I218750J0D01*
G01*
X45430750Y-69756000D01*
G75*
G02*
X45649500Y-69974750I0J-218750D01*
G01*
G37*
%TD*%
%TO.C,R90*%
G36*
G01*
X39669000Y-82806250D02*
X39669000Y-82293750D01*
G75*
G02*
X39887750Y-82075000I218750J0D01*
G01*
X40325250Y-82075000D01*
G75*
G02*
X40544000Y-82293750I0J-218750D01*
G01*
X40544000Y-82806250D01*
G75*
G02*
X40325250Y-83025000I-218750J0D01*
G01*
X39887750Y-83025000D01*
G75*
G02*
X39669000Y-82806250I0J218750D01*
G01*
G37*
G36*
G01*
X41244000Y-82806250D02*
X41244000Y-82293750D01*
G75*
G02*
X41462750Y-82075000I218750J0D01*
G01*
X41900250Y-82075000D01*
G75*
G02*
X42119000Y-82293750I0J-218750D01*
G01*
X42119000Y-82806250D01*
G75*
G02*
X41900250Y-83025000I-218750J0D01*
G01*
X41462750Y-83025000D01*
G75*
G02*
X41244000Y-82806250I0J218750D01*
G01*
G37*
%TD*%
%TO.C,R91*%
G36*
G01*
X42296500Y-84325750D02*
X42296500Y-84838250D01*
G75*
G02*
X42077750Y-85057000I-218750J0D01*
G01*
X41640250Y-85057000D01*
G75*
G02*
X41421500Y-84838250I0J218750D01*
G01*
X41421500Y-84325750D01*
G75*
G02*
X41640250Y-84107000I218750J0D01*
G01*
X42077750Y-84107000D01*
G75*
G02*
X42296500Y-84325750I0J-218750D01*
G01*
G37*
G36*
G01*
X43871500Y-84325750D02*
X43871500Y-84838250D01*
G75*
G02*
X43652750Y-85057000I-218750J0D01*
G01*
X43215250Y-85057000D01*
G75*
G02*
X42996500Y-84838250I0J218750D01*
G01*
X42996500Y-84325750D01*
G75*
G02*
X43215250Y-84107000I218750J0D01*
G01*
X43652750Y-84107000D01*
G75*
G02*
X43871500Y-84325750I0J-218750D01*
G01*
G37*
%TD*%
%TO.C,R92*%
G36*
G01*
X45649500Y-82293750D02*
X45649500Y-82806250D01*
G75*
G02*
X45430750Y-83025000I-218750J0D01*
G01*
X44993250Y-83025000D01*
G75*
G02*
X44774500Y-82806250I0J218750D01*
G01*
X44774500Y-82293750D01*
G75*
G02*
X44993250Y-82075000I218750J0D01*
G01*
X45430750Y-82075000D01*
G75*
G02*
X45649500Y-82293750I0J-218750D01*
G01*
G37*
G36*
G01*
X44074500Y-82293750D02*
X44074500Y-82806250D01*
G75*
G02*
X43855750Y-83025000I-218750J0D01*
G01*
X43418250Y-83025000D01*
G75*
G02*
X43199500Y-82806250I0J218750D01*
G01*
X43199500Y-82293750D01*
G75*
G02*
X43418250Y-82075000I218750J0D01*
G01*
X43855750Y-82075000D01*
G75*
G02*
X44074500Y-82293750I0J-218750D01*
G01*
G37*
%TD*%
%TO.C,R93*%
G36*
G01*
X41244000Y-95125250D02*
X41244000Y-94612750D01*
G75*
G02*
X41462750Y-94394000I218750J0D01*
G01*
X41900250Y-94394000D01*
G75*
G02*
X42119000Y-94612750I0J-218750D01*
G01*
X42119000Y-95125250D01*
G75*
G02*
X41900250Y-95344000I-218750J0D01*
G01*
X41462750Y-95344000D01*
G75*
G02*
X41244000Y-95125250I0J218750D01*
G01*
G37*
G36*
G01*
X39669000Y-95125250D02*
X39669000Y-94612750D01*
G75*
G02*
X39887750Y-94394000I218750J0D01*
G01*
X40325250Y-94394000D01*
G75*
G02*
X40544000Y-94612750I0J-218750D01*
G01*
X40544000Y-95125250D01*
G75*
G02*
X40325250Y-95344000I-218750J0D01*
G01*
X39887750Y-95344000D01*
G75*
G02*
X39669000Y-95125250I0J218750D01*
G01*
G37*
%TD*%
%TO.C,R94*%
G36*
G01*
X43922500Y-96644750D02*
X43922500Y-97157250D01*
G75*
G02*
X43703750Y-97376000I-218750J0D01*
G01*
X43266250Y-97376000D01*
G75*
G02*
X43047500Y-97157250I0J218750D01*
G01*
X43047500Y-96644750D01*
G75*
G02*
X43266250Y-96426000I218750J0D01*
G01*
X43703750Y-96426000D01*
G75*
G02*
X43922500Y-96644750I0J-218750D01*
G01*
G37*
G36*
G01*
X42347500Y-96644750D02*
X42347500Y-97157250D01*
G75*
G02*
X42128750Y-97376000I-218750J0D01*
G01*
X41691250Y-97376000D01*
G75*
G02*
X41472500Y-97157250I0J218750D01*
G01*
X41472500Y-96644750D01*
G75*
G02*
X41691250Y-96426000I218750J0D01*
G01*
X42128750Y-96426000D01*
G75*
G02*
X42347500Y-96644750I0J-218750D01*
G01*
G37*
%TD*%
%TO.C,R96*%
G36*
G01*
X44074500Y-94612750D02*
X44074500Y-95125250D01*
G75*
G02*
X43855750Y-95344000I-218750J0D01*
G01*
X43418250Y-95344000D01*
G75*
G02*
X43199500Y-95125250I0J218750D01*
G01*
X43199500Y-94612750D01*
G75*
G02*
X43418250Y-94394000I218750J0D01*
G01*
X43855750Y-94394000D01*
G75*
G02*
X44074500Y-94612750I0J-218750D01*
G01*
G37*
G36*
G01*
X45649500Y-94612750D02*
X45649500Y-95125250D01*
G75*
G02*
X45430750Y-95344000I-218750J0D01*
G01*
X44993250Y-95344000D01*
G75*
G02*
X44774500Y-95125250I0J218750D01*
G01*
X44774500Y-94612750D01*
G75*
G02*
X44993250Y-94394000I218750J0D01*
G01*
X45430750Y-94394000D01*
G75*
G02*
X45649500Y-94612750I0J-218750D01*
G01*
G37*
%TD*%
%TO.C,R97*%
G36*
G01*
X39669000Y-107444250D02*
X39669000Y-106931750D01*
G75*
G02*
X39887750Y-106713000I218750J0D01*
G01*
X40325250Y-106713000D01*
G75*
G02*
X40544000Y-106931750I0J-218750D01*
G01*
X40544000Y-107444250D01*
G75*
G02*
X40325250Y-107663000I-218750J0D01*
G01*
X39887750Y-107663000D01*
G75*
G02*
X39669000Y-107444250I0J218750D01*
G01*
G37*
G36*
G01*
X41244000Y-107444250D02*
X41244000Y-106931750D01*
G75*
G02*
X41462750Y-106713000I218750J0D01*
G01*
X41900250Y-106713000D01*
G75*
G02*
X42119000Y-106931750I0J-218750D01*
G01*
X42119000Y-107444250D01*
G75*
G02*
X41900250Y-107663000I-218750J0D01*
G01*
X41462750Y-107663000D01*
G75*
G02*
X41244000Y-107444250I0J218750D01*
G01*
G37*
%TD*%
%TO.C,R98*%
G36*
G01*
X42296500Y-108963750D02*
X42296500Y-109476250D01*
G75*
G02*
X42077750Y-109695000I-218750J0D01*
G01*
X41640250Y-109695000D01*
G75*
G02*
X41421500Y-109476250I0J218750D01*
G01*
X41421500Y-108963750D01*
G75*
G02*
X41640250Y-108745000I218750J0D01*
G01*
X42077750Y-108745000D01*
G75*
G02*
X42296500Y-108963750I0J-218750D01*
G01*
G37*
G36*
G01*
X43871500Y-108963750D02*
X43871500Y-109476250D01*
G75*
G02*
X43652750Y-109695000I-218750J0D01*
G01*
X43215250Y-109695000D01*
G75*
G02*
X42996500Y-109476250I0J218750D01*
G01*
X42996500Y-108963750D01*
G75*
G02*
X43215250Y-108745000I218750J0D01*
G01*
X43652750Y-108745000D01*
G75*
G02*
X43871500Y-108963750I0J-218750D01*
G01*
G37*
%TD*%
%TO.C,R99*%
G36*
G01*
X45700500Y-106931750D02*
X45700500Y-107444250D01*
G75*
G02*
X45481750Y-107663000I-218750J0D01*
G01*
X45044250Y-107663000D01*
G75*
G02*
X44825500Y-107444250I0J218750D01*
G01*
X44825500Y-106931750D01*
G75*
G02*
X45044250Y-106713000I218750J0D01*
G01*
X45481750Y-106713000D01*
G75*
G02*
X45700500Y-106931750I0J-218750D01*
G01*
G37*
G36*
G01*
X44125500Y-106931750D02*
X44125500Y-107444250D01*
G75*
G02*
X43906750Y-107663000I-218750J0D01*
G01*
X43469250Y-107663000D01*
G75*
G02*
X43250500Y-107444250I0J218750D01*
G01*
X43250500Y-106931750D01*
G75*
G02*
X43469250Y-106713000I218750J0D01*
G01*
X43906750Y-106713000D01*
G75*
G02*
X44125500Y-106931750I0J-218750D01*
G01*
G37*
%TD*%
%TO.C,R100*%
G36*
G01*
X41269500Y-119763250D02*
X41269500Y-119250750D01*
G75*
G02*
X41488250Y-119032000I218750J0D01*
G01*
X41925750Y-119032000D01*
G75*
G02*
X42144500Y-119250750I0J-218750D01*
G01*
X42144500Y-119763250D01*
G75*
G02*
X41925750Y-119982000I-218750J0D01*
G01*
X41488250Y-119982000D01*
G75*
G02*
X41269500Y-119763250I0J218750D01*
G01*
G37*
G36*
G01*
X39694500Y-119763250D02*
X39694500Y-119250750D01*
G75*
G02*
X39913250Y-119032000I218750J0D01*
G01*
X40350750Y-119032000D01*
G75*
G02*
X40569500Y-119250750I0J-218750D01*
G01*
X40569500Y-119763250D01*
G75*
G02*
X40350750Y-119982000I-218750J0D01*
G01*
X39913250Y-119982000D01*
G75*
G02*
X39694500Y-119763250I0J218750D01*
G01*
G37*
%TD*%
%TO.C,R101*%
G36*
G01*
X43871500Y-121282750D02*
X43871500Y-121795250D01*
G75*
G02*
X43652750Y-122014000I-218750J0D01*
G01*
X43215250Y-122014000D01*
G75*
G02*
X42996500Y-121795250I0J218750D01*
G01*
X42996500Y-121282750D01*
G75*
G02*
X43215250Y-121064000I218750J0D01*
G01*
X43652750Y-121064000D01*
G75*
G02*
X43871500Y-121282750I0J-218750D01*
G01*
G37*
G36*
G01*
X42296500Y-121282750D02*
X42296500Y-121795250D01*
G75*
G02*
X42077750Y-122014000I-218750J0D01*
G01*
X41640250Y-122014000D01*
G75*
G02*
X41421500Y-121795250I0J218750D01*
G01*
X41421500Y-121282750D01*
G75*
G02*
X41640250Y-121064000I218750J0D01*
G01*
X42077750Y-121064000D01*
G75*
G02*
X42296500Y-121282750I0J-218750D01*
G01*
G37*
%TD*%
%TO.C,R102*%
G36*
G01*
X44074500Y-119250750D02*
X44074500Y-119763250D01*
G75*
G02*
X43855750Y-119982000I-218750J0D01*
G01*
X43418250Y-119982000D01*
G75*
G02*
X43199500Y-119763250I0J218750D01*
G01*
X43199500Y-119250750D01*
G75*
G02*
X43418250Y-119032000I218750J0D01*
G01*
X43855750Y-119032000D01*
G75*
G02*
X44074500Y-119250750I0J-218750D01*
G01*
G37*
G36*
G01*
X45649500Y-119250750D02*
X45649500Y-119763250D01*
G75*
G02*
X45430750Y-119982000I-218750J0D01*
G01*
X44993250Y-119982000D01*
G75*
G02*
X44774500Y-119763250I0J218750D01*
G01*
X44774500Y-119250750D01*
G75*
G02*
X44993250Y-119032000I218750J0D01*
G01*
X45430750Y-119032000D01*
G75*
G02*
X45649500Y-119250750I0J-218750D01*
G01*
G37*
%TD*%
%TO.C,R104*%
G36*
G01*
X39669000Y-132082250D02*
X39669000Y-131569750D01*
G75*
G02*
X39887750Y-131351000I218750J0D01*
G01*
X40325250Y-131351000D01*
G75*
G02*
X40544000Y-131569750I0J-218750D01*
G01*
X40544000Y-132082250D01*
G75*
G02*
X40325250Y-132301000I-218750J0D01*
G01*
X39887750Y-132301000D01*
G75*
G02*
X39669000Y-132082250I0J218750D01*
G01*
G37*
G36*
G01*
X41244000Y-132082250D02*
X41244000Y-131569750D01*
G75*
G02*
X41462750Y-131351000I218750J0D01*
G01*
X41900250Y-131351000D01*
G75*
G02*
X42119000Y-131569750I0J-218750D01*
G01*
X42119000Y-132082250D01*
G75*
G02*
X41900250Y-132301000I-218750J0D01*
G01*
X41462750Y-132301000D01*
G75*
G02*
X41244000Y-132082250I0J218750D01*
G01*
G37*
%TD*%
%TO.C,R105*%
G36*
G01*
X42296500Y-133601750D02*
X42296500Y-134114250D01*
G75*
G02*
X42077750Y-134333000I-218750J0D01*
G01*
X41640250Y-134333000D01*
G75*
G02*
X41421500Y-134114250I0J218750D01*
G01*
X41421500Y-133601750D01*
G75*
G02*
X41640250Y-133383000I218750J0D01*
G01*
X42077750Y-133383000D01*
G75*
G02*
X42296500Y-133601750I0J-218750D01*
G01*
G37*
G36*
G01*
X43871500Y-133601750D02*
X43871500Y-134114250D01*
G75*
G02*
X43652750Y-134333000I-218750J0D01*
G01*
X43215250Y-134333000D01*
G75*
G02*
X42996500Y-134114250I0J218750D01*
G01*
X42996500Y-133601750D01*
G75*
G02*
X43215250Y-133383000I218750J0D01*
G01*
X43652750Y-133383000D01*
G75*
G02*
X43871500Y-133601750I0J-218750D01*
G01*
G37*
%TD*%
%TO.C,R106*%
G36*
G01*
X45649500Y-131569750D02*
X45649500Y-132082250D01*
G75*
G02*
X45430750Y-132301000I-218750J0D01*
G01*
X44993250Y-132301000D01*
G75*
G02*
X44774500Y-132082250I0J218750D01*
G01*
X44774500Y-131569750D01*
G75*
G02*
X44993250Y-131351000I218750J0D01*
G01*
X45430750Y-131351000D01*
G75*
G02*
X45649500Y-131569750I0J-218750D01*
G01*
G37*
G36*
G01*
X44074500Y-131569750D02*
X44074500Y-132082250D01*
G75*
G02*
X43855750Y-132301000I-218750J0D01*
G01*
X43418250Y-132301000D01*
G75*
G02*
X43199500Y-132082250I0J218750D01*
G01*
X43199500Y-131569750D01*
G75*
G02*
X43418250Y-131351000I218750J0D01*
G01*
X43855750Y-131351000D01*
G75*
G02*
X44074500Y-131569750I0J-218750D01*
G01*
G37*
%TD*%
%TO.C,R107*%
G36*
G01*
X41269500Y-144401250D02*
X41269500Y-143888750D01*
G75*
G02*
X41488250Y-143670000I218750J0D01*
G01*
X41925750Y-143670000D01*
G75*
G02*
X42144500Y-143888750I0J-218750D01*
G01*
X42144500Y-144401250D01*
G75*
G02*
X41925750Y-144620000I-218750J0D01*
G01*
X41488250Y-144620000D01*
G75*
G02*
X41269500Y-144401250I0J218750D01*
G01*
G37*
G36*
G01*
X39694500Y-144401250D02*
X39694500Y-143888750D01*
G75*
G02*
X39913250Y-143670000I218750J0D01*
G01*
X40350750Y-143670000D01*
G75*
G02*
X40569500Y-143888750I0J-218750D01*
G01*
X40569500Y-144401250D01*
G75*
G02*
X40350750Y-144620000I-218750J0D01*
G01*
X39913250Y-144620000D01*
G75*
G02*
X39694500Y-144401250I0J218750D01*
G01*
G37*
%TD*%
%TO.C,R108*%
G36*
G01*
X43922500Y-145920750D02*
X43922500Y-146433250D01*
G75*
G02*
X43703750Y-146652000I-218750J0D01*
G01*
X43266250Y-146652000D01*
G75*
G02*
X43047500Y-146433250I0J218750D01*
G01*
X43047500Y-145920750D01*
G75*
G02*
X43266250Y-145702000I218750J0D01*
G01*
X43703750Y-145702000D01*
G75*
G02*
X43922500Y-145920750I0J-218750D01*
G01*
G37*
G36*
G01*
X42347500Y-145920750D02*
X42347500Y-146433250D01*
G75*
G02*
X42128750Y-146652000I-218750J0D01*
G01*
X41691250Y-146652000D01*
G75*
G02*
X41472500Y-146433250I0J218750D01*
G01*
X41472500Y-145920750D01*
G75*
G02*
X41691250Y-145702000I218750J0D01*
G01*
X42128750Y-145702000D01*
G75*
G02*
X42347500Y-145920750I0J-218750D01*
G01*
G37*
%TD*%
%TO.C,R109*%
G36*
G01*
X44100000Y-143888750D02*
X44100000Y-144401250D01*
G75*
G02*
X43881250Y-144620000I-218750J0D01*
G01*
X43443750Y-144620000D01*
G75*
G02*
X43225000Y-144401250I0J218750D01*
G01*
X43225000Y-143888750D01*
G75*
G02*
X43443750Y-143670000I218750J0D01*
G01*
X43881250Y-143670000D01*
G75*
G02*
X44100000Y-143888750I0J-218750D01*
G01*
G37*
G36*
G01*
X45675000Y-143888750D02*
X45675000Y-144401250D01*
G75*
G02*
X45456250Y-144620000I-218750J0D01*
G01*
X45018750Y-144620000D01*
G75*
G02*
X44800000Y-144401250I0J218750D01*
G01*
X44800000Y-143888750D01*
G75*
G02*
X45018750Y-143670000I218750J0D01*
G01*
X45456250Y-143670000D01*
G75*
G02*
X45675000Y-143888750I0J-218750D01*
G01*
G37*
%TD*%
%TO.C,R110*%
G36*
G01*
X39669000Y-156720250D02*
X39669000Y-156207750D01*
G75*
G02*
X39887750Y-155989000I218750J0D01*
G01*
X40325250Y-155989000D01*
G75*
G02*
X40544000Y-156207750I0J-218750D01*
G01*
X40544000Y-156720250D01*
G75*
G02*
X40325250Y-156939000I-218750J0D01*
G01*
X39887750Y-156939000D01*
G75*
G02*
X39669000Y-156720250I0J218750D01*
G01*
G37*
G36*
G01*
X41244000Y-156720250D02*
X41244000Y-156207750D01*
G75*
G02*
X41462750Y-155989000I218750J0D01*
G01*
X41900250Y-155989000D01*
G75*
G02*
X42119000Y-156207750I0J-218750D01*
G01*
X42119000Y-156720250D01*
G75*
G02*
X41900250Y-156939000I-218750J0D01*
G01*
X41462750Y-156939000D01*
G75*
G02*
X41244000Y-156720250I0J218750D01*
G01*
G37*
%TD*%
%TO.C,R112*%
G36*
G01*
X42347500Y-158239750D02*
X42347500Y-158752250D01*
G75*
G02*
X42128750Y-158971000I-218750J0D01*
G01*
X41691250Y-158971000D01*
G75*
G02*
X41472500Y-158752250I0J218750D01*
G01*
X41472500Y-158239750D01*
G75*
G02*
X41691250Y-158021000I218750J0D01*
G01*
X42128750Y-158021000D01*
G75*
G02*
X42347500Y-158239750I0J-218750D01*
G01*
G37*
G36*
G01*
X43922500Y-158239750D02*
X43922500Y-158752250D01*
G75*
G02*
X43703750Y-158971000I-218750J0D01*
G01*
X43266250Y-158971000D01*
G75*
G02*
X43047500Y-158752250I0J218750D01*
G01*
X43047500Y-158239750D01*
G75*
G02*
X43266250Y-158021000I218750J0D01*
G01*
X43703750Y-158021000D01*
G75*
G02*
X43922500Y-158239750I0J-218750D01*
G01*
G37*
%TD*%
%TO.C,R113*%
G36*
G01*
X45675000Y-156207750D02*
X45675000Y-156720250D01*
G75*
G02*
X45456250Y-156939000I-218750J0D01*
G01*
X45018750Y-156939000D01*
G75*
G02*
X44800000Y-156720250I0J218750D01*
G01*
X44800000Y-156207750D01*
G75*
G02*
X45018750Y-155989000I218750J0D01*
G01*
X45456250Y-155989000D01*
G75*
G02*
X45675000Y-156207750I0J-218750D01*
G01*
G37*
G36*
G01*
X44100000Y-156207750D02*
X44100000Y-156720250D01*
G75*
G02*
X43881250Y-156939000I-218750J0D01*
G01*
X43443750Y-156939000D01*
G75*
G02*
X43225000Y-156720250I0J218750D01*
G01*
X43225000Y-156207750D01*
G75*
G02*
X43443750Y-155989000I218750J0D01*
G01*
X43881250Y-155989000D01*
G75*
G02*
X44100000Y-156207750I0J-218750D01*
G01*
G37*
%TD*%
%TO.C,R114*%
G36*
G01*
X41244000Y-169039250D02*
X41244000Y-168526750D01*
G75*
G02*
X41462750Y-168308000I218750J0D01*
G01*
X41900250Y-168308000D01*
G75*
G02*
X42119000Y-168526750I0J-218750D01*
G01*
X42119000Y-169039250D01*
G75*
G02*
X41900250Y-169258000I-218750J0D01*
G01*
X41462750Y-169258000D01*
G75*
G02*
X41244000Y-169039250I0J218750D01*
G01*
G37*
G36*
G01*
X39669000Y-169039250D02*
X39669000Y-168526750D01*
G75*
G02*
X39887750Y-168308000I218750J0D01*
G01*
X40325250Y-168308000D01*
G75*
G02*
X40544000Y-168526750I0J-218750D01*
G01*
X40544000Y-169039250D01*
G75*
G02*
X40325250Y-169258000I-218750J0D01*
G01*
X39887750Y-169258000D01*
G75*
G02*
X39669000Y-169039250I0J218750D01*
G01*
G37*
%TD*%
%TO.C,R115*%
G36*
G01*
X43897000Y-170558750D02*
X43897000Y-171071250D01*
G75*
G02*
X43678250Y-171290000I-218750J0D01*
G01*
X43240750Y-171290000D01*
G75*
G02*
X43022000Y-171071250I0J218750D01*
G01*
X43022000Y-170558750D01*
G75*
G02*
X43240750Y-170340000I218750J0D01*
G01*
X43678250Y-170340000D01*
G75*
G02*
X43897000Y-170558750I0J-218750D01*
G01*
G37*
G36*
G01*
X42322000Y-170558750D02*
X42322000Y-171071250D01*
G75*
G02*
X42103250Y-171290000I-218750J0D01*
G01*
X41665750Y-171290000D01*
G75*
G02*
X41447000Y-171071250I0J218750D01*
G01*
X41447000Y-170558750D01*
G75*
G02*
X41665750Y-170340000I218750J0D01*
G01*
X42103250Y-170340000D01*
G75*
G02*
X42322000Y-170558750I0J-218750D01*
G01*
G37*
%TD*%
%TO.C,R116*%
G36*
G01*
X44100000Y-168526750D02*
X44100000Y-169039250D01*
G75*
G02*
X43881250Y-169258000I-218750J0D01*
G01*
X43443750Y-169258000D01*
G75*
G02*
X43225000Y-169039250I0J218750D01*
G01*
X43225000Y-168526750D01*
G75*
G02*
X43443750Y-168308000I218750J0D01*
G01*
X43881250Y-168308000D01*
G75*
G02*
X44100000Y-168526750I0J-218750D01*
G01*
G37*
G36*
G01*
X45675000Y-168526750D02*
X45675000Y-169039250D01*
G75*
G02*
X45456250Y-169258000I-218750J0D01*
G01*
X45018750Y-169258000D01*
G75*
G02*
X44800000Y-169039250I0J218750D01*
G01*
X44800000Y-168526750D01*
G75*
G02*
X45018750Y-168308000I218750J0D01*
G01*
X45456250Y-168308000D01*
G75*
G02*
X45675000Y-168526750I0J-218750D01*
G01*
G37*
%TD*%
%TO.C,Q1*%
X47530000Y-29911000D03*
X49530000Y-28961000D03*
X49530000Y-30861000D03*
%TD*%
%TO.C,Q2*%
X53705000Y-30922000D03*
X53705000Y-29022000D03*
X51705000Y-29972000D03*
%TD*%
%TO.C,R1*%
G36*
G01*
X39669000Y-31371250D02*
X39669000Y-30858750D01*
G75*
G02*
X39887750Y-30640000I218750J0D01*
G01*
X40325250Y-30640000D01*
G75*
G02*
X40544000Y-30858750I0J-218750D01*
G01*
X40544000Y-31371250D01*
G75*
G02*
X40325250Y-31590000I-218750J0D01*
G01*
X39887750Y-31590000D01*
G75*
G02*
X39669000Y-31371250I0J218750D01*
G01*
G37*
G36*
G01*
X41244000Y-31371250D02*
X41244000Y-30858750D01*
G75*
G02*
X41462750Y-30640000I218750J0D01*
G01*
X41900250Y-30640000D01*
G75*
G02*
X42119000Y-30858750I0J-218750D01*
G01*
X42119000Y-31371250D01*
G75*
G02*
X41900250Y-31590000I-218750J0D01*
G01*
X41462750Y-31590000D01*
G75*
G02*
X41244000Y-31371250I0J218750D01*
G01*
G37*
%TD*%
%TO.C,R3*%
G36*
G01*
X42322000Y-28826750D02*
X42322000Y-29339250D01*
G75*
G02*
X42103250Y-29558000I-218750J0D01*
G01*
X41665750Y-29558000D01*
G75*
G02*
X41447000Y-29339250I0J218750D01*
G01*
X41447000Y-28826750D01*
G75*
G02*
X41665750Y-28608000I218750J0D01*
G01*
X42103250Y-28608000D01*
G75*
G02*
X42322000Y-28826750I0J-218750D01*
G01*
G37*
G36*
G01*
X43897000Y-28826750D02*
X43897000Y-29339250D01*
G75*
G02*
X43678250Y-29558000I-218750J0D01*
G01*
X43240750Y-29558000D01*
G75*
G02*
X43022000Y-29339250I0J218750D01*
G01*
X43022000Y-28826750D01*
G75*
G02*
X43240750Y-28608000I218750J0D01*
G01*
X43678250Y-28608000D01*
G75*
G02*
X43897000Y-28826750I0J-218750D01*
G01*
G37*
%TD*%
%TO.C,R4*%
G36*
G01*
X45649500Y-30858750D02*
X45649500Y-31371250D01*
G75*
G02*
X45430750Y-31590000I-218750J0D01*
G01*
X44993250Y-31590000D01*
G75*
G02*
X44774500Y-31371250I0J218750D01*
G01*
X44774500Y-30858750D01*
G75*
G02*
X44993250Y-30640000I218750J0D01*
G01*
X45430750Y-30640000D01*
G75*
G02*
X45649500Y-30858750I0J-218750D01*
G01*
G37*
G36*
G01*
X44074500Y-30858750D02*
X44074500Y-31371250D01*
G75*
G02*
X43855750Y-31590000I-218750J0D01*
G01*
X43418250Y-31590000D01*
G75*
G02*
X43199500Y-31371250I0J218750D01*
G01*
X43199500Y-30858750D01*
G75*
G02*
X43418250Y-30640000I218750J0D01*
G01*
X43855750Y-30640000D01*
G75*
G02*
X44074500Y-30858750I0J-218750D01*
G01*
G37*
%TD*%
%TO.C,R77*%
G36*
G01*
X42322000Y-35049750D02*
X42322000Y-35562250D01*
G75*
G02*
X42103250Y-35781000I-218750J0D01*
G01*
X41665750Y-35781000D01*
G75*
G02*
X41447000Y-35562250I0J218750D01*
G01*
X41447000Y-35049750D01*
G75*
G02*
X41665750Y-34831000I218750J0D01*
G01*
X42103250Y-34831000D01*
G75*
G02*
X42322000Y-35049750I0J-218750D01*
G01*
G37*
G36*
G01*
X43897000Y-35049750D02*
X43897000Y-35562250D01*
G75*
G02*
X43678250Y-35781000I-218750J0D01*
G01*
X43240750Y-35781000D01*
G75*
G02*
X43022000Y-35562250I0J218750D01*
G01*
X43022000Y-35049750D01*
G75*
G02*
X43240750Y-34831000I218750J0D01*
G01*
X43678250Y-34831000D01*
G75*
G02*
X43897000Y-35049750I0J-218750D01*
G01*
G37*
%TD*%
%TO.C,R78*%
G36*
G01*
X45675000Y-33017750D02*
X45675000Y-33530250D01*
G75*
G02*
X45456250Y-33749000I-218750J0D01*
G01*
X45018750Y-33749000D01*
G75*
G02*
X44800000Y-33530250I0J218750D01*
G01*
X44800000Y-33017750D01*
G75*
G02*
X45018750Y-32799000I218750J0D01*
G01*
X45456250Y-32799000D01*
G75*
G02*
X45675000Y-33017750I0J-218750D01*
G01*
G37*
G36*
G01*
X44100000Y-33017750D02*
X44100000Y-33530250D01*
G75*
G02*
X43881250Y-33749000I-218750J0D01*
G01*
X43443750Y-33749000D01*
G75*
G02*
X43225000Y-33530250I0J218750D01*
G01*
X43225000Y-33017750D01*
G75*
G02*
X43443750Y-32799000I218750J0D01*
G01*
X43881250Y-32799000D01*
G75*
G02*
X44100000Y-33017750I0J-218750D01*
G01*
G37*
%TD*%
%TO.C,C1*%
G36*
G01*
X77044000Y-29715750D02*
X77044000Y-30228250D01*
G75*
G02*
X76825250Y-30447000I-218750J0D01*
G01*
X76387750Y-30447000D01*
G75*
G02*
X76169000Y-30228250I0J218750D01*
G01*
X76169000Y-29715750D01*
G75*
G02*
X76387750Y-29497000I218750J0D01*
G01*
X76825250Y-29497000D01*
G75*
G02*
X77044000Y-29715750I0J-218750D01*
G01*
G37*
G36*
G01*
X75469000Y-29715750D02*
X75469000Y-30228250D01*
G75*
G02*
X75250250Y-30447000I-218750J0D01*
G01*
X74812750Y-30447000D01*
G75*
G02*
X74594000Y-30228250I0J218750D01*
G01*
X74594000Y-29715750D01*
G75*
G02*
X74812750Y-29497000I218750J0D01*
G01*
X75250250Y-29497000D01*
G75*
G02*
X75469000Y-29715750I0J-218750D01*
G01*
G37*
%TD*%
%TO.C,Q3*%
X71374000Y-34290000D03*
X73374000Y-33340000D03*
X73374000Y-35240000D03*
%TD*%
%TO.C,Q4*%
X55896000Y-29845000D03*
X57896000Y-28895000D03*
X57896000Y-30795000D03*
%TD*%
%TO.C,Q5*%
X62087000Y-30922000D03*
X62087000Y-29022000D03*
X60087000Y-29972000D03*
%TD*%
%TO.C,Q6*%
X69056000Y-35240000D03*
X69056000Y-33340000D03*
X67056000Y-34290000D03*
%TD*%
%TO.C,Q73*%
X49514000Y-34290000D03*
X47514000Y-35240000D03*
X47514000Y-33340000D03*
%TD*%
%TO.C,Q74*%
X53705000Y-34290000D03*
X51705000Y-35240000D03*
X51705000Y-33340000D03*
%TD*%
%TO.C,Q75*%
X55912000Y-33340000D03*
X55912000Y-35240000D03*
X57912000Y-34290000D03*
%TD*%
%TO.C,Q76*%
X60087000Y-33340000D03*
X60087000Y-35240000D03*
X62087000Y-34290000D03*
%TD*%
%TO.C,R2*%
G36*
G01*
X67893250Y-29522000D02*
X66980750Y-29522000D01*
G75*
G02*
X66737000Y-29278250I0J243750D01*
G01*
X66737000Y-28790750D01*
G75*
G02*
X66980750Y-28547000I243750J0D01*
G01*
X67893250Y-28547000D01*
G75*
G02*
X68137000Y-28790750I0J-243750D01*
G01*
X68137000Y-29278250D01*
G75*
G02*
X67893250Y-29522000I-243750J0D01*
G01*
G37*
G36*
G01*
X67893250Y-31397000D02*
X66980750Y-31397000D01*
G75*
G02*
X66737000Y-31153250I0J243750D01*
G01*
X66737000Y-30665750D01*
G75*
G02*
X66980750Y-30422000I243750J0D01*
G01*
X67893250Y-30422000D01*
G75*
G02*
X68137000Y-30665750I0J-243750D01*
G01*
X68137000Y-31153250D01*
G75*
G02*
X67893250Y-31397000I-243750J0D01*
G01*
G37*
%TD*%
%TO.C,R5*%
G36*
G01*
X75194000Y-31630000D02*
X76444000Y-31630000D01*
G75*
G02*
X76694000Y-31880000I0J-250000D01*
G01*
X76694000Y-32630000D01*
G75*
G02*
X76444000Y-32880000I-250000J0D01*
G01*
X75194000Y-32880000D01*
G75*
G02*
X74944000Y-32630000I0J250000D01*
G01*
X74944000Y-31880000D01*
G75*
G02*
X75194000Y-31630000I250000J0D01*
G01*
G37*
G36*
G01*
X75194000Y-34430000D02*
X76444000Y-34430000D01*
G75*
G02*
X76694000Y-34680000I0J-250000D01*
G01*
X76694000Y-35430000D01*
G75*
G02*
X76444000Y-35680000I-250000J0D01*
G01*
X75194000Y-35680000D01*
G75*
G02*
X74944000Y-35430000I0J250000D01*
G01*
X74944000Y-34680000D01*
G75*
G02*
X75194000Y-34430000I250000J0D01*
G01*
G37*
%TD*%
%TO.C,R6*%
G36*
G01*
X69187000Y-31190250D02*
X69187000Y-30277750D01*
G75*
G02*
X69430750Y-30034000I243750J0D01*
G01*
X69918250Y-30034000D01*
G75*
G02*
X70162000Y-30277750I0J-243750D01*
G01*
X70162000Y-31190250D01*
G75*
G02*
X69918250Y-31434000I-243750J0D01*
G01*
X69430750Y-31434000D01*
G75*
G02*
X69187000Y-31190250I0J243750D01*
G01*
G37*
G36*
G01*
X71062000Y-31190250D02*
X71062000Y-30277750D01*
G75*
G02*
X71305750Y-30034000I243750J0D01*
G01*
X71793250Y-30034000D01*
G75*
G02*
X72037000Y-30277750I0J-243750D01*
G01*
X72037000Y-31190250D01*
G75*
G02*
X71793250Y-31434000I-243750J0D01*
G01*
X71305750Y-31434000D01*
G75*
G02*
X71062000Y-31190250I0J243750D01*
G01*
G37*
%TD*%
%TO.C,R79*%
G36*
G01*
X64966001Y-34747000D02*
X64065999Y-34747000D01*
G75*
G02*
X63816000Y-34497001I0J249999D01*
G01*
X63816000Y-33846999D01*
G75*
G02*
X64065999Y-33597000I249999J0D01*
G01*
X64966001Y-33597000D01*
G75*
G02*
X65216000Y-33846999I0J-249999D01*
G01*
X65216000Y-34497001D01*
G75*
G02*
X64966001Y-34747000I-249999J0D01*
G01*
G37*
G36*
G01*
X64966001Y-32697000D02*
X64065999Y-32697000D01*
G75*
G02*
X63816000Y-32447001I0J249999D01*
G01*
X63816000Y-31796999D01*
G75*
G02*
X64065999Y-31547000I249999J0D01*
G01*
X64966001Y-31547000D01*
G75*
G02*
X65216000Y-31796999I0J-249999D01*
G01*
X65216000Y-32447001D01*
G75*
G02*
X64966001Y-32697000I-249999J0D01*
G01*
G37*
%TD*%
%TO.C,C14*%
G36*
G01*
X114836000Y-171120750D02*
X114836000Y-172033250D01*
G75*
G02*
X114592250Y-172277000I-243750J0D01*
G01*
X114104750Y-172277000D01*
G75*
G02*
X113861000Y-172033250I0J243750D01*
G01*
X113861000Y-171120750D01*
G75*
G02*
X114104750Y-170877000I243750J0D01*
G01*
X114592250Y-170877000D01*
G75*
G02*
X114836000Y-171120750I0J-243750D01*
G01*
G37*
G36*
G01*
X112961000Y-171120750D02*
X112961000Y-172033250D01*
G75*
G02*
X112717250Y-172277000I-243750J0D01*
G01*
X112229750Y-172277000D01*
G75*
G02*
X111986000Y-172033250I0J243750D01*
G01*
X111986000Y-171120750D01*
G75*
G02*
X112229750Y-170877000I243750J0D01*
G01*
X112717250Y-170877000D01*
G75*
G02*
X112961000Y-171120750I0J-243750D01*
G01*
G37*
%TD*%
%TO.C,R117*%
G36*
G01*
X105723001Y-175990000D02*
X103572999Y-175990000D01*
G75*
G02*
X103323000Y-175740001I0J249999D01*
G01*
X103323000Y-174889999D01*
G75*
G02*
X103572999Y-174640000I249999J0D01*
G01*
X105723001Y-174640000D01*
G75*
G02*
X105973000Y-174889999I0J-249999D01*
G01*
X105973000Y-175740001D01*
G75*
G02*
X105723001Y-175990000I-249999J0D01*
G01*
G37*
G36*
G01*
X105723001Y-171490000D02*
X103572999Y-171490000D01*
G75*
G02*
X103323000Y-171240001I0J249999D01*
G01*
X103323000Y-170389999D01*
G75*
G02*
X103572999Y-170140000I249999J0D01*
G01*
X105723001Y-170140000D01*
G75*
G02*
X105973000Y-170389999I0J-249999D01*
G01*
X105973000Y-171240001D01*
G75*
G02*
X105723001Y-171490000I-249999J0D01*
G01*
G37*
%TD*%
%TO.C,C17*%
G36*
G01*
X117218750Y-33293500D02*
X117731250Y-33293500D01*
G75*
G02*
X117950000Y-33512250I0J-218750D01*
G01*
X117950000Y-33949750D01*
G75*
G02*
X117731250Y-34168500I-218750J0D01*
G01*
X117218750Y-34168500D01*
G75*
G02*
X117000000Y-33949750I0J218750D01*
G01*
X117000000Y-33512250D01*
G75*
G02*
X117218750Y-33293500I218750J0D01*
G01*
G37*
G36*
G01*
X117218750Y-34868500D02*
X117731250Y-34868500D01*
G75*
G02*
X117950000Y-35087250I0J-218750D01*
G01*
X117950000Y-35524750D01*
G75*
G02*
X117731250Y-35743500I-218750J0D01*
G01*
X117218750Y-35743500D01*
G75*
G02*
X117000000Y-35524750I0J218750D01*
G01*
X117000000Y-35087250D01*
G75*
G02*
X117218750Y-34868500I218750J0D01*
G01*
G37*
%TD*%
%TO.C,C18*%
G36*
G01*
X117218750Y-38831000D02*
X117731250Y-38831000D01*
G75*
G02*
X117950000Y-39049750I0J-218750D01*
G01*
X117950000Y-39487250D01*
G75*
G02*
X117731250Y-39706000I-218750J0D01*
G01*
X117218750Y-39706000D01*
G75*
G02*
X117000000Y-39487250I0J218750D01*
G01*
X117000000Y-39049750D01*
G75*
G02*
X117218750Y-38831000I218750J0D01*
G01*
G37*
G36*
G01*
X117218750Y-37256000D02*
X117731250Y-37256000D01*
G75*
G02*
X117950000Y-37474750I0J-218750D01*
G01*
X117950000Y-37912250D01*
G75*
G02*
X117731250Y-38131000I-218750J0D01*
G01*
X117218750Y-38131000D01*
G75*
G02*
X117000000Y-37912250I0J218750D01*
G01*
X117000000Y-37474750D01*
G75*
G02*
X117218750Y-37256000I218750J0D01*
G01*
G37*
%TD*%
%TO.C,VCC13*%
G36*
G01*
X119644000Y-34557000D02*
X120894000Y-34557000D01*
G75*
G02*
X121144000Y-34807000I0J-250000D01*
G01*
X121144000Y-35557000D01*
G75*
G02*
X120894000Y-35807000I-250000J0D01*
G01*
X119644000Y-35807000D01*
G75*
G02*
X119394000Y-35557000I0J250000D01*
G01*
X119394000Y-34807000D01*
G75*
G02*
X119644000Y-34557000I250000J0D01*
G01*
G37*
G36*
G01*
X119644000Y-31757000D02*
X120894000Y-31757000D01*
G75*
G02*
X121144000Y-32007000I0J-250000D01*
G01*
X121144000Y-32757000D01*
G75*
G02*
X120894000Y-33007000I-250000J0D01*
G01*
X119644000Y-33007000D01*
G75*
G02*
X119394000Y-32757000I0J250000D01*
G01*
X119394000Y-32007000D01*
G75*
G02*
X119644000Y-31757000I250000J0D01*
G01*
G37*
%TD*%
%TO.C,VCC14*%
G36*
G01*
X119644000Y-37221000D02*
X120894000Y-37221000D01*
G75*
G02*
X121144000Y-37471000I0J-250000D01*
G01*
X121144000Y-38221000D01*
G75*
G02*
X120894000Y-38471000I-250000J0D01*
G01*
X119644000Y-38471000D01*
G75*
G02*
X119394000Y-38221000I0J250000D01*
G01*
X119394000Y-37471000D01*
G75*
G02*
X119644000Y-37221000I250000J0D01*
G01*
G37*
G36*
G01*
X119644000Y-40021000D02*
X120894000Y-40021000D01*
G75*
G02*
X121144000Y-40271000I0J-250000D01*
G01*
X121144000Y-41021000D01*
G75*
G02*
X120894000Y-41271000I-250000J0D01*
G01*
X119644000Y-41271000D01*
G75*
G02*
X119394000Y-41021000I0J250000D01*
G01*
X119394000Y-40271000D01*
G75*
G02*
X119644000Y-40021000I250000J0D01*
G01*
G37*
%TD*%
%TO.C,VCC15*%
G36*
G01*
X93087000Y-150886000D02*
X93087000Y-152136000D01*
G75*
G02*
X92837000Y-152386000I-250000J0D01*
G01*
X92087000Y-152386000D01*
G75*
G02*
X91837000Y-152136000I0J250000D01*
G01*
X91837000Y-150886000D01*
G75*
G02*
X92087000Y-150636000I250000J0D01*
G01*
X92837000Y-150636000D01*
G75*
G02*
X93087000Y-150886000I0J-250000D01*
G01*
G37*
G36*
G01*
X90287000Y-150886000D02*
X90287000Y-152136000D01*
G75*
G02*
X90037000Y-152386000I-250000J0D01*
G01*
X89287000Y-152386000D01*
G75*
G02*
X89037000Y-152136000I0J250000D01*
G01*
X89037000Y-150886000D01*
G75*
G02*
X89287000Y-150636000I250000J0D01*
G01*
X90037000Y-150636000D01*
G75*
G02*
X90287000Y-150886000I0J-250000D01*
G01*
G37*
%TD*%
%TO.C,VCC16*%
G36*
G01*
X94752000Y-160290000D02*
X96002000Y-160290000D01*
G75*
G02*
X96252000Y-160540000I0J-250000D01*
G01*
X96252000Y-161290000D01*
G75*
G02*
X96002000Y-161540000I-250000J0D01*
G01*
X94752000Y-161540000D01*
G75*
G02*
X94502000Y-161290000I0J250000D01*
G01*
X94502000Y-160540000D01*
G75*
G02*
X94752000Y-160290000I250000J0D01*
G01*
G37*
G36*
G01*
X94752000Y-157490000D02*
X96002000Y-157490000D01*
G75*
G02*
X96252000Y-157740000I0J-250000D01*
G01*
X96252000Y-158490000D01*
G75*
G02*
X96002000Y-158740000I-250000J0D01*
G01*
X94752000Y-158740000D01*
G75*
G02*
X94502000Y-158490000I0J250000D01*
G01*
X94502000Y-157740000D01*
G75*
G02*
X94752000Y-157490000I250000J0D01*
G01*
G37*
%TD*%
%TO.C,R76*%
G36*
G01*
X39669000Y-33530250D02*
X39669000Y-33017750D01*
G75*
G02*
X39887750Y-32799000I218750J0D01*
G01*
X40325250Y-32799000D01*
G75*
G02*
X40544000Y-33017750I0J-218750D01*
G01*
X40544000Y-33530250D01*
G75*
G02*
X40325250Y-33749000I-218750J0D01*
G01*
X39887750Y-33749000D01*
G75*
G02*
X39669000Y-33530250I0J218750D01*
G01*
G37*
G36*
G01*
X41244000Y-33530250D02*
X41244000Y-33017750D01*
G75*
G02*
X41462750Y-32799000I218750J0D01*
G01*
X41900250Y-32799000D01*
G75*
G02*
X42119000Y-33017750I0J-218750D01*
G01*
X42119000Y-33530250D01*
G75*
G02*
X41900250Y-33749000I-218750J0D01*
G01*
X41462750Y-33749000D01*
G75*
G02*
X41244000Y-33530250I0J218750D01*
G01*
G37*
%TD*%
%TO.C,C19*%
G36*
G01*
X104269250Y-72599000D02*
X103756750Y-72599000D01*
G75*
G02*
X103538000Y-72380250I0J218750D01*
G01*
X103538000Y-71942750D01*
G75*
G02*
X103756750Y-71724000I218750J0D01*
G01*
X104269250Y-71724000D01*
G75*
G02*
X104488000Y-71942750I0J-218750D01*
G01*
X104488000Y-72380250D01*
G75*
G02*
X104269250Y-72599000I-218750J0D01*
G01*
G37*
G36*
G01*
X104269250Y-71024000D02*
X103756750Y-71024000D01*
G75*
G02*
X103538000Y-70805250I0J218750D01*
G01*
X103538000Y-70367750D01*
G75*
G02*
X103756750Y-70149000I218750J0D01*
G01*
X104269250Y-70149000D01*
G75*
G02*
X104488000Y-70367750I0J-218750D01*
G01*
X104488000Y-70805250D01*
G75*
G02*
X104269250Y-71024000I-218750J0D01*
G01*
G37*
%TD*%
%TO.C,C20*%
G36*
G01*
X103756750Y-67761500D02*
X104269250Y-67761500D01*
G75*
G02*
X104488000Y-67980250I0J-218750D01*
G01*
X104488000Y-68417750D01*
G75*
G02*
X104269250Y-68636500I-218750J0D01*
G01*
X103756750Y-68636500D01*
G75*
G02*
X103538000Y-68417750I0J218750D01*
G01*
X103538000Y-67980250D01*
G75*
G02*
X103756750Y-67761500I218750J0D01*
G01*
G37*
G36*
G01*
X103756750Y-66186500D02*
X104269250Y-66186500D01*
G75*
G02*
X104488000Y-66405250I0J-218750D01*
G01*
X104488000Y-66842750D01*
G75*
G02*
X104269250Y-67061500I-218750J0D01*
G01*
X103756750Y-67061500D01*
G75*
G02*
X103538000Y-66842750I0J218750D01*
G01*
X103538000Y-66405250D01*
G75*
G02*
X103756750Y-66186500I218750J0D01*
G01*
G37*
%TD*%
%TO.C,C21*%
G36*
G01*
X118039500Y-65148750D02*
X118039500Y-65661250D01*
G75*
G02*
X117820750Y-65880000I-218750J0D01*
G01*
X117383250Y-65880000D01*
G75*
G02*
X117164500Y-65661250I0J218750D01*
G01*
X117164500Y-65148750D01*
G75*
G02*
X117383250Y-64930000I218750J0D01*
G01*
X117820750Y-64930000D01*
G75*
G02*
X118039500Y-65148750I0J-218750D01*
G01*
G37*
G36*
G01*
X116464500Y-65148750D02*
X116464500Y-65661250D01*
G75*
G02*
X116245750Y-65880000I-218750J0D01*
G01*
X115808250Y-65880000D01*
G75*
G02*
X115589500Y-65661250I0J218750D01*
G01*
X115589500Y-65148750D01*
G75*
G02*
X115808250Y-64930000I218750J0D01*
G01*
X116245750Y-64930000D01*
G75*
G02*
X116464500Y-65148750I0J-218750D01*
G01*
G37*
%TD*%
%TO.C,C22*%
G36*
G01*
X107585000Y-27295000D02*
X107585000Y-26045000D01*
G75*
G02*
X107835000Y-25795000I250000J0D01*
G01*
X108585000Y-25795000D01*
G75*
G02*
X108835000Y-26045000I0J-250000D01*
G01*
X108835000Y-27295000D01*
G75*
G02*
X108585000Y-27545000I-250000J0D01*
G01*
X107835000Y-27545000D01*
G75*
G02*
X107585000Y-27295000I0J250000D01*
G01*
G37*
G36*
G01*
X104785000Y-27295000D02*
X104785000Y-26045000D01*
G75*
G02*
X105035000Y-25795000I250000J0D01*
G01*
X105785000Y-25795000D01*
G75*
G02*
X106035000Y-26045000I0J-250000D01*
G01*
X106035000Y-27295000D01*
G75*
G02*
X105785000Y-27545000I-250000J0D01*
G01*
X105035000Y-27545000D01*
G75*
G02*
X104785000Y-27295000I0J250000D01*
G01*
G37*
%TD*%
%TO.C,C23*%
G36*
G01*
X104144000Y-30597000D02*
X104144000Y-29347000D01*
G75*
G02*
X104394000Y-29097000I250000J0D01*
G01*
X105144000Y-29097000D01*
G75*
G02*
X105394000Y-29347000I0J-250000D01*
G01*
X105394000Y-30597000D01*
G75*
G02*
X105144000Y-30847000I-250000J0D01*
G01*
X104394000Y-30847000D01*
G75*
G02*
X104144000Y-30597000I0J250000D01*
G01*
G37*
G36*
G01*
X106944000Y-30597000D02*
X106944000Y-29347000D01*
G75*
G02*
X107194000Y-29097000I250000J0D01*
G01*
X107944000Y-29097000D01*
G75*
G02*
X108194000Y-29347000I0J-250000D01*
G01*
X108194000Y-30597000D01*
G75*
G02*
X107944000Y-30847000I-250000J0D01*
G01*
X107194000Y-30847000D01*
G75*
G02*
X106944000Y-30597000I0J250000D01*
G01*
G37*
%TD*%
%TO.C,R118*%
G36*
G01*
X98855000Y-72828999D02*
X98855000Y-73729001D01*
G75*
G02*
X98605001Y-73979000I-249999J0D01*
G01*
X97954999Y-73979000D01*
G75*
G02*
X97705000Y-73729001I0J249999D01*
G01*
X97705000Y-72828999D01*
G75*
G02*
X97954999Y-72579000I249999J0D01*
G01*
X98605001Y-72579000D01*
G75*
G02*
X98855000Y-72828999I0J-249999D01*
G01*
G37*
G36*
G01*
X100905000Y-72828999D02*
X100905000Y-73729001D01*
G75*
G02*
X100655001Y-73979000I-249999J0D01*
G01*
X100004999Y-73979000D01*
G75*
G02*
X99755000Y-73729001I0J249999D01*
G01*
X99755000Y-72828999D01*
G75*
G02*
X100004999Y-72579000I249999J0D01*
G01*
X100655001Y-72579000D01*
G75*
G02*
X100905000Y-72828999I0J-249999D01*
G01*
G37*
%TD*%
%TO.C,R120*%
G36*
G01*
X100914000Y-69907999D02*
X100914000Y-70808001D01*
G75*
G02*
X100664001Y-71058000I-249999J0D01*
G01*
X100013999Y-71058000D01*
G75*
G02*
X99764000Y-70808001I0J249999D01*
G01*
X99764000Y-69907999D01*
G75*
G02*
X100013999Y-69658000I249999J0D01*
G01*
X100664001Y-69658000D01*
G75*
G02*
X100914000Y-69907999I0J-249999D01*
G01*
G37*
G36*
G01*
X98864000Y-69907999D02*
X98864000Y-70808001D01*
G75*
G02*
X98614001Y-71058000I-249999J0D01*
G01*
X97963999Y-71058000D01*
G75*
G02*
X97714000Y-70808001I0J249999D01*
G01*
X97714000Y-69907999D01*
G75*
G02*
X97963999Y-69658000I249999J0D01*
G01*
X98614001Y-69658000D01*
G75*
G02*
X98864000Y-69907999I0J-249999D01*
G01*
G37*
%TD*%
%TO.C,R121*%
G36*
G01*
X120144250Y-66096500D02*
X119631750Y-66096500D01*
G75*
G02*
X119413000Y-65877750I0J218750D01*
G01*
X119413000Y-65440250D01*
G75*
G02*
X119631750Y-65221500I218750J0D01*
G01*
X120144250Y-65221500D01*
G75*
G02*
X120363000Y-65440250I0J-218750D01*
G01*
X120363000Y-65877750D01*
G75*
G02*
X120144250Y-66096500I-218750J0D01*
G01*
G37*
G36*
G01*
X120144250Y-64521500D02*
X119631750Y-64521500D01*
G75*
G02*
X119413000Y-64302750I0J218750D01*
G01*
X119413000Y-63865250D01*
G75*
G02*
X119631750Y-63646500I218750J0D01*
G01*
X120144250Y-63646500D01*
G75*
G02*
X120363000Y-63865250I0J-218750D01*
G01*
X120363000Y-64302750D01*
G75*
G02*
X120144250Y-64521500I-218750J0D01*
G01*
G37*
%TD*%
%TO.C,R122*%
G36*
G01*
X108427000Y-51945250D02*
X108427000Y-51432750D01*
G75*
G02*
X108645750Y-51214000I218750J0D01*
G01*
X109083250Y-51214000D01*
G75*
G02*
X109302000Y-51432750I0J-218750D01*
G01*
X109302000Y-51945250D01*
G75*
G02*
X109083250Y-52164000I-218750J0D01*
G01*
X108645750Y-52164000D01*
G75*
G02*
X108427000Y-51945250I0J218750D01*
G01*
G37*
G36*
G01*
X106852000Y-51945250D02*
X106852000Y-51432750D01*
G75*
G02*
X107070750Y-51214000I218750J0D01*
G01*
X107508250Y-51214000D01*
G75*
G02*
X107727000Y-51432750I0J-218750D01*
G01*
X107727000Y-51945250D01*
G75*
G02*
X107508250Y-52164000I-218750J0D01*
G01*
X107070750Y-52164000D01*
G75*
G02*
X106852000Y-51945250I0J218750D01*
G01*
G37*
%TD*%
%TO.C,R123*%
G36*
G01*
X118011000Y-62281750D02*
X118011000Y-63194250D01*
G75*
G02*
X117767250Y-63438000I-243750J0D01*
G01*
X117279750Y-63438000D01*
G75*
G02*
X117036000Y-63194250I0J243750D01*
G01*
X117036000Y-62281750D01*
G75*
G02*
X117279750Y-62038000I243750J0D01*
G01*
X117767250Y-62038000D01*
G75*
G02*
X118011000Y-62281750I0J-243750D01*
G01*
G37*
G36*
G01*
X116136000Y-62281750D02*
X116136000Y-63194250D01*
G75*
G02*
X115892250Y-63438000I-243750J0D01*
G01*
X115404750Y-63438000D01*
G75*
G02*
X115161000Y-63194250I0J243750D01*
G01*
X115161000Y-62281750D01*
G75*
G02*
X115404750Y-62038000I243750J0D01*
G01*
X115892250Y-62038000D01*
G75*
G02*
X116136000Y-62281750I0J-243750D01*
G01*
G37*
%TD*%
%TO.C,R124*%
G36*
G01*
X95252250Y-30638000D02*
X94739750Y-30638000D01*
G75*
G02*
X94521000Y-30419250I0J218750D01*
G01*
X94521000Y-29981750D01*
G75*
G02*
X94739750Y-29763000I218750J0D01*
G01*
X95252250Y-29763000D01*
G75*
G02*
X95471000Y-29981750I0J-218750D01*
G01*
X95471000Y-30419250D01*
G75*
G02*
X95252250Y-30638000I-218750J0D01*
G01*
G37*
G36*
G01*
X95252250Y-32213000D02*
X94739750Y-32213000D01*
G75*
G02*
X94521000Y-31994250I0J218750D01*
G01*
X94521000Y-31556750D01*
G75*
G02*
X94739750Y-31338000I218750J0D01*
G01*
X95252250Y-31338000D01*
G75*
G02*
X95471000Y-31556750I0J-218750D01*
G01*
X95471000Y-31994250D01*
G75*
G02*
X95252250Y-32213000I-218750J0D01*
G01*
G37*
%TD*%
%TO.C,R125*%
G36*
G01*
X92966250Y-30663500D02*
X92453750Y-30663500D01*
G75*
G02*
X92235000Y-30444750I0J218750D01*
G01*
X92235000Y-30007250D01*
G75*
G02*
X92453750Y-29788500I218750J0D01*
G01*
X92966250Y-29788500D01*
G75*
G02*
X93185000Y-30007250I0J-218750D01*
G01*
X93185000Y-30444750D01*
G75*
G02*
X92966250Y-30663500I-218750J0D01*
G01*
G37*
G36*
G01*
X92966250Y-32238500D02*
X92453750Y-32238500D01*
G75*
G02*
X92235000Y-32019750I0J218750D01*
G01*
X92235000Y-31582250D01*
G75*
G02*
X92453750Y-31363500I218750J0D01*
G01*
X92966250Y-31363500D01*
G75*
G02*
X93185000Y-31582250I0J-218750D01*
G01*
X93185000Y-32019750D01*
G75*
G02*
X92966250Y-32238500I-218750J0D01*
G01*
G37*
%TD*%
%TO.C,R126*%
G36*
G01*
X97538250Y-32238500D02*
X97025750Y-32238500D01*
G75*
G02*
X96807000Y-32019750I0J218750D01*
G01*
X96807000Y-31582250D01*
G75*
G02*
X97025750Y-31363500I218750J0D01*
G01*
X97538250Y-31363500D01*
G75*
G02*
X97757000Y-31582250I0J-218750D01*
G01*
X97757000Y-32019750D01*
G75*
G02*
X97538250Y-32238500I-218750J0D01*
G01*
G37*
G36*
G01*
X97538250Y-30663500D02*
X97025750Y-30663500D01*
G75*
G02*
X96807000Y-30444750I0J218750D01*
G01*
X96807000Y-30007250D01*
G75*
G02*
X97025750Y-29788500I218750J0D01*
G01*
X97538250Y-29788500D01*
G75*
G02*
X97757000Y-30007250I0J-218750D01*
G01*
X97757000Y-30444750D01*
G75*
G02*
X97538250Y-30663500I-218750J0D01*
G01*
G37*
%TD*%
%TO.C,R128*%
G36*
G01*
X95887250Y-34803500D02*
X95374750Y-34803500D01*
G75*
G02*
X95156000Y-34584750I0J218750D01*
G01*
X95156000Y-34147250D01*
G75*
G02*
X95374750Y-33928500I218750J0D01*
G01*
X95887250Y-33928500D01*
G75*
G02*
X96106000Y-34147250I0J-218750D01*
G01*
X96106000Y-34584750D01*
G75*
G02*
X95887250Y-34803500I-218750J0D01*
G01*
G37*
G36*
G01*
X95887250Y-36378500D02*
X95374750Y-36378500D01*
G75*
G02*
X95156000Y-36159750I0J218750D01*
G01*
X95156000Y-35722250D01*
G75*
G02*
X95374750Y-35503500I218750J0D01*
G01*
X95887250Y-35503500D01*
G75*
G02*
X96106000Y-35722250I0J-218750D01*
G01*
X96106000Y-36159750D01*
G75*
G02*
X95887250Y-36378500I-218750J0D01*
G01*
G37*
%TD*%
%TO.C,R129*%
G36*
G01*
X91315250Y-36404000D02*
X90802750Y-36404000D01*
G75*
G02*
X90584000Y-36185250I0J218750D01*
G01*
X90584000Y-35747750D01*
G75*
G02*
X90802750Y-35529000I218750J0D01*
G01*
X91315250Y-35529000D01*
G75*
G02*
X91534000Y-35747750I0J-218750D01*
G01*
X91534000Y-36185250D01*
G75*
G02*
X91315250Y-36404000I-218750J0D01*
G01*
G37*
G36*
G01*
X91315250Y-34829000D02*
X90802750Y-34829000D01*
G75*
G02*
X90584000Y-34610250I0J218750D01*
G01*
X90584000Y-34172750D01*
G75*
G02*
X90802750Y-33954000I218750J0D01*
G01*
X91315250Y-33954000D01*
G75*
G02*
X91534000Y-34172750I0J-218750D01*
G01*
X91534000Y-34610250D01*
G75*
G02*
X91315250Y-34829000I-218750J0D01*
G01*
G37*
%TD*%
%TO.C,R130*%
G36*
G01*
X93601250Y-36404000D02*
X93088750Y-36404000D01*
G75*
G02*
X92870000Y-36185250I0J218750D01*
G01*
X92870000Y-35747750D01*
G75*
G02*
X93088750Y-35529000I218750J0D01*
G01*
X93601250Y-35529000D01*
G75*
G02*
X93820000Y-35747750I0J-218750D01*
G01*
X93820000Y-36185250D01*
G75*
G02*
X93601250Y-36404000I-218750J0D01*
G01*
G37*
G36*
G01*
X93601250Y-34829000D02*
X93088750Y-34829000D01*
G75*
G02*
X92870000Y-34610250I0J218750D01*
G01*
X92870000Y-34172750D01*
G75*
G02*
X93088750Y-33954000I218750J0D01*
G01*
X93601250Y-33954000D01*
G75*
G02*
X93820000Y-34172750I0J-218750D01*
G01*
X93820000Y-34610250D01*
G75*
G02*
X93601250Y-34829000I-218750J0D01*
G01*
G37*
%TD*%
%TO.C,U3*%
G36*
G01*
X119611000Y-67732000D02*
X119911000Y-67732000D01*
G75*
G02*
X120061000Y-67882000I0J-150000D01*
G01*
X120061000Y-69532000D01*
G75*
G02*
X119911000Y-69682000I-150000J0D01*
G01*
X119611000Y-69682000D01*
G75*
G02*
X119461000Y-69532000I0J150000D01*
G01*
X119461000Y-67882000D01*
G75*
G02*
X119611000Y-67732000I150000J0D01*
G01*
G37*
G36*
G01*
X118341000Y-67732000D02*
X118641000Y-67732000D01*
G75*
G02*
X118791000Y-67882000I0J-150000D01*
G01*
X118791000Y-69532000D01*
G75*
G02*
X118641000Y-69682000I-150000J0D01*
G01*
X118341000Y-69682000D01*
G75*
G02*
X118191000Y-69532000I0J150000D01*
G01*
X118191000Y-67882000D01*
G75*
G02*
X118341000Y-67732000I150000J0D01*
G01*
G37*
G36*
G01*
X117071000Y-67732000D02*
X117371000Y-67732000D01*
G75*
G02*
X117521000Y-67882000I0J-150000D01*
G01*
X117521000Y-69532000D01*
G75*
G02*
X117371000Y-69682000I-150000J0D01*
G01*
X117071000Y-69682000D01*
G75*
G02*
X116921000Y-69532000I0J150000D01*
G01*
X116921000Y-67882000D01*
G75*
G02*
X117071000Y-67732000I150000J0D01*
G01*
G37*
G36*
G01*
X115801000Y-67732000D02*
X116101000Y-67732000D01*
G75*
G02*
X116251000Y-67882000I0J-150000D01*
G01*
X116251000Y-69532000D01*
G75*
G02*
X116101000Y-69682000I-150000J0D01*
G01*
X115801000Y-69682000D01*
G75*
G02*
X115651000Y-69532000I0J150000D01*
G01*
X115651000Y-67882000D01*
G75*
G02*
X115801000Y-67732000I150000J0D01*
G01*
G37*
G36*
G01*
X115801000Y-72682000D02*
X116101000Y-72682000D01*
G75*
G02*
X116251000Y-72832000I0J-150000D01*
G01*
X116251000Y-74482000D01*
G75*
G02*
X116101000Y-74632000I-150000J0D01*
G01*
X115801000Y-74632000D01*
G75*
G02*
X115651000Y-74482000I0J150000D01*
G01*
X115651000Y-72832000D01*
G75*
G02*
X115801000Y-72682000I150000J0D01*
G01*
G37*
G36*
G01*
X117071000Y-72682000D02*
X117371000Y-72682000D01*
G75*
G02*
X117521000Y-72832000I0J-150000D01*
G01*
X117521000Y-74482000D01*
G75*
G02*
X117371000Y-74632000I-150000J0D01*
G01*
X117071000Y-74632000D01*
G75*
G02*
X116921000Y-74482000I0J150000D01*
G01*
X116921000Y-72832000D01*
G75*
G02*
X117071000Y-72682000I150000J0D01*
G01*
G37*
G36*
G01*
X118341000Y-72682000D02*
X118641000Y-72682000D01*
G75*
G02*
X118791000Y-72832000I0J-150000D01*
G01*
X118791000Y-74482000D01*
G75*
G02*
X118641000Y-74632000I-150000J0D01*
G01*
X118341000Y-74632000D01*
G75*
G02*
X118191000Y-74482000I0J150000D01*
G01*
X118191000Y-72832000D01*
G75*
G02*
X118341000Y-72682000I150000J0D01*
G01*
G37*
G36*
G01*
X119611000Y-72682000D02*
X119911000Y-72682000D01*
G75*
G02*
X120061000Y-72832000I0J-150000D01*
G01*
X120061000Y-74482000D01*
G75*
G02*
X119911000Y-74632000I-150000J0D01*
G01*
X119611000Y-74632000D01*
G75*
G02*
X119461000Y-74482000I0J150000D01*
G01*
X119461000Y-72832000D01*
G75*
G02*
X119611000Y-72682000I150000J0D01*
G01*
G37*
%TD*%
M02*
