%TF.GenerationSoftware,KiCad,Pcbnew,5.1.6-c6e7f7d~87~ubuntu18.04.1*%
%TF.CreationDate,2021-04-09T12:13:12+12:00*%
%TF.ProjectId,Volume Control 3 Mar18,566f6c75-6d65-4204-936f-6e74726f6c20,rev?*%
%TF.SameCoordinates,Original*%
%TF.FileFunction,Soldermask,Bot*%
%TF.FilePolarity,Negative*%
%FSLAX46Y46*%
G04 Gerber Fmt 4.6, Leading zero omitted, Abs format (unit mm)*
G04 Created by KiCad (PCBNEW 5.1.6-c6e7f7d~87~ubuntu18.04.1) date 2021-04-09 12:13:12*
%MOMM*%
%LPD*%
G01*
G04 APERTURE LIST*
%ADD10C,2.700000*%
%ADD11R,1.700000X1.700000*%
%ADD12O,1.700000X1.700000*%
%ADD13O,1.800000X1.800000*%
%ADD14R,1.800000X1.800000*%
%ADD15O,1.840000X2.290000*%
G04 APERTURE END LIST*
D10*
%TO.C,VCJ3*%
X125044200Y-131927600D03*
%TD*%
%TO.C,VCJ1*%
X125857000Y-113487200D03*
%TD*%
D11*
%TO.C,A1*%
X85090000Y-31496000D03*
D12*
X100330000Y-64516000D03*
X85090000Y-34036000D03*
X100330000Y-61976000D03*
X85090000Y-36576000D03*
X100330000Y-59436000D03*
X85090000Y-39116000D03*
X100330000Y-56896000D03*
X85090000Y-41656000D03*
X100330000Y-54356000D03*
X85090000Y-44196000D03*
X100330000Y-51816000D03*
X85090000Y-46736000D03*
X100330000Y-49276000D03*
X85090000Y-49276000D03*
X100330000Y-46736000D03*
X85090000Y-51816000D03*
X100330000Y-44196000D03*
X85090000Y-54356000D03*
X100330000Y-41656000D03*
X85090000Y-56896000D03*
X100330000Y-39116000D03*
X85090000Y-59436000D03*
X100330000Y-36576000D03*
X85090000Y-61976000D03*
X100330000Y-34036000D03*
X85090000Y-64516000D03*
X100330000Y-31496000D03*
X85090000Y-67056000D03*
X100330000Y-67056000D03*
%TD*%
D10*
%TO.C,J16*%
X119380000Y-177165000D03*
%TD*%
%TO.C,J17*%
X109220000Y-177292000D03*
%TD*%
%TO.C,J4*%
X112776000Y-41656000D03*
%TD*%
%TO.C,J5*%
X114046000Y-27559000D03*
%TD*%
%TO.C,J6*%
X123444000Y-27432000D03*
%TD*%
%TO.C,J8*%
X109220000Y-168783000D03*
%TD*%
%TO.C,J9*%
X119380000Y-168656000D03*
%TD*%
D13*
%TO.C,J7*%
X107569000Y-71120000D03*
X107569000Y-68580000D03*
X107569000Y-66040000D03*
D14*
X107569000Y-63500000D03*
%TD*%
D13*
%TO.C,J13*%
X105156000Y-41529000D03*
D14*
X107696000Y-41529000D03*
%TD*%
%TO.C,J14*%
X104902000Y-34036000D03*
D13*
X104902000Y-36576000D03*
%TD*%
%TO.C,J1*%
G36*
G01*
X113126000Y-58538633D02*
X113126000Y-56777367D01*
G75*
G02*
X113390367Y-56513000I264367J0D01*
G01*
X114701633Y-56513000D01*
G75*
G02*
X114966000Y-56777367I0J-264367D01*
G01*
X114966000Y-58538633D01*
G75*
G02*
X114701633Y-58803000I-264367J0D01*
G01*
X113390367Y-58803000D01*
G75*
G02*
X113126000Y-58538633I0J264367D01*
G01*
G37*
D15*
X116586000Y-57658000D03*
X119126000Y-57658000D03*
%TD*%
D14*
%TO.C,J2*%
X116713000Y-51308000D03*
D13*
X114173000Y-51308000D03*
%TD*%
D14*
%TO.C,J3*%
X112649000Y-46482000D03*
D13*
X110109000Y-46482000D03*
X107569000Y-46482000D03*
X105029000Y-46482000D03*
%TD*%
M02*
