%TF.GenerationSoftware,KiCad,Pcbnew,5.1.6-c6e7f7d~87~ubuntu18.04.1*%
%TF.CreationDate,2021-10-28T16:13:36+13:00*%
%TF.ProjectId,Trimodal SMD Sep20,5472696d-6f64-4616-9c20-534d44205365,rev?*%
%TF.SameCoordinates,Original*%
%TF.FileFunction,Copper,L1,Top*%
%TF.FilePolarity,Positive*%
%FSLAX46Y46*%
G04 Gerber Fmt 4.6, Leading zero omitted, Abs format (unit mm)*
G04 Created by KiCad (PCBNEW 5.1.6-c6e7f7d~87~ubuntu18.04.1) date 2021-10-28 16:13:36*
%MOMM*%
%LPD*%
G01*
G04 APERTURE LIST*
%TA.AperFunction,ComponentPad*%
%ADD10R,2.400000X2.400000*%
%TD*%
%TA.AperFunction,ComponentPad*%
%ADD11C,2.400000*%
%TD*%
%TA.AperFunction,SMDPad,CuDef*%
%ADD12R,0.900000X1.200000*%
%TD*%
%TA.AperFunction,SMDPad,CuDef*%
%ADD13R,1.200000X0.900000*%
%TD*%
%TA.AperFunction,ComponentPad*%
%ADD14C,3.000000*%
%TD*%
%TA.AperFunction,ComponentPad*%
%ADD15C,6.000000*%
%TD*%
%TA.AperFunction,ComponentPad*%
%ADD16C,2.600000*%
%TD*%
%TA.AperFunction,ComponentPad*%
%ADD17C,4.400000*%
%TD*%
%TA.AperFunction,ComponentPad*%
%ADD18C,2.340000*%
%TD*%
%TA.AperFunction,SMDPad,CuDef*%
%ADD19R,1.300000X0.900000*%
%TD*%
%TA.AperFunction,SMDPad,CuDef*%
%ADD20C,0.100000*%
%TD*%
%TA.AperFunction,SMDPad,CuDef*%
%ADD21R,0.800000X0.900000*%
%TD*%
%TA.AperFunction,SMDPad,CuDef*%
%ADD22R,0.900000X1.300000*%
%TD*%
%TA.AperFunction,ComponentPad*%
%ADD23R,1.800000X1.800000*%
%TD*%
%TA.AperFunction,ComponentPad*%
%ADD24O,1.800000X1.800000*%
%TD*%
%TA.AperFunction,ComponentPad*%
%ADD25R,4.500000X2.500000*%
%TD*%
%TA.AperFunction,ComponentPad*%
%ADD26O,4.500000X2.500000*%
%TD*%
%TA.AperFunction,ViaPad*%
%ADD27C,4.000000*%
%TD*%
%TA.AperFunction,ViaPad*%
%ADD28C,2.000000*%
%TD*%
%TA.AperFunction,ViaPad*%
%ADD29C,3.000000*%
%TD*%
%TA.AperFunction,Conductor*%
%ADD30C,1.600000*%
%TD*%
%TA.AperFunction,Conductor*%
%ADD31C,1.000000*%
%TD*%
%TA.AperFunction,Conductor*%
%ADD32C,2.000000*%
%TD*%
%TA.AperFunction,Conductor*%
%ADD33C,3.000000*%
%TD*%
%TA.AperFunction,Conductor*%
%ADD34C,4.000000*%
%TD*%
G04 APERTURE END LIST*
%TO.P,C1,2*%
%TO.N,Net-(C1-Pad2)*%
%TA.AperFunction,SMDPad,CuDef*%
G36*
G01*
X166429800Y-96135100D02*
X164379800Y-96135100D01*
G75*
G02*
X164129800Y-95885100I0J250000D01*
G01*
X164129800Y-94310100D01*
G75*
G02*
X164379800Y-94060100I250000J0D01*
G01*
X166429800Y-94060100D01*
G75*
G02*
X166679800Y-94310100I0J-250000D01*
G01*
X166679800Y-95885100D01*
G75*
G02*
X166429800Y-96135100I-250000J0D01*
G01*
G37*
%TD.AperFunction*%
%TO.P,C1,1*%
%TO.N,Net-(C1-Pad1)*%
%TA.AperFunction,SMDPad,CuDef*%
G36*
G01*
X166429800Y-102360100D02*
X164379800Y-102360100D01*
G75*
G02*
X164129800Y-102110100I0J250000D01*
G01*
X164129800Y-100535100D01*
G75*
G02*
X164379800Y-100285100I250000J0D01*
G01*
X166429800Y-100285100D01*
G75*
G02*
X166679800Y-100535100I0J-250000D01*
G01*
X166679800Y-102110100D01*
G75*
G02*
X166429800Y-102360100I-250000J0D01*
G01*
G37*
%TD.AperFunction*%
%TD*%
D10*
%TO.P,C2,1*%
%TO.N,Net-(C2-Pad1)*%
X136245600Y-68808600D03*
D11*
%TO.P,C2,2*%
%TO.N,GND*%
X131245600Y-68808600D03*
%TD*%
%TO.P,C3,2*%
%TO.N,Net-(C3-Pad2)*%
%TA.AperFunction,SMDPad,CuDef*%
G36*
G01*
X151353700Y-58012650D02*
X151353700Y-57100150D01*
G75*
G02*
X151597450Y-56856400I243750J0D01*
G01*
X152084950Y-56856400D01*
G75*
G02*
X152328700Y-57100150I0J-243750D01*
G01*
X152328700Y-58012650D01*
G75*
G02*
X152084950Y-58256400I-243750J0D01*
G01*
X151597450Y-58256400D01*
G75*
G02*
X151353700Y-58012650I0J243750D01*
G01*
G37*
%TD.AperFunction*%
%TO.P,C3,1*%
%TO.N,Net-(C3-Pad1)*%
%TA.AperFunction,SMDPad,CuDef*%
G36*
G01*
X149478700Y-58012650D02*
X149478700Y-57100150D01*
G75*
G02*
X149722450Y-56856400I243750J0D01*
G01*
X150209950Y-56856400D01*
G75*
G02*
X150453700Y-57100150I0J-243750D01*
G01*
X150453700Y-58012650D01*
G75*
G02*
X150209950Y-58256400I-243750J0D01*
G01*
X149722450Y-58256400D01*
G75*
G02*
X149478700Y-58012650I0J243750D01*
G01*
G37*
%TD.AperFunction*%
%TD*%
%TO.P,C4,2*%
%TO.N,Net-(C3-Pad1)*%
%TA.AperFunction,SMDPad,CuDef*%
G36*
G01*
X118347600Y-98001000D02*
X116297600Y-98001000D01*
G75*
G02*
X116047600Y-97751000I0J250000D01*
G01*
X116047600Y-96176000D01*
G75*
G02*
X116297600Y-95926000I250000J0D01*
G01*
X118347600Y-95926000D01*
G75*
G02*
X118597600Y-96176000I0J-250000D01*
G01*
X118597600Y-97751000D01*
G75*
G02*
X118347600Y-98001000I-250000J0D01*
G01*
G37*
%TD.AperFunction*%
%TO.P,C4,1*%
%TO.N,Net-(C4-Pad1)*%
%TA.AperFunction,SMDPad,CuDef*%
G36*
G01*
X118347600Y-104226000D02*
X116297600Y-104226000D01*
G75*
G02*
X116047600Y-103976000I0J250000D01*
G01*
X116047600Y-102401000D01*
G75*
G02*
X116297600Y-102151000I250000J0D01*
G01*
X118347600Y-102151000D01*
G75*
G02*
X118597600Y-102401000I0J-250000D01*
G01*
X118597600Y-103976000D01*
G75*
G02*
X118347600Y-104226000I-250000J0D01*
G01*
G37*
%TD.AperFunction*%
%TD*%
%TO.P,C5,1*%
%TO.N,Net-(C5-Pad1)*%
%TA.AperFunction,SMDPad,CuDef*%
G36*
G01*
X143519000Y-95677900D02*
X141469000Y-95677900D01*
G75*
G02*
X141219000Y-95427900I0J250000D01*
G01*
X141219000Y-93852900D01*
G75*
G02*
X141469000Y-93602900I250000J0D01*
G01*
X143519000Y-93602900D01*
G75*
G02*
X143769000Y-93852900I0J-250000D01*
G01*
X143769000Y-95427900D01*
G75*
G02*
X143519000Y-95677900I-250000J0D01*
G01*
G37*
%TD.AperFunction*%
%TO.P,C5,2*%
%TO.N,NFB*%
%TA.AperFunction,SMDPad,CuDef*%
G36*
G01*
X143519000Y-89452900D02*
X141469000Y-89452900D01*
G75*
G02*
X141219000Y-89202900I0J250000D01*
G01*
X141219000Y-87627900D01*
G75*
G02*
X141469000Y-87377900I250000J0D01*
G01*
X143519000Y-87377900D01*
G75*
G02*
X143769000Y-87627900I0J-250000D01*
G01*
X143769000Y-89202900D01*
G75*
G02*
X143519000Y-89452900I-250000J0D01*
G01*
G37*
%TD.AperFunction*%
%TD*%
%TO.P,C6,2*%
%TO.N,GND*%
%TA.AperFunction,SMDPad,CuDef*%
G36*
G01*
X87701300Y-84428650D02*
X87701300Y-83516150D01*
G75*
G02*
X87945050Y-83272400I243750J0D01*
G01*
X88432550Y-83272400D01*
G75*
G02*
X88676300Y-83516150I0J-243750D01*
G01*
X88676300Y-84428650D01*
G75*
G02*
X88432550Y-84672400I-243750J0D01*
G01*
X87945050Y-84672400D01*
G75*
G02*
X87701300Y-84428650I0J243750D01*
G01*
G37*
%TD.AperFunction*%
%TO.P,C6,1*%
%TO.N,Net-(C6-Pad1)*%
%TA.AperFunction,SMDPad,CuDef*%
G36*
G01*
X85826300Y-84428650D02*
X85826300Y-83516150D01*
G75*
G02*
X86070050Y-83272400I243750J0D01*
G01*
X86557550Y-83272400D01*
G75*
G02*
X86801300Y-83516150I0J-243750D01*
G01*
X86801300Y-84428650D01*
G75*
G02*
X86557550Y-84672400I-243750J0D01*
G01*
X86070050Y-84672400D01*
G75*
G02*
X85826300Y-84428650I0J243750D01*
G01*
G37*
%TD.AperFunction*%
%TD*%
%TO.P,C7,2*%
%TO.N,GND*%
%TA.AperFunction,SMDPad,CuDef*%
G36*
G01*
X171525250Y-123220300D02*
X170612750Y-123220300D01*
G75*
G02*
X170369000Y-122976550I0J243750D01*
G01*
X170369000Y-122489050D01*
G75*
G02*
X170612750Y-122245300I243750J0D01*
G01*
X171525250Y-122245300D01*
G75*
G02*
X171769000Y-122489050I0J-243750D01*
G01*
X171769000Y-122976550D01*
G75*
G02*
X171525250Y-123220300I-243750J0D01*
G01*
G37*
%TD.AperFunction*%
%TO.P,C7,1*%
%TO.N,VAA*%
%TA.AperFunction,SMDPad,CuDef*%
G36*
G01*
X171525250Y-125095300D02*
X170612750Y-125095300D01*
G75*
G02*
X170369000Y-124851550I0J243750D01*
G01*
X170369000Y-124364050D01*
G75*
G02*
X170612750Y-124120300I243750J0D01*
G01*
X171525250Y-124120300D01*
G75*
G02*
X171769000Y-124364050I0J-243750D01*
G01*
X171769000Y-124851550D01*
G75*
G02*
X171525250Y-125095300I-243750J0D01*
G01*
G37*
%TD.AperFunction*%
%TD*%
%TO.P,C9,1*%
%TO.N,VAA*%
%TA.AperFunction,SMDPad,CuDef*%
G36*
G01*
X87409000Y-124063000D02*
X87409000Y-122063000D01*
G75*
G02*
X87659000Y-121813000I250000J0D01*
G01*
X91159000Y-121813000D01*
G75*
G02*
X91409000Y-122063000I0J-250000D01*
G01*
X91409000Y-124063000D01*
G75*
G02*
X91159000Y-124313000I-250000J0D01*
G01*
X87659000Y-124313000D01*
G75*
G02*
X87409000Y-124063000I0J250000D01*
G01*
G37*
%TD.AperFunction*%
%TO.P,C9,2*%
%TO.N,GND*%
%TA.AperFunction,SMDPad,CuDef*%
G36*
G01*
X95409000Y-124063000D02*
X95409000Y-122063000D01*
G75*
G02*
X95659000Y-121813000I250000J0D01*
G01*
X99159000Y-121813000D01*
G75*
G02*
X99409000Y-122063000I0J-250000D01*
G01*
X99409000Y-124063000D01*
G75*
G02*
X99159000Y-124313000I-250000J0D01*
G01*
X95659000Y-124313000D01*
G75*
G02*
X95409000Y-124063000I0J250000D01*
G01*
G37*
%TD.AperFunction*%
%TD*%
%TO.P,C10,2*%
%TO.N,VCC*%
%TA.AperFunction,SMDPad,CuDef*%
G36*
G01*
X91332800Y-50714400D02*
X91332800Y-52714400D01*
G75*
G02*
X91082800Y-52964400I-250000J0D01*
G01*
X87582800Y-52964400D01*
G75*
G02*
X87332800Y-52714400I0J250000D01*
G01*
X87332800Y-50714400D01*
G75*
G02*
X87582800Y-50464400I250000J0D01*
G01*
X91082800Y-50464400D01*
G75*
G02*
X91332800Y-50714400I0J-250000D01*
G01*
G37*
%TD.AperFunction*%
%TO.P,C10,1*%
%TO.N,GND*%
%TA.AperFunction,SMDPad,CuDef*%
G36*
G01*
X99332800Y-50714400D02*
X99332800Y-52714400D01*
G75*
G02*
X99082800Y-52964400I-250000J0D01*
G01*
X95582800Y-52964400D01*
G75*
G02*
X95332800Y-52714400I0J250000D01*
G01*
X95332800Y-50714400D01*
G75*
G02*
X95582800Y-50464400I250000J0D01*
G01*
X99082800Y-50464400D01*
G75*
G02*
X99332800Y-50714400I0J-250000D01*
G01*
G37*
%TD.AperFunction*%
%TD*%
%TO.P,C11,1*%
%TO.N,VAA*%
%TA.AperFunction,SMDPad,CuDef*%
G36*
G01*
X148878400Y-126210700D02*
X146828400Y-126210700D01*
G75*
G02*
X146578400Y-125960700I0J250000D01*
G01*
X146578400Y-124385700D01*
G75*
G02*
X146828400Y-124135700I250000J0D01*
G01*
X148878400Y-124135700D01*
G75*
G02*
X149128400Y-124385700I0J-250000D01*
G01*
X149128400Y-125960700D01*
G75*
G02*
X148878400Y-126210700I-250000J0D01*
G01*
G37*
%TD.AperFunction*%
%TO.P,C11,2*%
%TO.N,Net-(C11-Pad2)*%
%TA.AperFunction,SMDPad,CuDef*%
G36*
G01*
X148878400Y-119985700D02*
X146828400Y-119985700D01*
G75*
G02*
X146578400Y-119735700I0J250000D01*
G01*
X146578400Y-118160700D01*
G75*
G02*
X146828400Y-117910700I250000J0D01*
G01*
X148878400Y-117910700D01*
G75*
G02*
X149128400Y-118160700I0J-250000D01*
G01*
X149128400Y-119735700D01*
G75*
G02*
X148878400Y-119985700I-250000J0D01*
G01*
G37*
%TD.AperFunction*%
%TD*%
%TO.P,C12,2*%
%TO.N,Net-(C12-Pad2)*%
X139903200Y-53340000D03*
D10*
%TO.P,C12,1*%
%TO.N,GND*%
X139903200Y-58340000D03*
%TD*%
%TO.P,C13,1*%
%TO.N,GND*%
%TA.AperFunction,SMDPad,CuDef*%
G36*
G01*
X122706450Y-49255500D02*
X121793950Y-49255500D01*
G75*
G02*
X121550200Y-49011750I0J243750D01*
G01*
X121550200Y-48524250D01*
G75*
G02*
X121793950Y-48280500I243750J0D01*
G01*
X122706450Y-48280500D01*
G75*
G02*
X122950200Y-48524250I0J-243750D01*
G01*
X122950200Y-49011750D01*
G75*
G02*
X122706450Y-49255500I-243750J0D01*
G01*
G37*
%TD.AperFunction*%
%TO.P,C13,2*%
%TO.N,VCC*%
%TA.AperFunction,SMDPad,CuDef*%
G36*
G01*
X122706450Y-47380500D02*
X121793950Y-47380500D01*
G75*
G02*
X121550200Y-47136750I0J243750D01*
G01*
X121550200Y-46649250D01*
G75*
G02*
X121793950Y-46405500I243750J0D01*
G01*
X122706450Y-46405500D01*
G75*
G02*
X122950200Y-46649250I0J-243750D01*
G01*
X122950200Y-47136750D01*
G75*
G02*
X122706450Y-47380500I-243750J0D01*
G01*
G37*
%TD.AperFunction*%
%TD*%
%TO.P,C14,2*%
%TO.N,Net-(C14-Pad2)*%
%TA.AperFunction,SMDPad,CuDef*%
G36*
G01*
X165718600Y-120112700D02*
X163668600Y-120112700D01*
G75*
G02*
X163418600Y-119862700I0J250000D01*
G01*
X163418600Y-118287700D01*
G75*
G02*
X163668600Y-118037700I250000J0D01*
G01*
X165718600Y-118037700D01*
G75*
G02*
X165968600Y-118287700I0J-250000D01*
G01*
X165968600Y-119862700D01*
G75*
G02*
X165718600Y-120112700I-250000J0D01*
G01*
G37*
%TD.AperFunction*%
%TO.P,C14,1*%
%TO.N,VAA*%
%TA.AperFunction,SMDPad,CuDef*%
G36*
G01*
X165718600Y-126337700D02*
X163668600Y-126337700D01*
G75*
G02*
X163418600Y-126087700I0J250000D01*
G01*
X163418600Y-124512700D01*
G75*
G02*
X163668600Y-124262700I250000J0D01*
G01*
X165718600Y-124262700D01*
G75*
G02*
X165968600Y-124512700I0J-250000D01*
G01*
X165968600Y-126087700D01*
G75*
G02*
X165718600Y-126337700I-250000J0D01*
G01*
G37*
%TD.AperFunction*%
%TD*%
%TO.P,C15,1*%
%TO.N,Net-(C15-Pad1)*%
%TA.AperFunction,SMDPad,CuDef*%
G36*
G01*
X152226100Y-97443400D02*
X152226100Y-95393400D01*
G75*
G02*
X152476100Y-95143400I250000J0D01*
G01*
X154051100Y-95143400D01*
G75*
G02*
X154301100Y-95393400I0J-250000D01*
G01*
X154301100Y-97443400D01*
G75*
G02*
X154051100Y-97693400I-250000J0D01*
G01*
X152476100Y-97693400D01*
G75*
G02*
X152226100Y-97443400I0J250000D01*
G01*
G37*
%TD.AperFunction*%
%TO.P,C15,2*%
%TO.N,Net-(C15-Pad2)*%
%TA.AperFunction,SMDPad,CuDef*%
G36*
G01*
X158451100Y-97443400D02*
X158451100Y-95393400D01*
G75*
G02*
X158701100Y-95143400I250000J0D01*
G01*
X160276100Y-95143400D01*
G75*
G02*
X160526100Y-95393400I0J-250000D01*
G01*
X160526100Y-97443400D01*
G75*
G02*
X160276100Y-97693400I-250000J0D01*
G01*
X158701100Y-97693400D01*
G75*
G02*
X158451100Y-97443400I0J250000D01*
G01*
G37*
%TD.AperFunction*%
%TD*%
%TO.P,C16,1*%
%TO.N,Net-(C16-Pad1)*%
%TA.AperFunction,SMDPad,CuDef*%
G36*
G01*
X167488550Y-72719900D02*
X168401050Y-72719900D01*
G75*
G02*
X168644800Y-72963650I0J-243750D01*
G01*
X168644800Y-73451150D01*
G75*
G02*
X168401050Y-73694900I-243750J0D01*
G01*
X167488550Y-73694900D01*
G75*
G02*
X167244800Y-73451150I0J243750D01*
G01*
X167244800Y-72963650D01*
G75*
G02*
X167488550Y-72719900I243750J0D01*
G01*
G37*
%TD.AperFunction*%
%TO.P,C16,2*%
%TO.N,GND*%
%TA.AperFunction,SMDPad,CuDef*%
G36*
G01*
X167488550Y-74594900D02*
X168401050Y-74594900D01*
G75*
G02*
X168644800Y-74838650I0J-243750D01*
G01*
X168644800Y-75326150D01*
G75*
G02*
X168401050Y-75569900I-243750J0D01*
G01*
X167488550Y-75569900D01*
G75*
G02*
X167244800Y-75326150I0J243750D01*
G01*
X167244800Y-74838650D01*
G75*
G02*
X167488550Y-74594900I243750J0D01*
G01*
G37*
%TD.AperFunction*%
%TD*%
%TO.P,C17,1*%
%TO.N,GND*%
%TA.AperFunction,SMDPad,CuDef*%
G36*
G01*
X170661650Y-49022300D02*
X169749150Y-49022300D01*
G75*
G02*
X169505400Y-48778550I0J243750D01*
G01*
X169505400Y-48291050D01*
G75*
G02*
X169749150Y-48047300I243750J0D01*
G01*
X170661650Y-48047300D01*
G75*
G02*
X170905400Y-48291050I0J-243750D01*
G01*
X170905400Y-48778550D01*
G75*
G02*
X170661650Y-49022300I-243750J0D01*
G01*
G37*
%TD.AperFunction*%
%TO.P,C17,2*%
%TO.N,Net-(C12-Pad2)*%
%TA.AperFunction,SMDPad,CuDef*%
G36*
G01*
X170661650Y-47147300D02*
X169749150Y-47147300D01*
G75*
G02*
X169505400Y-46903550I0J243750D01*
G01*
X169505400Y-46416050D01*
G75*
G02*
X169749150Y-46172300I243750J0D01*
G01*
X170661650Y-46172300D01*
G75*
G02*
X170905400Y-46416050I0J-243750D01*
G01*
X170905400Y-46903550D01*
G75*
G02*
X170661650Y-47147300I-243750J0D01*
G01*
G37*
%TD.AperFunction*%
%TD*%
D12*
%TO.P,D1,1*%
%TO.N,Net-(D1-Pad1)*%
X145311400Y-69900800D03*
%TO.P,D1,2*%
%TO.N,Net-(C2-Pad1)*%
X142011400Y-69900800D03*
%TD*%
%TO.P,D2,1*%
%TO.N,GND*%
X150670800Y-69900800D03*
%TO.P,D2,2*%
%TO.N,Net-(D1-Pad1)*%
X147370800Y-69900800D03*
%TD*%
%TO.P,D3,2*%
%TO.N,Net-(D3-Pad2)*%
X145313400Y-66979800D03*
%TO.P,D3,1*%
%TO.N,Net-(C2-Pad1)*%
X142013400Y-66979800D03*
%TD*%
%TO.P,D4,2*%
%TO.N,GND*%
X150672800Y-66954400D03*
%TO.P,D4,1*%
%TO.N,Net-(D3-Pad2)*%
X147372800Y-66954400D03*
%TD*%
D13*
%TO.P,D5,1*%
%TO.N,Net-(D5-Pad1)*%
X131165600Y-49530000D03*
%TO.P,D5,2*%
%TO.N,Net-(D5-Pad2)*%
X131165600Y-52830000D03*
%TD*%
%TO.P,D6,1*%
%TO.N,VCC*%
X127635000Y-46230000D03*
%TO.P,D6,2*%
%TO.N,Net-(D5-Pad1)*%
X127635000Y-49530000D03*
%TD*%
D12*
%TO.P,D7,2*%
%TO.N,Net-(D7-Pad2)*%
X104851200Y-104902000D03*
%TO.P,D7,1*%
%TO.N,Net-(D7-Pad1)*%
X101551200Y-104902000D03*
%TD*%
%TO.P,D8,2*%
%TO.N,Net-(D8-Pad2)*%
X101575600Y-70002400D03*
%TO.P,D8,1*%
%TO.N,Net-(D8-Pad1)*%
X104875600Y-70002400D03*
%TD*%
%TO.P,D9,1*%
%TO.N,Net-(D9-Pad1)*%
X153390600Y-116179600D03*
%TO.P,D9,2*%
%TO.N,Net-(D9-Pad2)*%
X156690600Y-116179600D03*
%TD*%
D14*
%TO.P,F1,1*%
%TO.N,+24V*%
X140608400Y-129946400D03*
%TO.P,F1,2*%
%TO.N,VAA*%
X118008400Y-129946400D03*
%TD*%
%TO.P,F2,2*%
%TO.N,VCC*%
X116967000Y-43383200D03*
%TO.P,F2,1*%
%TO.N,-24V*%
X139567000Y-43383200D03*
%TD*%
D15*
%TO.P,HS1,1*%
%TO.N,N/C*%
X107543600Y-51384200D03*
X107543600Y-76784200D03*
%TD*%
%TO.P,HS2,1*%
%TO.N,N/C*%
X107530900Y-98031300D03*
X107530900Y-123431300D03*
%TD*%
D16*
%TO.P,J1,1*%
%TO.N,Net-(C1-Pad2)*%
X167259000Y-91135200D03*
%TD*%
%TO.P,J2,1*%
%TO.N,GND*%
X167386000Y-84251800D03*
%TD*%
D17*
%TO.P,J3,1*%
%TO.N,Net-(J3-Pad1)*%
X96951800Y-73914000D03*
%TD*%
%TO.P,J4,1*%
%TO.N,GND*%
X150622000Y-82905600D03*
%TD*%
%TO.P,JL1,1*%
%TO.N,Net-(JL1-Pad1)*%
X150469600Y-132537200D03*
%TD*%
%TO.P,JL2,1*%
%TO.N,Net-(JL2-Pad1)*%
X150063200Y-41478200D03*
%TD*%
D18*
%TO.P,PR1,3*%
%TO.N,Net-(C3-Pad1)*%
X118364000Y-115468400D03*
%TO.P,PR1,2*%
X128364000Y-117968400D03*
%TO.P,PR1,1*%
%TO.N,Net-(PR1-Pad1)*%
X118364000Y-120468400D03*
%TD*%
D19*
%TO.P,Q6,1*%
%TO.N,Net-(Q6-Pad1)*%
X160679400Y-50623600D03*
%TO.P,Q6,3*%
%TO.N,Net-(C12-Pad2)*%
X160679400Y-47623600D03*
%TA.AperFunction,SMDPad,CuDef*%
D20*
%TO.P,Q6,2*%
%TO.N,Net-(C3-Pad2)*%
G36*
X156729400Y-48257100D02*
G01*
X159854400Y-48257100D01*
X159854400Y-48673600D01*
X161329400Y-48673600D01*
X161329400Y-49573600D01*
X159854400Y-49573600D01*
X159854400Y-49990100D01*
X156729400Y-49990100D01*
X156729400Y-48257100D01*
G37*
%TD.AperFunction*%
%TD*%
%TO.P,R2,2*%
%TO.N,Net-(R2-Pad2)*%
%TA.AperFunction,SMDPad,CuDef*%
G36*
G01*
X162914650Y-73614100D02*
X162002150Y-73614100D01*
G75*
G02*
X161758400Y-73370350I0J243750D01*
G01*
X161758400Y-72882850D01*
G75*
G02*
X162002150Y-72639100I243750J0D01*
G01*
X162914650Y-72639100D01*
G75*
G02*
X163158400Y-72882850I0J-243750D01*
G01*
X163158400Y-73370350D01*
G75*
G02*
X162914650Y-73614100I-243750J0D01*
G01*
G37*
%TD.AperFunction*%
%TO.P,R2,1*%
%TO.N,Net-(R2-Pad1)*%
%TA.AperFunction,SMDPad,CuDef*%
G36*
G01*
X162914650Y-75489100D02*
X162002150Y-75489100D01*
G75*
G02*
X161758400Y-75245350I0J243750D01*
G01*
X161758400Y-74757850D01*
G75*
G02*
X162002150Y-74514100I243750J0D01*
G01*
X162914650Y-74514100D01*
G75*
G02*
X163158400Y-74757850I0J-243750D01*
G01*
X163158400Y-75245350D01*
G75*
G02*
X162914650Y-75489100I-243750J0D01*
G01*
G37*
%TD.AperFunction*%
%TD*%
%TO.P,R3,2*%
%TO.N,Net-(R3-Pad2)*%
%TA.AperFunction,SMDPad,CuDef*%
G36*
G01*
X160095250Y-73639500D02*
X159182750Y-73639500D01*
G75*
G02*
X158939000Y-73395750I0J243750D01*
G01*
X158939000Y-72908250D01*
G75*
G02*
X159182750Y-72664500I243750J0D01*
G01*
X160095250Y-72664500D01*
G75*
G02*
X160339000Y-72908250I0J-243750D01*
G01*
X160339000Y-73395750D01*
G75*
G02*
X160095250Y-73639500I-243750J0D01*
G01*
G37*
%TD.AperFunction*%
%TO.P,R3,1*%
%TO.N,Net-(R2-Pad1)*%
%TA.AperFunction,SMDPad,CuDef*%
G36*
G01*
X160095250Y-75514500D02*
X159182750Y-75514500D01*
G75*
G02*
X158939000Y-75270750I0J243750D01*
G01*
X158939000Y-74783250D01*
G75*
G02*
X159182750Y-74539500I243750J0D01*
G01*
X160095250Y-74539500D01*
G75*
G02*
X160339000Y-74783250I0J-243750D01*
G01*
X160339000Y-75270750D01*
G75*
G02*
X160095250Y-75514500I-243750J0D01*
G01*
G37*
%TD.AperFunction*%
%TD*%
%TO.P,R4,2*%
%TO.N,Net-(R4-Pad2)*%
%TA.AperFunction,SMDPad,CuDef*%
G36*
G01*
X169086850Y-123194900D02*
X168174350Y-123194900D01*
G75*
G02*
X167930600Y-122951150I0J243750D01*
G01*
X167930600Y-122463650D01*
G75*
G02*
X168174350Y-122219900I243750J0D01*
G01*
X169086850Y-122219900D01*
G75*
G02*
X169330600Y-122463650I0J-243750D01*
G01*
X169330600Y-122951150D01*
G75*
G02*
X169086850Y-123194900I-243750J0D01*
G01*
G37*
%TD.AperFunction*%
%TO.P,R4,1*%
%TO.N,VAA*%
%TA.AperFunction,SMDPad,CuDef*%
G36*
G01*
X169086850Y-125069900D02*
X168174350Y-125069900D01*
G75*
G02*
X167930600Y-124826150I0J243750D01*
G01*
X167930600Y-124338650D01*
G75*
G02*
X168174350Y-124094900I243750J0D01*
G01*
X169086850Y-124094900D01*
G75*
G02*
X169330600Y-124338650I0J-243750D01*
G01*
X169330600Y-124826150D01*
G75*
G02*
X169086850Y-125069900I-243750J0D01*
G01*
G37*
%TD.AperFunction*%
%TD*%
%TO.P,R5,2*%
%TO.N,Net-(C14-Pad2)*%
%TA.AperFunction,SMDPad,CuDef*%
G36*
G01*
X147361300Y-112876650D02*
X147361300Y-111964150D01*
G75*
G02*
X147605050Y-111720400I243750J0D01*
G01*
X148092550Y-111720400D01*
G75*
G02*
X148336300Y-111964150I0J-243750D01*
G01*
X148336300Y-112876650D01*
G75*
G02*
X148092550Y-113120400I-243750J0D01*
G01*
X147605050Y-113120400D01*
G75*
G02*
X147361300Y-112876650I0J243750D01*
G01*
G37*
%TD.AperFunction*%
%TO.P,R5,1*%
%TO.N,Net-(R49-Pad1)*%
%TA.AperFunction,SMDPad,CuDef*%
G36*
G01*
X145486300Y-112876650D02*
X145486300Y-111964150D01*
G75*
G02*
X145730050Y-111720400I243750J0D01*
G01*
X146217550Y-111720400D01*
G75*
G02*
X146461300Y-111964150I0J-243750D01*
G01*
X146461300Y-112876650D01*
G75*
G02*
X146217550Y-113120400I-243750J0D01*
G01*
X145730050Y-113120400D01*
G75*
G02*
X145486300Y-112876650I0J243750D01*
G01*
G37*
%TD.AperFunction*%
%TD*%
%TO.P,R6,2*%
%TO.N,Net-(C12-Pad2)*%
%TA.AperFunction,SMDPad,CuDef*%
G36*
G01*
X168147050Y-47177300D02*
X167234550Y-47177300D01*
G75*
G02*
X166990800Y-46933550I0J243750D01*
G01*
X166990800Y-46446050D01*
G75*
G02*
X167234550Y-46202300I243750J0D01*
G01*
X168147050Y-46202300D01*
G75*
G02*
X168390800Y-46446050I0J-243750D01*
G01*
X168390800Y-46933550D01*
G75*
G02*
X168147050Y-47177300I-243750J0D01*
G01*
G37*
%TD.AperFunction*%
%TO.P,R6,1*%
%TO.N,Net-(R6-Pad1)*%
%TA.AperFunction,SMDPad,CuDef*%
G36*
G01*
X168147050Y-49052300D02*
X167234550Y-49052300D01*
G75*
G02*
X166990800Y-48808550I0J243750D01*
G01*
X166990800Y-48321050D01*
G75*
G02*
X167234550Y-48077300I243750J0D01*
G01*
X168147050Y-48077300D01*
G75*
G02*
X168390800Y-48321050I0J-243750D01*
G01*
X168390800Y-48808550D01*
G75*
G02*
X168147050Y-49052300I-243750J0D01*
G01*
G37*
%TD.AperFunction*%
%TD*%
%TO.P,R7,1*%
%TO.N,Net-(R7-Pad1)*%
%TA.AperFunction,SMDPad,CuDef*%
G36*
G01*
X165607050Y-49052300D02*
X164694550Y-49052300D01*
G75*
G02*
X164450800Y-48808550I0J243750D01*
G01*
X164450800Y-48321050D01*
G75*
G02*
X164694550Y-48077300I243750J0D01*
G01*
X165607050Y-48077300D01*
G75*
G02*
X165850800Y-48321050I0J-243750D01*
G01*
X165850800Y-48808550D01*
G75*
G02*
X165607050Y-49052300I-243750J0D01*
G01*
G37*
%TD.AperFunction*%
%TO.P,R7,2*%
%TO.N,Net-(C12-Pad2)*%
%TA.AperFunction,SMDPad,CuDef*%
G36*
G01*
X165607050Y-47177300D02*
X164694550Y-47177300D01*
G75*
G02*
X164450800Y-46933550I0J243750D01*
G01*
X164450800Y-46446050D01*
G75*
G02*
X164694550Y-46202300I243750J0D01*
G01*
X165607050Y-46202300D01*
G75*
G02*
X165850800Y-46446050I0J-243750D01*
G01*
X165850800Y-46933550D01*
G75*
G02*
X165607050Y-47177300I-243750J0D01*
G01*
G37*
%TD.AperFunction*%
%TD*%
%TO.P,R8,1*%
%TO.N,NFB*%
%TA.AperFunction,SMDPad,CuDef*%
G36*
G01*
X150824900Y-90270650D02*
X150824900Y-89358150D01*
G75*
G02*
X151068650Y-89114400I243750J0D01*
G01*
X151556150Y-89114400D01*
G75*
G02*
X151799900Y-89358150I0J-243750D01*
G01*
X151799900Y-90270650D01*
G75*
G02*
X151556150Y-90514400I-243750J0D01*
G01*
X151068650Y-90514400D01*
G75*
G02*
X150824900Y-90270650I0J243750D01*
G01*
G37*
%TD.AperFunction*%
%TO.P,R8,2*%
%TO.N,Net-(R40-Pad1)*%
%TA.AperFunction,SMDPad,CuDef*%
G36*
G01*
X152699900Y-90270650D02*
X152699900Y-89358150D01*
G75*
G02*
X152943650Y-89114400I243750J0D01*
G01*
X153431150Y-89114400D01*
G75*
G02*
X153674900Y-89358150I0J-243750D01*
G01*
X153674900Y-90270650D01*
G75*
G02*
X153431150Y-90514400I-243750J0D01*
G01*
X152943650Y-90514400D01*
G75*
G02*
X152699900Y-90270650I0J243750D01*
G01*
G37*
%TD.AperFunction*%
%TD*%
%TO.P,R9,1*%
%TO.N,Net-(C16-Pad1)*%
%TA.AperFunction,SMDPad,CuDef*%
G36*
G01*
X169063350Y-98978900D02*
X169975850Y-98978900D01*
G75*
G02*
X170219600Y-99222650I0J-243750D01*
G01*
X170219600Y-99710150D01*
G75*
G02*
X169975850Y-99953900I-243750J0D01*
G01*
X169063350Y-99953900D01*
G75*
G02*
X168819600Y-99710150I0J243750D01*
G01*
X168819600Y-99222650D01*
G75*
G02*
X169063350Y-98978900I243750J0D01*
G01*
G37*
%TD.AperFunction*%
%TO.P,R9,2*%
%TO.N,Net-(C1-Pad1)*%
%TA.AperFunction,SMDPad,CuDef*%
G36*
G01*
X169063350Y-100853900D02*
X169975850Y-100853900D01*
G75*
G02*
X170219600Y-101097650I0J-243750D01*
G01*
X170219600Y-101585150D01*
G75*
G02*
X169975850Y-101828900I-243750J0D01*
G01*
X169063350Y-101828900D01*
G75*
G02*
X168819600Y-101585150I0J243750D01*
G01*
X168819600Y-101097650D01*
G75*
G02*
X169063350Y-100853900I243750J0D01*
G01*
G37*
%TD.AperFunction*%
%TD*%
%TO.P,R10,1*%
%TO.N,Net-(R10-Pad1)*%
%TA.AperFunction,SMDPad,CuDef*%
G36*
G01*
X117881700Y-107976350D02*
X117881700Y-108888850D01*
G75*
G02*
X117637950Y-109132600I-243750J0D01*
G01*
X117150450Y-109132600D01*
G75*
G02*
X116906700Y-108888850I0J243750D01*
G01*
X116906700Y-107976350D01*
G75*
G02*
X117150450Y-107732600I243750J0D01*
G01*
X117637950Y-107732600D01*
G75*
G02*
X117881700Y-107976350I0J-243750D01*
G01*
G37*
%TD.AperFunction*%
%TO.P,R10,2*%
%TO.N,Net-(R10-Pad2)*%
%TA.AperFunction,SMDPad,CuDef*%
G36*
G01*
X116006700Y-107976350D02*
X116006700Y-108888850D01*
G75*
G02*
X115762950Y-109132600I-243750J0D01*
G01*
X115275450Y-109132600D01*
G75*
G02*
X115031700Y-108888850I0J243750D01*
G01*
X115031700Y-107976350D01*
G75*
G02*
X115275450Y-107732600I243750J0D01*
G01*
X115762950Y-107732600D01*
G75*
G02*
X116006700Y-107976350I0J-243750D01*
G01*
G37*
%TD.AperFunction*%
%TD*%
%TO.P,R11,1*%
%TO.N,Net-(R10-Pad2)*%
%TA.AperFunction,SMDPad,CuDef*%
G36*
G01*
X115031700Y-106475850D02*
X115031700Y-105563350D01*
G75*
G02*
X115275450Y-105319600I243750J0D01*
G01*
X115762950Y-105319600D01*
G75*
G02*
X116006700Y-105563350I0J-243750D01*
G01*
X116006700Y-106475850D01*
G75*
G02*
X115762950Y-106719600I-243750J0D01*
G01*
X115275450Y-106719600D01*
G75*
G02*
X115031700Y-106475850I0J243750D01*
G01*
G37*
%TD.AperFunction*%
%TO.P,R11,2*%
%TO.N,Net-(R11-Pad2)*%
%TA.AperFunction,SMDPad,CuDef*%
G36*
G01*
X116906700Y-106475850D02*
X116906700Y-105563350D01*
G75*
G02*
X117150450Y-105319600I243750J0D01*
G01*
X117637950Y-105319600D01*
G75*
G02*
X117881700Y-105563350I0J-243750D01*
G01*
X117881700Y-106475850D01*
G75*
G02*
X117637950Y-106719600I-243750J0D01*
G01*
X117150450Y-106719600D01*
G75*
G02*
X116906700Y-106475850I0J243750D01*
G01*
G37*
%TD.AperFunction*%
%TD*%
%TO.P,R12,1*%
%TO.N,Net-(D7-Pad2)*%
%TA.AperFunction,SMDPad,CuDef*%
G36*
G01*
X126491700Y-92074050D02*
X126491700Y-91161550D01*
G75*
G02*
X126735450Y-90917800I243750J0D01*
G01*
X127222950Y-90917800D01*
G75*
G02*
X127466700Y-91161550I0J-243750D01*
G01*
X127466700Y-92074050D01*
G75*
G02*
X127222950Y-92317800I-243750J0D01*
G01*
X126735450Y-92317800D01*
G75*
G02*
X126491700Y-92074050I0J243750D01*
G01*
G37*
%TD.AperFunction*%
%TO.P,R12,2*%
%TO.N,Net-(C4-Pad1)*%
%TA.AperFunction,SMDPad,CuDef*%
G36*
G01*
X128366700Y-92074050D02*
X128366700Y-91161550D01*
G75*
G02*
X128610450Y-90917800I243750J0D01*
G01*
X129097950Y-90917800D01*
G75*
G02*
X129341700Y-91161550I0J-243750D01*
G01*
X129341700Y-92074050D01*
G75*
G02*
X129097950Y-92317800I-243750J0D01*
G01*
X128610450Y-92317800D01*
G75*
G02*
X128366700Y-92074050I0J243750D01*
G01*
G37*
%TD.AperFunction*%
%TD*%
%TO.P,R13,2*%
%TO.N,Net-(R13-Pad2)*%
%TA.AperFunction,SMDPad,CuDef*%
G36*
G01*
X135330250Y-122890100D02*
X134417750Y-122890100D01*
G75*
G02*
X134174000Y-122646350I0J243750D01*
G01*
X134174000Y-122158850D01*
G75*
G02*
X134417750Y-121915100I243750J0D01*
G01*
X135330250Y-121915100D01*
G75*
G02*
X135574000Y-122158850I0J-243750D01*
G01*
X135574000Y-122646350D01*
G75*
G02*
X135330250Y-122890100I-243750J0D01*
G01*
G37*
%TD.AperFunction*%
%TO.P,R13,1*%
%TO.N,VAA*%
%TA.AperFunction,SMDPad,CuDef*%
G36*
G01*
X135330250Y-124765100D02*
X134417750Y-124765100D01*
G75*
G02*
X134174000Y-124521350I0J243750D01*
G01*
X134174000Y-124033850D01*
G75*
G02*
X134417750Y-123790100I243750J0D01*
G01*
X135330250Y-123790100D01*
G75*
G02*
X135574000Y-124033850I0J-243750D01*
G01*
X135574000Y-124521350D01*
G75*
G02*
X135330250Y-124765100I-243750J0D01*
G01*
G37*
%TD.AperFunction*%
%TD*%
%TO.P,R14,1*%
%TO.N,Net-(R10-Pad1)*%
%TA.AperFunction,SMDPad,CuDef*%
G36*
G01*
X117881700Y-110516350D02*
X117881700Y-111428850D01*
G75*
G02*
X117637950Y-111672600I-243750J0D01*
G01*
X117150450Y-111672600D01*
G75*
G02*
X116906700Y-111428850I0J243750D01*
G01*
X116906700Y-110516350D01*
G75*
G02*
X117150450Y-110272600I243750J0D01*
G01*
X117637950Y-110272600D01*
G75*
G02*
X117881700Y-110516350I0J-243750D01*
G01*
G37*
%TD.AperFunction*%
%TO.P,R14,2*%
%TO.N,Net-(C4-Pad1)*%
%TA.AperFunction,SMDPad,CuDef*%
G36*
G01*
X116006700Y-110516350D02*
X116006700Y-111428850D01*
G75*
G02*
X115762950Y-111672600I-243750J0D01*
G01*
X115275450Y-111672600D01*
G75*
G02*
X115031700Y-111428850I0J243750D01*
G01*
X115031700Y-110516350D01*
G75*
G02*
X115275450Y-110272600I243750J0D01*
G01*
X115762950Y-110272600D01*
G75*
G02*
X116006700Y-110516350I0J-243750D01*
G01*
G37*
%TD.AperFunction*%
%TD*%
%TO.P,R15,1*%
%TO.N,Net-(C4-Pad1)*%
%TA.AperFunction,SMDPad,CuDef*%
G36*
G01*
X129341700Y-93472950D02*
X129341700Y-94385450D01*
G75*
G02*
X129097950Y-94629200I-243750J0D01*
G01*
X128610450Y-94629200D01*
G75*
G02*
X128366700Y-94385450I0J243750D01*
G01*
X128366700Y-93472950D01*
G75*
G02*
X128610450Y-93229200I243750J0D01*
G01*
X129097950Y-93229200D01*
G75*
G02*
X129341700Y-93472950I0J-243750D01*
G01*
G37*
%TD.AperFunction*%
%TO.P,R15,2*%
%TO.N,Net-(R15-Pad2)*%
%TA.AperFunction,SMDPad,CuDef*%
G36*
G01*
X127466700Y-93472950D02*
X127466700Y-94385450D01*
G75*
G02*
X127222950Y-94629200I-243750J0D01*
G01*
X126735450Y-94629200D01*
G75*
G02*
X126491700Y-94385450I0J243750D01*
G01*
X126491700Y-93472950D01*
G75*
G02*
X126735450Y-93229200I243750J0D01*
G01*
X127222950Y-93229200D01*
G75*
G02*
X127466700Y-93472950I0J-243750D01*
G01*
G37*
%TD.AperFunction*%
%TD*%
%TO.P,R16,2*%
%TO.N,Net-(R16-Pad2)*%
%TA.AperFunction,SMDPad,CuDef*%
G36*
G01*
X84229001Y-102478200D02*
X81378999Y-102478200D01*
G75*
G02*
X81129000Y-102228201I0J249999D01*
G01*
X81129000Y-101378199D01*
G75*
G02*
X81378999Y-101128200I249999J0D01*
G01*
X84229001Y-101128200D01*
G75*
G02*
X84479000Y-101378199I0J-249999D01*
G01*
X84479000Y-102228201D01*
G75*
G02*
X84229001Y-102478200I-249999J0D01*
G01*
G37*
%TD.AperFunction*%
%TO.P,R16,1*%
%TO.N,Net-(R16-Pad1)*%
%TA.AperFunction,SMDPad,CuDef*%
G36*
G01*
X84229001Y-108278200D02*
X81378999Y-108278200D01*
G75*
G02*
X81129000Y-108028201I0J249999D01*
G01*
X81129000Y-107178199D01*
G75*
G02*
X81378999Y-106928200I249999J0D01*
G01*
X84229001Y-106928200D01*
G75*
G02*
X84479000Y-107178199I0J-249999D01*
G01*
X84479000Y-108028201D01*
G75*
G02*
X84229001Y-108278200I-249999J0D01*
G01*
G37*
%TD.AperFunction*%
%TD*%
%TO.P,R17,1*%
%TO.N,Net-(R17-Pad1)*%
%TA.AperFunction,SMDPad,CuDef*%
G36*
G01*
X84229001Y-81650200D02*
X81378999Y-81650200D01*
G75*
G02*
X81129000Y-81400201I0J249999D01*
G01*
X81129000Y-80550199D01*
G75*
G02*
X81378999Y-80300200I249999J0D01*
G01*
X84229001Y-80300200D01*
G75*
G02*
X84479000Y-80550199I0J-249999D01*
G01*
X84479000Y-81400201D01*
G75*
G02*
X84229001Y-81650200I-249999J0D01*
G01*
G37*
%TD.AperFunction*%
%TO.P,R17,2*%
%TO.N,Net-(R17-Pad2)*%
%TA.AperFunction,SMDPad,CuDef*%
G36*
G01*
X84229001Y-75850200D02*
X81378999Y-75850200D01*
G75*
G02*
X81129000Y-75600201I0J249999D01*
G01*
X81129000Y-74750199D01*
G75*
G02*
X81378999Y-74500200I249999J0D01*
G01*
X84229001Y-74500200D01*
G75*
G02*
X84479000Y-74750199I0J-249999D01*
G01*
X84479000Y-75600201D01*
G75*
G02*
X84229001Y-75850200I-249999J0D01*
G01*
G37*
%TD.AperFunction*%
%TD*%
%TO.P,R18,2*%
%TO.N,Net-(C6-Pad1)*%
%TA.AperFunction,SMDPad,CuDef*%
G36*
G01*
X87984650Y-87126900D02*
X87072150Y-87126900D01*
G75*
G02*
X86828400Y-86883150I0J243750D01*
G01*
X86828400Y-86395650D01*
G75*
G02*
X87072150Y-86151900I243750J0D01*
G01*
X87984650Y-86151900D01*
G75*
G02*
X88228400Y-86395650I0J-243750D01*
G01*
X88228400Y-86883150D01*
G75*
G02*
X87984650Y-87126900I-243750J0D01*
G01*
G37*
%TD.AperFunction*%
%TO.P,R18,1*%
%TO.N,NFB*%
%TA.AperFunction,SMDPad,CuDef*%
G36*
G01*
X87984650Y-89001900D02*
X87072150Y-89001900D01*
G75*
G02*
X86828400Y-88758150I0J243750D01*
G01*
X86828400Y-88270650D01*
G75*
G02*
X87072150Y-88026900I243750J0D01*
G01*
X87984650Y-88026900D01*
G75*
G02*
X88228400Y-88270650I0J-243750D01*
G01*
X88228400Y-88758150D01*
G75*
G02*
X87984650Y-89001900I-243750J0D01*
G01*
G37*
%TD.AperFunction*%
%TD*%
%TO.P,R19,1*%
%TO.N,Net-(J3-Pad1)*%
%TA.AperFunction,SMDPad,CuDef*%
G36*
G01*
X94133350Y-86863100D02*
X95045850Y-86863100D01*
G75*
G02*
X95289600Y-87106850I0J-243750D01*
G01*
X95289600Y-87594350D01*
G75*
G02*
X95045850Y-87838100I-243750J0D01*
G01*
X94133350Y-87838100D01*
G75*
G02*
X93889600Y-87594350I0J243750D01*
G01*
X93889600Y-87106850D01*
G75*
G02*
X94133350Y-86863100I243750J0D01*
G01*
G37*
%TD.AperFunction*%
%TO.P,R19,2*%
%TO.N,NFB*%
%TA.AperFunction,SMDPad,CuDef*%
G36*
G01*
X94133350Y-88738100D02*
X95045850Y-88738100D01*
G75*
G02*
X95289600Y-88981850I0J-243750D01*
G01*
X95289600Y-89469350D01*
G75*
G02*
X95045850Y-89713100I-243750J0D01*
G01*
X94133350Y-89713100D01*
G75*
G02*
X93889600Y-89469350I0J243750D01*
G01*
X93889600Y-88981850D01*
G75*
G02*
X94133350Y-88738100I243750J0D01*
G01*
G37*
%TD.AperFunction*%
%TD*%
%TO.P,R20,1*%
%TO.N,Net-(R16-Pad1)*%
%TA.AperFunction,SMDPad,CuDef*%
G36*
G01*
X92124850Y-107416900D02*
X91212350Y-107416900D01*
G75*
G02*
X90968600Y-107173150I0J243750D01*
G01*
X90968600Y-106685650D01*
G75*
G02*
X91212350Y-106441900I243750J0D01*
G01*
X92124850Y-106441900D01*
G75*
G02*
X92368600Y-106685650I0J-243750D01*
G01*
X92368600Y-107173150D01*
G75*
G02*
X92124850Y-107416900I-243750J0D01*
G01*
G37*
%TD.AperFunction*%
%TO.P,R20,2*%
%TO.N,Net-(R20-Pad2)*%
%TA.AperFunction,SMDPad,CuDef*%
G36*
G01*
X92124850Y-105541900D02*
X91212350Y-105541900D01*
G75*
G02*
X90968600Y-105298150I0J243750D01*
G01*
X90968600Y-104810650D01*
G75*
G02*
X91212350Y-104566900I243750J0D01*
G01*
X92124850Y-104566900D01*
G75*
G02*
X92368600Y-104810650I0J-243750D01*
G01*
X92368600Y-105298150D01*
G75*
G02*
X92124850Y-105541900I-243750J0D01*
G01*
G37*
%TD.AperFunction*%
%TD*%
%TO.P,R21,1*%
%TO.N,VAA*%
%TA.AperFunction,SMDPad,CuDef*%
G36*
G01*
X95706250Y-117399100D02*
X94793750Y-117399100D01*
G75*
G02*
X94550000Y-117155350I0J243750D01*
G01*
X94550000Y-116667850D01*
G75*
G02*
X94793750Y-116424100I243750J0D01*
G01*
X95706250Y-116424100D01*
G75*
G02*
X95950000Y-116667850I0J-243750D01*
G01*
X95950000Y-117155350D01*
G75*
G02*
X95706250Y-117399100I-243750J0D01*
G01*
G37*
%TD.AperFunction*%
%TO.P,R21,2*%
%TO.N,Net-(R21-Pad2)*%
%TA.AperFunction,SMDPad,CuDef*%
G36*
G01*
X95706250Y-115524100D02*
X94793750Y-115524100D01*
G75*
G02*
X94550000Y-115280350I0J243750D01*
G01*
X94550000Y-114792850D01*
G75*
G02*
X94793750Y-114549100I243750J0D01*
G01*
X95706250Y-114549100D01*
G75*
G02*
X95950000Y-114792850I0J-243750D01*
G01*
X95950000Y-115280350D01*
G75*
G02*
X95706250Y-115524100I-243750J0D01*
G01*
G37*
%TD.AperFunction*%
%TD*%
%TO.P,R22,2*%
%TO.N,Net-(PR1-Pad1)*%
%TA.AperFunction,SMDPad,CuDef*%
G36*
G01*
X128082700Y-106475850D02*
X128082700Y-105563350D01*
G75*
G02*
X128326450Y-105319600I243750J0D01*
G01*
X128813950Y-105319600D01*
G75*
G02*
X129057700Y-105563350I0J-243750D01*
G01*
X129057700Y-106475850D01*
G75*
G02*
X128813950Y-106719600I-243750J0D01*
G01*
X128326450Y-106719600D01*
G75*
G02*
X128082700Y-106475850I0J243750D01*
G01*
G37*
%TD.AperFunction*%
%TO.P,R22,1*%
%TO.N,Net-(R11-Pad2)*%
%TA.AperFunction,SMDPad,CuDef*%
G36*
G01*
X126207700Y-106475850D02*
X126207700Y-105563350D01*
G75*
G02*
X126451450Y-105319600I243750J0D01*
G01*
X126938950Y-105319600D01*
G75*
G02*
X127182700Y-105563350I0J-243750D01*
G01*
X127182700Y-106475850D01*
G75*
G02*
X126938950Y-106719600I-243750J0D01*
G01*
X126451450Y-106719600D01*
G75*
G02*
X126207700Y-106475850I0J243750D01*
G01*
G37*
%TD.AperFunction*%
%TD*%
%TO.P,R23,2*%
%TO.N,Net-(R21-Pad2)*%
%TA.AperFunction,SMDPad,CuDef*%
G36*
G01*
X93320550Y-109723100D02*
X94233050Y-109723100D01*
G75*
G02*
X94476800Y-109966850I0J-243750D01*
G01*
X94476800Y-110454350D01*
G75*
G02*
X94233050Y-110698100I-243750J0D01*
G01*
X93320550Y-110698100D01*
G75*
G02*
X93076800Y-110454350I0J243750D01*
G01*
X93076800Y-109966850D01*
G75*
G02*
X93320550Y-109723100I243750J0D01*
G01*
G37*
%TD.AperFunction*%
%TO.P,R23,1*%
%TO.N,Net-(R16-Pad1)*%
%TA.AperFunction,SMDPad,CuDef*%
G36*
G01*
X93320550Y-107848100D02*
X94233050Y-107848100D01*
G75*
G02*
X94476800Y-108091850I0J-243750D01*
G01*
X94476800Y-108579350D01*
G75*
G02*
X94233050Y-108823100I-243750J0D01*
G01*
X93320550Y-108823100D01*
G75*
G02*
X93076800Y-108579350I0J243750D01*
G01*
X93076800Y-108091850D01*
G75*
G02*
X93320550Y-107848100I243750J0D01*
G01*
G37*
%TD.AperFunction*%
%TD*%
%TO.P,R24,2*%
%TO.N,Net-(C3-Pad1)*%
%TA.AperFunction,SMDPad,CuDef*%
G36*
G01*
X111981400Y-69544250D02*
X111981400Y-68631750D01*
G75*
G02*
X112225150Y-68388000I243750J0D01*
G01*
X112712650Y-68388000D01*
G75*
G02*
X112956400Y-68631750I0J-243750D01*
G01*
X112956400Y-69544250D01*
G75*
G02*
X112712650Y-69788000I-243750J0D01*
G01*
X112225150Y-69788000D01*
G75*
G02*
X111981400Y-69544250I0J243750D01*
G01*
G37*
%TD.AperFunction*%
%TO.P,R24,1*%
%TO.N,Net-(D8-Pad1)*%
%TA.AperFunction,SMDPad,CuDef*%
G36*
G01*
X110106400Y-69544250D02*
X110106400Y-68631750D01*
G75*
G02*
X110350150Y-68388000I243750J0D01*
G01*
X110837650Y-68388000D01*
G75*
G02*
X111081400Y-68631750I0J-243750D01*
G01*
X111081400Y-69544250D01*
G75*
G02*
X110837650Y-69788000I-243750J0D01*
G01*
X110350150Y-69788000D01*
G75*
G02*
X110106400Y-69544250I0J243750D01*
G01*
G37*
%TD.AperFunction*%
%TD*%
%TO.P,R25,2*%
%TO.N,Net-(R25-Pad2)*%
%TA.AperFunction,SMDPad,CuDef*%
G36*
G01*
X82320450Y-121950300D02*
X81407950Y-121950300D01*
G75*
G02*
X81164200Y-121706550I0J243750D01*
G01*
X81164200Y-121219050D01*
G75*
G02*
X81407950Y-120975300I243750J0D01*
G01*
X82320450Y-120975300D01*
G75*
G02*
X82564200Y-121219050I0J-243750D01*
G01*
X82564200Y-121706550D01*
G75*
G02*
X82320450Y-121950300I-243750J0D01*
G01*
G37*
%TD.AperFunction*%
%TO.P,R25,1*%
%TO.N,VAA*%
%TA.AperFunction,SMDPad,CuDef*%
G36*
G01*
X82320450Y-123825300D02*
X81407950Y-123825300D01*
G75*
G02*
X81164200Y-123581550I0J243750D01*
G01*
X81164200Y-123094050D01*
G75*
G02*
X81407950Y-122850300I243750J0D01*
G01*
X82320450Y-122850300D01*
G75*
G02*
X82564200Y-123094050I0J-243750D01*
G01*
X82564200Y-123581550D01*
G75*
G02*
X82320450Y-123825300I-243750J0D01*
G01*
G37*
%TD.AperFunction*%
%TD*%
%TO.P,R26,1*%
%TO.N,Net-(R26-Pad1)*%
%TA.AperFunction,SMDPad,CuDef*%
G36*
G01*
X83057050Y-55550100D02*
X82144550Y-55550100D01*
G75*
G02*
X81900800Y-55306350I0J243750D01*
G01*
X81900800Y-54818850D01*
G75*
G02*
X82144550Y-54575100I243750J0D01*
G01*
X83057050Y-54575100D01*
G75*
G02*
X83300800Y-54818850I0J-243750D01*
G01*
X83300800Y-55306350D01*
G75*
G02*
X83057050Y-55550100I-243750J0D01*
G01*
G37*
%TD.AperFunction*%
%TO.P,R26,2*%
%TO.N,VCC*%
%TA.AperFunction,SMDPad,CuDef*%
G36*
G01*
X83057050Y-53675100D02*
X82144550Y-53675100D01*
G75*
G02*
X81900800Y-53431350I0J243750D01*
G01*
X81900800Y-52943850D01*
G75*
G02*
X82144550Y-52700100I243750J0D01*
G01*
X83057050Y-52700100D01*
G75*
G02*
X83300800Y-52943850I0J-243750D01*
G01*
X83300800Y-53431350D01*
G75*
G02*
X83057050Y-53675100I-243750J0D01*
G01*
G37*
%TD.AperFunction*%
%TD*%
%TO.P,R27,1*%
%TO.N,Net-(R17-Pad2)*%
%TA.AperFunction,SMDPad,CuDef*%
G36*
G01*
X90092850Y-65125900D02*
X89180350Y-65125900D01*
G75*
G02*
X88936600Y-64882150I0J243750D01*
G01*
X88936600Y-64394650D01*
G75*
G02*
X89180350Y-64150900I243750J0D01*
G01*
X90092850Y-64150900D01*
G75*
G02*
X90336600Y-64394650I0J-243750D01*
G01*
X90336600Y-64882150D01*
G75*
G02*
X90092850Y-65125900I-243750J0D01*
G01*
G37*
%TD.AperFunction*%
%TO.P,R27,2*%
%TO.N,Net-(R27-Pad2)*%
%TA.AperFunction,SMDPad,CuDef*%
G36*
G01*
X90092850Y-63250900D02*
X89180350Y-63250900D01*
G75*
G02*
X88936600Y-63007150I0J243750D01*
G01*
X88936600Y-62519650D01*
G75*
G02*
X89180350Y-62275900I243750J0D01*
G01*
X90092850Y-62275900D01*
G75*
G02*
X90336600Y-62519650I0J-243750D01*
G01*
X90336600Y-63007150D01*
G75*
G02*
X90092850Y-63250900I-243750J0D01*
G01*
G37*
%TD.AperFunction*%
%TD*%
%TO.P,R29,2*%
%TO.N,VCC*%
%TA.AperFunction,SMDPad,CuDef*%
G36*
G01*
X90118250Y-59415500D02*
X89205750Y-59415500D01*
G75*
G02*
X88962000Y-59171750I0J243750D01*
G01*
X88962000Y-58684250D01*
G75*
G02*
X89205750Y-58440500I243750J0D01*
G01*
X90118250Y-58440500D01*
G75*
G02*
X90362000Y-58684250I0J-243750D01*
G01*
X90362000Y-59171750D01*
G75*
G02*
X90118250Y-59415500I-243750J0D01*
G01*
G37*
%TD.AperFunction*%
%TO.P,R29,1*%
%TO.N,Net-(R27-Pad2)*%
%TA.AperFunction,SMDPad,CuDef*%
G36*
G01*
X90118250Y-61290500D02*
X89205750Y-61290500D01*
G75*
G02*
X88962000Y-61046750I0J243750D01*
G01*
X88962000Y-60559250D01*
G75*
G02*
X89205750Y-60315500I243750J0D01*
G01*
X90118250Y-60315500D01*
G75*
G02*
X90362000Y-60559250I0J-243750D01*
G01*
X90362000Y-61046750D01*
G75*
G02*
X90118250Y-61290500I-243750J0D01*
G01*
G37*
%TD.AperFunction*%
%TD*%
%TO.P,R30,2*%
%TO.N,Net-(R30-Pad2)*%
%TA.AperFunction,SMDPad,CuDef*%
G36*
G01*
X116239900Y-63297750D02*
X116239900Y-64210250D01*
G75*
G02*
X115996150Y-64454000I-243750J0D01*
G01*
X115508650Y-64454000D01*
G75*
G02*
X115264900Y-64210250I0J243750D01*
G01*
X115264900Y-63297750D01*
G75*
G02*
X115508650Y-63054000I243750J0D01*
G01*
X115996150Y-63054000D01*
G75*
G02*
X116239900Y-63297750I0J-243750D01*
G01*
G37*
%TD.AperFunction*%
%TO.P,R30,1*%
%TO.N,Net-(R30-Pad1)*%
%TA.AperFunction,SMDPad,CuDef*%
G36*
G01*
X118114900Y-63297750D02*
X118114900Y-64210250D01*
G75*
G02*
X117871150Y-64454000I-243750J0D01*
G01*
X117383650Y-64454000D01*
G75*
G02*
X117139900Y-64210250I0J243750D01*
G01*
X117139900Y-63297750D01*
G75*
G02*
X117383650Y-63054000I243750J0D01*
G01*
X117871150Y-63054000D01*
G75*
G02*
X118114900Y-63297750I0J-243750D01*
G01*
G37*
%TD.AperFunction*%
%TD*%
%TO.P,R31,2*%
%TO.N,Net-(R17-Pad2)*%
%TA.AperFunction,SMDPad,CuDef*%
G36*
G01*
X96139950Y-60594900D02*
X97052450Y-60594900D01*
G75*
G02*
X97296200Y-60838650I0J-243750D01*
G01*
X97296200Y-61326150D01*
G75*
G02*
X97052450Y-61569900I-243750J0D01*
G01*
X96139950Y-61569900D01*
G75*
G02*
X95896200Y-61326150I0J243750D01*
G01*
X95896200Y-60838650D01*
G75*
G02*
X96139950Y-60594900I243750J0D01*
G01*
G37*
%TD.AperFunction*%
%TO.P,R31,1*%
%TO.N,Net-(R30-Pad1)*%
%TA.AperFunction,SMDPad,CuDef*%
G36*
G01*
X96139950Y-58719900D02*
X97052450Y-58719900D01*
G75*
G02*
X97296200Y-58963650I0J-243750D01*
G01*
X97296200Y-59451150D01*
G75*
G02*
X97052450Y-59694900I-243750J0D01*
G01*
X96139950Y-59694900D01*
G75*
G02*
X95896200Y-59451150I0J243750D01*
G01*
X95896200Y-58963650D01*
G75*
G02*
X96139950Y-58719900I243750J0D01*
G01*
G37*
%TD.AperFunction*%
%TD*%
%TO.P,R32,2*%
%TO.N,Net-(C3-Pad1)*%
%TA.AperFunction,SMDPad,CuDef*%
G36*
G01*
X132588950Y-106391100D02*
X133501450Y-106391100D01*
G75*
G02*
X133745200Y-106634850I0J-243750D01*
G01*
X133745200Y-107122350D01*
G75*
G02*
X133501450Y-107366100I-243750J0D01*
G01*
X132588950Y-107366100D01*
G75*
G02*
X132345200Y-107122350I0J243750D01*
G01*
X132345200Y-106634850D01*
G75*
G02*
X132588950Y-106391100I243750J0D01*
G01*
G37*
%TD.AperFunction*%
%TO.P,R32,1*%
%TO.N,Net-(R32-Pad1)*%
%TA.AperFunction,SMDPad,CuDef*%
G36*
G01*
X132588950Y-104516100D02*
X133501450Y-104516100D01*
G75*
G02*
X133745200Y-104759850I0J-243750D01*
G01*
X133745200Y-105247350D01*
G75*
G02*
X133501450Y-105491100I-243750J0D01*
G01*
X132588950Y-105491100D01*
G75*
G02*
X132345200Y-105247350I0J243750D01*
G01*
X132345200Y-104759850D01*
G75*
G02*
X132588950Y-104516100I243750J0D01*
G01*
G37*
%TD.AperFunction*%
%TD*%
%TO.P,R33,1*%
%TO.N,Net-(D9-Pad1)*%
%TA.AperFunction,SMDPad,CuDef*%
G36*
G01*
X132665150Y-99999500D02*
X133577650Y-99999500D01*
G75*
G02*
X133821400Y-100243250I0J-243750D01*
G01*
X133821400Y-100730750D01*
G75*
G02*
X133577650Y-100974500I-243750J0D01*
G01*
X132665150Y-100974500D01*
G75*
G02*
X132421400Y-100730750I0J243750D01*
G01*
X132421400Y-100243250D01*
G75*
G02*
X132665150Y-99999500I243750J0D01*
G01*
G37*
%TD.AperFunction*%
%TO.P,R33,2*%
%TO.N,Net-(R32-Pad1)*%
%TA.AperFunction,SMDPad,CuDef*%
G36*
G01*
X132665150Y-101874500D02*
X133577650Y-101874500D01*
G75*
G02*
X133821400Y-102118250I0J-243750D01*
G01*
X133821400Y-102605750D01*
G75*
G02*
X133577650Y-102849500I-243750J0D01*
G01*
X132665150Y-102849500D01*
G75*
G02*
X132421400Y-102605750I0J243750D01*
G01*
X132421400Y-102118250D01*
G75*
G02*
X132665150Y-101874500I243750J0D01*
G01*
G37*
%TD.AperFunction*%
%TD*%
%TO.P,R34,2*%
%TO.N,Net-(Q6-Pad1)*%
%TA.AperFunction,SMDPad,CuDef*%
G36*
G01*
X149875900Y-49579850D02*
X149875900Y-48667350D01*
G75*
G02*
X150119650Y-48423600I243750J0D01*
G01*
X150607150Y-48423600D01*
G75*
G02*
X150850900Y-48667350I0J-243750D01*
G01*
X150850900Y-49579850D01*
G75*
G02*
X150607150Y-49823600I-243750J0D01*
G01*
X150119650Y-49823600D01*
G75*
G02*
X149875900Y-49579850I0J243750D01*
G01*
G37*
%TD.AperFunction*%
%TO.P,R34,1*%
%TO.N,Net-(R34-Pad1)*%
%TA.AperFunction,SMDPad,CuDef*%
G36*
G01*
X148000900Y-49579850D02*
X148000900Y-48667350D01*
G75*
G02*
X148244650Y-48423600I243750J0D01*
G01*
X148732150Y-48423600D01*
G75*
G02*
X148975900Y-48667350I0J-243750D01*
G01*
X148975900Y-49579850D01*
G75*
G02*
X148732150Y-49823600I-243750J0D01*
G01*
X148244650Y-49823600D01*
G75*
G02*
X148000900Y-49579850I0J243750D01*
G01*
G37*
%TD.AperFunction*%
%TD*%
%TO.P,R35,2*%
%TO.N,Net-(R2-Pad1)*%
%TA.AperFunction,SMDPad,CuDef*%
G36*
G01*
X159849400Y-101956550D02*
X159849400Y-102869050D01*
G75*
G02*
X159605650Y-103112800I-243750J0D01*
G01*
X159118150Y-103112800D01*
G75*
G02*
X158874400Y-102869050I0J243750D01*
G01*
X158874400Y-101956550D01*
G75*
G02*
X159118150Y-101712800I243750J0D01*
G01*
X159605650Y-101712800D01*
G75*
G02*
X159849400Y-101956550I0J-243750D01*
G01*
G37*
%TD.AperFunction*%
%TO.P,R35,1*%
%TO.N,Net-(R35-Pad1)*%
%TA.AperFunction,SMDPad,CuDef*%
G36*
G01*
X161724400Y-101956550D02*
X161724400Y-102869050D01*
G75*
G02*
X161480650Y-103112800I-243750J0D01*
G01*
X160993150Y-103112800D01*
G75*
G02*
X160749400Y-102869050I0J243750D01*
G01*
X160749400Y-101956550D01*
G75*
G02*
X160993150Y-101712800I243750J0D01*
G01*
X161480650Y-101712800D01*
G75*
G02*
X161724400Y-101956550I0J-243750D01*
G01*
G37*
%TD.AperFunction*%
%TD*%
%TO.P,R36,1*%
%TO.N,Net-(R36-Pad1)*%
%TA.AperFunction,SMDPad,CuDef*%
G36*
G01*
X155193050Y-49301700D02*
X154280550Y-49301700D01*
G75*
G02*
X154036800Y-49057950I0J243750D01*
G01*
X154036800Y-48570450D01*
G75*
G02*
X154280550Y-48326700I243750J0D01*
G01*
X155193050Y-48326700D01*
G75*
G02*
X155436800Y-48570450I0J-243750D01*
G01*
X155436800Y-49057950D01*
G75*
G02*
X155193050Y-49301700I-243750J0D01*
G01*
G37*
%TD.AperFunction*%
%TO.P,R36,2*%
%TO.N,Net-(C12-Pad2)*%
%TA.AperFunction,SMDPad,CuDef*%
G36*
G01*
X155193050Y-47426700D02*
X154280550Y-47426700D01*
G75*
G02*
X154036800Y-47182950I0J243750D01*
G01*
X154036800Y-46695450D01*
G75*
G02*
X154280550Y-46451700I243750J0D01*
G01*
X155193050Y-46451700D01*
G75*
G02*
X155436800Y-46695450I0J-243750D01*
G01*
X155436800Y-47182950D01*
G75*
G02*
X155193050Y-47426700I-243750J0D01*
G01*
G37*
%TD.AperFunction*%
%TD*%
%TO.P,R37,1*%
%TO.N,VCC*%
%TA.AperFunction,SMDPad,CuDef*%
G36*
G01*
X136037500Y-47827250D02*
X136037500Y-46914750D01*
G75*
G02*
X136281250Y-46671000I243750J0D01*
G01*
X136768750Y-46671000D01*
G75*
G02*
X137012500Y-46914750I0J-243750D01*
G01*
X137012500Y-47827250D01*
G75*
G02*
X136768750Y-48071000I-243750J0D01*
G01*
X136281250Y-48071000D01*
G75*
G02*
X136037500Y-47827250I0J243750D01*
G01*
G37*
%TD.AperFunction*%
%TO.P,R37,2*%
%TO.N,Net-(C12-Pad2)*%
%TA.AperFunction,SMDPad,CuDef*%
G36*
G01*
X137912500Y-47827250D02*
X137912500Y-46914750D01*
G75*
G02*
X138156250Y-46671000I243750J0D01*
G01*
X138643750Y-46671000D01*
G75*
G02*
X138887500Y-46914750I0J-243750D01*
G01*
X138887500Y-47827250D01*
G75*
G02*
X138643750Y-48071000I-243750J0D01*
G01*
X138156250Y-48071000D01*
G75*
G02*
X137912500Y-47827250I0J243750D01*
G01*
G37*
%TD.AperFunction*%
%TD*%
%TO.P,R38,2*%
%TO.N,Net-(C12-Pad2)*%
%TA.AperFunction,SMDPad,CuDef*%
G36*
G01*
X146709450Y-47274300D02*
X145796950Y-47274300D01*
G75*
G02*
X145553200Y-47030550I0J243750D01*
G01*
X145553200Y-46543050D01*
G75*
G02*
X145796950Y-46299300I243750J0D01*
G01*
X146709450Y-46299300D01*
G75*
G02*
X146953200Y-46543050I0J-243750D01*
G01*
X146953200Y-47030550D01*
G75*
G02*
X146709450Y-47274300I-243750J0D01*
G01*
G37*
%TD.AperFunction*%
%TO.P,R38,1*%
%TO.N,Net-(R34-Pad1)*%
%TA.AperFunction,SMDPad,CuDef*%
G36*
G01*
X146709450Y-49149300D02*
X145796950Y-49149300D01*
G75*
G02*
X145553200Y-48905550I0J243750D01*
G01*
X145553200Y-48418050D01*
G75*
G02*
X145796950Y-48174300I243750J0D01*
G01*
X146709450Y-48174300D01*
G75*
G02*
X146953200Y-48418050I0J-243750D01*
G01*
X146953200Y-48905550D01*
G75*
G02*
X146709450Y-49149300I-243750J0D01*
G01*
G37*
%TD.AperFunction*%
%TD*%
%TO.P,R39,2*%
%TO.N,GND*%
%TA.AperFunction,SMDPad,CuDef*%
G36*
G01*
X146099850Y-98379100D02*
X145187350Y-98379100D01*
G75*
G02*
X144943600Y-98135350I0J243750D01*
G01*
X144943600Y-97647850D01*
G75*
G02*
X145187350Y-97404100I243750J0D01*
G01*
X146099850Y-97404100D01*
G75*
G02*
X146343600Y-97647850I0J-243750D01*
G01*
X146343600Y-98135350D01*
G75*
G02*
X146099850Y-98379100I-243750J0D01*
G01*
G37*
%TD.AperFunction*%
%TO.P,R39,1*%
%TO.N,Net-(C11-Pad2)*%
%TA.AperFunction,SMDPad,CuDef*%
G36*
G01*
X146099850Y-100254100D02*
X145187350Y-100254100D01*
G75*
G02*
X144943600Y-100010350I0J243750D01*
G01*
X144943600Y-99522850D01*
G75*
G02*
X145187350Y-99279100I243750J0D01*
G01*
X146099850Y-99279100D01*
G75*
G02*
X146343600Y-99522850I0J-243750D01*
G01*
X146343600Y-100010350D01*
G75*
G02*
X146099850Y-100254100I-243750J0D01*
G01*
G37*
%TD.AperFunction*%
%TD*%
%TO.P,R40,1*%
%TO.N,Net-(R40-Pad1)*%
%TA.AperFunction,SMDPad,CuDef*%
G36*
G01*
X146736100Y-73686350D02*
X146736100Y-74598850D01*
G75*
G02*
X146492350Y-74842600I-243750J0D01*
G01*
X146004850Y-74842600D01*
G75*
G02*
X145761100Y-74598850I0J243750D01*
G01*
X145761100Y-73686350D01*
G75*
G02*
X146004850Y-73442600I243750J0D01*
G01*
X146492350Y-73442600D01*
G75*
G02*
X146736100Y-73686350I0J-243750D01*
G01*
G37*
%TD.AperFunction*%
%TO.P,R40,2*%
%TO.N,Net-(C2-Pad1)*%
%TA.AperFunction,SMDPad,CuDef*%
G36*
G01*
X144861100Y-73686350D02*
X144861100Y-74598850D01*
G75*
G02*
X144617350Y-74842600I-243750J0D01*
G01*
X144129850Y-74842600D01*
G75*
G02*
X143886100Y-74598850I0J243750D01*
G01*
X143886100Y-73686350D01*
G75*
G02*
X144129850Y-73442600I243750J0D01*
G01*
X144617350Y-73442600D01*
G75*
G02*
X144861100Y-73686350I0J-243750D01*
G01*
G37*
%TD.AperFunction*%
%TD*%
%TO.P,R41,1*%
%TO.N,Net-(R13-Pad2)*%
%TA.AperFunction,SMDPad,CuDef*%
G36*
G01*
X135554900Y-120445850D02*
X135554900Y-119533350D01*
G75*
G02*
X135798650Y-119289600I243750J0D01*
G01*
X136286150Y-119289600D01*
G75*
G02*
X136529900Y-119533350I0J-243750D01*
G01*
X136529900Y-120445850D01*
G75*
G02*
X136286150Y-120689600I-243750J0D01*
G01*
X135798650Y-120689600D01*
G75*
G02*
X135554900Y-120445850I0J243750D01*
G01*
G37*
%TD.AperFunction*%
%TO.P,R41,2*%
%TO.N,Net-(R41-Pad2)*%
%TA.AperFunction,SMDPad,CuDef*%
G36*
G01*
X137429900Y-120445850D02*
X137429900Y-119533350D01*
G75*
G02*
X137673650Y-119289600I243750J0D01*
G01*
X138161150Y-119289600D01*
G75*
G02*
X138404900Y-119533350I0J-243750D01*
G01*
X138404900Y-120445850D01*
G75*
G02*
X138161150Y-120689600I-243750J0D01*
G01*
X137673650Y-120689600D01*
G75*
G02*
X137429900Y-120445850I0J243750D01*
G01*
G37*
%TD.AperFunction*%
%TD*%
%TO.P,R42,2*%
%TO.N,Net-(C5-Pad1)*%
%TA.AperFunction,SMDPad,CuDef*%
G36*
G01*
X132104450Y-122867000D02*
X131191950Y-122867000D01*
G75*
G02*
X130948200Y-122623250I0J243750D01*
G01*
X130948200Y-122135750D01*
G75*
G02*
X131191950Y-121892000I243750J0D01*
G01*
X132104450Y-121892000D01*
G75*
G02*
X132348200Y-122135750I0J-243750D01*
G01*
X132348200Y-122623250D01*
G75*
G02*
X132104450Y-122867000I-243750J0D01*
G01*
G37*
%TD.AperFunction*%
%TO.P,R42,1*%
%TO.N,VAA*%
%TA.AperFunction,SMDPad,CuDef*%
G36*
G01*
X132104450Y-124742000D02*
X131191950Y-124742000D01*
G75*
G02*
X130948200Y-124498250I0J243750D01*
G01*
X130948200Y-124010750D01*
G75*
G02*
X131191950Y-123767000I243750J0D01*
G01*
X132104450Y-123767000D01*
G75*
G02*
X132348200Y-124010750I0J-243750D01*
G01*
X132348200Y-124498250D01*
G75*
G02*
X132104450Y-124742000I-243750J0D01*
G01*
G37*
%TD.AperFunction*%
%TD*%
%TO.P,R43,1*%
%TO.N,Net-(C5-Pad1)*%
%TA.AperFunction,SMDPad,CuDef*%
G36*
G01*
X132104450Y-120599500D02*
X131191950Y-120599500D01*
G75*
G02*
X130948200Y-120355750I0J243750D01*
G01*
X130948200Y-119868250D01*
G75*
G02*
X131191950Y-119624500I243750J0D01*
G01*
X132104450Y-119624500D01*
G75*
G02*
X132348200Y-119868250I0J-243750D01*
G01*
X132348200Y-120355750D01*
G75*
G02*
X132104450Y-120599500I-243750J0D01*
G01*
G37*
%TD.AperFunction*%
%TO.P,R43,2*%
%TO.N,Net-(R30-Pad2)*%
%TA.AperFunction,SMDPad,CuDef*%
G36*
G01*
X132104450Y-118724500D02*
X131191950Y-118724500D01*
G75*
G02*
X130948200Y-118480750I0J243750D01*
G01*
X130948200Y-117993250D01*
G75*
G02*
X131191950Y-117749500I243750J0D01*
G01*
X132104450Y-117749500D01*
G75*
G02*
X132348200Y-117993250I0J-243750D01*
G01*
X132348200Y-118480750D01*
G75*
G02*
X132104450Y-118724500I-243750J0D01*
G01*
G37*
%TD.AperFunction*%
%TD*%
%TO.P,R44,2*%
%TO.N,Net-(D5-Pad2)*%
%TA.AperFunction,SMDPad,CuDef*%
G36*
G01*
X131621850Y-55427700D02*
X130709350Y-55427700D01*
G75*
G02*
X130465600Y-55183950I0J243750D01*
G01*
X130465600Y-54696450D01*
G75*
G02*
X130709350Y-54452700I243750J0D01*
G01*
X131621850Y-54452700D01*
G75*
G02*
X131865600Y-54696450I0J-243750D01*
G01*
X131865600Y-55183950D01*
G75*
G02*
X131621850Y-55427700I-243750J0D01*
G01*
G37*
%TD.AperFunction*%
%TO.P,R44,1*%
%TO.N,Net-(D9-Pad2)*%
%TA.AperFunction,SMDPad,CuDef*%
G36*
G01*
X131621850Y-57302700D02*
X130709350Y-57302700D01*
G75*
G02*
X130465600Y-57058950I0J243750D01*
G01*
X130465600Y-56571450D01*
G75*
G02*
X130709350Y-56327700I243750J0D01*
G01*
X131621850Y-56327700D01*
G75*
G02*
X131865600Y-56571450I0J-243750D01*
G01*
X131865600Y-57058950D01*
G75*
G02*
X131621850Y-57302700I-243750J0D01*
G01*
G37*
%TD.AperFunction*%
%TD*%
%TO.P,R45,1*%
%TO.N,Net-(R45-Pad1)*%
%TA.AperFunction,SMDPad,CuDef*%
G36*
G01*
X125424250Y-49177000D02*
X124511750Y-49177000D01*
G75*
G02*
X124268000Y-48933250I0J243750D01*
G01*
X124268000Y-48445750D01*
G75*
G02*
X124511750Y-48202000I243750J0D01*
G01*
X125424250Y-48202000D01*
G75*
G02*
X125668000Y-48445750I0J-243750D01*
G01*
X125668000Y-48933250D01*
G75*
G02*
X125424250Y-49177000I-243750J0D01*
G01*
G37*
%TD.AperFunction*%
%TO.P,R45,2*%
%TO.N,VCC*%
%TA.AperFunction,SMDPad,CuDef*%
G36*
G01*
X125424250Y-47302000D02*
X124511750Y-47302000D01*
G75*
G02*
X124268000Y-47058250I0J243750D01*
G01*
X124268000Y-46570750D01*
G75*
G02*
X124511750Y-46327000I243750J0D01*
G01*
X125424250Y-46327000D01*
G75*
G02*
X125668000Y-46570750I0J-243750D01*
G01*
X125668000Y-47058250D01*
G75*
G02*
X125424250Y-47302000I-243750J0D01*
G01*
G37*
%TD.AperFunction*%
%TD*%
%TO.P,R47,2*%
%TO.N,Net-(C15-Pad1)*%
%TA.AperFunction,SMDPad,CuDef*%
G36*
G01*
X148641750Y-76499900D02*
X149554250Y-76499900D01*
G75*
G02*
X149798000Y-76743650I0J-243750D01*
G01*
X149798000Y-77231150D01*
G75*
G02*
X149554250Y-77474900I-243750J0D01*
G01*
X148641750Y-77474900D01*
G75*
G02*
X148398000Y-77231150I0J243750D01*
G01*
X148398000Y-76743650D01*
G75*
G02*
X148641750Y-76499900I243750J0D01*
G01*
G37*
%TD.AperFunction*%
%TO.P,R47,1*%
%TO.N,Net-(R40-Pad1)*%
%TA.AperFunction,SMDPad,CuDef*%
G36*
G01*
X148641750Y-74624900D02*
X149554250Y-74624900D01*
G75*
G02*
X149798000Y-74868650I0J-243750D01*
G01*
X149798000Y-75356150D01*
G75*
G02*
X149554250Y-75599900I-243750J0D01*
G01*
X148641750Y-75599900D01*
G75*
G02*
X148398000Y-75356150I0J243750D01*
G01*
X148398000Y-74868650D01*
G75*
G02*
X148641750Y-74624900I243750J0D01*
G01*
G37*
%TD.AperFunction*%
%TD*%
%TO.P,R48,1*%
%TO.N,Net-(C1-Pad2)*%
%TA.AperFunction,SMDPad,CuDef*%
G36*
G01*
X164921250Y-88854100D02*
X164008750Y-88854100D01*
G75*
G02*
X163765000Y-88610350I0J243750D01*
G01*
X163765000Y-88122850D01*
G75*
G02*
X164008750Y-87879100I243750J0D01*
G01*
X164921250Y-87879100D01*
G75*
G02*
X165165000Y-88122850I0J-243750D01*
G01*
X165165000Y-88610350D01*
G75*
G02*
X164921250Y-88854100I-243750J0D01*
G01*
G37*
%TD.AperFunction*%
%TO.P,R48,2*%
%TO.N,GND*%
%TA.AperFunction,SMDPad,CuDef*%
G36*
G01*
X164921250Y-86979100D02*
X164008750Y-86979100D01*
G75*
G02*
X163765000Y-86735350I0J243750D01*
G01*
X163765000Y-86247850D01*
G75*
G02*
X164008750Y-86004100I243750J0D01*
G01*
X164921250Y-86004100D01*
G75*
G02*
X165165000Y-86247850I0J-243750D01*
G01*
X165165000Y-86735350D01*
G75*
G02*
X164921250Y-86979100I-243750J0D01*
G01*
G37*
%TD.AperFunction*%
%TD*%
%TO.P,R49,1*%
%TO.N,Net-(R49-Pad1)*%
%TA.AperFunction,SMDPad,CuDef*%
G36*
G01*
X145490900Y-115950050D02*
X145490900Y-115037550D01*
G75*
G02*
X145734650Y-114793800I243750J0D01*
G01*
X146222150Y-114793800D01*
G75*
G02*
X146465900Y-115037550I0J-243750D01*
G01*
X146465900Y-115950050D01*
G75*
G02*
X146222150Y-116193800I-243750J0D01*
G01*
X145734650Y-116193800D01*
G75*
G02*
X145490900Y-115950050I0J243750D01*
G01*
G37*
%TD.AperFunction*%
%TO.P,R49,2*%
%TO.N,Net-(C11-Pad2)*%
%TA.AperFunction,SMDPad,CuDef*%
G36*
G01*
X147365900Y-115950050D02*
X147365900Y-115037550D01*
G75*
G02*
X147609650Y-114793800I243750J0D01*
G01*
X148097150Y-114793800D01*
G75*
G02*
X148340900Y-115037550I0J-243750D01*
G01*
X148340900Y-115950050D01*
G75*
G02*
X148097150Y-116193800I-243750J0D01*
G01*
X147609650Y-116193800D01*
G75*
G02*
X147365900Y-115950050I0J243750D01*
G01*
G37*
%TD.AperFunction*%
%TD*%
D21*
%TO.P,RG1,1*%
%TO.N,N/C*%
X112034400Y-63677800D03*
%TO.P,RG1,2*%
%TO.N,Net-(R30-Pad2)*%
X110134400Y-63677800D03*
%TO.P,RG1,3*%
%TO.N,Net-(R17-Pad2)*%
X111084400Y-65677800D03*
%TD*%
%TO.P,SW1,1*%
%TO.N,VAA*%
%TA.AperFunction,SMDPad,CuDef*%
G36*
G01*
X154367400Y-119822300D02*
X154367400Y-119547300D01*
G75*
G02*
X154504900Y-119409800I137500J0D01*
G01*
X155679900Y-119409800D01*
G75*
G02*
X155817400Y-119547300I0J-137500D01*
G01*
X155817400Y-119822300D01*
G75*
G02*
X155679900Y-119959800I-137500J0D01*
G01*
X154504900Y-119959800D01*
G75*
G02*
X154367400Y-119822300I0J137500D01*
G01*
G37*
%TD.AperFunction*%
%TO.P,SW1,2*%
%TO.N,Net-(D9-Pad2)*%
%TA.AperFunction,SMDPad,CuDef*%
G36*
G01*
X154367400Y-122362300D02*
X154367400Y-122087300D01*
G75*
G02*
X154504900Y-121949800I137500J0D01*
G01*
X155679900Y-121949800D01*
G75*
G02*
X155817400Y-122087300I0J-137500D01*
G01*
X155817400Y-122362300D01*
G75*
G02*
X155679900Y-122499800I-137500J0D01*
G01*
X154504900Y-122499800D01*
G75*
G02*
X154367400Y-122362300I0J137500D01*
G01*
G37*
%TD.AperFunction*%
%TO.P,SW1,3*%
%TO.N,N/C*%
%TA.AperFunction,SMDPad,CuDef*%
G36*
G01*
X159867400Y-122362300D02*
X159867400Y-122087300D01*
G75*
G02*
X160004900Y-121949800I137500J0D01*
G01*
X161179900Y-121949800D01*
G75*
G02*
X161317400Y-122087300I0J-137500D01*
G01*
X161317400Y-122362300D01*
G75*
G02*
X161179900Y-122499800I-137500J0D01*
G01*
X160004900Y-122499800D01*
G75*
G02*
X159867400Y-122362300I0J137500D01*
G01*
G37*
%TD.AperFunction*%
%TO.P,SW1,4*%
%TA.AperFunction,SMDPad,CuDef*%
G36*
G01*
X159867400Y-119822300D02*
X159867400Y-119547300D01*
G75*
G02*
X160004900Y-119409800I137500J0D01*
G01*
X161179900Y-119409800D01*
G75*
G02*
X161317400Y-119547300I0J-137500D01*
G01*
X161317400Y-119822300D01*
G75*
G02*
X161179900Y-119959800I-137500J0D01*
G01*
X160004900Y-119959800D01*
G75*
G02*
X159867400Y-119822300I0J137500D01*
G01*
G37*
%TD.AperFunction*%
%TD*%
D17*
%TO.P,TP3,1*%
%TO.N,Net-(TP3-Pad1)*%
X71500000Y-87000000D03*
%TD*%
D19*
%TO.P,TR1,1*%
%TO.N,Net-(C14-Pad2)*%
X162650300Y-106805600D03*
%TO.P,TR1,3*%
%TO.N,Net-(R4-Pad2)*%
X162650300Y-109805600D03*
%TA.AperFunction,SMDPad,CuDef*%
D20*
%TO.P,TR1,2*%
%TO.N,Net-(R35-Pad1)*%
G36*
X166600300Y-109172100D02*
G01*
X163475300Y-109172100D01*
X163475300Y-108755600D01*
X162000300Y-108755600D01*
X162000300Y-107855600D01*
X163475300Y-107855600D01*
X163475300Y-107439100D01*
X166600300Y-107439100D01*
X166600300Y-109172100D01*
G37*
%TD.AperFunction*%
%TD*%
D22*
%TO.P,TR2,1*%
%TO.N,Net-(C16-Pad1)*%
X165457000Y-67666600D03*
%TO.P,TR2,3*%
%TO.N,Net-(R2-Pad2)*%
X162457000Y-67666600D03*
%TA.AperFunction,SMDPad,CuDef*%
D20*
%TO.P,TR2,2*%
%TO.N,Net-(C3-Pad2)*%
G36*
X163090500Y-71616600D02*
G01*
X163090500Y-68491600D01*
X163507000Y-68491600D01*
X163507000Y-67016600D01*
X164407000Y-67016600D01*
X164407000Y-68491600D01*
X164823500Y-68491600D01*
X164823500Y-71616600D01*
X163090500Y-71616600D01*
G37*
%TD.AperFunction*%
%TD*%
%TA.AperFunction,SMDPad,CuDef*%
%TO.P,TR3,2*%
%TO.N,Net-(TR10-Pad1)*%
G36*
X156314500Y-69201000D02*
G01*
X156314500Y-72326000D01*
X155898000Y-72326000D01*
X155898000Y-73801000D01*
X154998000Y-73801000D01*
X154998000Y-72326000D01*
X154581500Y-72326000D01*
X154581500Y-69201000D01*
X156314500Y-69201000D01*
G37*
%TD.AperFunction*%
D22*
%TO.P,TR3,3*%
%TO.N,Net-(R3-Pad2)*%
X156948000Y-73151000D03*
%TO.P,TR3,1*%
%TO.N,Net-(R40-Pad1)*%
X153948000Y-73151000D03*
%TD*%
%TO.P,TR4,1*%
%TO.N,Net-(R36-Pad1)*%
X151488400Y-51638200D03*
%TO.P,TR4,3*%
%TO.N,Net-(R34-Pad1)*%
X148488400Y-51638200D03*
%TA.AperFunction,SMDPad,CuDef*%
D20*
%TO.P,TR4,2*%
%TO.N,Net-(C3-Pad1)*%
G36*
X149121900Y-55588200D02*
G01*
X149121900Y-52463200D01*
X149538400Y-52463200D01*
X149538400Y-50988200D01*
X150438400Y-50988200D01*
X150438400Y-52463200D01*
X150854900Y-52463200D01*
X150854900Y-55588200D01*
X149121900Y-55588200D01*
G37*
%TD.AperFunction*%
%TD*%
D22*
%TO.P,TR5,1*%
%TO.N,Net-(R49-Pad1)*%
X141809600Y-113120300D03*
%TO.P,TR5,3*%
%TO.N,Net-(R13-Pad2)*%
X138809600Y-113120300D03*
%TA.AperFunction,SMDPad,CuDef*%
D20*
%TO.P,TR5,2*%
%TO.N,Net-(R10-Pad1)*%
G36*
X139443100Y-117070300D02*
G01*
X139443100Y-113945300D01*
X139859600Y-113945300D01*
X139859600Y-112470300D01*
X140759600Y-112470300D01*
X140759600Y-113945300D01*
X141176100Y-113945300D01*
X141176100Y-117070300D01*
X139443100Y-117070300D01*
G37*
%TD.AperFunction*%
%TD*%
D23*
%TO.P,TR6,1*%
%TO.N,Net-(D7-Pad2)*%
X103784400Y-113360200D03*
D24*
%TO.P,TR6,2*%
%TO.N,Net-(R25-Pad2)*%
X103784400Y-110820200D03*
%TO.P,TR6,3*%
%TO.N,Net-(R16-Pad1)*%
X103784400Y-108280200D03*
%TD*%
D25*
%TO.P,TR7,1*%
%TO.N,Net-(R25-Pad2)*%
X77393800Y-116321000D03*
D26*
%TO.P,TR7,2*%
%TO.N,Net-(R16-Pad1)*%
X77393800Y-110871000D03*
%TO.P,TR7,3*%
%TO.N,VAA*%
X77393800Y-105421000D03*
%TD*%
D24*
%TO.P,TR8,3*%
%TO.N,Net-(R17-Pad2)*%
X103987600Y-61772800D03*
%TO.P,TR8,2*%
%TO.N,Net-(R26-Pad1)*%
X103987600Y-64312800D03*
D23*
%TO.P,TR8,1*%
%TO.N,Net-(D8-Pad1)*%
X103987600Y-66852800D03*
%TD*%
D26*
%TO.P,TR9,3*%
%TO.N,VCC*%
X77393800Y-58558000D03*
%TO.P,TR9,2*%
%TO.N,Net-(R17-Pad2)*%
X77393800Y-64008000D03*
D25*
%TO.P,TR9,1*%
%TO.N,Net-(R26-Pad1)*%
X77393800Y-69458000D03*
%TD*%
%TA.AperFunction,SMDPad,CuDef*%
D20*
%TO.P,TR10,2*%
%TO.N,Net-(C3-Pad2)*%
G36*
X164823500Y-58533000D02*
G01*
X164823500Y-61658000D01*
X164407000Y-61658000D01*
X164407000Y-63133000D01*
X163507000Y-63133000D01*
X163507000Y-61658000D01*
X163090500Y-61658000D01*
X163090500Y-58533000D01*
X164823500Y-58533000D01*
G37*
%TD.AperFunction*%
D22*
%TO.P,TR10,3*%
%TO.N,Net-(R6-Pad1)*%
X165457000Y-62483000D03*
%TO.P,TR10,1*%
%TO.N,Net-(TR10-Pad1)*%
X162457000Y-62483000D03*
%TD*%
%TA.AperFunction,SMDPad,CuDef*%
D20*
%TO.P,TR11,2*%
%TO.N,Net-(TR10-Pad1)*%
G36*
X153198800Y-64462300D02*
G01*
X156323800Y-64462300D01*
X156323800Y-64878800D01*
X157798800Y-64878800D01*
X157798800Y-65778800D01*
X156323800Y-65778800D01*
X156323800Y-66195300D01*
X153198800Y-66195300D01*
X153198800Y-64462300D01*
G37*
%TD.AperFunction*%
D19*
%TO.P,TR11,3*%
%TO.N,Net-(R7-Pad1)*%
X157148800Y-63828800D03*
%TO.P,TR11,1*%
%TO.N,Net-(TR10-Pad1)*%
X157148800Y-66828800D03*
%TD*%
D22*
%TO.P,TR12,1*%
%TO.N,Net-(C3-Pad2)*%
X154049600Y-57555400D03*
%TO.P,TR12,3*%
%TO.N,Net-(R36-Pad1)*%
X157049600Y-57555400D03*
%TA.AperFunction,SMDPad,CuDef*%
D20*
%TO.P,TR12,2*%
%TO.N,GND*%
G36*
X156416100Y-53605400D02*
G01*
X156416100Y-56730400D01*
X155999600Y-56730400D01*
X155999600Y-58205400D01*
X155099600Y-58205400D01*
X155099600Y-56730400D01*
X154683100Y-56730400D01*
X154683100Y-53605400D01*
X156416100Y-53605400D01*
G37*
%TD.AperFunction*%
%TD*%
D23*
%TO.P,TR13,1*%
%TO.N,Net-(R10-Pad2)*%
X111353600Y-108432600D03*
D24*
%TO.P,TR13,2*%
%TO.N,Net-(C4-Pad1)*%
X111353600Y-110972600D03*
%TO.P,TR13,3*%
%TO.N,Net-(C3-Pad1)*%
X111353600Y-113512600D03*
%TD*%
%TA.AperFunction,SMDPad,CuDef*%
D20*
%TO.P,TR14,2*%
%TO.N,Net-(C3-Pad1)*%
G36*
X125147500Y-99037500D02*
G01*
X122022500Y-99037500D01*
X122022500Y-98621000D01*
X120547500Y-98621000D01*
X120547500Y-97721000D01*
X122022500Y-97721000D01*
X122022500Y-97304500D01*
X125147500Y-97304500D01*
X125147500Y-99037500D01*
G37*
%TD.AperFunction*%
D19*
%TO.P,TR14,3*%
%TO.N,Net-(C4-Pad1)*%
X121197500Y-99671000D03*
%TO.P,TR14,1*%
%TO.N,Net-(R15-Pad2)*%
X121197500Y-96671000D03*
%TD*%
D22*
%TO.P,TR15,1*%
%TO.N,Net-(R30-Pad1)*%
X127354200Y-99516200D03*
%TO.P,TR15,3*%
%TO.N,Net-(TR15-Pad3)*%
X130354200Y-99516200D03*
%TA.AperFunction,SMDPad,CuDef*%
D20*
%TO.P,TR15,2*%
%TO.N,Net-(C4-Pad1)*%
G36*
X129720700Y-95566200D02*
G01*
X129720700Y-98691200D01*
X129304200Y-98691200D01*
X129304200Y-100166200D01*
X128404200Y-100166200D01*
X128404200Y-98691200D01*
X127987700Y-98691200D01*
X127987700Y-95566200D01*
X129720700Y-95566200D01*
G37*
%TD.AperFunction*%
%TD*%
%TA.AperFunction,SMDPad,CuDef*%
%TO.P,TR16,2*%
%TO.N,Net-(R15-Pad2)*%
G36*
X122049900Y-90156000D02*
G01*
X122049900Y-93281000D01*
X121633400Y-93281000D01*
X121633400Y-94756000D01*
X120733400Y-94756000D01*
X120733400Y-93281000D01*
X120316900Y-93281000D01*
X120316900Y-90156000D01*
X122049900Y-90156000D01*
G37*
%TD.AperFunction*%
D22*
%TO.P,TR16,3*%
%TO.N,Net-(TR15-Pad3)*%
X122683400Y-94106000D03*
%TO.P,TR16,1*%
%TO.N,Net-(R20-Pad2)*%
X119683400Y-94106000D03*
%TD*%
%TA.AperFunction,SMDPad,CuDef*%
D20*
%TO.P,TR17,2*%
%TO.N,Net-(TR15-Pad3)*%
G36*
X125625500Y-55487600D02*
G01*
X125625500Y-52362600D01*
X126042000Y-52362600D01*
X126042000Y-50887600D01*
X126942000Y-50887600D01*
X126942000Y-52362600D01*
X127358500Y-52362600D01*
X127358500Y-55487600D01*
X125625500Y-55487600D01*
G37*
%TD.AperFunction*%
D22*
%TO.P,TR17,3*%
%TO.N,Net-(R45-Pad1)*%
X124992000Y-51537600D03*
%TO.P,TR17,1*%
%TO.N,Net-(D5-Pad2)*%
X127992000Y-51537600D03*
%TD*%
D19*
%TO.P,TR18,1*%
%TO.N,Net-(R21-Pad2)*%
X98754200Y-97588200D03*
%TO.P,TR18,3*%
%TO.N,NFB*%
X98754200Y-94588200D03*
%TA.AperFunction,SMDPad,CuDef*%
D20*
%TO.P,TR18,2*%
%TO.N,Net-(D7-Pad1)*%
G36*
X94804200Y-95221700D02*
G01*
X97929200Y-95221700D01*
X97929200Y-95638200D01*
X99404200Y-95638200D01*
X99404200Y-96538200D01*
X97929200Y-96538200D01*
X97929200Y-96954700D01*
X94804200Y-96954700D01*
X94804200Y-95221700D01*
G37*
%TD.AperFunction*%
%TD*%
D19*
%TO.P,TR19,1*%
%TO.N,Net-(R27-Pad2)*%
X95403400Y-78383000D03*
%TO.P,TR19,3*%
%TO.N,NFB*%
X95403400Y-81383000D03*
%TA.AperFunction,SMDPad,CuDef*%
D20*
%TO.P,TR19,2*%
%TO.N,Net-(D8-Pad2)*%
G36*
X99353400Y-80749500D02*
G01*
X96228400Y-80749500D01*
X96228400Y-80333000D01*
X94753400Y-80333000D01*
X94753400Y-79433000D01*
X96228400Y-79433000D01*
X96228400Y-79016500D01*
X99353400Y-79016500D01*
X99353400Y-80749500D01*
G37*
%TD.AperFunction*%
%TD*%
%TA.AperFunction,SMDPad,CuDef*%
%TO.P,TR20,2*%
%TO.N,Net-(R11-Pad2)*%
G36*
X125236000Y-106886100D02*
G01*
X122111000Y-106886100D01*
X122111000Y-106469600D01*
X120636000Y-106469600D01*
X120636000Y-105569600D01*
X122111000Y-105569600D01*
X122111000Y-105153100D01*
X125236000Y-105153100D01*
X125236000Y-106886100D01*
G37*
%TD.AperFunction*%
D19*
%TO.P,TR20,3*%
%TO.N,Net-(C3-Pad1)*%
X121286000Y-107519600D03*
%TO.P,TR20,1*%
%TO.N,Net-(R32-Pad1)*%
X121286000Y-104519600D03*
%TD*%
%TA.AperFunction,SMDPad,CuDef*%
D20*
%TO.P,TR21,2*%
%TO.N,Net-(R49-Pad1)*%
G36*
X142674700Y-118350000D02*
G01*
X142674700Y-121475000D01*
X142258200Y-121475000D01*
X142258200Y-122950000D01*
X141358200Y-122950000D01*
X141358200Y-121475000D01*
X140941700Y-121475000D01*
X140941700Y-118350000D01*
X142674700Y-118350000D01*
G37*
%TD.AperFunction*%
D22*
%TO.P,TR21,3*%
%TO.N,VAA*%
X143308200Y-122300000D03*
%TO.P,TR21,1*%
%TO.N,Net-(R41-Pad2)*%
X140308200Y-122300000D03*
%TD*%
%TO.P,R166,2*%
%TO.N,NFB*%
%TA.AperFunction,SMDPad,CuDef*%
G36*
G01*
X84229001Y-94147000D02*
X81378999Y-94147000D01*
G75*
G02*
X81129000Y-93897001I0J249999D01*
G01*
X81129000Y-93046999D01*
G75*
G02*
X81378999Y-92797000I249999J0D01*
G01*
X84229001Y-92797000D01*
G75*
G02*
X84479000Y-93046999I0J-249999D01*
G01*
X84479000Y-93897001D01*
G75*
G02*
X84229001Y-94147000I-249999J0D01*
G01*
G37*
%TD.AperFunction*%
%TO.P,R166,1*%
%TO.N,Net-(R16-Pad2)*%
%TA.AperFunction,SMDPad,CuDef*%
G36*
G01*
X84229001Y-99947000D02*
X81378999Y-99947000D01*
G75*
G02*
X81129000Y-99697001I0J249999D01*
G01*
X81129000Y-98846999D01*
G75*
G02*
X81378999Y-98597000I249999J0D01*
G01*
X84229001Y-98597000D01*
G75*
G02*
X84479000Y-98846999I0J-249999D01*
G01*
X84479000Y-99697001D01*
G75*
G02*
X84229001Y-99947000I-249999J0D01*
G01*
G37*
%TD.AperFunction*%
%TD*%
%TO.P,R177,1*%
%TO.N,NFB*%
%TA.AperFunction,SMDPad,CuDef*%
G36*
G01*
X84229001Y-90036600D02*
X81378999Y-90036600D01*
G75*
G02*
X81129000Y-89786601I0J249999D01*
G01*
X81129000Y-88936599D01*
G75*
G02*
X81378999Y-88686600I249999J0D01*
G01*
X84229001Y-88686600D01*
G75*
G02*
X84479000Y-88936599I0J-249999D01*
G01*
X84479000Y-89786601D01*
G75*
G02*
X84229001Y-90036600I-249999J0D01*
G01*
G37*
%TD.AperFunction*%
%TO.P,R177,2*%
%TO.N,Net-(R17-Pad1)*%
%TA.AperFunction,SMDPad,CuDef*%
G36*
G01*
X84229001Y-84236600D02*
X81378999Y-84236600D01*
G75*
G02*
X81129000Y-83986601I0J249999D01*
G01*
X81129000Y-83136599D01*
G75*
G02*
X81378999Y-82886600I249999J0D01*
G01*
X84229001Y-82886600D01*
G75*
G02*
X84479000Y-83136599I0J-249999D01*
G01*
X84479000Y-83986601D01*
G75*
G02*
X84229001Y-84236600I-249999J0D01*
G01*
G37*
%TD.AperFunction*%
%TD*%
D16*
%TO.P,TP1,1*%
%TO.N,Net-(TP1-Pad1)*%
X166243000Y-130505200D03*
%TD*%
%TO.P,TP2,1*%
%TO.N,Net-(TP2-Pad1)*%
X161594800Y-130581400D03*
%TD*%
%TO.P,R1,1*%
%TO.N,Net-(C16-Pad1)*%
%TA.AperFunction,SMDPad,CuDef*%
G36*
G01*
X165224750Y-72765100D02*
X165737250Y-72765100D01*
G75*
G02*
X165956000Y-72983850I0J-218750D01*
G01*
X165956000Y-73421350D01*
G75*
G02*
X165737250Y-73640100I-218750J0D01*
G01*
X165224750Y-73640100D01*
G75*
G02*
X165006000Y-73421350I0J218750D01*
G01*
X165006000Y-72983850D01*
G75*
G02*
X165224750Y-72765100I218750J0D01*
G01*
G37*
%TD.AperFunction*%
%TO.P,R1,2*%
%TO.N,Net-(C15-Pad2)*%
%TA.AperFunction,SMDPad,CuDef*%
G36*
G01*
X165224750Y-74340100D02*
X165737250Y-74340100D01*
G75*
G02*
X165956000Y-74558850I0J-218750D01*
G01*
X165956000Y-74996350D01*
G75*
G02*
X165737250Y-75215100I-218750J0D01*
G01*
X165224750Y-75215100D01*
G75*
G02*
X165006000Y-74996350I0J218750D01*
G01*
X165006000Y-74558850D01*
G75*
G02*
X165224750Y-74340100I218750J0D01*
G01*
G37*
%TD.AperFunction*%
%TD*%
%TO.P,R46,2*%
%TO.N,GND*%
%TA.AperFunction,SMDPad,CuDef*%
G36*
G01*
X166747700Y-78666050D02*
X166747700Y-78153550D01*
G75*
G02*
X166966450Y-77934800I218750J0D01*
G01*
X167403950Y-77934800D01*
G75*
G02*
X167622700Y-78153550I0J-218750D01*
G01*
X167622700Y-78666050D01*
G75*
G02*
X167403950Y-78884800I-218750J0D01*
G01*
X166966450Y-78884800D01*
G75*
G02*
X166747700Y-78666050I0J218750D01*
G01*
G37*
%TD.AperFunction*%
%TO.P,R46,1*%
%TO.N,Net-(C15-Pad2)*%
%TA.AperFunction,SMDPad,CuDef*%
G36*
G01*
X165172700Y-78666050D02*
X165172700Y-78153550D01*
G75*
G02*
X165391450Y-77934800I218750J0D01*
G01*
X165828950Y-77934800D01*
G75*
G02*
X166047700Y-78153550I0J-218750D01*
G01*
X166047700Y-78666050D01*
G75*
G02*
X165828950Y-78884800I-218750J0D01*
G01*
X165391450Y-78884800D01*
G75*
G02*
X165172700Y-78666050I0J218750D01*
G01*
G37*
%TD.AperFunction*%
%TD*%
%TO.P,L1,2*%
%TO.N,NFB*%
X92000000Y-100000000D03*
%TO.P,L1,1*%
%TO.N,Net-(L1-Pad1)*%
X77390000Y-100000000D03*
%TD*%
%TO.P,L2,1*%
%TO.N,Net-(J3-Pad1)*%
X92000000Y-74500000D03*
%TO.P,L2,2*%
%TO.N,Net-(L2-Pad2)*%
X77390000Y-74500000D03*
%TD*%
%TO.P,L3,1*%
%TO.N,Net-(L2-Pad2)*%
X71500000Y-79890000D03*
%TO.P,L3,2*%
%TO.N,Net-(L1-Pad1)*%
X71500000Y-94500000D03*
%TD*%
D27*
%TO.N,*%
X56889400Y-64008000D03*
X56889400Y-110871000D03*
D28*
%TO.N,GND*%
X90551000Y-83972400D03*
X146456400Y-94361000D03*
X122250200Y-51384200D03*
X155575000Y-60604400D03*
X169672000Y-51028600D03*
X150670800Y-72515000D03*
X171069000Y-119989600D03*
D29*
X101777800Y-124993400D03*
X101422200Y-48666400D03*
D28*
%TO.N,Net-(C3-Pad2)*%
X162890200Y-49733200D03*
X152830800Y-54839600D03*
X163957000Y-64998600D03*
%TO.N,Net-(C3-Pad1)*%
X113106200Y-99898200D03*
X137693400Y-91084400D03*
X125425200Y-78638400D03*
X127254000Y-72466200D03*
%TO.N,NFB*%
X87528400Y-91414600D03*
X98754200Y-90933000D03*
X151307800Y-86817200D03*
X146405600Y-89890600D03*
%TO.N,Net-(C11-Pad2)*%
X150393400Y-115493800D03*
X145643600Y-102514400D03*
%TO.N,Net-(C14-Pad2)*%
X152704800Y-110363000D03*
X159943800Y-111531400D03*
%TO.N,Net-(C15-Pad1)*%
X151688800Y-78359000D03*
X156311600Y-78359000D03*
%TO.N,Net-(D7-Pad2)*%
X109804200Y-90119200D03*
X131699000Y-96824800D03*
%TO.N,Net-(D9-Pad1)*%
X137896600Y-100457000D03*
X145364200Y-106527600D03*
D29*
%TO.N,Net-(J3-Pad1)*%
X86500000Y-75500000D03*
D28*
%TO.N,Net-(PR1-Pad1)*%
X129870200Y-107319600D03*
%TO.N,Net-(Q6-Pad1)*%
X152298400Y-49123600D03*
X160299400Y-53060600D03*
%TO.N,Net-(R10-Pad1)*%
X119888000Y-110972600D03*
X141325600Y-110210600D03*
%TO.N,Net-(R20-Pad2)*%
X96367600Y-103581200D03*
X117703600Y-91948000D03*
%TO.N,Net-(R21-Pad2)*%
X85013800Y-111150400D03*
X100939600Y-94615000D03*
%TO.N,Net-(R25-Pad2)*%
X84023200Y-118516400D03*
%TO.N,Net-(R26-Pad1)*%
X85521800Y-64744600D03*
%TO.N,Net-(R27-Pad2)*%
X91998800Y-61544200D03*
X96418400Y-65963800D03*
%TO.N,Net-(R30-Pad2)*%
X117932200Y-72212200D03*
X114274600Y-65608200D03*
%TO.N,Net-(R30-Pad1)*%
X126517400Y-96139000D03*
X124688600Y-89408000D03*
%TO.N,Net-(TP1-Pad1)*%
X152019000Y-119684800D03*
%TO.N,Net-(TP2-Pad1)*%
X152019000Y-122224800D03*
%TO.N,Net-(TR15-Pad3)*%
X123799600Y-95453200D03*
X130354200Y-102106600D03*
X133121400Y-90246200D03*
X118643400Y-77343000D03*
X121539000Y-72059800D03*
%TD*%
D30*
%TO.N,Net-(C1-Pad2)*%
X165404800Y-95097600D02*
X165836600Y-95097600D01*
X167259000Y-93675200D02*
X167259000Y-91135200D01*
X165836600Y-95097600D02*
X167259000Y-93675200D01*
D31*
X164465000Y-94157800D02*
X165404800Y-95097600D01*
X164465000Y-88366600D02*
X164465000Y-94157800D01*
%TO.N,Net-(C1-Pad1)*%
X169500800Y-101322600D02*
X169519600Y-101341400D01*
X165404800Y-101322600D02*
X169500800Y-101322600D01*
D30*
%TO.N,Net-(C2-Pad1)*%
X144399000Y-74142600D02*
X141681200Y-74142600D01*
X141681200Y-74142600D02*
X139522200Y-71983600D01*
X139522200Y-71983600D02*
X139522200Y-69900800D01*
X137337800Y-69900800D02*
X136245600Y-68808600D01*
X139522200Y-69900800D02*
X137337800Y-69900800D01*
X139522200Y-69900800D02*
X142011400Y-69900800D01*
X142013400Y-69898800D02*
X142011400Y-69900800D01*
X142013400Y-66979800D02*
X142013400Y-69898800D01*
D32*
%TO.N,GND*%
X88188800Y-83972400D02*
X90551000Y-83972400D01*
X90551000Y-83972400D02*
X90551000Y-83972400D01*
D30*
X145643600Y-97891600D02*
X145643600Y-95173800D01*
X145643600Y-95173800D02*
X146456400Y-94361000D01*
X146456400Y-94361000D02*
X146456400Y-94361000D01*
X122250200Y-48768000D02*
X122250200Y-51384200D01*
X122250200Y-51384200D02*
X122250200Y-51384200D01*
X150672800Y-69898800D02*
X150670800Y-69900800D01*
X150672800Y-66954400D02*
X150672800Y-69898800D01*
D31*
X155549600Y-57467900D02*
X155549600Y-55448200D01*
X155549600Y-57467900D02*
X155549600Y-60579000D01*
X155549600Y-60579000D02*
X155575000Y-60604400D01*
X155575000Y-60604400D02*
X155575000Y-60604400D01*
D30*
X167944800Y-77800200D02*
X167335200Y-78409800D01*
X167944800Y-75082400D02*
X167944800Y-77800200D01*
X167335200Y-78409800D02*
X167335200Y-79908400D01*
X167386000Y-79959200D02*
X167386000Y-84251800D01*
X167335200Y-79908400D02*
X167386000Y-79959200D01*
X165146200Y-86491600D02*
X167386000Y-84251800D01*
X164465000Y-86491600D02*
X165146200Y-86491600D01*
D31*
X170205400Y-48534800D02*
X170205400Y-50495200D01*
X170205400Y-50495200D02*
X169672000Y-51028600D01*
X169672000Y-51028600D02*
X169672000Y-51028600D01*
D30*
X150670800Y-69900800D02*
X150670800Y-72515000D01*
X150670800Y-72515000D02*
X150670800Y-72515000D01*
X171069000Y-122732800D02*
X171069000Y-119989600D01*
X171069000Y-119989600D02*
X171069000Y-119989600D01*
D33*
X97409000Y-123063000D02*
X99847400Y-123063000D01*
X99847400Y-123063000D02*
X101777800Y-124993400D01*
X101777800Y-124993400D02*
X101777800Y-124993400D01*
X97332800Y-51714400D02*
X100380800Y-48666400D01*
X101422200Y-48666400D02*
X101422200Y-48666400D01*
X101422200Y-48666400D02*
X100380800Y-48666400D01*
D31*
%TO.N,Net-(C3-Pad2)*%
X160591900Y-49123600D02*
X162280600Y-49123600D01*
X162280600Y-49123600D02*
X162890200Y-49733200D01*
X162890200Y-49733200D02*
X162890200Y-49733200D01*
D30*
X152830800Y-57555400D02*
X152830800Y-54839600D01*
X152830800Y-57555400D02*
X151842200Y-57555400D01*
X152830800Y-54839600D02*
X152830800Y-54839600D01*
D31*
X163957000Y-64998600D02*
X163957000Y-62395500D01*
X163957000Y-64998600D02*
X163957000Y-67754100D01*
X151842200Y-57555400D02*
X151841200Y-57556400D01*
X154049600Y-57555400D02*
X151842200Y-57555400D01*
D32*
%TO.N,Net-(C3-Pad1)*%
X116408200Y-113512600D02*
X118364000Y-115468400D01*
X111353600Y-113512600D02*
X116408200Y-113512600D01*
X125864000Y-115468400D02*
X128364000Y-117968400D01*
X114387900Y-99898200D02*
X117322600Y-96963500D01*
X113106200Y-99898200D02*
X114387900Y-99898200D01*
D31*
X118530100Y-98171000D02*
X121285000Y-98171000D01*
X117322600Y-96963500D02*
X118530100Y-98171000D01*
D32*
X118364000Y-115468400D02*
X125864000Y-115468400D01*
D30*
X117322600Y-96963500D02*
X117322600Y-95656400D01*
X112468900Y-90802700D02*
X112468900Y-69088000D01*
X117322600Y-95656400D02*
X112468900Y-90802700D01*
D31*
X133045200Y-106878600D02*
X133045200Y-108051600D01*
X133045200Y-108051600D02*
X131165600Y-109931200D01*
X126669800Y-109931200D02*
X124866400Y-108127800D01*
X131165600Y-109931200D02*
X126669800Y-109931200D01*
X121894200Y-108127800D02*
X121589600Y-107823200D01*
X124866400Y-108127800D02*
X121894200Y-108127800D01*
X121945000Y-108178600D02*
X121589600Y-107823200D01*
X121589600Y-107823200D02*
X121286000Y-107519600D01*
D30*
X137693400Y-91084400D02*
X137693400Y-83845400D01*
X137693400Y-83845400D02*
X134747000Y-80899000D01*
X134747000Y-80899000D02*
X127685800Y-80899000D01*
X127685800Y-80899000D02*
X125425200Y-78638400D01*
X125425200Y-78638400D02*
X125425200Y-78638400D01*
X127254000Y-72466200D02*
X127254000Y-62763400D01*
X127254000Y-62763400D02*
X128016000Y-62001400D01*
X128016000Y-62001400D02*
X141909800Y-62001400D01*
X146354800Y-57556400D02*
X149966200Y-57556400D01*
X141909800Y-62001400D02*
X146354800Y-57556400D01*
D31*
X149988400Y-57534200D02*
X149966200Y-57556400D01*
X149988400Y-51725700D02*
X149988400Y-57534200D01*
X125864000Y-115468400D02*
X125864000Y-113316400D01*
X121286000Y-108738400D02*
X121286000Y-107519600D01*
X125864000Y-113316400D02*
X121286000Y-108738400D01*
D32*
%TO.N,Net-(C4-Pad1)*%
X111353600Y-110972600D02*
X109220000Y-110972600D01*
X109220000Y-110972600D02*
X108483400Y-110236000D01*
X108483400Y-110236000D02*
X108483400Y-106121200D01*
X111416100Y-103188500D02*
X117322600Y-103188500D01*
X108483400Y-106121200D02*
X111416100Y-103188500D01*
D30*
X117680000Y-103188500D02*
X121197500Y-99671000D01*
X117322600Y-103188500D02*
X117680000Y-103188500D01*
X111353600Y-110972600D02*
X115519200Y-110972600D01*
D31*
X128854200Y-99428700D02*
X128854200Y-100376202D01*
X128854200Y-100376202D02*
X128062202Y-101168200D01*
X122694700Y-101168200D02*
X121197500Y-99671000D01*
X128062202Y-101168200D02*
X125222000Y-101168200D01*
X125222000Y-101168200D02*
X122694700Y-101168200D01*
X128854200Y-99428700D02*
X128854200Y-91617800D01*
D30*
%TO.N,Net-(C5-Pad1)*%
X131648200Y-121361200D02*
X131648200Y-120112000D01*
X131648200Y-121361200D02*
X132207000Y-121361200D01*
X131648200Y-122379500D02*
X131648200Y-121361200D01*
X132207000Y-121361200D02*
X134391400Y-119176800D01*
X134391400Y-119176800D02*
X134391400Y-113309400D01*
X134391400Y-113309400D02*
X142468600Y-105232200D01*
X142494000Y-98983800D02*
X142494000Y-94640400D01*
X142468600Y-99009200D02*
X142494000Y-98983800D01*
X142468600Y-105232200D02*
X142468600Y-99009200D01*
D33*
%TO.N,NFB*%
X82804000Y-91414600D02*
X87528400Y-91414600D01*
D34*
X82804000Y-91414600D02*
X82804000Y-93472000D01*
X82804000Y-89361600D02*
X82804000Y-91414600D01*
D33*
X87528400Y-91414600D02*
X87528400Y-91414600D01*
D32*
X87528400Y-91414600D02*
X87528400Y-88514400D01*
X88564608Y-89550608D02*
X94589600Y-89550608D01*
X87528400Y-88514400D02*
X88564608Y-89550608D01*
D30*
X144930400Y-88415400D02*
X146405600Y-89890600D01*
X142494000Y-88415400D02*
X144930400Y-88415400D01*
X151307800Y-89809800D02*
X151312400Y-89814400D01*
X151307800Y-86817200D02*
X151307800Y-89809800D01*
D31*
X98754200Y-90933000D02*
X98754200Y-94588200D01*
X98754200Y-84733800D02*
X95403400Y-81383000D01*
X98754200Y-90933000D02*
X98754200Y-84733800D01*
D32*
X92000000Y-92140208D02*
X94589600Y-89550608D01*
X92000000Y-100000000D02*
X92000000Y-92140208D01*
D31*
%TO.N,Net-(C6-Pad1)*%
X86313800Y-85424800D02*
X87528400Y-86639400D01*
X86313800Y-83972400D02*
X86313800Y-85424800D01*
D30*
X86188790Y-84800831D02*
X86188790Y-83972400D01*
X86313800Y-85424800D02*
X86313800Y-84925841D01*
X86313800Y-84925841D02*
X86188790Y-84800831D01*
X87403390Y-86514390D02*
X87528400Y-86514390D01*
X86313800Y-85424800D02*
X87403390Y-86514390D01*
%TO.N,VAA*%
X143308200Y-124410600D02*
X144257201Y-125359601D01*
X160592400Y-122224800D02*
X160592400Y-124194200D01*
D33*
X144257201Y-125359601D02*
X161757801Y-125359601D01*
D30*
X160592400Y-124194200D02*
X161757801Y-125359601D01*
D33*
X161757801Y-125359601D02*
X170979899Y-125359601D01*
X170990500Y-125349000D02*
X170979899Y-125359601D01*
X94870000Y-117602000D02*
X89409000Y-123063000D01*
X110464600Y-117602000D02*
X94870000Y-117602000D01*
X144257201Y-125359601D02*
X118222201Y-125359601D01*
X118222201Y-125359601D02*
X110464600Y-117602000D01*
X96292400Y-129946400D02*
X89409000Y-123063000D01*
X118008400Y-129946400D02*
X96292400Y-129946400D01*
X96292400Y-129946400D02*
X87884000Y-129946400D01*
X87884000Y-129946400D02*
X82245200Y-124307600D01*
X82245200Y-124307600D02*
X76860400Y-124307600D01*
X76860400Y-124307600D02*
X71577200Y-119024400D01*
X71577200Y-119024400D02*
X71577200Y-108864400D01*
X75020600Y-105421000D02*
X77393800Y-105421000D01*
X71577200Y-108864400D02*
X75020600Y-105421000D01*
D31*
X143308200Y-122300000D02*
X143308200Y-124410600D01*
D33*
%TO.N,VCC*%
X89332800Y-57913000D02*
X89332800Y-51714400D01*
X93345000Y-56388000D02*
X91430010Y-58302990D01*
X134665390Y-46222590D02*
X120635518Y-46222590D01*
X135788400Y-47345600D02*
X134665390Y-46222590D01*
X91430010Y-58302990D02*
X89662000Y-58302990D01*
X120635518Y-46222590D02*
X109631908Y-57226200D01*
X109631908Y-57226200D02*
X105130600Y-57226200D01*
X105130600Y-57226200D02*
X104292400Y-56388000D01*
X89662000Y-58242200D02*
X89332800Y-57913000D01*
X89662000Y-58302990D02*
X89662000Y-58242200D01*
X104292400Y-56388000D02*
X93345000Y-56388000D01*
X97664000Y-43383200D02*
X89332800Y-51714400D01*
X116967000Y-43383200D02*
X97664000Y-43383200D01*
X77393800Y-54330600D02*
X77393800Y-58558000D01*
X87223600Y-43383200D02*
X83794600Y-46812200D01*
X97664000Y-43383200D02*
X87223600Y-43383200D01*
X83794600Y-46812200D02*
X83794600Y-51384200D01*
X83794600Y-51384200D02*
X82854800Y-52324000D01*
X79400400Y-52324000D02*
X77393800Y-54330600D01*
X82854800Y-52324000D02*
X79400400Y-52324000D01*
D30*
%TO.N,Net-(C11-Pad2)*%
X147853400Y-115493800D02*
X147853400Y-118948200D01*
X147853400Y-115493800D02*
X150393400Y-115493800D01*
X150393400Y-115493800D02*
X150393400Y-115493800D01*
X145643600Y-102514400D02*
X145643600Y-99766600D01*
D32*
%TO.N,Net-(C12-Pad2)*%
X138488409Y-51925209D02*
X138488409Y-47371000D01*
X139903200Y-53340000D02*
X138488409Y-51925209D01*
X170103800Y-46558200D02*
X170205400Y-46659800D01*
X142468600Y-52679600D02*
X142468600Y-48920400D01*
X139903200Y-53340000D02*
X141808200Y-53340000D01*
X142468600Y-48920400D02*
X144830800Y-46558200D01*
X141808200Y-53340000D02*
X142468600Y-52679600D01*
X144830800Y-46558200D02*
X160756600Y-46558200D01*
D30*
X160679400Y-46635400D02*
X160756600Y-46558200D01*
D32*
X160756600Y-46558200D02*
X170103800Y-46558200D01*
D31*
X160756600Y-47546400D02*
X160679400Y-47623600D01*
X160756600Y-46558200D02*
X160756600Y-47546400D01*
D30*
%TO.N,Net-(C14-Pad2)*%
X147848800Y-112420400D02*
X150749000Y-112420400D01*
X150749000Y-112420400D02*
X152501600Y-110667800D01*
X152501600Y-110667800D02*
X152501600Y-110667800D01*
X164693600Y-116281200D02*
X164693600Y-119075200D01*
X159943800Y-111531400D02*
X164693600Y-116281200D01*
D31*
X159943800Y-111531400D02*
X159943800Y-107569000D01*
X160707200Y-106805600D02*
X162650300Y-106805600D01*
X159943800Y-107569000D02*
X160707200Y-106805600D01*
D30*
%TO.N,Net-(C15-Pad1)*%
X149098000Y-76987400D02*
X150317200Y-76987400D01*
X150317200Y-76987400D02*
X151688800Y-78359000D01*
X151688800Y-78359000D02*
X151688800Y-78359000D01*
X153263600Y-96418400D02*
X153263600Y-93065600D01*
X153263600Y-93065600D02*
X156718000Y-89611200D01*
X156718000Y-78765400D02*
X156311600Y-78359000D01*
X156718000Y-89611200D02*
X156718000Y-78765400D01*
%TO.N,Net-(C15-Pad2)*%
X159488600Y-96418400D02*
X159488600Y-94816200D01*
X159488600Y-94816200D02*
X162153600Y-92151200D01*
X162153600Y-92151200D02*
X162153600Y-79095600D01*
X165430200Y-75819000D02*
X165430200Y-75027000D01*
X162153600Y-79095600D02*
X165430200Y-75819000D01*
X165430200Y-78379800D02*
X165460200Y-78409800D01*
X165430200Y-75819000D02*
X165430200Y-78379800D01*
D31*
%TO.N,Net-(C16-Pad1)*%
X165915727Y-68125327D02*
X165457000Y-67666600D01*
X165915727Y-72666473D02*
X165915727Y-68125327D01*
X165430200Y-73152000D02*
X165915727Y-72666473D01*
X167889400Y-73152000D02*
X167944800Y-73207400D01*
X165430200Y-73152000D02*
X167889400Y-73152000D01*
X169519600Y-99466400D02*
X169519600Y-93065600D01*
X169519600Y-93065600D02*
X170510200Y-92075000D01*
X170510200Y-75072800D02*
X168644800Y-73207400D01*
X168644800Y-73207400D02*
X167944800Y-73207400D01*
X170510200Y-92075000D02*
X170510200Y-75072800D01*
D30*
%TO.N,Net-(D1-Pad1)*%
X145311400Y-69900800D02*
X147370800Y-69900800D01*
%TO.N,Net-(D3-Pad2)*%
X147347400Y-66979800D02*
X147372800Y-66954400D01*
X145313400Y-66979800D02*
X147347400Y-66979800D01*
%TO.N,Net-(D5-Pad1)*%
X127635000Y-49530000D02*
X131165600Y-49530000D01*
D31*
%TO.N,Net-(D5-Pad2)*%
X130251600Y-53797200D02*
X127992000Y-51537600D01*
X131165600Y-53797200D02*
X130251600Y-53797200D01*
D30*
X131165600Y-53797200D02*
X131165600Y-54940200D01*
X131165600Y-52830000D02*
X131165600Y-53797200D01*
%TO.N,Net-(D7-Pad2)*%
X104876600Y-104876600D02*
X104851200Y-104902000D01*
X104851200Y-104902000D02*
X104952800Y-104902000D01*
X105943400Y-106553000D02*
X105943400Y-113244000D01*
D32*
X103900600Y-113244000D02*
X103784400Y-113360200D01*
X105943400Y-113244000D02*
X103900600Y-113244000D01*
X105943400Y-105994200D02*
X104851200Y-104902000D01*
X105943400Y-106553000D02*
X105943400Y-105994200D01*
D30*
X104851200Y-104902000D02*
X104851200Y-102971600D01*
X104851200Y-102971600D02*
X102971600Y-101092000D01*
X102971600Y-101092000D02*
X102971600Y-95758000D01*
X102971600Y-95758000D02*
X108610400Y-90119200D01*
X108610400Y-90119200D02*
X109804200Y-90119200D01*
X109804200Y-90119200D02*
X109804200Y-90119200D01*
X128539800Y-89357200D02*
X128514400Y-89331800D01*
X128514400Y-89331800D02*
X128143000Y-89331800D01*
X126979200Y-90495600D02*
X126979200Y-91617800D01*
X128143000Y-89331800D02*
X126979200Y-90495600D01*
X128539800Y-89357200D02*
X130149600Y-89357200D01*
X130149600Y-89357200D02*
X130886200Y-90093800D01*
X130886200Y-96012000D02*
X131699000Y-96824800D01*
X130886200Y-90093800D02*
X130886200Y-96012000D01*
D31*
%TO.N,Net-(D7-Pad1)*%
X95605600Y-96088200D02*
X98666700Y-96088200D01*
X98666700Y-96088200D02*
X95783400Y-96088200D01*
X95783400Y-96088200D02*
X95783400Y-99134200D01*
D30*
X101551200Y-104902000D02*
X95783400Y-99134200D01*
X95783400Y-98013402D02*
X97708602Y-96088200D01*
X95783400Y-99134200D02*
X95783400Y-98013402D01*
%TO.N,Net-(D8-Pad2)*%
X101575600Y-74756398D02*
X96448998Y-79883000D01*
X101575600Y-70002400D02*
X101575600Y-74756398D01*
%TO.N,Net-(D8-Pad1)*%
X103987600Y-69114400D02*
X104875600Y-70002400D01*
X103987600Y-66852800D02*
X103987600Y-69114400D01*
X109679500Y-70002400D02*
X110593900Y-69088000D01*
X104875600Y-70002400D02*
X109679500Y-70002400D01*
%TO.N,Net-(D9-Pad1)*%
X133121400Y-100487000D02*
X135564400Y-100487000D01*
X135564400Y-100487000D02*
X135564400Y-100487000D01*
X135564400Y-100487000D02*
X137545600Y-100487000D01*
X137545600Y-100487000D02*
X137545600Y-100487000D01*
X153390600Y-116179600D02*
X153390600Y-115087400D01*
X153390600Y-115087400D02*
X155270200Y-113207800D01*
X155270200Y-113207800D02*
X155270200Y-108051600D01*
X153746200Y-106527600D02*
X145364200Y-106527600D01*
X155270200Y-108051600D02*
X153746200Y-106527600D01*
%TO.N,Net-(D9-Pad2)*%
X156690600Y-116179600D02*
X157087200Y-116179600D01*
X158794900Y-117887300D02*
X160592400Y-119684800D01*
X157087200Y-116179600D02*
X158794900Y-117887300D01*
X126979200Y-56815200D02*
X131165600Y-56815200D01*
X124536200Y-59258200D02*
X126979200Y-56815200D01*
X157581600Y-105892600D02*
X155041600Y-103352600D01*
X157581600Y-113106200D02*
X157581600Y-105892600D01*
X160502600Y-116255800D02*
X160502600Y-116027200D01*
X145897600Y-85369400D02*
X143179800Y-85369400D01*
X158794900Y-117887300D02*
X158871100Y-117887300D01*
X160502600Y-116027200D02*
X157581600Y-113106200D01*
X158871100Y-117887300D02*
X160502600Y-116255800D01*
X155041600Y-103352600D02*
X151358600Y-103352600D01*
X151358600Y-103352600D02*
X149098000Y-101092000D01*
X128090800Y-77571600D02*
X124687200Y-74168000D01*
X149098000Y-101092000D02*
X149098000Y-88569800D01*
X124536200Y-74168000D02*
X124536200Y-59258200D01*
X135382000Y-77571600D02*
X128090800Y-77571600D01*
X143179800Y-85369400D02*
X135382000Y-77571600D01*
X124687200Y-74168000D02*
X124536200Y-74168000D01*
X149098000Y-88569800D02*
X145897600Y-85369400D01*
D32*
%TO.N,Net-(J3-Pad1)*%
X93403391Y-86164391D02*
X93403391Y-83141791D01*
X94589600Y-87350600D02*
X93403391Y-86164391D01*
X93403391Y-83141791D02*
X90261600Y-80000000D01*
X90261600Y-80000000D02*
X88500000Y-80000000D01*
X88500000Y-80000000D02*
X86500000Y-78000000D01*
X86500000Y-78000000D02*
X86500000Y-75500000D01*
X86500000Y-75500000D02*
X86500000Y-75500000D01*
D30*
%TO.N,Net-(PR1-Pad1)*%
X128570200Y-106019600D02*
X129870200Y-107319600D01*
X129870200Y-107319600D02*
X129870200Y-107319600D01*
%TO.N,Net-(Q6-Pad1)*%
X150363400Y-49123600D02*
X152298400Y-49123600D01*
X152298400Y-49123600D02*
X152298400Y-49123600D01*
D31*
X160299400Y-51003600D02*
X160679400Y-50623600D01*
X160299400Y-53060600D02*
X160299400Y-51003600D01*
%TO.N,Net-(R2-Pad2)*%
X161972873Y-68150727D02*
X162457000Y-67666600D01*
X161972873Y-72641073D02*
X161972873Y-68150727D01*
X162458400Y-73126600D02*
X161972873Y-72641073D01*
%TO.N,Net-(R2-Pad1)*%
X162433000Y-75027000D02*
X162458400Y-75001600D01*
D30*
X161086800Y-76987400D02*
X161086800Y-75098600D01*
X161086800Y-75098600D02*
X161015200Y-75027000D01*
X159349890Y-91221110D02*
X159349890Y-78724310D01*
D31*
X161015200Y-75027000D02*
X162433000Y-75027000D01*
X159639000Y-75027000D02*
X161015200Y-75027000D01*
D30*
X159361900Y-102412800D02*
X158394400Y-102412800D01*
X158394400Y-102412800D02*
X156387800Y-100406200D01*
X159349890Y-78724310D02*
X161086800Y-76987400D01*
X156387800Y-100406200D02*
X156387800Y-94183200D01*
X156387800Y-94183200D02*
X159349890Y-91221110D01*
X159664400Y-75001600D02*
X159639000Y-75027000D01*
X162458400Y-75001600D02*
X159664400Y-75001600D01*
D31*
%TO.N,Net-(R3-Pad2)*%
X159638000Y-73151000D02*
X159639000Y-73152000D01*
X156948000Y-73151000D02*
X159638000Y-73151000D01*
%TO.N,Net-(R4-Pad2)*%
X168630600Y-122707400D02*
X168630600Y-117297200D01*
X162650300Y-111316900D02*
X162650300Y-109805600D01*
X168630600Y-117297200D02*
X162650300Y-111316900D01*
%TO.N,Net-(R49-Pad1)*%
X141808200Y-122212500D02*
X141808200Y-118313200D01*
D30*
X145978400Y-112425000D02*
X145973800Y-112420400D01*
D31*
X145978400Y-113872800D02*
X143667000Y-113872800D01*
D30*
X145978400Y-113872800D02*
X145978400Y-112425000D01*
X145978400Y-115493800D02*
X145978400Y-113872800D01*
D31*
X142914500Y-113120300D02*
X141809600Y-113120300D01*
X143667000Y-113872800D02*
X142914500Y-113120300D01*
X141808200Y-118313200D02*
X142367000Y-117754400D01*
X142367000Y-113677700D02*
X141809600Y-113120300D01*
X142367000Y-117754400D02*
X142367000Y-113677700D01*
%TO.N,Net-(R6-Pad1)*%
X167690800Y-60249200D02*
X165457000Y-62483000D01*
X167690800Y-48564800D02*
X167690800Y-60249200D01*
%TO.N,Net-(R7-Pad1)*%
X165150800Y-54376800D02*
X157148800Y-62378800D01*
X157148800Y-62378800D02*
X157148800Y-63828800D01*
X165150800Y-48564800D02*
X165150800Y-54376800D01*
%TO.N,Net-(R40-Pad1)*%
X152956400Y-74142600D02*
X153948000Y-73151000D01*
X146248600Y-74142600D02*
X146985200Y-74879200D01*
X152088200Y-75010800D02*
X152956400Y-74142600D01*
X150139400Y-75010800D02*
X152088200Y-75010800D01*
X147116800Y-75010800D02*
X146985200Y-74879200D01*
X150139400Y-75010800D02*
X147116800Y-75010800D01*
D30*
X154228800Y-77151400D02*
X152088200Y-75010800D01*
X153187400Y-89814400D02*
X154228800Y-88773000D01*
X154228800Y-88773000D02*
X154228800Y-77151400D01*
%TO.N,Net-(R10-Pad1)*%
X117394200Y-110972600D02*
X117394200Y-108432600D01*
X119888000Y-110972600D02*
X119888000Y-110972600D01*
X117394200Y-110972600D02*
X119888000Y-110972600D01*
D31*
X140309600Y-113207800D02*
X140309600Y-111226600D01*
X140309600Y-111226600D02*
X141325600Y-110210600D01*
X141325600Y-110210600D02*
X141325600Y-110210600D01*
D30*
%TO.N,Net-(R10-Pad2)*%
X111353600Y-108432600D02*
X115519200Y-108432600D01*
X115519200Y-108432600D02*
X115519200Y-106019600D01*
D31*
%TO.N,Net-(R11-Pad2)*%
X117394200Y-106019600D02*
X121373500Y-106019600D01*
X126695200Y-106019600D02*
X121373500Y-106019600D01*
%TO.N,Net-(R13-Pad2)*%
X134874000Y-121158000D02*
X136042400Y-119989600D01*
X134874000Y-122402600D02*
X134874000Y-121158000D01*
X136042400Y-115887500D02*
X136042400Y-119989600D01*
X138809600Y-113120300D02*
X136042400Y-115887500D01*
%TO.N,Net-(R15-Pad2)*%
X121197500Y-94032600D02*
X121183400Y-94018500D01*
X121197500Y-96671000D02*
X121197500Y-94032600D01*
D30*
X124921075Y-93443673D02*
X122206202Y-90728800D01*
X126979200Y-93929200D02*
X126493673Y-93443673D01*
X126493673Y-93443673D02*
X124921075Y-93443673D01*
D31*
X121183400Y-90855800D02*
X121056400Y-90728800D01*
X121183400Y-94018500D02*
X121183400Y-90855800D01*
D30*
X122206202Y-90728800D02*
X121056400Y-90728800D01*
X121056400Y-90728800D02*
X120167400Y-90728800D01*
D33*
%TO.N,Net-(R16-Pad1)*%
X82804000Y-107603200D02*
X101583400Y-107603200D01*
D32*
X103784400Y-108280200D02*
X103784400Y-107518200D01*
X101668400Y-107518200D02*
X101583400Y-107603200D01*
X103784400Y-107518200D02*
X101668400Y-107518200D01*
D33*
%TO.N,Net-(R17-Pad2)*%
X96206400Y-61772800D02*
X101523800Y-61772800D01*
D32*
X101523800Y-61772800D02*
X103987600Y-61772800D01*
D33*
X82804000Y-75175200D02*
X82804000Y-71907400D01*
X89379490Y-65331910D02*
X89687400Y-65331910D01*
X82804000Y-71907400D02*
X89379490Y-65331910D01*
X92647290Y-65331910D02*
X96206400Y-61772800D01*
X89379490Y-65331910D02*
X92647290Y-65331910D01*
D30*
X103987600Y-61772800D02*
X106426000Y-61772800D01*
X106426000Y-61772800D02*
X108305600Y-63652400D01*
X108305600Y-63652400D02*
X109753400Y-63652400D01*
X111106200Y-65677800D02*
X111084400Y-65677800D01*
%TO.N,Net-(R20-Pad2)*%
X91668600Y-105054400D02*
X94894400Y-105054400D01*
X94894400Y-105054400D02*
X96367600Y-103581200D01*
X96367600Y-103581200D02*
X96367600Y-103581200D01*
D31*
X117703600Y-92126200D02*
X119683400Y-94106000D01*
X117703600Y-91948000D02*
X117703600Y-92126200D01*
D30*
%TO.N,Net-(R21-Pad2)*%
X85013800Y-111150400D02*
X85013800Y-111150400D01*
X100939600Y-94615000D02*
X100939600Y-94615000D01*
X85013800Y-111150400D02*
X89585800Y-111150400D01*
X93472000Y-115036600D02*
X95250000Y-115036600D01*
X89585800Y-111150400D02*
X93472000Y-115036600D01*
X95250000Y-111683800D02*
X93776800Y-110210600D01*
X95250000Y-115036600D02*
X95250000Y-111683800D01*
D31*
X100354000Y-97588200D02*
X98754200Y-97588200D01*
X100939600Y-94615000D02*
X100939600Y-97002600D01*
X100939600Y-97002600D02*
X100354000Y-97588200D01*
D30*
%TO.N,Net-(R25-Pad2)*%
X84023200Y-119303800D02*
X81864200Y-121462800D01*
X84023200Y-118516400D02*
X84023200Y-119303800D01*
%TO.N,Net-(R26-Pad1)*%
X85521800Y-64744600D02*
X85852000Y-64414400D01*
X85852000Y-58313800D02*
X82600800Y-55062600D01*
X85852000Y-64414400D02*
X85852000Y-58313800D01*
%TO.N,Net-(R27-Pad2)*%
X89636600Y-60828400D02*
X89662000Y-60803000D01*
X89636600Y-62763400D02*
X89636600Y-60828400D01*
X89662000Y-60803000D02*
X91257600Y-60803000D01*
X91257600Y-60803000D02*
X91998800Y-61544200D01*
X91998800Y-61544200D02*
X91998800Y-61544200D01*
D31*
X96418400Y-65963800D02*
X96418400Y-68529200D01*
X95403400Y-78383000D02*
X91883000Y-78383000D01*
X91883000Y-78383000D02*
X89000000Y-75500000D01*
X89000000Y-75500000D02*
X89000000Y-71500000D01*
X91970800Y-68529200D02*
X96418400Y-68529200D01*
X89000000Y-71500000D02*
X91970800Y-68529200D01*
D30*
%TO.N,Net-(R30-Pad2)*%
X117932200Y-72212200D02*
X117932200Y-72212200D01*
X114274600Y-65231800D02*
X115752400Y-63754000D01*
X114274600Y-65608200D02*
X114274600Y-65231800D01*
D31*
X115752400Y-63754000D02*
X114173000Y-62174600D01*
X113647800Y-62174600D02*
X112176600Y-63645800D01*
X114173000Y-62174600D02*
X113647800Y-62174600D01*
D30*
X122834400Y-77114400D02*
X117932200Y-72212200D01*
X131648200Y-118237000D02*
X131648200Y-112725200D01*
X140233400Y-104267000D02*
X140233400Y-97053400D01*
X135001000Y-109372400D02*
X135051800Y-109372400D01*
X140233400Y-97053400D02*
X135693399Y-92513399D01*
X135693399Y-92437199D02*
X135458200Y-92202000D01*
X138607800Y-105892600D02*
X140233400Y-104267000D01*
X135693399Y-92513399D02*
X135693399Y-92437199D01*
X131648200Y-112725200D02*
X135001000Y-109372400D01*
X138531600Y-105892600D02*
X138607800Y-105892600D01*
X135051800Y-109372400D02*
X138531600Y-105892600D01*
X122834400Y-77114400D02*
X122834400Y-79451200D01*
X122834400Y-79451200D02*
X127050800Y-83667600D01*
X127050800Y-83667600D02*
X132003800Y-83667600D01*
X132003800Y-83667600D02*
X135509000Y-87172800D01*
X135509000Y-92329000D02*
X135693399Y-92513399D01*
X135509000Y-87172800D02*
X135509000Y-92329000D01*
%TO.N,Net-(R30-Pad1)*%
X97002600Y-59207400D02*
X97129600Y-59080400D01*
X96596200Y-59207400D02*
X97002600Y-59207400D01*
X126517400Y-96139000D02*
X126517400Y-96139000D01*
X124688600Y-89408000D02*
X115544600Y-80264000D01*
X115544600Y-80264000D02*
X115544600Y-68021200D01*
D31*
X96596200Y-59207400D02*
X103174800Y-59207400D01*
X103200200Y-59182000D02*
X103759000Y-59182000D01*
X103174800Y-59207400D02*
X103200200Y-59182000D01*
X103759000Y-59182000D02*
X104444800Y-59867800D01*
X114441200Y-59867800D02*
X117627400Y-63054000D01*
X117627400Y-63054000D02*
X117627400Y-63754000D01*
X104444800Y-59867800D02*
X114441200Y-59867800D01*
D30*
X117627400Y-65938400D02*
X115544600Y-68021200D01*
X117627400Y-63754000D02*
X117627400Y-65938400D01*
D31*
X126517400Y-98679400D02*
X127354200Y-99516200D01*
X126517400Y-96139000D02*
X126517400Y-98679400D01*
%TO.N,Net-(R32-Pad1)*%
X121742427Y-104063173D02*
X121286000Y-104519600D01*
X132559673Y-104518073D02*
X129689473Y-104518073D01*
X133045200Y-105003600D02*
X132559673Y-104518073D01*
X129234573Y-104063173D02*
X121742427Y-104063173D01*
X129689473Y-104518073D02*
X129234573Y-104063173D01*
D30*
X133121400Y-104927400D02*
X133045200Y-105003600D01*
X133121400Y-102362000D02*
X133121400Y-104927400D01*
%TO.N,Net-(R34-Pad1)*%
X146715000Y-49123600D02*
X146253200Y-48661800D01*
X148488400Y-49123600D02*
X146715000Y-49123600D01*
D31*
X148488400Y-49123600D02*
X148488400Y-51638200D01*
%TO.N,Net-(R35-Pad1)*%
X165836600Y-108305600D02*
X162737800Y-108305600D01*
X161236900Y-102412800D02*
X165173900Y-106349800D01*
X162737800Y-108305600D02*
X164388800Y-108305600D01*
X165173900Y-107520500D02*
X165173900Y-106349800D01*
X164388800Y-108305600D02*
X165173900Y-107520500D01*
D30*
%TO.N,Net-(R36-Pad1)*%
X154736800Y-50439800D02*
X154736800Y-48814200D01*
D31*
X151488400Y-51638200D02*
X156616400Y-51638200D01*
X156616400Y-51638200D02*
X158013400Y-53035200D01*
X158013400Y-56591600D02*
X157049600Y-57555400D01*
X158013400Y-53035200D02*
X158013400Y-56591600D01*
D30*
X154736800Y-51104800D02*
X154736800Y-50439800D01*
D31*
X155270200Y-51638200D02*
X154736800Y-51104800D01*
X156616400Y-51638200D02*
X155270200Y-51638200D01*
%TO.N,Net-(R41-Pad2)*%
X137997800Y-119989600D02*
X140308200Y-122300000D01*
X137917400Y-119989600D02*
X137997800Y-119989600D01*
%TO.N,Net-(R45-Pad1)*%
X124968000Y-51513600D02*
X124992000Y-51537600D01*
X124968000Y-48689500D02*
X124968000Y-51513600D01*
%TO.N,Net-(TP1-Pad1)*%
X155092400Y-119684800D02*
X152019000Y-119684800D01*
X152019000Y-119684800D02*
X152019000Y-119684800D01*
%TO.N,Net-(TP2-Pad1)*%
X155092400Y-122224800D02*
X152019000Y-122224800D01*
X152019000Y-122224800D02*
X152019000Y-122224800D01*
%TO.N,Net-(TR10-Pad1)*%
X159611200Y-65328800D02*
X157061300Y-65328800D01*
X162457000Y-62483000D02*
X159611200Y-65328800D01*
X155448000Y-68529600D02*
X157148800Y-66828800D01*
X155448000Y-73063500D02*
X155448000Y-68529600D01*
X157148800Y-65416300D02*
X157061300Y-65328800D01*
X157148800Y-66828800D02*
X157148800Y-65416300D01*
%TO.N,Net-(TR15-Pad3)*%
X122683400Y-94106000D02*
X122683400Y-94337000D01*
X122683400Y-94337000D02*
X123799600Y-95453200D01*
X123799600Y-95453200D02*
X123799600Y-95453200D01*
D30*
X130354200Y-102106600D02*
X130354200Y-102106600D01*
X130354200Y-102106600D02*
X130352800Y-102108000D01*
X118643400Y-77343000D02*
X118643400Y-77343000D01*
X121539000Y-72059800D02*
X121539000Y-63220600D01*
X121539000Y-63220600D02*
X118338600Y-60020200D01*
X118338600Y-60020200D02*
X118338600Y-56718200D01*
X118338600Y-56718200D02*
X120675400Y-54381400D01*
X124693798Y-54381400D02*
X126541999Y-52533199D01*
X120675400Y-54381400D02*
X124693798Y-54381400D01*
X133121400Y-88831987D02*
X130751013Y-86461600D01*
X133121400Y-90246200D02*
X133121400Y-88831987D01*
X130751013Y-86461600D02*
X125780800Y-86461600D01*
X118643400Y-79324200D02*
X118643400Y-77343000D01*
X125780800Y-86461600D02*
X118643400Y-79324200D01*
D31*
X130354200Y-102106600D02*
X130354200Y-99516200D01*
D34*
%TO.N,Net-(R16-Pad2)*%
X82804000Y-99272000D02*
X82804000Y-101803200D01*
%TO.N,Net-(R17-Pad1)*%
X82804000Y-80975200D02*
X82804000Y-83561600D01*
D33*
%TO.N,Net-(L1-Pad1)*%
X71890000Y-94500000D02*
X77390000Y-100000000D01*
X71500000Y-94500000D02*
X71890000Y-94500000D01*
%TO.N,Net-(L2-Pad2)*%
X72000000Y-79890000D02*
X77390000Y-74500000D01*
X71500000Y-79890000D02*
X72000000Y-79890000D01*
%TD*%
M02*
