%TF.GenerationSoftware,KiCad,Pcbnew,5.1.6-c6e7f7d~87~ubuntu18.04.1*%
%TF.CreationDate,2021-10-28T16:13:36+13:00*%
%TF.ProjectId,Trimodal SMD Sep20,5472696d-6f64-4616-9c20-534d44205365,rev?*%
%TF.SameCoordinates,Original*%
%TF.FileFunction,Legend,Top*%
%TF.FilePolarity,Positive*%
%FSLAX46Y46*%
G04 Gerber Fmt 4.6, Leading zero omitted, Abs format (unit mm)*
G04 Created by KiCad (PCBNEW 5.1.6-c6e7f7d~87~ubuntu18.04.1) date 2021-10-28 16:13:36*
%MOMM*%
%LPD*%
G01*
G04 APERTURE LIST*
%ADD10C,0.120000*%
%ADD11C,0.150000*%
G04 APERTURE END LIST*
D10*
%TO.C,C1*%
X163144800Y-94560100D02*
X163144800Y-102620100D01*
X163144800Y-102620100D02*
X167664800Y-102620100D01*
X167664800Y-102620100D02*
X167664800Y-94560100D01*
%TO.C,C2*%
X139937682Y-73008600D02*
X139937682Y-71758600D01*
X140562682Y-72383600D02*
X139312682Y-72383600D01*
X127384600Y-69125600D02*
X127384600Y-68491600D01*
X127424600Y-69565600D02*
X127424600Y-68051600D01*
X127464600Y-69836600D02*
X127464600Y-67780600D01*
X127504600Y-70049600D02*
X127504600Y-67567600D01*
X127544600Y-70230600D02*
X127544600Y-67386600D01*
X127584600Y-70391600D02*
X127584600Y-67225600D01*
X127624600Y-70536600D02*
X127624600Y-67080600D01*
X127664600Y-70669600D02*
X127664600Y-66947600D01*
X127704600Y-70792600D02*
X127704600Y-66824600D01*
X127744600Y-70908600D02*
X127744600Y-66708600D01*
X127784600Y-71017600D02*
X127784600Y-66599600D01*
X127824600Y-71120600D02*
X127824600Y-66496600D01*
X127864600Y-71218600D02*
X127864600Y-66398600D01*
X127904600Y-71312600D02*
X127904600Y-66304600D01*
X127944600Y-71402600D02*
X127944600Y-66214600D01*
X127984600Y-71489600D02*
X127984600Y-66127600D01*
X128024600Y-71572600D02*
X128024600Y-66044600D01*
X128064600Y-71652600D02*
X128064600Y-65964600D01*
X128104600Y-71729600D02*
X128104600Y-65887600D01*
X128144600Y-71804600D02*
X128144600Y-65812600D01*
X128184600Y-71877600D02*
X128184600Y-65739600D01*
X128224600Y-71948600D02*
X128224600Y-65668600D01*
X128264600Y-72016600D02*
X128264600Y-65600600D01*
X128304600Y-72083600D02*
X128304600Y-65533600D01*
X128344600Y-72147600D02*
X128344600Y-65469600D01*
X128384600Y-72210600D02*
X128384600Y-65406600D01*
X128424600Y-72272600D02*
X128424600Y-65344600D01*
X128464600Y-72332600D02*
X128464600Y-65284600D01*
X128504600Y-72391600D02*
X128504600Y-65225600D01*
X128544600Y-72448600D02*
X128544600Y-65168600D01*
X128584600Y-72504600D02*
X128584600Y-65112600D01*
X128624600Y-72558600D02*
X128624600Y-65058600D01*
X128664600Y-72612600D02*
X128664600Y-65004600D01*
X128704600Y-72664600D02*
X128704600Y-64952600D01*
X128744600Y-72715600D02*
X128744600Y-64901600D01*
X128784600Y-72765600D02*
X128784600Y-64851600D01*
X128824600Y-72815600D02*
X128824600Y-64801600D01*
X128864600Y-72863600D02*
X128864600Y-64753600D01*
X128904600Y-72910600D02*
X128904600Y-64706600D01*
X128944600Y-72956600D02*
X128944600Y-64660600D01*
X128984600Y-73002600D02*
X128984600Y-64614600D01*
X129024600Y-73046600D02*
X129024600Y-64570600D01*
X129064600Y-73090600D02*
X129064600Y-64526600D01*
X129104600Y-73133600D02*
X129104600Y-64483600D01*
X129144600Y-73175600D02*
X129144600Y-64441600D01*
X129184600Y-73216600D02*
X129184600Y-64400600D01*
X129224600Y-73257600D02*
X129224600Y-64359600D01*
X129264600Y-73297600D02*
X129264600Y-64319600D01*
X129304600Y-73336600D02*
X129304600Y-64280600D01*
X129344600Y-73375600D02*
X129344600Y-64241600D01*
X129384600Y-73413600D02*
X129384600Y-64203600D01*
X129424600Y-73450600D02*
X129424600Y-64166600D01*
X129464600Y-73486600D02*
X129464600Y-64130600D01*
X129504600Y-73522600D02*
X129504600Y-64094600D01*
X129544600Y-73558600D02*
X129544600Y-64058600D01*
X129584600Y-73593600D02*
X129584600Y-64023600D01*
X129624600Y-73627600D02*
X129624600Y-63989600D01*
X129664600Y-73660600D02*
X129664600Y-63956600D01*
X129704600Y-73693600D02*
X129704600Y-63923600D01*
X129744600Y-73726600D02*
X129744600Y-63890600D01*
X129784600Y-73758600D02*
X129784600Y-63858600D01*
X129824600Y-67368600D02*
X129824600Y-63826600D01*
X129824600Y-73790600D02*
X129824600Y-70248600D01*
X129864600Y-67368600D02*
X129864600Y-63796600D01*
X129864600Y-73820600D02*
X129864600Y-70248600D01*
X129904600Y-67368600D02*
X129904600Y-63765600D01*
X129904600Y-73851600D02*
X129904600Y-70248600D01*
X129944600Y-67368600D02*
X129944600Y-63735600D01*
X129944600Y-73881600D02*
X129944600Y-70248600D01*
X129984600Y-67368600D02*
X129984600Y-63706600D01*
X129984600Y-73910600D02*
X129984600Y-70248600D01*
X130024600Y-67368600D02*
X130024600Y-63677600D01*
X130024600Y-73939600D02*
X130024600Y-70248600D01*
X130064600Y-67368600D02*
X130064600Y-63648600D01*
X130064600Y-73968600D02*
X130064600Y-70248600D01*
X130104600Y-67368600D02*
X130104600Y-63620600D01*
X130104600Y-73996600D02*
X130104600Y-70248600D01*
X130144600Y-67368600D02*
X130144600Y-63592600D01*
X130144600Y-74024600D02*
X130144600Y-70248600D01*
X130184600Y-67368600D02*
X130184600Y-63565600D01*
X130184600Y-74051600D02*
X130184600Y-70248600D01*
X130224600Y-67368600D02*
X130224600Y-63538600D01*
X130224600Y-74078600D02*
X130224600Y-70248600D01*
X130264600Y-67368600D02*
X130264600Y-63512600D01*
X130264600Y-74104600D02*
X130264600Y-70248600D01*
X130304600Y-67368600D02*
X130304600Y-63486600D01*
X130304600Y-74130600D02*
X130304600Y-70248600D01*
X130344600Y-67368600D02*
X130344600Y-63461600D01*
X130344600Y-74155600D02*
X130344600Y-70248600D01*
X130384600Y-67368600D02*
X130384600Y-63436600D01*
X130384600Y-74180600D02*
X130384600Y-70248600D01*
X130424600Y-67368600D02*
X130424600Y-63411600D01*
X130424600Y-74205600D02*
X130424600Y-70248600D01*
X130464600Y-67368600D02*
X130464600Y-63387600D01*
X130464600Y-74229600D02*
X130464600Y-70248600D01*
X130504600Y-67368600D02*
X130504600Y-63363600D01*
X130504600Y-74253600D02*
X130504600Y-70248600D01*
X130544600Y-67368600D02*
X130544600Y-63340600D01*
X130544600Y-74276600D02*
X130544600Y-70248600D01*
X130584600Y-67368600D02*
X130584600Y-63317600D01*
X130584600Y-74299600D02*
X130584600Y-70248600D01*
X130624600Y-67368600D02*
X130624600Y-63294600D01*
X130624600Y-74322600D02*
X130624600Y-70248600D01*
X130664600Y-67368600D02*
X130664600Y-63272600D01*
X130664600Y-74344600D02*
X130664600Y-70248600D01*
X130704600Y-67368600D02*
X130704600Y-63250600D01*
X130704600Y-74366600D02*
X130704600Y-70248600D01*
X130744600Y-67368600D02*
X130744600Y-63228600D01*
X130744600Y-74388600D02*
X130744600Y-70248600D01*
X130784600Y-67368600D02*
X130784600Y-63207600D01*
X130784600Y-74409600D02*
X130784600Y-70248600D01*
X130824600Y-67368600D02*
X130824600Y-63186600D01*
X130824600Y-74430600D02*
X130824600Y-70248600D01*
X130864600Y-67368600D02*
X130864600Y-63166600D01*
X130864600Y-74450600D02*
X130864600Y-70248600D01*
X130904600Y-67368600D02*
X130904600Y-63146600D01*
X130904600Y-74470600D02*
X130904600Y-70248600D01*
X130944600Y-67368600D02*
X130944600Y-63126600D01*
X130944600Y-74490600D02*
X130944600Y-70248600D01*
X130984600Y-67368600D02*
X130984600Y-63106600D01*
X130984600Y-74510600D02*
X130984600Y-70248600D01*
X131024600Y-67368600D02*
X131024600Y-63087600D01*
X131024600Y-74529600D02*
X131024600Y-70248600D01*
X131064600Y-67368600D02*
X131064600Y-63069600D01*
X131064600Y-74547600D02*
X131064600Y-70248600D01*
X131104600Y-67368600D02*
X131104600Y-63050600D01*
X131104600Y-74566600D02*
X131104600Y-70248600D01*
X131144600Y-67368600D02*
X131144600Y-63032600D01*
X131144600Y-74584600D02*
X131144600Y-70248600D01*
X131184600Y-67368600D02*
X131184600Y-63015600D01*
X131184600Y-74601600D02*
X131184600Y-70248600D01*
X131224600Y-67368600D02*
X131224600Y-62997600D01*
X131224600Y-74619600D02*
X131224600Y-70248600D01*
X131264600Y-67368600D02*
X131264600Y-62980600D01*
X131264600Y-74636600D02*
X131264600Y-70248600D01*
X131304600Y-67368600D02*
X131304600Y-62963600D01*
X131304600Y-74653600D02*
X131304600Y-70248600D01*
X131344600Y-67368600D02*
X131344600Y-62947600D01*
X131344600Y-74669600D02*
X131344600Y-70248600D01*
X131384600Y-67368600D02*
X131384600Y-62931600D01*
X131384600Y-74685600D02*
X131384600Y-70248600D01*
X131424600Y-67368600D02*
X131424600Y-62915600D01*
X131424600Y-74701600D02*
X131424600Y-70248600D01*
X131464600Y-67368600D02*
X131464600Y-62900600D01*
X131464600Y-74716600D02*
X131464600Y-70248600D01*
X131504600Y-67368600D02*
X131504600Y-62884600D01*
X131504600Y-74732600D02*
X131504600Y-70248600D01*
X131544600Y-67368600D02*
X131544600Y-62869600D01*
X131544600Y-74747600D02*
X131544600Y-70248600D01*
X131584600Y-67368600D02*
X131584600Y-62855600D01*
X131584600Y-74761600D02*
X131584600Y-70248600D01*
X131624600Y-67368600D02*
X131624600Y-62841600D01*
X131624600Y-74775600D02*
X131624600Y-70248600D01*
X131664600Y-67368600D02*
X131664600Y-62827600D01*
X131664600Y-74789600D02*
X131664600Y-70248600D01*
X131704600Y-67368600D02*
X131704600Y-62813600D01*
X131704600Y-74803600D02*
X131704600Y-70248600D01*
X131744600Y-67368600D02*
X131744600Y-62800600D01*
X131744600Y-74816600D02*
X131744600Y-70248600D01*
X131784600Y-67368600D02*
X131784600Y-62787600D01*
X131784600Y-74829600D02*
X131784600Y-70248600D01*
X131824600Y-67368600D02*
X131824600Y-62774600D01*
X131824600Y-74842600D02*
X131824600Y-70248600D01*
X131864600Y-67368600D02*
X131864600Y-62761600D01*
X131864600Y-74855600D02*
X131864600Y-70248600D01*
X131904600Y-67368600D02*
X131904600Y-62749600D01*
X131904600Y-74867600D02*
X131904600Y-70248600D01*
X131944600Y-67368600D02*
X131944600Y-62737600D01*
X131944600Y-74879600D02*
X131944600Y-70248600D01*
X131984600Y-67368600D02*
X131984600Y-62725600D01*
X131984600Y-74891600D02*
X131984600Y-70248600D01*
X132024600Y-67368600D02*
X132024600Y-62714600D01*
X132024600Y-74902600D02*
X132024600Y-70248600D01*
X132064600Y-67368600D02*
X132064600Y-62703600D01*
X132064600Y-74913600D02*
X132064600Y-70248600D01*
X132104600Y-67368600D02*
X132104600Y-62692600D01*
X132104600Y-74924600D02*
X132104600Y-70248600D01*
X132144600Y-67368600D02*
X132144600Y-62682600D01*
X132144600Y-74934600D02*
X132144600Y-70248600D01*
X132184600Y-67368600D02*
X132184600Y-62671600D01*
X132184600Y-74945600D02*
X132184600Y-70248600D01*
X132224600Y-67368600D02*
X132224600Y-62662600D01*
X132224600Y-74954600D02*
X132224600Y-70248600D01*
X132264600Y-67368600D02*
X132264600Y-62652600D01*
X132264600Y-74964600D02*
X132264600Y-70248600D01*
X132304600Y-67368600D02*
X132304600Y-62642600D01*
X132304600Y-74974600D02*
X132304600Y-70248600D01*
X132344600Y-67368600D02*
X132344600Y-62633600D01*
X132344600Y-74983600D02*
X132344600Y-70248600D01*
X132384600Y-67368600D02*
X132384600Y-62624600D01*
X132384600Y-74992600D02*
X132384600Y-70248600D01*
X132424600Y-67368600D02*
X132424600Y-62616600D01*
X132424600Y-75000600D02*
X132424600Y-70248600D01*
X132464600Y-67368600D02*
X132464600Y-62607600D01*
X132464600Y-75009600D02*
X132464600Y-70248600D01*
X132504600Y-67368600D02*
X132504600Y-62599600D01*
X132504600Y-75017600D02*
X132504600Y-70248600D01*
X132544600Y-67368600D02*
X132544600Y-62592600D01*
X132544600Y-75024600D02*
X132544600Y-70248600D01*
X132584600Y-67368600D02*
X132584600Y-62584600D01*
X132584600Y-75032600D02*
X132584600Y-70248600D01*
X132624600Y-67368600D02*
X132624600Y-62577600D01*
X132624600Y-75039600D02*
X132624600Y-70248600D01*
X132664600Y-67368600D02*
X132664600Y-62570600D01*
X132664600Y-75046600D02*
X132664600Y-70248600D01*
X132704600Y-75053600D02*
X132704600Y-62563600D01*
X132744600Y-75060600D02*
X132744600Y-62556600D01*
X132784600Y-75066600D02*
X132784600Y-62550600D01*
X132824600Y-75072600D02*
X132824600Y-62544600D01*
X132864600Y-75077600D02*
X132864600Y-62539600D01*
X132904600Y-75083600D02*
X132904600Y-62533600D01*
X132944600Y-75088600D02*
X132944600Y-62528600D01*
X132984600Y-75093600D02*
X132984600Y-62523600D01*
X133024600Y-75098600D02*
X133024600Y-62518600D01*
X133065600Y-75102600D02*
X133065600Y-62514600D01*
X133105600Y-75106600D02*
X133105600Y-62510600D01*
X133145600Y-75110600D02*
X133145600Y-62506600D01*
X133185600Y-75114600D02*
X133185600Y-62502600D01*
X133225600Y-75117600D02*
X133225600Y-62499600D01*
X133265600Y-75120600D02*
X133265600Y-62496600D01*
X133305600Y-75123600D02*
X133305600Y-62493600D01*
X133345600Y-75126600D02*
X133345600Y-62490600D01*
X133385600Y-75128600D02*
X133385600Y-62488600D01*
X133425600Y-75130600D02*
X133425600Y-62486600D01*
X133465600Y-75132600D02*
X133465600Y-62484600D01*
X133505600Y-75134600D02*
X133505600Y-62482600D01*
X133545600Y-75135600D02*
X133545600Y-62481600D01*
X133585600Y-75136600D02*
X133585600Y-62480600D01*
X133625600Y-75137600D02*
X133625600Y-62479600D01*
X133665600Y-75138600D02*
X133665600Y-62478600D01*
X133705600Y-75138600D02*
X133705600Y-62478600D01*
X133745600Y-75138600D02*
X133745600Y-62478600D01*
X140115600Y-68808600D02*
G75*
G03*
X140115600Y-68808600I-6370000J0D01*
G01*
%TO.C,C3*%
X150645122Y-56846400D02*
X151162278Y-56846400D01*
X150645122Y-58266400D02*
X151162278Y-58266400D01*
%TO.C,C4*%
X115062600Y-96426000D02*
X115062600Y-104486000D01*
X115062600Y-104486000D02*
X119582600Y-104486000D01*
X119582600Y-104486000D02*
X119582600Y-96426000D01*
%TO.C,C5*%
X144754000Y-95937900D02*
X144754000Y-87877900D01*
X140234000Y-95937900D02*
X144754000Y-95937900D01*
X140234000Y-87877900D02*
X140234000Y-95937900D01*
%TO.C,C6*%
X86992722Y-83262400D02*
X87509878Y-83262400D01*
X86992722Y-84682400D02*
X87509878Y-84682400D01*
%TO.C,C7*%
X170359000Y-123928878D02*
X170359000Y-123411722D01*
X171779000Y-123928878D02*
X171779000Y-123411722D01*
%TO.C,C9*%
X87284000Y-119678000D02*
X87284000Y-120928000D01*
X86659000Y-120303000D02*
X87909000Y-120303000D01*
X88149000Y-127258563D02*
X89213437Y-128323000D01*
X88149000Y-118867437D02*
X89213437Y-117803000D01*
X88149000Y-118867437D02*
X88149000Y-121553000D01*
X88149000Y-127258563D02*
X88149000Y-124573000D01*
X89213437Y-128323000D02*
X98669000Y-128323000D01*
X89213437Y-117803000D02*
X98669000Y-117803000D01*
X98669000Y-117803000D02*
X98669000Y-121553000D01*
X98669000Y-128323000D02*
X98669000Y-124573000D01*
%TO.C,C10*%
X88072800Y-46454400D02*
X88072800Y-50204400D01*
X88072800Y-56974400D02*
X88072800Y-53224400D01*
X97528363Y-56974400D02*
X88072800Y-56974400D01*
X97528363Y-46454400D02*
X88072800Y-46454400D01*
X98592800Y-47518837D02*
X98592800Y-50204400D01*
X98592800Y-55909963D02*
X98592800Y-53224400D01*
X98592800Y-55909963D02*
X97528363Y-56974400D01*
X98592800Y-47518837D02*
X97528363Y-46454400D01*
X100082800Y-54474400D02*
X98832800Y-54474400D01*
X99457800Y-55099400D02*
X99457800Y-53849400D01*
%TO.C,C11*%
X150113400Y-126470700D02*
X150113400Y-118410700D01*
X145593400Y-126470700D02*
X150113400Y-126470700D01*
X145593400Y-118410700D02*
X145593400Y-126470700D01*
%TO.C,C12*%
X146273200Y-55840000D02*
G75*
G03*
X146273200Y-55840000I-6370000J0D01*
G01*
X133573200Y-55840000D02*
X146233200Y-55840000D01*
X133573200Y-55800000D02*
X146233200Y-55800000D01*
X133573200Y-55760000D02*
X146233200Y-55760000D01*
X133574200Y-55720000D02*
X146232200Y-55720000D01*
X133575200Y-55680000D02*
X146231200Y-55680000D01*
X133576200Y-55640000D02*
X146230200Y-55640000D01*
X133577200Y-55600000D02*
X146229200Y-55600000D01*
X133579200Y-55560000D02*
X146227200Y-55560000D01*
X133581200Y-55520000D02*
X146225200Y-55520000D01*
X133583200Y-55480000D02*
X146223200Y-55480000D01*
X133585200Y-55440000D02*
X146221200Y-55440000D01*
X133588200Y-55400000D02*
X146218200Y-55400000D01*
X133591200Y-55360000D02*
X146215200Y-55360000D01*
X133594200Y-55320000D02*
X146212200Y-55320000D01*
X133597200Y-55280000D02*
X146209200Y-55280000D01*
X133601200Y-55240000D02*
X146205200Y-55240000D01*
X133605200Y-55200000D02*
X146201200Y-55200000D01*
X133609200Y-55160000D02*
X146197200Y-55160000D01*
X133613200Y-55119000D02*
X146193200Y-55119000D01*
X133618200Y-55079000D02*
X146188200Y-55079000D01*
X133623200Y-55039000D02*
X146183200Y-55039000D01*
X133628200Y-54999000D02*
X146178200Y-54999000D01*
X133634200Y-54959000D02*
X146172200Y-54959000D01*
X133639200Y-54919000D02*
X146167200Y-54919000D01*
X133645200Y-54879000D02*
X146161200Y-54879000D01*
X133651200Y-54839000D02*
X146155200Y-54839000D01*
X133658200Y-54799000D02*
X146148200Y-54799000D01*
X133665200Y-54759000D02*
X138463200Y-54759000D01*
X141343200Y-54759000D02*
X146141200Y-54759000D01*
X133672200Y-54719000D02*
X138463200Y-54719000D01*
X141343200Y-54719000D02*
X146134200Y-54719000D01*
X133679200Y-54679000D02*
X138463200Y-54679000D01*
X141343200Y-54679000D02*
X146127200Y-54679000D01*
X133687200Y-54639000D02*
X138463200Y-54639000D01*
X141343200Y-54639000D02*
X146119200Y-54639000D01*
X133694200Y-54599000D02*
X138463200Y-54599000D01*
X141343200Y-54599000D02*
X146112200Y-54599000D01*
X133702200Y-54559000D02*
X138463200Y-54559000D01*
X141343200Y-54559000D02*
X146104200Y-54559000D01*
X133711200Y-54519000D02*
X138463200Y-54519000D01*
X141343200Y-54519000D02*
X146095200Y-54519000D01*
X133719200Y-54479000D02*
X138463200Y-54479000D01*
X141343200Y-54479000D02*
X146087200Y-54479000D01*
X133728200Y-54439000D02*
X138463200Y-54439000D01*
X141343200Y-54439000D02*
X146078200Y-54439000D01*
X133737200Y-54399000D02*
X138463200Y-54399000D01*
X141343200Y-54399000D02*
X146069200Y-54399000D01*
X133747200Y-54359000D02*
X138463200Y-54359000D01*
X141343200Y-54359000D02*
X146059200Y-54359000D01*
X133757200Y-54319000D02*
X138463200Y-54319000D01*
X141343200Y-54319000D02*
X146049200Y-54319000D01*
X133766200Y-54279000D02*
X138463200Y-54279000D01*
X141343200Y-54279000D02*
X146040200Y-54279000D01*
X133777200Y-54239000D02*
X138463200Y-54239000D01*
X141343200Y-54239000D02*
X146029200Y-54239000D01*
X133787200Y-54199000D02*
X138463200Y-54199000D01*
X141343200Y-54199000D02*
X146019200Y-54199000D01*
X133798200Y-54159000D02*
X138463200Y-54159000D01*
X141343200Y-54159000D02*
X146008200Y-54159000D01*
X133809200Y-54119000D02*
X138463200Y-54119000D01*
X141343200Y-54119000D02*
X145997200Y-54119000D01*
X133820200Y-54079000D02*
X138463200Y-54079000D01*
X141343200Y-54079000D02*
X145986200Y-54079000D01*
X133832200Y-54039000D02*
X138463200Y-54039000D01*
X141343200Y-54039000D02*
X145974200Y-54039000D01*
X133844200Y-53999000D02*
X138463200Y-53999000D01*
X141343200Y-53999000D02*
X145962200Y-53999000D01*
X133856200Y-53959000D02*
X138463200Y-53959000D01*
X141343200Y-53959000D02*
X145950200Y-53959000D01*
X133869200Y-53919000D02*
X138463200Y-53919000D01*
X141343200Y-53919000D02*
X145937200Y-53919000D01*
X133882200Y-53879000D02*
X138463200Y-53879000D01*
X141343200Y-53879000D02*
X145924200Y-53879000D01*
X133895200Y-53839000D02*
X138463200Y-53839000D01*
X141343200Y-53839000D02*
X145911200Y-53839000D01*
X133908200Y-53799000D02*
X138463200Y-53799000D01*
X141343200Y-53799000D02*
X145898200Y-53799000D01*
X133922200Y-53759000D02*
X138463200Y-53759000D01*
X141343200Y-53759000D02*
X145884200Y-53759000D01*
X133936200Y-53719000D02*
X138463200Y-53719000D01*
X141343200Y-53719000D02*
X145870200Y-53719000D01*
X133950200Y-53679000D02*
X138463200Y-53679000D01*
X141343200Y-53679000D02*
X145856200Y-53679000D01*
X133964200Y-53639000D02*
X138463200Y-53639000D01*
X141343200Y-53639000D02*
X145842200Y-53639000D01*
X133979200Y-53599000D02*
X138463200Y-53599000D01*
X141343200Y-53599000D02*
X145827200Y-53599000D01*
X133995200Y-53559000D02*
X138463200Y-53559000D01*
X141343200Y-53559000D02*
X145811200Y-53559000D01*
X134010200Y-53519000D02*
X138463200Y-53519000D01*
X141343200Y-53519000D02*
X145796200Y-53519000D01*
X134026200Y-53479000D02*
X138463200Y-53479000D01*
X141343200Y-53479000D02*
X145780200Y-53479000D01*
X134042200Y-53439000D02*
X138463200Y-53439000D01*
X141343200Y-53439000D02*
X145764200Y-53439000D01*
X134058200Y-53399000D02*
X138463200Y-53399000D01*
X141343200Y-53399000D02*
X145748200Y-53399000D01*
X134075200Y-53359000D02*
X138463200Y-53359000D01*
X141343200Y-53359000D02*
X145731200Y-53359000D01*
X134092200Y-53319000D02*
X138463200Y-53319000D01*
X141343200Y-53319000D02*
X145714200Y-53319000D01*
X134110200Y-53279000D02*
X138463200Y-53279000D01*
X141343200Y-53279000D02*
X145696200Y-53279000D01*
X134127200Y-53239000D02*
X138463200Y-53239000D01*
X141343200Y-53239000D02*
X145679200Y-53239000D01*
X134145200Y-53199000D02*
X138463200Y-53199000D01*
X141343200Y-53199000D02*
X145661200Y-53199000D01*
X134164200Y-53159000D02*
X138463200Y-53159000D01*
X141343200Y-53159000D02*
X145642200Y-53159000D01*
X134182200Y-53119000D02*
X138463200Y-53119000D01*
X141343200Y-53119000D02*
X145624200Y-53119000D01*
X134201200Y-53079000D02*
X138463200Y-53079000D01*
X141343200Y-53079000D02*
X145605200Y-53079000D01*
X134221200Y-53039000D02*
X138463200Y-53039000D01*
X141343200Y-53039000D02*
X145585200Y-53039000D01*
X134241200Y-52999000D02*
X138463200Y-52999000D01*
X141343200Y-52999000D02*
X145565200Y-52999000D01*
X134261200Y-52959000D02*
X138463200Y-52959000D01*
X141343200Y-52959000D02*
X145545200Y-52959000D01*
X134281200Y-52919000D02*
X138463200Y-52919000D01*
X141343200Y-52919000D02*
X145525200Y-52919000D01*
X134302200Y-52879000D02*
X138463200Y-52879000D01*
X141343200Y-52879000D02*
X145504200Y-52879000D01*
X134323200Y-52839000D02*
X138463200Y-52839000D01*
X141343200Y-52839000D02*
X145483200Y-52839000D01*
X134345200Y-52799000D02*
X138463200Y-52799000D01*
X141343200Y-52799000D02*
X145461200Y-52799000D01*
X134367200Y-52759000D02*
X138463200Y-52759000D01*
X141343200Y-52759000D02*
X145439200Y-52759000D01*
X134389200Y-52719000D02*
X138463200Y-52719000D01*
X141343200Y-52719000D02*
X145417200Y-52719000D01*
X134412200Y-52679000D02*
X138463200Y-52679000D01*
X141343200Y-52679000D02*
X145394200Y-52679000D01*
X134435200Y-52639000D02*
X138463200Y-52639000D01*
X141343200Y-52639000D02*
X145371200Y-52639000D01*
X134458200Y-52599000D02*
X138463200Y-52599000D01*
X141343200Y-52599000D02*
X145348200Y-52599000D01*
X134482200Y-52559000D02*
X138463200Y-52559000D01*
X141343200Y-52559000D02*
X145324200Y-52559000D01*
X134506200Y-52519000D02*
X138463200Y-52519000D01*
X141343200Y-52519000D02*
X145300200Y-52519000D01*
X134531200Y-52479000D02*
X138463200Y-52479000D01*
X141343200Y-52479000D02*
X145275200Y-52479000D01*
X134556200Y-52439000D02*
X138463200Y-52439000D01*
X141343200Y-52439000D02*
X145250200Y-52439000D01*
X134581200Y-52399000D02*
X138463200Y-52399000D01*
X141343200Y-52399000D02*
X145225200Y-52399000D01*
X134607200Y-52359000D02*
X138463200Y-52359000D01*
X141343200Y-52359000D02*
X145199200Y-52359000D01*
X134633200Y-52319000D02*
X138463200Y-52319000D01*
X141343200Y-52319000D02*
X145173200Y-52319000D01*
X134660200Y-52279000D02*
X138463200Y-52279000D01*
X141343200Y-52279000D02*
X145146200Y-52279000D01*
X134687200Y-52239000D02*
X138463200Y-52239000D01*
X141343200Y-52239000D02*
X145119200Y-52239000D01*
X134715200Y-52199000D02*
X138463200Y-52199000D01*
X141343200Y-52199000D02*
X145091200Y-52199000D01*
X134743200Y-52159000D02*
X138463200Y-52159000D01*
X141343200Y-52159000D02*
X145063200Y-52159000D01*
X134772200Y-52119000D02*
X138463200Y-52119000D01*
X141343200Y-52119000D02*
X145034200Y-52119000D01*
X134801200Y-52079000D02*
X138463200Y-52079000D01*
X141343200Y-52079000D02*
X145005200Y-52079000D01*
X134830200Y-52039000D02*
X138463200Y-52039000D01*
X141343200Y-52039000D02*
X144976200Y-52039000D01*
X134860200Y-51999000D02*
X138463200Y-51999000D01*
X141343200Y-51999000D02*
X144946200Y-51999000D01*
X134891200Y-51959000D02*
X138463200Y-51959000D01*
X141343200Y-51959000D02*
X144915200Y-51959000D01*
X134921200Y-51919000D02*
X138463200Y-51919000D01*
X141343200Y-51919000D02*
X144885200Y-51919000D01*
X134953200Y-51879000D02*
X144853200Y-51879000D01*
X134985200Y-51839000D02*
X144821200Y-51839000D01*
X135018200Y-51799000D02*
X144788200Y-51799000D01*
X135051200Y-51759000D02*
X144755200Y-51759000D01*
X135084200Y-51719000D02*
X144722200Y-51719000D01*
X135118200Y-51679000D02*
X144688200Y-51679000D01*
X135153200Y-51639000D02*
X144653200Y-51639000D01*
X135189200Y-51599000D02*
X144617200Y-51599000D01*
X135225200Y-51559000D02*
X144581200Y-51559000D01*
X135261200Y-51519000D02*
X144545200Y-51519000D01*
X135298200Y-51479000D02*
X144508200Y-51479000D01*
X135336200Y-51439000D02*
X144470200Y-51439000D01*
X135375200Y-51399000D02*
X144431200Y-51399000D01*
X135414200Y-51359000D02*
X144392200Y-51359000D01*
X135454200Y-51319000D02*
X144352200Y-51319000D01*
X135495200Y-51279000D02*
X144311200Y-51279000D01*
X135536200Y-51239000D02*
X144270200Y-51239000D01*
X135578200Y-51199000D02*
X144228200Y-51199000D01*
X135621200Y-51159000D02*
X144185200Y-51159000D01*
X135665200Y-51119000D02*
X144141200Y-51119000D01*
X135709200Y-51079000D02*
X144097200Y-51079000D01*
X135755200Y-51039000D02*
X144051200Y-51039000D01*
X135801200Y-50999000D02*
X144005200Y-50999000D01*
X135848200Y-50959000D02*
X143958200Y-50959000D01*
X135896200Y-50919000D02*
X143910200Y-50919000D01*
X135946200Y-50879000D02*
X143860200Y-50879000D01*
X135996200Y-50839000D02*
X143810200Y-50839000D01*
X136047200Y-50799000D02*
X143759200Y-50799000D01*
X136099200Y-50759000D02*
X143707200Y-50759000D01*
X136153200Y-50719000D02*
X143653200Y-50719000D01*
X136207200Y-50679000D02*
X143599200Y-50679000D01*
X136263200Y-50639000D02*
X143543200Y-50639000D01*
X136320200Y-50599000D02*
X143486200Y-50599000D01*
X136379200Y-50559000D02*
X143427200Y-50559000D01*
X136439200Y-50519000D02*
X143367200Y-50519000D01*
X136501200Y-50479000D02*
X143305200Y-50479000D01*
X136564200Y-50439000D02*
X143242200Y-50439000D01*
X136628200Y-50399000D02*
X143178200Y-50399000D01*
X136695200Y-50359000D02*
X143111200Y-50359000D01*
X136763200Y-50319000D02*
X143043200Y-50319000D01*
X136834200Y-50279000D02*
X142972200Y-50279000D01*
X136907200Y-50239000D02*
X142899200Y-50239000D01*
X136982200Y-50199000D02*
X142824200Y-50199000D01*
X137059200Y-50159000D02*
X142747200Y-50159000D01*
X137139200Y-50119000D02*
X142667200Y-50119000D01*
X137222200Y-50079000D02*
X142584200Y-50079000D01*
X137309200Y-50039000D02*
X142497200Y-50039000D01*
X137399200Y-49999000D02*
X142407200Y-49999000D01*
X137493200Y-49959000D02*
X142313200Y-49959000D01*
X137591200Y-49919000D02*
X142215200Y-49919000D01*
X137694200Y-49879000D02*
X142112200Y-49879000D01*
X137803200Y-49839000D02*
X142003200Y-49839000D01*
X137919200Y-49799000D02*
X141887200Y-49799000D01*
X138042200Y-49759000D02*
X141764200Y-49759000D01*
X138175200Y-49719000D02*
X141631200Y-49719000D01*
X138320200Y-49679000D02*
X141486200Y-49679000D01*
X138481200Y-49639000D02*
X141325200Y-49639000D01*
X138662200Y-49599000D02*
X141144200Y-49599000D01*
X138875200Y-49559000D02*
X140931200Y-49559000D01*
X139146200Y-49519000D02*
X140660200Y-49519000D01*
X139586200Y-49479000D02*
X140220200Y-49479000D01*
X136328200Y-62657082D02*
X136328200Y-61407082D01*
X135703200Y-62032082D02*
X136953200Y-62032082D01*
%TO.C,C13*%
X122960200Y-48089078D02*
X122960200Y-47571922D01*
X121540200Y-48089078D02*
X121540200Y-47571922D01*
%TO.C,C14*%
X162433600Y-118537700D02*
X162433600Y-126597700D01*
X162433600Y-126597700D02*
X166953600Y-126597700D01*
X166953600Y-126597700D02*
X166953600Y-118537700D01*
%TO.C,C15*%
X151966100Y-98678400D02*
X160026100Y-98678400D01*
X151966100Y-94158400D02*
X151966100Y-98678400D01*
X160026100Y-94158400D02*
X151966100Y-94158400D01*
%TO.C,C16*%
X167234800Y-73886322D02*
X167234800Y-74403478D01*
X168654800Y-73886322D02*
X168654800Y-74403478D01*
%TO.C,C17*%
X170915400Y-47855878D02*
X170915400Y-47338722D01*
X169495400Y-47855878D02*
X169495400Y-47338722D01*
%TO.C,D1*%
X145911400Y-70900800D02*
X142011400Y-70900800D01*
X145911400Y-68900800D02*
X142011400Y-68900800D01*
X145911400Y-70900800D02*
X145911400Y-68900800D01*
%TO.C,D2*%
X151270800Y-70900800D02*
X147370800Y-70900800D01*
X151270800Y-68900800D02*
X147370800Y-68900800D01*
X151270800Y-70900800D02*
X151270800Y-68900800D01*
%TO.C,D3*%
X141413400Y-65979800D02*
X141413400Y-67979800D01*
X141413400Y-67979800D02*
X145313400Y-67979800D01*
X141413400Y-65979800D02*
X145313400Y-65979800D01*
%TO.C,D4*%
X146772800Y-65954400D02*
X146772800Y-67954400D01*
X146772800Y-67954400D02*
X150672800Y-67954400D01*
X146772800Y-65954400D02*
X150672800Y-65954400D01*
%TO.C,D5*%
X132165600Y-48930000D02*
X132165600Y-52830000D01*
X130165600Y-48930000D02*
X130165600Y-52830000D01*
X132165600Y-48930000D02*
X130165600Y-48930000D01*
%TO.C,D6*%
X128635000Y-45630000D02*
X128635000Y-49530000D01*
X126635000Y-45630000D02*
X126635000Y-49530000D01*
X128635000Y-45630000D02*
X126635000Y-45630000D01*
%TO.C,D7*%
X100951200Y-103902000D02*
X100951200Y-105902000D01*
X100951200Y-105902000D02*
X104851200Y-105902000D01*
X100951200Y-103902000D02*
X104851200Y-103902000D01*
%TO.C,D8*%
X105475600Y-71002400D02*
X105475600Y-69002400D01*
X105475600Y-69002400D02*
X101575600Y-69002400D01*
X105475600Y-71002400D02*
X101575600Y-71002400D01*
%TO.C,D9*%
X152790600Y-115179600D02*
X156690600Y-115179600D01*
X152790600Y-117179600D02*
X156690600Y-117179600D01*
X152790600Y-115179600D02*
X152790600Y-117179600D01*
%TO.C,F1*%
X140608400Y-125146400D02*
X140608400Y-127946400D01*
X140608400Y-125146400D02*
X118008400Y-125146400D01*
X140608400Y-134746400D02*
X118008400Y-134746400D01*
X140608400Y-131946400D02*
X140608400Y-134746400D01*
X118008400Y-131946400D02*
X118008400Y-134746400D01*
X118008400Y-125146400D02*
X118008400Y-127946400D01*
%TO.C,F2*%
X116967000Y-38583200D02*
X116967000Y-41383200D01*
X116967000Y-45383200D02*
X116967000Y-48183200D01*
X139567000Y-45383200D02*
X139567000Y-48183200D01*
X139567000Y-48183200D02*
X116967000Y-48183200D01*
X139567000Y-38583200D02*
X116967000Y-38583200D01*
X139567000Y-38583200D02*
X139567000Y-41383200D01*
%TO.C,HS1*%
X110433600Y-74274200D02*
X114153600Y-76774200D01*
X114153600Y-76774200D02*
X114093600Y-76954200D01*
X114093600Y-76954200D02*
X111293600Y-76294200D01*
X111293600Y-76294200D02*
X114173600Y-81594200D01*
X114053600Y-81714200D02*
X110283600Y-79564200D01*
X110963600Y-81614200D02*
X110813600Y-81704200D01*
X110283600Y-79564200D02*
X110963600Y-81614200D01*
X110813600Y-81704200D02*
X108923600Y-79744200D01*
X114173600Y-81594200D02*
X114053600Y-81714200D01*
X100943600Y-72654200D02*
X104653600Y-74264200D01*
X106693600Y-71984200D02*
X100943600Y-71984200D01*
X100943600Y-71984200D02*
X100943600Y-72654200D01*
X103793600Y-76294200D02*
X100913600Y-81594200D01*
X100933600Y-76774200D02*
X100993600Y-76954200D01*
X100993600Y-76954200D02*
X103793600Y-76294200D01*
X104653600Y-74274200D02*
X100933600Y-76774200D01*
X104273600Y-81704200D02*
X106163600Y-79744200D01*
X101033600Y-81714200D02*
X104803600Y-79564200D01*
X104123600Y-81614200D02*
X104273600Y-81704200D01*
X100913600Y-81594200D02*
X101033600Y-81714200D01*
X104803600Y-79564200D02*
X104123600Y-81614200D01*
X106693600Y-64084200D02*
X106693600Y-71984200D01*
X108393600Y-71984200D02*
X114143600Y-71984200D01*
X114143600Y-71984200D02*
X114143600Y-72654200D01*
X114143600Y-72654200D02*
X110433600Y-74264200D01*
X108393600Y-64084200D02*
X108393600Y-71984200D01*
X100993600Y-51214200D02*
X103793600Y-51874200D01*
X100933600Y-51394200D02*
X100993600Y-51214200D01*
X104653600Y-53894200D02*
X100933600Y-51394200D01*
X103793600Y-51874200D02*
X100913600Y-46574200D01*
X104273600Y-46464200D02*
X106163600Y-48424200D01*
X104803600Y-48604200D02*
X104123600Y-46554200D01*
X101033600Y-46454200D02*
X104803600Y-48604200D01*
X100913600Y-46574200D02*
X101033600Y-46454200D01*
X104123600Y-46554200D02*
X104273600Y-46464200D01*
X100943600Y-55514200D02*
X104653600Y-53904200D01*
X106693600Y-64084200D02*
X106693600Y-56184200D01*
X106693600Y-56184200D02*
X100943600Y-56184200D01*
X100943600Y-56184200D02*
X100943600Y-55514200D01*
X108393600Y-64084200D02*
X108393600Y-56184200D01*
X108393600Y-56184200D02*
X114143600Y-56184200D01*
X114143600Y-56184200D02*
X114143600Y-55514200D01*
X114143600Y-55514200D02*
X110433600Y-53904200D01*
X110433600Y-53894200D02*
X114153600Y-51394200D01*
X114153600Y-51394200D02*
X114093600Y-51214200D01*
X114093600Y-51214200D02*
X111293600Y-51874200D01*
X111293600Y-51874200D02*
X114173600Y-46574200D01*
X114173600Y-46574200D02*
X114053600Y-46454200D01*
X114053600Y-46454200D02*
X110283600Y-48604200D01*
X110283600Y-48604200D02*
X110963600Y-46554200D01*
X110963600Y-46554200D02*
X110813600Y-46464200D01*
X110813600Y-46464200D02*
X108923600Y-48424200D01*
%TO.C,HS2*%
X104260900Y-128351300D02*
X106150900Y-126391300D01*
X104110900Y-128261300D02*
X104260900Y-128351300D01*
X104790900Y-126211300D02*
X104110900Y-128261300D01*
X101020900Y-128361300D02*
X104790900Y-126211300D01*
X100900900Y-128241300D02*
X101020900Y-128361300D01*
X103780900Y-122941300D02*
X100900900Y-128241300D01*
X100980900Y-123601300D02*
X103780900Y-122941300D01*
X100920900Y-123421300D02*
X100980900Y-123601300D01*
X104640900Y-120921300D02*
X100920900Y-123421300D01*
X100930900Y-119301300D02*
X104640900Y-120911300D01*
X100930900Y-118631300D02*
X100930900Y-119301300D01*
X106680900Y-118631300D02*
X100930900Y-118631300D01*
X106680900Y-110731300D02*
X106680900Y-118631300D01*
X114130900Y-118631300D02*
X114130900Y-119301300D01*
X108380900Y-118631300D02*
X114130900Y-118631300D01*
X108380900Y-110731300D02*
X108380900Y-118631300D01*
X114130900Y-119301300D02*
X110420900Y-120911300D01*
X110950900Y-128261300D02*
X110800900Y-128351300D01*
X114160900Y-128241300D02*
X114040900Y-128361300D01*
X114040900Y-128361300D02*
X110270900Y-126211300D01*
X110270900Y-126211300D02*
X110950900Y-128261300D01*
X110800900Y-128351300D02*
X108910900Y-126391300D01*
X111280900Y-122941300D02*
X114160900Y-128241300D01*
X110420900Y-120921300D02*
X114140900Y-123421300D01*
X114140900Y-123421300D02*
X114080900Y-123601300D01*
X114080900Y-123601300D02*
X111280900Y-122941300D01*
X106680900Y-110731300D02*
X106680900Y-102831300D01*
X100930900Y-102161300D02*
X104640900Y-100551300D01*
X100930900Y-102831300D02*
X100930900Y-102161300D01*
X106680900Y-102831300D02*
X100930900Y-102831300D01*
X108380900Y-110731300D02*
X108380900Y-102831300D01*
X110270900Y-95251300D02*
X110950900Y-93201300D01*
X114160900Y-93221300D02*
X114040900Y-93101300D01*
X110950900Y-93201300D02*
X110800900Y-93111300D01*
X114040900Y-93101300D02*
X110270900Y-95251300D01*
X110800900Y-93111300D02*
X108910900Y-95071300D01*
X110420900Y-100541300D02*
X114140900Y-98041300D01*
X114080900Y-97861300D02*
X111280900Y-98521300D01*
X114140900Y-98041300D02*
X114080900Y-97861300D01*
X111280900Y-98521300D02*
X114160900Y-93221300D01*
X114130900Y-102831300D02*
X114130900Y-102161300D01*
X108380900Y-102831300D02*
X114130900Y-102831300D01*
X114130900Y-102161300D02*
X110420900Y-100551300D01*
X100900900Y-93221300D02*
X101020900Y-93101300D01*
X104260900Y-93111300D02*
X106150900Y-95071300D01*
X104790900Y-95251300D02*
X104110900Y-93201300D01*
X104110900Y-93201300D02*
X104260900Y-93111300D01*
X101020900Y-93101300D02*
X104790900Y-95251300D01*
X103780900Y-98521300D02*
X100900900Y-93221300D01*
X100980900Y-97861300D02*
X103780900Y-98521300D01*
X100920900Y-98041300D02*
X100980900Y-97861300D01*
X104640900Y-100541300D02*
X100920900Y-98041300D01*
%TO.C,J1*%
X168859781Y-91135200D02*
G75*
G03*
X168859781Y-91135200I-1600781J0D01*
G01*
%TO.C,J2*%
X168986781Y-84251800D02*
G75*
G03*
X168986781Y-84251800I-1600781J0D01*
G01*
%TO.C,PR1*%
X128484000Y-119393400D02*
X128484000Y-122988400D01*
X128484000Y-112947400D02*
X128484000Y-116543400D01*
X118244000Y-121893400D02*
X118244000Y-122988400D01*
X118244000Y-116894400D02*
X118244000Y-119043400D01*
X118244000Y-112947400D02*
X118244000Y-114042400D01*
X118244000Y-122988400D02*
X128484000Y-122988400D01*
X118244000Y-112947400D02*
X128484000Y-112947400D01*
%TO.C,Q6*%
X160089400Y-46763600D02*
X160089400Y-46993600D01*
X160089400Y-51483600D02*
X160089400Y-51253600D01*
X160089400Y-51483600D02*
X157369400Y-51483600D01*
X157369400Y-51483600D02*
X157369400Y-50173600D01*
X161229400Y-51253600D02*
X160089400Y-51253600D01*
X157369400Y-46763600D02*
X160089400Y-46763600D01*
X157369400Y-48073600D02*
X157369400Y-46763600D01*
%TO.C,R2*%
X161748400Y-74322678D02*
X161748400Y-73805522D01*
X163168400Y-74322678D02*
X163168400Y-73805522D01*
%TO.C,R3*%
X158929000Y-74348078D02*
X158929000Y-73830922D01*
X160349000Y-74348078D02*
X160349000Y-73830922D01*
%TO.C,R4*%
X167920600Y-123903478D02*
X167920600Y-123386322D01*
X169340600Y-123903478D02*
X169340600Y-123386322D01*
%TO.C,R5*%
X146652722Y-111710400D02*
X147169878Y-111710400D01*
X146652722Y-113130400D02*
X147169878Y-113130400D01*
%TO.C,R6*%
X166980800Y-47885878D02*
X166980800Y-47368722D01*
X168400800Y-47885878D02*
X168400800Y-47368722D01*
%TO.C,R7*%
X165860800Y-47885878D02*
X165860800Y-47368722D01*
X164440800Y-47885878D02*
X164440800Y-47368722D01*
%TO.C,R8*%
X151991322Y-90524400D02*
X152508478Y-90524400D01*
X151991322Y-89104400D02*
X152508478Y-89104400D01*
%TO.C,R9*%
X168809600Y-100145322D02*
X168809600Y-100662478D01*
X170229600Y-100145322D02*
X170229600Y-100662478D01*
%TO.C,R10*%
X116715278Y-107722600D02*
X116198122Y-107722600D01*
X116715278Y-109142600D02*
X116198122Y-109142600D01*
%TO.C,R11*%
X116198122Y-106729600D02*
X116715278Y-106729600D01*
X116198122Y-105309600D02*
X116715278Y-105309600D01*
%TO.C,R12*%
X127658122Y-92327800D02*
X128175278Y-92327800D01*
X127658122Y-90907800D02*
X128175278Y-90907800D01*
%TO.C,R13*%
X134164000Y-123598678D02*
X134164000Y-123081522D01*
X135584000Y-123598678D02*
X135584000Y-123081522D01*
%TO.C,R14*%
X116715278Y-110262600D02*
X116198122Y-110262600D01*
X116715278Y-111682600D02*
X116198122Y-111682600D01*
%TO.C,R15*%
X128175278Y-93219200D02*
X127658122Y-93219200D01*
X128175278Y-94639200D02*
X127658122Y-94639200D01*
%TO.C,R16*%
X81094000Y-106755264D02*
X81094000Y-102651136D01*
X84514000Y-106755264D02*
X84514000Y-102651136D01*
%TO.C,R17*%
X84514000Y-80127264D02*
X84514000Y-76023136D01*
X81094000Y-80127264D02*
X81094000Y-76023136D01*
%TO.C,R18*%
X86818400Y-87835478D02*
X86818400Y-87318322D01*
X88238400Y-87835478D02*
X88238400Y-87318322D01*
%TO.C,R19*%
X93879600Y-88029522D02*
X93879600Y-88546678D01*
X95299600Y-88029522D02*
X95299600Y-88546678D01*
%TO.C,R20*%
X92378600Y-106250478D02*
X92378600Y-105733322D01*
X90958600Y-106250478D02*
X90958600Y-105733322D01*
%TO.C,R21*%
X95960000Y-116232678D02*
X95960000Y-115715522D01*
X94540000Y-116232678D02*
X94540000Y-115715522D01*
%TO.C,R22*%
X127374122Y-105309600D02*
X127891278Y-105309600D01*
X127374122Y-106729600D02*
X127891278Y-106729600D01*
%TO.C,R23*%
X94486800Y-109014522D02*
X94486800Y-109531678D01*
X93066800Y-109014522D02*
X93066800Y-109531678D01*
%TO.C,R24*%
X111272822Y-68378000D02*
X111789978Y-68378000D01*
X111272822Y-69798000D02*
X111789978Y-69798000D01*
%TO.C,R25*%
X81154200Y-122658878D02*
X81154200Y-122141722D01*
X82574200Y-122658878D02*
X82574200Y-122141722D01*
%TO.C,R26*%
X83310800Y-54383678D02*
X83310800Y-53866522D01*
X81890800Y-54383678D02*
X81890800Y-53866522D01*
%TO.C,R27*%
X90346600Y-63959478D02*
X90346600Y-63442322D01*
X88926600Y-63959478D02*
X88926600Y-63442322D01*
%TO.C,R29*%
X88952000Y-60124078D02*
X88952000Y-59606922D01*
X90372000Y-60124078D02*
X90372000Y-59606922D01*
%TO.C,R30*%
X116948478Y-64464000D02*
X116431322Y-64464000D01*
X116948478Y-63044000D02*
X116431322Y-63044000D01*
%TO.C,R31*%
X97306200Y-59886322D02*
X97306200Y-60403478D01*
X95886200Y-59886322D02*
X95886200Y-60403478D01*
%TO.C,R32*%
X133755200Y-105682522D02*
X133755200Y-106199678D01*
X132335200Y-105682522D02*
X132335200Y-106199678D01*
%TO.C,R33*%
X132411400Y-101165922D02*
X132411400Y-101683078D01*
X133831400Y-101165922D02*
X133831400Y-101683078D01*
%TO.C,R34*%
X149167322Y-48413600D02*
X149684478Y-48413600D01*
X149167322Y-49833600D02*
X149684478Y-49833600D01*
%TO.C,R35*%
X160557978Y-103122800D02*
X160040822Y-103122800D01*
X160557978Y-101702800D02*
X160040822Y-101702800D01*
%TO.C,R36*%
X155446800Y-48135278D02*
X155446800Y-47618122D01*
X154026800Y-48135278D02*
X154026800Y-47618122D01*
%TO.C,R37*%
X137203922Y-48081000D02*
X137721078Y-48081000D01*
X137203922Y-46661000D02*
X137721078Y-46661000D01*
%TO.C,R38*%
X145543200Y-47982878D02*
X145543200Y-47465722D01*
X146963200Y-47982878D02*
X146963200Y-47465722D01*
%TO.C,R39*%
X144933600Y-99087678D02*
X144933600Y-98570522D01*
X146353600Y-99087678D02*
X146353600Y-98570522D01*
%TO.C,R40*%
X145569678Y-73432600D02*
X145052522Y-73432600D01*
X145569678Y-74852600D02*
X145052522Y-74852600D01*
%TO.C,R41*%
X136721322Y-120699600D02*
X137238478Y-120699600D01*
X136721322Y-119279600D02*
X137238478Y-119279600D01*
%TO.C,R42*%
X130938200Y-123575578D02*
X130938200Y-123058422D01*
X132358200Y-123575578D02*
X132358200Y-123058422D01*
%TO.C,R43*%
X132358200Y-119433078D02*
X132358200Y-118915922D01*
X130938200Y-119433078D02*
X130938200Y-118915922D01*
%TO.C,R44*%
X130455600Y-56136278D02*
X130455600Y-55619122D01*
X131875600Y-56136278D02*
X131875600Y-55619122D01*
%TO.C,R45*%
X125678000Y-48010578D02*
X125678000Y-47493422D01*
X124258000Y-48010578D02*
X124258000Y-47493422D01*
%TO.C,R47*%
X149808000Y-75791322D02*
X149808000Y-76308478D01*
X148388000Y-75791322D02*
X148388000Y-76308478D01*
%TO.C,R48*%
X165175000Y-87687678D02*
X165175000Y-87170522D01*
X163755000Y-87687678D02*
X163755000Y-87170522D01*
%TO.C,R49*%
X146657322Y-116203800D02*
X147174478Y-116203800D01*
X146657322Y-114783800D02*
X147174478Y-114783800D01*
%TO.C,RG1*%
X109504400Y-65437800D02*
X109504400Y-63977800D01*
X112664400Y-65437800D02*
X112664400Y-63277800D01*
X112664400Y-65437800D02*
X111734400Y-65437800D01*
X109504400Y-65437800D02*
X110434400Y-65437800D01*
%TO.C,SW1*%
X155832400Y-119149800D02*
X154367400Y-119149800D01*
X155832400Y-118794800D02*
X155832400Y-119149800D01*
X157842400Y-118794800D02*
X155832400Y-118794800D01*
X159852400Y-118794800D02*
X159852400Y-119149800D01*
X157842400Y-118794800D02*
X159852400Y-118794800D01*
X155832400Y-123114800D02*
X155832400Y-122759800D01*
X157842400Y-123114800D02*
X155832400Y-123114800D01*
X159852400Y-123114800D02*
X159852400Y-122759800D01*
X157842400Y-123114800D02*
X159852400Y-123114800D01*
%TO.C,TR1*%
X163240300Y-110665600D02*
X163240300Y-110435600D01*
X163240300Y-105945600D02*
X163240300Y-106175600D01*
X163240300Y-105945600D02*
X165960300Y-105945600D01*
X165960300Y-105945600D02*
X165960300Y-107255600D01*
X162100300Y-106175600D02*
X163240300Y-106175600D01*
X165960300Y-110665600D02*
X163240300Y-110665600D01*
X165960300Y-109355600D02*
X165960300Y-110665600D01*
%TO.C,TR2*%
X161597000Y-68256600D02*
X161827000Y-68256600D01*
X166317000Y-68256600D02*
X166087000Y-68256600D01*
X166317000Y-68256600D02*
X166317000Y-70976600D01*
X166317000Y-70976600D02*
X165007000Y-70976600D01*
X166087000Y-67116600D02*
X166087000Y-68256600D01*
X161597000Y-70976600D02*
X161597000Y-68256600D01*
X162907000Y-70976600D02*
X161597000Y-70976600D01*
%TO.C,TR3*%
X156498000Y-69841000D02*
X157808000Y-69841000D01*
X157808000Y-69841000D02*
X157808000Y-72561000D01*
X153318000Y-73701000D02*
X153318000Y-72561000D01*
X153088000Y-69841000D02*
X154398000Y-69841000D01*
X153088000Y-72561000D02*
X153088000Y-69841000D01*
X153088000Y-72561000D02*
X153318000Y-72561000D01*
X157808000Y-72561000D02*
X157578000Y-72561000D01*
%TO.C,TR4*%
X147628400Y-52228200D02*
X147858400Y-52228200D01*
X152348400Y-52228200D02*
X152118400Y-52228200D01*
X152348400Y-52228200D02*
X152348400Y-54948200D01*
X152348400Y-54948200D02*
X151038400Y-54948200D01*
X152118400Y-51088200D02*
X152118400Y-52228200D01*
X147628400Y-54948200D02*
X147628400Y-52228200D01*
X148938400Y-54948200D02*
X147628400Y-54948200D01*
%TO.C,TR5*%
X137949600Y-113710300D02*
X138179600Y-113710300D01*
X142669600Y-113710300D02*
X142439600Y-113710300D01*
X142669600Y-113710300D02*
X142669600Y-116430300D01*
X142669600Y-116430300D02*
X141359600Y-116430300D01*
X142439600Y-112570300D02*
X142439600Y-113710300D01*
X137949600Y-116430300D02*
X137949600Y-113710300D01*
X139259600Y-116430300D02*
X137949600Y-116430300D01*
%TO.C,TR6*%
X104324400Y-109219200D02*
X105154400Y-109219200D01*
X101664400Y-109219200D02*
X103244400Y-109219200D01*
X104834400Y-112420200D02*
X105154400Y-112420200D01*
X101664400Y-112420200D02*
X102734400Y-112420200D01*
X101664400Y-106700200D02*
X105154400Y-106700200D01*
X101664400Y-114940200D02*
X105154400Y-114940200D01*
X105154400Y-114940200D02*
X105154400Y-106700200D01*
X101664400Y-114940200D02*
X101664400Y-106700200D01*
%TO.C,TR7*%
X74273800Y-109270000D02*
X76013800Y-109270000D01*
X74273800Y-112471000D02*
X76013800Y-112471000D01*
X76013800Y-104021000D02*
X76013800Y-103001000D01*
X76013800Y-109471000D02*
X76013800Y-106821000D01*
X76013800Y-114921000D02*
X76013800Y-112270000D01*
X76013800Y-118741000D02*
X76013800Y-117721000D01*
X74273800Y-103001000D02*
X79013800Y-103001000D01*
X74273800Y-118741000D02*
X79013800Y-118741000D01*
X79013800Y-104021000D02*
X79013800Y-103001000D01*
X79013800Y-109471000D02*
X79013800Y-106821000D01*
X79013800Y-114921000D02*
X79013800Y-112270000D01*
X79013800Y-118741000D02*
X79013800Y-117721000D01*
X74273800Y-118741000D02*
X74273800Y-103001000D01*
%TO.C,TR8*%
X101867600Y-68432800D02*
X101867600Y-60192800D01*
X105357600Y-68432800D02*
X105357600Y-60192800D01*
X101867600Y-68432800D02*
X105357600Y-68432800D01*
X101867600Y-60192800D02*
X105357600Y-60192800D01*
X101867600Y-65912800D02*
X102937600Y-65912800D01*
X105037600Y-65912800D02*
X105357600Y-65912800D01*
X101867600Y-62711800D02*
X103447600Y-62711800D01*
X104527600Y-62711800D02*
X105357600Y-62711800D01*
%TO.C,TR9*%
X74273800Y-71878000D02*
X74273800Y-56138000D01*
X79013800Y-71878000D02*
X79013800Y-70858000D01*
X79013800Y-68058000D02*
X79013800Y-65407000D01*
X79013800Y-62608000D02*
X79013800Y-59958000D01*
X79013800Y-57158000D02*
X79013800Y-56138000D01*
X74273800Y-71878000D02*
X79013800Y-71878000D01*
X74273800Y-56138000D02*
X79013800Y-56138000D01*
X76013800Y-71878000D02*
X76013800Y-70858000D01*
X76013800Y-68058000D02*
X76013800Y-65407000D01*
X76013800Y-62608000D02*
X76013800Y-59958000D01*
X76013800Y-57158000D02*
X76013800Y-56138000D01*
X74273800Y-65608000D02*
X76013800Y-65608000D01*
X74273800Y-62407000D02*
X76013800Y-62407000D01*
%TO.C,TR10*%
X165007000Y-59173000D02*
X166317000Y-59173000D01*
X166317000Y-59173000D02*
X166317000Y-61893000D01*
X161827000Y-63033000D02*
X161827000Y-61893000D01*
X161597000Y-59173000D02*
X162907000Y-59173000D01*
X161597000Y-61893000D02*
X161597000Y-59173000D01*
X161597000Y-61893000D02*
X161827000Y-61893000D01*
X166317000Y-61893000D02*
X166087000Y-61893000D01*
%TO.C,TR11*%
X153838800Y-64278800D02*
X153838800Y-62968800D01*
X153838800Y-62968800D02*
X156558800Y-62968800D01*
X157698800Y-67458800D02*
X156558800Y-67458800D01*
X153838800Y-67688800D02*
X153838800Y-66378800D01*
X156558800Y-67688800D02*
X153838800Y-67688800D01*
X156558800Y-67688800D02*
X156558800Y-67458800D01*
X156558800Y-62968800D02*
X156558800Y-63198800D01*
%TO.C,TR12*%
X157909600Y-56965400D02*
X157679600Y-56965400D01*
X153189600Y-56965400D02*
X153419600Y-56965400D01*
X153189600Y-56965400D02*
X153189600Y-54245400D01*
X153189600Y-54245400D02*
X154499600Y-54245400D01*
X153419600Y-58105400D02*
X153419600Y-56965400D01*
X157909600Y-54245400D02*
X157909600Y-56965400D01*
X156599600Y-54245400D02*
X157909600Y-54245400D01*
%TO.C,TR13*%
X110813600Y-112573600D02*
X109983600Y-112573600D01*
X113473600Y-112573600D02*
X111893600Y-112573600D01*
X110303600Y-109372600D02*
X109983600Y-109372600D01*
X113473600Y-109372600D02*
X112403600Y-109372600D01*
X113473600Y-115092600D02*
X109983600Y-115092600D01*
X113473600Y-106852600D02*
X109983600Y-106852600D01*
X109983600Y-106852600D02*
X109983600Y-115092600D01*
X113473600Y-106852600D02*
X113473600Y-115092600D01*
%TO.C,TR14*%
X124507500Y-99221000D02*
X124507500Y-100531000D01*
X124507500Y-100531000D02*
X121787500Y-100531000D01*
X120647500Y-96041000D02*
X121787500Y-96041000D01*
X124507500Y-95811000D02*
X124507500Y-97121000D01*
X121787500Y-95811000D02*
X124507500Y-95811000D01*
X121787500Y-95811000D02*
X121787500Y-96041000D01*
X121787500Y-100531000D02*
X121787500Y-100301000D01*
%TO.C,TR15*%
X131214200Y-98926200D02*
X130984200Y-98926200D01*
X126494200Y-98926200D02*
X126724200Y-98926200D01*
X126494200Y-98926200D02*
X126494200Y-96206200D01*
X126494200Y-96206200D02*
X127804200Y-96206200D01*
X126724200Y-100066200D02*
X126724200Y-98926200D01*
X131214200Y-96206200D02*
X131214200Y-98926200D01*
X129904200Y-96206200D02*
X131214200Y-96206200D01*
%TO.C,TR16*%
X122233400Y-90796000D02*
X123543400Y-90796000D01*
X123543400Y-90796000D02*
X123543400Y-93516000D01*
X119053400Y-94656000D02*
X119053400Y-93516000D01*
X118823400Y-90796000D02*
X120133400Y-90796000D01*
X118823400Y-93516000D02*
X118823400Y-90796000D01*
X118823400Y-93516000D02*
X119053400Y-93516000D01*
X123543400Y-93516000D02*
X123313400Y-93516000D01*
%TO.C,TR17*%
X125442000Y-54847600D02*
X124132000Y-54847600D01*
X124132000Y-54847600D02*
X124132000Y-52127600D01*
X128622000Y-50987600D02*
X128622000Y-52127600D01*
X128852000Y-54847600D02*
X127542000Y-54847600D01*
X128852000Y-52127600D02*
X128852000Y-54847600D01*
X128852000Y-52127600D02*
X128622000Y-52127600D01*
X124132000Y-52127600D02*
X124362000Y-52127600D01*
%TO.C,TR18*%
X98164200Y-93728200D02*
X98164200Y-93958200D01*
X98164200Y-98448200D02*
X98164200Y-98218200D01*
X98164200Y-98448200D02*
X95444200Y-98448200D01*
X95444200Y-98448200D02*
X95444200Y-97138200D01*
X99304200Y-98218200D02*
X98164200Y-98218200D01*
X95444200Y-93728200D02*
X98164200Y-93728200D01*
X95444200Y-95038200D02*
X95444200Y-93728200D01*
%TO.C,TR19*%
X95993400Y-82243000D02*
X95993400Y-82013000D01*
X95993400Y-77523000D02*
X95993400Y-77753000D01*
X95993400Y-77523000D02*
X98713400Y-77523000D01*
X98713400Y-77523000D02*
X98713400Y-78833000D01*
X94853400Y-77753000D02*
X95993400Y-77753000D01*
X98713400Y-82243000D02*
X95993400Y-82243000D01*
X98713400Y-80933000D02*
X98713400Y-82243000D01*
%TO.C,TR20*%
X124596000Y-107069600D02*
X124596000Y-108379600D01*
X124596000Y-108379600D02*
X121876000Y-108379600D01*
X120736000Y-103889600D02*
X121876000Y-103889600D01*
X124596000Y-103659600D02*
X124596000Y-104969600D01*
X121876000Y-103659600D02*
X124596000Y-103659600D01*
X121876000Y-103659600D02*
X121876000Y-103889600D01*
X121876000Y-108379600D02*
X121876000Y-108149600D01*
%TO.C,TR21*%
X142858200Y-118990000D02*
X144168200Y-118990000D01*
X144168200Y-118990000D02*
X144168200Y-121710000D01*
X139678200Y-122850000D02*
X139678200Y-121710000D01*
X139448200Y-118990000D02*
X140758200Y-118990000D01*
X139448200Y-121710000D02*
X139448200Y-118990000D01*
X139448200Y-121710000D02*
X139678200Y-121710000D01*
X144168200Y-121710000D02*
X143938200Y-121710000D01*
%TO.C,R166*%
X81094000Y-98424064D02*
X81094000Y-94319936D01*
X84514000Y-98424064D02*
X84514000Y-94319936D01*
%TO.C,R177*%
X84514000Y-88513664D02*
X84514000Y-84409536D01*
X81094000Y-88513664D02*
X81094000Y-84409536D01*
%TO.C,TP1*%
X167843781Y-130505200D02*
G75*
G03*
X167843781Y-130505200I-1600781J0D01*
G01*
%TO.C,TP2*%
X163195581Y-130581400D02*
G75*
G03*
X163195581Y-130581400I-1600781J0D01*
G01*
%TO.C,R1*%
X164971000Y-73827321D02*
X164971000Y-74152879D01*
X165991000Y-73827321D02*
X165991000Y-74152879D01*
%TO.C,R46*%
X166234921Y-77899800D02*
X166560479Y-77899800D01*
X166234921Y-78919800D02*
X166560479Y-78919800D01*
%TO.C,L1*%
X86035000Y-100000000D02*
G75*
G03*
X86035000Y-100000000I-1340000J0D01*
G01*
X95315000Y-100000000D02*
G75*
G03*
X95315000Y-100000000I-10620000J0D01*
G01*
%TO.C,L2*%
X95315000Y-74500000D02*
G75*
G03*
X95315000Y-74500000I-10620000J0D01*
G01*
X86035000Y-74500000D02*
G75*
G03*
X86035000Y-74500000I-1340000J0D01*
G01*
%TO.C,L3*%
X82120000Y-87195000D02*
G75*
G03*
X82120000Y-87195000I-10620000J0D01*
G01*
X72840000Y-87195000D02*
G75*
G03*
X72840000Y-87195000I-1340000J0D01*
G01*
%TO.C,C1*%
D11*
X162661942Y-98376766D02*
X162709561Y-98424385D01*
X162757180Y-98567242D01*
X162757180Y-98662480D01*
X162709561Y-98805338D01*
X162614323Y-98900576D01*
X162519085Y-98948195D01*
X162328609Y-98995814D01*
X162185752Y-98995814D01*
X161995276Y-98948195D01*
X161900038Y-98900576D01*
X161804800Y-98805338D01*
X161757180Y-98662480D01*
X161757180Y-98567242D01*
X161804800Y-98424385D01*
X161852419Y-98376766D01*
X162757180Y-97424385D02*
X162757180Y-97995814D01*
X162757180Y-97710100D02*
X161757180Y-97710100D01*
X161900038Y-97805338D01*
X161995276Y-97900576D01*
X162042895Y-97995814D01*
%TO.C,C2*%
X133578933Y-76665742D02*
X133531314Y-76713361D01*
X133388457Y-76760980D01*
X133293219Y-76760980D01*
X133150361Y-76713361D01*
X133055123Y-76618123D01*
X133007504Y-76522885D01*
X132959885Y-76332409D01*
X132959885Y-76189552D01*
X133007504Y-75999076D01*
X133055123Y-75903838D01*
X133150361Y-75808600D01*
X133293219Y-75760980D01*
X133388457Y-75760980D01*
X133531314Y-75808600D01*
X133578933Y-75856219D01*
X133959885Y-75856219D02*
X134007504Y-75808600D01*
X134102742Y-75760980D01*
X134340838Y-75760980D01*
X134436076Y-75808600D01*
X134483695Y-75856219D01*
X134531314Y-75951457D01*
X134531314Y-76046695D01*
X134483695Y-76189552D01*
X133912266Y-76760980D01*
X134531314Y-76760980D01*
%TO.C,C3*%
X150737033Y-56263542D02*
X150689414Y-56311161D01*
X150546557Y-56358780D01*
X150451319Y-56358780D01*
X150308461Y-56311161D01*
X150213223Y-56215923D01*
X150165604Y-56120685D01*
X150117985Y-55930209D01*
X150117985Y-55787352D01*
X150165604Y-55596876D01*
X150213223Y-55501638D01*
X150308461Y-55406400D01*
X150451319Y-55358780D01*
X150546557Y-55358780D01*
X150689414Y-55406400D01*
X150737033Y-55454019D01*
X151070366Y-55358780D02*
X151689414Y-55358780D01*
X151356080Y-55739733D01*
X151498938Y-55739733D01*
X151594176Y-55787352D01*
X151641795Y-55834971D01*
X151689414Y-55930209D01*
X151689414Y-56168304D01*
X151641795Y-56263542D01*
X151594176Y-56311161D01*
X151498938Y-56358780D01*
X151213223Y-56358780D01*
X151117985Y-56311161D01*
X151070366Y-56263542D01*
%TO.C,C4*%
X114579742Y-100242666D02*
X114627361Y-100290285D01*
X114674980Y-100433142D01*
X114674980Y-100528380D01*
X114627361Y-100671238D01*
X114532123Y-100766476D01*
X114436885Y-100814095D01*
X114246409Y-100861714D01*
X114103552Y-100861714D01*
X113913076Y-100814095D01*
X113817838Y-100766476D01*
X113722600Y-100671238D01*
X113674980Y-100528380D01*
X113674980Y-100433142D01*
X113722600Y-100290285D01*
X113770219Y-100242666D01*
X114008314Y-99385523D02*
X114674980Y-99385523D01*
X113627361Y-99623619D02*
X114341647Y-99861714D01*
X114341647Y-99242666D01*
%TO.C,C5*%
X139751142Y-91694566D02*
X139798761Y-91742185D01*
X139846380Y-91885042D01*
X139846380Y-91980280D01*
X139798761Y-92123138D01*
X139703523Y-92218376D01*
X139608285Y-92265995D01*
X139417809Y-92313614D01*
X139274952Y-92313614D01*
X139084476Y-92265995D01*
X138989238Y-92218376D01*
X138894000Y-92123138D01*
X138846380Y-91980280D01*
X138846380Y-91885042D01*
X138894000Y-91742185D01*
X138941619Y-91694566D01*
X138846380Y-90789804D02*
X138846380Y-91265995D01*
X139322571Y-91313614D01*
X139274952Y-91265995D01*
X139227333Y-91170757D01*
X139227333Y-90932661D01*
X139274952Y-90837423D01*
X139322571Y-90789804D01*
X139417809Y-90742185D01*
X139655904Y-90742185D01*
X139751142Y-90789804D01*
X139798761Y-90837423D01*
X139846380Y-90932661D01*
X139846380Y-91170757D01*
X139798761Y-91265995D01*
X139751142Y-91313614D01*
%TO.C,C6*%
X87084633Y-82679542D02*
X87037014Y-82727161D01*
X86894157Y-82774780D01*
X86798919Y-82774780D01*
X86656061Y-82727161D01*
X86560823Y-82631923D01*
X86513204Y-82536685D01*
X86465585Y-82346209D01*
X86465585Y-82203352D01*
X86513204Y-82012876D01*
X86560823Y-81917638D01*
X86656061Y-81822400D01*
X86798919Y-81774780D01*
X86894157Y-81774780D01*
X87037014Y-81822400D01*
X87084633Y-81870019D01*
X87941776Y-81774780D02*
X87751300Y-81774780D01*
X87656061Y-81822400D01*
X87608442Y-81870019D01*
X87513204Y-82012876D01*
X87465585Y-82203352D01*
X87465585Y-82584304D01*
X87513204Y-82679542D01*
X87560823Y-82727161D01*
X87656061Y-82774780D01*
X87846538Y-82774780D01*
X87941776Y-82727161D01*
X87989395Y-82679542D01*
X88037014Y-82584304D01*
X88037014Y-82346209D01*
X87989395Y-82250971D01*
X87941776Y-82203352D01*
X87846538Y-82155733D01*
X87656061Y-82155733D01*
X87560823Y-82203352D01*
X87513204Y-82250971D01*
X87465585Y-82346209D01*
%TO.C,C7*%
X169776142Y-123836966D02*
X169823761Y-123884585D01*
X169871380Y-124027442D01*
X169871380Y-124122680D01*
X169823761Y-124265538D01*
X169728523Y-124360776D01*
X169633285Y-124408395D01*
X169442809Y-124456014D01*
X169299952Y-124456014D01*
X169109476Y-124408395D01*
X169014238Y-124360776D01*
X168919000Y-124265538D01*
X168871380Y-124122680D01*
X168871380Y-124027442D01*
X168919000Y-123884585D01*
X168966619Y-123836966D01*
X168871380Y-123503633D02*
X168871380Y-122836966D01*
X169871380Y-123265538D01*
%TO.C,C9*%
X93242333Y-117220142D02*
X93194714Y-117267761D01*
X93051857Y-117315380D01*
X92956619Y-117315380D01*
X92813761Y-117267761D01*
X92718523Y-117172523D01*
X92670904Y-117077285D01*
X92623285Y-116886809D01*
X92623285Y-116743952D01*
X92670904Y-116553476D01*
X92718523Y-116458238D01*
X92813761Y-116363000D01*
X92956619Y-116315380D01*
X93051857Y-116315380D01*
X93194714Y-116363000D01*
X93242333Y-116410619D01*
X93718523Y-117315380D02*
X93909000Y-117315380D01*
X94004238Y-117267761D01*
X94051857Y-117220142D01*
X94147095Y-117077285D01*
X94194714Y-116886809D01*
X94194714Y-116505857D01*
X94147095Y-116410619D01*
X94099476Y-116363000D01*
X94004238Y-116315380D01*
X93813761Y-116315380D01*
X93718523Y-116363000D01*
X93670904Y-116410619D01*
X93623285Y-116505857D01*
X93623285Y-116743952D01*
X93670904Y-116839190D01*
X93718523Y-116886809D01*
X93813761Y-116934428D01*
X94004238Y-116934428D01*
X94099476Y-116886809D01*
X94147095Y-116839190D01*
X94194714Y-116743952D01*
%TO.C,C10*%
X92689942Y-58271542D02*
X92642323Y-58319161D01*
X92499466Y-58366780D01*
X92404228Y-58366780D01*
X92261371Y-58319161D01*
X92166133Y-58223923D01*
X92118514Y-58128685D01*
X92070895Y-57938209D01*
X92070895Y-57795352D01*
X92118514Y-57604876D01*
X92166133Y-57509638D01*
X92261371Y-57414400D01*
X92404228Y-57366780D01*
X92499466Y-57366780D01*
X92642323Y-57414400D01*
X92689942Y-57462019D01*
X93642323Y-58366780D02*
X93070895Y-58366780D01*
X93356609Y-58366780D02*
X93356609Y-57366780D01*
X93261371Y-57509638D01*
X93166133Y-57604876D01*
X93070895Y-57652495D01*
X94261371Y-57366780D02*
X94356609Y-57366780D01*
X94451847Y-57414400D01*
X94499466Y-57462019D01*
X94547085Y-57557257D01*
X94594704Y-57747733D01*
X94594704Y-57985828D01*
X94547085Y-58176304D01*
X94499466Y-58271542D01*
X94451847Y-58319161D01*
X94356609Y-58366780D01*
X94261371Y-58366780D01*
X94166133Y-58319161D01*
X94118514Y-58271542D01*
X94070895Y-58176304D01*
X94023276Y-57985828D01*
X94023276Y-57747733D01*
X94070895Y-57557257D01*
X94118514Y-57462019D01*
X94166133Y-57414400D01*
X94261371Y-57366780D01*
%TO.C,C11*%
X145110542Y-122703557D02*
X145158161Y-122751176D01*
X145205780Y-122894033D01*
X145205780Y-122989271D01*
X145158161Y-123132128D01*
X145062923Y-123227366D01*
X144967685Y-123274985D01*
X144777209Y-123322604D01*
X144634352Y-123322604D01*
X144443876Y-123274985D01*
X144348638Y-123227366D01*
X144253400Y-123132128D01*
X144205780Y-122989271D01*
X144205780Y-122894033D01*
X144253400Y-122751176D01*
X144301019Y-122703557D01*
X145205780Y-121751176D02*
X145205780Y-122322604D01*
X145205780Y-122036890D02*
X144205780Y-122036890D01*
X144348638Y-122132128D01*
X144443876Y-122227366D01*
X144491495Y-122322604D01*
X145205780Y-120798795D02*
X145205780Y-121370223D01*
X145205780Y-121084509D02*
X144205780Y-121084509D01*
X144348638Y-121179747D01*
X144443876Y-121274985D01*
X144491495Y-121370223D01*
%TO.C,C12*%
X132760342Y-56482857D02*
X132807961Y-56530476D01*
X132855580Y-56673333D01*
X132855580Y-56768571D01*
X132807961Y-56911428D01*
X132712723Y-57006666D01*
X132617485Y-57054285D01*
X132427009Y-57101904D01*
X132284152Y-57101904D01*
X132093676Y-57054285D01*
X131998438Y-57006666D01*
X131903200Y-56911428D01*
X131855580Y-56768571D01*
X131855580Y-56673333D01*
X131903200Y-56530476D01*
X131950819Y-56482857D01*
X132855580Y-55530476D02*
X132855580Y-56101904D01*
X132855580Y-55816190D02*
X131855580Y-55816190D01*
X131998438Y-55911428D01*
X132093676Y-56006666D01*
X132141295Y-56101904D01*
X131950819Y-55149523D02*
X131903200Y-55101904D01*
X131855580Y-55006666D01*
X131855580Y-54768571D01*
X131903200Y-54673333D01*
X131950819Y-54625714D01*
X132046057Y-54578095D01*
X132141295Y-54578095D01*
X132284152Y-54625714D01*
X132855580Y-55197142D01*
X132855580Y-54578095D01*
%TO.C,C13*%
X120957342Y-48473357D02*
X121004961Y-48520976D01*
X121052580Y-48663833D01*
X121052580Y-48759071D01*
X121004961Y-48901928D01*
X120909723Y-48997166D01*
X120814485Y-49044785D01*
X120624009Y-49092404D01*
X120481152Y-49092404D01*
X120290676Y-49044785D01*
X120195438Y-48997166D01*
X120100200Y-48901928D01*
X120052580Y-48759071D01*
X120052580Y-48663833D01*
X120100200Y-48520976D01*
X120147819Y-48473357D01*
X121052580Y-47520976D02*
X121052580Y-48092404D01*
X121052580Y-47806690D02*
X120052580Y-47806690D01*
X120195438Y-47901928D01*
X120290676Y-47997166D01*
X120338295Y-48092404D01*
X120052580Y-47187642D02*
X120052580Y-46568595D01*
X120433533Y-46901928D01*
X120433533Y-46759071D01*
X120481152Y-46663833D01*
X120528771Y-46616214D01*
X120624009Y-46568595D01*
X120862104Y-46568595D01*
X120957342Y-46616214D01*
X121004961Y-46663833D01*
X121052580Y-46759071D01*
X121052580Y-47044785D01*
X121004961Y-47140023D01*
X120957342Y-47187642D01*
%TO.C,C14*%
X161950742Y-122830557D02*
X161998361Y-122878176D01*
X162045980Y-123021033D01*
X162045980Y-123116271D01*
X161998361Y-123259128D01*
X161903123Y-123354366D01*
X161807885Y-123401985D01*
X161617409Y-123449604D01*
X161474552Y-123449604D01*
X161284076Y-123401985D01*
X161188838Y-123354366D01*
X161093600Y-123259128D01*
X161045980Y-123116271D01*
X161045980Y-123021033D01*
X161093600Y-122878176D01*
X161141219Y-122830557D01*
X162045980Y-121878176D02*
X162045980Y-122449604D01*
X162045980Y-122163890D02*
X161045980Y-122163890D01*
X161188838Y-122259128D01*
X161284076Y-122354366D01*
X161331695Y-122449604D01*
X161379314Y-121021033D02*
X162045980Y-121021033D01*
X160998361Y-121259128D02*
X161712647Y-121497223D01*
X161712647Y-120878176D01*
%TO.C,C15*%
X155733242Y-93675542D02*
X155685623Y-93723161D01*
X155542766Y-93770780D01*
X155447528Y-93770780D01*
X155304671Y-93723161D01*
X155209433Y-93627923D01*
X155161814Y-93532685D01*
X155114195Y-93342209D01*
X155114195Y-93199352D01*
X155161814Y-93008876D01*
X155209433Y-92913638D01*
X155304671Y-92818400D01*
X155447528Y-92770780D01*
X155542766Y-92770780D01*
X155685623Y-92818400D01*
X155733242Y-92866019D01*
X156685623Y-93770780D02*
X156114195Y-93770780D01*
X156399909Y-93770780D02*
X156399909Y-92770780D01*
X156304671Y-92913638D01*
X156209433Y-93008876D01*
X156114195Y-93056495D01*
X157590385Y-92770780D02*
X157114195Y-92770780D01*
X157066576Y-93246971D01*
X157114195Y-93199352D01*
X157209433Y-93151733D01*
X157447528Y-93151733D01*
X157542766Y-93199352D01*
X157590385Y-93246971D01*
X157638004Y-93342209D01*
X157638004Y-93580304D01*
X157590385Y-93675542D01*
X157542766Y-93723161D01*
X157447528Y-93770780D01*
X157209433Y-93770780D01*
X157114195Y-93723161D01*
X157066576Y-93675542D01*
%TO.C,C16*%
X169951942Y-74787757D02*
X169999561Y-74835376D01*
X170047180Y-74978233D01*
X170047180Y-75073471D01*
X169999561Y-75216328D01*
X169904323Y-75311566D01*
X169809085Y-75359185D01*
X169618609Y-75406804D01*
X169475752Y-75406804D01*
X169285276Y-75359185D01*
X169190038Y-75311566D01*
X169094800Y-75216328D01*
X169047180Y-75073471D01*
X169047180Y-74978233D01*
X169094800Y-74835376D01*
X169142419Y-74787757D01*
X170047180Y-73835376D02*
X170047180Y-74406804D01*
X170047180Y-74121090D02*
X169047180Y-74121090D01*
X169190038Y-74216328D01*
X169285276Y-74311566D01*
X169332895Y-74406804D01*
X169047180Y-72978233D02*
X169047180Y-73168709D01*
X169094800Y-73263947D01*
X169142419Y-73311566D01*
X169285276Y-73406804D01*
X169475752Y-73454423D01*
X169856704Y-73454423D01*
X169951942Y-73406804D01*
X169999561Y-73359185D01*
X170047180Y-73263947D01*
X170047180Y-73073471D01*
X169999561Y-72978233D01*
X169951942Y-72930614D01*
X169856704Y-72882995D01*
X169618609Y-72882995D01*
X169523371Y-72930614D01*
X169475752Y-72978233D01*
X169428133Y-73073471D01*
X169428133Y-73263947D01*
X169475752Y-73359185D01*
X169523371Y-73406804D01*
X169618609Y-73454423D01*
%TO.C,C17*%
X168912542Y-48240157D02*
X168960161Y-48287776D01*
X169007780Y-48430633D01*
X169007780Y-48525871D01*
X168960161Y-48668728D01*
X168864923Y-48763966D01*
X168769685Y-48811585D01*
X168579209Y-48859204D01*
X168436352Y-48859204D01*
X168245876Y-48811585D01*
X168150638Y-48763966D01*
X168055400Y-48668728D01*
X168007780Y-48525871D01*
X168007780Y-48430633D01*
X168055400Y-48287776D01*
X168103019Y-48240157D01*
X169007780Y-47287776D02*
X169007780Y-47859204D01*
X169007780Y-47573490D02*
X168007780Y-47573490D01*
X168150638Y-47668728D01*
X168245876Y-47763966D01*
X168293495Y-47859204D01*
X168007780Y-46954442D02*
X168007780Y-46287776D01*
X169007780Y-46716347D01*
%TO.C,D1*%
X142923304Y-72353180D02*
X142923304Y-71353180D01*
X143161400Y-71353180D01*
X143304257Y-71400800D01*
X143399495Y-71496038D01*
X143447114Y-71591276D01*
X143494733Y-71781752D01*
X143494733Y-71924609D01*
X143447114Y-72115085D01*
X143399495Y-72210323D01*
X143304257Y-72305561D01*
X143161400Y-72353180D01*
X142923304Y-72353180D01*
X144447114Y-72353180D02*
X143875685Y-72353180D01*
X144161400Y-72353180D02*
X144161400Y-71353180D01*
X144066161Y-71496038D01*
X143970923Y-71591276D01*
X143875685Y-71638895D01*
%TO.C,D2*%
X148282704Y-72353180D02*
X148282704Y-71353180D01*
X148520800Y-71353180D01*
X148663657Y-71400800D01*
X148758895Y-71496038D01*
X148806514Y-71591276D01*
X148854133Y-71781752D01*
X148854133Y-71924609D01*
X148806514Y-72115085D01*
X148758895Y-72210323D01*
X148663657Y-72305561D01*
X148520800Y-72353180D01*
X148282704Y-72353180D01*
X149235085Y-71448419D02*
X149282704Y-71400800D01*
X149377942Y-71353180D01*
X149616038Y-71353180D01*
X149711276Y-71400800D01*
X149758895Y-71448419D01*
X149806514Y-71543657D01*
X149806514Y-71638895D01*
X149758895Y-71781752D01*
X149187466Y-72353180D01*
X149806514Y-72353180D01*
%TO.C,D3*%
X142925304Y-65432180D02*
X142925304Y-64432180D01*
X143163400Y-64432180D01*
X143306257Y-64479800D01*
X143401495Y-64575038D01*
X143449114Y-64670276D01*
X143496733Y-64860752D01*
X143496733Y-65003609D01*
X143449114Y-65194085D01*
X143401495Y-65289323D01*
X143306257Y-65384561D01*
X143163400Y-65432180D01*
X142925304Y-65432180D01*
X143830066Y-64432180D02*
X144449114Y-64432180D01*
X144115780Y-64813133D01*
X144258638Y-64813133D01*
X144353876Y-64860752D01*
X144401495Y-64908371D01*
X144449114Y-65003609D01*
X144449114Y-65241704D01*
X144401495Y-65336942D01*
X144353876Y-65384561D01*
X144258638Y-65432180D01*
X143972923Y-65432180D01*
X143877685Y-65384561D01*
X143830066Y-65336942D01*
%TO.C,D4*%
X148284704Y-65406780D02*
X148284704Y-64406780D01*
X148522800Y-64406780D01*
X148665657Y-64454400D01*
X148760895Y-64549638D01*
X148808514Y-64644876D01*
X148856133Y-64835352D01*
X148856133Y-64978209D01*
X148808514Y-65168685D01*
X148760895Y-65263923D01*
X148665657Y-65359161D01*
X148522800Y-65406780D01*
X148284704Y-65406780D01*
X149713276Y-64740114D02*
X149713276Y-65406780D01*
X149475180Y-64359161D02*
X149237085Y-65073447D01*
X149856133Y-65073447D01*
%TO.C,D5*%
X133617980Y-51918095D02*
X132617980Y-51918095D01*
X132617980Y-51680000D01*
X132665600Y-51537142D01*
X132760838Y-51441904D01*
X132856076Y-51394285D01*
X133046552Y-51346666D01*
X133189409Y-51346666D01*
X133379885Y-51394285D01*
X133475123Y-51441904D01*
X133570361Y-51537142D01*
X133617980Y-51680000D01*
X133617980Y-51918095D01*
X132617980Y-50441904D02*
X132617980Y-50918095D01*
X133094171Y-50965714D01*
X133046552Y-50918095D01*
X132998933Y-50822857D01*
X132998933Y-50584761D01*
X133046552Y-50489523D01*
X133094171Y-50441904D01*
X133189409Y-50394285D01*
X133427504Y-50394285D01*
X133522742Y-50441904D01*
X133570361Y-50489523D01*
X133617980Y-50584761D01*
X133617980Y-50822857D01*
X133570361Y-50918095D01*
X133522742Y-50965714D01*
%TO.C,D6*%
X130087380Y-48618095D02*
X129087380Y-48618095D01*
X129087380Y-48380000D01*
X129135000Y-48237142D01*
X129230238Y-48141904D01*
X129325476Y-48094285D01*
X129515952Y-48046666D01*
X129658809Y-48046666D01*
X129849285Y-48094285D01*
X129944523Y-48141904D01*
X130039761Y-48237142D01*
X130087380Y-48380000D01*
X130087380Y-48618095D01*
X129087380Y-47189523D02*
X129087380Y-47380000D01*
X129135000Y-47475238D01*
X129182619Y-47522857D01*
X129325476Y-47618095D01*
X129515952Y-47665714D01*
X129896904Y-47665714D01*
X129992142Y-47618095D01*
X130039761Y-47570476D01*
X130087380Y-47475238D01*
X130087380Y-47284761D01*
X130039761Y-47189523D01*
X129992142Y-47141904D01*
X129896904Y-47094285D01*
X129658809Y-47094285D01*
X129563571Y-47141904D01*
X129515952Y-47189523D01*
X129468333Y-47284761D01*
X129468333Y-47475238D01*
X129515952Y-47570476D01*
X129563571Y-47618095D01*
X129658809Y-47665714D01*
%TO.C,D7*%
X102463104Y-103354380D02*
X102463104Y-102354380D01*
X102701200Y-102354380D01*
X102844057Y-102402000D01*
X102939295Y-102497238D01*
X102986914Y-102592476D01*
X103034533Y-102782952D01*
X103034533Y-102925809D01*
X102986914Y-103116285D01*
X102939295Y-103211523D01*
X102844057Y-103306761D01*
X102701200Y-103354380D01*
X102463104Y-103354380D01*
X103367866Y-102354380D02*
X104034533Y-102354380D01*
X103605961Y-103354380D01*
%TO.C,D8*%
X102487504Y-72454780D02*
X102487504Y-71454780D01*
X102725600Y-71454780D01*
X102868457Y-71502400D01*
X102963695Y-71597638D01*
X103011314Y-71692876D01*
X103058933Y-71883352D01*
X103058933Y-72026209D01*
X103011314Y-72216685D01*
X102963695Y-72311923D01*
X102868457Y-72407161D01*
X102725600Y-72454780D01*
X102487504Y-72454780D01*
X103630361Y-71883352D02*
X103535123Y-71835733D01*
X103487504Y-71788114D01*
X103439885Y-71692876D01*
X103439885Y-71645257D01*
X103487504Y-71550019D01*
X103535123Y-71502400D01*
X103630361Y-71454780D01*
X103820838Y-71454780D01*
X103916076Y-71502400D01*
X103963695Y-71550019D01*
X104011314Y-71645257D01*
X104011314Y-71692876D01*
X103963695Y-71788114D01*
X103916076Y-71835733D01*
X103820838Y-71883352D01*
X103630361Y-71883352D01*
X103535123Y-71930971D01*
X103487504Y-71978590D01*
X103439885Y-72073828D01*
X103439885Y-72264304D01*
X103487504Y-72359542D01*
X103535123Y-72407161D01*
X103630361Y-72454780D01*
X103820838Y-72454780D01*
X103916076Y-72407161D01*
X103963695Y-72359542D01*
X104011314Y-72264304D01*
X104011314Y-72073828D01*
X103963695Y-71978590D01*
X103916076Y-71930971D01*
X103820838Y-71883352D01*
%TO.C,D9*%
X154302504Y-114631980D02*
X154302504Y-113631980D01*
X154540600Y-113631980D01*
X154683457Y-113679600D01*
X154778695Y-113774838D01*
X154826314Y-113870076D01*
X154873933Y-114060552D01*
X154873933Y-114203409D01*
X154826314Y-114393885D01*
X154778695Y-114489123D01*
X154683457Y-114584361D01*
X154540600Y-114631980D01*
X154302504Y-114631980D01*
X155350123Y-114631980D02*
X155540600Y-114631980D01*
X155635838Y-114584361D01*
X155683457Y-114536742D01*
X155778695Y-114393885D01*
X155826314Y-114203409D01*
X155826314Y-113822457D01*
X155778695Y-113727219D01*
X155731076Y-113679600D01*
X155635838Y-113631980D01*
X155445361Y-113631980D01*
X155350123Y-113679600D01*
X155302504Y-113727219D01*
X155254885Y-113822457D01*
X155254885Y-114060552D01*
X155302504Y-114155790D01*
X155350123Y-114203409D01*
X155445361Y-114251028D01*
X155635838Y-114251028D01*
X155731076Y-114203409D01*
X155778695Y-114155790D01*
X155826314Y-114060552D01*
%TO.C,F1*%
X129025066Y-135874971D02*
X128691733Y-135874971D01*
X128691733Y-136398780D02*
X128691733Y-135398780D01*
X129167923Y-135398780D01*
X130072685Y-136398780D02*
X129501257Y-136398780D01*
X129786971Y-136398780D02*
X129786971Y-135398780D01*
X129691733Y-135541638D01*
X129596495Y-135636876D01*
X129501257Y-135684495D01*
%TO.C,F2*%
X127983666Y-49311771D02*
X127650333Y-49311771D01*
X127650333Y-49835580D02*
X127650333Y-48835580D01*
X128126523Y-48835580D01*
X128459857Y-48930819D02*
X128507476Y-48883200D01*
X128602714Y-48835580D01*
X128840809Y-48835580D01*
X128936047Y-48883200D01*
X128983666Y-48930819D01*
X129031285Y-49026057D01*
X129031285Y-49121295D01*
X128983666Y-49264152D01*
X128412238Y-49835580D01*
X129031285Y-49835580D01*
%TO.C,HS1*%
X105495980Y-65347295D02*
X104495980Y-65347295D01*
X104972171Y-65347295D02*
X104972171Y-64775866D01*
X105495980Y-64775866D02*
X104495980Y-64775866D01*
X105448361Y-64347295D02*
X105495980Y-64204438D01*
X105495980Y-63966342D01*
X105448361Y-63871104D01*
X105400742Y-63823485D01*
X105305504Y-63775866D01*
X105210266Y-63775866D01*
X105115028Y-63823485D01*
X105067409Y-63871104D01*
X105019790Y-63966342D01*
X104972171Y-64156819D01*
X104924552Y-64252057D01*
X104876933Y-64299676D01*
X104781695Y-64347295D01*
X104686457Y-64347295D01*
X104591219Y-64299676D01*
X104543600Y-64252057D01*
X104495980Y-64156819D01*
X104495980Y-63918723D01*
X104543600Y-63775866D01*
X105495980Y-62823485D02*
X105495980Y-63394914D01*
X105495980Y-63109200D02*
X104495980Y-63109200D01*
X104638838Y-63204438D01*
X104734076Y-63299676D01*
X104781695Y-63394914D01*
%TO.C,HS2*%
X110483280Y-111944395D02*
X109483280Y-111944395D01*
X109959471Y-111944395D02*
X109959471Y-111372966D01*
X110483280Y-111372966D02*
X109483280Y-111372966D01*
X110435661Y-110944395D02*
X110483280Y-110801538D01*
X110483280Y-110563442D01*
X110435661Y-110468204D01*
X110388042Y-110420585D01*
X110292804Y-110372966D01*
X110197566Y-110372966D01*
X110102328Y-110420585D01*
X110054709Y-110468204D01*
X110007090Y-110563442D01*
X109959471Y-110753919D01*
X109911852Y-110849157D01*
X109864233Y-110896776D01*
X109768995Y-110944395D01*
X109673757Y-110944395D01*
X109578519Y-110896776D01*
X109530900Y-110849157D01*
X109483280Y-110753919D01*
X109483280Y-110515823D01*
X109530900Y-110372966D01*
X109578519Y-109992014D02*
X109530900Y-109944395D01*
X109483280Y-109849157D01*
X109483280Y-109611061D01*
X109530900Y-109515823D01*
X109578519Y-109468204D01*
X109673757Y-109420585D01*
X109768995Y-109420585D01*
X109911852Y-109468204D01*
X110483280Y-110039633D01*
X110483280Y-109420585D01*
%TO.C,J1*%
X166925666Y-92987580D02*
X166925666Y-93701866D01*
X166878047Y-93844723D01*
X166782809Y-93939961D01*
X166639952Y-93987580D01*
X166544714Y-93987580D01*
X167925666Y-93987580D02*
X167354238Y-93987580D01*
X167639952Y-93987580D02*
X167639952Y-92987580D01*
X167544714Y-93130438D01*
X167449476Y-93225676D01*
X167354238Y-93273295D01*
%TO.C,J2*%
X167052666Y-86104180D02*
X167052666Y-86818466D01*
X167005047Y-86961323D01*
X166909809Y-87056561D01*
X166766952Y-87104180D01*
X166671714Y-87104180D01*
X167481238Y-86199419D02*
X167528857Y-86151800D01*
X167624095Y-86104180D01*
X167862190Y-86104180D01*
X167957428Y-86151800D01*
X168005047Y-86199419D01*
X168052666Y-86294657D01*
X168052666Y-86389895D01*
X168005047Y-86532752D01*
X167433619Y-87104180D01*
X168052666Y-87104180D01*
%TO.C,J3*%
X96618466Y-70166380D02*
X96618466Y-70880666D01*
X96570847Y-71023523D01*
X96475609Y-71118761D01*
X96332752Y-71166380D01*
X96237514Y-71166380D01*
X96999419Y-70166380D02*
X97618466Y-70166380D01*
X97285133Y-70547333D01*
X97427990Y-70547333D01*
X97523228Y-70594952D01*
X97570847Y-70642571D01*
X97618466Y-70737809D01*
X97618466Y-70975904D01*
X97570847Y-71071142D01*
X97523228Y-71118761D01*
X97427990Y-71166380D01*
X97142276Y-71166380D01*
X97047038Y-71118761D01*
X96999419Y-71071142D01*
%TO.C,J4*%
X150288666Y-79157980D02*
X150288666Y-79872266D01*
X150241047Y-80015123D01*
X150145809Y-80110361D01*
X150002952Y-80157980D01*
X149907714Y-80157980D01*
X151193428Y-79491314D02*
X151193428Y-80157980D01*
X150955333Y-79110361D02*
X150717238Y-79824647D01*
X151336285Y-79824647D01*
%TO.C,JL1*%
X149731504Y-128789580D02*
X149731504Y-129503866D01*
X149683885Y-129646723D01*
X149588647Y-129741961D01*
X149445790Y-129789580D01*
X149350552Y-129789580D01*
X150683885Y-129789580D02*
X150207695Y-129789580D01*
X150207695Y-128789580D01*
X151541028Y-129789580D02*
X150969600Y-129789580D01*
X151255314Y-129789580D02*
X151255314Y-128789580D01*
X151160076Y-128932438D01*
X151064838Y-129027676D01*
X150969600Y-129075295D01*
%TO.C,JL2*%
X149325104Y-37730580D02*
X149325104Y-38444866D01*
X149277485Y-38587723D01*
X149182247Y-38682961D01*
X149039390Y-38730580D01*
X148944152Y-38730580D01*
X150277485Y-38730580D02*
X149801295Y-38730580D01*
X149801295Y-37730580D01*
X150563200Y-37825819D02*
X150610819Y-37778200D01*
X150706057Y-37730580D01*
X150944152Y-37730580D01*
X151039390Y-37778200D01*
X151087009Y-37825819D01*
X151134628Y-37921057D01*
X151134628Y-38016295D01*
X151087009Y-38159152D01*
X150515580Y-38730580D01*
X151134628Y-38730580D01*
%TO.C,PR1*%
X122125904Y-112270780D02*
X122125904Y-111270780D01*
X122506857Y-111270780D01*
X122602095Y-111318400D01*
X122649714Y-111366019D01*
X122697333Y-111461257D01*
X122697333Y-111604114D01*
X122649714Y-111699352D01*
X122602095Y-111746971D01*
X122506857Y-111794590D01*
X122125904Y-111794590D01*
X123697333Y-112270780D02*
X123364000Y-111794590D01*
X123125904Y-112270780D02*
X123125904Y-111270780D01*
X123506857Y-111270780D01*
X123602095Y-111318400D01*
X123649714Y-111366019D01*
X123697333Y-111461257D01*
X123697333Y-111604114D01*
X123649714Y-111699352D01*
X123602095Y-111746971D01*
X123506857Y-111794590D01*
X123125904Y-111794590D01*
X124649714Y-112270780D02*
X124078285Y-112270780D01*
X124364000Y-112270780D02*
X124364000Y-111270780D01*
X124268761Y-111413638D01*
X124173523Y-111508876D01*
X124078285Y-111556495D01*
%TO.C,Q6*%
X158634161Y-53171219D02*
X158538923Y-53123600D01*
X158443685Y-53028361D01*
X158300828Y-52885504D01*
X158205590Y-52837885D01*
X158110352Y-52837885D01*
X158157971Y-53075980D02*
X158062733Y-53028361D01*
X157967495Y-52933123D01*
X157919876Y-52742647D01*
X157919876Y-52409314D01*
X157967495Y-52218838D01*
X158062733Y-52123600D01*
X158157971Y-52075980D01*
X158348447Y-52075980D01*
X158443685Y-52123600D01*
X158538923Y-52218838D01*
X158586542Y-52409314D01*
X158586542Y-52742647D01*
X158538923Y-52933123D01*
X158443685Y-53028361D01*
X158348447Y-53075980D01*
X158157971Y-53075980D01*
X159443685Y-52075980D02*
X159253209Y-52075980D01*
X159157971Y-52123600D01*
X159110352Y-52171219D01*
X159015114Y-52314076D01*
X158967495Y-52504552D01*
X158967495Y-52885504D01*
X159015114Y-52980742D01*
X159062733Y-53028361D01*
X159157971Y-53075980D01*
X159348447Y-53075980D01*
X159443685Y-53028361D01*
X159491304Y-52980742D01*
X159538923Y-52885504D01*
X159538923Y-52647409D01*
X159491304Y-52552171D01*
X159443685Y-52504552D01*
X159348447Y-52456933D01*
X159157971Y-52456933D01*
X159062733Y-52504552D01*
X159015114Y-52552171D01*
X158967495Y-52647409D01*
%TO.C,R2*%
X161260780Y-74230766D02*
X160784590Y-74564100D01*
X161260780Y-74802195D02*
X160260780Y-74802195D01*
X160260780Y-74421242D01*
X160308400Y-74326004D01*
X160356019Y-74278385D01*
X160451257Y-74230766D01*
X160594114Y-74230766D01*
X160689352Y-74278385D01*
X160736971Y-74326004D01*
X160784590Y-74421242D01*
X160784590Y-74802195D01*
X160356019Y-73849814D02*
X160308400Y-73802195D01*
X160260780Y-73706957D01*
X160260780Y-73468861D01*
X160308400Y-73373623D01*
X160356019Y-73326004D01*
X160451257Y-73278385D01*
X160546495Y-73278385D01*
X160689352Y-73326004D01*
X161260780Y-73897433D01*
X161260780Y-73278385D01*
%TO.C,R3*%
X158441380Y-74256166D02*
X157965190Y-74589500D01*
X158441380Y-74827595D02*
X157441380Y-74827595D01*
X157441380Y-74446642D01*
X157489000Y-74351404D01*
X157536619Y-74303785D01*
X157631857Y-74256166D01*
X157774714Y-74256166D01*
X157869952Y-74303785D01*
X157917571Y-74351404D01*
X157965190Y-74446642D01*
X157965190Y-74827595D01*
X157441380Y-73922833D02*
X157441380Y-73303785D01*
X157822333Y-73637119D01*
X157822333Y-73494261D01*
X157869952Y-73399023D01*
X157917571Y-73351404D01*
X158012809Y-73303785D01*
X158250904Y-73303785D01*
X158346142Y-73351404D01*
X158393761Y-73399023D01*
X158441380Y-73494261D01*
X158441380Y-73779976D01*
X158393761Y-73875214D01*
X158346142Y-73922833D01*
%TO.C,R4*%
X167432980Y-123811566D02*
X166956790Y-124144900D01*
X167432980Y-124382995D02*
X166432980Y-124382995D01*
X166432980Y-124002042D01*
X166480600Y-123906804D01*
X166528219Y-123859185D01*
X166623457Y-123811566D01*
X166766314Y-123811566D01*
X166861552Y-123859185D01*
X166909171Y-123906804D01*
X166956790Y-124002042D01*
X166956790Y-124382995D01*
X166766314Y-122954423D02*
X167432980Y-122954423D01*
X166385361Y-123192519D02*
X167099647Y-123430614D01*
X167099647Y-122811566D01*
%TO.C,R5*%
X146744633Y-111222780D02*
X146411300Y-110746590D01*
X146173204Y-111222780D02*
X146173204Y-110222780D01*
X146554157Y-110222780D01*
X146649395Y-110270400D01*
X146697014Y-110318019D01*
X146744633Y-110413257D01*
X146744633Y-110556114D01*
X146697014Y-110651352D01*
X146649395Y-110698971D01*
X146554157Y-110746590D01*
X146173204Y-110746590D01*
X147649395Y-110222780D02*
X147173204Y-110222780D01*
X147125585Y-110698971D01*
X147173204Y-110651352D01*
X147268442Y-110603733D01*
X147506538Y-110603733D01*
X147601776Y-110651352D01*
X147649395Y-110698971D01*
X147697014Y-110794209D01*
X147697014Y-111032304D01*
X147649395Y-111127542D01*
X147601776Y-111175161D01*
X147506538Y-111222780D01*
X147268442Y-111222780D01*
X147173204Y-111175161D01*
X147125585Y-111127542D01*
%TO.C,R6*%
X166493180Y-47793966D02*
X166016990Y-48127300D01*
X166493180Y-48365395D02*
X165493180Y-48365395D01*
X165493180Y-47984442D01*
X165540800Y-47889204D01*
X165588419Y-47841585D01*
X165683657Y-47793966D01*
X165826514Y-47793966D01*
X165921752Y-47841585D01*
X165969371Y-47889204D01*
X166016990Y-47984442D01*
X166016990Y-48365395D01*
X165493180Y-46936823D02*
X165493180Y-47127300D01*
X165540800Y-47222538D01*
X165588419Y-47270157D01*
X165731276Y-47365395D01*
X165921752Y-47413014D01*
X166302704Y-47413014D01*
X166397942Y-47365395D01*
X166445561Y-47317776D01*
X166493180Y-47222538D01*
X166493180Y-47032061D01*
X166445561Y-46936823D01*
X166397942Y-46889204D01*
X166302704Y-46841585D01*
X166064609Y-46841585D01*
X165969371Y-46889204D01*
X165921752Y-46936823D01*
X165874133Y-47032061D01*
X165874133Y-47222538D01*
X165921752Y-47317776D01*
X165969371Y-47365395D01*
X166064609Y-47413014D01*
%TO.C,R7*%
X163953180Y-47793966D02*
X163476990Y-48127300D01*
X163953180Y-48365395D02*
X162953180Y-48365395D01*
X162953180Y-47984442D01*
X163000800Y-47889204D01*
X163048419Y-47841585D01*
X163143657Y-47793966D01*
X163286514Y-47793966D01*
X163381752Y-47841585D01*
X163429371Y-47889204D01*
X163476990Y-47984442D01*
X163476990Y-48365395D01*
X162953180Y-47460633D02*
X162953180Y-46793966D01*
X163953180Y-47222538D01*
%TO.C,R8*%
X152083233Y-88616780D02*
X151749900Y-88140590D01*
X151511804Y-88616780D02*
X151511804Y-87616780D01*
X151892757Y-87616780D01*
X151987995Y-87664400D01*
X152035614Y-87712019D01*
X152083233Y-87807257D01*
X152083233Y-87950114D01*
X152035614Y-88045352D01*
X151987995Y-88092971D01*
X151892757Y-88140590D01*
X151511804Y-88140590D01*
X152654661Y-88045352D02*
X152559423Y-87997733D01*
X152511804Y-87950114D01*
X152464185Y-87854876D01*
X152464185Y-87807257D01*
X152511804Y-87712019D01*
X152559423Y-87664400D01*
X152654661Y-87616780D01*
X152845138Y-87616780D01*
X152940376Y-87664400D01*
X152987995Y-87712019D01*
X153035614Y-87807257D01*
X153035614Y-87854876D01*
X152987995Y-87950114D01*
X152940376Y-87997733D01*
X152845138Y-88045352D01*
X152654661Y-88045352D01*
X152559423Y-88092971D01*
X152511804Y-88140590D01*
X152464185Y-88235828D01*
X152464185Y-88426304D01*
X152511804Y-88521542D01*
X152559423Y-88569161D01*
X152654661Y-88616780D01*
X152845138Y-88616780D01*
X152940376Y-88569161D01*
X152987995Y-88521542D01*
X153035614Y-88426304D01*
X153035614Y-88235828D01*
X152987995Y-88140590D01*
X152940376Y-88092971D01*
X152845138Y-88045352D01*
%TO.C,R9*%
X171621980Y-100570566D02*
X171145790Y-100903900D01*
X171621980Y-101141995D02*
X170621980Y-101141995D01*
X170621980Y-100761042D01*
X170669600Y-100665804D01*
X170717219Y-100618185D01*
X170812457Y-100570566D01*
X170955314Y-100570566D01*
X171050552Y-100618185D01*
X171098171Y-100665804D01*
X171145790Y-100761042D01*
X171145790Y-101141995D01*
X171621980Y-100094376D02*
X171621980Y-99903900D01*
X171574361Y-99808661D01*
X171526742Y-99761042D01*
X171383885Y-99665804D01*
X171193409Y-99618185D01*
X170812457Y-99618185D01*
X170717219Y-99665804D01*
X170669600Y-99713423D01*
X170621980Y-99808661D01*
X170621980Y-99999138D01*
X170669600Y-100094376D01*
X170717219Y-100141995D01*
X170812457Y-100189614D01*
X171050552Y-100189614D01*
X171145790Y-100141995D01*
X171193409Y-100094376D01*
X171241028Y-99999138D01*
X171241028Y-99808661D01*
X171193409Y-99713423D01*
X171145790Y-99665804D01*
X171050552Y-99618185D01*
%TO.C,R10*%
X115813842Y-110534980D02*
X115480509Y-110058790D01*
X115242414Y-110534980D02*
X115242414Y-109534980D01*
X115623366Y-109534980D01*
X115718604Y-109582600D01*
X115766223Y-109630219D01*
X115813842Y-109725457D01*
X115813842Y-109868314D01*
X115766223Y-109963552D01*
X115718604Y-110011171D01*
X115623366Y-110058790D01*
X115242414Y-110058790D01*
X116766223Y-110534980D02*
X116194795Y-110534980D01*
X116480509Y-110534980D02*
X116480509Y-109534980D01*
X116385271Y-109677838D01*
X116290033Y-109773076D01*
X116194795Y-109820695D01*
X117385271Y-109534980D02*
X117480509Y-109534980D01*
X117575747Y-109582600D01*
X117623366Y-109630219D01*
X117670985Y-109725457D01*
X117718604Y-109915933D01*
X117718604Y-110154028D01*
X117670985Y-110344504D01*
X117623366Y-110439742D01*
X117575747Y-110487361D01*
X117480509Y-110534980D01*
X117385271Y-110534980D01*
X117290033Y-110487361D01*
X117242414Y-110439742D01*
X117194795Y-110344504D01*
X117147176Y-110154028D01*
X117147176Y-109915933D01*
X117194795Y-109725457D01*
X117242414Y-109630219D01*
X117290033Y-109582600D01*
X117385271Y-109534980D01*
%TO.C,R11*%
X115813842Y-104821980D02*
X115480509Y-104345790D01*
X115242414Y-104821980D02*
X115242414Y-103821980D01*
X115623366Y-103821980D01*
X115718604Y-103869600D01*
X115766223Y-103917219D01*
X115813842Y-104012457D01*
X115813842Y-104155314D01*
X115766223Y-104250552D01*
X115718604Y-104298171D01*
X115623366Y-104345790D01*
X115242414Y-104345790D01*
X116766223Y-104821980D02*
X116194795Y-104821980D01*
X116480509Y-104821980D02*
X116480509Y-103821980D01*
X116385271Y-103964838D01*
X116290033Y-104060076D01*
X116194795Y-104107695D01*
X117718604Y-104821980D02*
X117147176Y-104821980D01*
X117432890Y-104821980D02*
X117432890Y-103821980D01*
X117337652Y-103964838D01*
X117242414Y-104060076D01*
X117147176Y-104107695D01*
%TO.C,R12*%
X127273842Y-90420180D02*
X126940509Y-89943990D01*
X126702414Y-90420180D02*
X126702414Y-89420180D01*
X127083366Y-89420180D01*
X127178604Y-89467800D01*
X127226223Y-89515419D01*
X127273842Y-89610657D01*
X127273842Y-89753514D01*
X127226223Y-89848752D01*
X127178604Y-89896371D01*
X127083366Y-89943990D01*
X126702414Y-89943990D01*
X128226223Y-90420180D02*
X127654795Y-90420180D01*
X127940509Y-90420180D02*
X127940509Y-89420180D01*
X127845271Y-89563038D01*
X127750033Y-89658276D01*
X127654795Y-89705895D01*
X128607176Y-89515419D02*
X128654795Y-89467800D01*
X128750033Y-89420180D01*
X128988128Y-89420180D01*
X129083366Y-89467800D01*
X129130985Y-89515419D01*
X129178604Y-89610657D01*
X129178604Y-89705895D01*
X129130985Y-89848752D01*
X128559557Y-90420180D01*
X129178604Y-90420180D01*
%TO.C,R13*%
X133676380Y-123982957D02*
X133200190Y-124316290D01*
X133676380Y-124554385D02*
X132676380Y-124554385D01*
X132676380Y-124173433D01*
X132724000Y-124078195D01*
X132771619Y-124030576D01*
X132866857Y-123982957D01*
X133009714Y-123982957D01*
X133104952Y-124030576D01*
X133152571Y-124078195D01*
X133200190Y-124173433D01*
X133200190Y-124554385D01*
X133676380Y-123030576D02*
X133676380Y-123602004D01*
X133676380Y-123316290D02*
X132676380Y-123316290D01*
X132819238Y-123411528D01*
X132914476Y-123506766D01*
X132962095Y-123602004D01*
X132676380Y-122697242D02*
X132676380Y-122078195D01*
X133057333Y-122411528D01*
X133057333Y-122268671D01*
X133104952Y-122173433D01*
X133152571Y-122125814D01*
X133247809Y-122078195D01*
X133485904Y-122078195D01*
X133581142Y-122125814D01*
X133628761Y-122173433D01*
X133676380Y-122268671D01*
X133676380Y-122554385D01*
X133628761Y-122649623D01*
X133581142Y-122697242D01*
%TO.C,R14*%
X115813842Y-113074980D02*
X115480509Y-112598790D01*
X115242414Y-113074980D02*
X115242414Y-112074980D01*
X115623366Y-112074980D01*
X115718604Y-112122600D01*
X115766223Y-112170219D01*
X115813842Y-112265457D01*
X115813842Y-112408314D01*
X115766223Y-112503552D01*
X115718604Y-112551171D01*
X115623366Y-112598790D01*
X115242414Y-112598790D01*
X116766223Y-113074980D02*
X116194795Y-113074980D01*
X116480509Y-113074980D02*
X116480509Y-112074980D01*
X116385271Y-112217838D01*
X116290033Y-112313076D01*
X116194795Y-112360695D01*
X117623366Y-112408314D02*
X117623366Y-113074980D01*
X117385271Y-112027361D02*
X117147176Y-112741647D01*
X117766223Y-112741647D01*
%TO.C,R15*%
X127273842Y-96031580D02*
X126940509Y-95555390D01*
X126702414Y-96031580D02*
X126702414Y-95031580D01*
X127083366Y-95031580D01*
X127178604Y-95079200D01*
X127226223Y-95126819D01*
X127273842Y-95222057D01*
X127273842Y-95364914D01*
X127226223Y-95460152D01*
X127178604Y-95507771D01*
X127083366Y-95555390D01*
X126702414Y-95555390D01*
X128226223Y-96031580D02*
X127654795Y-96031580D01*
X127940509Y-96031580D02*
X127940509Y-95031580D01*
X127845271Y-95174438D01*
X127750033Y-95269676D01*
X127654795Y-95317295D01*
X129130985Y-95031580D02*
X128654795Y-95031580D01*
X128607176Y-95507771D01*
X128654795Y-95460152D01*
X128750033Y-95412533D01*
X128988128Y-95412533D01*
X129083366Y-95460152D01*
X129130985Y-95507771D01*
X129178604Y-95603009D01*
X129178604Y-95841104D01*
X129130985Y-95936342D01*
X129083366Y-95983961D01*
X128988128Y-96031580D01*
X128750033Y-96031580D01*
X128654795Y-95983961D01*
X128607176Y-95936342D01*
%TO.C,R16*%
X80636380Y-105346057D02*
X80160190Y-105679390D01*
X80636380Y-105917485D02*
X79636380Y-105917485D01*
X79636380Y-105536533D01*
X79684000Y-105441295D01*
X79731619Y-105393676D01*
X79826857Y-105346057D01*
X79969714Y-105346057D01*
X80064952Y-105393676D01*
X80112571Y-105441295D01*
X80160190Y-105536533D01*
X80160190Y-105917485D01*
X80636380Y-104393676D02*
X80636380Y-104965104D01*
X80636380Y-104679390D02*
X79636380Y-104679390D01*
X79779238Y-104774628D01*
X79874476Y-104869866D01*
X79922095Y-104965104D01*
X79636380Y-103536533D02*
X79636380Y-103727009D01*
X79684000Y-103822247D01*
X79731619Y-103869866D01*
X79874476Y-103965104D01*
X80064952Y-104012723D01*
X80445904Y-104012723D01*
X80541142Y-103965104D01*
X80588761Y-103917485D01*
X80636380Y-103822247D01*
X80636380Y-103631771D01*
X80588761Y-103536533D01*
X80541142Y-103488914D01*
X80445904Y-103441295D01*
X80207809Y-103441295D01*
X80112571Y-103488914D01*
X80064952Y-103536533D01*
X80017333Y-103631771D01*
X80017333Y-103822247D01*
X80064952Y-103917485D01*
X80112571Y-103965104D01*
X80207809Y-104012723D01*
%TO.C,R17*%
X80636380Y-78718057D02*
X80160190Y-79051390D01*
X80636380Y-79289485D02*
X79636380Y-79289485D01*
X79636380Y-78908533D01*
X79684000Y-78813295D01*
X79731619Y-78765676D01*
X79826857Y-78718057D01*
X79969714Y-78718057D01*
X80064952Y-78765676D01*
X80112571Y-78813295D01*
X80160190Y-78908533D01*
X80160190Y-79289485D01*
X80636380Y-77765676D02*
X80636380Y-78337104D01*
X80636380Y-78051390D02*
X79636380Y-78051390D01*
X79779238Y-78146628D01*
X79874476Y-78241866D01*
X79922095Y-78337104D01*
X79636380Y-77432342D02*
X79636380Y-76765676D01*
X80636380Y-77194247D01*
%TO.C,R18*%
X86330780Y-88219757D02*
X85854590Y-88553090D01*
X86330780Y-88791185D02*
X85330780Y-88791185D01*
X85330780Y-88410233D01*
X85378400Y-88314995D01*
X85426019Y-88267376D01*
X85521257Y-88219757D01*
X85664114Y-88219757D01*
X85759352Y-88267376D01*
X85806971Y-88314995D01*
X85854590Y-88410233D01*
X85854590Y-88791185D01*
X86330780Y-87267376D02*
X86330780Y-87838804D01*
X86330780Y-87553090D02*
X85330780Y-87553090D01*
X85473638Y-87648328D01*
X85568876Y-87743566D01*
X85616495Y-87838804D01*
X85759352Y-86695947D02*
X85711733Y-86791185D01*
X85664114Y-86838804D01*
X85568876Y-86886423D01*
X85521257Y-86886423D01*
X85426019Y-86838804D01*
X85378400Y-86791185D01*
X85330780Y-86695947D01*
X85330780Y-86505471D01*
X85378400Y-86410233D01*
X85426019Y-86362614D01*
X85521257Y-86314995D01*
X85568876Y-86314995D01*
X85664114Y-86362614D01*
X85711733Y-86410233D01*
X85759352Y-86505471D01*
X85759352Y-86695947D01*
X85806971Y-86791185D01*
X85854590Y-86838804D01*
X85949828Y-86886423D01*
X86140304Y-86886423D01*
X86235542Y-86838804D01*
X86283161Y-86791185D01*
X86330780Y-86695947D01*
X86330780Y-86505471D01*
X86283161Y-86410233D01*
X86235542Y-86362614D01*
X86140304Y-86314995D01*
X85949828Y-86314995D01*
X85854590Y-86362614D01*
X85806971Y-86410233D01*
X85759352Y-86505471D01*
%TO.C,R19*%
X96691980Y-88930957D02*
X96215790Y-89264290D01*
X96691980Y-89502385D02*
X95691980Y-89502385D01*
X95691980Y-89121433D01*
X95739600Y-89026195D01*
X95787219Y-88978576D01*
X95882457Y-88930957D01*
X96025314Y-88930957D01*
X96120552Y-88978576D01*
X96168171Y-89026195D01*
X96215790Y-89121433D01*
X96215790Y-89502385D01*
X96691980Y-87978576D02*
X96691980Y-88550004D01*
X96691980Y-88264290D02*
X95691980Y-88264290D01*
X95834838Y-88359528D01*
X95930076Y-88454766D01*
X95977695Y-88550004D01*
X96691980Y-87502385D02*
X96691980Y-87311909D01*
X96644361Y-87216671D01*
X96596742Y-87169052D01*
X96453885Y-87073814D01*
X96263409Y-87026195D01*
X95882457Y-87026195D01*
X95787219Y-87073814D01*
X95739600Y-87121433D01*
X95691980Y-87216671D01*
X95691980Y-87407147D01*
X95739600Y-87502385D01*
X95787219Y-87550004D01*
X95882457Y-87597623D01*
X96120552Y-87597623D01*
X96215790Y-87550004D01*
X96263409Y-87502385D01*
X96311028Y-87407147D01*
X96311028Y-87216671D01*
X96263409Y-87121433D01*
X96215790Y-87073814D01*
X96120552Y-87026195D01*
%TO.C,R20*%
X90470980Y-106634757D02*
X89994790Y-106968090D01*
X90470980Y-107206185D02*
X89470980Y-107206185D01*
X89470980Y-106825233D01*
X89518600Y-106729995D01*
X89566219Y-106682376D01*
X89661457Y-106634757D01*
X89804314Y-106634757D01*
X89899552Y-106682376D01*
X89947171Y-106729995D01*
X89994790Y-106825233D01*
X89994790Y-107206185D01*
X89566219Y-106253804D02*
X89518600Y-106206185D01*
X89470980Y-106110947D01*
X89470980Y-105872852D01*
X89518600Y-105777614D01*
X89566219Y-105729995D01*
X89661457Y-105682376D01*
X89756695Y-105682376D01*
X89899552Y-105729995D01*
X90470980Y-106301423D01*
X90470980Y-105682376D01*
X89470980Y-105063328D02*
X89470980Y-104968090D01*
X89518600Y-104872852D01*
X89566219Y-104825233D01*
X89661457Y-104777614D01*
X89851933Y-104729995D01*
X90090028Y-104729995D01*
X90280504Y-104777614D01*
X90375742Y-104825233D01*
X90423361Y-104872852D01*
X90470980Y-104968090D01*
X90470980Y-105063328D01*
X90423361Y-105158566D01*
X90375742Y-105206185D01*
X90280504Y-105253804D01*
X90090028Y-105301423D01*
X89851933Y-105301423D01*
X89661457Y-105253804D01*
X89566219Y-105206185D01*
X89518600Y-105158566D01*
X89470980Y-105063328D01*
%TO.C,R21*%
X94052380Y-116616957D02*
X93576190Y-116950290D01*
X94052380Y-117188385D02*
X93052380Y-117188385D01*
X93052380Y-116807433D01*
X93100000Y-116712195D01*
X93147619Y-116664576D01*
X93242857Y-116616957D01*
X93385714Y-116616957D01*
X93480952Y-116664576D01*
X93528571Y-116712195D01*
X93576190Y-116807433D01*
X93576190Y-117188385D01*
X93147619Y-116236004D02*
X93100000Y-116188385D01*
X93052380Y-116093147D01*
X93052380Y-115855052D01*
X93100000Y-115759814D01*
X93147619Y-115712195D01*
X93242857Y-115664576D01*
X93338095Y-115664576D01*
X93480952Y-115712195D01*
X94052380Y-116283623D01*
X94052380Y-115664576D01*
X94052380Y-114712195D02*
X94052380Y-115283623D01*
X94052380Y-114997909D02*
X93052380Y-114997909D01*
X93195238Y-115093147D01*
X93290476Y-115188385D01*
X93338095Y-115283623D01*
%TO.C,R22*%
X126989842Y-104821980D02*
X126656509Y-104345790D01*
X126418414Y-104821980D02*
X126418414Y-103821980D01*
X126799366Y-103821980D01*
X126894604Y-103869600D01*
X126942223Y-103917219D01*
X126989842Y-104012457D01*
X126989842Y-104155314D01*
X126942223Y-104250552D01*
X126894604Y-104298171D01*
X126799366Y-104345790D01*
X126418414Y-104345790D01*
X127370795Y-103917219D02*
X127418414Y-103869600D01*
X127513652Y-103821980D01*
X127751747Y-103821980D01*
X127846985Y-103869600D01*
X127894604Y-103917219D01*
X127942223Y-104012457D01*
X127942223Y-104107695D01*
X127894604Y-104250552D01*
X127323176Y-104821980D01*
X127942223Y-104821980D01*
X128323176Y-103917219D02*
X128370795Y-103869600D01*
X128466033Y-103821980D01*
X128704128Y-103821980D01*
X128799366Y-103869600D01*
X128846985Y-103917219D01*
X128894604Y-104012457D01*
X128894604Y-104107695D01*
X128846985Y-104250552D01*
X128275557Y-104821980D01*
X128894604Y-104821980D01*
%TO.C,R23*%
X95879180Y-109915957D02*
X95402990Y-110249290D01*
X95879180Y-110487385D02*
X94879180Y-110487385D01*
X94879180Y-110106433D01*
X94926800Y-110011195D01*
X94974419Y-109963576D01*
X95069657Y-109915957D01*
X95212514Y-109915957D01*
X95307752Y-109963576D01*
X95355371Y-110011195D01*
X95402990Y-110106433D01*
X95402990Y-110487385D01*
X94974419Y-109535004D02*
X94926800Y-109487385D01*
X94879180Y-109392147D01*
X94879180Y-109154052D01*
X94926800Y-109058814D01*
X94974419Y-109011195D01*
X95069657Y-108963576D01*
X95164895Y-108963576D01*
X95307752Y-109011195D01*
X95879180Y-109582623D01*
X95879180Y-108963576D01*
X94879180Y-108630242D02*
X94879180Y-108011195D01*
X95260133Y-108344528D01*
X95260133Y-108201671D01*
X95307752Y-108106433D01*
X95355371Y-108058814D01*
X95450609Y-108011195D01*
X95688704Y-108011195D01*
X95783942Y-108058814D01*
X95831561Y-108106433D01*
X95879180Y-108201671D01*
X95879180Y-108487385D01*
X95831561Y-108582623D01*
X95783942Y-108630242D01*
%TO.C,R24*%
X110888542Y-67890380D02*
X110555209Y-67414190D01*
X110317114Y-67890380D02*
X110317114Y-66890380D01*
X110698066Y-66890380D01*
X110793304Y-66938000D01*
X110840923Y-66985619D01*
X110888542Y-67080857D01*
X110888542Y-67223714D01*
X110840923Y-67318952D01*
X110793304Y-67366571D01*
X110698066Y-67414190D01*
X110317114Y-67414190D01*
X111269495Y-66985619D02*
X111317114Y-66938000D01*
X111412352Y-66890380D01*
X111650447Y-66890380D01*
X111745685Y-66938000D01*
X111793304Y-66985619D01*
X111840923Y-67080857D01*
X111840923Y-67176095D01*
X111793304Y-67318952D01*
X111221876Y-67890380D01*
X111840923Y-67890380D01*
X112698066Y-67223714D02*
X112698066Y-67890380D01*
X112459971Y-66842761D02*
X112221876Y-67557047D01*
X112840923Y-67557047D01*
%TO.C,R25*%
X80666580Y-123043157D02*
X80190390Y-123376490D01*
X80666580Y-123614585D02*
X79666580Y-123614585D01*
X79666580Y-123233633D01*
X79714200Y-123138395D01*
X79761819Y-123090776D01*
X79857057Y-123043157D01*
X79999914Y-123043157D01*
X80095152Y-123090776D01*
X80142771Y-123138395D01*
X80190390Y-123233633D01*
X80190390Y-123614585D01*
X79761819Y-122662204D02*
X79714200Y-122614585D01*
X79666580Y-122519347D01*
X79666580Y-122281252D01*
X79714200Y-122186014D01*
X79761819Y-122138395D01*
X79857057Y-122090776D01*
X79952295Y-122090776D01*
X80095152Y-122138395D01*
X80666580Y-122709823D01*
X80666580Y-122090776D01*
X79666580Y-121186014D02*
X79666580Y-121662204D01*
X80142771Y-121709823D01*
X80095152Y-121662204D01*
X80047533Y-121566966D01*
X80047533Y-121328871D01*
X80095152Y-121233633D01*
X80142771Y-121186014D01*
X80238009Y-121138395D01*
X80476104Y-121138395D01*
X80571342Y-121186014D01*
X80618961Y-121233633D01*
X80666580Y-121328871D01*
X80666580Y-121566966D01*
X80618961Y-121662204D01*
X80571342Y-121709823D01*
%TO.C,R26*%
X81403180Y-54767957D02*
X80926990Y-55101290D01*
X81403180Y-55339385D02*
X80403180Y-55339385D01*
X80403180Y-54958433D01*
X80450800Y-54863195D01*
X80498419Y-54815576D01*
X80593657Y-54767957D01*
X80736514Y-54767957D01*
X80831752Y-54815576D01*
X80879371Y-54863195D01*
X80926990Y-54958433D01*
X80926990Y-55339385D01*
X80498419Y-54387004D02*
X80450800Y-54339385D01*
X80403180Y-54244147D01*
X80403180Y-54006052D01*
X80450800Y-53910814D01*
X80498419Y-53863195D01*
X80593657Y-53815576D01*
X80688895Y-53815576D01*
X80831752Y-53863195D01*
X81403180Y-54434623D01*
X81403180Y-53815576D01*
X80403180Y-52958433D02*
X80403180Y-53148909D01*
X80450800Y-53244147D01*
X80498419Y-53291766D01*
X80641276Y-53387004D01*
X80831752Y-53434623D01*
X81212704Y-53434623D01*
X81307942Y-53387004D01*
X81355561Y-53339385D01*
X81403180Y-53244147D01*
X81403180Y-53053671D01*
X81355561Y-52958433D01*
X81307942Y-52910814D01*
X81212704Y-52863195D01*
X80974609Y-52863195D01*
X80879371Y-52910814D01*
X80831752Y-52958433D01*
X80784133Y-53053671D01*
X80784133Y-53244147D01*
X80831752Y-53339385D01*
X80879371Y-53387004D01*
X80974609Y-53434623D01*
%TO.C,R27*%
X88438980Y-64343757D02*
X87962790Y-64677090D01*
X88438980Y-64915185D02*
X87438980Y-64915185D01*
X87438980Y-64534233D01*
X87486600Y-64438995D01*
X87534219Y-64391376D01*
X87629457Y-64343757D01*
X87772314Y-64343757D01*
X87867552Y-64391376D01*
X87915171Y-64438995D01*
X87962790Y-64534233D01*
X87962790Y-64915185D01*
X87534219Y-63962804D02*
X87486600Y-63915185D01*
X87438980Y-63819947D01*
X87438980Y-63581852D01*
X87486600Y-63486614D01*
X87534219Y-63438995D01*
X87629457Y-63391376D01*
X87724695Y-63391376D01*
X87867552Y-63438995D01*
X88438980Y-64010423D01*
X88438980Y-63391376D01*
X87438980Y-63058042D02*
X87438980Y-62391376D01*
X88438980Y-62819947D01*
%TO.C,R29*%
X88464380Y-60508357D02*
X87988190Y-60841690D01*
X88464380Y-61079785D02*
X87464380Y-61079785D01*
X87464380Y-60698833D01*
X87512000Y-60603595D01*
X87559619Y-60555976D01*
X87654857Y-60508357D01*
X87797714Y-60508357D01*
X87892952Y-60555976D01*
X87940571Y-60603595D01*
X87988190Y-60698833D01*
X87988190Y-61079785D01*
X87559619Y-60127404D02*
X87512000Y-60079785D01*
X87464380Y-59984547D01*
X87464380Y-59746452D01*
X87512000Y-59651214D01*
X87559619Y-59603595D01*
X87654857Y-59555976D01*
X87750095Y-59555976D01*
X87892952Y-59603595D01*
X88464380Y-60175023D01*
X88464380Y-59555976D01*
X88464380Y-59079785D02*
X88464380Y-58889309D01*
X88416761Y-58794071D01*
X88369142Y-58746452D01*
X88226285Y-58651214D01*
X88035809Y-58603595D01*
X87654857Y-58603595D01*
X87559619Y-58651214D01*
X87512000Y-58698833D01*
X87464380Y-58794071D01*
X87464380Y-58984547D01*
X87512000Y-59079785D01*
X87559619Y-59127404D01*
X87654857Y-59175023D01*
X87892952Y-59175023D01*
X87988190Y-59127404D01*
X88035809Y-59079785D01*
X88083428Y-58984547D01*
X88083428Y-58794071D01*
X88035809Y-58698833D01*
X87988190Y-58651214D01*
X87892952Y-58603595D01*
%TO.C,R30*%
X116047042Y-65856380D02*
X115713709Y-65380190D01*
X115475614Y-65856380D02*
X115475614Y-64856380D01*
X115856566Y-64856380D01*
X115951804Y-64904000D01*
X115999423Y-64951619D01*
X116047042Y-65046857D01*
X116047042Y-65189714D01*
X115999423Y-65284952D01*
X115951804Y-65332571D01*
X115856566Y-65380190D01*
X115475614Y-65380190D01*
X116380376Y-64856380D02*
X116999423Y-64856380D01*
X116666090Y-65237333D01*
X116808947Y-65237333D01*
X116904185Y-65284952D01*
X116951804Y-65332571D01*
X116999423Y-65427809D01*
X116999423Y-65665904D01*
X116951804Y-65761142D01*
X116904185Y-65808761D01*
X116808947Y-65856380D01*
X116523233Y-65856380D01*
X116427995Y-65808761D01*
X116380376Y-65761142D01*
X117618471Y-64856380D02*
X117713709Y-64856380D01*
X117808947Y-64904000D01*
X117856566Y-64951619D01*
X117904185Y-65046857D01*
X117951804Y-65237333D01*
X117951804Y-65475428D01*
X117904185Y-65665904D01*
X117856566Y-65761142D01*
X117808947Y-65808761D01*
X117713709Y-65856380D01*
X117618471Y-65856380D01*
X117523233Y-65808761D01*
X117475614Y-65761142D01*
X117427995Y-65665904D01*
X117380376Y-65475428D01*
X117380376Y-65237333D01*
X117427995Y-65046857D01*
X117475614Y-64951619D01*
X117523233Y-64904000D01*
X117618471Y-64856380D01*
%TO.C,R31*%
X98698580Y-60787757D02*
X98222390Y-61121090D01*
X98698580Y-61359185D02*
X97698580Y-61359185D01*
X97698580Y-60978233D01*
X97746200Y-60882995D01*
X97793819Y-60835376D01*
X97889057Y-60787757D01*
X98031914Y-60787757D01*
X98127152Y-60835376D01*
X98174771Y-60882995D01*
X98222390Y-60978233D01*
X98222390Y-61359185D01*
X97698580Y-60454423D02*
X97698580Y-59835376D01*
X98079533Y-60168709D01*
X98079533Y-60025852D01*
X98127152Y-59930614D01*
X98174771Y-59882995D01*
X98270009Y-59835376D01*
X98508104Y-59835376D01*
X98603342Y-59882995D01*
X98650961Y-59930614D01*
X98698580Y-60025852D01*
X98698580Y-60311566D01*
X98650961Y-60406804D01*
X98603342Y-60454423D01*
X98698580Y-58882995D02*
X98698580Y-59454423D01*
X98698580Y-59168709D02*
X97698580Y-59168709D01*
X97841438Y-59263947D01*
X97936676Y-59359185D01*
X97984295Y-59454423D01*
%TO.C,R32*%
X135147580Y-106583957D02*
X134671390Y-106917290D01*
X135147580Y-107155385D02*
X134147580Y-107155385D01*
X134147580Y-106774433D01*
X134195200Y-106679195D01*
X134242819Y-106631576D01*
X134338057Y-106583957D01*
X134480914Y-106583957D01*
X134576152Y-106631576D01*
X134623771Y-106679195D01*
X134671390Y-106774433D01*
X134671390Y-107155385D01*
X134147580Y-106250623D02*
X134147580Y-105631576D01*
X134528533Y-105964909D01*
X134528533Y-105822052D01*
X134576152Y-105726814D01*
X134623771Y-105679195D01*
X134719009Y-105631576D01*
X134957104Y-105631576D01*
X135052342Y-105679195D01*
X135099961Y-105726814D01*
X135147580Y-105822052D01*
X135147580Y-106107766D01*
X135099961Y-106203004D01*
X135052342Y-106250623D01*
X134242819Y-105250623D02*
X134195200Y-105203004D01*
X134147580Y-105107766D01*
X134147580Y-104869671D01*
X134195200Y-104774433D01*
X134242819Y-104726814D01*
X134338057Y-104679195D01*
X134433295Y-104679195D01*
X134576152Y-104726814D01*
X135147580Y-105298242D01*
X135147580Y-104679195D01*
%TO.C,R33*%
X135223780Y-102067357D02*
X134747590Y-102400690D01*
X135223780Y-102638785D02*
X134223780Y-102638785D01*
X134223780Y-102257833D01*
X134271400Y-102162595D01*
X134319019Y-102114976D01*
X134414257Y-102067357D01*
X134557114Y-102067357D01*
X134652352Y-102114976D01*
X134699971Y-102162595D01*
X134747590Y-102257833D01*
X134747590Y-102638785D01*
X134223780Y-101734023D02*
X134223780Y-101114976D01*
X134604733Y-101448309D01*
X134604733Y-101305452D01*
X134652352Y-101210214D01*
X134699971Y-101162595D01*
X134795209Y-101114976D01*
X135033304Y-101114976D01*
X135128542Y-101162595D01*
X135176161Y-101210214D01*
X135223780Y-101305452D01*
X135223780Y-101591166D01*
X135176161Y-101686404D01*
X135128542Y-101734023D01*
X134223780Y-100781642D02*
X134223780Y-100162595D01*
X134604733Y-100495928D01*
X134604733Y-100353071D01*
X134652352Y-100257833D01*
X134699971Y-100210214D01*
X134795209Y-100162595D01*
X135033304Y-100162595D01*
X135128542Y-100210214D01*
X135176161Y-100257833D01*
X135223780Y-100353071D01*
X135223780Y-100638785D01*
X135176161Y-100734023D01*
X135128542Y-100781642D01*
%TO.C,R34*%
X148783042Y-47925980D02*
X148449709Y-47449790D01*
X148211614Y-47925980D02*
X148211614Y-46925980D01*
X148592566Y-46925980D01*
X148687804Y-46973600D01*
X148735423Y-47021219D01*
X148783042Y-47116457D01*
X148783042Y-47259314D01*
X148735423Y-47354552D01*
X148687804Y-47402171D01*
X148592566Y-47449790D01*
X148211614Y-47449790D01*
X149116376Y-46925980D02*
X149735423Y-46925980D01*
X149402090Y-47306933D01*
X149544947Y-47306933D01*
X149640185Y-47354552D01*
X149687804Y-47402171D01*
X149735423Y-47497409D01*
X149735423Y-47735504D01*
X149687804Y-47830742D01*
X149640185Y-47878361D01*
X149544947Y-47925980D01*
X149259233Y-47925980D01*
X149163995Y-47878361D01*
X149116376Y-47830742D01*
X150592566Y-47259314D02*
X150592566Y-47925980D01*
X150354471Y-46878361D02*
X150116376Y-47592647D01*
X150735423Y-47592647D01*
%TO.C,R35*%
X159656542Y-104515180D02*
X159323209Y-104038990D01*
X159085114Y-104515180D02*
X159085114Y-103515180D01*
X159466066Y-103515180D01*
X159561304Y-103562800D01*
X159608923Y-103610419D01*
X159656542Y-103705657D01*
X159656542Y-103848514D01*
X159608923Y-103943752D01*
X159561304Y-103991371D01*
X159466066Y-104038990D01*
X159085114Y-104038990D01*
X159989876Y-103515180D02*
X160608923Y-103515180D01*
X160275590Y-103896133D01*
X160418447Y-103896133D01*
X160513685Y-103943752D01*
X160561304Y-103991371D01*
X160608923Y-104086609D01*
X160608923Y-104324704D01*
X160561304Y-104419942D01*
X160513685Y-104467561D01*
X160418447Y-104515180D01*
X160132733Y-104515180D01*
X160037495Y-104467561D01*
X159989876Y-104419942D01*
X161513685Y-103515180D02*
X161037495Y-103515180D01*
X160989876Y-103991371D01*
X161037495Y-103943752D01*
X161132733Y-103896133D01*
X161370828Y-103896133D01*
X161466066Y-103943752D01*
X161513685Y-103991371D01*
X161561304Y-104086609D01*
X161561304Y-104324704D01*
X161513685Y-104419942D01*
X161466066Y-104467561D01*
X161370828Y-104515180D01*
X161132733Y-104515180D01*
X161037495Y-104467561D01*
X160989876Y-104419942D01*
%TO.C,R36*%
X153539180Y-48519557D02*
X153062990Y-48852890D01*
X153539180Y-49090985D02*
X152539180Y-49090985D01*
X152539180Y-48710033D01*
X152586800Y-48614795D01*
X152634419Y-48567176D01*
X152729657Y-48519557D01*
X152872514Y-48519557D01*
X152967752Y-48567176D01*
X153015371Y-48614795D01*
X153062990Y-48710033D01*
X153062990Y-49090985D01*
X152539180Y-48186223D02*
X152539180Y-47567176D01*
X152920133Y-47900509D01*
X152920133Y-47757652D01*
X152967752Y-47662414D01*
X153015371Y-47614795D01*
X153110609Y-47567176D01*
X153348704Y-47567176D01*
X153443942Y-47614795D01*
X153491561Y-47662414D01*
X153539180Y-47757652D01*
X153539180Y-48043366D01*
X153491561Y-48138604D01*
X153443942Y-48186223D01*
X152539180Y-46710033D02*
X152539180Y-46900509D01*
X152586800Y-46995747D01*
X152634419Y-47043366D01*
X152777276Y-47138604D01*
X152967752Y-47186223D01*
X153348704Y-47186223D01*
X153443942Y-47138604D01*
X153491561Y-47090985D01*
X153539180Y-46995747D01*
X153539180Y-46805271D01*
X153491561Y-46710033D01*
X153443942Y-46662414D01*
X153348704Y-46614795D01*
X153110609Y-46614795D01*
X153015371Y-46662414D01*
X152967752Y-46710033D01*
X152920133Y-46805271D01*
X152920133Y-46995747D01*
X152967752Y-47090985D01*
X153015371Y-47138604D01*
X153110609Y-47186223D01*
%TO.C,R37*%
X136819642Y-46173380D02*
X136486309Y-45697190D01*
X136248214Y-46173380D02*
X136248214Y-45173380D01*
X136629166Y-45173380D01*
X136724404Y-45221000D01*
X136772023Y-45268619D01*
X136819642Y-45363857D01*
X136819642Y-45506714D01*
X136772023Y-45601952D01*
X136724404Y-45649571D01*
X136629166Y-45697190D01*
X136248214Y-45697190D01*
X137152976Y-45173380D02*
X137772023Y-45173380D01*
X137438690Y-45554333D01*
X137581547Y-45554333D01*
X137676785Y-45601952D01*
X137724404Y-45649571D01*
X137772023Y-45744809D01*
X137772023Y-45982904D01*
X137724404Y-46078142D01*
X137676785Y-46125761D01*
X137581547Y-46173380D01*
X137295833Y-46173380D01*
X137200595Y-46125761D01*
X137152976Y-46078142D01*
X138105357Y-45173380D02*
X138772023Y-45173380D01*
X138343452Y-46173380D01*
%TO.C,R38*%
X145055580Y-48367157D02*
X144579390Y-48700490D01*
X145055580Y-48938585D02*
X144055580Y-48938585D01*
X144055580Y-48557633D01*
X144103200Y-48462395D01*
X144150819Y-48414776D01*
X144246057Y-48367157D01*
X144388914Y-48367157D01*
X144484152Y-48414776D01*
X144531771Y-48462395D01*
X144579390Y-48557633D01*
X144579390Y-48938585D01*
X144055580Y-48033823D02*
X144055580Y-47414776D01*
X144436533Y-47748109D01*
X144436533Y-47605252D01*
X144484152Y-47510014D01*
X144531771Y-47462395D01*
X144627009Y-47414776D01*
X144865104Y-47414776D01*
X144960342Y-47462395D01*
X145007961Y-47510014D01*
X145055580Y-47605252D01*
X145055580Y-47890966D01*
X145007961Y-47986204D01*
X144960342Y-48033823D01*
X144484152Y-46843347D02*
X144436533Y-46938585D01*
X144388914Y-46986204D01*
X144293676Y-47033823D01*
X144246057Y-47033823D01*
X144150819Y-46986204D01*
X144103200Y-46938585D01*
X144055580Y-46843347D01*
X144055580Y-46652871D01*
X144103200Y-46557633D01*
X144150819Y-46510014D01*
X144246057Y-46462395D01*
X144293676Y-46462395D01*
X144388914Y-46510014D01*
X144436533Y-46557633D01*
X144484152Y-46652871D01*
X144484152Y-46843347D01*
X144531771Y-46938585D01*
X144579390Y-46986204D01*
X144674628Y-47033823D01*
X144865104Y-47033823D01*
X144960342Y-46986204D01*
X145007961Y-46938585D01*
X145055580Y-46843347D01*
X145055580Y-46652871D01*
X145007961Y-46557633D01*
X144960342Y-46510014D01*
X144865104Y-46462395D01*
X144674628Y-46462395D01*
X144579390Y-46510014D01*
X144531771Y-46557633D01*
X144484152Y-46652871D01*
%TO.C,R39*%
X144445980Y-99471957D02*
X143969790Y-99805290D01*
X144445980Y-100043385D02*
X143445980Y-100043385D01*
X143445980Y-99662433D01*
X143493600Y-99567195D01*
X143541219Y-99519576D01*
X143636457Y-99471957D01*
X143779314Y-99471957D01*
X143874552Y-99519576D01*
X143922171Y-99567195D01*
X143969790Y-99662433D01*
X143969790Y-100043385D01*
X143445980Y-99138623D02*
X143445980Y-98519576D01*
X143826933Y-98852909D01*
X143826933Y-98710052D01*
X143874552Y-98614814D01*
X143922171Y-98567195D01*
X144017409Y-98519576D01*
X144255504Y-98519576D01*
X144350742Y-98567195D01*
X144398361Y-98614814D01*
X144445980Y-98710052D01*
X144445980Y-98995766D01*
X144398361Y-99091004D01*
X144350742Y-99138623D01*
X144445980Y-98043385D02*
X144445980Y-97852909D01*
X144398361Y-97757671D01*
X144350742Y-97710052D01*
X144207885Y-97614814D01*
X144017409Y-97567195D01*
X143636457Y-97567195D01*
X143541219Y-97614814D01*
X143493600Y-97662433D01*
X143445980Y-97757671D01*
X143445980Y-97948147D01*
X143493600Y-98043385D01*
X143541219Y-98091004D01*
X143636457Y-98138623D01*
X143874552Y-98138623D01*
X143969790Y-98091004D01*
X144017409Y-98043385D01*
X144065028Y-97948147D01*
X144065028Y-97757671D01*
X144017409Y-97662433D01*
X143969790Y-97614814D01*
X143874552Y-97567195D01*
%TO.C,R40*%
X144668242Y-76244980D02*
X144334909Y-75768790D01*
X144096814Y-76244980D02*
X144096814Y-75244980D01*
X144477766Y-75244980D01*
X144573004Y-75292600D01*
X144620623Y-75340219D01*
X144668242Y-75435457D01*
X144668242Y-75578314D01*
X144620623Y-75673552D01*
X144573004Y-75721171D01*
X144477766Y-75768790D01*
X144096814Y-75768790D01*
X145525385Y-75578314D02*
X145525385Y-76244980D01*
X145287290Y-75197361D02*
X145049195Y-75911647D01*
X145668242Y-75911647D01*
X146239671Y-75244980D02*
X146334909Y-75244980D01*
X146430147Y-75292600D01*
X146477766Y-75340219D01*
X146525385Y-75435457D01*
X146573004Y-75625933D01*
X146573004Y-75864028D01*
X146525385Y-76054504D01*
X146477766Y-76149742D01*
X146430147Y-76197361D01*
X146334909Y-76244980D01*
X146239671Y-76244980D01*
X146144433Y-76197361D01*
X146096814Y-76149742D01*
X146049195Y-76054504D01*
X146001576Y-75864028D01*
X146001576Y-75625933D01*
X146049195Y-75435457D01*
X146096814Y-75340219D01*
X146144433Y-75292600D01*
X146239671Y-75244980D01*
%TO.C,R41*%
X136337042Y-118791980D02*
X136003709Y-118315790D01*
X135765614Y-118791980D02*
X135765614Y-117791980D01*
X136146566Y-117791980D01*
X136241804Y-117839600D01*
X136289423Y-117887219D01*
X136337042Y-117982457D01*
X136337042Y-118125314D01*
X136289423Y-118220552D01*
X136241804Y-118268171D01*
X136146566Y-118315790D01*
X135765614Y-118315790D01*
X137194185Y-118125314D02*
X137194185Y-118791980D01*
X136956090Y-117744361D02*
X136717995Y-118458647D01*
X137337042Y-118458647D01*
X138241804Y-118791980D02*
X137670376Y-118791980D01*
X137956090Y-118791980D02*
X137956090Y-117791980D01*
X137860852Y-117934838D01*
X137765614Y-118030076D01*
X137670376Y-118077695D01*
%TO.C,R42*%
X130450580Y-123959857D02*
X129974390Y-124293190D01*
X130450580Y-124531285D02*
X129450580Y-124531285D01*
X129450580Y-124150333D01*
X129498200Y-124055095D01*
X129545819Y-124007476D01*
X129641057Y-123959857D01*
X129783914Y-123959857D01*
X129879152Y-124007476D01*
X129926771Y-124055095D01*
X129974390Y-124150333D01*
X129974390Y-124531285D01*
X129783914Y-123102714D02*
X130450580Y-123102714D01*
X129402961Y-123340809D02*
X130117247Y-123578904D01*
X130117247Y-122959857D01*
X129545819Y-122626523D02*
X129498200Y-122578904D01*
X129450580Y-122483666D01*
X129450580Y-122245571D01*
X129498200Y-122150333D01*
X129545819Y-122102714D01*
X129641057Y-122055095D01*
X129736295Y-122055095D01*
X129879152Y-122102714D01*
X130450580Y-122674142D01*
X130450580Y-122055095D01*
%TO.C,R43*%
X130450580Y-119817357D02*
X129974390Y-120150690D01*
X130450580Y-120388785D02*
X129450580Y-120388785D01*
X129450580Y-120007833D01*
X129498200Y-119912595D01*
X129545819Y-119864976D01*
X129641057Y-119817357D01*
X129783914Y-119817357D01*
X129879152Y-119864976D01*
X129926771Y-119912595D01*
X129974390Y-120007833D01*
X129974390Y-120388785D01*
X129783914Y-118960214D02*
X130450580Y-118960214D01*
X129402961Y-119198309D02*
X130117247Y-119436404D01*
X130117247Y-118817357D01*
X129450580Y-118531642D02*
X129450580Y-117912595D01*
X129831533Y-118245928D01*
X129831533Y-118103071D01*
X129879152Y-118007833D01*
X129926771Y-117960214D01*
X130022009Y-117912595D01*
X130260104Y-117912595D01*
X130355342Y-117960214D01*
X130402961Y-118007833D01*
X130450580Y-118103071D01*
X130450580Y-118388785D01*
X130402961Y-118484023D01*
X130355342Y-118531642D01*
%TO.C,R44*%
X129967980Y-56520557D02*
X129491790Y-56853890D01*
X129967980Y-57091985D02*
X128967980Y-57091985D01*
X128967980Y-56711033D01*
X129015600Y-56615795D01*
X129063219Y-56568176D01*
X129158457Y-56520557D01*
X129301314Y-56520557D01*
X129396552Y-56568176D01*
X129444171Y-56615795D01*
X129491790Y-56711033D01*
X129491790Y-57091985D01*
X129301314Y-55663414D02*
X129967980Y-55663414D01*
X128920361Y-55901509D02*
X129634647Y-56139604D01*
X129634647Y-55520557D01*
X129301314Y-54711033D02*
X129967980Y-54711033D01*
X128920361Y-54949128D02*
X129634647Y-55187223D01*
X129634647Y-54568176D01*
%TO.C,R45*%
X123770380Y-48394857D02*
X123294190Y-48728190D01*
X123770380Y-48966285D02*
X122770380Y-48966285D01*
X122770380Y-48585333D01*
X122818000Y-48490095D01*
X122865619Y-48442476D01*
X122960857Y-48394857D01*
X123103714Y-48394857D01*
X123198952Y-48442476D01*
X123246571Y-48490095D01*
X123294190Y-48585333D01*
X123294190Y-48966285D01*
X123103714Y-47537714D02*
X123770380Y-47537714D01*
X122722761Y-47775809D02*
X123437047Y-48013904D01*
X123437047Y-47394857D01*
X122770380Y-46537714D02*
X122770380Y-47013904D01*
X123246571Y-47061523D01*
X123198952Y-47013904D01*
X123151333Y-46918666D01*
X123151333Y-46680571D01*
X123198952Y-46585333D01*
X123246571Y-46537714D01*
X123341809Y-46490095D01*
X123579904Y-46490095D01*
X123675142Y-46537714D01*
X123722761Y-46585333D01*
X123770380Y-46680571D01*
X123770380Y-46918666D01*
X123722761Y-47013904D01*
X123675142Y-47061523D01*
%TO.C,R47*%
X151200380Y-76692757D02*
X150724190Y-77026090D01*
X151200380Y-77264185D02*
X150200380Y-77264185D01*
X150200380Y-76883233D01*
X150248000Y-76787995D01*
X150295619Y-76740376D01*
X150390857Y-76692757D01*
X150533714Y-76692757D01*
X150628952Y-76740376D01*
X150676571Y-76787995D01*
X150724190Y-76883233D01*
X150724190Y-77264185D01*
X150533714Y-75835614D02*
X151200380Y-75835614D01*
X150152761Y-76073709D02*
X150867047Y-76311804D01*
X150867047Y-75692757D01*
X150200380Y-75407042D02*
X150200380Y-74740376D01*
X151200380Y-75168947D01*
%TO.C,R48*%
X163267380Y-88071957D02*
X162791190Y-88405290D01*
X163267380Y-88643385D02*
X162267380Y-88643385D01*
X162267380Y-88262433D01*
X162315000Y-88167195D01*
X162362619Y-88119576D01*
X162457857Y-88071957D01*
X162600714Y-88071957D01*
X162695952Y-88119576D01*
X162743571Y-88167195D01*
X162791190Y-88262433D01*
X162791190Y-88643385D01*
X162600714Y-87214814D02*
X163267380Y-87214814D01*
X162219761Y-87452909D02*
X162934047Y-87691004D01*
X162934047Y-87071957D01*
X162695952Y-86548147D02*
X162648333Y-86643385D01*
X162600714Y-86691004D01*
X162505476Y-86738623D01*
X162457857Y-86738623D01*
X162362619Y-86691004D01*
X162315000Y-86643385D01*
X162267380Y-86548147D01*
X162267380Y-86357671D01*
X162315000Y-86262433D01*
X162362619Y-86214814D01*
X162457857Y-86167195D01*
X162505476Y-86167195D01*
X162600714Y-86214814D01*
X162648333Y-86262433D01*
X162695952Y-86357671D01*
X162695952Y-86548147D01*
X162743571Y-86643385D01*
X162791190Y-86691004D01*
X162886428Y-86738623D01*
X163076904Y-86738623D01*
X163172142Y-86691004D01*
X163219761Y-86643385D01*
X163267380Y-86548147D01*
X163267380Y-86357671D01*
X163219761Y-86262433D01*
X163172142Y-86214814D01*
X163076904Y-86167195D01*
X162886428Y-86167195D01*
X162791190Y-86214814D01*
X162743571Y-86262433D01*
X162695952Y-86357671D01*
%TO.C,R49*%
X146273042Y-114296180D02*
X145939709Y-113819990D01*
X145701614Y-114296180D02*
X145701614Y-113296180D01*
X146082566Y-113296180D01*
X146177804Y-113343800D01*
X146225423Y-113391419D01*
X146273042Y-113486657D01*
X146273042Y-113629514D01*
X146225423Y-113724752D01*
X146177804Y-113772371D01*
X146082566Y-113819990D01*
X145701614Y-113819990D01*
X147130185Y-113629514D02*
X147130185Y-114296180D01*
X146892090Y-113248561D02*
X146653995Y-113962847D01*
X147273042Y-113962847D01*
X147701614Y-114296180D02*
X147892090Y-114296180D01*
X147987328Y-114248561D01*
X148034947Y-114200942D01*
X148130185Y-114058085D01*
X148177804Y-113867609D01*
X148177804Y-113486657D01*
X148130185Y-113391419D01*
X148082566Y-113343800D01*
X147987328Y-113296180D01*
X147796852Y-113296180D01*
X147701614Y-113343800D01*
X147653995Y-113391419D01*
X147606376Y-113486657D01*
X147606376Y-113724752D01*
X147653995Y-113819990D01*
X147701614Y-113867609D01*
X147796852Y-113915228D01*
X147987328Y-113915228D01*
X148082566Y-113867609D01*
X148130185Y-113819990D01*
X148177804Y-113724752D01*
%TO.C,RG1*%
X114036780Y-65344466D02*
X113560590Y-65677800D01*
X114036780Y-65915895D02*
X113036780Y-65915895D01*
X113036780Y-65534942D01*
X113084400Y-65439704D01*
X113132019Y-65392085D01*
X113227257Y-65344466D01*
X113370114Y-65344466D01*
X113465352Y-65392085D01*
X113512971Y-65439704D01*
X113560590Y-65534942D01*
X113560590Y-65915895D01*
X113084400Y-64392085D02*
X113036780Y-64487323D01*
X113036780Y-64630180D01*
X113084400Y-64773038D01*
X113179638Y-64868276D01*
X113274876Y-64915895D01*
X113465352Y-64963514D01*
X113608209Y-64963514D01*
X113798685Y-64915895D01*
X113893923Y-64868276D01*
X113989161Y-64773038D01*
X114036780Y-64630180D01*
X114036780Y-64534942D01*
X113989161Y-64392085D01*
X113941542Y-64344466D01*
X113608209Y-64344466D01*
X113608209Y-64534942D01*
X114036780Y-63392085D02*
X114036780Y-63963514D01*
X114036780Y-63677800D02*
X113036780Y-63677800D01*
X113179638Y-63773038D01*
X113274876Y-63868276D01*
X113322495Y-63963514D01*
%TO.C,SW1*%
X156509066Y-118359561D02*
X156651923Y-118407180D01*
X156890019Y-118407180D01*
X156985257Y-118359561D01*
X157032876Y-118311942D01*
X157080495Y-118216704D01*
X157080495Y-118121466D01*
X157032876Y-118026228D01*
X156985257Y-117978609D01*
X156890019Y-117930990D01*
X156699542Y-117883371D01*
X156604304Y-117835752D01*
X156556685Y-117788133D01*
X156509066Y-117692895D01*
X156509066Y-117597657D01*
X156556685Y-117502419D01*
X156604304Y-117454800D01*
X156699542Y-117407180D01*
X156937638Y-117407180D01*
X157080495Y-117454800D01*
X157413828Y-117407180D02*
X157651923Y-118407180D01*
X157842400Y-117692895D01*
X158032876Y-118407180D01*
X158270971Y-117407180D01*
X159175733Y-118407180D02*
X158604304Y-118407180D01*
X158890019Y-118407180D02*
X158890019Y-117407180D01*
X158794780Y-117550038D01*
X158699542Y-117645276D01*
X158604304Y-117692895D01*
%TO.C,TP3*%
X70238095Y-83252380D02*
X70809523Y-83252380D01*
X70523809Y-84252380D02*
X70523809Y-83252380D01*
X71142857Y-84252380D02*
X71142857Y-83252380D01*
X71523809Y-83252380D01*
X71619047Y-83300000D01*
X71666666Y-83347619D01*
X71714285Y-83442857D01*
X71714285Y-83585714D01*
X71666666Y-83680952D01*
X71619047Y-83728571D01*
X71523809Y-83776190D01*
X71142857Y-83776190D01*
X72047619Y-83252380D02*
X72666666Y-83252380D01*
X72333333Y-83633333D01*
X72476190Y-83633333D01*
X72571428Y-83680952D01*
X72619047Y-83728571D01*
X72666666Y-83823809D01*
X72666666Y-84061904D01*
X72619047Y-84157142D01*
X72571428Y-84204761D01*
X72476190Y-84252380D01*
X72190476Y-84252380D01*
X72095238Y-84204761D01*
X72047619Y-84157142D01*
%TO.C,TR1*%
X163338395Y-104257980D02*
X163909823Y-104257980D01*
X163624109Y-105257980D02*
X163624109Y-104257980D01*
X164814585Y-105257980D02*
X164481252Y-104781790D01*
X164243157Y-105257980D02*
X164243157Y-104257980D01*
X164624109Y-104257980D01*
X164719347Y-104305600D01*
X164766966Y-104353219D01*
X164814585Y-104448457D01*
X164814585Y-104591314D01*
X164766966Y-104686552D01*
X164719347Y-104734171D01*
X164624109Y-104781790D01*
X164243157Y-104781790D01*
X165766966Y-105257980D02*
X165195538Y-105257980D01*
X165481252Y-105257980D02*
X165481252Y-104257980D01*
X165386014Y-104400838D01*
X165290776Y-104496076D01*
X165195538Y-104543695D01*
%TO.C,TR2*%
X166909380Y-70878504D02*
X166909380Y-70307076D01*
X167909380Y-70592790D02*
X166909380Y-70592790D01*
X167909380Y-69402314D02*
X167433190Y-69735647D01*
X167909380Y-69973742D02*
X166909380Y-69973742D01*
X166909380Y-69592790D01*
X166957000Y-69497552D01*
X167004619Y-69449933D01*
X167099857Y-69402314D01*
X167242714Y-69402314D01*
X167337952Y-69449933D01*
X167385571Y-69497552D01*
X167433190Y-69592790D01*
X167433190Y-69973742D01*
X167004619Y-69021361D02*
X166957000Y-68973742D01*
X166909380Y-68878504D01*
X166909380Y-68640409D01*
X166957000Y-68545171D01*
X167004619Y-68497552D01*
X167099857Y-68449933D01*
X167195095Y-68449933D01*
X167337952Y-68497552D01*
X167909380Y-69068980D01*
X167909380Y-68449933D01*
%TO.C,TR3*%
X151400380Y-72462904D02*
X151400380Y-71891476D01*
X152400380Y-72177190D02*
X151400380Y-72177190D01*
X152400380Y-70986714D02*
X151924190Y-71320047D01*
X152400380Y-71558142D02*
X151400380Y-71558142D01*
X151400380Y-71177190D01*
X151448000Y-71081952D01*
X151495619Y-71034333D01*
X151590857Y-70986714D01*
X151733714Y-70986714D01*
X151828952Y-71034333D01*
X151876571Y-71081952D01*
X151924190Y-71177190D01*
X151924190Y-71558142D01*
X151400380Y-70653380D02*
X151400380Y-70034333D01*
X151781333Y-70367666D01*
X151781333Y-70224809D01*
X151828952Y-70129571D01*
X151876571Y-70081952D01*
X151971809Y-70034333D01*
X152209904Y-70034333D01*
X152305142Y-70081952D01*
X152352761Y-70129571D01*
X152400380Y-70224809D01*
X152400380Y-70510523D01*
X152352761Y-70605761D01*
X152305142Y-70653380D01*
%TO.C,TR4*%
X152940780Y-54850104D02*
X152940780Y-54278676D01*
X153940780Y-54564390D02*
X152940780Y-54564390D01*
X153940780Y-53373914D02*
X153464590Y-53707247D01*
X153940780Y-53945342D02*
X152940780Y-53945342D01*
X152940780Y-53564390D01*
X152988400Y-53469152D01*
X153036019Y-53421533D01*
X153131257Y-53373914D01*
X153274114Y-53373914D01*
X153369352Y-53421533D01*
X153416971Y-53469152D01*
X153464590Y-53564390D01*
X153464590Y-53945342D01*
X153274114Y-52516771D02*
X153940780Y-52516771D01*
X152893161Y-52754866D02*
X153607447Y-52992961D01*
X153607447Y-52373914D01*
%TO.C,TR5*%
X143261980Y-116332204D02*
X143261980Y-115760776D01*
X144261980Y-116046490D02*
X143261980Y-116046490D01*
X144261980Y-114856014D02*
X143785790Y-115189347D01*
X144261980Y-115427442D02*
X143261980Y-115427442D01*
X143261980Y-115046490D01*
X143309600Y-114951252D01*
X143357219Y-114903633D01*
X143452457Y-114856014D01*
X143595314Y-114856014D01*
X143690552Y-114903633D01*
X143738171Y-114951252D01*
X143785790Y-115046490D01*
X143785790Y-115427442D01*
X143261980Y-113951252D02*
X143261980Y-114427442D01*
X143738171Y-114475061D01*
X143690552Y-114427442D01*
X143642933Y-114332204D01*
X143642933Y-114094109D01*
X143690552Y-113998871D01*
X143738171Y-113951252D01*
X143833409Y-113903633D01*
X144071504Y-113903633D01*
X144166742Y-113951252D01*
X144214361Y-113998871D01*
X144261980Y-114094109D01*
X144261980Y-114332204D01*
X144214361Y-114427442D01*
X144166742Y-114475061D01*
%TO.C,TR6*%
X100116780Y-112082104D02*
X100116780Y-111510676D01*
X101116780Y-111796390D02*
X100116780Y-111796390D01*
X101116780Y-110605914D02*
X100640590Y-110939247D01*
X101116780Y-111177342D02*
X100116780Y-111177342D01*
X100116780Y-110796390D01*
X100164400Y-110701152D01*
X100212019Y-110653533D01*
X100307257Y-110605914D01*
X100450114Y-110605914D01*
X100545352Y-110653533D01*
X100592971Y-110701152D01*
X100640590Y-110796390D01*
X100640590Y-111177342D01*
X100116780Y-109748771D02*
X100116780Y-109939247D01*
X100164400Y-110034485D01*
X100212019Y-110082104D01*
X100354876Y-110177342D01*
X100545352Y-110224961D01*
X100926304Y-110224961D01*
X101021542Y-110177342D01*
X101069161Y-110129723D01*
X101116780Y-110034485D01*
X101116780Y-109844009D01*
X101069161Y-109748771D01*
X101021542Y-109701152D01*
X100926304Y-109653533D01*
X100688209Y-109653533D01*
X100592971Y-109701152D01*
X100545352Y-109748771D01*
X100497733Y-109844009D01*
X100497733Y-110034485D01*
X100545352Y-110129723D01*
X100592971Y-110177342D01*
X100688209Y-110224961D01*
%TO.C,TR7*%
X72726180Y-112132904D02*
X72726180Y-111561476D01*
X73726180Y-111847190D02*
X72726180Y-111847190D01*
X73726180Y-110656714D02*
X73249990Y-110990047D01*
X73726180Y-111228142D02*
X72726180Y-111228142D01*
X72726180Y-110847190D01*
X72773800Y-110751952D01*
X72821419Y-110704333D01*
X72916657Y-110656714D01*
X73059514Y-110656714D01*
X73154752Y-110704333D01*
X73202371Y-110751952D01*
X73249990Y-110847190D01*
X73249990Y-111228142D01*
X72726180Y-110323380D02*
X72726180Y-109656714D01*
X73726180Y-110085285D01*
%TO.C,TR8*%
X100319980Y-65574704D02*
X100319980Y-65003276D01*
X101319980Y-65288990D02*
X100319980Y-65288990D01*
X101319980Y-64098514D02*
X100843790Y-64431847D01*
X101319980Y-64669942D02*
X100319980Y-64669942D01*
X100319980Y-64288990D01*
X100367600Y-64193752D01*
X100415219Y-64146133D01*
X100510457Y-64098514D01*
X100653314Y-64098514D01*
X100748552Y-64146133D01*
X100796171Y-64193752D01*
X100843790Y-64288990D01*
X100843790Y-64669942D01*
X100748552Y-63527085D02*
X100700933Y-63622323D01*
X100653314Y-63669942D01*
X100558076Y-63717561D01*
X100510457Y-63717561D01*
X100415219Y-63669942D01*
X100367600Y-63622323D01*
X100319980Y-63527085D01*
X100319980Y-63336609D01*
X100367600Y-63241371D01*
X100415219Y-63193752D01*
X100510457Y-63146133D01*
X100558076Y-63146133D01*
X100653314Y-63193752D01*
X100700933Y-63241371D01*
X100748552Y-63336609D01*
X100748552Y-63527085D01*
X100796171Y-63622323D01*
X100843790Y-63669942D01*
X100939028Y-63717561D01*
X101129504Y-63717561D01*
X101224742Y-63669942D01*
X101272361Y-63622323D01*
X101319980Y-63527085D01*
X101319980Y-63336609D01*
X101272361Y-63241371D01*
X101224742Y-63193752D01*
X101129504Y-63146133D01*
X100939028Y-63146133D01*
X100843790Y-63193752D01*
X100796171Y-63241371D01*
X100748552Y-63336609D01*
%TO.C,TR9*%
X72726180Y-65269904D02*
X72726180Y-64698476D01*
X73726180Y-64984190D02*
X72726180Y-64984190D01*
X73726180Y-63793714D02*
X73249990Y-64127047D01*
X73726180Y-64365142D02*
X72726180Y-64365142D01*
X72726180Y-63984190D01*
X72773800Y-63888952D01*
X72821419Y-63841333D01*
X72916657Y-63793714D01*
X73059514Y-63793714D01*
X73154752Y-63841333D01*
X73202371Y-63888952D01*
X73249990Y-63984190D01*
X73249990Y-64365142D01*
X73726180Y-63317523D02*
X73726180Y-63127047D01*
X73678561Y-63031809D01*
X73630942Y-62984190D01*
X73488085Y-62888952D01*
X73297609Y-62841333D01*
X72916657Y-62841333D01*
X72821419Y-62888952D01*
X72773800Y-62936571D01*
X72726180Y-63031809D01*
X72726180Y-63222285D01*
X72773800Y-63317523D01*
X72821419Y-63365142D01*
X72916657Y-63412761D01*
X73154752Y-63412761D01*
X73249990Y-63365142D01*
X73297609Y-63317523D01*
X73345228Y-63222285D01*
X73345228Y-63031809D01*
X73297609Y-62936571D01*
X73249990Y-62888952D01*
X73154752Y-62841333D01*
%TO.C,TR10*%
X159909380Y-62271095D02*
X159909380Y-61699666D01*
X160909380Y-61985380D02*
X159909380Y-61985380D01*
X160909380Y-60794904D02*
X160433190Y-61128238D01*
X160909380Y-61366333D02*
X159909380Y-61366333D01*
X159909380Y-60985380D01*
X159957000Y-60890142D01*
X160004619Y-60842523D01*
X160099857Y-60794904D01*
X160242714Y-60794904D01*
X160337952Y-60842523D01*
X160385571Y-60890142D01*
X160433190Y-60985380D01*
X160433190Y-61366333D01*
X160909380Y-59842523D02*
X160909380Y-60413952D01*
X160909380Y-60128238D02*
X159909380Y-60128238D01*
X160052238Y-60223476D01*
X160147476Y-60318714D01*
X160195095Y-60413952D01*
X159909380Y-59223476D02*
X159909380Y-59128238D01*
X159957000Y-59033000D01*
X160004619Y-58985380D01*
X160099857Y-58937761D01*
X160290333Y-58890142D01*
X160528428Y-58890142D01*
X160718904Y-58937761D01*
X160814142Y-58985380D01*
X160861761Y-59033000D01*
X160909380Y-59128238D01*
X160909380Y-59223476D01*
X160861761Y-59318714D01*
X160814142Y-59366333D01*
X160718904Y-59413952D01*
X160528428Y-59461571D01*
X160290333Y-59461571D01*
X160099857Y-59413952D01*
X160004619Y-59366333D01*
X159957000Y-59318714D01*
X159909380Y-59223476D01*
%TO.C,TR11*%
X153460704Y-68281180D02*
X154032133Y-68281180D01*
X153746419Y-69281180D02*
X153746419Y-68281180D01*
X154936895Y-69281180D02*
X154603561Y-68804990D01*
X154365466Y-69281180D02*
X154365466Y-68281180D01*
X154746419Y-68281180D01*
X154841657Y-68328800D01*
X154889276Y-68376419D01*
X154936895Y-68471657D01*
X154936895Y-68614514D01*
X154889276Y-68709752D01*
X154841657Y-68757371D01*
X154746419Y-68804990D01*
X154365466Y-68804990D01*
X155889276Y-69281180D02*
X155317847Y-69281180D01*
X155603561Y-69281180D02*
X155603561Y-68281180D01*
X155508323Y-68424038D01*
X155413085Y-68519276D01*
X155317847Y-68566895D01*
X156841657Y-69281180D02*
X156270228Y-69281180D01*
X156555942Y-69281180D02*
X156555942Y-68281180D01*
X156460704Y-68424038D01*
X156365466Y-68519276D01*
X156270228Y-68566895D01*
%TO.C,TR12*%
X151501980Y-57343495D02*
X151501980Y-56772066D01*
X152501980Y-57057780D02*
X151501980Y-57057780D01*
X152501980Y-55867304D02*
X152025790Y-56200638D01*
X152501980Y-56438733D02*
X151501980Y-56438733D01*
X151501980Y-56057780D01*
X151549600Y-55962542D01*
X151597219Y-55914923D01*
X151692457Y-55867304D01*
X151835314Y-55867304D01*
X151930552Y-55914923D01*
X151978171Y-55962542D01*
X152025790Y-56057780D01*
X152025790Y-56438733D01*
X152501980Y-54914923D02*
X152501980Y-55486352D01*
X152501980Y-55200638D02*
X151501980Y-55200638D01*
X151644838Y-55295876D01*
X151740076Y-55391114D01*
X151787695Y-55486352D01*
X151597219Y-54533971D02*
X151549600Y-54486352D01*
X151501980Y-54391114D01*
X151501980Y-54153019D01*
X151549600Y-54057780D01*
X151597219Y-54010161D01*
X151692457Y-53962542D01*
X151787695Y-53962542D01*
X151930552Y-54010161D01*
X152501980Y-54581590D01*
X152501980Y-53962542D01*
%TO.C,TR13*%
X113925980Y-112710695D02*
X113925980Y-112139266D01*
X114925980Y-112424980D02*
X113925980Y-112424980D01*
X114925980Y-111234504D02*
X114449790Y-111567838D01*
X114925980Y-111805933D02*
X113925980Y-111805933D01*
X113925980Y-111424980D01*
X113973600Y-111329742D01*
X114021219Y-111282123D01*
X114116457Y-111234504D01*
X114259314Y-111234504D01*
X114354552Y-111282123D01*
X114402171Y-111329742D01*
X114449790Y-111424980D01*
X114449790Y-111805933D01*
X114925980Y-110282123D02*
X114925980Y-110853552D01*
X114925980Y-110567838D02*
X113925980Y-110567838D01*
X114068838Y-110663076D01*
X114164076Y-110758314D01*
X114211695Y-110853552D01*
X113925980Y-109948790D02*
X113925980Y-109329742D01*
X114306933Y-109663076D01*
X114306933Y-109520219D01*
X114354552Y-109424980D01*
X114402171Y-109377361D01*
X114497409Y-109329742D01*
X114735504Y-109329742D01*
X114830742Y-109377361D01*
X114878361Y-109424980D01*
X114925980Y-109520219D01*
X114925980Y-109805933D01*
X114878361Y-109901171D01*
X114830742Y-109948790D01*
%TO.C,TR14*%
X121409404Y-94123380D02*
X121980833Y-94123380D01*
X121695119Y-95123380D02*
X121695119Y-94123380D01*
X122885595Y-95123380D02*
X122552261Y-94647190D01*
X122314166Y-95123380D02*
X122314166Y-94123380D01*
X122695119Y-94123380D01*
X122790357Y-94171000D01*
X122837976Y-94218619D01*
X122885595Y-94313857D01*
X122885595Y-94456714D01*
X122837976Y-94551952D01*
X122790357Y-94599571D01*
X122695119Y-94647190D01*
X122314166Y-94647190D01*
X123837976Y-95123380D02*
X123266547Y-95123380D01*
X123552261Y-95123380D02*
X123552261Y-94123380D01*
X123457023Y-94266238D01*
X123361785Y-94361476D01*
X123266547Y-94409095D01*
X124695119Y-94456714D02*
X124695119Y-95123380D01*
X124457023Y-94075761D02*
X124218928Y-94790047D01*
X124837976Y-94790047D01*
%TO.C,TR15*%
X124806580Y-99304295D02*
X124806580Y-98732866D01*
X125806580Y-99018580D02*
X124806580Y-99018580D01*
X125806580Y-97828104D02*
X125330390Y-98161438D01*
X125806580Y-98399533D02*
X124806580Y-98399533D01*
X124806580Y-98018580D01*
X124854200Y-97923342D01*
X124901819Y-97875723D01*
X124997057Y-97828104D01*
X125139914Y-97828104D01*
X125235152Y-97875723D01*
X125282771Y-97923342D01*
X125330390Y-98018580D01*
X125330390Y-98399533D01*
X125806580Y-96875723D02*
X125806580Y-97447152D01*
X125806580Y-97161438D02*
X124806580Y-97161438D01*
X124949438Y-97256676D01*
X125044676Y-97351914D01*
X125092295Y-97447152D01*
X124806580Y-95970961D02*
X124806580Y-96447152D01*
X125282771Y-96494771D01*
X125235152Y-96447152D01*
X125187533Y-96351914D01*
X125187533Y-96113819D01*
X125235152Y-96018580D01*
X125282771Y-95970961D01*
X125378009Y-95923342D01*
X125616104Y-95923342D01*
X125711342Y-95970961D01*
X125758961Y-96018580D01*
X125806580Y-96113819D01*
X125806580Y-96351914D01*
X125758961Y-96447152D01*
X125711342Y-96494771D01*
%TO.C,TR16*%
X117135780Y-93894095D02*
X117135780Y-93322666D01*
X118135780Y-93608380D02*
X117135780Y-93608380D01*
X118135780Y-92417904D02*
X117659590Y-92751238D01*
X118135780Y-92989333D02*
X117135780Y-92989333D01*
X117135780Y-92608380D01*
X117183400Y-92513142D01*
X117231019Y-92465523D01*
X117326257Y-92417904D01*
X117469114Y-92417904D01*
X117564352Y-92465523D01*
X117611971Y-92513142D01*
X117659590Y-92608380D01*
X117659590Y-92989333D01*
X118135780Y-91465523D02*
X118135780Y-92036952D01*
X118135780Y-91751238D02*
X117135780Y-91751238D01*
X117278638Y-91846476D01*
X117373876Y-91941714D01*
X117421495Y-92036952D01*
X117135780Y-90608380D02*
X117135780Y-90798857D01*
X117183400Y-90894095D01*
X117231019Y-90941714D01*
X117373876Y-91036952D01*
X117564352Y-91084571D01*
X117945304Y-91084571D01*
X118040542Y-91036952D01*
X118088161Y-90989333D01*
X118135780Y-90894095D01*
X118135780Y-90703619D01*
X118088161Y-90608380D01*
X118040542Y-90560761D01*
X117945304Y-90513142D01*
X117707209Y-90513142D01*
X117611971Y-90560761D01*
X117564352Y-90608380D01*
X117516733Y-90703619D01*
X117516733Y-90894095D01*
X117564352Y-90989333D01*
X117611971Y-91036952D01*
X117707209Y-91084571D01*
%TO.C,TR17*%
X129444380Y-55225695D02*
X129444380Y-54654266D01*
X130444380Y-54939980D02*
X129444380Y-54939980D01*
X130444380Y-53749504D02*
X129968190Y-54082838D01*
X130444380Y-54320933D02*
X129444380Y-54320933D01*
X129444380Y-53939980D01*
X129492000Y-53844742D01*
X129539619Y-53797123D01*
X129634857Y-53749504D01*
X129777714Y-53749504D01*
X129872952Y-53797123D01*
X129920571Y-53844742D01*
X129968190Y-53939980D01*
X129968190Y-54320933D01*
X130444380Y-52797123D02*
X130444380Y-53368552D01*
X130444380Y-53082838D02*
X129444380Y-53082838D01*
X129587238Y-53178076D01*
X129682476Y-53273314D01*
X129730095Y-53368552D01*
X129444380Y-52463790D02*
X129444380Y-51797123D01*
X130444380Y-52225695D01*
%TO.C,TR18*%
X95066104Y-99040580D02*
X95637533Y-99040580D01*
X95351819Y-100040580D02*
X95351819Y-99040580D01*
X96542295Y-100040580D02*
X96208961Y-99564390D01*
X95970866Y-100040580D02*
X95970866Y-99040580D01*
X96351819Y-99040580D01*
X96447057Y-99088200D01*
X96494676Y-99135819D01*
X96542295Y-99231057D01*
X96542295Y-99373914D01*
X96494676Y-99469152D01*
X96447057Y-99516771D01*
X96351819Y-99564390D01*
X95970866Y-99564390D01*
X97494676Y-100040580D02*
X96923247Y-100040580D01*
X97208961Y-100040580D02*
X97208961Y-99040580D01*
X97113723Y-99183438D01*
X97018485Y-99278676D01*
X96923247Y-99326295D01*
X98066104Y-99469152D02*
X97970866Y-99421533D01*
X97923247Y-99373914D01*
X97875628Y-99278676D01*
X97875628Y-99231057D01*
X97923247Y-99135819D01*
X97970866Y-99088200D01*
X98066104Y-99040580D01*
X98256580Y-99040580D01*
X98351819Y-99088200D01*
X98399438Y-99135819D01*
X98447057Y-99231057D01*
X98447057Y-99278676D01*
X98399438Y-99373914D01*
X98351819Y-99421533D01*
X98256580Y-99469152D01*
X98066104Y-99469152D01*
X97970866Y-99516771D01*
X97923247Y-99564390D01*
X97875628Y-99659628D01*
X97875628Y-99850104D01*
X97923247Y-99945342D01*
X97970866Y-99992961D01*
X98066104Y-100040580D01*
X98256580Y-100040580D01*
X98351819Y-99992961D01*
X98399438Y-99945342D01*
X98447057Y-99850104D01*
X98447057Y-99659628D01*
X98399438Y-99564390D01*
X98351819Y-99516771D01*
X98256580Y-99469152D01*
%TO.C,TR19*%
X95615304Y-75835380D02*
X96186733Y-75835380D01*
X95901019Y-76835380D02*
X95901019Y-75835380D01*
X97091495Y-76835380D02*
X96758161Y-76359190D01*
X96520066Y-76835380D02*
X96520066Y-75835380D01*
X96901019Y-75835380D01*
X96996257Y-75883000D01*
X97043876Y-75930619D01*
X97091495Y-76025857D01*
X97091495Y-76168714D01*
X97043876Y-76263952D01*
X96996257Y-76311571D01*
X96901019Y-76359190D01*
X96520066Y-76359190D01*
X98043876Y-76835380D02*
X97472447Y-76835380D01*
X97758161Y-76835380D02*
X97758161Y-75835380D01*
X97662923Y-75978238D01*
X97567685Y-76073476D01*
X97472447Y-76121095D01*
X98520066Y-76835380D02*
X98710542Y-76835380D01*
X98805780Y-76787761D01*
X98853400Y-76740142D01*
X98948638Y-76597285D01*
X98996257Y-76406809D01*
X98996257Y-76025857D01*
X98948638Y-75930619D01*
X98901019Y-75883000D01*
X98805780Y-75835380D01*
X98615304Y-75835380D01*
X98520066Y-75883000D01*
X98472447Y-75930619D01*
X98424828Y-76025857D01*
X98424828Y-76263952D01*
X98472447Y-76359190D01*
X98520066Y-76406809D01*
X98615304Y-76454428D01*
X98805780Y-76454428D01*
X98901019Y-76406809D01*
X98948638Y-76359190D01*
X98996257Y-76263952D01*
%TO.C,TR20*%
X121497904Y-101971980D02*
X122069333Y-101971980D01*
X121783619Y-102971980D02*
X121783619Y-101971980D01*
X122974095Y-102971980D02*
X122640761Y-102495790D01*
X122402666Y-102971980D02*
X122402666Y-101971980D01*
X122783619Y-101971980D01*
X122878857Y-102019600D01*
X122926476Y-102067219D01*
X122974095Y-102162457D01*
X122974095Y-102305314D01*
X122926476Y-102400552D01*
X122878857Y-102448171D01*
X122783619Y-102495790D01*
X122402666Y-102495790D01*
X123355047Y-102067219D02*
X123402666Y-102019600D01*
X123497904Y-101971980D01*
X123736000Y-101971980D01*
X123831238Y-102019600D01*
X123878857Y-102067219D01*
X123926476Y-102162457D01*
X123926476Y-102257695D01*
X123878857Y-102400552D01*
X123307428Y-102971980D01*
X123926476Y-102971980D01*
X124545523Y-101971980D02*
X124640761Y-101971980D01*
X124736000Y-102019600D01*
X124783619Y-102067219D01*
X124831238Y-102162457D01*
X124878857Y-102352933D01*
X124878857Y-102591028D01*
X124831238Y-102781504D01*
X124783619Y-102876742D01*
X124736000Y-102924361D01*
X124640761Y-102971980D01*
X124545523Y-102971980D01*
X124450285Y-102924361D01*
X124402666Y-102876742D01*
X124355047Y-102781504D01*
X124307428Y-102591028D01*
X124307428Y-102352933D01*
X124355047Y-102162457D01*
X124402666Y-102067219D01*
X124450285Y-102019600D01*
X124545523Y-101971980D01*
%TO.C,TR21*%
X137760580Y-122088095D02*
X137760580Y-121516666D01*
X138760580Y-121802380D02*
X137760580Y-121802380D01*
X138760580Y-120611904D02*
X138284390Y-120945238D01*
X138760580Y-121183333D02*
X137760580Y-121183333D01*
X137760580Y-120802380D01*
X137808200Y-120707142D01*
X137855819Y-120659523D01*
X137951057Y-120611904D01*
X138093914Y-120611904D01*
X138189152Y-120659523D01*
X138236771Y-120707142D01*
X138284390Y-120802380D01*
X138284390Y-121183333D01*
X137855819Y-120230952D02*
X137808200Y-120183333D01*
X137760580Y-120088095D01*
X137760580Y-119850000D01*
X137808200Y-119754761D01*
X137855819Y-119707142D01*
X137951057Y-119659523D01*
X138046295Y-119659523D01*
X138189152Y-119707142D01*
X138760580Y-120278571D01*
X138760580Y-119659523D01*
X138760580Y-118707142D02*
X138760580Y-119278571D01*
X138760580Y-118992857D02*
X137760580Y-118992857D01*
X137903438Y-119088095D01*
X137998676Y-119183333D01*
X138046295Y-119278571D01*
%TO.C,R166*%
X80636380Y-97491047D02*
X80160190Y-97824380D01*
X80636380Y-98062476D02*
X79636380Y-98062476D01*
X79636380Y-97681523D01*
X79684000Y-97586285D01*
X79731619Y-97538666D01*
X79826857Y-97491047D01*
X79969714Y-97491047D01*
X80064952Y-97538666D01*
X80112571Y-97586285D01*
X80160190Y-97681523D01*
X80160190Y-98062476D01*
X80636380Y-96538666D02*
X80636380Y-97110095D01*
X80636380Y-96824380D02*
X79636380Y-96824380D01*
X79779238Y-96919619D01*
X79874476Y-97014857D01*
X79922095Y-97110095D01*
X79636380Y-95681523D02*
X79636380Y-95872000D01*
X79684000Y-95967238D01*
X79731619Y-96014857D01*
X79874476Y-96110095D01*
X80064952Y-96157714D01*
X80445904Y-96157714D01*
X80541142Y-96110095D01*
X80588761Y-96062476D01*
X80636380Y-95967238D01*
X80636380Y-95776761D01*
X80588761Y-95681523D01*
X80541142Y-95633904D01*
X80445904Y-95586285D01*
X80207809Y-95586285D01*
X80112571Y-95633904D01*
X80064952Y-95681523D01*
X80017333Y-95776761D01*
X80017333Y-95967238D01*
X80064952Y-96062476D01*
X80112571Y-96110095D01*
X80207809Y-96157714D01*
X79636380Y-94729142D02*
X79636380Y-94919619D01*
X79684000Y-95014857D01*
X79731619Y-95062476D01*
X79874476Y-95157714D01*
X80064952Y-95205333D01*
X80445904Y-95205333D01*
X80541142Y-95157714D01*
X80588761Y-95110095D01*
X80636380Y-95014857D01*
X80636380Y-94824380D01*
X80588761Y-94729142D01*
X80541142Y-94681523D01*
X80445904Y-94633904D01*
X80207809Y-94633904D01*
X80112571Y-94681523D01*
X80064952Y-94729142D01*
X80017333Y-94824380D01*
X80017333Y-95014857D01*
X80064952Y-95110095D01*
X80112571Y-95157714D01*
X80207809Y-95205333D01*
%TO.C,R177*%
X80636380Y-87580647D02*
X80160190Y-87913980D01*
X80636380Y-88152076D02*
X79636380Y-88152076D01*
X79636380Y-87771123D01*
X79684000Y-87675885D01*
X79731619Y-87628266D01*
X79826857Y-87580647D01*
X79969714Y-87580647D01*
X80064952Y-87628266D01*
X80112571Y-87675885D01*
X80160190Y-87771123D01*
X80160190Y-88152076D01*
X80636380Y-86628266D02*
X80636380Y-87199695D01*
X80636380Y-86913980D02*
X79636380Y-86913980D01*
X79779238Y-87009219D01*
X79874476Y-87104457D01*
X79922095Y-87199695D01*
X79636380Y-86294933D02*
X79636380Y-85628266D01*
X80636380Y-86056838D01*
X79636380Y-85342552D02*
X79636380Y-84675885D01*
X80636380Y-85104457D01*
%TO.C,TP1*%
X164981095Y-132357580D02*
X165552523Y-132357580D01*
X165266809Y-133357580D02*
X165266809Y-132357580D01*
X165885857Y-133357580D02*
X165885857Y-132357580D01*
X166266809Y-132357580D01*
X166362047Y-132405200D01*
X166409666Y-132452819D01*
X166457285Y-132548057D01*
X166457285Y-132690914D01*
X166409666Y-132786152D01*
X166362047Y-132833771D01*
X166266809Y-132881390D01*
X165885857Y-132881390D01*
X167409666Y-133357580D02*
X166838238Y-133357580D01*
X167123952Y-133357580D02*
X167123952Y-132357580D01*
X167028714Y-132500438D01*
X166933476Y-132595676D01*
X166838238Y-132643295D01*
%TO.C,TP2*%
X160332895Y-132433780D02*
X160904323Y-132433780D01*
X160618609Y-133433780D02*
X160618609Y-132433780D01*
X161237657Y-133433780D02*
X161237657Y-132433780D01*
X161618609Y-132433780D01*
X161713847Y-132481400D01*
X161761466Y-132529019D01*
X161809085Y-132624257D01*
X161809085Y-132767114D01*
X161761466Y-132862352D01*
X161713847Y-132909971D01*
X161618609Y-132957590D01*
X161237657Y-132957590D01*
X162190038Y-132529019D02*
X162237657Y-132481400D01*
X162332895Y-132433780D01*
X162570990Y-132433780D01*
X162666228Y-132481400D01*
X162713847Y-132529019D01*
X162761466Y-132624257D01*
X162761466Y-132719495D01*
X162713847Y-132862352D01*
X162142419Y-133433780D01*
X162761466Y-133433780D01*
%TO.C,R1*%
X167363380Y-74156766D02*
X166887190Y-74490100D01*
X167363380Y-74728195D02*
X166363380Y-74728195D01*
X166363380Y-74347242D01*
X166411000Y-74252004D01*
X166458619Y-74204385D01*
X166553857Y-74156766D01*
X166696714Y-74156766D01*
X166791952Y-74204385D01*
X166839571Y-74252004D01*
X166887190Y-74347242D01*
X166887190Y-74728195D01*
X167363380Y-73204385D02*
X167363380Y-73775814D01*
X167363380Y-73490100D02*
X166363380Y-73490100D01*
X166506238Y-73585338D01*
X166601476Y-73680576D01*
X166649095Y-73775814D01*
%TO.C,R46*%
X165754842Y-77432180D02*
X165421509Y-76955990D01*
X165183414Y-77432180D02*
X165183414Y-76432180D01*
X165564366Y-76432180D01*
X165659604Y-76479800D01*
X165707223Y-76527419D01*
X165754842Y-76622657D01*
X165754842Y-76765514D01*
X165707223Y-76860752D01*
X165659604Y-76908371D01*
X165564366Y-76955990D01*
X165183414Y-76955990D01*
X166611985Y-76765514D02*
X166611985Y-77432180D01*
X166373890Y-76384561D02*
X166135795Y-77098847D01*
X166754842Y-77098847D01*
X167564366Y-76432180D02*
X167373890Y-76432180D01*
X167278652Y-76479800D01*
X167231033Y-76527419D01*
X167135795Y-76670276D01*
X167088176Y-76860752D01*
X167088176Y-77241704D01*
X167135795Y-77336942D01*
X167183414Y-77384561D01*
X167278652Y-77432180D01*
X167469128Y-77432180D01*
X167564366Y-77384561D01*
X167611985Y-77336942D01*
X167659604Y-77241704D01*
X167659604Y-77003609D01*
X167611985Y-76908371D01*
X167564366Y-76860752D01*
X167469128Y-76813133D01*
X167278652Y-76813133D01*
X167183414Y-76860752D01*
X167135795Y-76908371D01*
X167088176Y-77003609D01*
%TO.C,L1*%
X84528333Y-88702380D02*
X84052142Y-88702380D01*
X84052142Y-87702380D01*
X85385476Y-88702380D02*
X84814047Y-88702380D01*
X85099761Y-88702380D02*
X85099761Y-87702380D01*
X85004523Y-87845238D01*
X84909285Y-87940476D01*
X84814047Y-87988095D01*
%TO.C,L2*%
X84528333Y-86702380D02*
X84052142Y-86702380D01*
X84052142Y-85702380D01*
X84814047Y-85797619D02*
X84861666Y-85750000D01*
X84956904Y-85702380D01*
X85195000Y-85702380D01*
X85290238Y-85750000D01*
X85337857Y-85797619D01*
X85385476Y-85892857D01*
X85385476Y-85988095D01*
X85337857Y-86130952D01*
X84766428Y-86702380D01*
X85385476Y-86702380D01*
%TO.C,L3*%
X83702380Y-87361666D02*
X83702380Y-87837857D01*
X82702380Y-87837857D01*
X82702380Y-87123571D02*
X82702380Y-86504523D01*
X83083333Y-86837857D01*
X83083333Y-86695000D01*
X83130952Y-86599761D01*
X83178571Y-86552142D01*
X83273809Y-86504523D01*
X83511904Y-86504523D01*
X83607142Y-86552142D01*
X83654761Y-86599761D01*
X83702380Y-86695000D01*
X83702380Y-86980714D01*
X83654761Y-87075952D01*
X83607142Y-87123571D01*
%TD*%
M02*
