%TF.GenerationSoftware,KiCad,Pcbnew,5.1.6-c6e7f7d~87~ubuntu18.04.1*%
%TF.CreationDate,2021-10-28T16:13:36+13:00*%
%TF.ProjectId,Trimodal SMD Sep20,5472696d-6f64-4616-9c20-534d44205365,rev?*%
%TF.SameCoordinates,Original*%
%TF.FileFunction,Paste,Top*%
%TF.FilePolarity,Positive*%
%FSLAX46Y46*%
G04 Gerber Fmt 4.6, Leading zero omitted, Abs format (unit mm)*
G04 Created by KiCad (PCBNEW 5.1.6-c6e7f7d~87~ubuntu18.04.1) date 2021-10-28 16:13:36*
%MOMM*%
%LPD*%
G01*
G04 APERTURE LIST*
%ADD10R,0.900000X1.200000*%
%ADD11R,1.200000X0.900000*%
%ADD12R,1.300000X0.900000*%
%ADD13C,0.100000*%
%ADD14R,0.800000X0.900000*%
%ADD15R,0.900000X1.300000*%
G04 APERTURE END LIST*
%TO.C,C1*%
G36*
G01*
X166429800Y-96135100D02*
X164379800Y-96135100D01*
G75*
G02*
X164129800Y-95885100I0J250000D01*
G01*
X164129800Y-94310100D01*
G75*
G02*
X164379800Y-94060100I250000J0D01*
G01*
X166429800Y-94060100D01*
G75*
G02*
X166679800Y-94310100I0J-250000D01*
G01*
X166679800Y-95885100D01*
G75*
G02*
X166429800Y-96135100I-250000J0D01*
G01*
G37*
G36*
G01*
X166429800Y-102360100D02*
X164379800Y-102360100D01*
G75*
G02*
X164129800Y-102110100I0J250000D01*
G01*
X164129800Y-100535100D01*
G75*
G02*
X164379800Y-100285100I250000J0D01*
G01*
X166429800Y-100285100D01*
G75*
G02*
X166679800Y-100535100I0J-250000D01*
G01*
X166679800Y-102110100D01*
G75*
G02*
X166429800Y-102360100I-250000J0D01*
G01*
G37*
%TD*%
%TO.C,C3*%
G36*
G01*
X151353700Y-58012650D02*
X151353700Y-57100150D01*
G75*
G02*
X151597450Y-56856400I243750J0D01*
G01*
X152084950Y-56856400D01*
G75*
G02*
X152328700Y-57100150I0J-243750D01*
G01*
X152328700Y-58012650D01*
G75*
G02*
X152084950Y-58256400I-243750J0D01*
G01*
X151597450Y-58256400D01*
G75*
G02*
X151353700Y-58012650I0J243750D01*
G01*
G37*
G36*
G01*
X149478700Y-58012650D02*
X149478700Y-57100150D01*
G75*
G02*
X149722450Y-56856400I243750J0D01*
G01*
X150209950Y-56856400D01*
G75*
G02*
X150453700Y-57100150I0J-243750D01*
G01*
X150453700Y-58012650D01*
G75*
G02*
X150209950Y-58256400I-243750J0D01*
G01*
X149722450Y-58256400D01*
G75*
G02*
X149478700Y-58012650I0J243750D01*
G01*
G37*
%TD*%
%TO.C,C4*%
G36*
G01*
X118347600Y-98001000D02*
X116297600Y-98001000D01*
G75*
G02*
X116047600Y-97751000I0J250000D01*
G01*
X116047600Y-96176000D01*
G75*
G02*
X116297600Y-95926000I250000J0D01*
G01*
X118347600Y-95926000D01*
G75*
G02*
X118597600Y-96176000I0J-250000D01*
G01*
X118597600Y-97751000D01*
G75*
G02*
X118347600Y-98001000I-250000J0D01*
G01*
G37*
G36*
G01*
X118347600Y-104226000D02*
X116297600Y-104226000D01*
G75*
G02*
X116047600Y-103976000I0J250000D01*
G01*
X116047600Y-102401000D01*
G75*
G02*
X116297600Y-102151000I250000J0D01*
G01*
X118347600Y-102151000D01*
G75*
G02*
X118597600Y-102401000I0J-250000D01*
G01*
X118597600Y-103976000D01*
G75*
G02*
X118347600Y-104226000I-250000J0D01*
G01*
G37*
%TD*%
%TO.C,C5*%
G36*
G01*
X143519000Y-95677900D02*
X141469000Y-95677900D01*
G75*
G02*
X141219000Y-95427900I0J250000D01*
G01*
X141219000Y-93852900D01*
G75*
G02*
X141469000Y-93602900I250000J0D01*
G01*
X143519000Y-93602900D01*
G75*
G02*
X143769000Y-93852900I0J-250000D01*
G01*
X143769000Y-95427900D01*
G75*
G02*
X143519000Y-95677900I-250000J0D01*
G01*
G37*
G36*
G01*
X143519000Y-89452900D02*
X141469000Y-89452900D01*
G75*
G02*
X141219000Y-89202900I0J250000D01*
G01*
X141219000Y-87627900D01*
G75*
G02*
X141469000Y-87377900I250000J0D01*
G01*
X143519000Y-87377900D01*
G75*
G02*
X143769000Y-87627900I0J-250000D01*
G01*
X143769000Y-89202900D01*
G75*
G02*
X143519000Y-89452900I-250000J0D01*
G01*
G37*
%TD*%
%TO.C,C6*%
G36*
G01*
X87701300Y-84428650D02*
X87701300Y-83516150D01*
G75*
G02*
X87945050Y-83272400I243750J0D01*
G01*
X88432550Y-83272400D01*
G75*
G02*
X88676300Y-83516150I0J-243750D01*
G01*
X88676300Y-84428650D01*
G75*
G02*
X88432550Y-84672400I-243750J0D01*
G01*
X87945050Y-84672400D01*
G75*
G02*
X87701300Y-84428650I0J243750D01*
G01*
G37*
G36*
G01*
X85826300Y-84428650D02*
X85826300Y-83516150D01*
G75*
G02*
X86070050Y-83272400I243750J0D01*
G01*
X86557550Y-83272400D01*
G75*
G02*
X86801300Y-83516150I0J-243750D01*
G01*
X86801300Y-84428650D01*
G75*
G02*
X86557550Y-84672400I-243750J0D01*
G01*
X86070050Y-84672400D01*
G75*
G02*
X85826300Y-84428650I0J243750D01*
G01*
G37*
%TD*%
%TO.C,C7*%
G36*
G01*
X171525250Y-123220300D02*
X170612750Y-123220300D01*
G75*
G02*
X170369000Y-122976550I0J243750D01*
G01*
X170369000Y-122489050D01*
G75*
G02*
X170612750Y-122245300I243750J0D01*
G01*
X171525250Y-122245300D01*
G75*
G02*
X171769000Y-122489050I0J-243750D01*
G01*
X171769000Y-122976550D01*
G75*
G02*
X171525250Y-123220300I-243750J0D01*
G01*
G37*
G36*
G01*
X171525250Y-125095300D02*
X170612750Y-125095300D01*
G75*
G02*
X170369000Y-124851550I0J243750D01*
G01*
X170369000Y-124364050D01*
G75*
G02*
X170612750Y-124120300I243750J0D01*
G01*
X171525250Y-124120300D01*
G75*
G02*
X171769000Y-124364050I0J-243750D01*
G01*
X171769000Y-124851550D01*
G75*
G02*
X171525250Y-125095300I-243750J0D01*
G01*
G37*
%TD*%
%TO.C,C9*%
G36*
G01*
X87409000Y-124063000D02*
X87409000Y-122063000D01*
G75*
G02*
X87659000Y-121813000I250000J0D01*
G01*
X91159000Y-121813000D01*
G75*
G02*
X91409000Y-122063000I0J-250000D01*
G01*
X91409000Y-124063000D01*
G75*
G02*
X91159000Y-124313000I-250000J0D01*
G01*
X87659000Y-124313000D01*
G75*
G02*
X87409000Y-124063000I0J250000D01*
G01*
G37*
G36*
G01*
X95409000Y-124063000D02*
X95409000Y-122063000D01*
G75*
G02*
X95659000Y-121813000I250000J0D01*
G01*
X99159000Y-121813000D01*
G75*
G02*
X99409000Y-122063000I0J-250000D01*
G01*
X99409000Y-124063000D01*
G75*
G02*
X99159000Y-124313000I-250000J0D01*
G01*
X95659000Y-124313000D01*
G75*
G02*
X95409000Y-124063000I0J250000D01*
G01*
G37*
%TD*%
%TO.C,C10*%
G36*
G01*
X91332800Y-50714400D02*
X91332800Y-52714400D01*
G75*
G02*
X91082800Y-52964400I-250000J0D01*
G01*
X87582800Y-52964400D01*
G75*
G02*
X87332800Y-52714400I0J250000D01*
G01*
X87332800Y-50714400D01*
G75*
G02*
X87582800Y-50464400I250000J0D01*
G01*
X91082800Y-50464400D01*
G75*
G02*
X91332800Y-50714400I0J-250000D01*
G01*
G37*
G36*
G01*
X99332800Y-50714400D02*
X99332800Y-52714400D01*
G75*
G02*
X99082800Y-52964400I-250000J0D01*
G01*
X95582800Y-52964400D01*
G75*
G02*
X95332800Y-52714400I0J250000D01*
G01*
X95332800Y-50714400D01*
G75*
G02*
X95582800Y-50464400I250000J0D01*
G01*
X99082800Y-50464400D01*
G75*
G02*
X99332800Y-50714400I0J-250000D01*
G01*
G37*
%TD*%
%TO.C,C11*%
G36*
G01*
X148878400Y-126210700D02*
X146828400Y-126210700D01*
G75*
G02*
X146578400Y-125960700I0J250000D01*
G01*
X146578400Y-124385700D01*
G75*
G02*
X146828400Y-124135700I250000J0D01*
G01*
X148878400Y-124135700D01*
G75*
G02*
X149128400Y-124385700I0J-250000D01*
G01*
X149128400Y-125960700D01*
G75*
G02*
X148878400Y-126210700I-250000J0D01*
G01*
G37*
G36*
G01*
X148878400Y-119985700D02*
X146828400Y-119985700D01*
G75*
G02*
X146578400Y-119735700I0J250000D01*
G01*
X146578400Y-118160700D01*
G75*
G02*
X146828400Y-117910700I250000J0D01*
G01*
X148878400Y-117910700D01*
G75*
G02*
X149128400Y-118160700I0J-250000D01*
G01*
X149128400Y-119735700D01*
G75*
G02*
X148878400Y-119985700I-250000J0D01*
G01*
G37*
%TD*%
%TO.C,C13*%
G36*
G01*
X122706450Y-49255500D02*
X121793950Y-49255500D01*
G75*
G02*
X121550200Y-49011750I0J243750D01*
G01*
X121550200Y-48524250D01*
G75*
G02*
X121793950Y-48280500I243750J0D01*
G01*
X122706450Y-48280500D01*
G75*
G02*
X122950200Y-48524250I0J-243750D01*
G01*
X122950200Y-49011750D01*
G75*
G02*
X122706450Y-49255500I-243750J0D01*
G01*
G37*
G36*
G01*
X122706450Y-47380500D02*
X121793950Y-47380500D01*
G75*
G02*
X121550200Y-47136750I0J243750D01*
G01*
X121550200Y-46649250D01*
G75*
G02*
X121793950Y-46405500I243750J0D01*
G01*
X122706450Y-46405500D01*
G75*
G02*
X122950200Y-46649250I0J-243750D01*
G01*
X122950200Y-47136750D01*
G75*
G02*
X122706450Y-47380500I-243750J0D01*
G01*
G37*
%TD*%
%TO.C,C14*%
G36*
G01*
X165718600Y-120112700D02*
X163668600Y-120112700D01*
G75*
G02*
X163418600Y-119862700I0J250000D01*
G01*
X163418600Y-118287700D01*
G75*
G02*
X163668600Y-118037700I250000J0D01*
G01*
X165718600Y-118037700D01*
G75*
G02*
X165968600Y-118287700I0J-250000D01*
G01*
X165968600Y-119862700D01*
G75*
G02*
X165718600Y-120112700I-250000J0D01*
G01*
G37*
G36*
G01*
X165718600Y-126337700D02*
X163668600Y-126337700D01*
G75*
G02*
X163418600Y-126087700I0J250000D01*
G01*
X163418600Y-124512700D01*
G75*
G02*
X163668600Y-124262700I250000J0D01*
G01*
X165718600Y-124262700D01*
G75*
G02*
X165968600Y-124512700I0J-250000D01*
G01*
X165968600Y-126087700D01*
G75*
G02*
X165718600Y-126337700I-250000J0D01*
G01*
G37*
%TD*%
%TO.C,C15*%
G36*
G01*
X152226100Y-97443400D02*
X152226100Y-95393400D01*
G75*
G02*
X152476100Y-95143400I250000J0D01*
G01*
X154051100Y-95143400D01*
G75*
G02*
X154301100Y-95393400I0J-250000D01*
G01*
X154301100Y-97443400D01*
G75*
G02*
X154051100Y-97693400I-250000J0D01*
G01*
X152476100Y-97693400D01*
G75*
G02*
X152226100Y-97443400I0J250000D01*
G01*
G37*
G36*
G01*
X158451100Y-97443400D02*
X158451100Y-95393400D01*
G75*
G02*
X158701100Y-95143400I250000J0D01*
G01*
X160276100Y-95143400D01*
G75*
G02*
X160526100Y-95393400I0J-250000D01*
G01*
X160526100Y-97443400D01*
G75*
G02*
X160276100Y-97693400I-250000J0D01*
G01*
X158701100Y-97693400D01*
G75*
G02*
X158451100Y-97443400I0J250000D01*
G01*
G37*
%TD*%
%TO.C,C16*%
G36*
G01*
X167488550Y-72719900D02*
X168401050Y-72719900D01*
G75*
G02*
X168644800Y-72963650I0J-243750D01*
G01*
X168644800Y-73451150D01*
G75*
G02*
X168401050Y-73694900I-243750J0D01*
G01*
X167488550Y-73694900D01*
G75*
G02*
X167244800Y-73451150I0J243750D01*
G01*
X167244800Y-72963650D01*
G75*
G02*
X167488550Y-72719900I243750J0D01*
G01*
G37*
G36*
G01*
X167488550Y-74594900D02*
X168401050Y-74594900D01*
G75*
G02*
X168644800Y-74838650I0J-243750D01*
G01*
X168644800Y-75326150D01*
G75*
G02*
X168401050Y-75569900I-243750J0D01*
G01*
X167488550Y-75569900D01*
G75*
G02*
X167244800Y-75326150I0J243750D01*
G01*
X167244800Y-74838650D01*
G75*
G02*
X167488550Y-74594900I243750J0D01*
G01*
G37*
%TD*%
%TO.C,C17*%
G36*
G01*
X170661650Y-49022300D02*
X169749150Y-49022300D01*
G75*
G02*
X169505400Y-48778550I0J243750D01*
G01*
X169505400Y-48291050D01*
G75*
G02*
X169749150Y-48047300I243750J0D01*
G01*
X170661650Y-48047300D01*
G75*
G02*
X170905400Y-48291050I0J-243750D01*
G01*
X170905400Y-48778550D01*
G75*
G02*
X170661650Y-49022300I-243750J0D01*
G01*
G37*
G36*
G01*
X170661650Y-47147300D02*
X169749150Y-47147300D01*
G75*
G02*
X169505400Y-46903550I0J243750D01*
G01*
X169505400Y-46416050D01*
G75*
G02*
X169749150Y-46172300I243750J0D01*
G01*
X170661650Y-46172300D01*
G75*
G02*
X170905400Y-46416050I0J-243750D01*
G01*
X170905400Y-46903550D01*
G75*
G02*
X170661650Y-47147300I-243750J0D01*
G01*
G37*
%TD*%
D10*
%TO.C,D1*%
X145311400Y-69900800D03*
X142011400Y-69900800D03*
%TD*%
%TO.C,D2*%
X150670800Y-69900800D03*
X147370800Y-69900800D03*
%TD*%
%TO.C,D3*%
X145313400Y-66979800D03*
X142013400Y-66979800D03*
%TD*%
%TO.C,D4*%
X150672800Y-66954400D03*
X147372800Y-66954400D03*
%TD*%
D11*
%TO.C,D5*%
X131165600Y-49530000D03*
X131165600Y-52830000D03*
%TD*%
%TO.C,D6*%
X127635000Y-46230000D03*
X127635000Y-49530000D03*
%TD*%
D10*
%TO.C,D7*%
X104851200Y-104902000D03*
X101551200Y-104902000D03*
%TD*%
%TO.C,D8*%
X101575600Y-70002400D03*
X104875600Y-70002400D03*
%TD*%
%TO.C,D9*%
X153390600Y-116179600D03*
X156690600Y-116179600D03*
%TD*%
D12*
%TO.C,Q6*%
X160679400Y-50623600D03*
X160679400Y-47623600D03*
D13*
G36*
X156729400Y-48257100D02*
G01*
X159854400Y-48257100D01*
X159854400Y-48673600D01*
X161329400Y-48673600D01*
X161329400Y-49573600D01*
X159854400Y-49573600D01*
X159854400Y-49990100D01*
X156729400Y-49990100D01*
X156729400Y-48257100D01*
G37*
%TD*%
%TO.C,R2*%
G36*
G01*
X162914650Y-73614100D02*
X162002150Y-73614100D01*
G75*
G02*
X161758400Y-73370350I0J243750D01*
G01*
X161758400Y-72882850D01*
G75*
G02*
X162002150Y-72639100I243750J0D01*
G01*
X162914650Y-72639100D01*
G75*
G02*
X163158400Y-72882850I0J-243750D01*
G01*
X163158400Y-73370350D01*
G75*
G02*
X162914650Y-73614100I-243750J0D01*
G01*
G37*
G36*
G01*
X162914650Y-75489100D02*
X162002150Y-75489100D01*
G75*
G02*
X161758400Y-75245350I0J243750D01*
G01*
X161758400Y-74757850D01*
G75*
G02*
X162002150Y-74514100I243750J0D01*
G01*
X162914650Y-74514100D01*
G75*
G02*
X163158400Y-74757850I0J-243750D01*
G01*
X163158400Y-75245350D01*
G75*
G02*
X162914650Y-75489100I-243750J0D01*
G01*
G37*
%TD*%
%TO.C,R3*%
G36*
G01*
X160095250Y-73639500D02*
X159182750Y-73639500D01*
G75*
G02*
X158939000Y-73395750I0J243750D01*
G01*
X158939000Y-72908250D01*
G75*
G02*
X159182750Y-72664500I243750J0D01*
G01*
X160095250Y-72664500D01*
G75*
G02*
X160339000Y-72908250I0J-243750D01*
G01*
X160339000Y-73395750D01*
G75*
G02*
X160095250Y-73639500I-243750J0D01*
G01*
G37*
G36*
G01*
X160095250Y-75514500D02*
X159182750Y-75514500D01*
G75*
G02*
X158939000Y-75270750I0J243750D01*
G01*
X158939000Y-74783250D01*
G75*
G02*
X159182750Y-74539500I243750J0D01*
G01*
X160095250Y-74539500D01*
G75*
G02*
X160339000Y-74783250I0J-243750D01*
G01*
X160339000Y-75270750D01*
G75*
G02*
X160095250Y-75514500I-243750J0D01*
G01*
G37*
%TD*%
%TO.C,R4*%
G36*
G01*
X169086850Y-123194900D02*
X168174350Y-123194900D01*
G75*
G02*
X167930600Y-122951150I0J243750D01*
G01*
X167930600Y-122463650D01*
G75*
G02*
X168174350Y-122219900I243750J0D01*
G01*
X169086850Y-122219900D01*
G75*
G02*
X169330600Y-122463650I0J-243750D01*
G01*
X169330600Y-122951150D01*
G75*
G02*
X169086850Y-123194900I-243750J0D01*
G01*
G37*
G36*
G01*
X169086850Y-125069900D02*
X168174350Y-125069900D01*
G75*
G02*
X167930600Y-124826150I0J243750D01*
G01*
X167930600Y-124338650D01*
G75*
G02*
X168174350Y-124094900I243750J0D01*
G01*
X169086850Y-124094900D01*
G75*
G02*
X169330600Y-124338650I0J-243750D01*
G01*
X169330600Y-124826150D01*
G75*
G02*
X169086850Y-125069900I-243750J0D01*
G01*
G37*
%TD*%
%TO.C,R5*%
G36*
G01*
X147361300Y-112876650D02*
X147361300Y-111964150D01*
G75*
G02*
X147605050Y-111720400I243750J0D01*
G01*
X148092550Y-111720400D01*
G75*
G02*
X148336300Y-111964150I0J-243750D01*
G01*
X148336300Y-112876650D01*
G75*
G02*
X148092550Y-113120400I-243750J0D01*
G01*
X147605050Y-113120400D01*
G75*
G02*
X147361300Y-112876650I0J243750D01*
G01*
G37*
G36*
G01*
X145486300Y-112876650D02*
X145486300Y-111964150D01*
G75*
G02*
X145730050Y-111720400I243750J0D01*
G01*
X146217550Y-111720400D01*
G75*
G02*
X146461300Y-111964150I0J-243750D01*
G01*
X146461300Y-112876650D01*
G75*
G02*
X146217550Y-113120400I-243750J0D01*
G01*
X145730050Y-113120400D01*
G75*
G02*
X145486300Y-112876650I0J243750D01*
G01*
G37*
%TD*%
%TO.C,R6*%
G36*
G01*
X168147050Y-47177300D02*
X167234550Y-47177300D01*
G75*
G02*
X166990800Y-46933550I0J243750D01*
G01*
X166990800Y-46446050D01*
G75*
G02*
X167234550Y-46202300I243750J0D01*
G01*
X168147050Y-46202300D01*
G75*
G02*
X168390800Y-46446050I0J-243750D01*
G01*
X168390800Y-46933550D01*
G75*
G02*
X168147050Y-47177300I-243750J0D01*
G01*
G37*
G36*
G01*
X168147050Y-49052300D02*
X167234550Y-49052300D01*
G75*
G02*
X166990800Y-48808550I0J243750D01*
G01*
X166990800Y-48321050D01*
G75*
G02*
X167234550Y-48077300I243750J0D01*
G01*
X168147050Y-48077300D01*
G75*
G02*
X168390800Y-48321050I0J-243750D01*
G01*
X168390800Y-48808550D01*
G75*
G02*
X168147050Y-49052300I-243750J0D01*
G01*
G37*
%TD*%
%TO.C,R7*%
G36*
G01*
X165607050Y-49052300D02*
X164694550Y-49052300D01*
G75*
G02*
X164450800Y-48808550I0J243750D01*
G01*
X164450800Y-48321050D01*
G75*
G02*
X164694550Y-48077300I243750J0D01*
G01*
X165607050Y-48077300D01*
G75*
G02*
X165850800Y-48321050I0J-243750D01*
G01*
X165850800Y-48808550D01*
G75*
G02*
X165607050Y-49052300I-243750J0D01*
G01*
G37*
G36*
G01*
X165607050Y-47177300D02*
X164694550Y-47177300D01*
G75*
G02*
X164450800Y-46933550I0J243750D01*
G01*
X164450800Y-46446050D01*
G75*
G02*
X164694550Y-46202300I243750J0D01*
G01*
X165607050Y-46202300D01*
G75*
G02*
X165850800Y-46446050I0J-243750D01*
G01*
X165850800Y-46933550D01*
G75*
G02*
X165607050Y-47177300I-243750J0D01*
G01*
G37*
%TD*%
%TO.C,R8*%
G36*
G01*
X150824900Y-90270650D02*
X150824900Y-89358150D01*
G75*
G02*
X151068650Y-89114400I243750J0D01*
G01*
X151556150Y-89114400D01*
G75*
G02*
X151799900Y-89358150I0J-243750D01*
G01*
X151799900Y-90270650D01*
G75*
G02*
X151556150Y-90514400I-243750J0D01*
G01*
X151068650Y-90514400D01*
G75*
G02*
X150824900Y-90270650I0J243750D01*
G01*
G37*
G36*
G01*
X152699900Y-90270650D02*
X152699900Y-89358150D01*
G75*
G02*
X152943650Y-89114400I243750J0D01*
G01*
X153431150Y-89114400D01*
G75*
G02*
X153674900Y-89358150I0J-243750D01*
G01*
X153674900Y-90270650D01*
G75*
G02*
X153431150Y-90514400I-243750J0D01*
G01*
X152943650Y-90514400D01*
G75*
G02*
X152699900Y-90270650I0J243750D01*
G01*
G37*
%TD*%
%TO.C,R9*%
G36*
G01*
X169063350Y-98978900D02*
X169975850Y-98978900D01*
G75*
G02*
X170219600Y-99222650I0J-243750D01*
G01*
X170219600Y-99710150D01*
G75*
G02*
X169975850Y-99953900I-243750J0D01*
G01*
X169063350Y-99953900D01*
G75*
G02*
X168819600Y-99710150I0J243750D01*
G01*
X168819600Y-99222650D01*
G75*
G02*
X169063350Y-98978900I243750J0D01*
G01*
G37*
G36*
G01*
X169063350Y-100853900D02*
X169975850Y-100853900D01*
G75*
G02*
X170219600Y-101097650I0J-243750D01*
G01*
X170219600Y-101585150D01*
G75*
G02*
X169975850Y-101828900I-243750J0D01*
G01*
X169063350Y-101828900D01*
G75*
G02*
X168819600Y-101585150I0J243750D01*
G01*
X168819600Y-101097650D01*
G75*
G02*
X169063350Y-100853900I243750J0D01*
G01*
G37*
%TD*%
%TO.C,R10*%
G36*
G01*
X117881700Y-107976350D02*
X117881700Y-108888850D01*
G75*
G02*
X117637950Y-109132600I-243750J0D01*
G01*
X117150450Y-109132600D01*
G75*
G02*
X116906700Y-108888850I0J243750D01*
G01*
X116906700Y-107976350D01*
G75*
G02*
X117150450Y-107732600I243750J0D01*
G01*
X117637950Y-107732600D01*
G75*
G02*
X117881700Y-107976350I0J-243750D01*
G01*
G37*
G36*
G01*
X116006700Y-107976350D02*
X116006700Y-108888850D01*
G75*
G02*
X115762950Y-109132600I-243750J0D01*
G01*
X115275450Y-109132600D01*
G75*
G02*
X115031700Y-108888850I0J243750D01*
G01*
X115031700Y-107976350D01*
G75*
G02*
X115275450Y-107732600I243750J0D01*
G01*
X115762950Y-107732600D01*
G75*
G02*
X116006700Y-107976350I0J-243750D01*
G01*
G37*
%TD*%
%TO.C,R11*%
G36*
G01*
X115031700Y-106475850D02*
X115031700Y-105563350D01*
G75*
G02*
X115275450Y-105319600I243750J0D01*
G01*
X115762950Y-105319600D01*
G75*
G02*
X116006700Y-105563350I0J-243750D01*
G01*
X116006700Y-106475850D01*
G75*
G02*
X115762950Y-106719600I-243750J0D01*
G01*
X115275450Y-106719600D01*
G75*
G02*
X115031700Y-106475850I0J243750D01*
G01*
G37*
G36*
G01*
X116906700Y-106475850D02*
X116906700Y-105563350D01*
G75*
G02*
X117150450Y-105319600I243750J0D01*
G01*
X117637950Y-105319600D01*
G75*
G02*
X117881700Y-105563350I0J-243750D01*
G01*
X117881700Y-106475850D01*
G75*
G02*
X117637950Y-106719600I-243750J0D01*
G01*
X117150450Y-106719600D01*
G75*
G02*
X116906700Y-106475850I0J243750D01*
G01*
G37*
%TD*%
%TO.C,R12*%
G36*
G01*
X126491700Y-92074050D02*
X126491700Y-91161550D01*
G75*
G02*
X126735450Y-90917800I243750J0D01*
G01*
X127222950Y-90917800D01*
G75*
G02*
X127466700Y-91161550I0J-243750D01*
G01*
X127466700Y-92074050D01*
G75*
G02*
X127222950Y-92317800I-243750J0D01*
G01*
X126735450Y-92317800D01*
G75*
G02*
X126491700Y-92074050I0J243750D01*
G01*
G37*
G36*
G01*
X128366700Y-92074050D02*
X128366700Y-91161550D01*
G75*
G02*
X128610450Y-90917800I243750J0D01*
G01*
X129097950Y-90917800D01*
G75*
G02*
X129341700Y-91161550I0J-243750D01*
G01*
X129341700Y-92074050D01*
G75*
G02*
X129097950Y-92317800I-243750J0D01*
G01*
X128610450Y-92317800D01*
G75*
G02*
X128366700Y-92074050I0J243750D01*
G01*
G37*
%TD*%
%TO.C,R13*%
G36*
G01*
X135330250Y-122890100D02*
X134417750Y-122890100D01*
G75*
G02*
X134174000Y-122646350I0J243750D01*
G01*
X134174000Y-122158850D01*
G75*
G02*
X134417750Y-121915100I243750J0D01*
G01*
X135330250Y-121915100D01*
G75*
G02*
X135574000Y-122158850I0J-243750D01*
G01*
X135574000Y-122646350D01*
G75*
G02*
X135330250Y-122890100I-243750J0D01*
G01*
G37*
G36*
G01*
X135330250Y-124765100D02*
X134417750Y-124765100D01*
G75*
G02*
X134174000Y-124521350I0J243750D01*
G01*
X134174000Y-124033850D01*
G75*
G02*
X134417750Y-123790100I243750J0D01*
G01*
X135330250Y-123790100D01*
G75*
G02*
X135574000Y-124033850I0J-243750D01*
G01*
X135574000Y-124521350D01*
G75*
G02*
X135330250Y-124765100I-243750J0D01*
G01*
G37*
%TD*%
%TO.C,R14*%
G36*
G01*
X117881700Y-110516350D02*
X117881700Y-111428850D01*
G75*
G02*
X117637950Y-111672600I-243750J0D01*
G01*
X117150450Y-111672600D01*
G75*
G02*
X116906700Y-111428850I0J243750D01*
G01*
X116906700Y-110516350D01*
G75*
G02*
X117150450Y-110272600I243750J0D01*
G01*
X117637950Y-110272600D01*
G75*
G02*
X117881700Y-110516350I0J-243750D01*
G01*
G37*
G36*
G01*
X116006700Y-110516350D02*
X116006700Y-111428850D01*
G75*
G02*
X115762950Y-111672600I-243750J0D01*
G01*
X115275450Y-111672600D01*
G75*
G02*
X115031700Y-111428850I0J243750D01*
G01*
X115031700Y-110516350D01*
G75*
G02*
X115275450Y-110272600I243750J0D01*
G01*
X115762950Y-110272600D01*
G75*
G02*
X116006700Y-110516350I0J-243750D01*
G01*
G37*
%TD*%
%TO.C,R15*%
G36*
G01*
X129341700Y-93472950D02*
X129341700Y-94385450D01*
G75*
G02*
X129097950Y-94629200I-243750J0D01*
G01*
X128610450Y-94629200D01*
G75*
G02*
X128366700Y-94385450I0J243750D01*
G01*
X128366700Y-93472950D01*
G75*
G02*
X128610450Y-93229200I243750J0D01*
G01*
X129097950Y-93229200D01*
G75*
G02*
X129341700Y-93472950I0J-243750D01*
G01*
G37*
G36*
G01*
X127466700Y-93472950D02*
X127466700Y-94385450D01*
G75*
G02*
X127222950Y-94629200I-243750J0D01*
G01*
X126735450Y-94629200D01*
G75*
G02*
X126491700Y-94385450I0J243750D01*
G01*
X126491700Y-93472950D01*
G75*
G02*
X126735450Y-93229200I243750J0D01*
G01*
X127222950Y-93229200D01*
G75*
G02*
X127466700Y-93472950I0J-243750D01*
G01*
G37*
%TD*%
%TO.C,R16*%
G36*
G01*
X84229001Y-102478200D02*
X81378999Y-102478200D01*
G75*
G02*
X81129000Y-102228201I0J249999D01*
G01*
X81129000Y-101378199D01*
G75*
G02*
X81378999Y-101128200I249999J0D01*
G01*
X84229001Y-101128200D01*
G75*
G02*
X84479000Y-101378199I0J-249999D01*
G01*
X84479000Y-102228201D01*
G75*
G02*
X84229001Y-102478200I-249999J0D01*
G01*
G37*
G36*
G01*
X84229001Y-108278200D02*
X81378999Y-108278200D01*
G75*
G02*
X81129000Y-108028201I0J249999D01*
G01*
X81129000Y-107178199D01*
G75*
G02*
X81378999Y-106928200I249999J0D01*
G01*
X84229001Y-106928200D01*
G75*
G02*
X84479000Y-107178199I0J-249999D01*
G01*
X84479000Y-108028201D01*
G75*
G02*
X84229001Y-108278200I-249999J0D01*
G01*
G37*
%TD*%
%TO.C,R17*%
G36*
G01*
X84229001Y-81650200D02*
X81378999Y-81650200D01*
G75*
G02*
X81129000Y-81400201I0J249999D01*
G01*
X81129000Y-80550199D01*
G75*
G02*
X81378999Y-80300200I249999J0D01*
G01*
X84229001Y-80300200D01*
G75*
G02*
X84479000Y-80550199I0J-249999D01*
G01*
X84479000Y-81400201D01*
G75*
G02*
X84229001Y-81650200I-249999J0D01*
G01*
G37*
G36*
G01*
X84229001Y-75850200D02*
X81378999Y-75850200D01*
G75*
G02*
X81129000Y-75600201I0J249999D01*
G01*
X81129000Y-74750199D01*
G75*
G02*
X81378999Y-74500200I249999J0D01*
G01*
X84229001Y-74500200D01*
G75*
G02*
X84479000Y-74750199I0J-249999D01*
G01*
X84479000Y-75600201D01*
G75*
G02*
X84229001Y-75850200I-249999J0D01*
G01*
G37*
%TD*%
%TO.C,R18*%
G36*
G01*
X87984650Y-87126900D02*
X87072150Y-87126900D01*
G75*
G02*
X86828400Y-86883150I0J243750D01*
G01*
X86828400Y-86395650D01*
G75*
G02*
X87072150Y-86151900I243750J0D01*
G01*
X87984650Y-86151900D01*
G75*
G02*
X88228400Y-86395650I0J-243750D01*
G01*
X88228400Y-86883150D01*
G75*
G02*
X87984650Y-87126900I-243750J0D01*
G01*
G37*
G36*
G01*
X87984650Y-89001900D02*
X87072150Y-89001900D01*
G75*
G02*
X86828400Y-88758150I0J243750D01*
G01*
X86828400Y-88270650D01*
G75*
G02*
X87072150Y-88026900I243750J0D01*
G01*
X87984650Y-88026900D01*
G75*
G02*
X88228400Y-88270650I0J-243750D01*
G01*
X88228400Y-88758150D01*
G75*
G02*
X87984650Y-89001900I-243750J0D01*
G01*
G37*
%TD*%
%TO.C,R19*%
G36*
G01*
X94133350Y-86863100D02*
X95045850Y-86863100D01*
G75*
G02*
X95289600Y-87106850I0J-243750D01*
G01*
X95289600Y-87594350D01*
G75*
G02*
X95045850Y-87838100I-243750J0D01*
G01*
X94133350Y-87838100D01*
G75*
G02*
X93889600Y-87594350I0J243750D01*
G01*
X93889600Y-87106850D01*
G75*
G02*
X94133350Y-86863100I243750J0D01*
G01*
G37*
G36*
G01*
X94133350Y-88738100D02*
X95045850Y-88738100D01*
G75*
G02*
X95289600Y-88981850I0J-243750D01*
G01*
X95289600Y-89469350D01*
G75*
G02*
X95045850Y-89713100I-243750J0D01*
G01*
X94133350Y-89713100D01*
G75*
G02*
X93889600Y-89469350I0J243750D01*
G01*
X93889600Y-88981850D01*
G75*
G02*
X94133350Y-88738100I243750J0D01*
G01*
G37*
%TD*%
%TO.C,R20*%
G36*
G01*
X92124850Y-107416900D02*
X91212350Y-107416900D01*
G75*
G02*
X90968600Y-107173150I0J243750D01*
G01*
X90968600Y-106685650D01*
G75*
G02*
X91212350Y-106441900I243750J0D01*
G01*
X92124850Y-106441900D01*
G75*
G02*
X92368600Y-106685650I0J-243750D01*
G01*
X92368600Y-107173150D01*
G75*
G02*
X92124850Y-107416900I-243750J0D01*
G01*
G37*
G36*
G01*
X92124850Y-105541900D02*
X91212350Y-105541900D01*
G75*
G02*
X90968600Y-105298150I0J243750D01*
G01*
X90968600Y-104810650D01*
G75*
G02*
X91212350Y-104566900I243750J0D01*
G01*
X92124850Y-104566900D01*
G75*
G02*
X92368600Y-104810650I0J-243750D01*
G01*
X92368600Y-105298150D01*
G75*
G02*
X92124850Y-105541900I-243750J0D01*
G01*
G37*
%TD*%
%TO.C,R21*%
G36*
G01*
X95706250Y-117399100D02*
X94793750Y-117399100D01*
G75*
G02*
X94550000Y-117155350I0J243750D01*
G01*
X94550000Y-116667850D01*
G75*
G02*
X94793750Y-116424100I243750J0D01*
G01*
X95706250Y-116424100D01*
G75*
G02*
X95950000Y-116667850I0J-243750D01*
G01*
X95950000Y-117155350D01*
G75*
G02*
X95706250Y-117399100I-243750J0D01*
G01*
G37*
G36*
G01*
X95706250Y-115524100D02*
X94793750Y-115524100D01*
G75*
G02*
X94550000Y-115280350I0J243750D01*
G01*
X94550000Y-114792850D01*
G75*
G02*
X94793750Y-114549100I243750J0D01*
G01*
X95706250Y-114549100D01*
G75*
G02*
X95950000Y-114792850I0J-243750D01*
G01*
X95950000Y-115280350D01*
G75*
G02*
X95706250Y-115524100I-243750J0D01*
G01*
G37*
%TD*%
%TO.C,R22*%
G36*
G01*
X128082700Y-106475850D02*
X128082700Y-105563350D01*
G75*
G02*
X128326450Y-105319600I243750J0D01*
G01*
X128813950Y-105319600D01*
G75*
G02*
X129057700Y-105563350I0J-243750D01*
G01*
X129057700Y-106475850D01*
G75*
G02*
X128813950Y-106719600I-243750J0D01*
G01*
X128326450Y-106719600D01*
G75*
G02*
X128082700Y-106475850I0J243750D01*
G01*
G37*
G36*
G01*
X126207700Y-106475850D02*
X126207700Y-105563350D01*
G75*
G02*
X126451450Y-105319600I243750J0D01*
G01*
X126938950Y-105319600D01*
G75*
G02*
X127182700Y-105563350I0J-243750D01*
G01*
X127182700Y-106475850D01*
G75*
G02*
X126938950Y-106719600I-243750J0D01*
G01*
X126451450Y-106719600D01*
G75*
G02*
X126207700Y-106475850I0J243750D01*
G01*
G37*
%TD*%
%TO.C,R23*%
G36*
G01*
X93320550Y-109723100D02*
X94233050Y-109723100D01*
G75*
G02*
X94476800Y-109966850I0J-243750D01*
G01*
X94476800Y-110454350D01*
G75*
G02*
X94233050Y-110698100I-243750J0D01*
G01*
X93320550Y-110698100D01*
G75*
G02*
X93076800Y-110454350I0J243750D01*
G01*
X93076800Y-109966850D01*
G75*
G02*
X93320550Y-109723100I243750J0D01*
G01*
G37*
G36*
G01*
X93320550Y-107848100D02*
X94233050Y-107848100D01*
G75*
G02*
X94476800Y-108091850I0J-243750D01*
G01*
X94476800Y-108579350D01*
G75*
G02*
X94233050Y-108823100I-243750J0D01*
G01*
X93320550Y-108823100D01*
G75*
G02*
X93076800Y-108579350I0J243750D01*
G01*
X93076800Y-108091850D01*
G75*
G02*
X93320550Y-107848100I243750J0D01*
G01*
G37*
%TD*%
%TO.C,R24*%
G36*
G01*
X111981400Y-69544250D02*
X111981400Y-68631750D01*
G75*
G02*
X112225150Y-68388000I243750J0D01*
G01*
X112712650Y-68388000D01*
G75*
G02*
X112956400Y-68631750I0J-243750D01*
G01*
X112956400Y-69544250D01*
G75*
G02*
X112712650Y-69788000I-243750J0D01*
G01*
X112225150Y-69788000D01*
G75*
G02*
X111981400Y-69544250I0J243750D01*
G01*
G37*
G36*
G01*
X110106400Y-69544250D02*
X110106400Y-68631750D01*
G75*
G02*
X110350150Y-68388000I243750J0D01*
G01*
X110837650Y-68388000D01*
G75*
G02*
X111081400Y-68631750I0J-243750D01*
G01*
X111081400Y-69544250D01*
G75*
G02*
X110837650Y-69788000I-243750J0D01*
G01*
X110350150Y-69788000D01*
G75*
G02*
X110106400Y-69544250I0J243750D01*
G01*
G37*
%TD*%
%TO.C,R25*%
G36*
G01*
X82320450Y-121950300D02*
X81407950Y-121950300D01*
G75*
G02*
X81164200Y-121706550I0J243750D01*
G01*
X81164200Y-121219050D01*
G75*
G02*
X81407950Y-120975300I243750J0D01*
G01*
X82320450Y-120975300D01*
G75*
G02*
X82564200Y-121219050I0J-243750D01*
G01*
X82564200Y-121706550D01*
G75*
G02*
X82320450Y-121950300I-243750J0D01*
G01*
G37*
G36*
G01*
X82320450Y-123825300D02*
X81407950Y-123825300D01*
G75*
G02*
X81164200Y-123581550I0J243750D01*
G01*
X81164200Y-123094050D01*
G75*
G02*
X81407950Y-122850300I243750J0D01*
G01*
X82320450Y-122850300D01*
G75*
G02*
X82564200Y-123094050I0J-243750D01*
G01*
X82564200Y-123581550D01*
G75*
G02*
X82320450Y-123825300I-243750J0D01*
G01*
G37*
%TD*%
%TO.C,R26*%
G36*
G01*
X83057050Y-55550100D02*
X82144550Y-55550100D01*
G75*
G02*
X81900800Y-55306350I0J243750D01*
G01*
X81900800Y-54818850D01*
G75*
G02*
X82144550Y-54575100I243750J0D01*
G01*
X83057050Y-54575100D01*
G75*
G02*
X83300800Y-54818850I0J-243750D01*
G01*
X83300800Y-55306350D01*
G75*
G02*
X83057050Y-55550100I-243750J0D01*
G01*
G37*
G36*
G01*
X83057050Y-53675100D02*
X82144550Y-53675100D01*
G75*
G02*
X81900800Y-53431350I0J243750D01*
G01*
X81900800Y-52943850D01*
G75*
G02*
X82144550Y-52700100I243750J0D01*
G01*
X83057050Y-52700100D01*
G75*
G02*
X83300800Y-52943850I0J-243750D01*
G01*
X83300800Y-53431350D01*
G75*
G02*
X83057050Y-53675100I-243750J0D01*
G01*
G37*
%TD*%
%TO.C,R27*%
G36*
G01*
X90092850Y-65125900D02*
X89180350Y-65125900D01*
G75*
G02*
X88936600Y-64882150I0J243750D01*
G01*
X88936600Y-64394650D01*
G75*
G02*
X89180350Y-64150900I243750J0D01*
G01*
X90092850Y-64150900D01*
G75*
G02*
X90336600Y-64394650I0J-243750D01*
G01*
X90336600Y-64882150D01*
G75*
G02*
X90092850Y-65125900I-243750J0D01*
G01*
G37*
G36*
G01*
X90092850Y-63250900D02*
X89180350Y-63250900D01*
G75*
G02*
X88936600Y-63007150I0J243750D01*
G01*
X88936600Y-62519650D01*
G75*
G02*
X89180350Y-62275900I243750J0D01*
G01*
X90092850Y-62275900D01*
G75*
G02*
X90336600Y-62519650I0J-243750D01*
G01*
X90336600Y-63007150D01*
G75*
G02*
X90092850Y-63250900I-243750J0D01*
G01*
G37*
%TD*%
%TO.C,R29*%
G36*
G01*
X90118250Y-59415500D02*
X89205750Y-59415500D01*
G75*
G02*
X88962000Y-59171750I0J243750D01*
G01*
X88962000Y-58684250D01*
G75*
G02*
X89205750Y-58440500I243750J0D01*
G01*
X90118250Y-58440500D01*
G75*
G02*
X90362000Y-58684250I0J-243750D01*
G01*
X90362000Y-59171750D01*
G75*
G02*
X90118250Y-59415500I-243750J0D01*
G01*
G37*
G36*
G01*
X90118250Y-61290500D02*
X89205750Y-61290500D01*
G75*
G02*
X88962000Y-61046750I0J243750D01*
G01*
X88962000Y-60559250D01*
G75*
G02*
X89205750Y-60315500I243750J0D01*
G01*
X90118250Y-60315500D01*
G75*
G02*
X90362000Y-60559250I0J-243750D01*
G01*
X90362000Y-61046750D01*
G75*
G02*
X90118250Y-61290500I-243750J0D01*
G01*
G37*
%TD*%
%TO.C,R30*%
G36*
G01*
X116239900Y-63297750D02*
X116239900Y-64210250D01*
G75*
G02*
X115996150Y-64454000I-243750J0D01*
G01*
X115508650Y-64454000D01*
G75*
G02*
X115264900Y-64210250I0J243750D01*
G01*
X115264900Y-63297750D01*
G75*
G02*
X115508650Y-63054000I243750J0D01*
G01*
X115996150Y-63054000D01*
G75*
G02*
X116239900Y-63297750I0J-243750D01*
G01*
G37*
G36*
G01*
X118114900Y-63297750D02*
X118114900Y-64210250D01*
G75*
G02*
X117871150Y-64454000I-243750J0D01*
G01*
X117383650Y-64454000D01*
G75*
G02*
X117139900Y-64210250I0J243750D01*
G01*
X117139900Y-63297750D01*
G75*
G02*
X117383650Y-63054000I243750J0D01*
G01*
X117871150Y-63054000D01*
G75*
G02*
X118114900Y-63297750I0J-243750D01*
G01*
G37*
%TD*%
%TO.C,R31*%
G36*
G01*
X96139950Y-60594900D02*
X97052450Y-60594900D01*
G75*
G02*
X97296200Y-60838650I0J-243750D01*
G01*
X97296200Y-61326150D01*
G75*
G02*
X97052450Y-61569900I-243750J0D01*
G01*
X96139950Y-61569900D01*
G75*
G02*
X95896200Y-61326150I0J243750D01*
G01*
X95896200Y-60838650D01*
G75*
G02*
X96139950Y-60594900I243750J0D01*
G01*
G37*
G36*
G01*
X96139950Y-58719900D02*
X97052450Y-58719900D01*
G75*
G02*
X97296200Y-58963650I0J-243750D01*
G01*
X97296200Y-59451150D01*
G75*
G02*
X97052450Y-59694900I-243750J0D01*
G01*
X96139950Y-59694900D01*
G75*
G02*
X95896200Y-59451150I0J243750D01*
G01*
X95896200Y-58963650D01*
G75*
G02*
X96139950Y-58719900I243750J0D01*
G01*
G37*
%TD*%
%TO.C,R32*%
G36*
G01*
X132588950Y-106391100D02*
X133501450Y-106391100D01*
G75*
G02*
X133745200Y-106634850I0J-243750D01*
G01*
X133745200Y-107122350D01*
G75*
G02*
X133501450Y-107366100I-243750J0D01*
G01*
X132588950Y-107366100D01*
G75*
G02*
X132345200Y-107122350I0J243750D01*
G01*
X132345200Y-106634850D01*
G75*
G02*
X132588950Y-106391100I243750J0D01*
G01*
G37*
G36*
G01*
X132588950Y-104516100D02*
X133501450Y-104516100D01*
G75*
G02*
X133745200Y-104759850I0J-243750D01*
G01*
X133745200Y-105247350D01*
G75*
G02*
X133501450Y-105491100I-243750J0D01*
G01*
X132588950Y-105491100D01*
G75*
G02*
X132345200Y-105247350I0J243750D01*
G01*
X132345200Y-104759850D01*
G75*
G02*
X132588950Y-104516100I243750J0D01*
G01*
G37*
%TD*%
%TO.C,R33*%
G36*
G01*
X132665150Y-99999500D02*
X133577650Y-99999500D01*
G75*
G02*
X133821400Y-100243250I0J-243750D01*
G01*
X133821400Y-100730750D01*
G75*
G02*
X133577650Y-100974500I-243750J0D01*
G01*
X132665150Y-100974500D01*
G75*
G02*
X132421400Y-100730750I0J243750D01*
G01*
X132421400Y-100243250D01*
G75*
G02*
X132665150Y-99999500I243750J0D01*
G01*
G37*
G36*
G01*
X132665150Y-101874500D02*
X133577650Y-101874500D01*
G75*
G02*
X133821400Y-102118250I0J-243750D01*
G01*
X133821400Y-102605750D01*
G75*
G02*
X133577650Y-102849500I-243750J0D01*
G01*
X132665150Y-102849500D01*
G75*
G02*
X132421400Y-102605750I0J243750D01*
G01*
X132421400Y-102118250D01*
G75*
G02*
X132665150Y-101874500I243750J0D01*
G01*
G37*
%TD*%
%TO.C,R34*%
G36*
G01*
X149875900Y-49579850D02*
X149875900Y-48667350D01*
G75*
G02*
X150119650Y-48423600I243750J0D01*
G01*
X150607150Y-48423600D01*
G75*
G02*
X150850900Y-48667350I0J-243750D01*
G01*
X150850900Y-49579850D01*
G75*
G02*
X150607150Y-49823600I-243750J0D01*
G01*
X150119650Y-49823600D01*
G75*
G02*
X149875900Y-49579850I0J243750D01*
G01*
G37*
G36*
G01*
X148000900Y-49579850D02*
X148000900Y-48667350D01*
G75*
G02*
X148244650Y-48423600I243750J0D01*
G01*
X148732150Y-48423600D01*
G75*
G02*
X148975900Y-48667350I0J-243750D01*
G01*
X148975900Y-49579850D01*
G75*
G02*
X148732150Y-49823600I-243750J0D01*
G01*
X148244650Y-49823600D01*
G75*
G02*
X148000900Y-49579850I0J243750D01*
G01*
G37*
%TD*%
%TO.C,R35*%
G36*
G01*
X159849400Y-101956550D02*
X159849400Y-102869050D01*
G75*
G02*
X159605650Y-103112800I-243750J0D01*
G01*
X159118150Y-103112800D01*
G75*
G02*
X158874400Y-102869050I0J243750D01*
G01*
X158874400Y-101956550D01*
G75*
G02*
X159118150Y-101712800I243750J0D01*
G01*
X159605650Y-101712800D01*
G75*
G02*
X159849400Y-101956550I0J-243750D01*
G01*
G37*
G36*
G01*
X161724400Y-101956550D02*
X161724400Y-102869050D01*
G75*
G02*
X161480650Y-103112800I-243750J0D01*
G01*
X160993150Y-103112800D01*
G75*
G02*
X160749400Y-102869050I0J243750D01*
G01*
X160749400Y-101956550D01*
G75*
G02*
X160993150Y-101712800I243750J0D01*
G01*
X161480650Y-101712800D01*
G75*
G02*
X161724400Y-101956550I0J-243750D01*
G01*
G37*
%TD*%
%TO.C,R36*%
G36*
G01*
X155193050Y-49301700D02*
X154280550Y-49301700D01*
G75*
G02*
X154036800Y-49057950I0J243750D01*
G01*
X154036800Y-48570450D01*
G75*
G02*
X154280550Y-48326700I243750J0D01*
G01*
X155193050Y-48326700D01*
G75*
G02*
X155436800Y-48570450I0J-243750D01*
G01*
X155436800Y-49057950D01*
G75*
G02*
X155193050Y-49301700I-243750J0D01*
G01*
G37*
G36*
G01*
X155193050Y-47426700D02*
X154280550Y-47426700D01*
G75*
G02*
X154036800Y-47182950I0J243750D01*
G01*
X154036800Y-46695450D01*
G75*
G02*
X154280550Y-46451700I243750J0D01*
G01*
X155193050Y-46451700D01*
G75*
G02*
X155436800Y-46695450I0J-243750D01*
G01*
X155436800Y-47182950D01*
G75*
G02*
X155193050Y-47426700I-243750J0D01*
G01*
G37*
%TD*%
%TO.C,R37*%
G36*
G01*
X136037500Y-47827250D02*
X136037500Y-46914750D01*
G75*
G02*
X136281250Y-46671000I243750J0D01*
G01*
X136768750Y-46671000D01*
G75*
G02*
X137012500Y-46914750I0J-243750D01*
G01*
X137012500Y-47827250D01*
G75*
G02*
X136768750Y-48071000I-243750J0D01*
G01*
X136281250Y-48071000D01*
G75*
G02*
X136037500Y-47827250I0J243750D01*
G01*
G37*
G36*
G01*
X137912500Y-47827250D02*
X137912500Y-46914750D01*
G75*
G02*
X138156250Y-46671000I243750J0D01*
G01*
X138643750Y-46671000D01*
G75*
G02*
X138887500Y-46914750I0J-243750D01*
G01*
X138887500Y-47827250D01*
G75*
G02*
X138643750Y-48071000I-243750J0D01*
G01*
X138156250Y-48071000D01*
G75*
G02*
X137912500Y-47827250I0J243750D01*
G01*
G37*
%TD*%
%TO.C,R38*%
G36*
G01*
X146709450Y-47274300D02*
X145796950Y-47274300D01*
G75*
G02*
X145553200Y-47030550I0J243750D01*
G01*
X145553200Y-46543050D01*
G75*
G02*
X145796950Y-46299300I243750J0D01*
G01*
X146709450Y-46299300D01*
G75*
G02*
X146953200Y-46543050I0J-243750D01*
G01*
X146953200Y-47030550D01*
G75*
G02*
X146709450Y-47274300I-243750J0D01*
G01*
G37*
G36*
G01*
X146709450Y-49149300D02*
X145796950Y-49149300D01*
G75*
G02*
X145553200Y-48905550I0J243750D01*
G01*
X145553200Y-48418050D01*
G75*
G02*
X145796950Y-48174300I243750J0D01*
G01*
X146709450Y-48174300D01*
G75*
G02*
X146953200Y-48418050I0J-243750D01*
G01*
X146953200Y-48905550D01*
G75*
G02*
X146709450Y-49149300I-243750J0D01*
G01*
G37*
%TD*%
%TO.C,R39*%
G36*
G01*
X146099850Y-98379100D02*
X145187350Y-98379100D01*
G75*
G02*
X144943600Y-98135350I0J243750D01*
G01*
X144943600Y-97647850D01*
G75*
G02*
X145187350Y-97404100I243750J0D01*
G01*
X146099850Y-97404100D01*
G75*
G02*
X146343600Y-97647850I0J-243750D01*
G01*
X146343600Y-98135350D01*
G75*
G02*
X146099850Y-98379100I-243750J0D01*
G01*
G37*
G36*
G01*
X146099850Y-100254100D02*
X145187350Y-100254100D01*
G75*
G02*
X144943600Y-100010350I0J243750D01*
G01*
X144943600Y-99522850D01*
G75*
G02*
X145187350Y-99279100I243750J0D01*
G01*
X146099850Y-99279100D01*
G75*
G02*
X146343600Y-99522850I0J-243750D01*
G01*
X146343600Y-100010350D01*
G75*
G02*
X146099850Y-100254100I-243750J0D01*
G01*
G37*
%TD*%
%TO.C,R40*%
G36*
G01*
X146736100Y-73686350D02*
X146736100Y-74598850D01*
G75*
G02*
X146492350Y-74842600I-243750J0D01*
G01*
X146004850Y-74842600D01*
G75*
G02*
X145761100Y-74598850I0J243750D01*
G01*
X145761100Y-73686350D01*
G75*
G02*
X146004850Y-73442600I243750J0D01*
G01*
X146492350Y-73442600D01*
G75*
G02*
X146736100Y-73686350I0J-243750D01*
G01*
G37*
G36*
G01*
X144861100Y-73686350D02*
X144861100Y-74598850D01*
G75*
G02*
X144617350Y-74842600I-243750J0D01*
G01*
X144129850Y-74842600D01*
G75*
G02*
X143886100Y-74598850I0J243750D01*
G01*
X143886100Y-73686350D01*
G75*
G02*
X144129850Y-73442600I243750J0D01*
G01*
X144617350Y-73442600D01*
G75*
G02*
X144861100Y-73686350I0J-243750D01*
G01*
G37*
%TD*%
%TO.C,R41*%
G36*
G01*
X135554900Y-120445850D02*
X135554900Y-119533350D01*
G75*
G02*
X135798650Y-119289600I243750J0D01*
G01*
X136286150Y-119289600D01*
G75*
G02*
X136529900Y-119533350I0J-243750D01*
G01*
X136529900Y-120445850D01*
G75*
G02*
X136286150Y-120689600I-243750J0D01*
G01*
X135798650Y-120689600D01*
G75*
G02*
X135554900Y-120445850I0J243750D01*
G01*
G37*
G36*
G01*
X137429900Y-120445850D02*
X137429900Y-119533350D01*
G75*
G02*
X137673650Y-119289600I243750J0D01*
G01*
X138161150Y-119289600D01*
G75*
G02*
X138404900Y-119533350I0J-243750D01*
G01*
X138404900Y-120445850D01*
G75*
G02*
X138161150Y-120689600I-243750J0D01*
G01*
X137673650Y-120689600D01*
G75*
G02*
X137429900Y-120445850I0J243750D01*
G01*
G37*
%TD*%
%TO.C,R42*%
G36*
G01*
X132104450Y-122867000D02*
X131191950Y-122867000D01*
G75*
G02*
X130948200Y-122623250I0J243750D01*
G01*
X130948200Y-122135750D01*
G75*
G02*
X131191950Y-121892000I243750J0D01*
G01*
X132104450Y-121892000D01*
G75*
G02*
X132348200Y-122135750I0J-243750D01*
G01*
X132348200Y-122623250D01*
G75*
G02*
X132104450Y-122867000I-243750J0D01*
G01*
G37*
G36*
G01*
X132104450Y-124742000D02*
X131191950Y-124742000D01*
G75*
G02*
X130948200Y-124498250I0J243750D01*
G01*
X130948200Y-124010750D01*
G75*
G02*
X131191950Y-123767000I243750J0D01*
G01*
X132104450Y-123767000D01*
G75*
G02*
X132348200Y-124010750I0J-243750D01*
G01*
X132348200Y-124498250D01*
G75*
G02*
X132104450Y-124742000I-243750J0D01*
G01*
G37*
%TD*%
%TO.C,R43*%
G36*
G01*
X132104450Y-120599500D02*
X131191950Y-120599500D01*
G75*
G02*
X130948200Y-120355750I0J243750D01*
G01*
X130948200Y-119868250D01*
G75*
G02*
X131191950Y-119624500I243750J0D01*
G01*
X132104450Y-119624500D01*
G75*
G02*
X132348200Y-119868250I0J-243750D01*
G01*
X132348200Y-120355750D01*
G75*
G02*
X132104450Y-120599500I-243750J0D01*
G01*
G37*
G36*
G01*
X132104450Y-118724500D02*
X131191950Y-118724500D01*
G75*
G02*
X130948200Y-118480750I0J243750D01*
G01*
X130948200Y-117993250D01*
G75*
G02*
X131191950Y-117749500I243750J0D01*
G01*
X132104450Y-117749500D01*
G75*
G02*
X132348200Y-117993250I0J-243750D01*
G01*
X132348200Y-118480750D01*
G75*
G02*
X132104450Y-118724500I-243750J0D01*
G01*
G37*
%TD*%
%TO.C,R44*%
G36*
G01*
X131621850Y-55427700D02*
X130709350Y-55427700D01*
G75*
G02*
X130465600Y-55183950I0J243750D01*
G01*
X130465600Y-54696450D01*
G75*
G02*
X130709350Y-54452700I243750J0D01*
G01*
X131621850Y-54452700D01*
G75*
G02*
X131865600Y-54696450I0J-243750D01*
G01*
X131865600Y-55183950D01*
G75*
G02*
X131621850Y-55427700I-243750J0D01*
G01*
G37*
G36*
G01*
X131621850Y-57302700D02*
X130709350Y-57302700D01*
G75*
G02*
X130465600Y-57058950I0J243750D01*
G01*
X130465600Y-56571450D01*
G75*
G02*
X130709350Y-56327700I243750J0D01*
G01*
X131621850Y-56327700D01*
G75*
G02*
X131865600Y-56571450I0J-243750D01*
G01*
X131865600Y-57058950D01*
G75*
G02*
X131621850Y-57302700I-243750J0D01*
G01*
G37*
%TD*%
%TO.C,R45*%
G36*
G01*
X125424250Y-49177000D02*
X124511750Y-49177000D01*
G75*
G02*
X124268000Y-48933250I0J243750D01*
G01*
X124268000Y-48445750D01*
G75*
G02*
X124511750Y-48202000I243750J0D01*
G01*
X125424250Y-48202000D01*
G75*
G02*
X125668000Y-48445750I0J-243750D01*
G01*
X125668000Y-48933250D01*
G75*
G02*
X125424250Y-49177000I-243750J0D01*
G01*
G37*
G36*
G01*
X125424250Y-47302000D02*
X124511750Y-47302000D01*
G75*
G02*
X124268000Y-47058250I0J243750D01*
G01*
X124268000Y-46570750D01*
G75*
G02*
X124511750Y-46327000I243750J0D01*
G01*
X125424250Y-46327000D01*
G75*
G02*
X125668000Y-46570750I0J-243750D01*
G01*
X125668000Y-47058250D01*
G75*
G02*
X125424250Y-47302000I-243750J0D01*
G01*
G37*
%TD*%
%TO.C,R47*%
G36*
G01*
X148641750Y-76499900D02*
X149554250Y-76499900D01*
G75*
G02*
X149798000Y-76743650I0J-243750D01*
G01*
X149798000Y-77231150D01*
G75*
G02*
X149554250Y-77474900I-243750J0D01*
G01*
X148641750Y-77474900D01*
G75*
G02*
X148398000Y-77231150I0J243750D01*
G01*
X148398000Y-76743650D01*
G75*
G02*
X148641750Y-76499900I243750J0D01*
G01*
G37*
G36*
G01*
X148641750Y-74624900D02*
X149554250Y-74624900D01*
G75*
G02*
X149798000Y-74868650I0J-243750D01*
G01*
X149798000Y-75356150D01*
G75*
G02*
X149554250Y-75599900I-243750J0D01*
G01*
X148641750Y-75599900D01*
G75*
G02*
X148398000Y-75356150I0J243750D01*
G01*
X148398000Y-74868650D01*
G75*
G02*
X148641750Y-74624900I243750J0D01*
G01*
G37*
%TD*%
%TO.C,R48*%
G36*
G01*
X164921250Y-88854100D02*
X164008750Y-88854100D01*
G75*
G02*
X163765000Y-88610350I0J243750D01*
G01*
X163765000Y-88122850D01*
G75*
G02*
X164008750Y-87879100I243750J0D01*
G01*
X164921250Y-87879100D01*
G75*
G02*
X165165000Y-88122850I0J-243750D01*
G01*
X165165000Y-88610350D01*
G75*
G02*
X164921250Y-88854100I-243750J0D01*
G01*
G37*
G36*
G01*
X164921250Y-86979100D02*
X164008750Y-86979100D01*
G75*
G02*
X163765000Y-86735350I0J243750D01*
G01*
X163765000Y-86247850D01*
G75*
G02*
X164008750Y-86004100I243750J0D01*
G01*
X164921250Y-86004100D01*
G75*
G02*
X165165000Y-86247850I0J-243750D01*
G01*
X165165000Y-86735350D01*
G75*
G02*
X164921250Y-86979100I-243750J0D01*
G01*
G37*
%TD*%
%TO.C,R49*%
G36*
G01*
X145490900Y-115950050D02*
X145490900Y-115037550D01*
G75*
G02*
X145734650Y-114793800I243750J0D01*
G01*
X146222150Y-114793800D01*
G75*
G02*
X146465900Y-115037550I0J-243750D01*
G01*
X146465900Y-115950050D01*
G75*
G02*
X146222150Y-116193800I-243750J0D01*
G01*
X145734650Y-116193800D01*
G75*
G02*
X145490900Y-115950050I0J243750D01*
G01*
G37*
G36*
G01*
X147365900Y-115950050D02*
X147365900Y-115037550D01*
G75*
G02*
X147609650Y-114793800I243750J0D01*
G01*
X148097150Y-114793800D01*
G75*
G02*
X148340900Y-115037550I0J-243750D01*
G01*
X148340900Y-115950050D01*
G75*
G02*
X148097150Y-116193800I-243750J0D01*
G01*
X147609650Y-116193800D01*
G75*
G02*
X147365900Y-115950050I0J243750D01*
G01*
G37*
%TD*%
D14*
%TO.C,RG1*%
X112034400Y-63677800D03*
X110134400Y-63677800D03*
X111084400Y-65677800D03*
%TD*%
%TO.C,SW1*%
G36*
G01*
X154367400Y-119822300D02*
X154367400Y-119547300D01*
G75*
G02*
X154504900Y-119409800I137500J0D01*
G01*
X155679900Y-119409800D01*
G75*
G02*
X155817400Y-119547300I0J-137500D01*
G01*
X155817400Y-119822300D01*
G75*
G02*
X155679900Y-119959800I-137500J0D01*
G01*
X154504900Y-119959800D01*
G75*
G02*
X154367400Y-119822300I0J137500D01*
G01*
G37*
G36*
G01*
X154367400Y-122362300D02*
X154367400Y-122087300D01*
G75*
G02*
X154504900Y-121949800I137500J0D01*
G01*
X155679900Y-121949800D01*
G75*
G02*
X155817400Y-122087300I0J-137500D01*
G01*
X155817400Y-122362300D01*
G75*
G02*
X155679900Y-122499800I-137500J0D01*
G01*
X154504900Y-122499800D01*
G75*
G02*
X154367400Y-122362300I0J137500D01*
G01*
G37*
G36*
G01*
X159867400Y-122362300D02*
X159867400Y-122087300D01*
G75*
G02*
X160004900Y-121949800I137500J0D01*
G01*
X161179900Y-121949800D01*
G75*
G02*
X161317400Y-122087300I0J-137500D01*
G01*
X161317400Y-122362300D01*
G75*
G02*
X161179900Y-122499800I-137500J0D01*
G01*
X160004900Y-122499800D01*
G75*
G02*
X159867400Y-122362300I0J137500D01*
G01*
G37*
G36*
G01*
X159867400Y-119822300D02*
X159867400Y-119547300D01*
G75*
G02*
X160004900Y-119409800I137500J0D01*
G01*
X161179900Y-119409800D01*
G75*
G02*
X161317400Y-119547300I0J-137500D01*
G01*
X161317400Y-119822300D01*
G75*
G02*
X161179900Y-119959800I-137500J0D01*
G01*
X160004900Y-119959800D01*
G75*
G02*
X159867400Y-119822300I0J137500D01*
G01*
G37*
%TD*%
D12*
%TO.C,TR1*%
X162650300Y-106805600D03*
X162650300Y-109805600D03*
D13*
G36*
X166600300Y-109172100D02*
G01*
X163475300Y-109172100D01*
X163475300Y-108755600D01*
X162000300Y-108755600D01*
X162000300Y-107855600D01*
X163475300Y-107855600D01*
X163475300Y-107439100D01*
X166600300Y-107439100D01*
X166600300Y-109172100D01*
G37*
%TD*%
D15*
%TO.C,TR2*%
X165457000Y-67666600D03*
X162457000Y-67666600D03*
D13*
G36*
X163090500Y-71616600D02*
G01*
X163090500Y-68491600D01*
X163507000Y-68491600D01*
X163507000Y-67016600D01*
X164407000Y-67016600D01*
X164407000Y-68491600D01*
X164823500Y-68491600D01*
X164823500Y-71616600D01*
X163090500Y-71616600D01*
G37*
%TD*%
%TO.C,TR3*%
G36*
X156314500Y-69201000D02*
G01*
X156314500Y-72326000D01*
X155898000Y-72326000D01*
X155898000Y-73801000D01*
X154998000Y-73801000D01*
X154998000Y-72326000D01*
X154581500Y-72326000D01*
X154581500Y-69201000D01*
X156314500Y-69201000D01*
G37*
D15*
X156948000Y-73151000D03*
X153948000Y-73151000D03*
%TD*%
%TO.C,TR4*%
X151488400Y-51638200D03*
X148488400Y-51638200D03*
D13*
G36*
X149121900Y-55588200D02*
G01*
X149121900Y-52463200D01*
X149538400Y-52463200D01*
X149538400Y-50988200D01*
X150438400Y-50988200D01*
X150438400Y-52463200D01*
X150854900Y-52463200D01*
X150854900Y-55588200D01*
X149121900Y-55588200D01*
G37*
%TD*%
D15*
%TO.C,TR5*%
X141809600Y-113120300D03*
X138809600Y-113120300D03*
D13*
G36*
X139443100Y-117070300D02*
G01*
X139443100Y-113945300D01*
X139859600Y-113945300D01*
X139859600Y-112470300D01*
X140759600Y-112470300D01*
X140759600Y-113945300D01*
X141176100Y-113945300D01*
X141176100Y-117070300D01*
X139443100Y-117070300D01*
G37*
%TD*%
%TO.C,TR10*%
G36*
X164823500Y-58533000D02*
G01*
X164823500Y-61658000D01*
X164407000Y-61658000D01*
X164407000Y-63133000D01*
X163507000Y-63133000D01*
X163507000Y-61658000D01*
X163090500Y-61658000D01*
X163090500Y-58533000D01*
X164823500Y-58533000D01*
G37*
D15*
X165457000Y-62483000D03*
X162457000Y-62483000D03*
%TD*%
D13*
%TO.C,TR11*%
G36*
X153198800Y-64462300D02*
G01*
X156323800Y-64462300D01*
X156323800Y-64878800D01*
X157798800Y-64878800D01*
X157798800Y-65778800D01*
X156323800Y-65778800D01*
X156323800Y-66195300D01*
X153198800Y-66195300D01*
X153198800Y-64462300D01*
G37*
D12*
X157148800Y-63828800D03*
X157148800Y-66828800D03*
%TD*%
D15*
%TO.C,TR12*%
X154049600Y-57555400D03*
X157049600Y-57555400D03*
D13*
G36*
X156416100Y-53605400D02*
G01*
X156416100Y-56730400D01*
X155999600Y-56730400D01*
X155999600Y-58205400D01*
X155099600Y-58205400D01*
X155099600Y-56730400D01*
X154683100Y-56730400D01*
X154683100Y-53605400D01*
X156416100Y-53605400D01*
G37*
%TD*%
%TO.C,TR14*%
G36*
X125147500Y-99037500D02*
G01*
X122022500Y-99037500D01*
X122022500Y-98621000D01*
X120547500Y-98621000D01*
X120547500Y-97721000D01*
X122022500Y-97721000D01*
X122022500Y-97304500D01*
X125147500Y-97304500D01*
X125147500Y-99037500D01*
G37*
D12*
X121197500Y-99671000D03*
X121197500Y-96671000D03*
%TD*%
D15*
%TO.C,TR15*%
X127354200Y-99516200D03*
X130354200Y-99516200D03*
D13*
G36*
X129720700Y-95566200D02*
G01*
X129720700Y-98691200D01*
X129304200Y-98691200D01*
X129304200Y-100166200D01*
X128404200Y-100166200D01*
X128404200Y-98691200D01*
X127987700Y-98691200D01*
X127987700Y-95566200D01*
X129720700Y-95566200D01*
G37*
%TD*%
%TO.C,TR16*%
G36*
X122049900Y-90156000D02*
G01*
X122049900Y-93281000D01*
X121633400Y-93281000D01*
X121633400Y-94756000D01*
X120733400Y-94756000D01*
X120733400Y-93281000D01*
X120316900Y-93281000D01*
X120316900Y-90156000D01*
X122049900Y-90156000D01*
G37*
D15*
X122683400Y-94106000D03*
X119683400Y-94106000D03*
%TD*%
D13*
%TO.C,TR17*%
G36*
X125625500Y-55487600D02*
G01*
X125625500Y-52362600D01*
X126042000Y-52362600D01*
X126042000Y-50887600D01*
X126942000Y-50887600D01*
X126942000Y-52362600D01*
X127358500Y-52362600D01*
X127358500Y-55487600D01*
X125625500Y-55487600D01*
G37*
D15*
X124992000Y-51537600D03*
X127992000Y-51537600D03*
%TD*%
D12*
%TO.C,TR18*%
X98754200Y-97588200D03*
X98754200Y-94588200D03*
D13*
G36*
X94804200Y-95221700D02*
G01*
X97929200Y-95221700D01*
X97929200Y-95638200D01*
X99404200Y-95638200D01*
X99404200Y-96538200D01*
X97929200Y-96538200D01*
X97929200Y-96954700D01*
X94804200Y-96954700D01*
X94804200Y-95221700D01*
G37*
%TD*%
D12*
%TO.C,TR19*%
X95403400Y-78383000D03*
X95403400Y-81383000D03*
D13*
G36*
X99353400Y-80749500D02*
G01*
X96228400Y-80749500D01*
X96228400Y-80333000D01*
X94753400Y-80333000D01*
X94753400Y-79433000D01*
X96228400Y-79433000D01*
X96228400Y-79016500D01*
X99353400Y-79016500D01*
X99353400Y-80749500D01*
G37*
%TD*%
%TO.C,TR20*%
G36*
X125236000Y-106886100D02*
G01*
X122111000Y-106886100D01*
X122111000Y-106469600D01*
X120636000Y-106469600D01*
X120636000Y-105569600D01*
X122111000Y-105569600D01*
X122111000Y-105153100D01*
X125236000Y-105153100D01*
X125236000Y-106886100D01*
G37*
D12*
X121286000Y-107519600D03*
X121286000Y-104519600D03*
%TD*%
D13*
%TO.C,TR21*%
G36*
X142674700Y-118350000D02*
G01*
X142674700Y-121475000D01*
X142258200Y-121475000D01*
X142258200Y-122950000D01*
X141358200Y-122950000D01*
X141358200Y-121475000D01*
X140941700Y-121475000D01*
X140941700Y-118350000D01*
X142674700Y-118350000D01*
G37*
D15*
X143308200Y-122300000D03*
X140308200Y-122300000D03*
%TD*%
%TO.C,R166*%
G36*
G01*
X84229001Y-94147000D02*
X81378999Y-94147000D01*
G75*
G02*
X81129000Y-93897001I0J249999D01*
G01*
X81129000Y-93046999D01*
G75*
G02*
X81378999Y-92797000I249999J0D01*
G01*
X84229001Y-92797000D01*
G75*
G02*
X84479000Y-93046999I0J-249999D01*
G01*
X84479000Y-93897001D01*
G75*
G02*
X84229001Y-94147000I-249999J0D01*
G01*
G37*
G36*
G01*
X84229001Y-99947000D02*
X81378999Y-99947000D01*
G75*
G02*
X81129000Y-99697001I0J249999D01*
G01*
X81129000Y-98846999D01*
G75*
G02*
X81378999Y-98597000I249999J0D01*
G01*
X84229001Y-98597000D01*
G75*
G02*
X84479000Y-98846999I0J-249999D01*
G01*
X84479000Y-99697001D01*
G75*
G02*
X84229001Y-99947000I-249999J0D01*
G01*
G37*
%TD*%
%TO.C,R177*%
G36*
G01*
X84229001Y-90036600D02*
X81378999Y-90036600D01*
G75*
G02*
X81129000Y-89786601I0J249999D01*
G01*
X81129000Y-88936599D01*
G75*
G02*
X81378999Y-88686600I249999J0D01*
G01*
X84229001Y-88686600D01*
G75*
G02*
X84479000Y-88936599I0J-249999D01*
G01*
X84479000Y-89786601D01*
G75*
G02*
X84229001Y-90036600I-249999J0D01*
G01*
G37*
G36*
G01*
X84229001Y-84236600D02*
X81378999Y-84236600D01*
G75*
G02*
X81129000Y-83986601I0J249999D01*
G01*
X81129000Y-83136599D01*
G75*
G02*
X81378999Y-82886600I249999J0D01*
G01*
X84229001Y-82886600D01*
G75*
G02*
X84479000Y-83136599I0J-249999D01*
G01*
X84479000Y-83986601D01*
G75*
G02*
X84229001Y-84236600I-249999J0D01*
G01*
G37*
%TD*%
%TO.C,R1*%
G36*
G01*
X165224750Y-72765100D02*
X165737250Y-72765100D01*
G75*
G02*
X165956000Y-72983850I0J-218750D01*
G01*
X165956000Y-73421350D01*
G75*
G02*
X165737250Y-73640100I-218750J0D01*
G01*
X165224750Y-73640100D01*
G75*
G02*
X165006000Y-73421350I0J218750D01*
G01*
X165006000Y-72983850D01*
G75*
G02*
X165224750Y-72765100I218750J0D01*
G01*
G37*
G36*
G01*
X165224750Y-74340100D02*
X165737250Y-74340100D01*
G75*
G02*
X165956000Y-74558850I0J-218750D01*
G01*
X165956000Y-74996350D01*
G75*
G02*
X165737250Y-75215100I-218750J0D01*
G01*
X165224750Y-75215100D01*
G75*
G02*
X165006000Y-74996350I0J218750D01*
G01*
X165006000Y-74558850D01*
G75*
G02*
X165224750Y-74340100I218750J0D01*
G01*
G37*
%TD*%
%TO.C,R46*%
G36*
G01*
X166747700Y-78666050D02*
X166747700Y-78153550D01*
G75*
G02*
X166966450Y-77934800I218750J0D01*
G01*
X167403950Y-77934800D01*
G75*
G02*
X167622700Y-78153550I0J-218750D01*
G01*
X167622700Y-78666050D01*
G75*
G02*
X167403950Y-78884800I-218750J0D01*
G01*
X166966450Y-78884800D01*
G75*
G02*
X166747700Y-78666050I0J218750D01*
G01*
G37*
G36*
G01*
X165172700Y-78666050D02*
X165172700Y-78153550D01*
G75*
G02*
X165391450Y-77934800I218750J0D01*
G01*
X165828950Y-77934800D01*
G75*
G02*
X166047700Y-78153550I0J-218750D01*
G01*
X166047700Y-78666050D01*
G75*
G02*
X165828950Y-78884800I-218750J0D01*
G01*
X165391450Y-78884800D01*
G75*
G02*
X165172700Y-78666050I0J218750D01*
G01*
G37*
%TD*%
M02*
