M48
; DRILL file {KiCad 5.1.6-c6e7f7d~87~ubuntu18.04.1} date Thu Oct 28 16:13:34 2021
; FORMAT={-:-/ absolute / metric / decimal}
; #@! TF.CreationDate,2021-10-28T16:13:34+13:00
; #@! TF.GenerationSoftware,Kicad,Pcbnew,5.1.6-c6e7f7d~87~ubuntu18.04.1
; #@! TF.FileFunction,Plated,1,2,PTH
FMAT,2
METRIC
T1C1.000
T2C1.200
T3C1.300
T4C1.500
T5C1.600
T6C2.200
T7C3.000
T8C3.500
%
G90
G05
T1
X84.023Y-118.516
X85.014Y-111.15
X85.522Y-64.745
X87.528Y-91.415
X90.551Y-83.972
X91.999Y-61.544
X96.368Y-103.581
X96.418Y-65.964
X98.754Y-90.933
X100.94Y-94.615
X109.804Y-90.119
X113.106Y-99.898
X114.275Y-65.608
X117.704Y-91.948
X117.932Y-72.212
X118.643Y-77.343
X119.888Y-110.973
X121.539Y-72.06
X122.25Y-51.384
X123.8Y-95.453
X124.689Y-89.408
X125.425Y-78.638
X126.517Y-96.139
X127.254Y-72.466
X129.87Y-107.32
X130.354Y-102.107
X131.699Y-96.825
X133.121Y-90.246
X137.693Y-91.084
X137.897Y-100.457
X141.326Y-110.211
X145.364Y-106.528
X145.644Y-102.514
X146.406Y-89.891
X146.456Y-94.361
X150.393Y-115.494
X150.671Y-72.515
X151.308Y-86.817
X151.689Y-78.359
X152.019Y-119.685
X152.019Y-122.225
X152.298Y-49.124
X152.705Y-110.363
X152.831Y-54.84
X155.575Y-60.604
X156.312Y-78.359
X159.944Y-111.531
X160.299Y-53.061
X162.89Y-49.733
X163.957Y-64.999
X169.672Y-51.029
X171.069Y-119.99
X103.988Y-61.773
X103.988Y-64.313
X103.988Y-66.853
X103.784Y-108.28
X103.784Y-110.82
X103.784Y-113.36
X111.354Y-108.433
X111.354Y-110.973
X111.354Y-113.513
T2
X131.246Y-68.809
X136.246Y-68.809
X139.903Y-53.34
X139.903Y-58.34
T3
X118.364Y-115.468
X118.364Y-120.468
X128.364Y-117.968
X161.595Y-130.581
X71.5Y-79.89
X71.5Y-94.5
X77.39Y-74.5
X92.0Y-74.5
X167.386Y-84.252
X166.243Y-130.505
X167.259Y-91.135
X77.39Y-100.0
X92.0Y-100.0
T4
X77.394Y-105.421
X77.394Y-110.871
X77.394Y-116.321
X118.008Y-129.946
X140.608Y-129.946
X77.394Y-58.558
X77.394Y-64.008
X77.394Y-69.458
X116.967Y-43.383
X139.567Y-43.383
T5
X86.5Y-75.5
X101.422Y-48.666
X101.778Y-124.993
T6
X96.952Y-73.914
X150.622Y-82.906
X150.063Y-41.478
X71.5Y-87.0
X150.47Y-132.537
T7
X56.889Y-64.008
X56.889Y-110.871
T8
X107.531Y-98.031
X107.531Y-123.431
X107.544Y-51.384
X107.544Y-76.784
T0
M30
