%TF.GenerationSoftware,KiCad,Pcbnew,5.1.6-c6e7f7d~87~ubuntu18.04.1*%
%TF.CreationDate,2021-10-28T16:13:36+13:00*%
%TF.ProjectId,Trimodal SMD Sep20,5472696d-6f64-4616-9c20-534d44205365,rev?*%
%TF.SameCoordinates,Original*%
%TF.FileFunction,Soldermask,Bot*%
%TF.FilePolarity,Negative*%
%FSLAX46Y46*%
G04 Gerber Fmt 4.6, Leading zero omitted, Abs format (unit mm)*
G04 Created by KiCad (PCBNEW 5.1.6-c6e7f7d~87~ubuntu18.04.1) date 2021-10-28 16:13:36*
%MOMM*%
%LPD*%
G01*
G04 APERTURE LIST*
%ADD10R,2.500000X2.500000*%
%ADD11C,2.500000*%
%ADD12C,3.100000*%
%ADD13C,6.100000*%
%ADD14C,2.700000*%
%ADD15C,4.500000*%
%ADD16C,2.440000*%
%ADD17R,1.900000X1.900000*%
%ADD18O,1.900000X1.900000*%
%ADD19R,4.600000X2.600000*%
%ADD20O,4.600000X2.600000*%
G04 APERTURE END LIST*
D10*
%TO.C,C2*%
X136245600Y-68808600D03*
D11*
X131245600Y-68808600D03*
%TD*%
%TO.C,C12*%
X139903200Y-53340000D03*
D10*
X139903200Y-58340000D03*
%TD*%
D12*
%TO.C,F1*%
X140608400Y-129946400D03*
X118008400Y-129946400D03*
%TD*%
%TO.C,F2*%
X116967000Y-43383200D03*
X139567000Y-43383200D03*
%TD*%
D13*
%TO.C,HS1*%
X107543600Y-51384200D03*
X107543600Y-76784200D03*
%TD*%
%TO.C,HS2*%
X107530900Y-98031300D03*
X107530900Y-123431300D03*
%TD*%
D14*
%TO.C,J1*%
X167259000Y-91135200D03*
%TD*%
%TO.C,J2*%
X167386000Y-84251800D03*
%TD*%
D15*
%TO.C,J3*%
X96951800Y-73914000D03*
%TD*%
%TO.C,J4*%
X150622000Y-82905600D03*
%TD*%
%TO.C,JL1*%
X150469600Y-132537200D03*
%TD*%
%TO.C,JL2*%
X150063200Y-41478200D03*
%TD*%
D16*
%TO.C,PR1*%
X118364000Y-115468400D03*
X128364000Y-117968400D03*
X118364000Y-120468400D03*
%TD*%
D15*
%TO.C,TP3*%
X71500000Y-87000000D03*
%TD*%
D17*
%TO.C,TR6*%
X103784400Y-113360200D03*
D18*
X103784400Y-110820200D03*
X103784400Y-108280200D03*
%TD*%
D19*
%TO.C,TR7*%
X77393800Y-116321000D03*
D20*
X77393800Y-110871000D03*
X77393800Y-105421000D03*
%TD*%
D18*
%TO.C,TR8*%
X103987600Y-61772800D03*
X103987600Y-64312800D03*
D17*
X103987600Y-66852800D03*
%TD*%
D20*
%TO.C,TR9*%
X77393800Y-58558000D03*
X77393800Y-64008000D03*
D19*
X77393800Y-69458000D03*
%TD*%
D17*
%TO.C,TR13*%
X111353600Y-108432600D03*
D18*
X111353600Y-110972600D03*
X111353600Y-113512600D03*
%TD*%
D14*
%TO.C,TP1*%
X166243000Y-130505200D03*
%TD*%
%TO.C,TP2*%
X161594800Y-130581400D03*
%TD*%
%TO.C,L1*%
X92000000Y-100000000D03*
X77390000Y-100000000D03*
%TD*%
%TO.C,L2*%
X92000000Y-74500000D03*
X77390000Y-74500000D03*
%TD*%
%TO.C,L3*%
X71500000Y-79890000D03*
X71500000Y-94500000D03*
%TD*%
M02*
