  0
SECTION
  2
HEADER
  9
$ACADVER
  1
AC1014
  9
$HANDSEED
  5
FFFF
  9
$MEASUREMENT
 70
     1
  0
ENDSEC
  0
SECTION
  2
TABLES
  0
TABLE
  2
VPORT
  5
8
330
0
100
AcDbSymbolTable
 70
     4
  0
VPORT
  5
2E
330
8
100
AcDbSymbolTableRecord
100
AcDbViewportTableRecord
  2
*ACTIVE
 70
     0
 10
0.0
 20
0.0
 11
1.0
 21
1.0
 12
210.0
 22
148.5
 13
0.0
 23
0.0
 14
10.0
 24
10.0
 15
10.0
 25
10.0
 16
0.0
 26
0.0
 36
1.0
 17
0.0
 27
0.0
 37
0.0
 40
341.0
 41
1.24
 42
50.0
 43
0.0
 44
0.0
 50
0.0
 51
0.0
 71
     0
 72
   100
 73
     1
 74
     3
 75
     0
 76
     0
 77
     0
 78
     0
  0
ENDTAB
  0
TABLE
  2
LTYPE
  5
5
330
0
100
AcDbSymbolTable
 70
     1
  0
LTYPE
  5
14
330
5
100
AcDbSymbolTableRecord
100
AcDbLinetypeTableRecord
  2
BYBLOCK
 70
     0
  3

 72
    65
 73
     0
 40
0.0
  0
LTYPE
  5
15
330
5
100
AcDbSymbolTableRecord
100
AcDbLinetypeTableRecord
  2
BYLAYER
 70
     0
  3

 72
    65
 73
     0
 40
0.0
  0
LTYPE
  5
16
330
5
100
AcDbSymbolTableRecord
100
AcDbLinetypeTableRecord
  2
CONTINUOUS
 70
     0
  3
Solid line
 72
    65
 73
     0
 40
0.0
  0
ENDTAB
  0
TABLE
  2
LAYER
  5
2
100
AcDbSymbolTable
 70
2
  0
LAYER
  5
50
100
AcDbSymbolTableRecord
100
AcDbLayerTableRecord
  2
0
 70
0
  6
CONTINUOUS
  0
LAYER
  5
51
100
AcDbSymbolTableRecord
100
AcDbLayerTableRecord
  2
Layer_1
 70
0
  6
CONTINUOUS
  0
ENDTAB
  0
TABLE
  2
STYLE
  5
3
330
0
100
AcDbSymbolTable
 70
     1
  0
STYLE
  5
11
330
3
100
AcDbSymbolTableRecord
100
AcDbTextStyleTableRecord
  2
STANDARD
 70
     0
 40
0.0
 41
1.0
 50
0.0
 71
     0
 42
2.5
  3
txt
  4

  0
ENDTAB
  0
TABLE
  2
VIEW
  5
6
330
0
100
AcDbSymbolTable
 70
     0
  0
ENDTAB
  0
TABLE
  2
UCS
  5
7
330
0
100
AcDbSymbolTable
 70
     0
  0
ENDTAB
  0
TABLE
  2
APPID
  5
9
330
0
100
AcDbSymbolTable
 70
     2
  0
APPID
  5
12
330
9
100
AcDbSymbolTableRecord
100
AcDbRegAppTableRecord
  2
ACAD
 70
     0
  0
ENDTAB
  0
TABLE
  2
DIMSTYLE
  5
A
330
0
100
AcDbSymbolTable
 70
     1
  0
DIMSTYLE
105
27
330
A
100
AcDbSymbolTableRecord
100
AcDbDimStyleTableRecord
  2
ISO-25
 70
     0
  3

  4

  5

  6

  7

 40
1.0
 41
2.5
 42
0.625
 43
3.75
 44
1.25
 45
0.0
 46
0.0
 47
0.0
 48
0.0
140
2.5
141
2.5
142
0.0
143
0.03937007874016
144
1.0
145
0.0
146
1.0
147
0.625
 71
     0
 72
     0
 73
     0
 74
     0
 75
     0
 76
     0
 77
     1
 78
     8
170
     0
171
     3
172
     1
173
     0
174
     0
175
     0
176
     0
177
     0
178
     0
270
     2
271
     2
272
     2
273
     2
274
     3
340
11
275
     0
280
     0
281
     0
282
     0
283
     0
284
     8
285
     0
286
     0
287
     3
288
     0
  0
ENDTAB
  0
TABLE
  2
BLOCK_RECORD
  5
1
330
0
100
AcDbSymbolTable
 70
     1
  0
BLOCK_RECORD
  5
1F
330
1
100
AcDbSymbolTableRecord
100
AcDbBlockTableRecord
  2
*MODEL_SPACE
  0
BLOCK_RECORD
  5
1B
330
1
100
AcDbSymbolTableRecord
100
AcDbBlockTableRecord
  2
*PAPER_SPACE
  0
ENDTAB
  0
ENDSEC
  0
SECTION
  2
BLOCKS
  0
BLOCK
  5
20
330
1F
100
AcDbEntity
  8
0
100
AcDbBlockBegin
  2
*MODEL_SPACE
 70
     0
 10
0.0
 20
0.0
 30
0.0
  3
*MODEL_SPACE
  1

  0
ENDBLK
  5
21
330
1F
100
AcDbEntity
  8
0
100
AcDbBlockEnd
  0
BLOCK
  5
1C
330
1B
100
AcDbEntity
 67
     1
  8
0
100
AcDbBlockBegin
  2
*PAPER_SPACE
  1

  0
ENDBLK
  5
1D
330
1B
100
AcDbEntity
 67
     1
  8
0
100
AcDbBlockEnd
  0
ENDSEC
  0
SECTION
  2
ENTITIES
  0
SPLINE
  5
100
100
AcDbEntity
  8
Layer_1
 62
7
100
AcDbSpline
 70
8
 71
3
 72
8
 73
4
 74
0
 40
0
 40
0
 40
0
 40
0
 40
1
 40
1
 40
1
 40
1
 10
98.592780
 20
564.364975
 30
0.0
 10
97.934746
 20
563.805858
 30
0.0
 10
96.948281
 20
563.884889
 30
0.0
 10
96.387669
 20
564.541638
 30
0.0
  0
SPLINE
  5
101
100
AcDbEntity
  8
Layer_1
 62
7
100
AcDbSpline
 70
8
 71
3
 72
8
 73
4
 74
0
 40
0
 40
0
 40
0
 40
0
 40
1
 40
1
 40
1
 40
1
 10
96.387669
 20
564.541638
 30
0.0
 10
95.827062
 20
565.198386
 30
0.0
 10
95.903899
 20
566.184991
 30
0.0
 10
96.559431
 20
566.747045
 30
0.0
  0
SPLINE
  5
102
100
AcDbEntity
  8
Layer_1
 62
7
100
AcDbSpline
 70
8
 71
3
 72
8
 73
4
 74
0
 40
0
 40
0
 40
0
 40
0
 40
1
 40
1
 40
1
 40
1
 10
96.559431
 20
566.747045
 30
0.0
 10
97.214968
 20
567.309100
 30
0.0
 10
98.201779
 20
567.234461
 30
0.0
 10
98.769834
 20
566.574908
 30
0.0
  0
SPLINE
  5
103
100
AcDbEntity
  8
Layer_1
 62
7
100
AcDbSpline
 70
8
 71
3
 72
8
 73
4
 74
0
 40
0
 40
0
 40
0
 40
0
 40
1
 40
1
 40
1
 40
1
 10
98.769834
 20
566.574908
 30
0.0
 10
99.332042
 20
565.910354
 30
0.0
 10
99.250812
 20
564.924093
 30
0.0
 10
98.592780
 20
564.364975
 30
0.0
  0
SPLINE
  5
104
100
AcDbEntity
  8
Layer_1
 62
7
100
AcDbSpline
 70
8
 71
3
 72
8
 73
4
 74
0
 40
0
 40
0
 40
0
 40
0
 40
1
 40
1
 40
1
 40
1
 10
138.592780
 20
564.364975
 30
0.0
 10
137.934750
 20
563.805858
 30
0.0
 10
136.948280
 20
563.884889
 30
0.0
 10
136.387671
 20
564.541638
 30
0.0
  0
SPLINE
  5
105
100
AcDbEntity
  8
Layer_1
 62
7
100
AcDbSpline
 70
8
 71
3
 72
8
 73
4
 74
0
 40
0
 40
0
 40
0
 40
0
 40
1
 40
1
 40
1
 40
1
 10
136.387671
 20
564.541638
 30
0.0
 10
135.827061
 20
565.198386
 30
0.0
 10
135.903899
 20
566.184991
 30
0.0
 10
136.559430
 20
566.747045
 30
0.0
  0
SPLINE
  5
106
100
AcDbEntity
  8
Layer_1
 62
7
100
AcDbSpline
 70
8
 71
3
 72
8
 73
4
 74
0
 40
0
 40
0
 40
0
 40
0
 40
1
 40
1
 40
1
 40
1
 10
136.559430
 20
566.747045
 30
0.0
 10
137.214970
 20
567.309100
 30
0.0
 10
138.201781
 20
567.234461
 30
0.0
 10
138.769839
 20
566.574908
 30
0.0
  0
SPLINE
  5
107
100
AcDbEntity
  8
Layer_1
 62
7
100
AcDbSpline
 70
8
 71
3
 72
8
 73
4
 74
0
 40
0
 40
0
 40
0
 40
0
 40
1
 40
1
 40
1
 40
1
 10
138.769839
 20
566.574908
 30
0.0
 10
139.332039
 20
565.910354
 30
0.0
 10
139.250809
 20
564.924093
 30
0.0
 10
138.592780
 20
564.364975
 30
0.0
  0
SPLINE
  5
108
100
AcDbEntity
  8
Layer_1
 62
5
100
AcDbSpline
 70
8
 71
3
 72
8
 73
4
 74
0
 40
0
 40
0
 40
0
 40
0
 40
1
 40
1
 40
1
 40
1
 10
193.633370
 20
540.303288
 30
0.0
 10
192.705651
 20
539.514978
 30
0.0
 10
191.314880
 20
539.626407
 30
0.0
 10
190.524511
 20
540.552377
 30
0.0
  0
SPLINE
  5
109
100
AcDbEntity
  8
Layer_1
 62
5
100
AcDbSpline
 70
8
 71
3
 72
8
 73
4
 74
0
 40
0
 40
0
 40
0
 40
0
 40
1
 40
1
 40
1
 40
1
 10
190.524511
 20
540.552377
 30
0.0
 10
189.734140
 20
541.478348
 30
0.0
 10
189.842471
 20
542.869357
 30
0.0
 10
190.766671
 20
543.661798
 30
0.0
  0
SPLINE
  5
10a
100
AcDbEntity
  8
Layer_1
 62
5
100
AcDbSpline
 70
8
 71
3
 72
8
 73
4
 74
0
 40
0
 40
0
 40
0
 40
0
 40
1
 40
1
 40
1
 40
1
 10
190.766671
 20
543.661798
 30
0.0
 10
191.690879
 20
544.454227
 30
0.0
 10
193.082119
 20
544.348987
 30
0.0
 10
193.882989
 20
543.419069
 30
0.0
  0
SPLINE
  5
10b
100
AcDbEntity
  8
Layer_1
 62
5
100
AcDbSpline
 70
8
 71
3
 72
8
 73
4
 74
0
 40
0
 40
0
 40
0
 40
0
 40
1
 40
1
 40
1
 40
1
 10
193.882989
 20
543.419069
 30
0.0
 10
194.675609
 20
542.482119
 30
0.0
 10
194.561090
 20
541.091598
 30
0.0
 10
193.633370
 20
540.303288
 30
0.0
  0
SPLINE
  5
10c
100
AcDbEntity
  8
Layer_1
 62
5
100
AcDbSpline
 70
8
 71
3
 72
8
 73
4
 74
0
 40
0
 40
0
 40
0
 40
0
 40
1
 40
1
 40
1
 40
1
 10
193.633370
 20
611.803285
 30
0.0
 10
192.705651
 20
611.014959
 30
0.0
 10
191.314880
 20
611.126375
 30
0.0
 10
190.524511
 20
612.052364
 30
0.0
  0
SPLINE
  5
10d
100
AcDbEntity
  8
Layer_1
 62
5
100
AcDbSpline
 70
8
 71
3
 72
8
 73
4
 74
0
 40
0
 40
0
 40
0
 40
0
 40
1
 40
1
 40
1
 40
1
 10
190.524511
 20
612.052364
 30
0.0
 10
189.734140
 20
612.978326
 30
0.0
 10
189.842471
 20
614.369347
 30
0.0
 10
190.766671
 20
615.161774
 30
0.0
  0
SPLINE
  5
10e
100
AcDbEntity
  8
Layer_1
 62
5
100
AcDbSpline
 70
8
 71
3
 72
8
 73
4
 74
0
 40
0
 40
0
 40
0
 40
0
 40
1
 40
1
 40
1
 40
1
 10
190.766671
 20
615.161774
 30
0.0
 10
191.690871
 20
615.954227
 30
0.0
 10
193.082119
 20
615.848976
 30
0.0
 10
193.882989
 20
614.919045
 30
0.0
  0
SPLINE
  5
10f
100
AcDbEntity
  8
Layer_1
 62
5
100
AcDbSpline
 70
8
 71
3
 72
8
 73
4
 74
0
 40
0
 40
0
 40
0
 40
0
 40
1
 40
1
 40
1
 40
1
 10
193.882989
 20
614.919045
 30
0.0
 10
194.675609
 20
613.982103
 30
0.0
 10
194.561090
 20
612.591585
 30
0.0
 10
193.633370
 20
611.803285
 30
0.0
  0
SPLINE
  5
110
100
AcDbEntity
  8
Layer_1
 62
5
100
AcDbSpline
 70
8
 71
3
 72
8
 73
4
 74
0
 40
0
 40
0
 40
0
 40
0
 40
1
 40
1
 40
1
 40
1
 10
265.133323
 20
611.803285
 30
0.0
 10
264.205590
 20
611.014959
 30
0.0
 10
262.814821
 20
611.126375
 30
0.0
 10
262.024450
 20
612.052364
 30
0.0
  0
SPLINE
  5
111
100
AcDbEntity
  8
Layer_1
 62
5
100
AcDbSpline
 70
8
 71
3
 72
8
 73
4
 74
0
 40
0
 40
0
 40
0
 40
0
 40
1
 40
1
 40
1
 40
1
 10
262.024450
 20
612.052364
 30
0.0
 10
261.234079
 20
612.978326
 30
0.0
 10
261.342410
 20
614.369347
 30
0.0
 10
262.266610
 20
615.161774
 30
0.0
  0
SPLINE
  5
112
100
AcDbEntity
  8
Layer_1
 62
5
100
AcDbSpline
 70
8
 71
3
 72
8
 73
4
 74
0
 40
0
 40
0
 40
0
 40
0
 40
1
 40
1
 40
1
 40
1
 10
262.266610
 20
615.161774
 30
0.0
 10
263.190810
 20
615.954227
 30
0.0
 10
264.582061
 20
615.848976
 30
0.0
 10
265.382931
 20
614.919045
 30
0.0
  0
SPLINE
  5
113
100
AcDbEntity
  8
Layer_1
 62
5
100
AcDbSpline
 70
8
 71
3
 72
8
 73
4
 74
0
 40
0
 40
0
 40
0
 40
0
 40
1
 40
1
 40
1
 40
1
 10
265.382931
 20
614.919045
 30
0.0
 10
266.175543
 20
613.982103
 30
0.0
 10
266.061031
 20
612.591585
 30
0.0
 10
265.133323
 20
611.803285
 30
0.0
  0
SPLINE
  5
114
100
AcDbEntity
  8
Layer_1
 62
5
100
AcDbSpline
 70
8
 71
3
 72
8
 73
4
 74
0
 40
0
 40
0
 40
0
 40
0
 40
1
 40
1
 40
1
 40
1
 10
265.133323
 20
540.303288
 30
0.0
 10
264.205590
 20
539.514978
 30
0.0
 10
262.814821
 20
539.626407
 30
0.0
 10
262.024450
 20
540.552377
 30
0.0
  0
SPLINE
  5
115
100
AcDbEntity
  8
Layer_1
 62
5
100
AcDbSpline
 70
8
 71
3
 72
8
 73
4
 74
0
 40
0
 40
0
 40
0
 40
0
 40
1
 40
1
 40
1
 40
1
 10
262.024450
 20
540.552377
 30
0.0
 10
261.234079
 20
541.478348
 30
0.0
 10
261.342410
 20
542.869357
 30
0.0
 10
262.266610
 20
543.661798
 30
0.0
  0
SPLINE
  5
116
100
AcDbEntity
  8
Layer_1
 62
5
100
AcDbSpline
 70
8
 71
3
 72
8
 73
4
 74
0
 40
0
 40
0
 40
0
 40
0
 40
1
 40
1
 40
1
 40
1
 10
262.266610
 20
543.661798
 30
0.0
 10
263.190821
 20
544.454227
 30
0.0
 10
264.582061
 20
544.348987
 30
0.0
 10
265.382931
 20
543.419069
 30
0.0
  0
SPLINE
  5
117
100
AcDbEntity
  8
Layer_1
 62
5
100
AcDbSpline
 70
8
 71
3
 72
8
 73
4
 74
0
 40
0
 40
0
 40
0
 40
0
 40
1
 40
1
 40
1
 40
1
 10
265.382931
 20
543.419069
 30
0.0
 10
266.175543
 20
542.482119
 30
0.0
 10
266.061031
 20
541.091598
 30
0.0
 10
265.133323
 20
540.303288
 30
0.0
  0
SPLINE
  5
118
100
AcDbEntity
  8
Layer_1
 62
7
100
AcDbSpline
 70
8
 71
3
 72
8
 73
4
 74
0
 40
0
 40
0
 40
0
 40
0
 40
1
 40
1
 40
1
 40
1
 10
379.788446
 20
563.180594
 30
0.0
 10
374.600285
 20
558.770599
 30
0.0
 10
366.822620
 20
559.393957
 30
0.0
 10
362.402570
 20
564.574023
 30
0.0
  0
SPLINE
  5
119
100
AcDbEntity
  8
Layer_1
 62
7
100
AcDbSpline
 70
8
 71
3
 72
8
 73
4
 74
0
 40
0
 40
0
 40
0
 40
0
 40
1
 40
1
 40
1
 40
1
 10
362.402570
 20
564.574023
 30
0.0
 10
357.982520
 20
569.754088
 30
0.0
 10
358.588363
 20
577.535748
 30
0.0
 10
363.756840
 20
581.968789
 30
0.0
  0
SPLINE
  5
11a
100
AcDbEntity
  8
Layer_1
 62
7
100
AcDbSpline
 70
8
 71
3
 72
8
 73
4
 74
0
 40
0
 40
0
 40
0
 40
0
 40
1
 40
1
 40
1
 40
1
 10
363.756840
 20
581.968789
 30
0.0
 10
368.925316
 20
586.401856
 30
0.0
 10
376.705680
 20
585.813132
 30
0.0
 10
381.184441
 20
580.610974
 30
0.0
  0
SPLINE
  5
11b
100
AcDbEntity
  8
Layer_1
 62
7
100
AcDbSpline
 70
8
 71
3
 72
8
 73
4
 74
0
 40
0
 40
0
 40
0
 40
0
 40
1
 40
1
 40
1
 40
1
 10
381.184441
 20
580.610974
 30
0.0
 10
385.617059
 20
575.369472
 30
0.0
 10
384.976608
 20
567.590590
 30
0.0
 10
379.788446
 20
563.180594
 30
0.0
  0
LWPOLYLINE
  5
11c
100
AcDbEntity
  8
Layer_1
 62
7
100
AcDbPolyline
 90
4
 70
1
 10
102.861470
 20
590.275727
 30
0.0
 10
132.296191
 20
590.275727
 30
0.0
 10
132.296191
 20
540.841027
 30
0.0
 10
102.861470
 20
540.841027
 30
0.0
  0
SPLINE
  5
11d
100
AcDbEntity
  8
Layer_1
 62
7
100
AcDbSpline
 70
8
 71
3
 72
8
 73
4
 74
0
 40
0
 40
0
 40
0
 40
0
 40
1
 40
1
 40
1
 40
1
 10
363.061303
 20
559.142277
 30
0.0
 10
362.401326
 20
558.581488
 30
0.0
 10
361.411943
 20
558.660757
 30
0.0
 10
360.849651
 20
559.319469
 30
0.0
  0
SPLINE
  5
11e
100
AcDbEntity
  8
Layer_1
 62
7
100
AcDbSpline
 70
8
 71
3
 72
8
 73
4
 74
0
 40
0
 40
0
 40
0
 40
0
 40
1
 40
1
 40
1
 40
1
 10
360.849651
 20
559.319469
 30
0.0
 10
360.287385
 20
559.978178
 30
0.0
 10
360.364458
 20
560.967717
 30
0.0
 10
361.021948
 20
561.531439
 30
0.0
  0
SPLINE
  5
11f
100
AcDbEntity
  8
Layer_1
 62
7
100
AcDbSpline
 70
8
 71
3
 72
8
 73
4
 74
0
 40
0
 40
0
 40
0
 40
0
 40
1
 40
1
 40
1
 40
1
 10
361.021948
 20
561.531439
 30
0.0
 10
361.679411
 20
562.095168
 30
0.0
 10
362.669138
 20
562.020291
 30
0.0
 10
363.238865
 20
561.358769
 30
0.0
  0
SPLINE
  5
120
100
AcDbEntity
  8
Layer_1
 62
7
100
AcDbSpline
 70
8
 71
3
 72
8
 73
4
 74
0
 40
0
 40
0
 40
0
 40
0
 40
1
 40
1
 40
1
 40
1
 10
363.238865
 20
561.358769
 30
0.0
 10
363.802745
 20
560.692249
 30
0.0
 10
363.721280
 20
559.703067
 30
0.0
 10
363.061303
 20
559.142277
 30
0.0
  0
SPLINE
  5
121
100
AcDbEntity
  8
Layer_1
 62
7
100
AcDbSpline
 70
8
 71
3
 72
8
 73
4
 74
0
 40
0
 40
0
 40
0
 40
0
 40
1
 40
1
 40
1
 40
1
 10
382.561359
 20
583.642596
 30
0.0
 10
381.901383
 20
583.081812
 30
0.0
 10
380.912000
 20
583.161081
 30
0.0
 10
380.349707
 20
583.819814
 30
0.0
  0
SPLINE
  5
122
100
AcDbEntity
  8
Layer_1
 62
7
100
AcDbSpline
 70
8
 71
3
 72
8
 73
4
 74
0
 40
0
 40
0
 40
0
 40
0
 40
1
 40
1
 40
1
 40
1
 10
380.349707
 20
583.819814
 30
0.0
 10
379.787468
 20
584.478521
 30
0.0
 10
379.864541
 20
585.468036
 30
0.0
 10
380.522004
 20
586.031757
 30
0.0
  0
SPLINE
  5
123
100
AcDbEntity
  8
Layer_1
 62
7
100
AcDbSpline
 70
8
 71
3
 72
8
 73
4
 74
0
 40
0
 40
0
 40
0
 40
0
 40
1
 40
1
 40
1
 40
1
 10
380.522004
 20
586.031757
 30
0.0
 10
381.179467
 20
586.595479
 30
0.0
 10
382.169194
 20
586.520628
 30
0.0
 10
382.738921
 20
585.859117
 30
0.0
  0
SPLINE
  5
124
100
AcDbEntity
  8
Layer_1
 62
7
100
AcDbSpline
 70
8
 71
3
 72
8
 73
4
 74
0
 40
0
 40
0
 40
0
 40
0
 40
1
 40
1
 40
1
 40
1
 10
382.738921
 20
585.859117
 30
0.0
 10
383.302801
 20
585.192578
 30
0.0
 10
383.221336
 20
584.203407
 30
0.0
 10
382.561359
 20
583.642596
 30
0.0
  0
SPLINE
  5
125
100
AcDbEntity
  8
Layer_1
 62
7
100
AcDbSpline
 70
8
 71
3
 72
8
 73
4
 74
0
 40
0
 40
0
 40
0
 40
0
 40
1
 40
1
 40
1
 40
1
 10
408.788447
 20
563.180594
 30
0.0
 10
403.600285
 20
558.770599
 30
0.0
 10
395.822620
 20
559.393957
 30
0.0
 10
391.402570
 20
564.574023
 30
0.0
  0
SPLINE
  5
126
100
AcDbEntity
  8
Layer_1
 62
7
100
AcDbSpline
 70
8
 71
3
 72
8
 73
4
 74
0
 40
0
 40
0
 40
0
 40
0
 40
1
 40
1
 40
1
 40
1
 10
391.402570
 20
564.574023
 30
0.0
 10
386.982520
 20
569.754088
 30
0.0
 10
387.588363
 20
577.535748
 30
0.0
 10
392.756840
 20
581.968789
 30
0.0
  0
SPLINE
  5
127
100
AcDbEntity
  8
Layer_1
 62
7
100
AcDbSpline
 70
8
 71
3
 72
8
 73
4
 74
0
 40
0
 40
0
 40
0
 40
0
 40
1
 40
1
 40
1
 40
1
 10
392.756840
 20
581.968789
 30
0.0
 10
397.925316
 20
586.401856
 30
0.0
 10
405.705680
 20
585.813132
 30
0.0
 10
410.184441
 20
580.610974
 30
0.0
  0
SPLINE
  5
128
100
AcDbEntity
  8
Layer_1
 62
7
100
AcDbSpline
 70
8
 71
3
 72
8
 73
4
 74
0
 40
0
 40
0
 40
0
 40
0
 40
1
 40
1
 40
1
 40
1
 10
410.184441
 20
580.610974
 30
0.0
 10
414.617059
 20
575.369472
 30
0.0
 10
413.976608
 20
567.590590
 30
0.0
 10
408.788447
 20
563.180594
 30
0.0
  0
SPLINE
  5
129
100
AcDbEntity
  8
Layer_1
 62
7
100
AcDbSpline
 70
8
 71
3
 72
8
 73
4
 74
0
 40
0
 40
0
 40
0
 40
0
 40
1
 40
1
 40
1
 40
1
 10
392.061303
 20
559.142277
 30
0.0
 10
391.401326
 20
558.581488
 30
0.0
 10
390.411917
 20
558.660757
 30
0.0
 10
389.849651
 20
559.319469
 30
0.0
  0
SPLINE
  5
12a
100
AcDbEntity
  8
Layer_1
 62
7
100
AcDbSpline
 70
8
 71
3
 72
8
 73
4
 74
0
 40
0
 40
0
 40
0
 40
0
 40
1
 40
1
 40
1
 40
1
 10
389.849651
 20
559.319469
 30
0.0
 10
389.287385
 20
559.978178
 30
0.0
 10
389.364458
 20
560.967717
 30
0.0
 10
390.021948
 20
561.531439
 30
0.0
  0
SPLINE
  5
12b
100
AcDbEntity
  8
Layer_1
 62
7
100
AcDbSpline
 70
8
 71
3
 72
8
 73
4
 74
0
 40
0
 40
0
 40
0
 40
0
 40
1
 40
1
 40
1
 40
1
 10
390.021948
 20
561.531439
 30
0.0
 10
390.679411
 20
562.095168
 30
0.0
 10
391.669138
 20
562.020291
 30
0.0
 10
392.238865
 20
561.358769
 30
0.0
  0
SPLINE
  5
12c
100
AcDbEntity
  8
Layer_1
 62
7
100
AcDbSpline
 70
8
 71
3
 72
8
 73
4
 74
0
 40
0
 40
0
 40
0
 40
0
 40
1
 40
1
 40
1
 40
1
 10
392.238865
 20
561.358769
 30
0.0
 10
392.802745
 20
560.692249
 30
0.0
 10
392.721280
 20
559.703067
 30
0.0
 10
392.061303
 20
559.142277
 30
0.0
  0
SPLINE
  5
12d
100
AcDbEntity
  8
Layer_1
 62
7
100
AcDbSpline
 70
8
 71
3
 72
8
 73
4
 74
0
 40
0
 40
0
 40
0
 40
0
 40
1
 40
1
 40
1
 40
1
 10
411.561359
 20
583.642596
 30
0.0
 10
410.901383
 20
583.081812
 30
0.0
 10
409.912000
 20
583.161081
 30
0.0
 10
409.349707
 20
583.819814
 30
0.0
  0
SPLINE
  5
12e
100
AcDbEntity
  8
Layer_1
 62
7
100
AcDbSpline
 70
8
 71
3
 72
8
 73
4
 74
0
 40
0
 40
0
 40
0
 40
0
 40
1
 40
1
 40
1
 40
1
 10
409.349707
 20
583.819814
 30
0.0
 10
408.787468
 20
584.478521
 30
0.0
 10
408.864541
 20
585.468036
 30
0.0
 10
409.522004
 20
586.031757
 30
0.0
  0
SPLINE
  5
12f
100
AcDbEntity
  8
Layer_1
 62
7
100
AcDbSpline
 70
8
 71
3
 72
8
 73
4
 74
0
 40
0
 40
0
 40
0
 40
0
 40
1
 40
1
 40
1
 40
1
 10
409.522004
 20
586.031757
 30
0.0
 10
410.179467
 20
586.595479
 30
0.0
 10
411.169194
 20
586.520628
 30
0.0
 10
411.738948
 20
585.859117
 30
0.0
  0
SPLINE
  5
130
100
AcDbEntity
  8
Layer_1
 62
7
100
AcDbSpline
 70
8
 71
3
 72
8
 73
4
 74
0
 40
0
 40
0
 40
0
 40
0
 40
1
 40
1
 40
1
 40
1
 10
411.738948
 20
585.859117
 30
0.0
 10
412.302801
 20
585.192578
 30
0.0
 10
412.221336
 20
584.203407
 30
0.0
 10
411.561359
 20
583.642596
 30
0.0
  0
SPLINE
  5
131
100
AcDbEntity
  8
Layer_1
 62
7
100
AcDbSpline
 70
8
 71
3
 72
8
 73
4
 74
0
 40
0
 40
0
 40
0
 40
0
 40
1
 40
1
 40
1
 40
1
 10
396.488391
 20
592.528072
 30
0.0
 10
394.743887
 20
591.045717
 30
0.0
 10
392.128693
 20
591.255241
 30
0.0
 10
390.642475
 20
592.996437
 30
0.0
  0
SPLINE
  5
132
100
AcDbEntity
  8
Layer_1
 62
7
100
AcDbSpline
 70
8
 71
3
 72
8
 73
4
 74
0
 40
0
 40
0
 40
0
 40
0
 40
1
 40
1
 40
1
 40
1
 10
390.642475
 20
592.996437
 30
0.0
 10
389.156258
 20
594.737634
 30
0.0
 10
389.359960
 20
597.353305
 30
0.0
 10
391.097849
 20
598.843385
 30
0.0
  0
SPLINE
  5
133
100
AcDbEntity
  8
Layer_1
 62
7
100
AcDbSpline
 70
8
 71
3
 72
8
 73
4
 74
0
 40
0
 40
0
 40
0
 40
0
 40
1
 40
1
 40
1
 40
1
 10
391.097849
 20
598.843385
 30
0.0
 10
392.835712
 20
600.333465
 30
0.0
 10
395.451833
 20
600.135584
 30
0.0
 10
396.957762
 20
598.386979
 30
0.0
  0
SPLINE
  5
134
100
AcDbEntity
  8
Layer_1
 62
7
100
AcDbSpline
 70
8
 71
3
 72
8
 73
4
 74
0
 40
0
 40
0
 40
0
 40
0
 40
1
 40
1
 40
1
 40
1
 10
396.957762
 20
598.386979
 30
0.0
 10
398.448212
 20
596.625145
 30
0.0
 10
398.232868
 20
594.010400
 30
0.0
 10
396.488391
 20
592.528072
 30
0.0
  0
SPLINE
  5
135
100
AcDbEntity
  8
Layer_1
 62
7
100
AcDbSpline
 70
8
 71
3
 72
8
 73
4
 74
0
 40
0
 40
0
 40
0
 40
0
 40
1
 40
1
 40
1
 40
1
 10
410.480007
 20
592.528072
 30
0.0
 10
408.735530
 20
591.045717
 30
0.0
 10
406.120335
 20
591.255241
 30
0.0
 10
404.634118
 20
592.996437
 30
0.0
  0
SPLINE
  5
136
100
AcDbEntity
  8
Layer_1
 62
7
100
AcDbSpline
 70
8
 71
3
 72
8
 73
4
 74
0
 40
0
 40
0
 40
0
 40
0
 40
1
 40
1
 40
1
 40
1
 10
404.634118
 20
592.996437
 30
0.0
 10
403.147900
 20
594.737634
 30
0.0
 10
403.351603
 20
597.353305
 30
0.0
 10
405.089466
 20
598.843385
 30
0.0
  0
SPLINE
  5
137
100
AcDbEntity
  8
Layer_1
 62
7
100
AcDbSpline
 70
8
 71
3
 72
8
 73
4
 74
0
 40
0
 40
0
 40
0
 40
0
 40
1
 40
1
 40
1
 40
1
 10
405.089466
 20
598.843385
 30
0.0
 10
406.827329
 20
600.333492
 30
0.0
 10
409.443449
 20
600.135610
 30
0.0
 10
410.949405
 20
598.386979
 30
0.0
  0
SPLINE
  5
138
100
AcDbEntity
  8
Layer_1
 62
7
100
AcDbSpline
 70
8
 71
3
 72
8
 73
4
 74
0
 40
0
 40
0
 40
0
 40
0
 40
1
 40
1
 40
1
 40
1
 10
410.949405
 20
598.386979
 30
0.0
 10
412.439855
 20
596.625145
 30
0.0
 10
412.224511
 20
594.010400
 30
0.0
 10
410.480007
 20
592.528072
 30
0.0
  0
SPLINE
  5
139
100
AcDbEntity
  8
Layer_1
 62
7
100
AcDbSpline
 70
8
 71
3
 72
8
 73
4
 74
0
 40
0
 40
0
 40
0
 40
0
 40
1
 40
1
 40
1
 40
1
 10
325.529258
 20
567.129765
 30
0.0
 10
321.415992
 20
563.634619
 30
0.0
 10
315.249719
 20
564.128649
 30
0.0
 10
311.745445
 20
568.234136
 30
0.0
  0
SPLINE
  5
13a
100
AcDbEntity
  8
Layer_1
 62
7
100
AcDbSpline
 70
8
 71
3
 72
8
 73
4
 74
0
 40
0
 40
0
 40
0
 40
0
 40
1
 40
1
 40
1
 40
1
 10
311.745445
 20
568.234136
 30
0.0
 10
308.241144
 20
572.339596
 30
0.0
 10
308.721469
 20
578.506954
 30
0.0
 10
312.819124
 20
582.020383
 30
0.0
  0
SPLINE
  5
13b
100
AcDbEntity
  8
Layer_1
 62
7
100
AcDbSpline
 70
8
 71
3
 72
8
 73
4
 74
0
 40
0
 40
0
 40
0
 40
0
 40
1
 40
1
 40
1
 40
1
 10
312.819124
 20
582.020383
 30
0.0
 10
316.916779
 20
585.533785
 30
0.0
 10
323.085195
 20
585.067219
 30
0.0
 10
326.636010
 20
580.944243
 30
0.0
  0
SPLINE
  5
13c
100
AcDbEntity
  8
Layer_1
 62
7
100
AcDbSpline
 70
8
 71
3
 72
8
 73
4
 74
0
 40
0
 40
0
 40
0
 40
0
 40
1
 40
1
 40
1
 40
1
 10
326.636010
 20
580.944243
 30
0.0
 10
330.150285
 20
576.790073
 30
0.0
 10
329.642523
 20
570.624911
 30
0.0
 10
325.529258
 20
567.129765
 30
0.0
  0
SPLINE
  5
13d
100
AcDbEntity
  8
Layer_1
 62
7
100
AcDbSpline
 70
8
 71
3
 72
8
 73
4
 74
0
 40
0
 40
0
 40
0
 40
0
 40
1
 40
1
 40
1
 40
1
 10
320.228727
 20
586.867867
 30
0.0
 10
319.555230
 20
586.295600
 30
0.0
 10
318.545580
 20
586.376483
 30
0.0
 10
317.971805
 20
587.048683
 30
0.0
  0
SPLINE
  5
13e
100
AcDbEntity
  8
Layer_1
 62
7
100
AcDbSpline
 70
8
 71
3
 72
8
 73
4
 74
0
 40
0
 40
0
 40
0
 40
0
 40
1
 40
1
 40
1
 40
1
 10
317.971805
 20
587.048683
 30
0.0
 10
317.398030
 20
587.720884
 30
0.0
 10
317.476664
 20
588.730666
 30
0.0
 10
318.147621
 20
589.305923
 30
0.0
  0
SPLINE
  5
13f
100
AcDbEntity
  8
Layer_1
 62
7
100
AcDbSpline
 70
8
 71
3
 72
8
 73
4
 74
0
 40
0
 40
0
 40
0
 40
0
 40
1
 40
1
 40
1
 40
1
 10
318.147621
 20
589.305923
 30
0.0
 10
318.818551
 20
589.881180
 30
0.0
 10
319.828545
 20
589.804769
 30
0.0
 10
320.409940
 20
589.129711
 30
0.0
  0
SPLINE
  5
140
100
AcDbEntity
  8
Layer_1
 62
7
100
AcDbSpline
 70
8
 71
3
 72
8
 73
4
 74
0
 40
0
 40
0
 40
0
 40
0
 40
1
 40
1
 40
1
 40
1
 10
320.409940
 20
589.129711
 30
0.0
 10
320.985383
 20
588.449546
 30
0.0
 10
320.902224
 20
587.440134
 30
0.0
 10
320.228727
 20
586.867867
 30
0.0
  0
SPLINE
  5
141
100
AcDbEntity
  8
Layer_1
 62
7
100
AcDbSpline
 70
8
 71
3
 72
8
 73
4
 74
0
 40
0
 40
0
 40
0
 40
0
 40
1
 40
1
 40
1
 40
1
 10
320.228727
 20
559.867839
 30
0.0
 10
319.555230
 20
559.295569
 30
0.0
 10
318.545580
 20
559.376458
 30
0.0
 10
317.971805
 20
560.048658
 30
0.0
  0
SPLINE
  5
142
100
AcDbEntity
  8
Layer_1
 62
7
100
AcDbSpline
 70
8
 71
3
 72
8
 73
4
 74
0
 40
0
 40
0
 40
0
 40
0
 40
1
 40
1
 40
1
 40
1
 10
317.971805
 20
560.048658
 30
0.0
 10
317.398030
 20
560.720858
 30
0.0
 10
317.476664
 20
561.730625
 30
0.0
 10
318.147621
 20
562.305908
 30
0.0
  0
SPLINE
  5
143
100
AcDbEntity
  8
Layer_1
 62
7
100
AcDbSpline
 70
8
 71
3
 72
8
 73
4
 74
0
 40
0
 40
0
 40
0
 40
0
 40
1
 40
1
 40
1
 40
1
 10
318.147621
 20
562.305908
 30
0.0
 10
318.818551
 20
562.881139
 30
0.0
 10
319.828545
 20
562.804754
 30
0.0
 10
320.409940
 20
562.129696
 30
0.0
  0
SPLINE
  5
144
100
AcDbEntity
  8
Layer_1
 62
7
100
AcDbSpline
 70
8
 71
3
 72
8
 73
4
 74
0
 40
0
 40
0
 40
0
 40
0
 40
1
 40
1
 40
1
 40
1
 10
320.409940
 20
562.129696
 30
0.0
 10
320.985383
 20
561.449537
 30
0.0
 10
320.902224
 20
560.440109
 30
0.0
 10
320.228727
 20
559.867839
 30
0.0
  0
SPLINE
  5
145
100
AcDbEntity
  8
Layer_1
 62
7
100
AcDbSpline
 70
8
 71
3
 72
8
 73
4
 74
0
 40
0
 40
0
 40
0
 40
0
 40
1
 40
1
 40
1
 40
1
 10
349.529268
 20
567.129765
 30
0.0
 10
345.416002
 20
563.634619
 30
0.0
 10
339.249729
 20
564.128649
 30
0.0
 10
335.745429
 20
568.234136
 30
0.0
  0
SPLINE
  5
146
100
AcDbEntity
  8
Layer_1
 62
7
100
AcDbSpline
 70
8
 71
3
 72
8
 73
4
 74
0
 40
0
 40
0
 40
0
 40
0
 40
1
 40
1
 40
1
 40
1
 10
335.745429
 20
568.234136
 30
0.0
 10
332.241155
 20
572.339596
 30
0.0
 10
332.721453
 20
578.506954
 30
0.0
 10
336.819108
 20
582.020383
 30
0.0
  0
SPLINE
  5
147
100
AcDbEntity
  8
Layer_1
 62
7
100
AcDbSpline
 70
8
 71
3
 72
8
 73
4
 74
0
 40
0
 40
0
 40
0
 40
0
 40
1
 40
1
 40
1
 40
1
 10
336.819108
 20
582.020383
 30
0.0
 10
340.916789
 20
585.533785
 30
0.0
 10
347.085179
 20
585.067219
 30
0.0
 10
350.635993
 20
580.944243
 30
0.0
  0
SPLINE
  5
148
100
AcDbEntity
  8
Layer_1
 62
7
100
AcDbSpline
 70
8
 71
3
 72
8
 73
4
 74
0
 40
0
 40
0
 40
0
 40
0
 40
1
 40
1
 40
1
 40
1
 10
350.635993
 20
580.944243
 30
0.0
 10
354.150269
 20
576.790073
 30
0.0
 10
353.642533
 20
570.624911
 30
0.0
 10
349.529268
 20
567.129765
 30
0.0
  0
SPLINE
  5
149
100
AcDbEntity
  8
Layer_1
 62
7
100
AcDbSpline
 70
8
 71
3
 72
8
 73
4
 74
0
 40
0
 40
0
 40
0
 40
0
 40
1
 40
1
 40
1
 40
1
 10
344.228737
 20
586.867867
 30
0.0
 10
343.555241
 20
586.295600
 30
0.0
 10
342.545591
 20
586.376483
 30
0.0
 10
341.971789
 20
587.048683
 30
0.0
  0
SPLINE
  5
14a
100
AcDbEntity
  8
Layer_1
 62
7
100
AcDbSpline
 70
8
 71
3
 72
8
 73
4
 74
0
 40
0
 40
0
 40
0
 40
0
 40
1
 40
1
 40
1
 40
1
 10
341.971789
 20
587.048683
 30
0.0
 10
341.398013
 20
587.720884
 30
0.0
 10
341.476674
 20
588.730666
 30
0.0
 10
342.147604
 20
589.305923
 30
0.0
  0
SPLINE
  5
14b
100
AcDbEntity
  8
Layer_1
 62
7
100
AcDbSpline
 70
8
 71
3
 72
8
 73
4
 74
0
 40
0
 40
0
 40
0
 40
0
 40
1
 40
1
 40
1
 40
1
 10
342.147604
 20
589.305923
 30
0.0
 10
342.818561
 20
589.881180
 30
0.0
 10
343.828529
 20
589.804769
 30
0.0
 10
344.409951
 20
589.129711
 30
0.0
  0
SPLINE
  5
14c
100
AcDbEntity
  8
Layer_1
 62
7
100
AcDbSpline
 70
8
 71
3
 72
8
 73
4
 74
0
 40
0
 40
0
 40
0
 40
0
 40
1
 40
1
 40
1
 40
1
 10
344.409951
 20
589.129711
 30
0.0
 10
344.985366
 20
588.449546
 30
0.0
 10
344.902208
 20
587.440134
 30
0.0
 10
344.228737
 20
586.867867
 30
0.0
  0
SPLINE
  5
14d
100
AcDbEntity
  8
Layer_1
 62
7
100
AcDbSpline
 70
8
 71
3
 72
8
 73
4
 74
0
 40
0
 40
0
 40
0
 40
0
 40
1
 40
1
 40
1
 40
1
 10
344.228737
 20
559.867839
 30
0.0
 10
343.555241
 20
559.295569
 30
0.0
 10
342.545591
 20
559.376458
 30
0.0
 10
341.971789
 20
560.048658
 30
0.0
  0
SPLINE
  5
14e
100
AcDbEntity
  8
Layer_1
 62
7
100
AcDbSpline
 70
8
 71
3
 72
8
 73
4
 74
0
 40
0
 40
0
 40
0
 40
0
 40
1
 40
1
 40
1
 40
1
 10
341.971789
 20
560.048658
 30
0.0
 10
341.398013
 20
560.720858
 30
0.0
 10
341.476674
 20
561.730625
 30
0.0
 10
342.147604
 20
562.305908
 30
0.0
  0
SPLINE
  5
14f
100
AcDbEntity
  8
Layer_1
 62
7
100
AcDbSpline
 70
8
 71
3
 72
8
 73
4
 74
0
 40
0
 40
0
 40
0
 40
0
 40
1
 40
1
 40
1
 40
1
 10
342.147604
 20
562.305908
 30
0.0
 10
342.818561
 20
562.881139
 30
0.0
 10
343.828529
 20
562.804754
 30
0.0
 10
344.409951
 20
562.129696
 30
0.0
  0
SPLINE
  5
150
100
AcDbEntity
  8
Layer_1
 62
7
100
AcDbSpline
 70
8
 71
3
 72
8
 73
4
 74
0
 40
0
 40
0
 40
0
 40
0
 40
1
 40
1
 40
1
 40
1
 10
344.409951
 20
562.129696
 30
0.0
 10
344.985366
 20
561.449537
 30
0.0
 10
344.902208
 20
560.440109
 30
0.0
 10
344.228737
 20
559.867839
 30
0.0
  0
SPLINE
  5
151
100
AcDbEntity
  8
Layer_1
 62
7
100
AcDbSpline
 70
8
 71
3
 72
8
 73
4
 74
0
 40
0
 40
0
 40
0
 40
0
 40
1
 40
1
 40
1
 40
1
 10
322.520892
 20
595.395838
 30
0.0
 10
320.481299
 20
593.662817
 30
0.0
 10
317.423721
 20
593.907768
 30
0.0
 10
315.686070
 20
595.943419
 30
0.0
  0
SPLINE
  5
152
100
AcDbEntity
  8
Layer_1
 62
7
100
AcDbSpline
 70
8
 71
3
 72
8
 73
4
 74
0
 40
0
 40
0
 40
0
 40
0
 40
1
 40
1
 40
1
 40
1
 10
315.686070
 20
595.943419
 30
0.0
 10
313.948471
 20
597.979071
 30
0.0
 10
314.186623
 20
601.037072
 30
0.0
 10
316.218491
 20
602.779168
 30
0.0
  0
SPLINE
  5
153
100
AcDbEntity
  8
Layer_1
 62
7
100
AcDbSpline
 70
8
 71
3
 72
8
 73
4
 74
0
 40
0
 40
0
 40
0
 40
0
 40
1
 40
1
 40
1
 40
1
 10
316.218491
 20
602.779168
 30
0.0
 10
318.250332
 20
604.521238
 30
0.0
 10
321.308968
 20
604.289886
 30
0.0
 10
323.069664
 20
602.245556
 30
0.0
  0
SPLINE
  5
154
100
AcDbEntity
  8
Layer_1
 62
7
100
AcDbSpline
 70
8
 71
3
 72
8
 73
4
 74
0
 40
0
 40
0
 40
0
 40
0
 40
1
 40
1
 40
1
 40
1
 10
323.069664
 20
602.245556
 30
0.0
 10
324.812237
 20
600.185775
 30
0.0
 10
324.560459
 20
597.128859
 30
0.0
 10
322.520892
 20
595.395838
 30
0.0
  0
SPLINE
  5
155
100
AcDbEntity
  8
Layer_1
 62
7
100
AcDbSpline
 70
8
 71
3
 72
8
 73
4
 74
0
 40
0
 40
0
 40
0
 40
0
 40
1
 40
1
 40
1
 40
1
 10
346.520876
 20
595.395838
 30
0.0
 10
344.481309
 20
593.662817
 30
0.0
 10
341.423704
 20
593.907768
 30
0.0
 10
339.686080
 20
595.943419
 30
0.0
  0
SPLINE
  5
156
100
AcDbEntity
  8
Layer_1
 62
7
100
AcDbSpline
 70
8
 71
3
 72
8
 73
4
 74
0
 40
0
 40
0
 40
0
 40
0
 40
1
 40
1
 40
1
 40
1
 10
339.686080
 20
595.943419
 30
0.0
 10
337.948455
 20
597.979071
 30
0.0
 10
338.186633
 20
601.037072
 30
0.0
 10
340.218474
 20
602.779168
 30
0.0
  0
SPLINE
  5
157
100
AcDbEntity
  8
Layer_1
 62
7
100
AcDbSpline
 70
8
 71
3
 72
8
 73
4
 74
0
 40
0
 40
0
 40
0
 40
0
 40
1
 40
1
 40
1
 40
1
 10
340.218474
 20
602.779168
 30
0.0
 10
342.250342
 20
604.521238
 30
0.0
 10
345.308978
 20
604.289886
 30
0.0
 10
347.069648
 20
602.245556
 30
0.0
  0
SPLINE
  5
158
100
AcDbEntity
  8
Layer_1
 62
7
100
AcDbSpline
 70
8
 71
3
 72
8
 73
4
 74
0
 40
0
 40
0
 40
0
 40
0
 40
1
 40
1
 40
1
 40
1
 10
347.069648
 20
602.245556
 30
0.0
 10
348.812247
 20
600.185775
 30
0.0
 10
348.560469
 20
597.128859
 30
0.0
 10
346.520876
 20
595.395838
 30
0.0
  0
SPLINE
  5
159
100
AcDbEntity
  8
Layer_1
 62
7
100
AcDbSpline
 70
8
 71
3
 72
8
 73
4
 74
0
 40
0
 40
0
 40
0
 40
0
 40
1
 40
1
 40
1
 40
1
 10
367.457990
 20
592.528072
 30
0.0
 10
365.713486
 20
591.045717
 30
0.0
 10
363.098292
 20
591.255267
 30
0.0
 10
361.612074
 20
592.996437
 30
0.0
  0
SPLINE
  5
15a
100
AcDbEntity
  8
Layer_1
 62
7
100
AcDbSpline
 70
8
 71
3
 72
8
 73
4
 74
0
 40
0
 40
0
 40
0
 40
0
 40
1
 40
1
 40
1
 40
1
 10
361.612074
 20
592.996437
 30
0.0
 10
360.125857
 20
594.737634
 30
0.0
 10
360.329559
 20
597.353305
 30
0.0
 10
362.067449
 20
598.843385
 30
0.0
  0
SPLINE
  5
15b
100
AcDbEntity
  8
Layer_1
 62
7
100
AcDbSpline
 70
8
 71
3
 72
8
 73
4
 74
0
 40
0
 40
0
 40
0
 40
0
 40
1
 40
1
 40
1
 40
1
 10
362.067449
 20
598.843385
 30
0.0
 10
363.805311
 20
600.333465
 30
0.0
 10
366.421432
 20
600.135584
 30
0.0
 10
367.927361
 20
598.386979
 30
0.0
  0
SPLINE
  5
15c
100
AcDbEntity
  8
Layer_1
 62
7
100
AcDbSpline
 70
8
 71
3
 72
8
 73
4
 74
0
 40
0
 40
0
 40
0
 40
0
 40
1
 40
1
 40
1
 40
1
 10
367.927361
 20
598.386979
 30
0.0
 10
369.417812
 20
596.625145
 30
0.0
 10
369.202467
 20
594.010400
 30
0.0
 10
367.457990
 20
592.528072
 30
0.0
  0
SPLINE
  5
15d
100
AcDbEntity
  8
Layer_1
 62
7
100
AcDbSpline
 70
8
 71
3
 72
8
 73
4
 74
0
 40
0
 40
0
 40
0
 40
0
 40
1
 40
1
 40
1
 40
1
 10
381.449554
 20
592.528072
 30
0.0
 10
379.705076
 20
591.045717
 30
0.0
 10
377.089882
 20
591.255241
 30
0.0
 10
375.603638
 20
592.996437
 30
0.0
  0
SPLINE
  5
15e
100
AcDbEntity
  8
Layer_1
 62
7
100
AcDbSpline
 70
8
 71
3
 72
8
 73
4
 74
0
 40
0
 40
0
 40
0
 40
0
 40
1
 40
1
 40
1
 40
1
 10
375.603638
 20
592.996437
 30
0.0
 10
374.117420
 20
594.737634
 30
0.0
 10
374.321149
 20
597.353305
 30
0.0
 10
376.059012
 20
598.843385
 30
0.0
  0
SPLINE
  5
15f
100
AcDbEntity
  8
Layer_1
 62
7
100
AcDbSpline
 70
8
 71
3
 72
8
 73
4
 74
0
 40
0
 40
0
 40
0
 40
0
 40
1
 40
1
 40
1
 40
1
 10
376.059012
 20
598.843385
 30
0.0
 10
377.796901
 20
600.333465
 30
0.0
 10
380.412995
 20
600.135584
 30
0.0
 10
381.918951
 20
598.386979
 30
0.0
  0
SPLINE
  5
160
100
AcDbEntity
  8
Layer_1
 62
7
100
AcDbSpline
 70
8
 71
3
 72
8
 73
4
 74
0
 40
0
 40
0
 40
0
 40
0
 40
1
 40
1
 40
1
 40
1
 10
381.918951
 20
598.386979
 30
0.0
 10
383.409402
 20
596.625145
 30
0.0
 10
383.194057
 20
594.010400
 30
0.0
 10
381.449554
 20
592.528072
 30
0.0
  0
SPLINE
  5
161
100
AcDbEntity
  8
Layer_1
 62
7
100
AcDbSpline
 70
8
 71
3
 72
8
 73
4
 74
0
 40
0
 40
0
 40
0
 40
0
 40
1
 40
1
 40
1
 40
1
 10
32.805021
 20
551.092967
 30
0.0
 10
32.805021
 20
550.515242
 30
0.0
 10
32.575519
 20
549.961178
 30
0.0
 10
32.167005
 20
549.552664
 30
0.0
  0
SPLINE
  5
162
100
AcDbEntity
  8
Layer_1
 62
7
100
AcDbSpline
 70
8
 71
3
 72
8
 73
4
 74
0
 40
0
 40
0
 40
0
 40
0
 40
1
 40
1
 40
1
 40
1
 10
32.167005
 20
549.552664
 30
0.0
 10
31.758490
 20
549.144150
 30
0.0
 10
31.204427
 20
548.914647
 30
0.0
 10
30.626701
 20
548.914647
 30
0.0
  0
SPLINE
  5
163
100
AcDbEntity
  8
Layer_1
 62
7
100
AcDbSpline
 70
8
 71
3
 72
8
 73
4
 74
0
 40
0
 40
0
 40
0
 40
0
 40
1
 40
1
 40
1
 40
1
 10
30.626701
 20
548.914647
 30
0.0
 10
30.048975
 20
548.914647
 30
0.0
 10
29.494909
 20
549.144150
 30
0.0
 10
29.086395
 20
549.552664
 30
0.0
  0
SPLINE
  5
164
100
AcDbEntity
  8
Layer_1
 62
7
100
AcDbSpline
 70
8
 71
3
 72
8
 73
4
 74
0
 40
0
 40
0
 40
0
 40
0
 40
1
 40
1
 40
1
 40
1
 10
29.086395
 20
549.552664
 30
0.0
 10
28.677881
 20
549.961178
 30
0.0
 10
28.448381
 20
550.515242
 30
0.0
 10
28.448381
 20
551.092967
 30
0.0
  0
SPLINE
  5
165
100
AcDbEntity
  8
Layer_1
 62
7
100
AcDbSpline
 70
8
 71
3
 72
8
 73
4
 74
0
 40
0
 40
0
 40
0
 40
0
 40
1
 40
1
 40
1
 40
1
 10
28.448381
 20
551.092967
 30
0.0
 10
28.448381
 20
551.670693
 30
0.0
 10
28.677881
 20
552.224759
 30
0.0
 10
29.086395
 20
552.633273
 30
0.0
  0
SPLINE
  5
166
100
AcDbEntity
  8
Layer_1
 62
7
100
AcDbSpline
 70
8
 71
3
 72
8
 73
4
 74
0
 40
0
 40
0
 40
0
 40
0
 40
1
 40
1
 40
1
 40
1
 10
29.086395
 20
552.633273
 30
0.0
 10
29.494909
 20
553.041788
 30
0.0
 10
30.048975
 20
553.271287
 30
0.0
 10
30.626701
 20
553.271287
 30
0.0
  0
SPLINE
  5
167
100
AcDbEntity
  8
Layer_1
 62
7
100
AcDbSpline
 70
8
 71
3
 72
8
 73
4
 74
0
 40
0
 40
0
 40
0
 40
0
 40
1
 40
1
 40
1
 40
1
 10
30.626701
 20
553.271287
 30
0.0
 10
31.204427
 20
553.271287
 30
0.0
 10
31.758490
 20
553.041788
 30
0.0
 10
32.167004
 20
552.633273
 30
0.0
  0
SPLINE
  5
168
100
AcDbEntity
  8
Layer_1
 62
7
100
AcDbSpline
 70
8
 71
3
 72
8
 73
4
 74
0
 40
0
 40
0
 40
0
 40
0
 40
1
 40
1
 40
1
 40
1
 10
32.167005
 20
552.633273
 30
0.0
 10
32.575519
 20
552.224759
 30
0.0
 10
32.805021
 20
551.670693
 30
0.0
 10
32.805021
 20
551.092967
 30
0.0
  0
SPLINE
  5
169
100
AcDbEntity
  8
Layer_1
 62
7
100
AcDbSpline
 70
8
 71
3
 72
8
 73
4
 74
0
 40
0
 40
0
 40
0
 40
0
 40
1
 40
1
 40
1
 40
1
 10
32.805021
 20
608.752957
 30
0.0
 10
32.805021
 20
608.175213
 30
0.0
 10
32.575519
 20
607.621149
 30
0.0
 10
32.167005
 20
607.212632
 30
0.0
  0
SPLINE
  5
16a
100
AcDbEntity
  8
Layer_1
 62
7
100
AcDbSpline
 70
8
 71
3
 72
8
 73
4
 74
0
 40
0
 40
0
 40
0
 40
0
 40
1
 40
1
 40
1
 40
1
 10
32.167005
 20
607.212632
 30
0.0
 10
31.758490
 20
606.804142
 30
0.0
 10
31.204427
 20
606.574616
 30
0.0
 10
30.626701
 20
606.574616
 30
0.0
  0
SPLINE
  5
16b
100
AcDbEntity
  8
Layer_1
 62
7
100
AcDbSpline
 70
8
 71
3
 72
8
 73
4
 74
0
 40
0
 40
0
 40
0
 40
0
 40
1
 40
1
 40
1
 40
1
 10
30.626701
 20
606.574616
 30
0.0
 10
30.048975
 20
606.574616
 30
0.0
 10
29.494909
 20
606.804142
 30
0.0
 10
29.086395
 20
607.212632
 30
0.0
  0
SPLINE
  5
16c
100
AcDbEntity
  8
Layer_1
 62
7
100
AcDbSpline
 70
8
 71
3
 72
8
 73
4
 74
0
 40
0
 40
0
 40
0
 40
0
 40
1
 40
1
 40
1
 40
1
 10
29.086395
 20
607.212632
 30
0.0
 10
28.677881
 20
607.621149
 30
0.0
 10
28.448381
 20
608.175213
 30
0.0
 10
28.448381
 20
608.752957
 30
0.0
  0
SPLINE
  5
16d
100
AcDbEntity
  8
Layer_1
 62
7
100
AcDbSpline
 70
8
 71
3
 72
8
 73
4
 74
0
 40
0
 40
0
 40
0
 40
0
 40
1
 40
1
 40
1
 40
1
 10
28.448381
 20
608.752957
 30
0.0
 10
28.448381
 20
609.330675
 30
0.0
 10
28.677881
 20
609.884739
 30
0.0
 10
29.086395
 20
610.293255
 30
0.0
  0
SPLINE
  5
16e
100
AcDbEntity
  8
Layer_1
 62
7
100
AcDbSpline
 70
8
 71
3
 72
8
 73
4
 74
0
 40
0
 40
0
 40
0
 40
0
 40
1
 40
1
 40
1
 40
1
 10
29.086395
 20
610.293255
 30
0.0
 10
29.494909
 20
610.701772
 30
0.0
 10
30.048975
 20
610.931271
 30
0.0
 10
30.626701
 20
610.931271
 30
0.0
  0
SPLINE
  5
16f
100
AcDbEntity
  8
Layer_1
 62
7
100
AcDbSpline
 70
8
 71
3
 72
8
 73
4
 74
0
 40
0
 40
0
 40
0
 40
0
 40
1
 40
1
 40
1
 40
1
 10
30.626701
 20
610.931271
 30
0.0
 10
31.204427
 20
610.931271
 30
0.0
 10
31.758490
 20
610.701772
 30
0.0
 10
32.167004
 20
610.293255
 30
0.0
  0
SPLINE
  5
170
100
AcDbEntity
  8
Layer_1
 62
7
100
AcDbSpline
 70
8
 71
3
 72
8
 73
4
 74
0
 40
0
 40
0
 40
0
 40
0
 40
1
 40
1
 40
1
 40
1
 10
32.167005
 20
610.293255
 30
0.0
 10
32.575519
 20
609.884739
 30
0.0
 10
32.805021
 20
609.330675
 30
0.0
 10
32.805021
 20
608.752957
 30
0.0
  0
SPLINE
  5
171
100
AcDbEntity
  8
Layer_1
 62
7
100
AcDbSpline
 70
8
 71
3
 72
8
 73
4
 74
0
 40
0
 40
0
 40
0
 40
0
 40
1
 40
1
 40
1
 40
1
 10
427.465040
 20
551.092967
 30
0.0
 10
427.465040
 20
550.515242
 30
0.0
 10
427.235541
 20
549.961178
 30
0.0
 10
426.827024
 20
549.552664
 30
0.0
  0
SPLINE
  5
172
100
AcDbEntity
  8
Layer_1
 62
7
100
AcDbSpline
 70
8
 71
3
 72
8
 73
4
 74
0
 40
0
 40
0
 40
0
 40
0
 40
1
 40
1
 40
1
 40
1
 10
426.827024
 20
549.552664
 30
0.0
 10
426.418507
 20
549.144150
 30
0.0
 10
425.864443
 20
548.914647
 30
0.0
 10
425.286699
 20
548.914647
 30
0.0
  0
SPLINE
  5
173
100
AcDbEntity
  8
Layer_1
 62
7
100
AcDbSpline
 70
8
 71
3
 72
8
 73
4
 74
0
 40
0
 40
0
 40
0
 40
0
 40
1
 40
1
 40
1
 40
1
 10
425.286699
 20
548.914647
 30
0.0
 10
424.708981
 20
548.914647
 30
0.0
 10
424.154918
 20
549.144150
 30
0.0
 10
423.746401
 20
549.552664
 30
0.0
  0
SPLINE
  5
174
100
AcDbEntity
  8
Layer_1
 62
7
100
AcDbSpline
 70
8
 71
3
 72
8
 73
4
 74
0
 40
0
 40
0
 40
0
 40
0
 40
1
 40
1
 40
1
 40
1
 10
423.746401
 20
549.552664
 30
0.0
 10
423.337884
 20
549.961178
 30
0.0
 10
423.108385
 20
550.515242
 30
0.0
 10
423.108385
 20
551.092967
 30
0.0
  0
SPLINE
  5
175
100
AcDbEntity
  8
Layer_1
 62
7
100
AcDbSpline
 70
8
 71
3
 72
8
 73
4
 74
0
 40
0
 40
0
 40
0
 40
0
 40
1
 40
1
 40
1
 40
1
 10
423.108385
 20
551.092967
 30
0.0
 10
423.108385
 20
551.670693
 30
0.0
 10
423.337884
 20
552.224759
 30
0.0
 10
423.746401
 20
552.633273
 30
0.0
  0
SPLINE
  5
176
100
AcDbEntity
  8
Layer_1
 62
7
100
AcDbSpline
 70
8
 71
3
 72
8
 73
4
 74
0
 40
0
 40
0
 40
0
 40
0
 40
1
 40
1
 40
1
 40
1
 10
423.746401
 20
552.633273
 30
0.0
 10
424.154918
 20
553.041788
 30
0.0
 10
424.708981
 20
553.271287
 30
0.0
 10
425.286699
 20
553.271287
 30
0.0
  0
SPLINE
  5
177
100
AcDbEntity
  8
Layer_1
 62
7
100
AcDbSpline
 70
8
 71
3
 72
8
 73
4
 74
0
 40
0
 40
0
 40
0
 40
0
 40
1
 40
1
 40
1
 40
1
 10
425.286699
 20
553.271287
 30
0.0
 10
425.864443
 20
553.271287
 30
0.0
 10
426.418507
 20
553.041788
 30
0.0
 10
426.827024
 20
552.633273
 30
0.0
  0
SPLINE
  5
178
100
AcDbEntity
  8
Layer_1
 62
7
100
AcDbSpline
 70
8
 71
3
 72
8
 73
4
 74
0
 40
0
 40
0
 40
0
 40
0
 40
1
 40
1
 40
1
 40
1
 10
426.827024
 20
552.633273
 30
0.0
 10
427.235541
 20
552.224759
 30
0.0
 10
427.465040
 20
551.670693
 30
0.0
 10
427.465040
 20
551.092967
 30
0.0
  0
SPLINE
  5
179
100
AcDbEntity
  8
Layer_1
 62
7
100
AcDbSpline
 70
8
 71
3
 72
8
 73
4
 74
0
 40
0
 40
0
 40
0
 40
0
 40
1
 40
1
 40
1
 40
1
 10
427.465040
 20
608.752957
 30
0.0
 10
427.465040
 20
608.175213
 30
0.0
 10
427.235541
 20
607.621149
 30
0.0
 10
426.827024
 20
607.212632
 30
0.0
  0
SPLINE
  5
17a
100
AcDbEntity
  8
Layer_1
 62
7
100
AcDbSpline
 70
8
 71
3
 72
8
 73
4
 74
0
 40
0
 40
0
 40
0
 40
0
 40
1
 40
1
 40
1
 40
1
 10
426.827024
 20
607.212632
 30
0.0
 10
426.418507
 20
606.804142
 30
0.0
 10
425.864443
 20
606.574616
 30
0.0
 10
425.286699
 20
606.574616
 30
0.0
  0
SPLINE
  5
17b
100
AcDbEntity
  8
Layer_1
 62
7
100
AcDbSpline
 70
8
 71
3
 72
8
 73
4
 74
0
 40
0
 40
0
 40
0
 40
0
 40
1
 40
1
 40
1
 40
1
 10
425.286699
 20
606.574616
 30
0.0
 10
424.708981
 20
606.574616
 30
0.0
 10
424.154918
 20
606.804142
 30
0.0
 10
423.746401
 20
607.212632
 30
0.0
  0
SPLINE
  5
17c
100
AcDbEntity
  8
Layer_1
 62
7
100
AcDbSpline
 70
8
 71
3
 72
8
 73
4
 74
0
 40
0
 40
0
 40
0
 40
0
 40
1
 40
1
 40
1
 40
1
 10
423.746401
 20
607.212632
 30
0.0
 10
423.337884
 20
607.621149
 30
0.0
 10
423.108385
 20
608.175213
 30
0.0
 10
423.108385
 20
608.752957
 30
0.0
  0
SPLINE
  5
17d
100
AcDbEntity
  8
Layer_1
 62
7
100
AcDbSpline
 70
8
 71
3
 72
8
 73
4
 74
0
 40
0
 40
0
 40
0
 40
0
 40
1
 40
1
 40
1
 40
1
 10
423.108385
 20
608.752957
 30
0.0
 10
423.108385
 20
609.330675
 30
0.0
 10
423.337884
 20
609.884739
 30
0.0
 10
423.746401
 20
610.293255
 30
0.0
  0
SPLINE
  5
17e
100
AcDbEntity
  8
Layer_1
 62
7
100
AcDbSpline
 70
8
 71
3
 72
8
 73
4
 74
0
 40
0
 40
0
 40
0
 40
0
 40
1
 40
1
 40
1
 40
1
 10
423.746401
 20
610.293255
 30
0.0
 10
424.154918
 20
610.701772
 30
0.0
 10
424.708981
 20
610.931271
 30
0.0
 10
425.286699
 20
610.931271
 30
0.0
  0
SPLINE
  5
17f
100
AcDbEntity
  8
Layer_1
 62
7
100
AcDbSpline
 70
8
 71
3
 72
8
 73
4
 74
0
 40
0
 40
0
 40
0
 40
0
 40
1
 40
1
 40
1
 40
1
 10
425.286699
 20
610.931271
 30
0.0
 10
425.864443
 20
610.931271
 30
0.0
 10
426.418507
 20
610.701772
 30
0.0
 10
426.827024
 20
610.293255
 30
0.0
  0
SPLINE
  5
180
100
AcDbEntity
  8
Layer_1
 62
7
100
AcDbSpline
 70
8
 71
3
 72
8
 73
4
 74
0
 40
0
 40
0
 40
0
 40
0
 40
1
 40
1
 40
1
 40
1
 10
426.827024
 20
610.293255
 30
0.0
 10
427.235541
 20
609.884739
 30
0.0
 10
427.465040
 20
609.330675
 30
0.0
 10
427.465040
 20
608.752957
 30
0.0
  0
LWPOLYLINE
  5
181
100
AcDbEntity
  8
Layer_1
 62
7
100
AcDbPolyline
 90
4
 70
1
 10
18.129880
 20
624.259657
 30
0.0
 10
437.777731
 20
624.259657
 30
0.0
 10
437.777731
 20
535.611789
 30
0.0
 10
18.129880
 20
535.611789
 30
0.0
  0
SPLINE
  5
182
100
AcDbEntity
  8
Layer_1
 62
5
100
AcDbSpline
 70
8
 71
3
 72
8
 73
4
 74
0
 40
0
 40
0
 40
0
 40
0
 40
1
 40
1
 40
1
 40
1
 10
186.463570
 20
497.411779
 30
0.0
 10
187.063380
 20
497.921457
 30
0.0
 10
187.962569
 20
497.849418
 30
0.0
 10
188.473580
 20
497.250738
 30
0.0
  0
SPLINE
  5
183
100
AcDbEntity
  8
Layer_1
 62
5
100
AcDbSpline
 70
8
 71
3
 72
8
 73
4
 74
0
 40
0
 40
0
 40
0
 40
0
 40
1
 40
1
 40
1
 40
1
 10
188.473580
 20
497.250738
 30
0.0
 10
188.984591
 20
496.652057
 30
0.0
 10
188.914551
 20
495.752707
 30
0.0
 10
188.317010
 20
495.240367
 30
0.0
  0
SPLINE
  5
184
100
AcDbEntity
  8
Layer_1
 62
5
100
AcDbSpline
 70
8
 71
3
 72
8
 73
4
 74
0
 40
0
 40
0
 40
0
 40
0
 40
1
 40
1
 40
1
 40
1
 10
188.317010
 20
495.240367
 30
0.0
 10
187.719481
 20
494.728028
 30
0.0
 10
186.819979
 20
494.796069
 30
0.0
 10
186.302179
 20
495.397287
 30
0.0
  0
SPLINE
  5
185
100
AcDbEntity
  8
Layer_1
 62
5
100
AcDbSpline
 70
8
 71
3
 72
8
 73
4
 74
0
 40
0
 40
0
 40
0
 40
0
 40
1
 40
1
 40
1
 40
1
 10
186.302179
 20
495.397287
 30
0.0
 10
185.789721
 20
496.003069
 30
0.0
 10
185.863759
 20
496.902099
 30
0.0
 10
186.463570
 20
497.411779
 30
0.0
  0
LWPOLYLINE
  5
186
100
AcDbEntity
  8
Layer_1
 62
7
100
AcDbPolyline
 90
4
 70
1
 10
15.174140
 20
525.108357
 30
0.0
 10
434.742934
 20
525.108357
 30
0.0
 10
434.742934
 20
436.539568
 30
0.0
 10
15.174140
 20
436.539568
 30
0.0
  0
SPLINE
  5
187
100
AcDbEntity
  8
Layer_1
 62
5
100
AcDbSpline
 70
8
 71
3
 72
8
 73
4
 74
0
 40
0
 40
0
 40
0
 40
0
 40
1
 40
1
 40
1
 40
1
 10
186.463570
 20
466.661759
 30
0.0
 10
187.063380
 20
467.171439
 30
0.0
 10
187.962569
 20
467.099398
 30
0.0
 10
188.473580
 20
466.500717
 30
0.0
  0
SPLINE
  5
188
100
AcDbEntity
  8
Layer_1
 62
5
100
AcDbSpline
 70
8
 71
3
 72
8
 73
4
 74
0
 40
0
 40
0
 40
0
 40
0
 40
1
 40
1
 40
1
 40
1
 10
188.473580
 20
466.500717
 30
0.0
 10
188.984591
 20
465.902037
 30
0.0
 10
188.914551
 20
465.002689
 30
0.0
 10
188.317010
 20
464.490347
 30
0.0
  0
SPLINE
  5
189
100
AcDbEntity
  8
Layer_1
 62
5
100
AcDbSpline
 70
8
 71
3
 72
8
 73
4
 74
0
 40
0
 40
0
 40
0
 40
0
 40
1
 40
1
 40
1
 40
1
 10
188.317010
 20
464.490347
 30
0.0
 10
187.719470
 20
463.978008
 30
0.0
 10
186.819979
 20
464.046059
 30
0.0
 10
186.302179
 20
464.647279
 30
0.0
  0
SPLINE
  5
18a
100
AcDbEntity
  8
Layer_1
 62
5
100
AcDbSpline
 70
8
 71
3
 72
8
 73
4
 74
0
 40
0
 40
0
 40
0
 40
0
 40
1
 40
1
 40
1
 40
1
 10
186.302179
 20
464.647279
 30
0.0
 10
185.789721
 20
465.253048
 30
0.0
 10
185.863759
 20
466.152078
 30
0.0
 10
186.463570
 20
466.661759
 30
0.0
  0
SPLINE
  5
18b
100
AcDbEntity
  8
Layer_1
 62
5
100
AcDbSpline
 70
8
 71
3
 72
8
 73
4
 74
0
 40
0
 40
0
 40
0
 40
0
 40
1
 40
1
 40
1
 40
1
 10
111.713539
 20
497.411779
 30
0.0
 10
112.313350
 20
497.921457
 30
0.0
 10
113.212539
 20
497.849418
 30
0.0
 10
113.723550
 20
497.250738
 30
0.0
  0
SPLINE
  5
18c
100
AcDbEntity
  8
Layer_1
 62
5
100
AcDbSpline
 70
8
 71
3
 72
8
 73
4
 74
0
 40
0
 40
0
 40
0
 40
0
 40
1
 40
1
 40
1
 40
1
 10
113.723550
 20
497.250738
 30
0.0
 10
114.234561
 20
496.652057
 30
0.0
 10
114.164520
 20
495.752707
 30
0.0
 10
113.566980
 20
495.240367
 30
0.0
  0
SPLINE
  5
18d
100
AcDbEntity
  8
Layer_1
 62
5
100
AcDbSpline
 70
8
 71
3
 72
8
 73
4
 74
0
 40
0
 40
0
 40
0
 40
0
 40
1
 40
1
 40
1
 40
1
 10
113.566980
 20
495.240367
 30
0.0
 10
112.969450
 20
494.728028
 30
0.0
 10
112.069949
 20
494.796069
 30
0.0
 10
111.552159
 20
495.397287
 30
0.0
  0
SPLINE
  5
18e
100
AcDbEntity
  8
Layer_1
 62
5
100
AcDbSpline
 70
8
 71
3
 72
8
 73
4
 74
0
 40
0
 40
0
 40
0
 40
0
 40
1
 40
1
 40
1
 40
1
 10
111.552159
 20
495.397287
 30
0.0
 10
111.039690
 20
496.003069
 30
0.0
 10
111.113729
 20
496.902099
 30
0.0
 10
111.713539
 20
497.411779
 30
0.0
  0
SPLINE
  5
18f
100
AcDbEntity
  8
Layer_1
 62
5
100
AcDbSpline
 70
8
 71
3
 72
8
 73
4
 74
0
 40
0
 40
0
 40
0
 40
0
 40
1
 40
1
 40
1
 40
1
 10
111.713539
 20
466.661759
 30
0.0
 10
112.313350
 20
467.171439
 30
0.0
 10
113.212539
 20
467.099398
 30
0.0
 10
113.723550
 20
466.500717
 30
0.0
  0
SPLINE
  5
190
100
AcDbEntity
  8
Layer_1
 62
5
100
AcDbSpline
 70
8
 71
3
 72
8
 73
4
 74
0
 40
0
 40
0
 40
0
 40
0
 40
1
 40
1
 40
1
 40
1
 10
113.723550
 20
466.500717
 30
0.0
 10
114.234561
 20
465.902037
 30
0.0
 10
114.164520
 20
465.002689
 30
0.0
 10
113.566980
 20
464.490347
 30
0.0
  0
SPLINE
  5
191
100
AcDbEntity
  8
Layer_1
 62
5
100
AcDbSpline
 70
8
 71
3
 72
8
 73
4
 74
0
 40
0
 40
0
 40
0
 40
0
 40
1
 40
1
 40
1
 40
1
 10
113.566980
 20
464.490347
 30
0.0
 10
112.969440
 20
463.978008
 30
0.0
 10
112.069949
 20
464.046059
 30
0.0
 10
111.552159
 20
464.647279
 30
0.0
  0
SPLINE
  5
192
100
AcDbEntity
  8
Layer_1
 62
5
100
AcDbSpline
 70
8
 71
3
 72
8
 73
4
 74
0
 40
0
 40
0
 40
0
 40
0
 40
1
 40
1
 40
1
 40
1
 10
111.552159
 20
464.647279
 30
0.0
 10
111.039690
 20
465.253048
 30
0.0
 10
111.113729
 20
466.152078
 30
0.0
 10
111.713539
 20
466.661759
 30
0.0
  0
SPLINE
  5
193
100
AcDbEntity
  8
Layer_1
 62
7
100
AcDbSpline
 70
8
 71
3
 72
8
 73
4
 74
0
 40
0
 40
0
 40
0
 40
0
 40
1
 40
1
 40
1
 40
1
 10
376.165983
 20
480.948949
 30
0.0
 10
376.165983
 20
479.986069
 30
0.0
 10
375.783475
 20
479.062629
 30
0.0
 10
375.102623
 20
478.381774
 30
0.0
  0
SPLINE
  5
194
100
AcDbEntity
  8
Layer_1
 62
7
100
AcDbSpline
 70
8
 71
3
 72
8
 73
4
 74
0
 40
0
 40
0
 40
0
 40
0
 40
1
 40
1
 40
1
 40
1
 10
375.102623
 20
478.381774
 30
0.0
 10
374.421770
 20
477.700916
 30
0.0
 10
373.498322
 20
477.318416
 30
0.0
 10
372.535450
 20
477.318419
 30
0.0
  0
SPLINE
  5
195
100
AcDbEntity
  8
Layer_1
 62
7
100
AcDbSpline
 70
8
 71
3
 72
8
 73
4
 74
0
 40
0
 40
0
 40
0
 40
0
 40
1
 40
1
 40
1
 40
1
 10
372.535450
 20
477.318419
 30
0.0
 10
370.530358
 20
477.318419
 30
0.0
 10
368.904917
 20
478.943862
 30
0.0
 10
368.904917
 20
480.948949
 30
0.0
  0
SPLINE
  5
196
100
AcDbEntity
  8
Layer_1
 62
7
100
AcDbSpline
 70
8
 71
3
 72
8
 73
4
 74
0
 40
0
 40
0
 40
0
 40
0
 40
1
 40
1
 40
1
 40
1
 10
368.904917
 20
480.948949
 30
0.0
 10
368.904917
 20
482.954033
 30
0.0
 10
370.530358
 20
484.579477
 30
0.0
 10
372.535450
 20
484.579477
 30
0.0
  0
SPLINE
  5
197
100
AcDbEntity
  8
Layer_1
 62
7
100
AcDbSpline
 70
8
 71
3
 72
8
 73
4
 74
0
 40
0
 40
0
 40
0
 40
0
 40
1
 40
1
 40
1
 40
1
 10
372.535450
 20
484.579477
 30
0.0
 10
373.498322
 20
484.579479
 30
0.0
 10
374.421770
 20
484.196979
 30
0.0
 10
375.102623
 20
483.516122
 30
0.0
  0
SPLINE
  5
198
100
AcDbEntity
  8
Layer_1
 62
7
100
AcDbSpline
 70
8
 71
3
 72
8
 73
4
 74
0
 40
0
 40
0
 40
0
 40
0
 40
1
 40
1
 40
1
 40
1
 10
375.102623
 20
483.516122
 30
0.0
 10
375.783475
 20
482.835267
 30
0.0
 10
376.165983
 20
481.911826
 30
0.0
 10
376.165983
 20
480.948949
 30
0.0
  0
SPLINE
  5
199
100
AcDbEntity
  8
Layer_1
 62
7
100
AcDbSpline
 70
8
 71
3
 72
8
 73
4
 74
0
 40
0
 40
0
 40
0
 40
0
 40
1
 40
1
 40
1
 40
1
 10
29.849839
 20
452.021228
 30
0.0
 10
29.849839
 20
451.443502
 30
0.0
 10
29.620340
 20
450.889438
 30
0.0
 10
29.211826
 20
450.480924
 30
0.0
  0
SPLINE
  5
19a
100
AcDbEntity
  8
Layer_1
 62
7
100
AcDbSpline
 70
8
 71
3
 72
8
 73
4
 74
0
 40
0
 40
0
 40
0
 40
0
 40
1
 40
1
 40
1
 40
1
 10
29.211826
 20
450.480924
 30
0.0
 10
28.803312
 20
450.072410
 30
0.0
 10
28.249245
 20
449.842908
 30
0.0
 10
27.671519
 20
449.842908
 30
0.0
  0
SPLINE
  5
19b
100
AcDbEntity
  8
Layer_1
 62
7
100
AcDbSpline
 70
8
 71
3
 72
8
 73
4
 74
0
 40
0
 40
0
 40
0
 40
0
 40
1
 40
1
 40
1
 40
1
 10
27.671519
 20
449.842908
 30
0.0
 10
27.093794
 20
449.842908
 30
0.0
 10
26.539730
 20
450.072410
 30
0.0
 10
26.131215
 20
450.480924
 30
0.0
  0
SPLINE
  5
19c
100
AcDbEntity
  8
Layer_1
 62
7
100
AcDbSpline
 70
8
 71
3
 72
8
 73
4
 74
0
 40
0
 40
0
 40
0
 40
0
 40
1
 40
1
 40
1
 40
1
 10
26.131215
 20
450.480924
 30
0.0
 10
25.722701
 20
450.889438
 30
0.0
 10
25.493200
 20
451.443502
 30
0.0
 10
25.493200
 20
452.021228
 30
0.0
  0
SPLINE
  5
19d
100
AcDbEntity
  8
Layer_1
 62
7
100
AcDbSpline
 70
8
 71
3
 72
8
 73
4
 74
0
 40
0
 40
0
 40
0
 40
0
 40
1
 40
1
 40
1
 40
1
 10
25.493200
 20
452.021228
 30
0.0
 10
25.493200
 20
452.598953
 30
0.0
 10
25.722701
 20
453.153020
 30
0.0
 10
26.131215
 20
453.561534
 30
0.0
  0
SPLINE
  5
19e
100
AcDbEntity
  8
Layer_1
 62
7
100
AcDbSpline
 70
8
 71
3
 72
8
 73
4
 74
0
 40
0
 40
0
 40
0
 40
0
 40
1
 40
1
 40
1
 40
1
 10
26.131215
 20
453.561534
 30
0.0
 10
26.539730
 20
453.970048
 30
0.0
 10
27.093794
 20
454.199548
 30
0.0
 10
27.671519
 20
454.199548
 30
0.0
  0
SPLINE
  5
19f
100
AcDbEntity
  8
Layer_1
 62
7
100
AcDbSpline
 70
8
 71
3
 72
8
 73
4
 74
0
 40
0
 40
0
 40
0
 40
0
 40
1
 40
1
 40
1
 40
1
 10
27.671519
 20
454.199548
 30
0.0
 10
28.249245
 20
454.199548
 30
0.0
 10
28.803312
 20
453.970048
 30
0.0
 10
29.211826
 20
453.561534
 30
0.0
  0
SPLINE
  5
1a0
100
AcDbEntity
  8
Layer_1
 62
7
100
AcDbSpline
 70
8
 71
3
 72
8
 73
4
 74
0
 40
0
 40
0
 40
0
 40
0
 40
1
 40
1
 40
1
 40
1
 10
29.211826
 20
453.561534
 30
0.0
 10
29.620340
 20
453.153020
 30
0.0
 10
29.849839
 20
452.598953
 30
0.0
 10
29.849839
 20
452.021228
 30
0.0
  0
SPLINE
  5
1a1
100
AcDbEntity
  8
Layer_1
 62
7
100
AcDbSpline
 70
8
 71
3
 72
8
 73
4
 74
0
 40
0
 40
0
 40
0
 40
0
 40
1
 40
1
 40
1
 40
1
 10
29.849839
 20
509.601218
 30
0.0
 10
29.849839
 20
509.023492
 30
0.0
 10
29.620340
 20
508.469428
 30
0.0
 10
29.211826
 20
508.060914
 30
0.0
  0
SPLINE
  5
1a2
100
AcDbEntity
  8
Layer_1
 62
7
100
AcDbSpline
 70
8
 71
3
 72
8
 73
4
 74
0
 40
0
 40
0
 40
0
 40
0
 40
1
 40
1
 40
1
 40
1
 10
29.211826
 20
508.060914
 30
0.0
 10
28.803312
 20
507.652400
 30
0.0
 10
28.249245
 20
507.422898
 30
0.0
 10
27.671519
 20
507.422898
 30
0.0
  0
SPLINE
  5
1a3
100
AcDbEntity
  8
Layer_1
 62
7
100
AcDbSpline
 70
8
 71
3
 72
8
 73
4
 74
0
 40
0
 40
0
 40
0
 40
0
 40
1
 40
1
 40
1
 40
1
 10
27.671519
 20
507.422898
 30
0.0
 10
27.093794
 20
507.422898
 30
0.0
 10
26.539730
 20
507.652400
 30
0.0
 10
26.131215
 20
508.060914
 30
0.0
  0
SPLINE
  5
1a4
100
AcDbEntity
  8
Layer_1
 62
7
100
AcDbSpline
 70
8
 71
3
 72
8
 73
4
 74
0
 40
0
 40
0
 40
0
 40
0
 40
1
 40
1
 40
1
 40
1
 10
26.131215
 20
508.060914
 30
0.0
 10
25.722701
 20
508.469428
 30
0.0
 10
25.493200
 20
509.023492
 30
0.0
 10
25.493200
 20
509.601218
 30
0.0
  0
SPLINE
  5
1a5
100
AcDbEntity
  8
Layer_1
 62
7
100
AcDbSpline
 70
8
 71
3
 72
8
 73
4
 74
0
 40
0
 40
0
 40
0
 40
0
 40
1
 40
1
 40
1
 40
1
 10
25.493200
 20
509.601218
 30
0.0
 10
25.493200
 20
510.178944
 30
0.0
 10
25.722701
 20
510.733008
 30
0.0
 10
26.131215
 20
511.141522
 30
0.0
  0
SPLINE
  5
1a6
100
AcDbEntity
  8
Layer_1
 62
7
100
AcDbSpline
 70
8
 71
3
 72
8
 73
4
 74
0
 40
0
 40
0
 40
0
 40
0
 40
1
 40
1
 40
1
 40
1
 10
26.131215
 20
511.141522
 30
0.0
 10
26.539730
 20
511.550036
 30
0.0
 10
27.093794
 20
511.779538
 30
0.0
 10
27.671519
 20
511.779538
 30
0.0
  0
SPLINE
  5
1a7
100
AcDbEntity
  8
Layer_1
 62
7
100
AcDbSpline
 70
8
 71
3
 72
8
 73
4
 74
0
 40
0
 40
0
 40
0
 40
0
 40
1
 40
1
 40
1
 40
1
 10
27.671519
 20
511.779538
 30
0.0
 10
28.249245
 20
511.779538
 30
0.0
 10
28.803312
 20
511.550036
 30
0.0
 10
29.211826
 20
511.141522
 30
0.0
  0
SPLINE
  5
1a8
100
AcDbEntity
  8
Layer_1
 62
7
100
AcDbSpline
 70
8
 71
3
 72
8
 73
4
 74
0
 40
0
 40
0
 40
0
 40
0
 40
1
 40
1
 40
1
 40
1
 10
29.211826
 20
511.141522
 30
0.0
 10
29.620340
 20
510.733008
 30
0.0
 10
29.849839
 20
510.178944
 30
0.0
 10
29.849839
 20
509.601218
 30
0.0
  0
SPLINE
  5
1a9
100
AcDbEntity
  8
Layer_1
 62
7
100
AcDbSpline
 70
8
 71
3
 72
8
 73
4
 74
0
 40
0
 40
0
 40
0
 40
0
 40
1
 40
1
 40
1
 40
1
 10
424.429846
 20
452.021228
 30
0.0
 10
424.429846
 20
451.443502
 30
0.0
 10
424.200346
 20
450.889438
 30
0.0
 10
423.791830
 20
450.480924
 30
0.0
  0
SPLINE
  5
1aa
100
AcDbEntity
  8
Layer_1
 62
7
100
AcDbSpline
 70
8
 71
3
 72
8
 73
4
 74
0
 40
0
 40
0
 40
0
 40
0
 40
1
 40
1
 40
1
 40
1
 10
423.791830
 20
450.480924
 30
0.0
 10
423.383313
 20
450.072410
 30
0.0
 10
422.829249
 20
449.842908
 30
0.0
 10
422.251531
 20
449.842908
 30
0.0
  0
SPLINE
  5
1ab
100
AcDbEntity
  8
Layer_1
 62
7
100
AcDbSpline
 70
8
 71
3
 72
8
 73
4
 74
0
 40
0
 40
0
 40
0
 40
0
 40
1
 40
1
 40
1
 40
1
 10
422.251531
 20
449.842908
 30
0.0
 10
421.673787
 20
449.842908
 30
0.0
 10
421.119723
 20
450.072410
 30
0.0
 10
420.711207
 20
450.480924
 30
0.0
  0
SPLINE
  5
1ac
100
AcDbEntity
  8
Layer_1
 62
7
100
AcDbSpline
 70
8
 71
3
 72
8
 73
4
 74
0
 40
0
 40
0
 40
0
 40
0
 40
1
 40
1
 40
1
 40
1
 10
420.711207
 20
450.480924
 30
0.0
 10
420.302690
 20
450.889438
 30
0.0
 10
420.073190
 20
451.443502
 30
0.0
 10
420.073190
 20
452.021228
 30
0.0
  0
SPLINE
  5
1ad
100
AcDbEntity
  8
Layer_1
 62
7
100
AcDbSpline
 70
8
 71
3
 72
8
 73
4
 74
0
 40
0
 40
0
 40
0
 40
0
 40
1
 40
1
 40
1
 40
1
 10
420.073190
 20
452.021228
 30
0.0
 10
420.073190
 20
452.598953
 30
0.0
 10
420.302690
 20
453.153020
 30
0.0
 10
420.711207
 20
453.561534
 30
0.0
  0
SPLINE
  5
1ae
100
AcDbEntity
  8
Layer_1
 62
7
100
AcDbSpline
 70
8
 71
3
 72
8
 73
4
 74
0
 40
0
 40
0
 40
0
 40
0
 40
1
 40
1
 40
1
 40
1
 10
420.711207
 20
453.561534
 30
0.0
 10
421.119723
 20
453.970048
 30
0.0
 10
421.673787
 20
454.199548
 30
0.0
 10
422.251531
 20
454.199548
 30
0.0
  0
SPLINE
  5
1af
100
AcDbEntity
  8
Layer_1
 62
7
100
AcDbSpline
 70
8
 71
3
 72
8
 73
4
 74
0
 40
0
 40
0
 40
0
 40
0
 40
1
 40
1
 40
1
 40
1
 10
422.251531
 20
454.199548
 30
0.0
 10
422.829249
 20
454.199548
 30
0.0
 10
423.383313
 20
453.970048
 30
0.0
 10
423.791830
 20
453.561534
 30
0.0
  0
SPLINE
  5
1b0
100
AcDbEntity
  8
Layer_1
 62
7
100
AcDbSpline
 70
8
 71
3
 72
8
 73
4
 74
0
 40
0
 40
0
 40
0
 40
0
 40
1
 40
1
 40
1
 40
1
 10
423.791830
 20
453.561534
 30
0.0
 10
424.200346
 20
453.153020
 30
0.0
 10
424.429846
 20
452.598953
 30
0.0
 10
424.429846
 20
452.021228
 30
0.0
  0
SPLINE
  5
1b1
100
AcDbEntity
  8
Layer_1
 62
7
100
AcDbSpline
 70
8
 71
3
 72
8
 73
4
 74
0
 40
0
 40
0
 40
0
 40
0
 40
1
 40
1
 40
1
 40
1
 10
424.429846
 20
509.601197
 30
0.0
 10
424.429846
 20
509.023471
 30
0.0
 10
424.200346
 20
508.469407
 30
0.0
 10
423.791830
 20
508.060893
 30
0.0
  0
SPLINE
  5
1b2
100
AcDbEntity
  8
Layer_1
 62
7
100
AcDbSpline
 70
8
 71
3
 72
8
 73
4
 74
0
 40
0
 40
0
 40
0
 40
0
 40
1
 40
1
 40
1
 40
1
 10
423.791830
 20
508.060893
 30
0.0
 10
423.383313
 20
507.652379
 30
0.0
 10
422.829249
 20
507.422877
 30
0.0
 10
422.251531
 20
507.422877
 30
0.0
  0
SPLINE
  5
1b3
100
AcDbEntity
  8
Layer_1
 62
7
100
AcDbSpline
 70
8
 71
3
 72
8
 73
4
 74
0
 40
0
 40
0
 40
0
 40
0
 40
1
 40
1
 40
1
 40
1
 10
422.251531
 20
507.422877
 30
0.0
 10
421.673787
 20
507.422877
 30
0.0
 10
421.119723
 20
507.652379
 30
0.0
 10
420.711207
 20
508.060893
 30
0.0
  0
SPLINE
  5
1b4
100
AcDbEntity
  8
Layer_1
 62
7
100
AcDbSpline
 70
8
 71
3
 72
8
 73
4
 74
0
 40
0
 40
0
 40
0
 40
0
 40
1
 40
1
 40
1
 40
1
 10
420.711207
 20
508.060893
 30
0.0
 10
420.302690
 20
508.469407
 30
0.0
 10
420.073190
 20
509.023471
 30
0.0
 10
420.073190
 20
509.601197
 30
0.0
  0
SPLINE
  5
1b5
100
AcDbEntity
  8
Layer_1
 62
7
100
AcDbSpline
 70
8
 71
3
 72
8
 73
4
 74
0
 40
0
 40
0
 40
0
 40
0
 40
1
 40
1
 40
1
 40
1
 10
420.073190
 20
509.601197
 30
0.0
 10
420.073190
 20
510.178925
 30
0.0
 10
420.302690
 20
510.732989
 30
0.0
 10
420.711207
 20
511.141503
 30
0.0
  0
SPLINE
  5
1b6
100
AcDbEntity
  8
Layer_1
 62
7
100
AcDbSpline
 70
8
 71
3
 72
8
 73
4
 74
0
 40
0
 40
0
 40
0
 40
0
 40
1
 40
1
 40
1
 40
1
 10
420.711207
 20
511.141503
 30
0.0
 10
421.119723
 20
511.550017
 30
0.0
 10
421.673787
 20
511.779519
 30
0.0
 10
422.251531
 20
511.779519
 30
0.0
  0
SPLINE
  5
1b7
100
AcDbEntity
  8
Layer_1
 62
7
100
AcDbSpline
 70
8
 71
3
 72
8
 73
4
 74
0
 40
0
 40
0
 40
0
 40
0
 40
1
 40
1
 40
1
 40
1
 10
422.251531
 20
511.779519
 30
0.0
 10
422.829249
 20
511.779519
 30
0.0
 10
423.383313
 20
511.550017
 30
0.0
 10
423.791830
 20
511.141503
 30
0.0
  0
SPLINE
  5
1b8
100
AcDbEntity
  8
Layer_1
 62
7
100
AcDbSpline
 70
8
 71
3
 72
8
 73
4
 74
0
 40
0
 40
0
 40
0
 40
0
 40
1
 40
1
 40
1
 40
1
 10
423.791830
 20
511.141503
 30
0.0
 10
424.200346
 20
510.732989
 30
0.0
 10
424.429846
 20
510.178925
 30
0.0
 10
424.429846
 20
509.601197
 30
0.0
  0
SPLINE
  5
1b9
100
AcDbEntity
  8
Layer_1
 62
5
100
AcDbSpline
 70
8
 71
3
 72
8
 73
4
 74
0
 40
0
 40
0
 40
0
 40
0
 40
1
 40
1
 40
1
 40
1
 10
485.782620
 20
128.496808
 30
0.0
 10
485.189160
 20
129.195189
 30
0.0
 10
485.273059
 20
130.242137
 30
0.0
 10
485.970130
 20
130.837119
 30
0.0
  0
SPLINE
  5
1ba
100
AcDbEntity
  8
Layer_1
 62
5
100
AcDbSpline
 70
8
 71
3
 72
8
 73
4
 74
0
 40
0
 40
0
 40
0
 40
0
 40
1
 40
1
 40
1
 40
1
 10
485.970130
 20
130.837119
 30
0.0
 10
486.667201
 20
131.432098
 30
0.0
 10
487.714343
 20
131.350548
 30
0.0
 10
488.310873
 20
130.654818
 30
0.0
  0
SPLINE
  5
1bb
100
AcDbEntity
  8
Layer_1
 62
5
100
AcDbSpline
 70
8
 71
3
 72
8
 73
4
 74
0
 40
0
 40
0
 40
0
 40
0
 40
1
 40
1
 40
1
 40
1
 10
488.310873
 20
130.654818
 30
0.0
 10
488.907429
 20
129.959089
 30
0.0
 10
488.828212
 20
128.911778
 30
0.0
 10
488.128178
 20
128.308898
 30
0.0
  0
SPLINE
  5
1bc
100
AcDbEntity
  8
Layer_1
 62
5
100
AcDbSpline
 70
8
 71
3
 72
8
 73
4
 74
0
 40
0
 40
0
 40
0
 40
0
 40
1
 40
1
 40
1
 40
1
 10
488.128178
 20
128.308898
 30
0.0
 10
487.422825
 20
127.712218
 30
0.0
 10
486.376054
 20
127.798427
 30
0.0
 10
485.782620
 20
128.496808
 30
0.0
  0
SPLINE
  5
1bd
100
AcDbEntity
  8
Layer_1
 62
5
100
AcDbSpline
 70
8
 71
3
 72
8
 73
4
 74
0
 40
0
 40
0
 40
0
 40
0
 40
1
 40
1
 40
1
 40
1
 10
524.782653
 20
128.496808
 30
0.0
 10
524.189193
 20
129.195189
 30
0.0
 10
524.273092
 20
130.242137
 30
0.0
 10
524.970163
 20
130.837119
 30
0.0
  0
SPLINE
  5
1be
100
AcDbEntity
  8
Layer_1
 62
5
100
AcDbSpline
 70
8
 71
3
 72
8
 73
4
 74
0
 40
0
 40
0
 40
0
 40
0
 40
1
 40
1
 40
1
 40
1
 10
524.970163
 20
130.837119
 30
0.0
 10
525.667208
 20
131.432098
 30
0.0
 10
526.714376
 20
131.350548
 30
0.0
 10
527.310906
 20
130.654818
 30
0.0
  0
SPLINE
  5
1bf
100
AcDbEntity
  8
Layer_1
 62
5
100
AcDbSpline
 70
8
 71
3
 72
8
 73
4
 74
0
 40
0
 40
0
 40
0
 40
0
 40
1
 40
1
 40
1
 40
1
 10
527.310906
 20
130.654818
 30
0.0
 10
527.907462
 20
129.959089
 30
0.0
 10
527.828219
 20
128.911778
 30
0.0
 10
527.128184
 20
128.308888
 30
0.0
  0
SPLINE
  5
1c0
100
AcDbEntity
  8
Layer_1
 62
5
100
AcDbSpline
 70
8
 71
3
 72
8
 73
4
 74
0
 40
0
 40
0
 40
0
 40
0
 40
1
 40
1
 40
1
 40
1
 10
527.128184
 20
128.308888
 30
0.0
 10
526.422858
 20
127.712207
 30
0.0
 10
525.376087
 20
127.798427
 30
0.0
 10
524.782653
 20
128.496808
 30
0.0
  0
SPLINE
  5
1c1
100
AcDbEntity
  8
Layer_1
 62
5
100
AcDbSpline
 70
8
 71
3
 72
8
 73
4
 74
0
 40
0
 40
0
 40
0
 40
0
 40
1
 40
1
 40
1
 40
1
 10
524.782653
 20
83.496808
 30
0.0
 10
524.189193
 20
84.195189
 30
0.0
 10
524.273092
 20
85.242137
 30
0.0
 10
524.970163
 20
85.837119
 30
0.0
  0
SPLINE
  5
1c2
100
AcDbEntity
  8
Layer_1
 62
5
100
AcDbSpline
 70
8
 71
3
 72
8
 73
4
 74
0
 40
0
 40
0
 40
0
 40
0
 40
1
 40
1
 40
1
 40
1
 10
524.970163
 20
85.837119
 30
0.0
 10
525.667208
 20
86.432098
 30
0.0
 10
526.714376
 20
86.350548
 30
0.0
 10
527.310906
 20
85.654819
 30
0.0
  0
SPLINE
  5
1c3
100
AcDbEntity
  8
Layer_1
 62
5
100
AcDbSpline
 70
8
 71
3
 72
8
 73
4
 74
0
 40
0
 40
0
 40
0
 40
0
 40
1
 40
1
 40
1
 40
1
 10
527.310906
 20
85.654819
 30
0.0
 10
527.907462
 20
84.959089
 30
0.0
 10
527.828219
 20
83.911778
 30
0.0
 10
527.128184
 20
83.308888
 30
0.0
  0
SPLINE
  5
1c4
100
AcDbEntity
  8
Layer_1
 62
5
100
AcDbSpline
 70
8
 71
3
 72
8
 73
4
 74
0
 40
0
 40
0
 40
0
 40
0
 40
1
 40
1
 40
1
 40
1
 10
527.128184
 20
83.308888
 30
0.0
 10
526.422858
 20
82.712207
 30
0.0
 10
525.376087
 20
82.798427
 30
0.0
 10
524.782653
 20
83.496808
 30
0.0
  0
SPLINE
  5
1c5
100
AcDbEntity
  8
Layer_1
 62
5
100
AcDbSpline
 70
8
 71
3
 72
8
 73
4
 74
0
 40
0
 40
0
 40
0
 40
0
 40
1
 40
1
 40
1
 40
1
 10
485.782620
 20
83.496808
 30
0.0
 10
485.189160
 20
84.195189
 30
0.0
 10
485.273059
 20
85.242137
 30
0.0
 10
485.970130
 20
85.837119
 30
0.0
  0
SPLINE
  5
1c6
100
AcDbEntity
  8
Layer_1
 62
5
100
AcDbSpline
 70
8
 71
3
 72
8
 73
4
 74
0
 40
0
 40
0
 40
0
 40
0
 40
1
 40
1
 40
1
 40
1
 10
485.970130
 20
85.837119
 30
0.0
 10
486.667201
 20
86.432098
 30
0.0
 10
487.714343
 20
86.350548
 30
0.0
 10
488.310873
 20
85.654819
 30
0.0
  0
SPLINE
  5
1c7
100
AcDbEntity
  8
Layer_1
 62
5
100
AcDbSpline
 70
8
 71
3
 72
8
 73
4
 74
0
 40
0
 40
0
 40
0
 40
0
 40
1
 40
1
 40
1
 40
1
 10
488.310873
 20
85.654819
 30
0.0
 10
488.907429
 20
84.959089
 30
0.0
 10
488.828212
 20
83.911778
 30
0.0
 10
488.128178
 20
83.308888
 30
0.0
  0
SPLINE
  5
1c8
100
AcDbEntity
  8
Layer_1
 62
5
100
AcDbSpline
 70
8
 71
3
 72
8
 73
4
 74
0
 40
0
 40
0
 40
0
 40
0
 40
1
 40
1
 40
1
 40
1
 10
488.128178
 20
83.308888
 30
0.0
 10
487.422825
 20
82.712207
 30
0.0
 10
486.376054
 20
82.798427
 30
0.0
 10
485.782620
 20
83.496808
 30
0.0
  0
SPLINE
  5
1c9
100
AcDbEntity
  8
Layer_1
 62
7
100
AcDbSpline
 70
8
 71
3
 72
8
 73
4
 74
0
 40
0
 40
0
 40
0
 40
0
 40
1
 40
1
 40
1
 40
1
 10
568.068989
 20
157.054208
 30
0.0
 10
568.068989
 20
57.055207
 30
0.0
 10
568.068989
 20
157.054737
 30
0.0
 10
568.068989
 20
57.054207
 30
0.0
  0
LWPOLYLINE
  5
1ca
100
AcDbEntity
  8
Layer_1
 62
5
100
AcDbPolyline
 90
4
 70
1
 10
185.557279
 20
469.154528
 30
0.0
 10
114.218371
 20
469.154528
 30
0.0
 10
114.218371
 20
493.493448
 30
0.0
 10
185.557279
 20
493.493448
 30
0.0
  0
SPLINE
  5
1cb
100
AcDbEntity
  8
Layer_1
 62
7
100
AcDbSpline
 70
8
 71
3
 72
8
 73
4
 74
0
 40
0
 40
0
 40
0
 40
0
 40
1
 40
1
 40
1
 40
1
 10
447.068972
 20
57.055207
 30
0.0
 10
447.068787
 20
197.054607
 30
0.0
 10
447.068972
 20
17.056703
 30
0.0
 10
447.068972
 20
157.055309
 30
0.0
  0
LWPOLYLINE
  5
1cc
100
AcDbEntity
  8
Layer_1
 62
7
100
AcDbPolyline
 90
8
 70
0
 10
467.068985
 20
185.054607
 30
0.0
 10
472.068975
 20
185.054607
 30
0.0
 10
472.068975
 20
205.053609
 30
0.0
 10
543.068986
 20
205.053609
 30
0.0
 10
543.068986
 20
185.054607
 30
0.0
 10
548.068976
 20
185.054607
 30
0.0
 10
548.068976
 20
157.054208
 30
0.0
 10
568.068989
 20
157.054208
 30
0.0
  0
SPLINE
  5
1cd
100
AcDbEntity
  8
Layer_1
 62
7
100
AcDbSpline
 70
8
 71
3
 72
8
 73
4
 74
0
 40
0
 40
0
 40
0
 40
0
 40
1
 40
1
 40
1
 40
1
 10
536.568888
 20
14.456854
 30
0.0
 10
534.857881
 20
14.456854
 30
0.0
 10
533.470829
 20
15.843905
 30
0.0
 10
533.470829
 20
17.554913
 30
0.0
  0
SPLINE
  5
1ce
100
AcDbEntity
  8
Layer_1
 62
7
100
AcDbSpline
 70
8
 71
3
 72
8
 73
4
 74
0
 40
0
 40
0
 40
0
 40
0
 40
1
 40
1
 40
1
 40
1
 10
533.470829
 20
17.554913
 30
0.0
 10
533.470829
 20
18.376550
 30
0.0
 10
533.797245
 20
19.164559
 30
0.0
 10
534.378244
 20
19.745557
 30
0.0
  0
SPLINE
  5
1cf
100
AcDbEntity
  8
Layer_1
 62
7
100
AcDbSpline
 70
8
 71
3
 72
8
 73
4
 74
0
 40
0
 40
0
 40
0
 40
0
 40
1
 40
1
 40
1
 40
1
 10
534.378244
 20
19.745557
 30
0.0
 10
534.959242
 20
20.326556
 30
0.0
 10
535.747225
 20
20.652972
 30
0.0
 10
536.568888
 20
20.652972
 30
0.0
  0
SPLINE
  5
1d0
100
AcDbEntity
  8
Layer_1
 62
7
100
AcDbSpline
 70
8
 71
3
 72
8
 73
4
 74
0
 40
0
 40
0
 40
0
 40
0
 40
1
 40
1
 40
1
 40
1
 10
536.568888
 20
20.652972
 30
0.0
 10
537.390552
 20
20.652972
 30
0.0
 10
538.178560
 20
20.326556
 30
0.0
 10
538.759559
 20
19.745557
 30
0.0
  0
SPLINE
  5
1d1
100
AcDbEntity
  8
Layer_1
 62
7
100
AcDbSpline
 70
8
 71
3
 72
8
 73
4
 74
0
 40
0
 40
0
 40
0
 40
0
 40
1
 40
1
 40
1
 40
1
 10
538.759559
 20
19.745557
 30
0.0
 10
539.340557
 20
19.164559
 30
0.0
 10
539.666947
 20
18.376576
 30
0.0
 10
539.666947
 20
17.554913
 30
0.0
  0
SPLINE
  5
1d2
100
AcDbEntity
  8
Layer_1
 62
7
100
AcDbSpline
 70
8
 71
3
 72
8
 73
4
 74
0
 40
0
 40
0
 40
0
 40
0
 40
1
 40
1
 40
1
 40
1
 10
539.666947
 20
17.554913
 30
0.0
 10
539.666947
 20
16.733249
 30
0.0
 10
539.340557
 20
15.945241
 30
0.0
 10
538.759559
 20
15.364242
 30
0.0
  0
SPLINE
  5
1d3
100
AcDbEntity
  8
Layer_1
 62
7
100
AcDbSpline
 70
8
 71
3
 72
8
 73
4
 74
0
 40
0
 40
0
 40
0
 40
0
 40
1
 40
1
 40
1
 40
1
 10
538.759559
 20
15.364242
 30
0.0
 10
538.178560
 20
14.783244
 30
0.0
 10
537.390552
 20
14.456854
 30
0.0
 10
536.568888
 20
14.456854
 30
0.0
  0
LWPOLYLINE
  5
1d4
100
AcDbEntity
  8
Layer_1
 62
7
100
AcDbPolyline
 90
10
 70
0
 10
568.068989
 20
57.054207
 30
0.0
 10
548.068976
 20
57.054207
 30
0.0
 10
548.068976
 20
29.054604
 30
0.0
 10
543.068986
 20
29.054604
 30
0.0
 10
543.068986
 20
9.053612
 30
0.0
 10
472.068975
 20
9.053612
 30
0.0
 10
472.068975
 20
29.054604
 30
0.0
 10
467.068985
 20
29.054604
 30
0.0
 10
467.068985
 20
57.055207
 30
0.0
 10
447.068972
 20
57.055207
 30
0.0
  0
SPLINE
  5
1d5
100
AcDbEntity
  8
Layer_1
 62
7
100
AcDbSpline
 70
8
 71
3
 72
8
 73
4
 74
0
 40
0
 40
0
 40
0
 40
0
 40
1
 40
1
 40
1
 40
1
 10
478.568888
 20
14.456854
 30
0.0
 10
476.857880
 20
14.456854
 30
0.0
 10
475.470855
 20
15.843905
 30
0.0
 10
475.470829
 20
17.554913
 30
0.0
  0
SPLINE
  5
1d6
100
AcDbEntity
  8
Layer_1
 62
7
100
AcDbSpline
 70
8
 71
3
 72
8
 73
4
 74
0
 40
0
 40
0
 40
0
 40
0
 40
1
 40
1
 40
1
 40
1
 10
475.470829
 20
17.554913
 30
0.0
 10
475.470829
 20
18.376550
 30
0.0
 10
475.797245
 20
19.164559
 30
0.0
 10
476.378244
 20
19.745557
 30
0.0
  0
SPLINE
  5
1d7
100
AcDbEntity
  8
Layer_1
 62
7
100
AcDbSpline
 70
8
 71
3
 72
8
 73
4
 74
0
 40
0
 40
0
 40
0
 40
0
 40
1
 40
1
 40
1
 40
1
 10
476.378244
 20
19.745557
 30
0.0
 10
476.959242
 20
20.326556
 30
0.0
 10
477.747224
 20
20.652972
 30
0.0
 10
478.568888
 20
20.652972
 30
0.0
  0
SPLINE
  5
1d8
100
AcDbEntity
  8
Layer_1
 62
7
100
AcDbSpline
 70
8
 71
3
 72
8
 73
4
 74
0
 40
0
 40
0
 40
0
 40
0
 40
1
 40
1
 40
1
 40
1
 10
478.568888
 20
20.652972
 30
0.0
 10
479.390551
 20
20.652972
 30
0.0
 10
480.178560
 20
20.326556
 30
0.0
 10
480.759558
 20
19.745557
 30
0.0
  0
SPLINE
  5
1d9
100
AcDbEntity
  8
Layer_1
 62
7
100
AcDbSpline
 70
8
 71
3
 72
8
 73
4
 74
0
 40
0
 40
0
 40
0
 40
0
 40
1
 40
1
 40
1
 40
1
 10
480.759558
 20
19.745557
 30
0.0
 10
481.340557
 20
19.164559
 30
0.0
 10
481.666947
 20
18.376576
 30
0.0
 10
481.666947
 20
17.554913
 30
0.0
  0
SPLINE
  5
1da
100
AcDbEntity
  8
Layer_1
 62
7
100
AcDbSpline
 70
8
 71
3
 72
8
 73
4
 74
0
 40
0
 40
0
 40
0
 40
0
 40
1
 40
1
 40
1
 40
1
 10
481.666947
 20
17.554913
 30
0.0
 10
481.666947
 20
16.733249
 30
0.0
 10
481.340557
 20
15.945241
 30
0.0
 10
480.759558
 20
15.364242
 30
0.0
  0
SPLINE
  5
1db
100
AcDbEntity
  8
Layer_1
 62
7
100
AcDbSpline
 70
8
 71
3
 72
8
 73
4
 74
0
 40
0
 40
0
 40
0
 40
0
 40
1
 40
1
 40
1
 40
1
 10
480.759558
 20
15.364242
 30
0.0
 10
480.178560
 20
14.783244
 30
0.0
 10
479.390551
 20
14.456854
 30
0.0
 10
478.568888
 20
14.456854
 30
0.0
  0
SPLINE
  5
1dc
100
AcDbEntity
  8
Layer_1
 62
7
100
AcDbSpline
 70
8
 71
3
 72
8
 73
4
 74
0
 40
0
 40
0
 40
0
 40
0
 40
1
 40
1
 40
1
 40
1
 10
478.568888
 20
193.456858
 30
0.0
 10
476.857880
 20
193.456861
 30
0.0
 10
475.470855
 20
194.843902
 30
0.0
 10
475.470829
 20
196.554907
 30
0.0
  0
SPLINE
  5
1dd
100
AcDbEntity
  8
Layer_1
 62
7
100
AcDbSpline
 70
8
 71
3
 72
8
 73
4
 74
0
 40
0
 40
0
 40
0
 40
0
 40
1
 40
1
 40
1
 40
1
 10
475.470829
 20
196.554907
 30
0.0
 10
475.470829
 20
198.265914
 30
0.0
 10
476.857880
 20
199.652961
 30
0.0
 10
478.568888
 20
199.652963
 30
0.0
  0
SPLINE
  5
1de
100
AcDbEntity
  8
Layer_1
 62
7
100
AcDbSpline
 70
8
 71
3
 72
8
 73
4
 74
0
 40
0
 40
0
 40
0
 40
0
 40
1
 40
1
 40
1
 40
1
 10
478.568888
 20
199.652963
 30
0.0
 10
479.390551
 20
199.652966
 30
0.0
 10
480.178560
 20
199.326565
 30
0.0
 10
480.759558
 20
198.745567
 30
0.0
  0
SPLINE
  5
1df
100
AcDbEntity
  8
Layer_1
 62
7
100
AcDbSpline
 70
8
 71
3
 72
8
 73
4
 74
0
 40
0
 40
0
 40
0
 40
0
 40
1
 40
1
 40
1
 40
1
 10
480.759558
 20
198.745567
 30
0.0
 10
481.340557
 20
198.164568
 30
0.0
 10
481.666947
 20
197.376565
 30
0.0
 10
481.666947
 20
196.554907
 30
0.0
  0
SPLINE
  5
1e0
100
AcDbEntity
  8
Layer_1
 62
7
100
AcDbSpline
 70
8
 71
3
 72
8
 73
4
 74
0
 40
0
 40
0
 40
0
 40
0
 40
1
 40
1
 40
1
 40
1
 10
481.666947
 20
196.554907
 30
0.0
 10
481.666947
 20
195.733254
 30
0.0
 10
481.340557
 20
194.945251
 30
0.0
 10
480.759558
 20
194.364255
 30
0.0
  0
SPLINE
  5
1e1
100
AcDbEntity
  8
Layer_1
 62
7
100
AcDbSpline
 70
8
 71
3
 72
8
 73
4
 74
0
 40
0
 40
0
 40
0
 40
0
 40
1
 40
1
 40
1
 40
1
 10
480.759558
 20
194.364255
 30
0.0
 10
480.178560
 20
193.783256
 30
0.0
 10
479.390551
 20
193.456856
 30
0.0
 10
478.568888
 20
193.456858
 30
0.0
  0
SPLINE
  5
1e2
100
AcDbEntity
  8
Layer_1
 62
7
100
AcDbSpline
 70
8
 71
3
 72
8
 73
4
 74
0
 40
0
 40
0
 40
0
 40
0
 40
1
 40
1
 40
1
 40
1
 10
536.568888
 20
193.454779
 30
0.0
 10
535.747225
 20
193.454779
 30
0.0
 10
534.959242
 20
193.781182
 30
0.0
 10
534.378244
 20
194.362180
 30
0.0
  0
SPLINE
  5
1e3
100
AcDbEntity
  8
Layer_1
 62
7
100
AcDbSpline
 70
8
 71
3
 72
8
 73
4
 74
0
 40
0
 40
0
 40
0
 40
0
 40
1
 40
1
 40
1
 40
1
 10
534.378244
 20
194.362180
 30
0.0
 10
533.797245
 20
194.943179
 30
0.0
 10
533.470829
 20
195.731182
 30
0.0
 10
533.470829
 20
196.552838
 30
0.0
  0
SPLINE
  5
1e4
100
AcDbEntity
  8
Layer_1
 62
7
100
AcDbSpline
 70
8
 71
3
 72
8
 73
4
 74
0
 40
0
 40
0
 40
0
 40
0
 40
1
 40
1
 40
1
 40
1
 10
533.470829
 20
196.552838
 30
0.0
 10
533.470829
 20
198.263843
 30
0.0
 10
534.857881
 20
199.650886
 30
0.0
 10
536.568888
 20
199.650889
 30
0.0
  0
SPLINE
  5
1e5
100
AcDbEntity
  8
Layer_1
 62
7
100
AcDbSpline
 70
8
 71
3
 72
8
 73
4
 74
0
 40
0
 40
0
 40
0
 40
0
 40
1
 40
1
 40
1
 40
1
 10
536.568888
 20
199.650889
 30
0.0
 10
537.390552
 20
199.650889
 30
0.0
 10
538.178560
 20
199.324491
 30
0.0
 10
538.759559
 20
198.743493
 30
0.0
  0
SPLINE
  5
1e6
100
AcDbEntity
  8
Layer_1
 62
7
100
AcDbSpline
 70
8
 71
3
 72
8
 73
4
 74
0
 40
0
 40
0
 40
0
 40
0
 40
1
 40
1
 40
1
 40
1
 10
538.759559
 20
198.743493
 30
0.0
 10
539.340557
 20
198.162494
 30
0.0
 10
539.666947
 20
197.374493
 30
0.0
 10
539.666947
 20
196.552838
 30
0.0
  0
SPLINE
  5
1e7
100
AcDbEntity
  8
Layer_1
 62
7
100
AcDbSpline
 70
8
 71
3
 72
8
 73
4
 74
0
 40
0
 40
0
 40
0
 40
0
 40
1
 40
1
 40
1
 40
1
 10
539.666947
 20
196.552838
 30
0.0
 10
539.666947
 20
195.731182
 30
0.0
 10
539.340557
 20
194.943176
 30
0.0
 10
538.759559
 20
194.362178
 30
0.0
  0
SPLINE
  5
1e8
100
AcDbEntity
  8
Layer_1
 62
7
100
AcDbSpline
 70
8
 71
3
 72
8
 73
4
 74
0
 40
0
 40
0
 40
0
 40
0
 40
1
 40
1
 40
1
 40
1
 10
538.759559
 20
194.362178
 30
0.0
 10
538.178560
 20
193.781177
 30
0.0
 10
537.390552
 20
193.454776
 30
0.0
 10
536.568888
 20
193.454779
 30
0.0
  0
SPLINE
  5
1e9
100
AcDbEntity
  8
Layer_1
 62
7
100
AcDbSpline
 70
8
 71
3
 72
8
 73
4
 74
0
 40
0
 40
0
 40
0
 40
0
 40
1
 40
1
 40
1
 40
1
 10
559.579198
 20
103.964549
 30
0.0
 10
558.757561
 20
103.964546
 30
0.0
 10
557.969552
 20
104.290947
 30
0.0
 10
557.388554
 20
104.871945
 30
0.0
  0
SPLINE
  5
1ea
100
AcDbEntity
  8
Layer_1
 62
7
100
AcDbSpline
 70
8
 71
3
 72
8
 73
4
 74
0
 40
0
 40
0
 40
0
 40
0
 40
1
 40
1
 40
1
 40
1
 10
557.388554
 20
104.871945
 30
0.0
 10
556.807555
 20
105.452941
 30
0.0
 10
556.481139
 20
106.240942
 30
0.0
 10
556.481139
 20
107.062597
 30
0.0
  0
SPLINE
  5
1eb
100
AcDbEntity
  8
Layer_1
 62
7
100
AcDbSpline
 70
8
 71
3
 72
8
 73
4
 74
0
 40
0
 40
0
 40
0
 40
0
 40
1
 40
1
 40
1
 40
1
 10
556.481139
 20
107.062597
 30
0.0
 10
556.481139
 20
107.884253
 30
0.0
 10
556.807555
 20
108.672256
 30
0.0
 10
557.388554
 20
109.253252
 30
0.0
  0
SPLINE
  5
1ec
100
AcDbEntity
  8
Layer_1
 62
7
100
AcDbSpline
 70
8
 71
3
 72
8
 73
4
 74
0
 40
0
 40
0
 40
0
 40
0
 40
1
 40
1
 40
1
 40
1
 10
557.388554
 20
109.253252
 30
0.0
 10
557.969552
 20
109.834251
 30
0.0
 10
558.757561
 20
110.160651
 30
0.0
 10
559.579198
 20
110.160649
 30
0.0
  0
SPLINE
  5
1ed
100
AcDbEntity
  8
Layer_1
 62
7
100
AcDbSpline
 70
8
 71
3
 72
8
 73
4
 74
0
 40
0
 40
0
 40
0
 40
0
 40
1
 40
1
 40
1
 40
1
 10
559.579198
 20
110.160649
 30
0.0
 10
561.290205
 20
110.160646
 30
0.0
 10
562.677257
 20
108.773602
 30
0.0
 10
562.677257
 20
107.062597
 30
0.0
  0
SPLINE
  5
1ee
100
AcDbEntity
  8
Layer_1
 62
7
100
AcDbSpline
 70
8
 71
3
 72
8
 73
4
 74
0
 40
0
 40
0
 40
0
 40
0
 40
1
 40
1
 40
1
 40
1
 10
562.677257
 20
107.062597
 30
0.0
 10
562.677257
 20
105.351592
 30
0.0
 10
561.290205
 20
103.964549
 30
0.0
 10
559.579198
 20
103.964549
 30
0.0
  0
SPLINE
  5
1ef
100
AcDbEntity
  8
Layer_1
 62
7
100
AcDbSpline
 70
8
 71
3
 72
8
 73
4
 74
0
 40
0
 40
0
 40
0
 40
0
 40
1
 40
1
 40
1
 40
1
 10
455.569267
 20
103.964549
 30
0.0
 10
454.747604
 20
103.964546
 30
0.0
 10
453.959595
 20
104.290947
 30
0.0
 10
453.378596
 20
104.871945
 30
0.0
  0
SPLINE
  5
1f0
100
AcDbEntity
  8
Layer_1
 62
7
100
AcDbSpline
 70
8
 71
3
 72
8
 73
4
 74
0
 40
0
 40
0
 40
0
 40
0
 40
1
 40
1
 40
1
 40
1
 10
453.378596
 20
104.871945
 30
0.0
 10
452.797598
 20
105.452941
 30
0.0
 10
452.471208
 20
106.240942
 30
0.0
 10
452.471208
 20
107.062597
 30
0.0
  0
SPLINE
  5
1f1
100
AcDbEntity
  8
Layer_1
 62
7
100
AcDbSpline
 70
8
 71
3
 72
8
 73
4
 74
0
 40
0
 40
0
 40
0
 40
0
 40
1
 40
1
 40
1
 40
1
 10
452.471208
 20
107.062597
 30
0.0
 10
452.471208
 20
107.884253
 30
0.0
 10
452.797598
 20
108.672256
 30
0.0
 10
453.378596
 20
109.253252
 30
0.0
  0
SPLINE
  5
1f2
100
AcDbEntity
  8
Layer_1
 62
7
100
AcDbSpline
 70
8
 71
3
 72
8
 73
4
 74
0
 40
0
 40
0
 40
0
 40
0
 40
1
 40
1
 40
1
 40
1
 10
453.378596
 20
109.253252
 30
0.0
 10
453.959595
 20
109.834251
 30
0.0
 10
454.747604
 20
110.160651
 30
0.0
 10
455.569267
 20
110.160649
 30
0.0
  0
SPLINE
  5
1f3
100
AcDbEntity
  8
Layer_1
 62
7
100
AcDbSpline
 70
8
 71
3
 72
8
 73
4
 74
0
 40
0
 40
0
 40
0
 40
0
 40
1
 40
1
 40
1
 40
1
 10
455.569267
 20
110.160649
 30
0.0
 10
457.280275
 20
110.160646
 30
0.0
 10
458.667300
 20
108.773602
 30
0.0
 10
458.667300
 20
107.062597
 30
0.0
  0
SPLINE
  5
1f4
100
AcDbEntity
  8
Layer_1
 62
7
100
AcDbSpline
 70
8
 71
3
 72
8
 73
4
 74
0
 40
0
 40
0
 40
0
 40
0
 40
1
 40
1
 40
1
 40
1
 10
458.667300
 20
107.062597
 30
0.0
 10
458.667300
 20
105.351592
 30
0.0
 10
457.280275
 20
103.964549
 30
0.0
 10
455.569267
 20
103.964549
 30
0.0
  0
SPLINE
  5
1f5
100
AcDbEntity
  8
Layer_1
 62
7
100
AcDbSpline
 70
8
 71
3
 72
8
 73
4
 74
0
 40
0
 40
0
 40
0
 40
0
 40
1
 40
1
 40
1
 40
1
 10
480.115139
 20
365.177469
 30
0.0
 10
479.543348
 20
365.850018
 30
0.0
 10
479.624178
 20
366.858253
 30
0.0
 10
480.295797
 20
367.431237
 30
0.0
  0
SPLINE
  5
1f6
100
AcDbEntity
  8
Layer_1
 62
7
100
AcDbSpline
 70
8
 71
3
 72
8
 73
4
 74
0
 40
0
 40
0
 40
0
 40
0
 40
1
 40
1
 40
1
 40
1
 10
480.295797
 20
367.431237
 30
0.0
 10
480.967415
 20
368.004216
 30
0.0
 10
481.976351
 20
367.925680
 30
0.0
 10
482.551131
 20
367.255678
 30
0.0
  0
SPLINE
  5
1f7
100
AcDbEntity
  8
Layer_1
 62
7
100
AcDbSpline
 70
8
 71
3
 72
8
 73
4
 74
0
 40
0
 40
0
 40
0
 40
0
 40
1
 40
1
 40
1
 40
1
 10
482.551131
 20
367.255678
 30
0.0
 10
483.125912
 20
366.585677
 30
0.0
 10
483.049580
 20
365.577095
 30
0.0
 10
482.375078
 20
364.996502
 30
0.0
  0
SPLINE
  5
1f8
100
AcDbEntity
  8
Layer_1
 62
7
100
AcDbSpline
 70
8
 71
3
 72
8
 73
4
 74
0
 40
0
 40
0
 40
0
 40
0
 40
1
 40
1
 40
1
 40
1
 10
482.375078
 20
364.996502
 30
0.0
 10
481.695495
 20
364.421896
 30
0.0
 10
480.686904
 20
364.504919
 30
0.0
 10
480.115139
 20
365.177469
 30
0.0
  0
SPLINE
  5
1f9
100
AcDbEntity
  8
Layer_1
 62
7
100
AcDbSpline
 70
8
 71
3
 72
8
 73
4
 74
0
 40
0
 40
0
 40
0
 40
0
 40
1
 40
1
 40
1
 40
1
 10
539.115132
 20
365.177469
 30
0.0
 10
538.543341
 20
365.850018
 30
0.0
 10
538.624171
 20
366.858253
 30
0.0
 10
539.295790
 20
367.431237
 30
0.0
  0
SPLINE
  5
1fa
100
AcDbEntity
  8
Layer_1
 62
7
100
AcDbSpline
 70
8
 71
3
 72
8
 73
4
 74
0
 40
0
 40
0
 40
0
 40
0
 40
1
 40
1
 40
1
 40
1
 10
539.295790
 20
367.431237
 30
0.0
 10
539.967408
 20
368.004216
 30
0.0
 10
540.976370
 20
367.925680
 30
0.0
 10
541.551125
 20
367.255678
 30
0.0
  0
SPLINE
  5
1fb
100
AcDbEntity
  8
Layer_1
 62
7
100
AcDbSpline
 70
8
 71
3
 72
8
 73
4
 74
0
 40
0
 40
0
 40
0
 40
0
 40
1
 40
1
 40
1
 40
1
 10
541.551125
 20
367.255678
 30
0.0
 10
542.125905
 20
366.585677
 30
0.0
 10
542.049573
 20
365.577095
 30
0.0
 10
541.375097
 20
364.996502
 30
0.0
  0
SPLINE
  5
1fc
100
AcDbEntity
  8
Layer_1
 62
7
100
AcDbSpline
 70
8
 71
3
 72
8
 73
4
 74
0
 40
0
 40
0
 40
0
 40
0
 40
1
 40
1
 40
1
 40
1
 10
541.375097
 20
364.996502
 30
0.0
 10
540.695489
 20
364.421896
 30
0.0
 10
539.686923
 20
364.504919
 30
0.0
 10
539.115132
 20
365.177469
 30
0.0
  0
SPLINE
  5
1fd
100
AcDbEntity
  8
Layer_1
 62
7
100
AcDbSpline
 70
8
 71
3
 72
8
 73
4
 74
0
 40
0
 40
0
 40
0
 40
0
 40
1
 40
1
 40
1
 40
1
 10
480.115139
 20
262.177468
 30
0.0
 10
479.543348
 20
262.850018
 30
0.0
 10
479.624178
 20
263.858253
 30
0.0
 10
480.295797
 20
264.431237
 30
0.0
  0
SPLINE
  5
1fe
100
AcDbEntity
  8
Layer_1
 62
7
100
AcDbSpline
 70
8
 71
3
 72
8
 73
4
 74
0
 40
0
 40
0
 40
0
 40
0
 40
1
 40
1
 40
1
 40
1
 10
480.295797
 20
264.431237
 30
0.0
 10
480.967415
 20
265.004216
 30
0.0
 10
481.976351
 20
264.925680
 30
0.0
 10
482.551131
 20
264.255678
 30
0.0
  0
SPLINE
  5
1ff
100
AcDbEntity
  8
Layer_1
 62
7
100
AcDbSpline
 70
8
 71
3
 72
8
 73
4
 74
0
 40
0
 40
0
 40
0
 40
0
 40
1
 40
1
 40
1
 40
1
 10
482.551131
 20
264.255678
 30
0.0
 10
483.125912
 20
263.585679
 30
0.0
 10
483.049580
 20
262.577095
 30
0.0
 10
482.375078
 20
261.996504
 30
0.0
  0
SPLINE
  5
200
100
AcDbEntity
  8
Layer_1
 62
7
100
AcDbSpline
 70
8
 71
3
 72
8
 73
4
 74
0
 40
0
 40
0
 40
0
 40
0
 40
1
 40
1
 40
1
 40
1
 10
482.375078
 20
261.996504
 30
0.0
 10
481.695495
 20
261.421895
 30
0.0
 10
480.686904
 20
261.504919
 30
0.0
 10
480.115139
 20
262.177468
 30
0.0
  0
SPLINE
  5
201
100
AcDbEntity
  8
Layer_1
 62
7
100
AcDbSpline
 70
8
 71
3
 72
8
 73
4
 74
0
 40
0
 40
0
 40
0
 40
0
 40
1
 40
1
 40
1
 40
1
 10
539.115132
 20
262.177468
 30
0.0
 10
538.543341
 20
262.850018
 30
0.0
 10
538.624171
 20
263.858253
 30
0.0
 10
539.295790
 20
264.431237
 30
0.0
  0
SPLINE
  5
202
100
AcDbEntity
  8
Layer_1
 62
7
100
AcDbSpline
 70
8
 71
3
 72
8
 73
4
 74
0
 40
0
 40
0
 40
0
 40
0
 40
1
 40
1
 40
1
 40
1
 10
539.295790
 20
264.431237
 30
0.0
 10
539.967408
 20
265.004216
 30
0.0
 10
540.976370
 20
264.925680
 30
0.0
 10
541.551125
 20
264.255678
 30
0.0
  0
SPLINE
  5
203
100
AcDbEntity
  8
Layer_1
 62
7
100
AcDbSpline
 70
8
 71
3
 72
8
 73
4
 74
0
 40
0
 40
0
 40
0
 40
0
 40
1
 40
1
 40
1
 40
1
 10
541.551125
 20
264.255678
 30
0.0
 10
542.125905
 20
263.585679
 30
0.0
 10
542.049573
 20
262.577095
 30
0.0
 10
541.375097
 20
261.996504
 30
0.0
  0
SPLINE
  5
204
100
AcDbEntity
  8
Layer_1
 62
7
100
AcDbSpline
 70
8
 71
3
 72
8
 73
4
 74
0
 40
0
 40
0
 40
0
 40
0
 40
1
 40
1
 40
1
 40
1
 10
541.375097
 20
261.996504
 30
0.0
 10
540.695489
 20
261.421895
 30
0.0
 10
539.686923
 20
261.504919
 30
0.0
 10
539.115132
 20
262.177468
 30
0.0
  0
SPLINE
  5
205
100
AcDbEntity
  8
Layer_1
 62
7
100
AcDbSpline
 70
8
 71
3
 72
8
 73
4
 74
0
 40
0
 40
0
 40
0
 40
0
 40
1
 40
1
 40
1
 40
1
 10
450.497707
 20
264.550278
 30
0.0
 10
450.497707
 20
364.549308
 30
0.0
 10
450.497707
 20
264.549749
 30
0.0
 10
450.497707
 20
364.550298
 30
0.0
  0
LWPOLYLINE
  5
206
100
AcDbEntity
  8
Layer_1
 62
7
100
AcDbPolyline
 90
3
 70
0
 10
447.068972
 20
157.055309
 30
0.0
 10
467.068985
 20
157.055309
 30
0.0
 10
467.068985
 20
185.054607
 30
0.0
  0
SPLINE
  5
207
100
AcDbEntity
  8
Layer_1
 62
7
100
AcDbSpline
 70
8
 71
3
 72
8
 73
4
 74
0
 40
0
 40
0
 40
0
 40
0
 40
1
 40
1
 40
1
 40
1
 10
571.497725
 20
364.550248
 30
0.0
 10
571.497963
 20
224.550938
 30
0.0
 10
571.497725
 20
404.548829
 30
0.0
 10
571.497725
 20
264.550228
 30
0.0
  0
LWPOLYLINE
  5
208
100
AcDbEntity
  8
Layer_1
 62
7
100
AcDbPolyline
 90
8
 70
0
 10
551.497712
 20
236.549869
 30
0.0
 10
546.497722
 20
236.549869
 30
0.0
 10
546.497722
 20
216.550869
 30
0.0
 10
475.497710
 20
216.550869
 30
0.0
 10
475.497710
 20
236.549869
 30
0.0
 10
470.497720
 20
236.549869
 30
0.0
 10
470.497720
 20
264.550278
 30
0.0
 10
450.497707
 20
264.550278
 30
0.0
  0
SPLINE
  5
209
100
AcDbEntity
  8
Layer_1
 62
7
100
AcDbSpline
 70
8
 71
3
 72
8
 73
4
 74
0
 40
0
 40
0
 40
0
 40
0
 40
1
 40
1
 40
1
 40
1
 10
539.995057
 20
221.955081
 30
0.0
 10
538.284050
 20
221.955084
 30
0.0
 10
536.896998
 20
223.342130
 30
0.0
 10
536.896998
 20
225.053135
 30
0.0
  0
SPLINE
  5
20a
100
AcDbEntity
  8
Layer_1
 62
7
100
AcDbSpline
 70
8
 71
3
 72
8
 73
4
 74
0
 40
0
 40
0
 40
0
 40
0
 40
1
 40
1
 40
1
 40
1
 10
536.896998
 20
225.053135
 30
0.0
 10
536.896998
 20
226.764143
 30
0.0
 10
538.284050
 20
228.151187
 30
0.0
 10
539.995057
 20
228.151189
 30
0.0
  0
SPLINE
  5
20b
100
AcDbEntity
  8
Layer_1
 62
7
100
AcDbSpline
 70
8
 71
3
 72
8
 73
4
 74
0
 40
0
 40
0
 40
0
 40
0
 40
1
 40
1
 40
1
 40
1
 10
539.995057
 20
228.151189
 30
0.0
 10
541.706065
 20
228.151187
 30
0.0
 10
543.093090
 20
226.764143
 30
0.0
 10
543.093090
 20
225.053135
 30
0.0
  0
SPLINE
  5
20c
100
AcDbEntity
  8
Layer_1
 62
7
100
AcDbSpline
 70
8
 71
3
 72
8
 73
4
 74
0
 40
0
 40
0
 40
0
 40
0
 40
1
 40
1
 40
1
 40
1
 10
543.093090
 20
225.053135
 30
0.0
 10
543.093090
 20
223.342130
 30
0.0
 10
541.706065
 20
221.955084
 30
0.0
 10
539.995057
 20
221.955081
 30
0.0
  0
LWPOLYLINE
  5
20d
100
AcDbEntity
  8
Layer_1
 62
7
100
AcDbPolyline
 90
10
 70
0
 10
450.497707
 20
364.550298
 30
0.0
 10
470.497720
 20
364.550298
 30
0.0
 10
470.497720
 20
392.549877
 30
0.0
 10
475.497710
 20
392.549877
 30
0.0
 10
475.497710
 20
412.550876
 30
0.0
 10
546.497722
 20
412.550876
 30
0.0
 10
546.497722
 20
392.549877
 30
0.0
 10
551.497712
 20
392.550935
 30
0.0
 10
551.497712
 20
364.550306
 30
0.0
 10
571.497725
 20
364.550306
 30
0.0
  0
SPLINE
  5
20e
100
AcDbEntity
  8
Layer_1
 62
7
100
AcDbSpline
 70
8
 71
3
 72
8
 73
4
 74
0
 40
0
 40
0
 40
0
 40
0
 40
1
 40
1
 40
1
 40
1
 10
481.995030
 20
221.955081
 30
0.0
 10
480.284023
 20
221.955084
 30
0.0
 10
478.896971
 20
223.342130
 30
0.0
 10
478.896971
 20
225.053135
 30
0.0
  0
SPLINE
  5
20f
100
AcDbEntity
  8
Layer_1
 62
7
100
AcDbSpline
 70
8
 71
3
 72
8
 73
4
 74
0
 40
0
 40
0
 40
0
 40
0
 40
1
 40
1
 40
1
 40
1
 10
478.896971
 20
225.053135
 30
0.0
 10
478.896971
 20
226.764143
 30
0.0
 10
480.284023
 20
228.151187
 30
0.0
 10
481.995030
 20
228.151189
 30
0.0
  0
SPLINE
  5
210
100
AcDbEntity
  8
Layer_1
 62
7
100
AcDbSpline
 70
8
 71
3
 72
8
 73
4
 74
0
 40
0
 40
0
 40
0
 40
0
 40
1
 40
1
 40
1
 40
1
 10
481.995030
 20
228.151189
 30
0.0
 10
483.706038
 20
228.151187
 30
0.0
 10
485.093063
 20
226.764143
 30
0.0
 10
485.093063
 20
225.053135
 30
0.0
  0
SPLINE
  5
211
100
AcDbEntity
  8
Layer_1
 62
7
100
AcDbSpline
 70
8
 71
3
 72
8
 73
4
 74
0
 40
0
 40
0
 40
0
 40
0
 40
1
 40
1
 40
1
 40
1
 10
485.093063
 20
225.053135
 30
0.0
 10
485.093063
 20
223.342130
 30
0.0
 10
483.706038
 20
221.955084
 30
0.0
 10
481.995030
 20
221.955081
 30
0.0
  0
SPLINE
  5
212
100
AcDbEntity
  8
Layer_1
 62
7
100
AcDbSpline
 70
8
 71
3
 72
8
 73
4
 74
0
 40
0
 40
0
 40
0
 40
0
 40
1
 40
1
 40
1
 40
1
 10
481.995030
 20
400.955078
 30
0.0
 10
480.284023
 20
400.955081
 30
0.0
 10
478.896971
 20
402.342122
 30
0.0
 10
478.896971
 20
404.053127
 30
0.0
  0
SPLINE
  5
213
100
AcDbEntity
  8
Layer_1
 62
7
100
AcDbSpline
 70
8
 71
3
 72
8
 73
4
 74
0
 40
0
 40
0
 40
0
 40
0
 40
1
 40
1
 40
1
 40
1
 10
478.896971
 20
404.053127
 30
0.0
 10
478.896971
 20
405.764134
 30
0.0
 10
480.284023
 20
407.151175
 30
0.0
 10
481.995030
 20
407.151178
 30
0.0
  0
SPLINE
  5
214
100
AcDbEntity
  8
Layer_1
 62
7
100
AcDbSpline
 70
8
 71
3
 72
8
 73
4
 74
0
 40
0
 40
0
 40
0
 40
0
 40
1
 40
1
 40
1
 40
1
 10
481.995030
 20
407.151178
 30
0.0
 10
483.706038
 20
407.151175
 30
0.0
 10
485.093063
 20
405.764134
 30
0.0
 10
485.093063
 20
404.053127
 30
0.0
  0
SPLINE
  5
215
100
AcDbEntity
  8
Layer_1
 62
7
100
AcDbSpline
 70
8
 71
3
 72
8
 73
4
 74
0
 40
0
 40
0
 40
0
 40
0
 40
1
 40
1
 40
1
 40
1
 10
485.093063
 20
404.053127
 30
0.0
 10
485.093063
 20
402.342122
 30
0.0
 10
483.706038
 20
400.955081
 30
0.0
 10
481.995030
 20
400.955078
 30
0.0
  0
SPLINE
  5
216
100
AcDbEntity
  8
Layer_1
 62
7
100
AcDbSpline
 70
8
 71
3
 72
8
 73
4
 74
0
 40
0
 40
0
 40
0
 40
0
 40
1
 40
1
 40
1
 40
1
 10
539.995057
 20
400.953117
 30
0.0
 10
539.173394
 20
400.953120
 30
0.0
 10
538.385385
 20
401.279523
 30
0.0
 10
537.804386
 20
401.860522
 30
0.0
  0
SPLINE
  5
217
100
AcDbEntity
  8
Layer_1
 62
7
100
AcDbSpline
 70
8
 71
3
 72
8
 73
4
 74
0
 40
0
 40
0
 40
0
 40
0
 40
1
 40
1
 40
1
 40
1
 10
537.804386
 20
401.860522
 30
0.0
 10
537.223388
 20
402.441520
 30
0.0
 10
536.896998
 20
403.229524
 30
0.0
 10
536.896998
 20
404.051179
 30
0.0
  0
SPLINE
  5
218
100
AcDbEntity
  8
Layer_1
 62
7
100
AcDbSpline
 70
8
 71
3
 72
8
 73
4
 74
0
 40
0
 40
0
 40
0
 40
0
 40
1
 40
1
 40
1
 40
1
 10
536.896998
 20
404.051179
 30
0.0
 10
536.896998
 20
405.762184
 30
0.0
 10
538.284050
 20
407.149225
 30
0.0
 10
539.995057
 20
407.149228
 30
0.0
  0
SPLINE
  5
219
100
AcDbEntity
  8
Layer_1
 62
7
100
AcDbSpline
 70
8
 71
3
 72
8
 73
4
 74
0
 40
0
 40
0
 40
0
 40
0
 40
1
 40
1
 40
1
 40
1
 10
539.995057
 20
407.149228
 30
0.0
 10
541.706065
 20
407.149225
 30
0.0
 10
543.093090
 20
405.762184
 30
0.0
 10
543.093090
 20
404.051179
 30
0.0
  0
SPLINE
  5
21a
100
AcDbEntity
  8
Layer_1
 62
7
100
AcDbSpline
 70
8
 71
3
 72
8
 73
4
 74
0
 40
0
 40
0
 40
0
 40
0
 40
1
 40
1
 40
1
 40
1
 10
543.093090
 20
404.051179
 30
0.0
 10
543.093090
 20
403.229524
 30
0.0
 10
542.766700
 20
402.441520
 30
0.0
 10
542.185701
 20
401.860522
 30
0.0
  0
SPLINE
  5
21b
100
AcDbEntity
  8
Layer_1
 62
7
100
AcDbSpline
 70
8
 71
3
 72
8
 73
4
 74
0
 40
0
 40
0
 40
0
 40
0
 40
1
 40
1
 40
1
 40
1
 10
542.185701
 20
401.860522
 30
0.0
 10
541.604703
 20
401.279523
 30
0.0
 10
540.816694
 20
400.953120
 30
0.0
 10
539.995057
 20
400.953117
 30
0.0
  0
SPLINE
  5
21c
100
AcDbEntity
  8
Layer_1
 62
7
100
AcDbSpline
 70
8
 71
3
 72
8
 73
4
 74
0
 40
0
 40
0
 40
0
 40
0
 40
1
 40
1
 40
1
 40
1
 10
563.004018
 20
311.452088
 30
0.0
 10
561.293010
 20
311.452090
 30
0.0
 10
559.905985
 20
312.839133
 30
0.0
 10
559.905958
 20
314.550138
 30
0.0
  0
SPLINE
  5
21d
100
AcDbEntity
  8
Layer_1
 62
7
100
AcDbSpline
 70
8
 71
3
 72
8
 73
4
 74
0
 40
0
 40
0
 40
0
 40
0
 40
1
 40
1
 40
1
 40
1
 10
559.905958
 20
314.550138
 30
0.0
 10
559.905985
 20
316.261143
 30
0.0
 10
561.293010
 20
317.648186
 30
0.0
 10
563.004017
 20
317.648188
 30
0.0
  0
SPLINE
  5
21e
100
AcDbEntity
  8
Layer_1
 62
7
100
AcDbSpline
 70
8
 71
3
 72
8
 73
4
 74
0
 40
0
 40
0
 40
0
 40
0
 40
1
 40
1
 40
1
 40
1
 10
563.004018
 20
317.648188
 30
0.0
 10
563.825681
 20
317.648190
 30
0.0
 10
564.613690
 20
317.321790
 30
0.0
 10
565.194688
 20
316.740792
 30
0.0
  0
SPLINE
  5
21f
100
AcDbEntity
  8
Layer_1
 62
7
100
AcDbSpline
 70
8
 71
3
 72
8
 73
4
 74
0
 40
0
 40
0
 40
0
 40
0
 40
1
 40
1
 40
1
 40
1
 10
565.194688
 20
316.740792
 30
0.0
 10
565.775687
 20
316.159795
 30
0.0
 10
566.102077
 20
315.371793
 30
0.0
 10
566.102077
 20
314.550138
 30
0.0
  0
SPLINE
  5
220
100
AcDbEntity
  8
Layer_1
 62
7
100
AcDbSpline
 70
8
 71
3
 72
8
 73
4
 74
0
 40
0
 40
0
 40
0
 40
0
 40
1
 40
1
 40
1
 40
1
 10
566.102077
 20
314.550138
 30
0.0
 10
566.102077
 20
313.728483
 30
0.0
 10
565.775687
 20
312.940481
 30
0.0
 10
565.194688
 20
312.359484
 30
0.0
  0
SPLINE
  5
221
100
AcDbEntity
  8
Layer_1
 62
7
100
AcDbSpline
 70
8
 71
3
 72
8
 73
4
 74
0
 40
0
 40
0
 40
0
 40
0
 40
1
 40
1
 40
1
 40
1
 10
565.194688
 20
312.359484
 30
0.0
 10
564.613690
 20
311.778486
 30
0.0
 10
563.825681
 20
311.452086
 30
0.0
 10
563.004018
 20
311.452088
 30
0.0
  0
SPLINE
  5
222
100
AcDbEntity
  8
Layer_1
 62
7
100
AcDbSpline
 70
8
 71
3
 72
8
 73
4
 74
0
 40
0
 40
0
 40
0
 40
0
 40
1
 40
1
 40
1
 40
1
 10
458.995013
 20
311.452088
 30
0.0
 10
457.284005
 20
311.452090
 30
0.0
 10
455.896980
 20
312.839133
 30
0.0
 10
455.896980
 20
314.550138
 30
0.0
  0
SPLINE
  5
223
100
AcDbEntity
  8
Layer_1
 62
7
100
AcDbSpline
 70
8
 71
3
 72
8
 73
4
 74
0
 40
0
 40
0
 40
0
 40
0
 40
1
 40
1
 40
1
 40
1
 10
455.896980
 20
314.550138
 30
0.0
 10
455.896980
 20
316.261143
 30
0.0
 10
457.284005
 20
317.648186
 30
0.0
 10
458.995013
 20
317.648188
 30
0.0
  0
SPLINE
  5
224
100
AcDbEntity
  8
Layer_1
 62
7
100
AcDbSpline
 70
8
 71
3
 72
8
 73
4
 74
0
 40
0
 40
0
 40
0
 40
0
 40
1
 40
1
 40
1
 40
1
 10
458.995013
 20
317.648188
 30
0.0
 10
460.706020
 20
317.648186
 30
0.0
 10
462.093072
 20
316.261143
 30
0.0
 10
462.093072
 20
314.550138
 30
0.0
  0
SPLINE
  5
225
100
AcDbEntity
  8
Layer_1
 62
7
100
AcDbSpline
 70
8
 71
3
 72
8
 73
4
 74
0
 40
0
 40
0
 40
0
 40
0
 40
1
 40
1
 40
1
 40
1
 10
462.093072
 20
314.550138
 30
0.0
 10
462.093072
 20
312.839133
 30
0.0
 10
460.706020
 20
311.452090
 30
0.0
 10
458.995013
 20
311.452088
 30
0.0
  0
SPLINE
  5
226
100
AcDbEntity
  8
Layer_1
 62
7
100
AcDbSpline
 70
8
 71
3
 72
8
 73
4
 74
0
 40
0
 40
0
 40
0
 40
0
 40
1
 40
1
 40
1
 40
1
 10
97.791720
 20
403.015957
 30
0.0
 10
228.933031
 20
403.016486
 30
0.0
 10
298.575624
 20
403.015968
 30
0.0
 10
357.791729
 20
403.015957
 30
0.0
  0
LWPOLYLINE
  5
227
100
AcDbEntity
  8
Layer_1
 62
7
100
AcDbPolyline
 90
3
 70
0
 10
571.497725
 20
264.550228
 30
0.0
 10
551.497712
 20
264.550228
 30
0.0
 10
551.497712
 20
236.549869
 30
0.0
  0
SPLINE
  5
228
100
AcDbEntity
  8
Layer_1
 62
7
100
AcDbSpline
 70
8
 71
3
 72
8
 73
4
 74
0
 40
0
 40
0
 40
0
 40
0
 40
1
 40
1
 40
1
 40
1
 10
426.472773
 20
229.500932
 30
0.0
 10
426.472773
 20
228.923206
 30
0.0
 10
426.243247
 20
228.369142
 30
0.0
 10
425.834757
 20
227.960628
 30
0.0
  0
SPLINE
  5
229
100
AcDbEntity
  8
Layer_1
 62
7
100
AcDbSpline
 70
8
 71
3
 72
8
 73
4
 74
0
 40
0
 40
0
 40
0
 40
0
 40
1
 40
1
 40
1
 40
1
 10
425.834757
 20
227.960628
 30
0.0
 10
425.426240
 20
227.552114
 30
0.0
 10
424.872176
 20
227.322612
 30
0.0
 10
424.294432
 20
227.322612
 30
0.0
  0
SPLINE
  5
22a
100
AcDbEntity
  8
Layer_1
 62
7
100
AcDbSpline
 70
8
 71
3
 72
8
 73
4
 74
0
 40
0
 40
0
 40
0
 40
0
 40
1
 40
1
 40
1
 40
1
 10
424.294432
 20
227.322612
 30
0.0
 10
423.716715
 20
227.322612
 30
0.0
 10
423.162651
 20
227.552114
 30
0.0
 10
422.754134
 20
227.960628
 30
0.0
  0
SPLINE
  5
22b
100
AcDbEntity
  8
Layer_1
 62
7
100
AcDbSpline
 70
8
 71
3
 72
8
 73
4
 74
0
 40
0
 40
0
 40
0
 40
0
 40
1
 40
1
 40
1
 40
1
 10
422.754134
 20
227.960628
 30
0.0
 10
422.345617
 20
228.369142
 30
0.0
 10
422.116118
 20
228.923206
 30
0.0
 10
422.116118
 20
229.500932
 30
0.0
  0
SPLINE
  5
22c
100
AcDbEntity
  8
Layer_1
 62
7
100
AcDbSpline
 70
8
 71
3
 72
8
 73
4
 74
0
 40
0
 40
0
 40
0
 40
0
 40
1
 40
1
 40
1
 40
1
 10
422.116118
 20
229.500932
 30
0.0
 10
422.116118
 20
230.078660
 30
0.0
 10
422.345617
 20
230.632724
 30
0.0
 10
422.754134
 20
231.041238
 30
0.0
  0
SPLINE
  5
22d
100
AcDbEntity
  8
Layer_1
 62
7
100
AcDbSpline
 70
8
 71
3
 72
8
 73
4
 74
0
 40
0
 40
0
 40
0
 40
0
 40
1
 40
1
 40
1
 40
1
 10
422.754134
 20
231.041238
 30
0.0
 10
423.162651
 20
231.449752
 30
0.0
 10
423.716715
 20
231.679252
 30
0.0
 10
424.294432
 20
231.679252
 30
0.0
  0
SPLINE
  5
22e
100
AcDbEntity
  8
Layer_1
 62
7
100
AcDbSpline
 70
8
 71
3
 72
8
 73
4
 74
0
 40
0
 40
0
 40
0
 40
0
 40
1
 40
1
 40
1
 40
1
 10
424.294432
 20
231.679252
 30
0.0
 10
424.872176
 20
231.679252
 30
0.0
 10
425.426240
 20
231.449752
 30
0.0
 10
425.834757
 20
231.041238
 30
0.0
  0
SPLINE
  5
22f
100
AcDbEntity
  8
Layer_1
 62
7
100
AcDbSpline
 70
8
 71
3
 72
8
 73
4
 74
0
 40
0
 40
0
 40
0
 40
0
 40
1
 40
1
 40
1
 40
1
 10
425.834757
 20
231.041238
 30
0.0
 10
426.243247
 20
230.632724
 30
0.0
 10
426.472773
 20
230.078660
 30
0.0
 10
426.472773
 20
229.500932
 30
0.0
  0
LWPOLYLINE
  5
230
100
AcDbEntity
  8
Layer_1
 62
7
100
AcDbPolyline
 90
5
 70
0
 10
17.791720
 20
403.015947
 30
0.0
 10
22.791720
 20
403.015947
 30
0.0
 10
22.791720
 20
423.015957
 30
0.0
 10
97.791720
 20
423.015957
 30
0.0
 10
97.791720
 20
403.015957
 30
0.0
  0
SPLINE
  5
231
100
AcDbEntity
  8
Layer_1
 62
7
100
AcDbSpline
 70
8
 71
3
 72
8
 73
4
 74
0
 40
0
 40
0
 40
0
 40
0
 40
1
 40
1
 40
1
 40
1
 10
33.472631
 20
229.500932
 30
0.0
 10
33.472631
 20
228.923206
 30
0.0
 10
33.243128
 20
228.369142
 30
0.0
 10
32.834614
 20
227.960628
 30
0.0
  0
SPLINE
  5
232
100
AcDbEntity
  8
Layer_1
 62
7
100
AcDbSpline
 70
8
 71
3
 72
8
 73
4
 74
0
 40
0
 40
0
 40
0
 40
0
 40
1
 40
1
 40
1
 40
1
 10
32.834614
 20
227.960628
 30
0.0
 10
32.426100
 20
227.552114
 30
0.0
 10
31.872036
 20
227.322612
 30
0.0
 10
31.294311
 20
227.322612
 30
0.0
  0
SPLINE
  5
233
100
AcDbEntity
  8
Layer_1
 62
7
100
AcDbSpline
 70
8
 71
3
 72
8
 73
4
 74
0
 40
0
 40
0
 40
0
 40
0
 40
1
 40
1
 40
1
 40
1
 10
31.294311
 20
227.322612
 30
0.0
 10
30.716585
 20
227.322612
 30
0.0
 10
30.162519
 20
227.552114
 30
0.0
 10
29.754005
 20
227.960628
 30
0.0
  0
SPLINE
  5
234
100
AcDbEntity
  8
Layer_1
 62
7
100
AcDbSpline
 70
8
 71
3
 72
8
 73
4
 74
0
 40
0
 40
0
 40
0
 40
0
 40
1
 40
1
 40
1
 40
1
 10
29.754005
 20
227.960628
 30
0.0
 10
29.345490
 20
228.369142
 30
0.0
 10
29.115991
 20
228.923206
 30
0.0
 10
29.115991
 20
229.500932
 30
0.0
  0
SPLINE
  5
235
100
AcDbEntity
  8
Layer_1
 62
7
100
AcDbSpline
 70
8
 71
3
 72
8
 73
4
 74
0
 40
0
 40
0
 40
0
 40
0
 40
1
 40
1
 40
1
 40
1
 10
29.115991
 20
229.500932
 30
0.0
 10
29.115991
 20
230.078660
 30
0.0
 10
29.345490
 20
230.632724
 30
0.0
 10
29.754005
 20
231.041238
 30
0.0
  0
SPLINE
  5
236
100
AcDbEntity
  8
Layer_1
 62
7
100
AcDbSpline
 70
8
 71
3
 72
8
 73
4
 74
0
 40
0
 40
0
 40
0
 40
0
 40
1
 40
1
 40
1
 40
1
 10
29.754005
 20
231.041238
 30
0.0
 10
30.162519
 20
231.449752
 30
0.0
 10
30.716585
 20
231.679252
 30
0.0
 10
31.294311
 20
231.679252
 30
0.0
  0
SPLINE
  5
237
100
AcDbEntity
  8
Layer_1
 62
7
100
AcDbSpline
 70
8
 71
3
 72
8
 73
4
 74
0
 40
0
 40
0
 40
0
 40
0
 40
1
 40
1
 40
1
 40
1
 10
31.294311
 20
231.679252
 30
0.0
 10
31.872036
 20
231.679252
 30
0.0
 10
32.426100
 20
231.449752
 30
0.0
 10
32.834614
 20
231.041238
 30
0.0
  0
SPLINE
  5
238
100
AcDbEntity
  8
Layer_1
 62
7
100
AcDbSpline
 70
8
 71
3
 72
8
 73
4
 74
0
 40
0
 40
0
 40
0
 40
0
 40
1
 40
1
 40
1
 40
1
 10
32.834614
 20
231.041238
 30
0.0
 10
33.243128
 20
230.632724
 30
0.0
 10
33.472631
 20
230.078660
 30
0.0
 10
33.472631
 20
229.500932
 30
0.0
  0
SPLINE
  5
239
100
AcDbEntity
  8
Layer_1
 62
7
100
AcDbSpline
 70
8
 71
3
 72
8
 73
4
 74
0
 40
0
 40
0
 40
0
 40
0
 40
1
 40
1
 40
1
 40
1
 10
33.472631
 20
416.502889
 30
0.0
 10
33.472631
 20
415.925161
 30
0.0
 10
33.243128
 20
415.371097
 30
0.0
 10
32.834614
 20
414.962583
 30
0.0
  0
SPLINE
  5
23a
100
AcDbEntity
  8
Layer_1
 62
7
100
AcDbSpline
 70
8
 71
3
 72
8
 73
4
 74
0
 40
0
 40
0
 40
0
 40
0
 40
1
 40
1
 40
1
 40
1
 10
32.834614
 20
414.962583
 30
0.0
 10
32.426100
 20
414.554069
 30
0.0
 10
31.872036
 20
414.324569
 30
0.0
 10
31.294311
 20
414.324569
 30
0.0
  0
SPLINE
  5
23b
100
AcDbEntity
  8
Layer_1
 62
7
100
AcDbSpline
 70
8
 71
3
 72
8
 73
4
 74
0
 40
0
 40
0
 40
0
 40
0
 40
1
 40
1
 40
1
 40
1
 10
31.294311
 20
414.324569
 30
0.0
 10
30.716585
 20
414.324569
 30
0.0
 10
30.162519
 20
414.554069
 30
0.0
 10
29.754005
 20
414.962583
 30
0.0
  0
SPLINE
  5
23c
100
AcDbEntity
  8
Layer_1
 62
7
100
AcDbSpline
 70
8
 71
3
 72
8
 73
4
 74
0
 40
0
 40
0
 40
0
 40
0
 40
1
 40
1
 40
1
 40
1
 10
29.754005
 20
414.962583
 30
0.0
 10
29.345490
 20
415.371097
 30
0.0
 10
29.115991
 20
415.925161
 30
0.0
 10
29.115991
 20
416.502889
 30
0.0
  0
SPLINE
  5
23d
100
AcDbEntity
  8
Layer_1
 62
7
100
AcDbSpline
 70
8
 71
3
 72
8
 73
4
 74
0
 40
0
 40
0
 40
0
 40
0
 40
1
 40
1
 40
1
 40
1
 10
29.115991
 20
416.502889
 30
0.0
 10
29.115991
 20
417.080615
 30
0.0
 10
29.345490
 20
417.634679
 30
0.0
 10
29.754005
 20
418.043193
 30
0.0
  0
SPLINE
  5
23e
100
AcDbEntity
  8
Layer_1
 62
7
100
AcDbSpline
 70
8
 71
3
 72
8
 73
4
 74
0
 40
0
 40
0
 40
0
 40
0
 40
1
 40
1
 40
1
 40
1
 10
29.754005
 20
418.043193
 30
0.0
 10
30.162519
 20
418.451707
 30
0.0
 10
30.716585
 20
418.681209
 30
0.0
 10
31.294311
 20
418.681209
 30
0.0
  0
SPLINE
  5
23f
100
AcDbEntity
  8
Layer_1
 62
7
100
AcDbSpline
 70
8
 71
3
 72
8
 73
4
 74
0
 40
0
 40
0
 40
0
 40
0
 40
1
 40
1
 40
1
 40
1
 10
31.294311
 20
418.681209
 30
0.0
 10
31.872036
 20
418.681209
 30
0.0
 10
32.426100
 20
418.451707
 30
0.0
 10
32.834614
 20
418.043193
 30
0.0
  0
SPLINE
  5
240
100
AcDbEntity
  8
Layer_1
 62
7
100
AcDbSpline
 70
8
 71
3
 72
8
 73
4
 74
0
 40
0
 40
0
 40
0
 40
0
 40
1
 40
1
 40
1
 40
1
 10
32.834614
 20
418.043193
 30
0.0
 10
33.243128
 20
417.634679
 30
0.0
 10
33.472631
 20
417.080615
 30
0.0
 10
33.472631
 20
416.502889
 30
0.0
  0
SPLINE
  5
241
100
AcDbEntity
  8
Layer_1
 62
7
100
AcDbSpline
 70
8
 71
3
 72
8
 73
4
 74
0
 40
0
 40
0
 40
0
 40
0
 40
1
 40
1
 40
1
 40
1
 10
426.472773
 20
416.502889
 30
0.0
 10
426.472773
 20
415.925161
 30
0.0
 10
426.243247
 20
415.371097
 30
0.0
 10
425.834757
 20
414.962583
 30
0.0
  0
SPLINE
  5
242
100
AcDbEntity
  8
Layer_1
 62
7
100
AcDbSpline
 70
8
 71
3
 72
8
 73
4
 74
0
 40
0
 40
0
 40
0
 40
0
 40
1
 40
1
 40
1
 40
1
 10
425.834757
 20
414.962583
 30
0.0
 10
425.426240
 20
414.554069
 30
0.0
 10
424.872176
 20
414.324569
 30
0.0
 10
424.294432
 20
414.324569
 30
0.0
  0
SPLINE
  5
243
100
AcDbEntity
  8
Layer_1
 62
7
100
AcDbSpline
 70
8
 71
3
 72
8
 73
4
 74
0
 40
0
 40
0
 40
0
 40
0
 40
1
 40
1
 40
1
 40
1
 10
424.294432
 20
414.324569
 30
0.0
 10
423.716715
 20
414.324569
 30
0.0
 10
423.162651
 20
414.554069
 30
0.0
 10
422.754134
 20
414.962583
 30
0.0
  0
SPLINE
  5
244
100
AcDbEntity
  8
Layer_1
 62
7
100
AcDbSpline
 70
8
 71
3
 72
8
 73
4
 74
0
 40
0
 40
0
 40
0
 40
0
 40
1
 40
1
 40
1
 40
1
 10
422.754134
 20
414.962583
 30
0.0
 10
422.345617
 20
415.371097
 30
0.0
 10
422.116118
 20
415.925161
 30
0.0
 10
422.116118
 20
416.502889
 30
0.0
  0
SPLINE
  5
245
100
AcDbEntity
  8
Layer_1
 62
7
100
AcDbSpline
 70
8
 71
3
 72
8
 73
4
 74
0
 40
0
 40
0
 40
0
 40
0
 40
1
 40
1
 40
1
 40
1
 10
422.116118
 20
416.502889
 30
0.0
 10
422.116118
 20
417.080615
 30
0.0
 10
422.345617
 20
417.634679
 30
0.0
 10
422.754134
 20
418.043193
 30
0.0
  0
SPLINE
  5
246
100
AcDbEntity
  8
Layer_1
 62
7
100
AcDbSpline
 70
8
 71
3
 72
8
 73
4
 74
0
 40
0
 40
0
 40
0
 40
0
 40
1
 40
1
 40
1
 40
1
 10
422.754134
 20
418.043193
 30
0.0
 10
423.162651
 20
418.451707
 30
0.0
 10
423.716715
 20
418.681209
 30
0.0
 10
424.294432
 20
418.681209
 30
0.0
  0
SPLINE
  5
247
100
AcDbEntity
  8
Layer_1
 62
7
100
AcDbSpline
 70
8
 71
3
 72
8
 73
4
 74
0
 40
0
 40
0
 40
0
 40
0
 40
1
 40
1
 40
1
 40
1
 10
424.294432
 20
418.681209
 30
0.0
 10
424.872176
 20
418.681209
 30
0.0
 10
425.426240
 20
418.451707
 30
0.0
 10
425.834757
 20
418.043193
 30
0.0
  0
SPLINE
  5
248
100
AcDbEntity
  8
Layer_1
 62
7
100
AcDbSpline
 70
8
 71
3
 72
8
 73
4
 74
0
 40
0
 40
0
 40
0
 40
0
 40
1
 40
1
 40
1
 40
1
 10
425.834757
 20
418.043193
 30
0.0
 10
426.243247
 20
417.634679
 30
0.0
 10
426.472773
 20
417.080615
 30
0.0
 10
426.472773
 20
416.502889
 30
0.0
  0
SPLINE
  5
249
100
AcDbEntity
  8
Layer_1
 62
7
100
AcDbSpline
 70
8
 71
3
 72
8
 73
4
 74
0
 40
0
 40
0
 40
0
 40
0
 40
1
 40
1
 40
1
 40
1
 10
205.837750
 20
371.756913
 30
0.0
 10
205.837750
 20
370.553863
 30
0.0
 10
204.862488
 20
369.578598
 30
0.0
 10
203.659441
 20
369.578593
 30
0.0
  0
SPLINE
  5
24a
100
AcDbEntity
  8
Layer_1
 62
7
100
AcDbSpline
 70
8
 71
3
 72
8
 73
4
 74
0
 40
0
 40
0
 40
0
 40
0
 40
1
 40
1
 40
1
 40
1
 10
203.659441
 20
369.578593
 30
0.0
 10
203.081715
 20
369.578593
 30
0.0
 10
202.527649
 20
369.808093
 30
0.0
 10
202.119135
 20
370.216607
 30
0.0
  0
SPLINE
  5
24b
100
AcDbEntity
  8
Layer_1
 62
7
100
AcDbSpline
 70
8
 71
3
 72
8
 73
4
 74
0
 40
0
 40
0
 40
0
 40
0
 40
1
 40
1
 40
1
 40
1
 10
202.119135
 20
370.216607
 30
0.0
 10
201.710621
 20
370.625123
 30
0.0
 10
201.481121
 20
371.179187
 30
0.0
 10
201.481121
 20
371.756913
 30
0.0
  0
SPLINE
  5
24c
100
AcDbEntity
  8
Layer_1
 62
7
100
AcDbSpline
 70
8
 71
3
 72
8
 73
4
 74
0
 40
0
 40
0
 40
0
 40
0
 40
1
 40
1
 40
1
 40
1
 10
201.481121
 20
371.756913
 30
0.0
 10
201.481121
 20
372.334638
 30
0.0
 10
201.710621
 20
372.888702
 30
0.0
 10
202.119135
 20
373.297216
 30
0.0
  0
SPLINE
  5
24d
100
AcDbEntity
  8
Layer_1
 62
7
100
AcDbSpline
 70
8
 71
3
 72
8
 73
4
 74
0
 40
0
 40
0
 40
0
 40
0
 40
1
 40
1
 40
1
 40
1
 10
202.119135
 20
373.297216
 30
0.0
 10
202.527651
 20
373.705733
 30
0.0
 10
203.081715
 20
373.935233
 30
0.0
 10
203.659441
 20
373.935233
 30
0.0
  0
SPLINE
  5
24e
100
AcDbEntity
  8
Layer_1
 62
7
100
AcDbSpline
 70
8
 71
3
 72
8
 73
4
 74
0
 40
0
 40
0
 40
0
 40
0
 40
1
 40
1
 40
1
 40
1
 10
203.659441
 20
373.935233
 30
0.0
 10
204.862488
 20
373.935227
 30
0.0
 10
205.837750
 20
372.959963
 30
0.0
 10
205.837750
 20
371.756913
 30
0.0
  0
SPLINE
  5
24f
100
AcDbEntity
  8
Layer_1
 62
7
100
AcDbSpline
 70
8
 71
3
 72
8
 73
4
 74
0
 40
0
 40
0
 40
0
 40
0
 40
1
 40
1
 40
1
 40
1
 10
205.837750
 20
277.756914
 30
0.0
 10
205.837750
 20
276.553865
 30
0.0
 10
204.862488
 20
275.578600
 30
0.0
 10
203.659441
 20
275.578595
 30
0.0
  0
SPLINE
  5
250
100
AcDbEntity
  8
Layer_1
 62
7
100
AcDbSpline
 70
8
 71
3
 72
8
 73
4
 74
0
 40
0
 40
0
 40
0
 40
0
 40
1
 40
1
 40
1
 40
1
 10
203.659441
 20
275.578595
 30
0.0
 10
203.081715
 20
275.578595
 30
0.0
 10
202.527651
 20
275.808096
 30
0.0
 10
202.119135
 20
276.216610
 30
0.0
  0
SPLINE
  5
251
100
AcDbEntity
  8
Layer_1
 62
7
100
AcDbSpline
 70
8
 71
3
 72
8
 73
4
 74
0
 40
0
 40
0
 40
0
 40
0
 40
1
 40
1
 40
1
 40
1
 10
202.119135
 20
276.216610
 30
0.0
 10
201.710621
 20
276.625124
 30
0.0
 10
201.481121
 20
277.179188
 30
0.0
 10
201.481121
 20
277.756914
 30
0.0
  0
SPLINE
  5
252
100
AcDbEntity
  8
Layer_1
 62
7
100
AcDbSpline
 70
8
 71
3
 72
8
 73
4
 74
0
 40
0
 40
0
 40
0
 40
0
 40
1
 40
1
 40
1
 40
1
 10
201.481121
 20
277.756914
 30
0.0
 10
201.481121
 20
278.334640
 30
0.0
 10
201.710621
 20
278.888705
 30
0.0
 10
202.119135
 20
279.297219
 30
0.0
  0
SPLINE
  5
253
100
AcDbEntity
  8
Layer_1
 62
7
100
AcDbSpline
 70
8
 71
3
 72
8
 73
4
 74
0
 40
0
 40
0
 40
0
 40
0
 40
1
 40
1
 40
1
 40
1
 10
202.119135
 20
279.297219
 30
0.0
 10
202.527649
 20
279.705733
 30
0.0
 10
203.081715
 20
279.935234
 30
0.0
 10
203.659441
 20
279.935234
 30
0.0
  0
SPLINE
  5
254
100
AcDbEntity
  8
Layer_1
 62
7
100
AcDbSpline
 70
8
 71
3
 72
8
 73
4
 74
0
 40
0
 40
0
 40
0
 40
0
 40
1
 40
1
 40
1
 40
1
 10
203.659441
 20
279.935234
 30
0.0
 10
204.862488
 20
279.935229
 30
0.0
 10
205.837750
 20
278.959963
 30
0.0
 10
205.837750
 20
277.756914
 30
0.0
  0
SPLINE
  5
255
100
AcDbEntity
  8
Layer_1
 62
7
100
AcDbSpline
 70
8
 71
3
 72
8
 73
4
 74
0
 40
0
 40
0
 40
0
 40
0
 40
1
 40
1
 40
1
 40
1
 10
253.837750
 20
371.756913
 30
0.0
 10
253.837750
 20
370.553863
 30
0.0
 10
252.862490
 20
369.578598
 30
0.0
 10
251.659440
 20
369.578593
 30
0.0
  0
SPLINE
  5
256
100
AcDbEntity
  8
Layer_1
 62
7
100
AcDbSpline
 70
8
 71
3
 72
8
 73
4
 74
0
 40
0
 40
0
 40
0
 40
0
 40
1
 40
1
 40
1
 40
1
 10
251.659440
 20
369.578593
 30
0.0
 10
251.081715
 20
369.578593
 30
0.0
 10
250.527648
 20
369.808093
 30
0.0
 10
250.119134
 20
370.216607
 30
0.0
  0
SPLINE
  5
257
100
AcDbEntity
  8
Layer_1
 62
7
100
AcDbSpline
 70
8
 71
3
 72
8
 73
4
 74
0
 40
0
 40
0
 40
0
 40
0
 40
1
 40
1
 40
1
 40
1
 10
250.119134
 20
370.216607
 30
0.0
 10
249.710620
 20
370.625123
 30
0.0
 10
249.481120
 20
371.179187
 30
0.0
 10
249.481120
 20
371.756913
 30
0.0
  0
SPLINE
  5
258
100
AcDbEntity
  8
Layer_1
 62
7
100
AcDbSpline
 70
8
 71
3
 72
8
 73
4
 74
0
 40
0
 40
0
 40
0
 40
0
 40
1
 40
1
 40
1
 40
1
 10
249.481120
 20
371.756913
 30
0.0
 10
249.481120
 20
372.334638
 30
0.0
 10
249.710620
 20
372.888702
 30
0.0
 10
250.119134
 20
373.297216
 30
0.0
  0
SPLINE
  5
259
100
AcDbEntity
  8
Layer_1
 62
7
100
AcDbSpline
 70
8
 71
3
 72
8
 73
4
 74
0
 40
0
 40
0
 40
0
 40
0
 40
1
 40
1
 40
1
 40
1
 10
250.119134
 20
373.297216
 30
0.0
 10
250.527651
 20
373.705733
 30
0.0
 10
251.081715
 20
373.935233
 30
0.0
 10
251.659440
 20
373.935233
 30
0.0
  0
SPLINE
  5
25a
100
AcDbEntity
  8
Layer_1
 62
7
100
AcDbSpline
 70
8
 71
3
 72
8
 73
4
 74
0
 40
0
 40
0
 40
0
 40
0
 40
1
 40
1
 40
1
 40
1
 10
251.659440
 20
373.935233
 30
0.0
 10
252.862490
 20
373.935227
 30
0.0
 10
253.837750
 20
372.959963
 30
0.0
 10
253.837750
 20
371.756913
 30
0.0
  0
SPLINE
  5
25b
100
AcDbEntity
  8
Layer_1
 62
7
100
AcDbSpline
 70
8
 71
3
 72
8
 73
4
 74
0
 40
0
 40
0
 40
0
 40
0
 40
1
 40
1
 40
1
 40
1
 10
253.837750
 20
277.756914
 30
0.0
 10
253.837750
 20
276.553865
 30
0.0
 10
252.862490
 20
275.578600
 30
0.0
 10
251.659440
 20
275.578595
 30
0.0
  0
SPLINE
  5
25c
100
AcDbEntity
  8
Layer_1
 62
7
100
AcDbSpline
 70
8
 71
3
 72
8
 73
4
 74
0
 40
0
 40
0
 40
0
 40
0
 40
1
 40
1
 40
1
 40
1
 10
251.659440
 20
275.578595
 30
0.0
 10
251.081715
 20
275.578595
 30
0.0
 10
250.527651
 20
275.808096
 30
0.0
 10
250.119134
 20
276.216610
 30
0.0
  0
SPLINE
  5
25d
100
AcDbEntity
  8
Layer_1
 62
7
100
AcDbSpline
 70
8
 71
3
 72
8
 73
4
 74
0
 40
0
 40
0
 40
0
 40
0
 40
1
 40
1
 40
1
 40
1
 10
250.119134
 20
276.216610
 30
0.0
 10
249.710620
 20
276.625124
 30
0.0
 10
249.481120
 20
277.179188
 30
0.0
 10
249.481120
 20
277.756914
 30
0.0
  0
SPLINE
  5
25e
100
AcDbEntity
  8
Layer_1
 62
7
100
AcDbSpline
 70
8
 71
3
 72
8
 73
4
 74
0
 40
0
 40
0
 40
0
 40
0
 40
1
 40
1
 40
1
 40
1
 10
249.481120
 20
277.756914
 30
0.0
 10
249.481120
 20
278.334640
 30
0.0
 10
249.710620
 20
278.888705
 30
0.0
 10
250.119134
 20
279.297219
 30
0.0
  0
SPLINE
  5
25f
100
AcDbEntity
  8
Layer_1
 62
7
100
AcDbSpline
 70
8
 71
3
 72
8
 73
4
 74
0
 40
0
 40
0
 40
0
 40
0
 40
1
 40
1
 40
1
 40
1
 10
250.119134
 20
279.297219
 30
0.0
 10
250.527648
 20
279.705733
 30
0.0
 10
251.081715
 20
279.935234
 30
0.0
 10
251.659440
 20
279.935234
 30
0.0
  0
SPLINE
  5
260
100
AcDbEntity
  8
Layer_1
 62
7
100
AcDbSpline
 70
8
 71
3
 72
8
 73
4
 74
0
 40
0
 40
0
 40
0
 40
0
 40
1
 40
1
 40
1
 40
1
 10
251.659440
 20
279.935234
 30
0.0
 10
252.862490
 20
279.935229
 30
0.0
 10
253.837750
 20
278.959963
 30
0.0
 10
253.837750
 20
277.756914
 30
0.0
  0
SPLINE
  5
261
100
AcDbEntity
  8
Layer_1
 62
7
100
AcDbSpline
 70
8
 71
3
 72
8
 73
4
 74
0
 40
0
 40
0
 40
0
 40
0
 40
1
 40
1
 40
1
 40
1
 10
230.321829
 20
365.256913
 30
0.0
 10
230.321829
 20
364.550803
 30
0.0
 10
230.041328
 20
363.873613
 30
0.0
 10
229.542033
 20
363.374317
 30
0.0
  0
SPLINE
  5
262
100
AcDbEntity
  8
Layer_1
 62
7
100
AcDbSpline
 70
8
 71
3
 72
8
 73
4
 74
0
 40
0
 40
0
 40
0
 40
0
 40
1
 40
1
 40
1
 40
1
 10
229.542033
 20
363.374317
 30
0.0
 10
229.042738
 20
362.875022
 30
0.0
 10
228.365550
 20
362.594522
 30
0.0
 10
227.659441
 20
362.594522
 30
0.0
  0
SPLINE
  5
263
100
AcDbEntity
  8
Layer_1
 62
7
100
AcDbSpline
 70
8
 71
3
 72
8
 73
4
 74
0
 40
0
 40
0
 40
0
 40
0
 40
1
 40
1
 40
1
 40
1
 10
227.659441
 20
362.594522
 30
0.0
 10
226.953331
 20
362.594522
 30
0.0
 10
226.276141
 20
362.875022
 30
0.0
 10
225.776846
 20
363.374317
 30
0.0
  0
SPLINE
  5
264
100
AcDbEntity
  8
Layer_1
 62
7
100
AcDbSpline
 70
8
 71
3
 72
8
 73
4
 74
0
 40
0
 40
0
 40
0
 40
0
 40
1
 40
1
 40
1
 40
1
 10
225.776846
 20
363.374317
 30
0.0
 10
225.277550
 20
363.873613
 30
0.0
 10
224.997050
 20
364.550803
 30
0.0
 10
224.997050
 20
365.256913
 30
0.0
  0
SPLINE
  5
265
100
AcDbEntity
  8
Layer_1
 62
7
100
AcDbSpline
 70
8
 71
3
 72
8
 73
4
 74
0
 40
0
 40
0
 40
0
 40
0
 40
1
 40
1
 40
1
 40
1
 10
224.997050
 20
365.256913
 30
0.0
 10
224.997050
 20
366.727311
 30
0.0
 10
226.189043
 20
367.919304
 30
0.0
 10
227.659441
 20
367.919304
 30
0.0
  0
SPLINE
  5
266
100
AcDbEntity
  8
Layer_1
 62
7
100
AcDbSpline
 70
8
 71
3
 72
8
 73
4
 74
0
 40
0
 40
0
 40
0
 40
0
 40
1
 40
1
 40
1
 40
1
 10
227.659441
 20
367.919304
 30
0.0
 10
229.129836
 20
367.919304
 30
0.0
 10
230.321829
 20
366.727311
 30
0.0
 10
230.321829
 20
365.256913
 30
0.0
  0
SPLINE
  5
267
100
AcDbEntity
  8
Layer_1
 62
7
100
AcDbSpline
 70
8
 71
3
 72
8
 73
4
 74
0
 40
0
 40
0
 40
0
 40
0
 40
1
 40
1
 40
1
 40
1
 10
230.321829
 20
285.256914
 30
0.0
 10
230.321829
 20
283.786517
 30
0.0
 10
229.129836
 20
282.594524
 30
0.0
 10
227.659441
 20
282.594524
 30
0.0
  0
SPLINE
  5
268
100
AcDbEntity
  8
Layer_1
 62
7
100
AcDbSpline
 70
8
 71
3
 72
8
 73
4
 74
0
 40
0
 40
0
 40
0
 40
0
 40
1
 40
1
 40
1
 40
1
 10
227.659441
 20
282.594524
 30
0.0
 10
226.189043
 20
282.594524
 30
0.0
 10
224.997050
 20
283.786517
 30
0.0
 10
224.997050
 20
285.256914
 30
0.0
  0
SPLINE
  5
269
100
AcDbEntity
  8
Layer_1
 62
7
100
AcDbSpline
 70
8
 71
3
 72
8
 73
4
 74
0
 40
0
 40
0
 40
0
 40
0
 40
1
 40
1
 40
1
 40
1
 10
224.997050
 20
285.256914
 30
0.0
 10
224.997050
 20
285.963024
 30
0.0
 10
225.277550
 20
286.640213
 30
0.0
 10
225.776846
 20
287.139509
 30
0.0
  0
SPLINE
  5
26a
100
AcDbEntity
  8
Layer_1
 62
7
100
AcDbSpline
 70
8
 71
3
 72
8
 73
4
 74
0
 40
0
 40
0
 40
0
 40
0
 40
1
 40
1
 40
1
 40
1
 10
225.776846
 20
287.139509
 30
0.0
 10
226.276141
 20
287.638804
 30
0.0
 10
226.953331
 20
287.919305
 30
0.0
 10
227.659441
 20
287.919305
 30
0.0
  0
SPLINE
  5
26b
100
AcDbEntity
  8
Layer_1
 62
7
100
AcDbSpline
 70
8
 71
3
 72
8
 73
4
 74
0
 40
0
 40
0
 40
0
 40
0
 40
1
 40
1
 40
1
 40
1
 10
227.659441
 20
287.919305
 30
0.0
 10
228.365550
 20
287.919305
 30
0.0
 10
229.042738
 20
287.638804
 30
0.0
 10
229.542033
 20
287.139509
 30
0.0
  0
SPLINE
  5
26c
100
AcDbEntity
  8
Layer_1
 62
7
100
AcDbSpline
 70
8
 71
3
 72
8
 73
4
 74
0
 40
0
 40
0
 40
0
 40
0
 40
1
 40
1
 40
1
 40
1
 10
229.542033
 20
287.139509
 30
0.0
 10
230.041328
 20
286.640213
 30
0.0
 10
230.321829
 20
285.963024
 30
0.0
 10
230.321829
 20
285.256914
 30
0.0
  0
SPLINE
  5
26d
100
AcDbEntity
  8
Layer_1
 62
7
100
AcDbSpline
 70
8
 71
3
 72
8
 73
4
 74
0
 40
0
 40
0
 40
0
 40
0
 40
1
 40
1
 40
1
 40
1
 10
33.460661
 20
323.003159
 30
0.0
 10
33.460661
 20
322.425433
 30
0.0
 10
33.231159
 20
321.871369
 30
0.0
 10
32.822645
 20
321.462855
 30
0.0
  0
SPLINE
  5
26e
100
AcDbEntity
  8
Layer_1
 62
7
100
AcDbSpline
 70
8
 71
3
 72
8
 73
4
 74
0
 40
0
 40
0
 40
0
 40
0
 40
1
 40
1
 40
1
 40
1
 10
32.822645
 20
321.462855
 30
0.0
 10
32.414131
 20
321.054341
 30
0.0
 10
31.860067
 20
320.824840
 30
0.0
 10
31.282341
 20
320.824840
 30
0.0
  0
SPLINE
  5
26f
100
AcDbEntity
  8
Layer_1
 62
7
100
AcDbSpline
 70
8
 71
3
 72
8
 73
4
 74
0
 40
0
 40
0
 40
0
 40
0
 40
1
 40
1
 40
1
 40
1
 10
31.282341
 20
320.824840
 30
0.0
 10
30.079291
 20
320.824845
 30
0.0
 10
29.104029
 20
321.800110
 30
0.0
 10
29.104029
 20
323.003159
 30
0.0
  0
SPLINE
  5
270
100
AcDbEntity
  8
Layer_1
 62
7
100
AcDbSpline
 70
8
 71
3
 72
8
 73
4
 74
0
 40
0
 40
0
 40
0
 40
0
 40
1
 40
1
 40
1
 40
1
 10
29.104029
 20
323.003159
 30
0.0
 10
29.104029
 20
324.206208
 30
0.0
 10
30.079291
 20
325.181473
 30
0.0
 10
31.282341
 20
325.181478
 30
0.0
  0
SPLINE
  5
271
100
AcDbEntity
  8
Layer_1
 62
7
100
AcDbSpline
 70
8
 71
3
 72
8
 73
4
 74
0
 40
0
 40
0
 40
0
 40
0
 40
1
 40
1
 40
1
 40
1
 10
31.282341
 20
325.181478
 30
0.0
 10
31.860067
 20
325.181478
 30
0.0
 10
32.414131
 20
324.951978
 30
0.0
 10
32.822645
 20
324.543464
 30
0.0
  0
SPLINE
  5
272
100
AcDbEntity
  8
Layer_1
 62
7
100
AcDbSpline
 70
8
 71
3
 72
8
 73
4
 74
0
 40
0
 40
0
 40
0
 40
0
 40
1
 40
1
 40
1
 40
1
 10
32.822645
 20
324.543464
 30
0.0
 10
33.231159
 20
324.134948
 30
0.0
 10
33.460661
 20
323.580886
 30
0.0
 10
33.460661
 20
323.003159
 30
0.0
  0
SPLINE
  5
273
100
AcDbEntity
  8
Layer_1
 62
7
100
AcDbSpline
 70
8
 71
3
 72
8
 73
4
 74
0
 40
0
 40
0
 40
0
 40
0
 40
1
 40
1
 40
1
 40
1
 10
426.480684
 20
323.003159
 30
0.0
 10
426.480684
 20
322.425433
 30
0.0
 10
426.251185
 20
321.871369
 30
0.0
 10
425.842668
 20
321.462855
 30
0.0
  0
SPLINE
  5
274
100
AcDbEntity
  8
Layer_1
 62
7
100
AcDbSpline
 70
8
 71
3
 72
8
 73
4
 74
0
 40
0
 40
0
 40
0
 40
0
 40
1
 40
1
 40
1
 40
1
 10
425.842668
 20
321.462855
 30
0.0
 10
425.434151
 20
321.054341
 30
0.0
 10
424.880088
 20
320.824840
 30
0.0
 10
424.302370
 20
320.824840
 30
0.0
  0
SPLINE
  5
275
100
AcDbEntity
  8
Layer_1
 62
7
100
AcDbSpline
 70
8
 71
3
 72
8
 73
4
 74
0
 40
0
 40
0
 40
0
 40
0
 40
1
 40
1
 40
1
 40
1
 10
424.302370
 20
320.824840
 30
0.0
 10
423.724652
 20
320.824840
 30
0.0
 10
423.170588
 20
321.054341
 30
0.0
 10
422.762071
 20
321.462855
 30
0.0
  0
SPLINE
  5
276
100
AcDbEntity
  8
Layer_1
 62
7
100
AcDbSpline
 70
8
 71
3
 72
8
 73
4
 74
0
 40
0
 40
0
 40
0
 40
0
 40
1
 40
1
 40
1
 40
1
 10
422.762071
 20
321.462855
 30
0.0
 10
422.353555
 20
321.871369
 30
0.0
 10
422.124055
 20
322.425433
 30
0.0
 10
422.124055
 20
323.003159
 30
0.0
  0
SPLINE
  5
277
100
AcDbEntity
  8
Layer_1
 62
7
100
AcDbSpline
 70
8
 71
3
 72
8
 73
4
 74
0
 40
0
 40
0
 40
0
 40
0
 40
1
 40
1
 40
1
 40
1
 10
422.124055
 20
323.003159
 30
0.0
 10
422.124055
 20
323.580886
 30
0.0
 10
422.353555
 20
324.134948
 30
0.0
 10
422.762071
 20
324.543464
 30
0.0
  0
SPLINE
  5
278
100
AcDbEntity
  8
Layer_1
 62
7
100
AcDbSpline
 70
8
 71
3
 72
8
 73
4
 74
0
 40
0
 40
0
 40
0
 40
0
 40
1
 40
1
 40
1
 40
1
 10
422.762071
 20
324.543464
 30
0.0
 10
423.170588
 20
324.951978
 30
0.0
 10
423.724652
 20
325.181478
 30
0.0
 10
424.302370
 20
325.181478
 30
0.0
  0
SPLINE
  5
279
100
AcDbEntity
  8
Layer_1
 62
7
100
AcDbSpline
 70
8
 71
3
 72
8
 73
4
 74
0
 40
0
 40
0
 40
0
 40
0
 40
1
 40
1
 40
1
 40
1
 10
424.302370
 20
325.181478
 30
0.0
 10
424.880088
 20
325.181478
 30
0.0
 10
425.434151
 20
324.951978
 30
0.0
 10
425.842668
 20
324.543464
 30
0.0
  0
SPLINE
  5
27a
100
AcDbEntity
  8
Layer_1
 62
7
100
AcDbSpline
 70
8
 71
3
 72
8
 73
4
 74
0
 40
0
 40
0
 40
0
 40
0
 40
1
 40
1
 40
1
 40
1
 10
425.842668
 20
324.543464
 30
0.0
 10
426.251185
 20
324.134948
 30
0.0
 10
426.480684
 20
323.580886
 30
0.0
 10
426.480684
 20
323.003159
 30
0.0
  0
SPLINE
  5
27b
100
AcDbEntity
  8
Layer_1
 62
7
100
AcDbSpline
 70
8
 71
3
 72
8
 73
4
 74
0
 40
0
 40
0
 40
0
 40
0
 40
1
 40
1
 40
1
 40
1
 10
271.310100
 20
157.061587
 30
0.0
 10
271.310100
 20
158.528318
 30
0.0
 10
272.499111
 20
159.717337
 30
0.0
 10
273.965829
 20
159.717337
 30
0.0
  0
SPLINE
  5
27c
100
AcDbEntity
  8
Layer_1
 62
7
100
AcDbSpline
 70
8
 71
3
 72
8
 73
4
 74
0
 40
0
 40
0
 40
0
 40
0
 40
1
 40
1
 40
1
 40
1
 10
273.965829
 20
159.717337
 30
0.0
 10
275.432573
 20
159.717337
 30
0.0
 10
276.621584
 20
158.528318
 30
0.0
 10
276.621584
 20
157.061587
 30
0.0
  0
SPLINE
  5
27d
100
AcDbEntity
  8
Layer_1
 62
7
100
AcDbSpline
 70
8
 71
3
 72
8
 73
4
 74
0
 40
0
 40
0
 40
0
 40
0
 40
1
 40
1
 40
1
 40
1
 10
276.621584
 20
157.061587
 30
0.0
 10
276.621584
 20
155.594859
 30
0.0
 10
275.432573
 20
154.405840
 30
0.0
 10
273.965829
 20
154.405837
 30
0.0
  0
SPLINE
  5
27e
100
AcDbEntity
  8
Layer_1
 62
7
100
AcDbSpline
 70
8
 71
3
 72
8
 73
4
 74
0
 40
0
 40
0
 40
0
 40
0
 40
1
 40
1
 40
1
 40
1
 10
273.965829
 20
154.405837
 30
0.0
 10
272.499111
 20
154.405840
 30
0.0
 10
271.310100
 20
155.594859
 30
0.0
 10
271.310100
 20
157.061587
 30
0.0
  0
SPLINE
  5
27f
100
AcDbEntity
  8
Layer_1
 62
7
100
AcDbSpline
 70
8
 71
3
 72
8
 73
4
 74
0
 40
0
 40
0
 40
0
 40
0
 40
1
 40
1
 40
1
 40
1
 10
182.060091
 20
157.061587
 30
0.0
 10
182.060091
 20
158.528318
 30
0.0
 10
183.249110
 20
159.717337
 30
0.0
 10
184.715841
 20
159.717337
 30
0.0
  0
SPLINE
  5
280
100
AcDbEntity
  8
Layer_1
 62
7
100
AcDbSpline
 70
8
 71
3
 72
8
 73
4
 74
0
 40
0
 40
0
 40
0
 40
0
 40
1
 40
1
 40
1
 40
1
 10
184.715841
 20
159.717337
 30
0.0
 10
186.182569
 20
159.717337
 30
0.0
 10
187.371588
 20
158.528318
 30
0.0
 10
187.371590
 20
157.061587
 30
0.0
  0
SPLINE
  5
281
100
AcDbEntity
  8
Layer_1
 62
7
100
AcDbSpline
 70
8
 71
3
 72
8
 73
4
 74
0
 40
0
 40
0
 40
0
 40
0
 40
1
 40
1
 40
1
 40
1
 10
187.371590
 20
157.061587
 30
0.0
 10
187.371588
 20
155.594859
 30
0.0
 10
186.182569
 20
154.405840
 30
0.0
 10
184.715841
 20
154.405837
 30
0.0
  0
SPLINE
  5
282
100
AcDbEntity
  8
Layer_1
 62
7
100
AcDbSpline
 70
8
 71
3
 72
8
 73
4
 74
0
 40
0
 40
0
 40
0
 40
0
 40
1
 40
1
 40
1
 40
1
 10
184.715841
 20
154.405837
 30
0.0
 10
183.249110
 20
154.405840
 30
0.0
 10
182.060091
 20
155.594859
 30
0.0
 10
182.060091
 20
157.061587
 30
0.0
  0
SPLINE
  5
283
100
AcDbEntity
  8
Layer_1
 62
7
100
AcDbSpline
 70
8
 71
3
 72
8
 73
4
 74
0
 40
0
 40
0
 40
0
 40
0
 40
1
 40
1
 40
1
 40
1
 10
271.310100
 20
67.061598
 30
0.0
 10
271.310100
 20
67.765948
 30
0.0
 10
271.589897
 20
68.441450
 30
0.0
 10
272.087949
 20
68.939502
 30
0.0
  0
SPLINE
  5
284
100
AcDbEntity
  8
Layer_1
 62
7
100
AcDbSpline
 70
8
 71
3
 72
8
 73
4
 74
0
 40
0
 40
0
 40
0
 40
0
 40
1
 40
1
 40
1
 40
1
 10
272.087949
 20
68.939502
 30
0.0
 10
272.586000
 20
69.437554
 30
0.0
 10
273.261481
 20
69.717358
 30
0.0
 10
273.965829
 20
69.717358
 30
0.0
  0
SPLINE
  5
285
100
AcDbEntity
  8
Layer_1
 62
7
100
AcDbSpline
 70
8
 71
3
 72
8
 73
4
 74
0
 40
0
 40
0
 40
0
 40
0
 40
1
 40
1
 40
1
 40
1
 10
273.965829
 20
69.717358
 30
0.0
 10
274.670202
 20
69.717358
 30
0.0
 10
275.345684
 20
69.437554
 30
0.0
 10
275.843735
 20
68.939502
 30
0.0
  0
SPLINE
  5
286
100
AcDbEntity
  8
Layer_1
 62
7
100
AcDbSpline
 70
8
 71
3
 72
8
 73
4
 74
0
 40
0
 40
0
 40
0
 40
0
 40
1
 40
1
 40
1
 40
1
 10
275.843735
 20
68.939502
 30
0.0
 10
276.341787
 20
68.441450
 30
0.0
 10
276.621584
 20
67.765948
 30
0.0
 10
276.621584
 20
67.061598
 30
0.0
  0
SPLINE
  5
287
100
AcDbEntity
  8
Layer_1
 62
7
100
AcDbSpline
 70
8
 71
3
 72
8
 73
4
 74
0
 40
0
 40
0
 40
0
 40
0
 40
1
 40
1
 40
1
 40
1
 10
276.621584
 20
67.061598
 30
0.0
 10
276.621584
 20
65.594867
 30
0.0
 10
275.432573
 20
64.405848
 30
0.0
 10
273.965829
 20
64.405848
 30
0.0
  0
SPLINE
  5
288
100
AcDbEntity
  8
Layer_1
 62
7
100
AcDbSpline
 70
8
 71
3
 72
8
 73
4
 74
0
 40
0
 40
0
 40
0
 40
0
 40
1
 40
1
 40
1
 40
1
 10
273.965829
 20
64.405848
 30
0.0
 10
272.499111
 20
64.405848
 30
0.0
 10
271.310100
 20
65.594867
 30
0.0
 10
271.310100
 20
67.061598
 30
0.0
  0
SPLINE
  5
289
100
AcDbEntity
  8
Layer_1
 62
7
100
AcDbSpline
 70
8
 71
3
 72
8
 73
4
 74
0
 40
0
 40
0
 40
0
 40
0
 40
1
 40
1
 40
1
 40
1
 10
182.060091
 20
67.061598
 30
0.0
 10
182.060088
 20
67.765948
 30
0.0
 10
182.339888
 20
68.441450
 30
0.0
 10
182.837939
 20
68.939502
 30
0.0
  0
SPLINE
  5
28a
100
AcDbEntity
  8
Layer_1
 62
7
100
AcDbSpline
 70
8
 71
3
 72
8
 73
4
 74
0
 40
0
 40
0
 40
0
 40
0
 40
1
 40
1
 40
1
 40
1
 10
182.837939
 20
68.939502
 30
0.0
 10
183.335988
 20
69.437554
 30
0.0
 10
184.011491
 20
69.717358
 30
0.0
 10
184.715841
 20
69.717358
 30
0.0
  0
SPLINE
  5
28b
100
AcDbEntity
  8
Layer_1
 62
7
100
AcDbSpline
 70
8
 71
3
 72
8
 73
4
 74
0
 40
0
 40
0
 40
0
 40
0
 40
1
 40
1
 40
1
 40
1
 10
184.715841
 20
69.717358
 30
0.0
 10
185.420190
 20
69.717358
 30
0.0
 10
186.095693
 20
69.437554
 30
0.0
 10
186.593742
 20
68.939502
 30
0.0
  0
SPLINE
  5
28c
100
AcDbEntity
  8
Layer_1
 62
7
100
AcDbSpline
 70
8
 71
3
 72
8
 73
4
 74
0
 40
0
 40
0
 40
0
 40
0
 40
1
 40
1
 40
1
 40
1
 10
186.593742
 20
68.939502
 30
0.0
 10
187.091791
 20
68.441450
 30
0.0
 10
187.371593
 20
67.765948
 30
0.0
 10
187.371590
 20
67.061598
 30
0.0
  0
SPLINE
  5
28d
100
AcDbEntity
  8
Layer_1
 62
7
100
AcDbSpline
 70
8
 71
3
 72
8
 73
4
 74
0
 40
0
 40
0
 40
0
 40
0
 40
1
 40
1
 40
1
 40
1
 10
187.371590
 20
67.061598
 30
0.0
 10
187.371588
 20
65.594867
 30
0.0
 10
186.182569
 20
64.405848
 30
0.0
 10
184.715841
 20
64.405848
 30
0.0
  0
SPLINE
  5
28e
100
AcDbEntity
  8
Layer_1
 62
7
100
AcDbSpline
 70
8
 71
3
 72
8
 73
4
 74
0
 40
0
 40
0
 40
0
 40
0
 40
1
 40
1
 40
1
 40
1
 10
184.715841
 20
64.405848
 30
0.0
 10
183.249110
 20
64.405848
 30
0.0
 10
182.060091
 20
65.594867
 30
0.0
 10
182.060091
 20
67.061598
 30
0.0
  0
SPLINE
  5
28f
100
AcDbEntity
  8
Layer_1
 62
7
100
AcDbSpline
 70
8
 71
3
 72
8
 73
4
 74
0
 40
0
 40
0
 40
0
 40
0
 40
1
 40
1
 40
1
 40
1
 10
359.216510
 20
29.866028
 30
0.0
 10
228.075310
 20
29.866028
 30
0.0
 10
158.432709
 20
29.866028
 30
0.0
 10
99.216610
 20
29.866028
 30
0.0
  0
LWPOLYLINE
  5
290
100
AcDbEntity
  8
Layer_1
 62
7
100
AcDbPolyline
 90
16
 70
0
 10
357.791729
 20
403.015957
 30
0.0
 10
357.791729
 20
423.015957
 30
0.0
 10
432.791738
 20
423.015957
 30
0.0
 10
432.791738
 20
403.015957
 30
0.0
 10
437.791728
 20
403.015957
 30
0.0
 10
437.791728
 20
243.015952
 30
0.0
 10
432.791738
 20
243.015952
 30
0.0
 10
432.791738
 20
223.015952
 30
0.0
 10
357.791729
 20
223.015952
 30
0.0
 10
357.791729
 20
243.015952
 30
0.0
 10
97.791720
 20
243.015952
 30
0.0
 10
97.791720
 20
223.015952
 30
0.0
 10
22.791720
 20
223.015952
 30
0.0
 10
22.791720
 20
243.015952
 30
0.0
 10
17.791720
 20
243.015952
 30
0.0
 10
17.791720
 20
403.015947
 30
0.0
  0
SPLINE
  5
291
100
AcDbEntity
  8
Layer_1
 62
7
100
AcDbSpline
 70
8
 71
3
 72
8
 73
4
 74
0
 40
0
 40
0
 40
0
 40
0
 40
1
 40
1
 40
1
 40
1
 10
30.538920
 20
203.390938
 30
0.0
 10
30.538925
 20
204.593988
 30
0.0
 10
31.514190
 20
205.569248
 30
0.0
 10
32.717240
 20
205.569248
 30
0.0
  0
SPLINE
  5
292
100
AcDbEntity
  8
Layer_1
 62
7
100
AcDbSpline
 70
8
 71
3
 72
8
 73
4
 74
0
 40
0
 40
0
 40
0
 40
0
 40
1
 40
1
 40
1
 40
1
 10
32.717240
 20
205.569248
 30
0.0
 10
33.920290
 20
205.569248
 30
0.0
 10
34.895555
 20
204.593988
 30
0.0
 10
34.895560
 20
203.390938
 30
0.0
  0
SPLINE
  5
293
100
AcDbEntity
  8
Layer_1
 62
7
100
AcDbSpline
 70
8
 71
3
 72
8
 73
4
 74
0
 40
0
 40
0
 40
0
 40
0
 40
1
 40
1
 40
1
 40
1
 10
34.895560
 20
203.390938
 30
0.0
 10
34.895560
 20
202.813213
 30
0.0
 10
34.666058
 20
202.259146
 30
0.0
 10
34.257544
 20
201.850632
 30
0.0
  0
SPLINE
  5
294
100
AcDbEntity
  8
Layer_1
 62
7
100
AcDbSpline
 70
8
 71
3
 72
8
 73
4
 74
0
 40
0
 40
0
 40
0
 40
0
 40
1
 40
1
 40
1
 40
1
 10
34.257544
 20
201.850632
 30
0.0
 10
33.849032
 20
201.442118
 30
0.0
 10
33.294966
 20
201.212619
 30
0.0
 10
32.717240
 20
201.212619
 30
0.0
  0
SPLINE
  5
295
100
AcDbEntity
  8
Layer_1
 62
7
100
AcDbSpline
 70
8
 71
3
 72
8
 73
4
 74
0
 40
0
 40
0
 40
0
 40
0
 40
1
 40
1
 40
1
 40
1
 10
32.717240
 20
201.212619
 30
0.0
 10
32.139514
 20
201.212619
 30
0.0
 10
31.585448
 20
201.442118
 30
0.0
 10
31.176936
 20
201.850632
 30
0.0
  0
SPLINE
  5
296
100
AcDbEntity
  8
Layer_1
 62
7
100
AcDbSpline
 70
8
 71
3
 72
8
 73
4
 74
0
 40
0
 40
0
 40
0
 40
0
 40
1
 40
1
 40
1
 40
1
 10
31.176936
 20
201.850632
 30
0.0
 10
30.768420
 20
202.259146
 30
0.0
 10
30.538920
 20
202.813213
 30
0.0
 10
30.538920
 20
203.390938
 30
0.0
  0
LWPOLYLINE
  5
297
100
AcDbEntity
  8
Layer_1
 62
7
100
AcDbPolyline
 90
5
 70
0
 10
439.216297
 20
29.866028
 30
0.0
 10
434.216307
 20
29.866028
 30
0.0
 10
434.216307
 20
9.866042
 30
0.0
 10
359.216510
 20
9.866042
 30
0.0
 10
359.216510
 20
29.866028
 30
0.0
  0
SPLINE
  5
298
100
AcDbEntity
  8
Layer_1
 62
7
100
AcDbSpline
 70
8
 71
3
 72
8
 73
4
 74
0
 40
0
 40
0
 40
0
 40
0
 40
1
 40
1
 40
1
 40
1
 10
423.538941
 20
203.390938
 30
0.0
 10
423.538941
 20
204.593988
 30
0.0
 10
424.514195
 20
205.569248
 30
0.0
 10
425.717256
 20
205.569248
 30
0.0
  0
SPLINE
  5
299
100
AcDbEntity
  8
Layer_1
 62
7
100
AcDbSpline
 70
8
 71
3
 72
8
 73
4
 74
0
 40
0
 40
0
 40
0
 40
0
 40
1
 40
1
 40
1
 40
1
 10
425.717256
 20
205.569248
 30
0.0
 10
426.920290
 20
205.569248
 30
0.0
 10
427.895570
 20
204.593988
 30
0.0
 10
427.895570
 20
203.390938
 30
0.0
  0
SPLINE
  5
29a
100
AcDbEntity
  8
Layer_1
 62
7
100
AcDbSpline
 70
8
 71
3
 72
8
 73
4
 74
0
 40
0
 40
0
 40
0
 40
0
 40
1
 40
1
 40
1
 40
1
 10
427.895570
 20
203.390938
 30
0.0
 10
427.895570
 20
202.813213
 30
0.0
 10
427.666071
 20
202.259146
 30
0.0
 10
427.257554
 20
201.850632
 30
0.0
  0
SPLINE
  5
29b
100
AcDbEntity
  8
Layer_1
 62
7
100
AcDbSpline
 70
8
 71
3
 72
8
 73
4
 74
0
 40
0
 40
0
 40
0
 40
0
 40
1
 40
1
 40
1
 40
1
 10
427.257554
 20
201.850632
 30
0.0
 10
426.849037
 20
201.442118
 30
0.0
 10
426.294973
 20
201.212619
 30
0.0
 10
425.717256
 20
201.212619
 30
0.0
  0
SPLINE
  5
29c
100
AcDbEntity
  8
Layer_1
 62
7
100
AcDbSpline
 70
8
 71
3
 72
8
 73
4
 74
0
 40
0
 40
0
 40
0
 40
0
 40
1
 40
1
 40
1
 40
1
 10
425.717256
 20
201.212619
 30
0.0
 10
425.139511
 20
201.212619
 30
0.0
 10
424.585447
 20
201.442118
 30
0.0
 10
424.176957
 20
201.850632
 30
0.0
  0
SPLINE
  5
29d
100
AcDbEntity
  8
Layer_1
 62
7
100
AcDbSpline
 70
8
 71
3
 72
8
 73
4
 74
0
 40
0
 40
0
 40
0
 40
0
 40
1
 40
1
 40
1
 40
1
 10
424.176957
 20
201.850632
 30
0.0
 10
423.768441
 20
202.259146
 30
0.0
 10
423.538941
 20
202.813213
 30
0.0
 10
423.538941
 20
203.390938
 30
0.0
  0
SPLINE
  5
29e
100
AcDbEntity
  8
Layer_1
 62
7
100
AcDbSpline
 70
8
 71
3
 72
8
 73
4
 74
0
 40
0
 40
0
 40
0
 40
0
 40
1
 40
1
 40
1
 40
1
 10
423.538941
 20
16.388974
 30
0.0
 10
423.538941
 20
16.966691
 30
0.0
 10
423.768441
 20
17.520755
 30
0.0
 10
424.176957
 20
17.929272
 30
0.0
  0
SPLINE
  5
29f
100
AcDbEntity
  8
Layer_1
 62
7
100
AcDbSpline
 70
8
 71
3
 72
8
 73
4
 74
0
 40
0
 40
0
 40
0
 40
0
 40
1
 40
1
 40
1
 40
1
 10
424.176957
 20
17.929272
 30
0.0
 10
424.585447
 20
18.337789
 30
0.0
 10
425.139511
 20
18.567288
 30
0.0
 10
425.717256
 20
18.567288
 30
0.0
  0
SPLINE
  5
2a0
100
AcDbEntity
  8
Layer_1
 62
7
100
AcDbSpline
 70
8
 71
3
 72
8
 73
4
 74
0
 40
0
 40
0
 40
0
 40
0
 40
1
 40
1
 40
1
 40
1
 10
425.717256
 20
18.567288
 30
0.0
 10
426.294973
 20
18.567288
 30
0.0
 10
426.849037
 20
18.337789
 30
0.0
 10
427.257554
 20
17.929272
 30
0.0
  0
SPLINE
  5
2a1
100
AcDbEntity
  8
Layer_1
 62
7
100
AcDbSpline
 70
8
 71
3
 72
8
 73
4
 74
0
 40
0
 40
0
 40
0
 40
0
 40
1
 40
1
 40
1
 40
1
 10
427.257554
 20
17.929272
 30
0.0
 10
427.666071
 20
17.520755
 30
0.0
 10
427.895570
 20
16.966691
 30
0.0
 10
427.895570
 20
16.388974
 30
0.0
  0
SPLINE
  5
2a2
100
AcDbEntity
  8
Layer_1
 62
7
100
AcDbSpline
 70
8
 71
3
 72
8
 73
4
 74
0
 40
0
 40
0
 40
0
 40
0
 40
1
 40
1
 40
1
 40
1
 10
427.895570
 20
16.388974
 30
0.0
 10
427.895570
 20
15.811229
 30
0.0
 10
427.666071
 20
15.257165
 30
0.0
 10
427.257554
 20
14.848675
 30
0.0
  0
SPLINE
  5
2a3
100
AcDbEntity
  8
Layer_1
 62
7
100
AcDbSpline
 70
8
 71
3
 72
8
 73
4
 74
0
 40
0
 40
0
 40
0
 40
0
 40
1
 40
1
 40
1
 40
1
 10
427.257554
 20
14.848675
 30
0.0
 10
426.849037
 20
14.440159
 30
0.0
 10
426.294973
 20
14.210659
 30
0.0
 10
425.717256
 20
14.210659
 30
0.0
  0
SPLINE
  5
2a4
100
AcDbEntity
  8
Layer_1
 62
7
100
AcDbSpline
 70
8
 71
3
 72
8
 73
4
 74
0
 40
0
 40
0
 40
0
 40
0
 40
1
 40
1
 40
1
 40
1
 10
425.717256
 20
14.210659
 30
0.0
 10
425.139511
 20
14.210659
 30
0.0
 10
424.585447
 20
14.440159
 30
0.0
 10
424.176957
 20
14.848675
 30
0.0
  0
SPLINE
  5
2a5
100
AcDbEntity
  8
Layer_1
 62
7
100
AcDbSpline
 70
8
 71
3
 72
8
 73
4
 74
0
 40
0
 40
0
 40
0
 40
0
 40
1
 40
1
 40
1
 40
1
 10
424.176957
 20
14.848675
 30
0.0
 10
423.768441
 20
15.257165
 30
0.0
 10
423.538941
 20
15.811229
 30
0.0
 10
423.538941
 20
16.388974
 30
0.0
  0
SPLINE
  5
2a6
100
AcDbEntity
  8
Layer_1
 62
7
100
AcDbSpline
 70
8
 71
3
 72
8
 73
4
 74
0
 40
0
 40
0
 40
0
 40
0
 40
1
 40
1
 40
1
 40
1
 10
30.538920
 20
16.388974
 30
0.0
 10
30.538920
 20
16.966691
 30
0.0
 10
30.768420
 20
17.520755
 30
0.0
 10
31.176936
 20
17.929272
 30
0.0
  0
SPLINE
  5
2a7
100
AcDbEntity
  8
Layer_1
 62
7
100
AcDbSpline
 70
8
 71
3
 72
8
 73
4
 74
0
 40
0
 40
0
 40
0
 40
0
 40
1
 40
1
 40
1
 40
1
 10
31.176936
 20
17.929272
 30
0.0
 10
31.585448
 20
18.337789
 30
0.0
 10
32.139514
 20
18.567288
 30
0.0
 10
32.717240
 20
18.567288
 30
0.0
  0
SPLINE
  5
2a8
100
AcDbEntity
  8
Layer_1
 62
7
100
AcDbSpline
 70
8
 71
3
 72
8
 73
4
 74
0
 40
0
 40
0
 40
0
 40
0
 40
1
 40
1
 40
1
 40
1
 10
32.717240
 20
18.567288
 30
0.0
 10
33.294966
 20
18.567288
 30
0.0
 10
33.849032
 20
18.337789
 30
0.0
 10
34.257544
 20
17.929272
 30
0.0
  0
SPLINE
  5
2a9
100
AcDbEntity
  8
Layer_1
 62
7
100
AcDbSpline
 70
8
 71
3
 72
8
 73
4
 74
0
 40
0
 40
0
 40
0
 40
0
 40
1
 40
1
 40
1
 40
1
 10
34.257544
 20
17.929272
 30
0.0
 10
34.666058
 20
17.520755
 30
0.0
 10
34.895560
 20
16.966691
 30
0.0
 10
34.895560
 20
16.388974
 30
0.0
  0
SPLINE
  5
2aa
100
AcDbEntity
  8
Layer_1
 62
7
100
AcDbSpline
 70
8
 71
3
 72
8
 73
4
 74
0
 40
0
 40
0
 40
0
 40
0
 40
1
 40
1
 40
1
 40
1
 10
34.895560
 20
16.388974
 30
0.0
 10
34.895560
 20
15.811229
 30
0.0
 10
34.666058
 20
15.257165
 30
0.0
 10
34.257544
 20
14.848675
 30
0.0
  0
SPLINE
  5
2ab
100
AcDbEntity
  8
Layer_1
 62
7
100
AcDbSpline
 70
8
 71
3
 72
8
 73
4
 74
0
 40
0
 40
0
 40
0
 40
0
 40
1
 40
1
 40
1
 40
1
 10
34.257544
 20
14.848675
 30
0.0
 10
33.849032
 20
14.440159
 30
0.0
 10
33.294966
 20
14.210659
 30
0.0
 10
32.717240
 20
14.210659
 30
0.0
  0
SPLINE
  5
2ac
100
AcDbEntity
  8
Layer_1
 62
7
100
AcDbSpline
 70
8
 71
3
 72
8
 73
4
 74
0
 40
0
 40
0
 40
0
 40
0
 40
1
 40
1
 40
1
 40
1
 10
32.717240
 20
14.210659
 30
0.0
 10
32.139514
 20
14.210659
 30
0.0
 10
31.585448
 20
14.440159
 30
0.0
 10
31.176936
 20
14.848675
 30
0.0
  0
SPLINE
  5
2ad
100
AcDbEntity
  8
Layer_1
 62
7
100
AcDbSpline
 70
8
 71
3
 72
8
 73
4
 74
0
 40
0
 40
0
 40
0
 40
0
 40
1
 40
1
 40
1
 40
1
 10
31.176936
 20
14.848675
 30
0.0
 10
30.768420
 20
15.257165
 30
0.0
 10
30.538920
 20
15.811229
 30
0.0
 10
30.538920
 20
16.388974
 30
0.0
  0
SPLINE
  5
2ae
100
AcDbEntity
  8
Layer_1
 62
7
100
AcDbSpline
 70
8
 71
3
 72
8
 73
4
 74
0
 40
0
 40
0
 40
0
 40
0
 40
1
 40
1
 40
1
 40
1
 10
423.546931
 20
109.888358
 30
0.0
 10
423.546931
 20
110.466084
 30
0.0
 10
423.776431
 20
111.020148
 30
0.0
 10
424.184948
 20
111.428662
 30
0.0
  0
SPLINE
  5
2af
100
AcDbEntity
  8
Layer_1
 62
7
100
AcDbSpline
 70
8
 71
3
 72
8
 73
4
 74
0
 40
0
 40
0
 40
0
 40
0
 40
1
 40
1
 40
1
 40
1
 10
424.184948
 20
111.428662
 30
0.0
 10
424.593464
 20
111.837178
 30
0.0
 10
425.147528
 20
112.066678
 30
0.0
 10
425.725246
 20
112.066678
 30
0.0
  0
SPLINE
  5
2b0
100
AcDbEntity
  8
Layer_1
 62
7
100
AcDbSpline
 70
8
 71
3
 72
8
 73
4
 74
0
 40
0
 40
0
 40
0
 40
0
 40
1
 40
1
 40
1
 40
1
 10
425.725246
 20
112.066678
 30
0.0
 10
426.302964
 20
112.066678
 30
0.0
 10
426.857054
 20
111.837178
 30
0.0
 10
427.265544
 20
111.428662
 30
0.0
  0
SPLINE
  5
2b1
100
AcDbEntity
  8
Layer_1
 62
7
100
AcDbSpline
 70
8
 71
3
 72
8
 73
4
 74
0
 40
0
 40
0
 40
0
 40
0
 40
1
 40
1
 40
1
 40
1
 10
427.265544
 20
111.428662
 30
0.0
 10
427.674061
 20
111.020148
 30
0.0
 10
427.903561
 20
110.466084
 30
0.0
 10
427.903561
 20
109.888358
 30
0.0
  0
SPLINE
  5
2b2
100
AcDbEntity
  8
Layer_1
 62
7
100
AcDbSpline
 70
8
 71
3
 72
8
 73
4
 74
0
 40
0
 40
0
 40
0
 40
0
 40
1
 40
1
 40
1
 40
1
 10
427.903561
 20
109.888358
 30
0.0
 10
427.903561
 20
109.310632
 30
0.0
 10
427.674061
 20
108.756568
 30
0.0
 10
427.265544
 20
108.348054
 30
0.0
  0
SPLINE
  5
2b3
100
AcDbEntity
  8
Layer_1
 62
7
100
AcDbSpline
 70
8
 71
3
 72
8
 73
4
 74
0
 40
0
 40
0
 40
0
 40
0
 40
1
 40
1
 40
1
 40
1
 10
427.265544
 20
108.348054
 30
0.0
 10
426.857054
 20
107.939540
 30
0.0
 10
426.302964
 20
107.710038
 30
0.0
 10
425.725246
 20
107.710038
 30
0.0
  0
SPLINE
  5
2b4
100
AcDbEntity
  8
Layer_1
 62
7
100
AcDbSpline
 70
8
 71
3
 72
8
 73
4
 74
0
 40
0
 40
0
 40
0
 40
0
 40
1
 40
1
 40
1
 40
1
 10
425.725246
 20
107.710038
 30
0.0
 10
425.147528
 20
107.710038
 30
0.0
 10
424.593464
 20
107.939540
 30
0.0
 10
424.184948
 20
108.348054
 30
0.0
  0
SPLINE
  5
2b5
100
AcDbEntity
  8
Layer_1
 62
7
100
AcDbSpline
 70
8
 71
3
 72
8
 73
4
 74
0
 40
0
 40
0
 40
0
 40
0
 40
1
 40
1
 40
1
 40
1
 10
424.184948
 20
108.348054
 30
0.0
 10
423.776431
 20
108.756568
 30
0.0
 10
423.546931
 20
109.310632
 30
0.0
 10
423.546931
 20
109.888358
 30
0.0
  0
SPLINE
  5
2b6
100
AcDbEntity
  8
Layer_1
 62
7
100
AcDbSpline
 70
8
 71
3
 72
8
 73
4
 74
0
 40
0
 40
0
 40
0
 40
0
 40
1
 40
1
 40
1
 40
1
 10
30.527940
 20
109.988347
 30
0.0
 10
30.527940
 20
111.191396
 30
0.0
 10
31.503202
 20
112.166664
 30
0.0
 10
32.706249
 20
112.166666
 30
0.0
  0
SPLINE
  5
2b7
100
AcDbEntity
  8
Layer_1
 62
7
100
AcDbSpline
 70
8
 71
3
 72
8
 73
4
 74
0
 40
0
 40
0
 40
0
 40
0
 40
1
 40
1
 40
1
 40
1
 10
32.706249
 20
112.166666
 30
0.0
 10
33.283975
 20
112.166666
 30
0.0
 10
33.838041
 20
111.937167
 30
0.0
 10
34.246555
 20
111.528653
 30
0.0
  0
SPLINE
  5
2b8
100
AcDbEntity
  8
Layer_1
 62
7
100
AcDbSpline
 70
8
 71
3
 72
8
 73
4
 74
0
 40
0
 40
0
 40
0
 40
0
 40
1
 40
1
 40
1
 40
1
 10
34.246555
 20
111.528653
 30
0.0
 10
34.655069
 20
111.120139
 30
0.0
 10
34.884569
 20
110.566075
 30
0.0
 10
34.884569
 20
109.988347
 30
0.0
  0
SPLINE
  5
2b9
100
AcDbEntity
  8
Layer_1
 62
7
100
AcDbSpline
 70
8
 71
3
 72
8
 73
4
 74
0
 40
0
 40
0
 40
0
 40
0
 40
1
 40
1
 40
1
 40
1
 10
34.884569
 20
109.988347
 30
0.0
 10
34.884569
 20
109.410621
 30
0.0
 10
34.655069
 20
108.856557
 30
0.0
 10
34.246555
 20
108.448043
 30
0.0
  0
SPLINE
  5
2ba
100
AcDbEntity
  8
Layer_1
 62
7
100
AcDbSpline
 70
8
 71
3
 72
8
 73
4
 74
0
 40
0
 40
0
 40
0
 40
0
 40
1
 40
1
 40
1
 40
1
 10
34.246555
 20
108.448043
 30
0.0
 10
33.838041
 20
108.039529
 30
0.0
 10
33.283975
 20
107.810027
 30
0.0
 10
32.706249
 20
107.810027
 30
0.0
  0
SPLINE
  5
2bb
100
AcDbEntity
  8
Layer_1
 62
7
100
AcDbSpline
 70
8
 71
3
 72
8
 73
4
 74
0
 40
0
 40
0
 40
0
 40
0
 40
1
 40
1
 40
1
 40
1
 10
32.706249
 20
107.810027
 30
0.0
 10
31.503202
 20
107.810032
 30
0.0
 10
30.527940
 20
108.785299
 30
0.0
 10
30.527940
 20
109.988347
 30
0.0
  0
SPLINE
  5
2bc
100
AcDbEntity
  8
Layer_1
 62
7
100
AcDbSpline
 70
8
 71
3
 72
8
 73
4
 74
0
 40
0
 40
0
 40
0
 40
0
 40
1
 40
1
 40
1
 40
1
 10
408.020150
 20
57.955597
 30
0.0
 10
408.020150
 20
58.777253
 30
0.0
 10
408.346540
 20
59.565256
 30
0.0
 10
408.927538
 20
60.146255
 30
0.0
  0
SPLINE
  5
2bd
100
AcDbEntity
  8
Layer_1
 62
7
100
AcDbSpline
 70
8
 71
3
 72
8
 73
4
 74
0
 40
0
 40
0
 40
0
 40
0
 40
1
 40
1
 40
1
 40
1
 10
408.927538
 20
60.146255
 30
0.0
 10
409.508537
 20
60.727253
 30
0.0
 10
410.296545
 20
61.053656
 30
0.0
 10
411.118182
 20
61.053659
 30
0.0
  0
SPLINE
  5
2be
100
AcDbEntity
  8
Layer_1
 62
7
100
AcDbSpline
 70
8
 71
3
 72
8
 73
4
 74
0
 40
0
 40
0
 40
0
 40
0
 40
1
 40
1
 40
1
 40
1
 10
411.118182
 20
61.053659
 30
0.0
 10
411.939846
 20
61.053659
 30
0.0
 10
412.727854
 20
60.727259
 30
0.0
 10
413.308853
 20
60.146260
 30
0.0
  0
SPLINE
  5
2bf
100
AcDbEntity
  8
Layer_1
 62
7
100
AcDbSpline
 70
8
 71
3
 72
8
 73
4
 74
0
 40
0
 40
0
 40
0
 40
0
 40
1
 40
1
 40
1
 40
1
 10
413.308853
 20
60.146260
 30
0.0
 10
413.889851
 20
59.565259
 30
0.0
 10
414.216241
 20
58.777256
 30
0.0
 10
414.216241
 20
57.955597
 30
0.0
  0
SPLINE
  5
2c0
100
AcDbEntity
  8
Layer_1
 62
7
100
AcDbSpline
 70
8
 71
3
 72
8
 73
4
 74
0
 40
0
 40
0
 40
0
 40
0
 40
1
 40
1
 40
1
 40
1
 10
414.216241
 20
57.955597
 30
0.0
 10
414.216241
 20
57.133942
 30
0.0
 10
413.889851
 20
56.345941
 30
0.0
 10
413.308853
 20
55.764943
 30
0.0
  0
SPLINE
  5
2c1
100
AcDbEntity
  8
Layer_1
 62
7
100
AcDbSpline
 70
8
 71
3
 72
8
 73
4
 74
0
 40
0
 40
0
 40
0
 40
0
 40
1
 40
1
 40
1
 40
1
 10
413.308853
 20
55.764943
 30
0.0
 10
412.727854
 20
55.183947
 30
0.0
 10
411.939846
 20
54.857546
 30
0.0
 10
411.118182
 20
54.857549
 30
0.0
  0
SPLINE
  5
2c2
100
AcDbEntity
  8
Layer_1
 62
7
100
AcDbSpline
 70
8
 71
3
 72
8
 73
4
 74
0
 40
0
 40
0
 40
0
 40
0
 40
1
 40
1
 40
1
 40
1
 10
411.118182
 20
54.857549
 30
0.0
 10
409.407175
 20
54.857551
 30
0.0
 10
408.020150
 20
56.244592
 30
0.0
 10
408.020150
 20
57.955597
 30
0.0
  0
SPLINE
  5
2c3
100
AcDbEntity
  8
Layer_1
 62
7
100
AcDbSpline
 70
8
 71
3
 72
8
 73
4
 74
0
 40
0
 40
0
 40
0
 40
0
 40
1
 40
1
 40
1
 40
1
 10
408.020150
 20
161.765598
 30
0.0
 10
408.020150
 20
163.476603
 30
0.0
 10
409.407175
 20
164.863647
 30
0.0
 10
411.118182
 20
164.863647
 30
0.0
  0
SPLINE
  5
2c4
100
AcDbEntity
  8
Layer_1
 62
7
100
AcDbSpline
 70
8
 71
3
 72
8
 73
4
 74
0
 40
0
 40
0
 40
0
 40
0
 40
1
 40
1
 40
1
 40
1
 10
411.118182
 20
164.863647
 30
0.0
 10
411.939846
 20
164.863650
 30
0.0
 10
412.727854
 20
164.537249
 30
0.0
 10
413.308853
 20
163.956250
 30
0.0
  0
SPLINE
  5
2c5
100
AcDbEntity
  8
Layer_1
 62
7
100
AcDbSpline
 70
8
 71
3
 72
8
 73
4
 74
0
 40
0
 40
0
 40
0
 40
0
 40
1
 40
1
 40
1
 40
1
 10
413.308853
 20
163.956250
 30
0.0
 10
413.889851
 20
163.375255
 30
0.0
 10
414.216241
 20
162.587254
 30
0.0
 10
414.216241
 20
161.765598
 30
0.0
  0
SPLINE
  5
2c6
100
AcDbEntity
  8
Layer_1
 62
7
100
AcDbSpline
 70
8
 71
3
 72
8
 73
4
 74
0
 40
0
 40
0
 40
0
 40
0
 40
1
 40
1
 40
1
 40
1
 10
414.216241
 20
161.765598
 30
0.0
 10
414.216241
 20
160.943943
 30
0.0
 10
413.889851
 20
160.155942
 30
0.0
 10
413.308853
 20
159.574944
 30
0.0
  0
SPLINE
  5
2c7
100
AcDbEntity
  8
Layer_1
 62
7
100
AcDbSpline
 70
8
 71
3
 72
8
 73
4
 74
0
 40
0
 40
0
 40
0
 40
0
 40
1
 40
1
 40
1
 40
1
 10
413.308853
 20
159.574944
 30
0.0
 10
412.727854
 20
158.993945
 30
0.0
 10
411.939846
 20
158.667545
 30
0.0
 10
411.118182
 20
158.667547
 30
0.0
  0
SPLINE
  5
2c8
100
AcDbEntity
  8
Layer_1
 62
7
100
AcDbSpline
 70
8
 71
3
 72
8
 73
4
 74
0
 40
0
 40
0
 40
0
 40
0
 40
1
 40
1
 40
1
 40
1
 10
411.118182
 20
158.667547
 30
0.0
 10
409.407175
 20
158.667550
 30
0.0
 10
408.020150
 20
160.054594
 30
0.0
 10
408.020150
 20
161.765598
 30
0.0
  0
SPLINE
  5
2c9
100
AcDbEntity
  8
Layer_1
 62
7
100
AcDbSpline
 70
8
 71
3
 72
8
 73
4
 74
0
 40
0
 40
0
 40
0
 40
0
 40
1
 40
1
 40
1
 40
1
 10
44.218191
 20
161.765598
 30
0.0
 10
44.218191
 20
163.476603
 30
0.0
 10
45.605234
 20
164.863647
 30
0.0
 10
47.316239
 20
164.863647
 30
0.0
  0
SPLINE
  5
2ca
100
AcDbEntity
  8
Layer_1
 62
7
100
AcDbSpline
 70
8
 71
3
 72
8
 73
4
 74
0
 40
0
 40
0
 40
0
 40
0
 40
1
 40
1
 40
1
 40
1
 10
47.316239
 20
164.863647
 30
0.0
 10
49.027244
 20
164.863647
 30
0.0
 10
50.414288
 20
163.476603
 30
0.0
 10
50.414290
 20
161.765598
 30
0.0
  0
SPLINE
  5
2cb
100
AcDbEntity
  8
Layer_1
 62
7
100
AcDbSpline
 70
8
 71
3
 72
8
 73
4
 74
0
 40
0
 40
0
 40
0
 40
0
 40
1
 40
1
 40
1
 40
1
 10
50.414290
 20
161.765598
 30
0.0
 10
50.414288
 20
160.054594
 30
0.0
 10
49.027244
 20
158.667550
 30
0.0
 10
47.316239
 20
158.667547
 30
0.0
  0
SPLINE
  5
2cc
100
AcDbEntity
  8
Layer_1
 62
7
100
AcDbSpline
 70
8
 71
3
 72
8
 73
4
 74
0
 40
0
 40
0
 40
0
 40
0
 40
1
 40
1
 40
1
 40
1
 10
47.316239
 20
158.667547
 30
0.0
 10
45.605234
 20
158.667550
 30
0.0
 10
44.218191
 20
160.054594
 30
0.0
 10
44.218191
 20
161.765598
 30
0.0
  0
SPLINE
  5
2cd
100
AcDbEntity
  8
Layer_1
 62
7
100
AcDbSpline
 70
8
 71
3
 72
8
 73
4
 74
0
 40
0
 40
0
 40
0
 40
0
 40
1
 40
1
 40
1
 40
1
 10
44.218191
 20
57.955597
 30
0.0
 10
44.218188
 20
58.777253
 30
0.0
 10
44.544589
 20
59.565256
 30
0.0
 10
45.125587
 20
60.146255
 30
0.0
  0
SPLINE
  5
2ce
100
AcDbEntity
  8
Layer_1
 62
7
100
AcDbSpline
 70
8
 71
3
 72
8
 73
4
 74
0
 40
0
 40
0
 40
0
 40
0
 40
1
 40
1
 40
1
 40
1
 10
45.125587
 20
60.146255
 30
0.0
 10
45.706583
 20
60.727253
 30
0.0
 10
46.494584
 20
61.053656
 30
0.0
 10
47.316239
 20
61.053659
 30
0.0
  0
SPLINE
  5
2cf
100
AcDbEntity
  8
Layer_1
 62
7
100
AcDbSpline
 70
8
 71
3
 72
8
 73
4
 74
0
 40
0
 40
0
 40
0
 40
0
 40
1
 40
1
 40
1
 40
1
 10
47.316239
 20
61.053659
 30
0.0
 10
48.137895
 20
61.053656
 30
0.0
 10
48.925898
 20
60.727253
 30
0.0
 10
49.506894
 20
60.146255
 30
0.0
  0
SPLINE
  5
2d0
100
AcDbEntity
  8
Layer_1
 62
7
100
AcDbSpline
 70
8
 71
3
 72
8
 73
4
 74
0
 40
0
 40
0
 40
0
 40
0
 40
1
 40
1
 40
1
 40
1
 10
49.506894
 20
60.146255
 30
0.0
 10
50.087892
 20
59.565256
 30
0.0
 10
50.414293
 20
58.777253
 30
0.0
 10
50.414290
 20
57.955597
 30
0.0
  0
SPLINE
  5
2d1
100
AcDbEntity
  8
Layer_1
 62
7
100
AcDbSpline
 70
8
 71
3
 72
8
 73
4
 74
0
 40
0
 40
0
 40
0
 40
0
 40
1
 40
1
 40
1
 40
1
 10
50.414290
 20
57.955597
 30
0.0
 10
50.414288
 20
56.244592
 30
0.0
 10
49.027244
 20
54.857551
 30
0.0
 10
47.316239
 20
54.857549
 30
0.0
  0
SPLINE
  5
2d2
100
AcDbEntity
  8
Layer_1
 62
7
100
AcDbSpline
 70
8
 71
3
 72
8
 73
4
 74
0
 40
0
 40
0
 40
0
 40
0
 40
1
 40
1
 40
1
 40
1
 10
47.316239
 20
54.857549
 30
0.0
 10
45.605234
 20
54.857551
 30
0.0
 10
44.218191
 20
56.244592
 30
0.0
 10
44.218191
 20
57.955597
 30
0.0
  0
LWPOLYLINE
  5
2d3
100
AcDbEntity
  8
Layer_1
 62
7
100
AcDbPolyline
 90
16
 70
0
 10
99.216610
 20
29.866028
 30
0.0
 10
99.216610
 20
9.866042
 30
0.0
 10
24.216510
 20
9.866042
 30
0.0
 10
24.216510
 20
29.866028
 30
0.0
 10
19.216510
 20
29.866028
 30
0.0
 10
19.216510
 20
189.866028
 30
0.0
 10
24.216510
 20
189.866028
 30
0.0
 10
24.216510
 20
209.866039
 30
0.0
 10
99.216610
 20
209.866039
 30
0.0
 10
99.216610
 20
189.866028
 30
0.0
 10
359.216510
 20
189.866028
 30
0.0
 10
359.216510
 20
209.866039
 30
0.0
 10
434.216307
 20
209.866039
 30
0.0
 10
434.216307
 20
189.866028
 30
0.0
 10
439.216297
 20
189.866028
 30
0.0
 10
439.216297
 20
29.866028
 30
0.0
  0
LWPOLYLINE
  5
2d4
100
AcDbEntity
  8
Layer_1
 62
7
100
AcDbPolyline
 90
6
 70
1
 10
202.468567
 20
594.790392
 30
0.0
 10
199.726000
 20
590.083137
 30
0.0
 10
194.234205
 20
590.079433
 30
0.0
 10
191.484980
 20
594.782878
 30
0.0
 10
194.227545
 20
599.490133
 30
0.0
 10
199.719343
 20
599.493837
 30
0.0
  0
LWPOLYLINE
  5
2d5
100
AcDbEntity
  8
Layer_1
 62
7
100
AcDbPolyline
 90
6
 70
1
 10
202.468567
 20
583.270380
 30
0.0
 10
199.726000
 20
578.563125
 30
0.0
 10
194.234205
 20
578.559421
 30
0.0
 10
191.484980
 20
583.262866
 30
0.0
 10
194.227545
 20
587.970121
 30
0.0
 10
199.719343
 20
587.973825
 30
0.0
  0
LWPOLYLINE
  5
2d6
100
AcDbEntity
  8
Layer_1
 62
7
100
AcDbPolyline
 90
6
 70
1
 10
202.468567
 20
571.750369
 30
0.0
 10
199.726000
 20
567.043114
 30
0.0
 10
194.234205
 20
567.039410
 30
0.0
 10
191.484980
 20
571.742855
 30
0.0
 10
194.227545
 20
576.450110
 30
0.0
 10
199.719343
 20
576.453814
 30
0.0
  0
LWPOLYLINE
  5
2d7
100
AcDbEntity
  8
Layer_1
 62
7
100
AcDbPolyline
 90
6
 70
1
 10
202.468567
 20
560.230384
 30
0.0
 10
199.726000
 20
555.523137
 30
0.0
 10
194.234205
 20
555.519274
 30
0.0
 10
191.484980
 20
560.222719
 30
0.0
 10
194.227545
 20
564.929966
 30
0.0
 10
199.719343
 20
564.933935
 30
0.0
  0
LWPOLYLINE
  5
2d8
100
AcDbEntity
  8
Layer_1
 62
7
100
AcDbPolyline
 90
6
 70
1
 10
212.772567
 20
600.550371
 30
0.0
 10
210.029999
 20
595.843116
 30
0.0
 10
204.538204
 20
595.839412
 30
0.0
 10
201.788980
 20
600.542857
 30
0.0
 10
204.531545
 20
605.250112
 30
0.0
 10
210.023342
 20
605.253816
 30
0.0
  0
LWPOLYLINE
  5
2d9
100
AcDbEntity
  8
Layer_1
 62
7
100
AcDbPolyline
 90
6
 70
1
 10
212.772567
 20
589.030386
 30
0.0
 10
210.029999
 20
584.323131
 30
0.0
 10
204.538204
 20
584.319162
 30
0.0
 10
201.788980
 20
589.022607
 30
0.0
 10
204.531545
 20
593.729862
 30
0.0
 10
210.023342
 20
593.733831
 30
0.0
  0
LWPOLYLINE
  5
2da
100
AcDbEntity
  8
Layer_1
 62
7
100
AcDbPolyline
 90
6
 70
1
 10
212.772567
 20
577.510375
 30
0.0
 10
210.029999
 20
572.803120
 30
0.0
 10
204.538204
 20
572.799151
 30
0.0
 10
201.788980
 20
577.502596
 30
0.0
 10
204.531545
 20
582.209851
 30
0.0
 10
210.023342
 20
582.213820
 30
0.0
  0
LWPOLYLINE
  5
2db
100
AcDbEntity
  8
Layer_1
 62
7
100
AcDbPolyline
 90
6
 70
1
 10
212.772567
 20
565.990364
 30
0.0
 10
210.029999
 20
561.283116
 30
0.0
 10
204.538204
 20
561.279254
 30
0.0
 10
201.788980
 20
565.982691
 30
0.0
 10
204.531545
 20
570.689946
 30
0.0
 10
210.023342
 20
570.693914
 30
0.0
  0
LWPOLYLINE
  5
2dc
100
AcDbEntity
  8
Layer_1
 62
7
100
AcDbPolyline
 90
6
 70
1
 10
212.772567
 20
554.470384
 30
0.0
 10
210.029999
 20
549.763137
 30
0.0
 10
204.538204
 20
549.759274
 30
0.0
 10
201.788980
 20
554.462719
 30
0.0
 10
204.531545
 20
559.169974
 30
0.0
 10
210.023342
 20
559.173837
 30
0.0
  0
LWPOLYLINE
  5
2dd
100
AcDbEntity
  8
Layer_1
 62
7
100
AcDbPolyline
 90
6
 70
1
 10
223.076566
 20
606.310376
 30
0.0
 10
220.333999
 20
601.603121
 30
0.0
 10
214.842204
 20
601.599153
 30
0.0
 10
212.092979
 20
606.302598
 30
0.0
 10
214.835544
 20
611.009853
 30
0.0
 10
220.327342
 20
611.013821
 30
0.0
  0
LWPOLYLINE
  5
2de
100
AcDbEntity
  8
Layer_1
 62
7
100
AcDbPolyline
 90
6
 70
1
 10
223.076566
 20
594.790392
 30
0.0
 10
220.333999
 20
590.083137
 30
0.0
 10
214.842204
 20
590.079433
 30
0.0
 10
212.092979
 20
594.782878
 30
0.0
 10
214.835544
 20
599.490133
 30
0.0
 10
220.327342
 20
599.493837
 30
0.0
  0
LWPOLYLINE
  5
2df
100
AcDbEntity
  8
Layer_1
 62
7
100
AcDbPolyline
 90
6
 70
1
 10
223.076566
 20
583.270380
 30
0.0
 10
220.333999
 20
578.563125
 30
0.0
 10
214.842204
 20
578.559421
 30
0.0
 10
212.092979
 20
583.262866
 30
0.0
 10
214.835544
 20
587.970121
 30
0.0
 10
220.327342
 20
587.973825
 30
0.0
  0
LWPOLYLINE
  5
2e0
100
AcDbEntity
  8
Layer_1
 62
7
100
AcDbPolyline
 90
6
 70
1
 10
223.076566
 20
571.750369
 30
0.0
 10
220.333999
 20
567.043114
 30
0.0
 10
214.842204
 20
567.039410
 30
0.0
 10
212.092979
 20
571.742855
 30
0.0
 10
214.835544
 20
576.450110
 30
0.0
 10
220.327342
 20
576.453814
 30
0.0
  0
LWPOLYLINE
  5
2e1
100
AcDbEntity
  8
Layer_1
 62
7
100
AcDbPolyline
 90
6
 70
1
 10
223.076566
 20
560.230384
 30
0.0
 10
220.333999
 20
555.523137
 30
0.0
 10
214.842204
 20
555.519274
 30
0.0
 10
212.092979
 20
560.222719
 30
0.0
 10
214.835544
 20
564.929966
 30
0.0
 10
220.327342
 20
564.933935
 30
0.0
  0
LWPOLYLINE
  5
2e2
100
AcDbEntity
  8
Layer_1
 62
7
100
AcDbPolyline
 90
6
 70
1
 10
223.076566
 20
548.710376
 30
0.0
 10
220.333999
 20
544.003126
 30
0.0
 10
214.842204
 20
543.999263
 30
0.0
 10
212.092979
 20
548.702711
 30
0.0
 10
214.835544
 20
553.409963
 30
0.0
 10
220.327342
 20
553.413826
 30
0.0
  0
LWPOLYLINE
  5
2e3
100
AcDbEntity
  8
Layer_1
 62
7
100
AcDbPolyline
 90
6
 70
1
 10
233.380587
 20
612.070382
 30
0.0
 10
230.638019
 20
607.363127
 30
0.0
 10
225.146224
 20
607.359158
 30
0.0
 10
222.397000
 20
612.062630
 30
0.0
 10
225.139565
 20
616.769858
 30
0.0
 10
230.631362
 20
616.773827
 30
0.0
  0
LWPOLYLINE
  5
2e4
100
AcDbEntity
  8
Layer_1
 62
7
100
AcDbPolyline
 90
6
 70
1
 10
233.380587
 20
600.550371
 30
0.0
 10
230.638019
 20
595.843116
 30
0.0
 10
225.146224
 20
595.839412
 30
0.0
 10
222.397000
 20
600.542857
 30
0.0
 10
225.139565
 20
605.250112
 30
0.0
 10
230.631362
 20
605.253816
 30
0.0
  0
LWPOLYLINE
  5
2e5
100
AcDbEntity
  8
Layer_1
 62
7
100
AcDbPolyline
 90
6
 70
1
 10
233.380587
 20
589.030386
 30
0.0
 10
230.638019
 20
584.323131
 30
0.0
 10
225.146224
 20
584.319162
 30
0.0
 10
222.397000
 20
589.022607
 30
0.0
 10
225.139565
 20
593.729862
 30
0.0
 10
230.631362
 20
593.733831
 30
0.0
  0
LWPOLYLINE
  5
2e6
100
AcDbEntity
  8
Layer_1
 62
7
100
AcDbPolyline
 90
6
 70
1
 10
233.380587
 20
577.510375
 30
0.0
 10
230.638019
 20
572.803120
 30
0.0
 10
225.146224
 20
572.799151
 30
0.0
 10
222.397000
 20
577.502596
 30
0.0
 10
225.139565
 20
582.209851
 30
0.0
 10
230.631362
 20
582.213820
 30
0.0
  0
LWPOLYLINE
  5
2e7
100
AcDbEntity
  8
Layer_1
 62
7
100
AcDbPolyline
 90
6
 70
1
 10
233.380587
 20
565.990364
 30
0.0
 10
230.638019
 20
561.283116
 30
0.0
 10
225.146224
 20
561.279254
 30
0.0
 10
222.397000
 20
565.982691
 30
0.0
 10
225.139565
 20
570.689946
 30
0.0
 10
230.631362
 20
570.693914
 30
0.0
  0
LWPOLYLINE
  5
2e8
100
AcDbEntity
  8
Layer_1
 62
7
100
AcDbPolyline
 90
6
 70
1
 10
233.380587
 20
554.470384
 30
0.0
 10
230.638019
 20
549.763137
 30
0.0
 10
225.146224
 20
549.759274
 30
0.0
 10
222.397000
 20
554.462719
 30
0.0
 10
225.139565
 20
559.169974
 30
0.0
 10
230.631362
 20
559.173837
 30
0.0
  0
LWPOLYLINE
  5
2e9
100
AcDbEntity
  8
Layer_1
 62
7
100
AcDbPolyline
 90
6
 70
1
 10
233.380587
 20
542.950365
 30
0.0
 10
230.638019
 20
538.243118
 30
0.0
 10
225.146224
 20
538.239255
 30
0.0
 10
222.397000
 20
542.942700
 30
0.0
 10
225.139565
 20
547.649955
 30
0.0
 10
230.631362
 20
547.653818
 30
0.0
  0
LWPOLYLINE
  5
2ea
100
AcDbEntity
  8
Layer_1
 62
7
100
AcDbPolyline
 90
6
 70
1
 10
243.684586
 20
606.310376
 30
0.0
 10
240.942021
 20
601.603121
 30
0.0
 10
235.450224
 20
601.599153
 30
0.0
 10
232.700999
 20
606.302598
 30
0.0
 10
235.443564
 20
611.009853
 30
0.0
 10
240.935362
 20
611.013821
 30
0.0
  0
LWPOLYLINE
  5
2eb
100
AcDbEntity
  8
Layer_1
 62
7
100
AcDbPolyline
 90
6
 70
1
 10
243.684586
 20
594.790392
 30
0.0
 10
240.942021
 20
590.083137
 30
0.0
 10
235.450224
 20
590.079433
 30
0.0
 10
232.700999
 20
594.782878
 30
0.0
 10
235.443564
 20
599.490133
 30
0.0
 10
240.935362
 20
599.493837
 30
0.0
  0
LWPOLYLINE
  5
2ec
100
AcDbEntity
  8
Layer_1
 62
7
100
AcDbPolyline
 90
6
 70
1
 10
243.684586
 20
583.270380
 30
0.0
 10
240.942021
 20
578.563125
 30
0.0
 10
235.450224
 20
578.559421
 30
0.0
 10
232.700999
 20
583.262866
 30
0.0
 10
235.443564
 20
587.970121
 30
0.0
 10
240.935362
 20
587.973825
 30
0.0
  0
LWPOLYLINE
  5
2ed
100
AcDbEntity
  8
Layer_1
 62
7
100
AcDbPolyline
 90
6
 70
1
 10
243.684586
 20
571.750369
 30
0.0
 10
240.942021
 20
567.043114
 30
0.0
 10
235.450224
 20
567.039410
 30
0.0
 10
232.700999
 20
571.742855
 30
0.0
 10
235.443564
 20
576.450110
 30
0.0
 10
240.935362
 20
576.453814
 30
0.0
  0
LWPOLYLINE
  5
2ee
100
AcDbEntity
  8
Layer_1
 62
7
100
AcDbPolyline
 90
6
 70
1
 10
243.684586
 20
560.230384
 30
0.0
 10
240.942021
 20
555.523137
 30
0.0
 10
235.450224
 20
555.519274
 30
0.0
 10
232.700999
 20
560.222719
 30
0.0
 10
235.443564
 20
564.929966
 30
0.0
 10
240.935362
 20
564.933935
 30
0.0
  0
LWPOLYLINE
  5
2ef
100
AcDbEntity
  8
Layer_1
 62
7
100
AcDbPolyline
 90
6
 70
1
 10
243.684586
 20
548.710376
 30
0.0
 10
240.942021
 20
544.003126
 30
0.0
 10
235.450224
 20
543.999263
 30
0.0
 10
232.700999
 20
548.702711
 30
0.0
 10
235.443564
 20
553.409963
 30
0.0
 10
240.935362
 20
553.413826
 30
0.0
  0
LWPOLYLINE
  5
2f0
100
AcDbEntity
  8
Layer_1
 62
7
100
AcDbPolyline
 90
6
 70
1
 10
253.988586
 20
600.550371
 30
0.0
 10
251.246021
 20
595.843116
 30
0.0
 10
245.754223
 20
595.839412
 30
0.0
 10
243.004999
 20
600.542857
 30
0.0
 10
245.747564
 20
605.250112
 30
0.0
 10
251.239361
 20
605.253816
 30
0.0
  0
LWPOLYLINE
  5
2f1
100
AcDbEntity
  8
Layer_1
 62
7
100
AcDbPolyline
 90
6
 70
1
 10
253.988586
 20
589.030386
 30
0.0
 10
251.246021
 20
584.323131
 30
0.0
 10
245.754223
 20
584.319162
 30
0.0
 10
243.004999
 20
589.022607
 30
0.0
 10
245.747564
 20
593.729862
 30
0.0
 10
251.239361
 20
593.733831
 30
0.0
  0
LWPOLYLINE
  5
2f2
100
AcDbEntity
  8
Layer_1
 62
7
100
AcDbPolyline
 90
6
 70
1
 10
253.988586
 20
577.510375
 30
0.0
 10
251.246021
 20
572.803120
 30
0.0
 10
245.754223
 20
572.799151
 30
0.0
 10
243.004999
 20
577.502596
 30
0.0
 10
245.747564
 20
582.209851
 30
0.0
 10
251.239361
 20
582.213820
 30
0.0
  0
LWPOLYLINE
  5
2f3
100
AcDbEntity
  8
Layer_1
 62
7
100
AcDbPolyline
 90
6
 70
1
 10
253.988586
 20
565.990364
 30
0.0
 10
251.246021
 20
561.283116
 30
0.0
 10
245.754223
 20
561.279254
 30
0.0
 10
243.004999
 20
565.982691
 30
0.0
 10
245.747564
 20
570.689946
 30
0.0
 10
251.239361
 20
570.693914
 30
0.0
  0
LWPOLYLINE
  5
2f4
100
AcDbEntity
  8
Layer_1
 62
7
100
AcDbPolyline
 90
6
 70
1
 10
253.988586
 20
554.470384
 30
0.0
 10
251.246021
 20
549.763137
 30
0.0
 10
245.754223
 20
549.759274
 30
0.0
 10
243.004999
 20
554.462719
 30
0.0
 10
245.747564
 20
559.169974
 30
0.0
 10
251.239361
 20
559.173837
 30
0.0
  0
LWPOLYLINE
  5
2f5
100
AcDbEntity
  8
Layer_1
 62
7
100
AcDbPolyline
 90
6
 70
1
 10
264.292485
 20
594.790392
 30
0.0
 10
261.549920
 20
590.083137
 30
0.0
 10
256.058125
 20
590.079433
 30
0.0
 10
253.308900
 20
594.782878
 30
0.0
 10
256.051465
 20
599.490133
 30
0.0
 10
261.543263
 20
599.493837
 30
0.0
  0
LWPOLYLINE
  5
2f6
100
AcDbEntity
  8
Layer_1
 62
7
100
AcDbPolyline
 90
6
 70
1
 10
264.292485
 20
583.270380
 30
0.0
 10
261.549920
 20
578.563125
 30
0.0
 10
256.058125
 20
578.559421
 30
0.0
 10
253.308900
 20
583.262866
 30
0.0
 10
256.051465
 20
587.970121
 30
0.0
 10
261.543263
 20
587.973825
 30
0.0
  0
LWPOLYLINE
  5
2f7
100
AcDbEntity
  8
Layer_1
 62
7
100
AcDbPolyline
 90
6
 70
1
 10
264.292485
 20
571.750369
 30
0.0
 10
261.549920
 20
567.043114
 30
0.0
 10
256.058125
 20
567.039410
 30
0.0
 10
253.308900
 20
571.742855
 30
0.0
 10
256.051465
 20
576.450110
 30
0.0
 10
261.543263
 20
576.453814
 30
0.0
  0
LWPOLYLINE
  5
2f8
100
AcDbEntity
  8
Layer_1
 62
7
100
AcDbPolyline
 90
6
 70
1
 10
264.292485
 20
560.230384
 30
0.0
 10
261.549920
 20
555.523137
 30
0.0
 10
256.058125
 20
555.519274
 30
0.0
 10
253.308900
 20
560.222719
 30
0.0
 10
256.051465
 20
564.929966
 30
0.0
 10
261.543263
 20
564.933935
 30
0.0
  0
ENDSEC
  0
SECTION
  2
OBJECTS
  0
DICTIONARY
  5
C
330
0
100
AcDbDictionary
  3
ACAD_GROUP
350
D
  3
ACAD_MLINESTYLE
350
17
  0
DICTIONARY
  5
D
330
C
100
AcDbDictionary
  0
DICTIONARY
  5
1A
330
C
100
AcDbDictionary
  0
DICTIONARY
  5
17
330
C
100
AcDbDictionary
  3
STANDARD
350
18
  0
DICTIONARY
  5
19
330
C
100
AcDbDictionary
  0
ENDSEC
  0
EOF
