  0
SECTION
  2
HEADER
  9
$ACADVER
  1
AC1014
  9
$HANDSEED
  5
FFFF
  9
$MEASUREMENT
 70
     1
  0
ENDSEC
  0
SECTION
  2
TABLES
  0
TABLE
  2
VPORT
  5
8
330
0
100
AcDbSymbolTable
 70
     4
  0
VPORT
  5
2E
330
8
100
AcDbSymbolTableRecord
100
AcDbViewportTableRecord
  2
*ACTIVE
 70
     0
 10
0.0
 20
0.0
 11
1.0
 21
1.0
 12
210.0
 22
148.5
 13
0.0
 23
0.0
 14
10.0
 24
10.0
 15
10.0
 25
10.0
 16
0.0
 26
0.0
 36
1.0
 17
0.0
 27
0.0
 37
0.0
 40
341.0
 41
1.24
 42
50.0
 43
0.0
 44
0.0
 50
0.0
 51
0.0
 71
     0
 72
   100
 73
     1
 74
     3
 75
     0
 76
     0
 77
     0
 78
     0
  0
ENDTAB
  0
TABLE
  2
LTYPE
  5
5
330
0
100
AcDbSymbolTable
 70
     1
  0
LTYPE
  5
14
330
5
100
AcDbSymbolTableRecord
100
AcDbLinetypeTableRecord
  2
BYBLOCK
 70
     0
  3

 72
    65
 73
     0
 40
0.0
  0
LTYPE
  5
15
330
5
100
AcDbSymbolTableRecord
100
AcDbLinetypeTableRecord
  2
BYLAYER
 70
     0
  3

 72
    65
 73
     0
 40
0.0
  0
LTYPE
  5
16
330
5
100
AcDbSymbolTableRecord
100
AcDbLinetypeTableRecord
  2
CONTINUOUS
 70
     0
  3
Solid line
 72
    65
 73
     0
 40
0.0
  0
ENDTAB
  0
TABLE
  2
LAYER
  5
2
100
AcDbSymbolTable
 70
2
  0
LAYER
  5
50
100
AcDbSymbolTableRecord
100
AcDbLayerTableRecord
  2
0
 70
0
  6
CONTINUOUS
  0
LAYER
  5
51
100
AcDbSymbolTableRecord
100
AcDbLayerTableRecord
  2
Layer_1
 70
0
  6
CONTINUOUS
  0
ENDTAB
  0
TABLE
  2
STYLE
  5
3
330
0
100
AcDbSymbolTable
 70
     1
  0
STYLE
  5
11
330
3
100
AcDbSymbolTableRecord
100
AcDbTextStyleTableRecord
  2
STANDARD
 70
     0
 40
0.0
 41
1.0
 50
0.0
 71
     0
 42
2.5
  3
txt
  4

  0
ENDTAB
  0
TABLE
  2
VIEW
  5
6
330
0
100
AcDbSymbolTable
 70
     0
  0
ENDTAB
  0
TABLE
  2
UCS
  5
7
330
0
100
AcDbSymbolTable
 70
     0
  0
ENDTAB
  0
TABLE
  2
APPID
  5
9
330
0
100
AcDbSymbolTable
 70
     2
  0
APPID
  5
12
330
9
100
AcDbSymbolTableRecord
100
AcDbRegAppTableRecord
  2
ACAD
 70
     0
  0
ENDTAB
  0
TABLE
  2
DIMSTYLE
  5
A
330
0
100
AcDbSymbolTable
 70
     1
  0
DIMSTYLE
105
27
330
A
100
AcDbSymbolTableRecord
100
AcDbDimStyleTableRecord
  2
ISO-25
 70
     0
  3

  4

  5

  6

  7

 40
1.0
 41
2.5
 42
0.625
 43
3.75
 44
1.25
 45
0.0
 46
0.0
 47
0.0
 48
0.0
140
2.5
141
2.5
142
0.0
143
0.03937007874016
144
1.0
145
0.0
146
1.0
147
0.625
 71
     0
 72
     0
 73
     0
 74
     0
 75
     0
 76
     0
 77
     1
 78
     8
170
     0
171
     3
172
     1
173
     0
174
     0
175
     0
176
     0
177
     0
178
     0
270
     2
271
     2
272
     2
273
     2
274
     3
340
11
275
     0
280
     0
281
     0
282
     0
283
     0
284
     8
285
     0
286
     0
287
     3
288
     0
  0
ENDTAB
  0
TABLE
  2
BLOCK_RECORD
  5
1
330
0
100
AcDbSymbolTable
 70
     1
  0
BLOCK_RECORD
  5
1F
330
1
100
AcDbSymbolTableRecord
100
AcDbBlockTableRecord
  2
*MODEL_SPACE
  0
BLOCK_RECORD
  5
1B
330
1
100
AcDbSymbolTableRecord
100
AcDbBlockTableRecord
  2
*PAPER_SPACE
  0
ENDTAB
  0
ENDSEC
  0
SECTION
  2
BLOCKS
  0
BLOCK
  5
20
330
1F
100
AcDbEntity
  8
0
100
AcDbBlockBegin
  2
*MODEL_SPACE
 70
     0
 10
0.0
 20
0.0
 30
0.0
  3
*MODEL_SPACE
  1

  0
ENDBLK
  5
21
330
1F
100
AcDbEntity
  8
0
100
AcDbBlockEnd
  0
BLOCK
  5
1C
330
1B
100
AcDbEntity
 67
     1
  8
0
100
AcDbBlockBegin
  2
*PAPER_SPACE
  1

  0
ENDBLK
  5
1D
330
1B
100
AcDbEntity
 67
     1
  8
0
100
AcDbBlockEnd
  0
ENDSEC
  0
SECTION
  2
ENTITIES
  0
SPLINE
  5
100
100
AcDbEntity
  8
Layer_1
 62
7
100
AcDbSpline
 70
8
 71
3
 72
8
 73
4
 74
0
 40
0
 40
0
 40
0
 40
0
 40
1
 40
1
 40
1
 40
1
 10
98.592780
 20
564.364970
 30
0.0
 10
97.934747
 20
563.805850
 30
0.0
 10
96.948281
 20
563.884880
 30
0.0
 10
96.387670
 20
564.541640
 30
0.0
  0
SPLINE
  5
101
100
AcDbEntity
  8
Layer_1
 62
7
100
AcDbSpline
 70
8
 71
3
 72
8
 73
4
 74
0
 40
0
 40
0
 40
0
 40
0
 40
1
 40
1
 40
1
 40
1
 10
96.387670
 20
564.541640
 30
0.0
 10
95.827061
 20
565.198400
 30
0.0
 10
95.903899
 20
566.185000
 30
0.0
 10
96.559430
 20
566.747050
 30
0.0
  0
SPLINE
  5
102
100
AcDbEntity
  8
Layer_1
 62
7
100
AcDbSpline
 70
8
 71
3
 72
8
 73
4
 74
0
 40
0
 40
0
 40
0
 40
0
 40
1
 40
1
 40
1
 40
1
 10
96.559430
 20
566.747050
 30
0.0
 10
97.214967
 20
567.309100
 30
0.0
 10
98.201780
 20
567.234460
 30
0.0
 10
98.769835
 20
566.574900
 30
0.0
  0
SPLINE
  5
103
100
AcDbEntity
  8
Layer_1
 62
7
100
AcDbSpline
 70
8
 71
3
 72
8
 73
4
 74
0
 40
0
 40
0
 40
0
 40
0
 40
1
 40
1
 40
1
 40
1
 10
98.769835
 20
566.574900
 30
0.0
 10
99.332043
 20
565.910350
 30
0.0
 10
99.250812
 20
564.924100
 30
0.0
 10
98.592780
 20
564.364970
 30
0.0
  0
LWPOLYLINE
  5
104
100
AcDbEntity
  8
Layer_1
 62
7
100
AcDbPolyline
 90
4
 70
1
 10
102.861470
 20
590.275740
 30
0.0
 10
132.296190
 20
590.275740
 30
0.0
 10
132.296190
 20
540.841030
 30
0.0
 10
102.861470
 20
540.841030
 30
0.0
  0
SPLINE
  5
105
100
AcDbEntity
  8
Layer_1
 62
7
100
AcDbSpline
 70
8
 71
3
 72
8
 73
4
 74
0
 40
0
 40
0
 40
0
 40
0
 40
1
 40
1
 40
1
 40
1
 10
138.592780
 20
564.364970
 30
0.0
 10
137.934750
 20
563.805850
 30
0.0
 10
136.948280
 20
563.884880
 30
0.0
 10
136.387670
 20
564.541640
 30
0.0
  0
SPLINE
  5
106
100
AcDbEntity
  8
Layer_1
 62
7
100
AcDbSpline
 70
8
 71
3
 72
8
 73
4
 74
0
 40
0
 40
0
 40
0
 40
0
 40
1
 40
1
 40
1
 40
1
 10
136.387670
 20
564.541640
 30
0.0
 10
135.827060
 20
565.198400
 30
0.0
 10
135.903900
 20
566.185000
 30
0.0
 10
136.559430
 20
566.747050
 30
0.0
  0
SPLINE
  5
107
100
AcDbEntity
  8
Layer_1
 62
7
100
AcDbSpline
 70
8
 71
3
 72
8
 73
4
 74
0
 40
0
 40
0
 40
0
 40
0
 40
1
 40
1
 40
1
 40
1
 10
136.559430
 20
566.747050
 30
0.0
 10
137.214970
 20
567.309100
 30
0.0
 10
138.201780
 20
567.234460
 30
0.0
 10
138.769840
 20
566.574900
 30
0.0
  0
SPLINE
  5
108
100
AcDbEntity
  8
Layer_1
 62
7
100
AcDbSpline
 70
8
 71
3
 72
8
 73
4
 74
0
 40
0
 40
0
 40
0
 40
0
 40
1
 40
1
 40
1
 40
1
 10
138.769840
 20
566.574900
 30
0.0
 10
139.332040
 20
565.910350
 30
0.0
 10
139.250810
 20
564.924100
 30
0.0
 10
138.592780
 20
564.364970
 30
0.0
  0
LWPOLYLINE
  5
109
100
AcDbEntity
  8
Layer_1
 62
7
100
AcDbPolyline
 90
1
 70
1
 10
98.592780
 20
564.364970
 30
0.0
  0
SPLINE
  5
10a
100
AcDbEntity
  8
Layer_1
 62
5
100
AcDbSpline
 70
8
 71
3
 72
8
 73
4
 74
0
 40
0
 40
0
 40
0
 40
0
 40
1
 40
1
 40
1
 40
1
 10
193.633370
 20
540.303290
 30
0.0
 10
192.705650
 20
539.514980
 30
0.0
 10
191.314880
 20
539.626410
 30
0.0
 10
190.524510
 20
540.552380
 30
0.0
  0
SPLINE
  5
10b
100
AcDbEntity
  8
Layer_1
 62
5
100
AcDbSpline
 70
8
 71
3
 72
8
 73
4
 74
0
 40
0
 40
0
 40
0
 40
0
 40
1
 40
1
 40
1
 40
1
 10
190.524510
 20
540.552380
 30
0.0
 10
189.734140
 20
541.478350
 30
0.0
 10
189.842470
 20
542.869360
 30
0.0
 10
190.766670
 20
543.661800
 30
0.0
  0
SPLINE
  5
10c
100
AcDbEntity
  8
Layer_1
 62
5
100
AcDbSpline
 70
8
 71
3
 72
8
 73
4
 74
0
 40
0
 40
0
 40
0
 40
0
 40
1
 40
1
 40
1
 40
1
 10
190.766670
 20
543.661800
 30
0.0
 10
191.690880
 20
544.454230
 30
0.0
 10
193.082120
 20
544.348990
 30
0.0
 10
193.882990
 20
543.419070
 30
0.0
  0
SPLINE
  5
10d
100
AcDbEntity
  8
Layer_1
 62
5
100
AcDbSpline
 70
8
 71
3
 72
8
 73
4
 74
0
 40
0
 40
0
 40
0
 40
0
 40
1
 40
1
 40
1
 40
1
 10
193.882990
 20
543.419070
 30
0.0
 10
194.675610
 20
542.482120
 30
0.0
 10
194.561090
 20
541.091600
 30
0.0
 10
193.633370
 20
540.303290
 30
0.0
  0
LWPOLYLINE
  5
10e
100
AcDbEntity
  8
Layer_1
 62
7
100
AcDbPolyline
 90
1
 70
1
 10
138.592780
 20
564.364970
 30
0.0
  0
SPLINE
  5
10f
100
AcDbEntity
  8
Layer_1
 62
5
100
AcDbSpline
 70
8
 71
3
 72
8
 73
4
 74
0
 40
0
 40
0
 40
0
 40
0
 40
1
 40
1
 40
1
 40
1
 10
193.633370
 20
611.803280
 30
0.0
 10
192.705650
 20
611.014970
 30
0.0
 10
191.314880
 20
611.126390
 30
0.0
 10
190.524510
 20
612.052360
 30
0.0
  0
SPLINE
  5
110
100
AcDbEntity
  8
Layer_1
 62
5
100
AcDbSpline
 70
8
 71
3
 72
8
 73
4
 74
0
 40
0
 40
0
 40
0
 40
0
 40
1
 40
1
 40
1
 40
1
 10
190.524510
 20
612.052360
 30
0.0
 10
189.734140
 20
612.978330
 30
0.0
 10
189.842470
 20
614.369340
 30
0.0
 10
190.766670
 20
615.161780
 30
0.0
  0
SPLINE
  5
111
100
AcDbEntity
  8
Layer_1
 62
5
100
AcDbSpline
 70
8
 71
3
 72
8
 73
4
 74
0
 40
0
 40
0
 40
0
 40
0
 40
1
 40
1
 40
1
 40
1
 10
190.766670
 20
615.161780
 30
0.0
 10
191.690870
 20
615.954220
 30
0.0
 10
193.082120
 20
615.848980
 30
0.0
 10
193.882990
 20
614.919060
 30
0.0
  0
SPLINE
  5
112
100
AcDbEntity
  8
Layer_1
 62
5
100
AcDbSpline
 70
8
 71
3
 72
8
 73
4
 74
0
 40
0
 40
0
 40
0
 40
0
 40
1
 40
1
 40
1
 40
1
 10
193.882990
 20
614.919060
 30
0.0
 10
194.675610
 20
613.982110
 30
0.0
 10
194.561090
 20
612.591590
 30
0.0
 10
193.633370
 20
611.803280
 30
0.0
  0
LWPOLYLINE
  5
113
100
AcDbEntity
  8
Layer_1
 62
5
100
AcDbPolyline
 90
1
 70
1
 10
193.633370
 20
540.303290
 30
0.0
  0
SPLINE
  5
114
100
AcDbEntity
  8
Layer_1
 62
5
100
AcDbSpline
 70
8
 71
3
 72
8
 73
4
 74
0
 40
0
 40
0
 40
0
 40
0
 40
1
 40
1
 40
1
 40
1
 10
265.133310
 20
611.803280
 30
0.0
 10
264.205590
 20
611.014970
 30
0.0
 10
262.814820
 20
611.126390
 30
0.0
 10
262.024450
 20
612.052360
 30
0.0
  0
SPLINE
  5
115
100
AcDbEntity
  8
Layer_1
 62
5
100
AcDbSpline
 70
8
 71
3
 72
8
 73
4
 74
0
 40
0
 40
0
 40
0
 40
0
 40
1
 40
1
 40
1
 40
1
 10
262.024450
 20
612.052360
 30
0.0
 10
261.234080
 20
612.978330
 30
0.0
 10
261.342410
 20
614.369340
 30
0.0
 10
262.266610
 20
615.161780
 30
0.0
  0
SPLINE
  5
116
100
AcDbEntity
  8
Layer_1
 62
5
100
AcDbSpline
 70
8
 71
3
 72
8
 73
4
 74
0
 40
0
 40
0
 40
0
 40
0
 40
1
 40
1
 40
1
 40
1
 10
262.266610
 20
615.161780
 30
0.0
 10
263.190810
 20
615.954220
 30
0.0
 10
264.582060
 20
615.848980
 30
0.0
 10
265.382930
 20
614.919060
 30
0.0
  0
SPLINE
  5
117
100
AcDbEntity
  8
Layer_1
 62
5
100
AcDbSpline
 70
8
 71
3
 72
8
 73
4
 74
0
 40
0
 40
0
 40
0
 40
0
 40
1
 40
1
 40
1
 40
1
 10
265.382930
 20
614.919060
 30
0.0
 10
266.175550
 20
613.982110
 30
0.0
 10
266.061030
 20
612.591590
 30
0.0
 10
265.133310
 20
611.803280
 30
0.0
  0
LWPOLYLINE
  5
118
100
AcDbEntity
  8
Layer_1
 62
5
100
AcDbPolyline
 90
1
 70
1
 10
193.633370
 20
611.803280
 30
0.0
  0
SPLINE
  5
119
100
AcDbEntity
  8
Layer_1
 62
5
100
AcDbSpline
 70
8
 71
3
 72
8
 73
4
 74
0
 40
0
 40
0
 40
0
 40
0
 40
1
 40
1
 40
1
 40
1
 10
265.133310
 20
540.303290
 30
0.0
 10
264.205590
 20
539.514980
 30
0.0
 10
262.814820
 20
539.626410
 30
0.0
 10
262.024450
 20
540.552380
 30
0.0
  0
SPLINE
  5
11a
100
AcDbEntity
  8
Layer_1
 62
5
100
AcDbSpline
 70
8
 71
3
 72
8
 73
4
 74
0
 40
0
 40
0
 40
0
 40
0
 40
1
 40
1
 40
1
 40
1
 10
262.024450
 20
540.552380
 30
0.0
 10
261.234080
 20
541.478350
 30
0.0
 10
261.342410
 20
542.869360
 30
0.0
 10
262.266610
 20
543.661800
 30
0.0
  0
SPLINE
  5
11b
100
AcDbEntity
  8
Layer_1
 62
5
100
AcDbSpline
 70
8
 71
3
 72
8
 73
4
 74
0
 40
0
 40
0
 40
0
 40
0
 40
1
 40
1
 40
1
 40
1
 10
262.266610
 20
543.661800
 30
0.0
 10
263.190820
 20
544.454230
 30
0.0
 10
264.582060
 20
544.348990
 30
0.0
 10
265.382930
 20
543.419070
 30
0.0
  0
SPLINE
  5
11c
100
AcDbEntity
  8
Layer_1
 62
5
100
AcDbSpline
 70
8
 71
3
 72
8
 73
4
 74
0
 40
0
 40
0
 40
0
 40
0
 40
1
 40
1
 40
1
 40
1
 10
265.382930
 20
543.419070
 30
0.0
 10
266.175550
 20
542.482120
 30
0.0
 10
266.061030
 20
541.091600
 30
0.0
 10
265.133310
 20
540.303290
 30
0.0
  0
LWPOLYLINE
  5
11d
100
AcDbEntity
  8
Layer_1
 62
5
100
AcDbPolyline
 90
1
 70
1
 10
265.133310
 20
611.803280
 30
0.0
  0
LWPOLYLINE
  5
11e
100
AcDbEntity
  8
Layer_1
 62
5
100
AcDbPolyline
 90
1
 70
1
 10
265.133310
 20
540.303290
 30
0.0
  0
SPLINE
  5
11f
100
AcDbEntity
  8
Layer_1
 62
7
100
AcDbSpline
 70
8
 71
3
 72
8
 73
4
 74
0
 40
0
 40
0
 40
0
 40
0
 40
1
 40
1
 40
1
 40
1
 10
379.788450
 20
563.180600
 30
0.0
 10
374.600290
 20
558.770600
 30
0.0
 10
366.822620
 20
559.393960
 30
0.0
 10
362.402570
 20
564.574030
 30
0.0
  0
SPLINE
  5
120
100
AcDbEntity
  8
Layer_1
 62
7
100
AcDbSpline
 70
8
 71
3
 72
8
 73
4
 74
0
 40
0
 40
0
 40
0
 40
0
 40
1
 40
1
 40
1
 40
1
 10
362.402570
 20
564.574030
 30
0.0
 10
357.982510
 20
569.754100
 30
0.0
 10
358.588350
 20
577.535740
 30
0.0
 10
363.756830
 20
581.968800
 30
0.0
  0
SPLINE
  5
121
100
AcDbEntity
  8
Layer_1
 62
7
100
AcDbSpline
 70
8
 71
3
 72
8
 73
4
 74
0
 40
0
 40
0
 40
0
 40
0
 40
1
 40
1
 40
1
 40
1
 10
363.756830
 20
581.968800
 30
0.0
 10
368.925310
 20
586.401860
 30
0.0
 10
376.705690
 20
585.813130
 30
0.0
 10
381.184430
 20
580.610980
 30
0.0
  0
SPLINE
  5
122
100
AcDbEntity
  8
Layer_1
 62
7
100
AcDbSpline
 70
8
 71
3
 72
8
 73
4
 74
0
 40
0
 40
0
 40
0
 40
0
 40
1
 40
1
 40
1
 40
1
 10
381.184430
 20
580.610980
 30
0.0
 10
385.617060
 20
575.369470
 30
0.0
 10
384.976610
 20
567.590600
 30
0.0
 10
379.788450
 20
563.180600
 30
0.0
  0
LWPOLYLINE
  5
123
100
AcDbEntity
  8
Layer_1
 62
7
100
AcDbPolyline
 90
4
 70
1
 10
18.129880
 20
624.259660
 30
0.0
 10
437.777730
 20
624.259660
 30
0.0
 10
437.777730
 20
535.611790
 30
0.0
 10
18.129880
 20
535.611790
 30
0.0
  0
SPLINE
  5
124
100
AcDbEntity
  8
Layer_1
 62
7
100
AcDbSpline
 70
8
 71
3
 72
8
 73
4
 74
0
 40
0
 40
0
 40
0
 40
0
 40
1
 40
1
 40
1
 40
1
 10
363.061300
 20
559.142280
 30
0.0
 10
362.401320
 20
558.581490
 30
0.0
 10
361.411930
 20
558.660760
 30
0.0
 10
360.849660
 20
559.319470
 30
0.0
  0
SPLINE
  5
125
100
AcDbEntity
  8
Layer_1
 62
7
100
AcDbSpline
 70
8
 71
3
 72
8
 73
4
 74
0
 40
0
 40
0
 40
0
 40
0
 40
1
 40
1
 40
1
 40
1
 10
360.849660
 20
559.319470
 30
0.0
 10
360.287390
 20
559.978180
 30
0.0
 10
360.364460
 20
560.967720
 30
0.0
 10
361.021940
 20
561.531440
 30
0.0
  0
SPLINE
  5
126
100
AcDbEntity
  8
Layer_1
 62
7
100
AcDbSpline
 70
8
 71
3
 72
8
 73
4
 74
0
 40
0
 40
0
 40
0
 40
0
 40
1
 40
1
 40
1
 40
1
 10
361.021940
 20
561.531440
 30
0.0
 10
361.679420
 20
562.095160
 30
0.0
 10
362.669150
 20
562.020290
 30
0.0
 10
363.238870
 20
561.358770
 30
0.0
  0
SPLINE
  5
127
100
AcDbEntity
  8
Layer_1
 62
7
100
AcDbSpline
 70
8
 71
3
 72
8
 73
4
 74
0
 40
0
 40
0
 40
0
 40
0
 40
1
 40
1
 40
1
 40
1
 10
363.238870
 20
561.358770
 30
0.0
 10
363.802740
 20
560.692250
 30
0.0
 10
363.721280
 20
559.703070
 30
0.0
 10
363.061300
 20
559.142280
 30
0.0
  0
LWPOLYLINE
  5
128
100
AcDbEntity
  8
Layer_1
 62
7
100
AcDbPolyline
 90
1
 70
1
 10
379.788450
 20
563.180600
 30
0.0
  0
SPLINE
  5
129
100
AcDbEntity
  8
Layer_1
 62
7
100
AcDbSpline
 70
8
 71
3
 72
8
 73
4
 74
0
 40
0
 40
0
 40
0
 40
0
 40
1
 40
1
 40
1
 40
1
 10
382.561360
 20
583.642610
 30
0.0
 10
381.901380
 20
583.081820
 30
0.0
 10
380.911990
 20
583.161090
 30
0.0
 10
380.349720
 20
583.819810
 30
0.0
  0
SPLINE
  5
12a
100
AcDbEntity
  8
Layer_1
 62
7
100
AcDbSpline
 70
8
 71
3
 72
8
 73
4
 74
0
 40
0
 40
0
 40
0
 40
0
 40
1
 40
1
 40
1
 40
1
 10
380.349720
 20
583.819810
 30
0.0
 10
379.787460
 20
584.478520
 30
0.0
 10
379.864530
 20
585.468050
 30
0.0
 10
380.522000
 20
586.031770
 30
0.0
  0
SPLINE
  5
12b
100
AcDbEntity
  8
Layer_1
 62
7
100
AcDbSpline
 70
8
 71
3
 72
8
 73
4
 74
0
 40
0
 40
0
 40
0
 40
0
 40
1
 40
1
 40
1
 40
1
 10
380.522000
 20
586.031770
 30
0.0
 10
381.179470
 20
586.595490
 30
0.0
 10
382.169200
 20
586.520630
 30
0.0
 10
382.738930
 20
585.859110
 30
0.0
  0
SPLINE
  5
12c
100
AcDbEntity
  8
Layer_1
 62
7
100
AcDbSpline
 70
8
 71
3
 72
8
 73
4
 74
0
 40
0
 40
0
 40
0
 40
0
 40
1
 40
1
 40
1
 40
1
 10
382.738930
 20
585.859110
 30
0.0
 10
383.302800
 20
585.192580
 30
0.0
 10
383.221340
 20
584.203400
 30
0.0
 10
382.561360
 20
583.642610
 30
0.0
  0
LWPOLYLINE
  5
12d
100
AcDbEntity
  8
Layer_1
 62
7
100
AcDbPolyline
 90
1
 70
1
 10
363.061300
 20
559.142280
 30
0.0
  0
SPLINE
  5
12e
100
AcDbEntity
  8
Layer_1
 62
7
100
AcDbSpline
 70
8
 71
3
 72
8
 73
4
 74
0
 40
0
 40
0
 40
0
 40
0
 40
1
 40
1
 40
1
 40
1
 10
408.788450
 20
563.180600
 30
0.0
 10
403.600290
 20
558.770600
 30
0.0
 10
395.822620
 20
559.393960
 30
0.0
 10
391.402570
 20
564.574030
 30
0.0
  0
SPLINE
  5
12f
100
AcDbEntity
  8
Layer_1
 62
7
100
AcDbSpline
 70
8
 71
3
 72
8
 73
4
 74
0
 40
0
 40
0
 40
0
 40
0
 40
1
 40
1
 40
1
 40
1
 10
391.402570
 20
564.574030
 30
0.0
 10
386.982510
 20
569.754100
 30
0.0
 10
387.588350
 20
577.535740
 30
0.0
 10
392.756830
 20
581.968800
 30
0.0
  0
SPLINE
  5
130
100
AcDbEntity
  8
Layer_1
 62
7
100
AcDbSpline
 70
8
 71
3
 72
8
 73
4
 74
0
 40
0
 40
0
 40
0
 40
0
 40
1
 40
1
 40
1
 40
1
 10
392.756830
 20
581.968800
 30
0.0
 10
397.925310
 20
586.401860
 30
0.0
 10
405.705690
 20
585.813130
 30
0.0
 10
410.184430
 20
580.610980
 30
0.0
  0
SPLINE
  5
131
100
AcDbEntity
  8
Layer_1
 62
7
100
AcDbSpline
 70
8
 71
3
 72
8
 73
4
 74
0
 40
0
 40
0
 40
0
 40
0
 40
1
 40
1
 40
1
 40
1
 10
410.184430
 20
580.610980
 30
0.0
 10
414.617060
 20
575.369470
 30
0.0
 10
413.976610
 20
567.590600
 30
0.0
 10
408.788450
 20
563.180600
 30
0.0
  0
LWPOLYLINE
  5
132
100
AcDbEntity
  8
Layer_1
 62
7
100
AcDbPolyline
 90
1
 70
1
 10
382.561360
 20
583.642610
 30
0.0
  0
SPLINE
  5
133
100
AcDbEntity
  8
Layer_1
 62
7
100
AcDbSpline
 70
8
 71
3
 72
8
 73
4
 74
0
 40
0
 40
0
 40
0
 40
0
 40
1
 40
1
 40
1
 40
1
 10
392.061300
 20
559.142280
 30
0.0
 10
391.401320
 20
558.581490
 30
0.0
 10
390.411930
 20
558.660760
 30
0.0
 10
389.849660
 20
559.319470
 30
0.0
  0
SPLINE
  5
134
100
AcDbEntity
  8
Layer_1
 62
7
100
AcDbSpline
 70
8
 71
3
 72
8
 73
4
 74
0
 40
0
 40
0
 40
0
 40
0
 40
1
 40
1
 40
1
 40
1
 10
389.849660
 20
559.319470
 30
0.0
 10
389.287390
 20
559.978180
 30
0.0
 10
389.364460
 20
560.967720
 30
0.0
 10
390.021940
 20
561.531440
 30
0.0
  0
SPLINE
  5
135
100
AcDbEntity
  8
Layer_1
 62
7
100
AcDbSpline
 70
8
 71
3
 72
8
 73
4
 74
0
 40
0
 40
0
 40
0
 40
0
 40
1
 40
1
 40
1
 40
1
 10
390.021940
 20
561.531440
 30
0.0
 10
390.679420
 20
562.095160
 30
0.0
 10
391.669150
 20
562.020290
 30
0.0
 10
392.238870
 20
561.358770
 30
0.0
  0
SPLINE
  5
136
100
AcDbEntity
  8
Layer_1
 62
7
100
AcDbSpline
 70
8
 71
3
 72
8
 73
4
 74
0
 40
0
 40
0
 40
0
 40
0
 40
1
 40
1
 40
1
 40
1
 10
392.238870
 20
561.358770
 30
0.0
 10
392.802740
 20
560.692250
 30
0.0
 10
392.721280
 20
559.703070
 30
0.0
 10
392.061300
 20
559.142280
 30
0.0
  0
LWPOLYLINE
  5
137
100
AcDbEntity
  8
Layer_1
 62
7
100
AcDbPolyline
 90
1
 70
1
 10
408.788450
 20
563.180600
 30
0.0
  0
SPLINE
  5
138
100
AcDbEntity
  8
Layer_1
 62
7
100
AcDbSpline
 70
8
 71
3
 72
8
 73
4
 74
0
 40
0
 40
0
 40
0
 40
0
 40
1
 40
1
 40
1
 40
1
 10
411.561360
 20
583.642610
 30
0.0
 10
410.901380
 20
583.081820
 30
0.0
 10
409.911990
 20
583.161090
 30
0.0
 10
409.349720
 20
583.819810
 30
0.0
  0
SPLINE
  5
139
100
AcDbEntity
  8
Layer_1
 62
7
100
AcDbSpline
 70
8
 71
3
 72
8
 73
4
 74
0
 40
0
 40
0
 40
0
 40
0
 40
1
 40
1
 40
1
 40
1
 10
409.349720
 20
583.819810
 30
0.0
 10
408.787460
 20
584.478520
 30
0.0
 10
408.864530
 20
585.468050
 30
0.0
 10
409.522000
 20
586.031770
 30
0.0
  0
SPLINE
  5
13a
100
AcDbEntity
  8
Layer_1
 62
7
100
AcDbSpline
 70
8
 71
3
 72
8
 73
4
 74
0
 40
0
 40
0
 40
0
 40
0
 40
1
 40
1
 40
1
 40
1
 10
409.522000
 20
586.031770
 30
0.0
 10
410.179470
 20
586.595490
 30
0.0
 10
411.169200
 20
586.520630
 30
0.0
 10
411.738940
 20
585.859110
 30
0.0
  0
SPLINE
  5
13b
100
AcDbEntity
  8
Layer_1
 62
7
100
AcDbSpline
 70
8
 71
3
 72
8
 73
4
 74
0
 40
0
 40
0
 40
0
 40
0
 40
1
 40
1
 40
1
 40
1
 10
411.738940
 20
585.859110
 30
0.0
 10
412.302800
 20
585.192580
 30
0.0
 10
412.221340
 20
584.203400
 30
0.0
 10
411.561360
 20
583.642610
 30
0.0
  0
LWPOLYLINE
  5
13c
100
AcDbEntity
  8
Layer_1
 62
7
100
AcDbPolyline
 90
1
 70
1
 10
392.061300
 20
559.142280
 30
0.0
  0
SPLINE
  5
13d
100
AcDbEntity
  8
Layer_1
 62
7
100
AcDbSpline
 70
8
 71
3
 72
8
 73
4
 74
0
 40
0
 40
0
 40
0
 40
0
 40
1
 40
1
 40
1
 40
1
 10
396.488380
 20
592.528070
 30
0.0
 10
394.743890
 20
591.045720
 30
0.0
 10
392.128690
 20
591.255250
 30
0.0
 10
390.642470
 20
592.996440
 30
0.0
  0
SPLINE
  5
13e
100
AcDbEntity
  8
Layer_1
 62
7
100
AcDbSpline
 70
8
 71
3
 72
8
 73
4
 74
0
 40
0
 40
0
 40
0
 40
0
 40
1
 40
1
 40
1
 40
1
 10
390.642470
 20
592.996440
 30
0.0
 10
389.156250
 20
594.737630
 30
0.0
 10
389.359960
 20
597.353300
 30
0.0
 10
391.097840
 20
598.843390
 30
0.0
  0
SPLINE
  5
13f
100
AcDbEntity
  8
Layer_1
 62
7
100
AcDbSpline
 70
8
 71
3
 72
8
 73
4
 74
0
 40
0
 40
0
 40
0
 40
0
 40
1
 40
1
 40
1
 40
1
 10
391.097840
 20
598.843390
 30
0.0
 10
392.835710
 20
600.333480
 30
0.0
 10
395.451820
 20
600.135590
 30
0.0
 10
396.957770
 20
598.386990
 30
0.0
  0
SPLINE
  5
140
100
AcDbEntity
  8
Layer_1
 62
7
100
AcDbSpline
 70
8
 71
3
 72
8
 73
4
 74
0
 40
0
 40
0
 40
0
 40
0
 40
1
 40
1
 40
1
 40
1
 10
396.957770
 20
598.386990
 30
0.0
 10
398.448220
 20
596.625140
 30
0.0
 10
398.232870
 20
594.010410
 30
0.0
 10
396.488380
 20
592.528070
 30
0.0
  0
LWPOLYLINE
  5
141
100
AcDbEntity
  8
Layer_1
 62
7
100
AcDbPolyline
 90
1
 70
1
 10
411.561360
 20
583.642610
 30
0.0
  0
SPLINE
  5
142
100
AcDbEntity
  8
Layer_1
 62
7
100
AcDbSpline
 70
8
 71
3
 72
8
 73
4
 74
0
 40
0
 40
0
 40
0
 40
0
 40
1
 40
1
 40
1
 40
1
 10
410.480020
 20
592.528070
 30
0.0
 10
408.735530
 20
591.045720
 30
0.0
 10
406.120330
 20
591.255250
 30
0.0
 10
404.634110
 20
592.996440
 30
0.0
  0
SPLINE
  5
143
100
AcDbEntity
  8
Layer_1
 62
7
100
AcDbSpline
 70
8
 71
3
 72
8
 73
4
 74
0
 40
0
 40
0
 40
0
 40
0
 40
1
 40
1
 40
1
 40
1
 10
404.634110
 20
592.996440
 30
0.0
 10
403.147890
 20
594.737630
 30
0.0
 10
403.351590
 20
597.353300
 30
0.0
 10
405.089470
 20
598.843390
 30
0.0
  0
SPLINE
  5
144
100
AcDbEntity
  8
Layer_1
 62
7
100
AcDbSpline
 70
8
 71
3
 72
8
 73
4
 74
0
 40
0
 40
0
 40
0
 40
0
 40
1
 40
1
 40
1
 40
1
 10
405.089470
 20
598.843390
 30
0.0
 10
406.827340
 20
600.333490
 30
0.0
 10
409.443460
 20
600.135600
 30
0.0
 10
410.949410
 20
598.386990
 30
0.0
  0
SPLINE
  5
145
100
AcDbEntity
  8
Layer_1
 62
7
100
AcDbSpline
 70
8
 71
3
 72
8
 73
4
 74
0
 40
0
 40
0
 40
0
 40
0
 40
1
 40
1
 40
1
 40
1
 10
410.949410
 20
598.386990
 30
0.0
 10
412.439860
 20
596.625140
 30
0.0
 10
412.224510
 20
594.010410
 30
0.0
 10
410.480020
 20
592.528070
 30
0.0
  0
LWPOLYLINE
  5
146
100
AcDbEntity
  8
Layer_1
 62
7
100
AcDbPolyline
 90
1
 70
1
 10
396.488380
 20
592.528070
 30
0.0
  0
SPLINE
  5
147
100
AcDbEntity
  8
Layer_1
 62
7
100
AcDbSpline
 70
8
 71
3
 72
8
 73
4
 74
0
 40
0
 40
0
 40
0
 40
0
 40
1
 40
1
 40
1
 40
1
 10
325.529260
 20
567.129770
 30
0.0
 10
321.416000
 20
563.634620
 30
0.0
 10
315.249730
 20
564.128660
 30
0.0
 10
311.745440
 20
568.234130
 30
0.0
  0
SPLINE
  5
148
100
AcDbEntity
  8
Layer_1
 62
7
100
AcDbSpline
 70
8
 71
3
 72
8
 73
4
 74
0
 40
0
 40
0
 40
0
 40
0
 40
1
 40
1
 40
1
 40
1
 10
311.745440
 20
568.234130
 30
0.0
 10
308.241150
 20
572.339600
 30
0.0
 10
308.721460
 20
578.506960
 30
0.0
 10
312.819120
 20
582.020380
 30
0.0
  0
SPLINE
  5
149
100
AcDbEntity
  8
Layer_1
 62
7
100
AcDbSpline
 70
8
 71
3
 72
8
 73
4
 74
0
 40
0
 40
0
 40
0
 40
0
 40
1
 40
1
 40
1
 40
1
 10
312.819120
 20
582.020380
 30
0.0
 10
316.916780
 20
585.533800
 30
0.0
 10
323.085190
 20
585.067210
 30
0.0
 10
326.636000
 20
580.944240
 30
0.0
  0
SPLINE
  5
14a
100
AcDbEntity
  8
Layer_1
 62
7
100
AcDbSpline
 70
8
 71
3
 72
8
 73
4
 74
0
 40
0
 40
0
 40
0
 40
0
 40
1
 40
1
 40
1
 40
1
 10
326.636000
 20
580.944240
 30
0.0
 10
330.150280
 20
576.790080
 30
0.0
 10
329.642520
 20
570.624920
 30
0.0
 10
325.529260
 20
567.129770
 30
0.0
  0
LWPOLYLINE
  5
14b
100
AcDbEntity
  8
Layer_1
 62
7
100
AcDbPolyline
 90
1
 70
1
 10
410.480020
 20
592.528070
 30
0.0
  0
SPLINE
  5
14c
100
AcDbEntity
  8
Layer_1
 62
7
100
AcDbSpline
 70
8
 71
3
 72
8
 73
4
 74
0
 40
0
 40
0
 40
0
 40
0
 40
1
 40
1
 40
1
 40
1
 10
320.228730
 20
586.867860
 30
0.0
 10
319.555240
 20
586.295590
 30
0.0
 10
318.545580
 20
586.376480
 30
0.0
 10
317.971800
 20
587.048680
 30
0.0
  0
SPLINE
  5
14d
100
AcDbEntity
  8
Layer_1
 62
7
100
AcDbSpline
 70
8
 71
3
 72
8
 73
4
 74
0
 40
0
 40
0
 40
0
 40
0
 40
1
 40
1
 40
1
 40
1
 10
317.971800
 20
587.048680
 30
0.0
 10
317.398020
 20
587.720880
 30
0.0
 10
317.476670
 20
588.730660
 30
0.0
 10
318.147610
 20
589.305920
 30
0.0
  0
SPLINE
  5
14e
100
AcDbEntity
  8
Layer_1
 62
7
100
AcDbSpline
 70
8
 71
3
 72
8
 73
4
 74
0
 40
0
 40
0
 40
0
 40
0
 40
1
 40
1
 40
1
 40
1
 10
318.147610
 20
589.305920
 30
0.0
 10
318.818550
 20
589.881170
 30
0.0
 10
319.828540
 20
589.804780
 30
0.0
 10
320.409950
 20
589.129720
 30
0.0
  0
SPLINE
  5
14f
100
AcDbEntity
  8
Layer_1
 62
7
100
AcDbSpline
 70
8
 71
3
 72
8
 73
4
 74
0
 40
0
 40
0
 40
0
 40
0
 40
1
 40
1
 40
1
 40
1
 10
320.409950
 20
589.129720
 30
0.0
 10
320.985370
 20
588.449560
 30
0.0
 10
320.902220
 20
587.440130
 30
0.0
 10
320.228730
 20
586.867860
 30
0.0
  0
LWPOLYLINE
  5
150
100
AcDbEntity
  8
Layer_1
 62
7
100
AcDbPolyline
 90
1
 70
1
 10
325.529260
 20
567.129770
 30
0.0
  0
SPLINE
  5
151
100
AcDbEntity
  8
Layer_1
 62
7
100
AcDbSpline
 70
8
 71
3
 72
8
 73
4
 74
0
 40
0
 40
0
 40
0
 40
0
 40
1
 40
1
 40
1
 40
1
 10
320.228730
 20
559.867840
 30
0.0
 10
319.555240
 20
559.295570
 30
0.0
 10
318.545580
 20
559.376460
 30
0.0
 10
317.971800
 20
560.048660
 30
0.0
  0
SPLINE
  5
152
100
AcDbEntity
  8
Layer_1
 62
7
100
AcDbSpline
 70
8
 71
3
 72
8
 73
4
 74
0
 40
0
 40
0
 40
0
 40
0
 40
1
 40
1
 40
1
 40
1
 10
317.971800
 20
560.048660
 30
0.0
 10
317.398020
 20
560.720860
 30
0.0
 10
317.476670
 20
561.730640
 30
0.0
 10
318.147610
 20
562.305900
 30
0.0
  0
SPLINE
  5
153
100
AcDbEntity
  8
Layer_1
 62
7
100
AcDbSpline
 70
8
 71
3
 72
8
 73
4
 74
0
 40
0
 40
0
 40
0
 40
0
 40
1
 40
1
 40
1
 40
1
 10
318.147610
 20
562.305900
 30
0.0
 10
318.818550
 20
562.881150
 30
0.0
 10
319.828540
 20
562.804760
 30
0.0
 10
320.409950
 20
562.129700
 30
0.0
  0
SPLINE
  5
154
100
AcDbEntity
  8
Layer_1
 62
7
100
AcDbSpline
 70
8
 71
3
 72
8
 73
4
 74
0
 40
0
 40
0
 40
0
 40
0
 40
1
 40
1
 40
1
 40
1
 10
320.409950
 20
562.129700
 30
0.0
 10
320.985370
 20
561.449540
 30
0.0
 10
320.902220
 20
560.440110
 30
0.0
 10
320.228730
 20
559.867840
 30
0.0
  0
LWPOLYLINE
  5
155
100
AcDbEntity
  8
Layer_1
 62
7
100
AcDbPolyline
 90
1
 70
1
 10
320.228730
 20
586.867860
 30
0.0
  0
SPLINE
  5
156
100
AcDbEntity
  8
Layer_1
 62
7
100
AcDbSpline
 70
8
 71
3
 72
8
 73
4
 74
0
 40
0
 40
0
 40
0
 40
0
 40
1
 40
1
 40
1
 40
1
 10
349.529260
 20
567.129770
 30
0.0
 10
345.416000
 20
563.634620
 30
0.0
 10
339.249730
 20
564.128660
 30
0.0
 10
335.745440
 20
568.234130
 30
0.0
  0
SPLINE
  5
157
100
AcDbEntity
  8
Layer_1
 62
7
100
AcDbSpline
 70
8
 71
3
 72
8
 73
4
 74
0
 40
0
 40
0
 40
0
 40
0
 40
1
 40
1
 40
1
 40
1
 10
335.745440
 20
568.234130
 30
0.0
 10
332.241150
 20
572.339600
 30
0.0
 10
332.721460
 20
578.506960
 30
0.0
 10
336.819120
 20
582.020380
 30
0.0
  0
SPLINE
  5
158
100
AcDbEntity
  8
Layer_1
 62
7
100
AcDbSpline
 70
8
 71
3
 72
8
 73
4
 74
0
 40
0
 40
0
 40
0
 40
0
 40
1
 40
1
 40
1
 40
1
 10
336.819120
 20
582.020380
 30
0.0
 10
340.916780
 20
585.533800
 30
0.0
 10
347.085190
 20
585.067210
 30
0.0
 10
350.636000
 20
580.944240
 30
0.0
  0
SPLINE
  5
159
100
AcDbEntity
  8
Layer_1
 62
7
100
AcDbSpline
 70
8
 71
3
 72
8
 73
4
 74
0
 40
0
 40
0
 40
0
 40
0
 40
1
 40
1
 40
1
 40
1
 10
350.636000
 20
580.944240
 30
0.0
 10
354.150280
 20
576.790080
 30
0.0
 10
353.642520
 20
570.624920
 30
0.0
 10
349.529260
 20
567.129770
 30
0.0
  0
LWPOLYLINE
  5
15a
100
AcDbEntity
  8
Layer_1
 62
7
100
AcDbPolyline
 90
1
 70
1
 10
320.228730
 20
559.867840
 30
0.0
  0
SPLINE
  5
15b
100
AcDbEntity
  8
Layer_1
 62
7
100
AcDbSpline
 70
8
 71
3
 72
8
 73
4
 74
0
 40
0
 40
0
 40
0
 40
0
 40
1
 40
1
 40
1
 40
1
 10
344.228730
 20
586.867860
 30
0.0
 10
343.555240
 20
586.295590
 30
0.0
 10
342.545580
 20
586.376480
 30
0.0
 10
341.971800
 20
587.048680
 30
0.0
  0
SPLINE
  5
15c
100
AcDbEntity
  8
Layer_1
 62
7
100
AcDbSpline
 70
8
 71
3
 72
8
 73
4
 74
0
 40
0
 40
0
 40
0
 40
0
 40
1
 40
1
 40
1
 40
1
 10
341.971800
 20
587.048680
 30
0.0
 10
341.398020
 20
587.720880
 30
0.0
 10
341.476670
 20
588.730660
 30
0.0
 10
342.147610
 20
589.305920
 30
0.0
  0
SPLINE
  5
15d
100
AcDbEntity
  8
Layer_1
 62
7
100
AcDbSpline
 70
8
 71
3
 72
8
 73
4
 74
0
 40
0
 40
0
 40
0
 40
0
 40
1
 40
1
 40
1
 40
1
 10
342.147610
 20
589.305920
 30
0.0
 10
342.818550
 20
589.881170
 30
0.0
 10
343.828540
 20
589.804780
 30
0.0
 10
344.409940
 20
589.129720
 30
0.0
  0
SPLINE
  5
15e
100
AcDbEntity
  8
Layer_1
 62
7
100
AcDbSpline
 70
8
 71
3
 72
8
 73
4
 74
0
 40
0
 40
0
 40
0
 40
0
 40
1
 40
1
 40
1
 40
1
 10
344.409940
 20
589.129720
 30
0.0
 10
344.985370
 20
588.449560
 30
0.0
 10
344.902220
 20
587.440130
 30
0.0
 10
344.228730
 20
586.867860
 30
0.0
  0
LWPOLYLINE
  5
15f
100
AcDbEntity
  8
Layer_1
 62
7
100
AcDbPolyline
 90
1
 70
1
 10
349.529260
 20
567.129770
 30
0.0
  0
SPLINE
  5
160
100
AcDbEntity
  8
Layer_1
 62
7
100
AcDbSpline
 70
8
 71
3
 72
8
 73
4
 74
0
 40
0
 40
0
 40
0
 40
0
 40
1
 40
1
 40
1
 40
1
 10
344.228730
 20
559.867840
 30
0.0
 10
343.555240
 20
559.295570
 30
0.0
 10
342.545580
 20
559.376460
 30
0.0
 10
341.971800
 20
560.048660
 30
0.0
  0
SPLINE
  5
161
100
AcDbEntity
  8
Layer_1
 62
7
100
AcDbSpline
 70
8
 71
3
 72
8
 73
4
 74
0
 40
0
 40
0
 40
0
 40
0
 40
1
 40
1
 40
1
 40
1
 10
341.971800
 20
560.048660
 30
0.0
 10
341.398020
 20
560.720860
 30
0.0
 10
341.476670
 20
561.730640
 30
0.0
 10
342.147610
 20
562.305900
 30
0.0
  0
SPLINE
  5
162
100
AcDbEntity
  8
Layer_1
 62
7
100
AcDbSpline
 70
8
 71
3
 72
8
 73
4
 74
0
 40
0
 40
0
 40
0
 40
0
 40
1
 40
1
 40
1
 40
1
 10
342.147610
 20
562.305900
 30
0.0
 10
342.818550
 20
562.881150
 30
0.0
 10
343.828540
 20
562.804760
 30
0.0
 10
344.409940
 20
562.129700
 30
0.0
  0
SPLINE
  5
163
100
AcDbEntity
  8
Layer_1
 62
7
100
AcDbSpline
 70
8
 71
3
 72
8
 73
4
 74
0
 40
0
 40
0
 40
0
 40
0
 40
1
 40
1
 40
1
 40
1
 10
344.409940
 20
562.129700
 30
0.0
 10
344.985370
 20
561.449540
 30
0.0
 10
344.902220
 20
560.440110
 30
0.0
 10
344.228730
 20
559.867840
 30
0.0
  0
LWPOLYLINE
  5
164
100
AcDbEntity
  8
Layer_1
 62
7
100
AcDbPolyline
 90
1
 70
1
 10
344.228730
 20
586.867860
 30
0.0
  0
SPLINE
  5
165
100
AcDbEntity
  8
Layer_1
 62
7
100
AcDbSpline
 70
8
 71
3
 72
8
 73
4
 74
0
 40
0
 40
0
 40
0
 40
0
 40
1
 40
1
 40
1
 40
1
 10
322.741180
 20
595.130960
 30
0.0
 10
320.556970
 20
593.275390
 30
0.0
 10
317.282560
 20
593.537660
 30
0.0
 10
315.421710
 20
595.717250
 30
0.0
  0
SPLINE
  5
166
100
AcDbEntity
  8
Layer_1
 62
7
100
AcDbSpline
 70
8
 71
3
 72
8
 73
4
 74
0
 40
0
 40
0
 40
0
 40
0
 40
1
 40
1
 40
1
 40
1
 10
315.421710
 20
595.717250
 30
0.0
 10
313.560870
 20
597.896850
 30
0.0
 10
313.815930
 20
601.171080
 30
0.0
 10
315.991870
 20
603.036350
 30
0.0
  0
SPLINE
  5
167
100
AcDbEntity
  8
Layer_1
 62
7
100
AcDbSpline
 70
8
 71
3
 72
8
 73
4
 74
0
 40
0
 40
0
 40
0
 40
0
 40
1
 40
1
 40
1
 40
1
 10
315.991870
 20
603.036350
 30
0.0
 10
318.167800
 20
604.901620
 30
0.0
 10
321.443330
 20
604.653910
 30
0.0
 10
323.328880
 20
602.465030
 30
0.0
  0
SPLINE
  5
168
100
AcDbEntity
  8
Layer_1
 62
7
100
AcDbSpline
 70
8
 71
3
 72
8
 73
4
 74
0
 40
0
 40
0
 40
0
 40
0
 40
1
 40
1
 40
1
 40
1
 10
323.328880
 20
602.465030
 30
0.0
 10
325.195030
 20
600.259590
 30
0.0
 10
324.925390
 20
596.986530
 30
0.0
 10
322.741180
 20
595.130960
 30
0.0
  0
LWPOLYLINE
  5
169
100
AcDbEntity
  8
Layer_1
 62
7
100
AcDbPolyline
 90
1
 70
1
 10
344.228730
 20
559.867840
 30
0.0
  0
SPLINE
  5
16a
100
AcDbEntity
  8
Layer_1
 62
7
100
AcDbSpline
 70
8
 71
3
 72
8
 73
4
 74
0
 40
0
 40
0
 40
0
 40
0
 40
1
 40
1
 40
1
 40
1
 10
346.741180
 20
595.130960
 30
0.0
 10
344.556970
 20
593.275390
 30
0.0
 10
341.282560
 20
593.537660
 30
0.0
 10
339.421710
 20
595.717250
 30
0.0
  0
SPLINE
  5
16b
100
AcDbEntity
  8
Layer_1
 62
7
100
AcDbSpline
 70
8
 71
3
 72
8
 73
4
 74
0
 40
0
 40
0
 40
0
 40
0
 40
1
 40
1
 40
1
 40
1
 10
339.421710
 20
595.717250
 30
0.0
 10
337.560870
 20
597.896850
 30
0.0
 10
337.815930
 20
601.171080
 30
0.0
 10
339.991870
 20
603.036350
 30
0.0
  0
SPLINE
  5
16c
100
AcDbEntity
  8
Layer_1
 62
7
100
AcDbSpline
 70
8
 71
3
 72
8
 73
4
 74
0
 40
0
 40
0
 40
0
 40
0
 40
1
 40
1
 40
1
 40
1
 10
339.991870
 20
603.036350
 30
0.0
 10
342.167800
 20
604.901620
 30
0.0
 10
345.443330
 20
604.653900
 30
0.0
 10
347.328880
 20
602.465030
 30
0.0
  0
SPLINE
  5
16d
100
AcDbEntity
  8
Layer_1
 62
7
100
AcDbSpline
 70
8
 71
3
 72
8
 73
4
 74
0
 40
0
 40
0
 40
0
 40
0
 40
1
 40
1
 40
1
 40
1
 10
347.328880
 20
602.465030
 30
0.0
 10
349.195030
 20
600.259590
 30
0.0
 10
348.925390
 20
596.986530
 30
0.0
 10
346.741180
 20
595.130960
 30
0.0
  0
LWPOLYLINE
  5
16e
100
AcDbEntity
  8
Layer_1
 62
7
100
AcDbPolyline
 90
1
 70
1
 10
322.741180
 20
595.130960
 30
0.0
  0
SPLINE
  5
16f
100
AcDbEntity
  8
Layer_1
 62
7
100
AcDbSpline
 70
8
 71
3
 72
8
 73
4
 74
0
 40
0
 40
0
 40
0
 40
0
 40
1
 40
1
 40
1
 40
1
 10
367.457980
 20
592.528070
 30
0.0
 10
365.713490
 20
591.045730
 30
0.0
 10
363.098300
 20
591.255260
 30
0.0
 10
361.612080
 20
592.996440
 30
0.0
  0
SPLINE
  5
170
100
AcDbEntity
  8
Layer_1
 62
7
100
AcDbSpline
 70
8
 71
3
 72
8
 73
4
 74
0
 40
0
 40
0
 40
0
 40
0
 40
1
 40
1
 40
1
 40
1
 10
361.612080
 20
592.996440
 30
0.0
 10
360.125860
 20
594.737630
 30
0.0
 10
360.329560
 20
597.353300
 30
0.0
 10
362.067440
 20
598.843390
 30
0.0
  0
SPLINE
  5
171
100
AcDbEntity
  8
Layer_1
 62
7
100
AcDbSpline
 70
8
 71
3
 72
8
 73
4
 74
0
 40
0
 40
0
 40
0
 40
0
 40
1
 40
1
 40
1
 40
1
 10
362.067440
 20
598.843390
 30
0.0
 10
363.805310
 20
600.333480
 30
0.0
 10
366.421420
 20
600.135590
 30
0.0
 10
367.927370
 20
598.386990
 30
0.0
  0
SPLINE
  5
172
100
AcDbEntity
  8
Layer_1
 62
7
100
AcDbSpline
 70
8
 71
3
 72
8
 73
4
 74
0
 40
0
 40
0
 40
0
 40
0
 40
1
 40
1
 40
1
 40
1
 10
367.927370
 20
598.386990
 30
0.0
 10
369.417820
 20
596.625140
 30
0.0
 10
369.202470
 20
594.010410
 30
0.0
 10
367.457980
 20
592.528070
 30
0.0
  0
LWPOLYLINE
  5
173
100
AcDbEntity
  8
Layer_1
 62
7
100
AcDbPolyline
 90
1
 70
1
 10
346.741180
 20
595.130960
 30
0.0
  0
SPLINE
  5
174
100
AcDbEntity
  8
Layer_1
 62
7
100
AcDbSpline
 70
8
 71
3
 72
8
 73
4
 74
0
 40
0
 40
0
 40
0
 40
0
 40
1
 40
1
 40
1
 40
1
 10
381.449560
 20
592.528070
 30
0.0
 10
379.705070
 20
591.045720
 30
0.0
 10
377.089870
 20
591.255250
 30
0.0
 10
375.603650
 20
592.996440
 30
0.0
  0
SPLINE
  5
175
100
AcDbEntity
  8
Layer_1
 62
7
100
AcDbSpline
 70
8
 71
3
 72
8
 73
4
 74
0
 40
0
 40
0
 40
0
 40
0
 40
1
 40
1
 40
1
 40
1
 10
375.603650
 20
592.996440
 30
0.0
 10
374.117430
 20
594.737630
 30
0.0
 10
374.321140
 20
597.353300
 30
0.0
 10
376.059020
 20
598.843390
 30
0.0
  0
SPLINE
  5
176
100
AcDbEntity
  8
Layer_1
 62
7
100
AcDbSpline
 70
8
 71
3
 72
8
 73
4
 74
0
 40
0
 40
0
 40
0
 40
0
 40
1
 40
1
 40
1
 40
1
 10
376.059020
 20
598.843390
 30
0.0
 10
377.796890
 20
600.333480
 30
0.0
 10
380.413000
 20
600.135590
 30
0.0
 10
381.918950
 20
598.386990
 30
0.0
  0
SPLINE
  5
177
100
AcDbEntity
  8
Layer_1
 62
7
100
AcDbSpline
 70
8
 71
3
 72
8
 73
4
 74
0
 40
0
 40
0
 40
0
 40
0
 40
1
 40
1
 40
1
 40
1
 10
381.918950
 20
598.386990
 30
0.0
 10
383.409400
 20
596.625140
 30
0.0
 10
383.194050
 20
594.010410
 30
0.0
 10
381.449560
 20
592.528070
 30
0.0
  0
LWPOLYLINE
  5
178
100
AcDbEntity
  8
Layer_1
 62
7
100
AcDbPolyline
 90
1
 70
1
 10
367.457980
 20
592.528070
 30
0.0
  0
SPLINE
  5
179
100
AcDbEntity
  8
Layer_1
 62
7
100
AcDbSpline
 70
8
 71
3
 72
8
 73
4
 74
0
 40
0
 40
0
 40
0
 40
0
 40
1
 40
1
 40
1
 40
1
 10
32.805020
 20
551.092970
 30
0.0
 10
32.805020
 20
550.515244
 30
0.0
 10
32.575519
 20
549.961179
 30
0.0
 10
32.167005
 20
549.552665
 30
0.0
  0
SPLINE
  5
17a
100
AcDbEntity
  8
Layer_1
 62
7
100
AcDbSpline
 70
8
 71
3
 72
8
 73
4
 74
0
 40
0
 40
0
 40
0
 40
0
 40
1
 40
1
 40
1
 40
1
 10
32.167005
 20
549.552665
 30
0.0
 10
31.758491
 20
549.144151
 30
0.0
 10
31.204426
 20
548.914650
 30
0.0
 10
30.626700
 20
548.914650
 30
0.0
  0
SPLINE
  5
17b
100
AcDbEntity
  8
Layer_1
 62
7
100
AcDbSpline
 70
8
 71
3
 72
8
 73
4
 74
0
 40
0
 40
0
 40
0
 40
0
 40
1
 40
1
 40
1
 40
1
 10
30.626700
 20
548.914650
 30
0.0
 10
30.048974
 20
548.914650
 30
0.0
 10
29.494909
 20
549.144151
 30
0.0
 10
29.086395
 20
549.552665
 30
0.0
  0
SPLINE
  5
17c
100
AcDbEntity
  8
Layer_1
 62
7
100
AcDbSpline
 70
8
 71
3
 72
8
 73
4
 74
0
 40
0
 40
0
 40
0
 40
0
 40
1
 40
1
 40
1
 40
1
 10
29.086395
 20
549.552665
 30
0.0
 10
28.677881
 20
549.961179
 30
0.0
 10
28.448380
 20
550.515244
 30
0.0
 10
28.448380
 20
551.092970
 30
0.0
  0
SPLINE
  5
17d
100
AcDbEntity
  8
Layer_1
 62
7
100
AcDbSpline
 70
8
 71
3
 72
8
 73
4
 74
0
 40
0
 40
0
 40
0
 40
0
 40
1
 40
1
 40
1
 40
1
 10
28.448380
 20
551.092970
 30
0.0
 10
28.448380
 20
551.670696
 30
0.0
 10
28.677881
 20
552.224761
 30
0.0
 10
29.086395
 20
552.633275
 30
0.0
  0
SPLINE
  5
17e
100
AcDbEntity
  8
Layer_1
 62
7
100
AcDbSpline
 70
8
 71
3
 72
8
 73
4
 74
0
 40
0
 40
0
 40
0
 40
0
 40
1
 40
1
 40
1
 40
1
 10
29.086395
 20
552.633275
 30
0.0
 10
29.494909
 20
553.041789
 30
0.0
 10
30.048974
 20
553.271290
 30
0.0
 10
30.626700
 20
553.271290
 30
0.0
  0
SPLINE
  5
17f
100
AcDbEntity
  8
Layer_1
 62
7
100
AcDbSpline
 70
8
 71
3
 72
8
 73
4
 74
0
 40
0
 40
0
 40
0
 40
0
 40
1
 40
1
 40
1
 40
1
 10
30.626700
 20
553.271290
 30
0.0
 10
31.204426
 20
553.271290
 30
0.0
 10
31.758491
 20
553.041789
 30
0.0
 10
32.167005
 20
552.633275
 30
0.0
  0
SPLINE
  5
180
100
AcDbEntity
  8
Layer_1
 62
7
100
AcDbSpline
 70
8
 71
3
 72
8
 73
4
 74
0
 40
0
 40
0
 40
0
 40
0
 40
1
 40
1
 40
1
 40
1
 10
32.167005
 20
552.633275
 30
0.0
 10
32.575519
 20
552.224761
 30
0.0
 10
32.805020
 20
551.670696
 30
0.0
 10
32.805020
 20
551.092970
 30
0.0
  0
LWPOLYLINE
  5
181
100
AcDbEntity
  8
Layer_1
 62
7
100
AcDbPolyline
 90
1
 70
1
 10
381.449560
 20
592.528070
 30
0.0
  0
SPLINE
  5
182
100
AcDbEntity
  8
Layer_1
 62
7
100
AcDbSpline
 70
8
 71
3
 72
8
 73
4
 74
0
 40
0
 40
0
 40
0
 40
0
 40
1
 40
1
 40
1
 40
1
 10
32.805020
 20
608.752950
 30
0.0
 10
32.805020
 20
608.175224
 30
0.0
 10
32.575519
 20
607.621159
 30
0.0
 10
32.167005
 20
607.212645
 30
0.0
  0
SPLINE
  5
183
100
AcDbEntity
  8
Layer_1
 62
7
100
AcDbSpline
 70
8
 71
3
 72
8
 73
4
 74
0
 40
0
 40
0
 40
0
 40
0
 40
1
 40
1
 40
1
 40
1
 10
32.167005
 20
607.212645
 30
0.0
 10
31.758491
 20
606.804131
 30
0.0
 10
31.204426
 20
606.574630
 30
0.0
 10
30.626700
 20
606.574630
 30
0.0
  0
SPLINE
  5
184
100
AcDbEntity
  8
Layer_1
 62
7
100
AcDbSpline
 70
8
 71
3
 72
8
 73
4
 74
0
 40
0
 40
0
 40
0
 40
0
 40
1
 40
1
 40
1
 40
1
 10
30.626700
 20
606.574630
 30
0.0
 10
30.048974
 20
606.574630
 30
0.0
 10
29.494909
 20
606.804131
 30
0.0
 10
29.086395
 20
607.212645
 30
0.0
  0
SPLINE
  5
185
100
AcDbEntity
  8
Layer_1
 62
7
100
AcDbSpline
 70
8
 71
3
 72
8
 73
4
 74
0
 40
0
 40
0
 40
0
 40
0
 40
1
 40
1
 40
1
 40
1
 10
29.086395
 20
607.212645
 30
0.0
 10
28.677881
 20
607.621159
 30
0.0
 10
28.448380
 20
608.175224
 30
0.0
 10
28.448380
 20
608.752950
 30
0.0
  0
SPLINE
  5
186
100
AcDbEntity
  8
Layer_1
 62
7
100
AcDbSpline
 70
8
 71
3
 72
8
 73
4
 74
0
 40
0
 40
0
 40
0
 40
0
 40
1
 40
1
 40
1
 40
1
 10
28.448380
 20
608.752950
 30
0.0
 10
28.448380
 20
609.330676
 30
0.0
 10
28.677881
 20
609.884741
 30
0.0
 10
29.086395
 20
610.293255
 30
0.0
  0
SPLINE
  5
187
100
AcDbEntity
  8
Layer_1
 62
7
100
AcDbSpline
 70
8
 71
3
 72
8
 73
4
 74
0
 40
0
 40
0
 40
0
 40
0
 40
1
 40
1
 40
1
 40
1
 10
29.086395
 20
610.293255
 30
0.0
 10
29.494909
 20
610.701769
 30
0.0
 10
30.048974
 20
610.931270
 30
0.0
 10
30.626700
 20
610.931270
 30
0.0
  0
SPLINE
  5
188
100
AcDbEntity
  8
Layer_1
 62
7
100
AcDbSpline
 70
8
 71
3
 72
8
 73
4
 74
0
 40
0
 40
0
 40
0
 40
0
 40
1
 40
1
 40
1
 40
1
 10
30.626700
 20
610.931270
 30
0.0
 10
31.204426
 20
610.931270
 30
0.0
 10
31.758491
 20
610.701769
 30
0.0
 10
32.167005
 20
610.293255
 30
0.0
  0
SPLINE
  5
189
100
AcDbEntity
  8
Layer_1
 62
7
100
AcDbSpline
 70
8
 71
3
 72
8
 73
4
 74
0
 40
0
 40
0
 40
0
 40
0
 40
1
 40
1
 40
1
 40
1
 10
32.167005
 20
610.293255
 30
0.0
 10
32.575519
 20
609.884741
 30
0.0
 10
32.805020
 20
609.330676
 30
0.0
 10
32.805020
 20
608.752950
 30
0.0
  0
LWPOLYLINE
  5
18a
100
AcDbEntity
  8
Layer_1
 62
7
100
AcDbPolyline
 90
1
 70
1
 10
32.805020
 20
551.092970
 30
0.0
  0
SPLINE
  5
18b
100
AcDbEntity
  8
Layer_1
 62
7
100
AcDbSpline
 70
8
 71
3
 72
8
 73
4
 74
0
 40
0
 40
0
 40
0
 40
0
 40
1
 40
1
 40
1
 40
1
 10
427.465030
 20
551.092970
 30
0.0
 10
427.465030
 20
550.515244
 30
0.0
 10
427.235529
 20
549.961179
 30
0.0
 10
426.827015
 20
549.552665
 30
0.0
  0
SPLINE
  5
18c
100
AcDbEntity
  8
Layer_1
 62
7
100
AcDbSpline
 70
8
 71
3
 72
8
 73
4
 74
0
 40
0
 40
0
 40
0
 40
0
 40
1
 40
1
 40
1
 40
1
 10
426.827015
 20
549.552665
 30
0.0
 10
426.418501
 20
549.144151
 30
0.0
 10
425.864436
 20
548.914650
 30
0.0
 10
425.286710
 20
548.914650
 30
0.0
  0
SPLINE
  5
18d
100
AcDbEntity
  8
Layer_1
 62
7
100
AcDbSpline
 70
8
 71
3
 72
8
 73
4
 74
0
 40
0
 40
0
 40
0
 40
0
 40
1
 40
1
 40
1
 40
1
 10
425.286710
 20
548.914650
 30
0.0
 10
424.708984
 20
548.914650
 30
0.0
 10
424.154919
 20
549.144151
 30
0.0
 10
423.746405
 20
549.552665
 30
0.0
  0
SPLINE
  5
18e
100
AcDbEntity
  8
Layer_1
 62
7
100
AcDbSpline
 70
8
 71
3
 72
8
 73
4
 74
0
 40
0
 40
0
 40
0
 40
0
 40
1
 40
1
 40
1
 40
1
 10
423.746405
 20
549.552665
 30
0.0
 10
423.337891
 20
549.961179
 30
0.0
 10
423.108390
 20
550.515244
 30
0.0
 10
423.108390
 20
551.092970
 30
0.0
  0
SPLINE
  5
18f
100
AcDbEntity
  8
Layer_1
 62
7
100
AcDbSpline
 70
8
 71
3
 72
8
 73
4
 74
0
 40
0
 40
0
 40
0
 40
0
 40
1
 40
1
 40
1
 40
1
 10
423.108390
 20
551.092970
 30
0.0
 10
423.108390
 20
551.670696
 30
0.0
 10
423.337891
 20
552.224761
 30
0.0
 10
423.746405
 20
552.633275
 30
0.0
  0
SPLINE
  5
190
100
AcDbEntity
  8
Layer_1
 62
7
100
AcDbSpline
 70
8
 71
3
 72
8
 73
4
 74
0
 40
0
 40
0
 40
0
 40
0
 40
1
 40
1
 40
1
 40
1
 10
423.746405
 20
552.633275
 30
0.0
 10
424.154919
 20
553.041789
 30
0.0
 10
424.708984
 20
553.271290
 30
0.0
 10
425.286710
 20
553.271290
 30
0.0
  0
SPLINE
  5
191
100
AcDbEntity
  8
Layer_1
 62
7
100
AcDbSpline
 70
8
 71
3
 72
8
 73
4
 74
0
 40
0
 40
0
 40
0
 40
0
 40
1
 40
1
 40
1
 40
1
 10
425.286710
 20
553.271290
 30
0.0
 10
425.864436
 20
553.271290
 30
0.0
 10
426.418501
 20
553.041789
 30
0.0
 10
426.827015
 20
552.633275
 30
0.0
  0
SPLINE
  5
192
100
AcDbEntity
  8
Layer_1
 62
7
100
AcDbSpline
 70
8
 71
3
 72
8
 73
4
 74
0
 40
0
 40
0
 40
0
 40
0
 40
1
 40
1
 40
1
 40
1
 10
426.827015
 20
552.633275
 30
0.0
 10
427.235529
 20
552.224761
 30
0.0
 10
427.465030
 20
551.670696
 30
0.0
 10
427.465030
 20
551.092970
 30
0.0
  0
LWPOLYLINE
  5
193
100
AcDbEntity
  8
Layer_1
 62
7
100
AcDbPolyline
 90
1
 70
1
 10
32.805020
 20
608.752950
 30
0.0
  0
SPLINE
  5
194
100
AcDbEntity
  8
Layer_1
 62
7
100
AcDbSpline
 70
8
 71
3
 72
8
 73
4
 74
0
 40
0
 40
0
 40
0
 40
0
 40
1
 40
1
 40
1
 40
1
 10
427.465030
 20
608.752950
 30
0.0
 10
427.465030
 20
608.175224
 30
0.0
 10
427.235529
 20
607.621159
 30
0.0
 10
426.827015
 20
607.212645
 30
0.0
  0
SPLINE
  5
195
100
AcDbEntity
  8
Layer_1
 62
7
100
AcDbSpline
 70
8
 71
3
 72
8
 73
4
 74
0
 40
0
 40
0
 40
0
 40
0
 40
1
 40
1
 40
1
 40
1
 10
426.827015
 20
607.212645
 30
0.0
 10
426.418501
 20
606.804131
 30
0.0
 10
425.864436
 20
606.574630
 30
0.0
 10
425.286710
 20
606.574630
 30
0.0
  0
SPLINE
  5
196
100
AcDbEntity
  8
Layer_1
 62
7
100
AcDbSpline
 70
8
 71
3
 72
8
 73
4
 74
0
 40
0
 40
0
 40
0
 40
0
 40
1
 40
1
 40
1
 40
1
 10
425.286710
 20
606.574630
 30
0.0
 10
424.708984
 20
606.574630
 30
0.0
 10
424.154919
 20
606.804131
 30
0.0
 10
423.746405
 20
607.212645
 30
0.0
  0
SPLINE
  5
197
100
AcDbEntity
  8
Layer_1
 62
7
100
AcDbSpline
 70
8
 71
3
 72
8
 73
4
 74
0
 40
0
 40
0
 40
0
 40
0
 40
1
 40
1
 40
1
 40
1
 10
423.746405
 20
607.212645
 30
0.0
 10
423.337891
 20
607.621159
 30
0.0
 10
423.108390
 20
608.175224
 30
0.0
 10
423.108390
 20
608.752950
 30
0.0
  0
SPLINE
  5
198
100
AcDbEntity
  8
Layer_1
 62
7
100
AcDbSpline
 70
8
 71
3
 72
8
 73
4
 74
0
 40
0
 40
0
 40
0
 40
0
 40
1
 40
1
 40
1
 40
1
 10
423.108390
 20
608.752950
 30
0.0
 10
423.108390
 20
609.330676
 30
0.0
 10
423.337891
 20
609.884741
 30
0.0
 10
423.746405
 20
610.293255
 30
0.0
  0
SPLINE
  5
199
100
AcDbEntity
  8
Layer_1
 62
7
100
AcDbSpline
 70
8
 71
3
 72
8
 73
4
 74
0
 40
0
 40
0
 40
0
 40
0
 40
1
 40
1
 40
1
 40
1
 10
423.746405
 20
610.293255
 30
0.0
 10
424.154919
 20
610.701769
 30
0.0
 10
424.708984
 20
610.931270
 30
0.0
 10
425.286710
 20
610.931270
 30
0.0
  0
SPLINE
  5
19a
100
AcDbEntity
  8
Layer_1
 62
7
100
AcDbSpline
 70
8
 71
3
 72
8
 73
4
 74
0
 40
0
 40
0
 40
0
 40
0
 40
1
 40
1
 40
1
 40
1
 10
425.286710
 20
610.931270
 30
0.0
 10
425.864436
 20
610.931270
 30
0.0
 10
426.418501
 20
610.701769
 30
0.0
 10
426.827015
 20
610.293255
 30
0.0
  0
SPLINE
  5
19b
100
AcDbEntity
  8
Layer_1
 62
7
100
AcDbSpline
 70
8
 71
3
 72
8
 73
4
 74
0
 40
0
 40
0
 40
0
 40
0
 40
1
 40
1
 40
1
 40
1
 10
426.827015
 20
610.293255
 30
0.0
 10
427.235529
 20
609.884741
 30
0.0
 10
427.465030
 20
609.330676
 30
0.0
 10
427.465030
 20
608.752950
 30
0.0
  0
LWPOLYLINE
  5
19c
100
AcDbEntity
  8
Layer_1
 62
7
100
AcDbPolyline
 90
1
 70
1
 10
427.465030
 20
551.092970
 30
0.0
  0
LWPOLYLINE
  5
19d
100
AcDbEntity
  8
Layer_1
 62
7
100
AcDbPolyline
 90
1
 70
1
 10
427.465030
 20
608.752950
 30
0.0
  0
LWPOLYLINE
  5
19e
100
AcDbEntity
  8
Layer_1
 62
7
100
AcDbPolyline
 90
4
 70
1
 10
15.174140
 20
525.108360
 30
0.0
 10
434.742930
 20
525.108360
 30
0.0
 10
434.742930
 20
436.539570
 30
0.0
 10
15.174140
 20
436.539570
 30
0.0
  0
SPLINE
  5
19f
100
AcDbEntity
  8
Layer_1
 62
7
100
AcDbSpline
 70
8
 71
3
 72
8
 73
4
 74
0
 40
0
 40
0
 40
0
 40
0
 40
1
 40
1
 40
1
 40
1
 10
378.786990
 20
480.918000
 30
0.0
 10
378.786994
 20
479.609928
 30
0.0
 10
378.267365
 20
478.355430
 30
0.0
 10
377.342418
 20
477.430484
 30
0.0
  0
SPLINE
  5
1a0
100
AcDbEntity
  8
Layer_1
 62
7
100
AcDbSpline
 70
8
 71
3
 72
8
 73
4
 74
0
 40
0
 40
0
 40
0
 40
0
 40
1
 40
1
 40
1
 40
1
 10
377.342418
 20
477.430484
 30
0.0
 10
376.417470
 20
476.505539
 30
0.0
 10
375.162972
 20
475.985913
 30
0.0
 10
373.854900
 20
475.985920
 30
0.0
  0
SPLINE
  5
1a1
100
AcDbEntity
  8
Layer_1
 62
7
100
AcDbSpline
 70
8
 71
3
 72
8
 73
4
 74
0
 40
0
 40
0
 40
0
 40
0
 40
1
 40
1
 40
1
 40
1
 10
373.854900
 20
475.985920
 30
0.0
 10
372.546832
 20
475.985918
 30
0.0
 10
371.292339
 20
476.505546
 30
0.0
 10
370.367395
 20
477.430491
 30
0.0
  0
SPLINE
  5
1a2
100
AcDbEntity
  8
Layer_1
 62
7
100
AcDbSpline
 70
8
 71
3
 72
8
 73
4
 74
0
 40
0
 40
0
 40
0
 40
0
 40
1
 40
1
 40
1
 40
1
 10
370.367395
 20
477.430491
 30
0.0
 10
369.442452
 20
478.355436
 30
0.0
 10
368.922826
 20
479.609931
 30
0.0
 10
368.922830
 20
480.918000
 30
0.0
  0
SPLINE
  5
1a3
100
AcDbEntity
  8
Layer_1
 62
7
100
AcDbSpline
 70
8
 71
3
 72
8
 73
4
 74
0
 40
0
 40
0
 40
0
 40
0
 40
1
 40
1
 40
1
 40
1
 10
368.922830
 20
480.918000
 30
0.0
 10
368.922829
 20
482.226067
 30
0.0
 10
369.442456
 20
483.480559
 30
0.0
 10
370.367399
 20
484.405502
 30
0.0
  0
SPLINE
  5
1a4
100
AcDbEntity
  8
Layer_1
 62
7
100
AcDbSpline
 70
8
 71
3
 72
8
 73
4
 74
0
 40
0
 40
0
 40
0
 40
0
 40
1
 40
1
 40
1
 40
1
 10
370.367399
 20
484.405502
 30
0.0
 10
371.292342
 20
485.330445
 30
0.0
 10
372.546834
 20
485.850072
 30
0.0
 10
373.854900
 20
485.850070
 30
0.0
  0
SPLINE
  5
1a5
100
AcDbEntity
  8
Layer_1
 62
7
100
AcDbSpline
 70
8
 71
3
 72
8
 73
4
 74
0
 40
0
 40
0
 40
0
 40
0
 40
1
 40
1
 40
1
 40
1
 10
373.854900
 20
485.850070
 30
0.0
 10
375.162970
 20
485.850077
 30
0.0
 10
376.417467
 20
485.330453
 30
0.0
 10
377.342414
 20
484.405509
 30
0.0
  0
SPLINE
  5
1a6
100
AcDbEntity
  8
Layer_1
 62
7
100
AcDbSpline
 70
8
 71
3
 72
8
 73
4
 74
0
 40
0
 40
0
 40
0
 40
0
 40
1
 40
1
 40
1
 40
1
 10
377.342414
 20
484.405509
 30
0.0
 10
378.267361
 20
483.480566
 30
0.0
 10
378.786991
 20
482.226071
 30
0.0
 10
378.786990
 20
480.918000
 30
0.0
  0
LWPOLYLINE
  5
1a7
100
AcDbEntity
  8
Layer_1
 62
5
100
AcDbPolyline
 90
4
 70
1
 10
185.557280
 20
469.154530
 30
0.0
 10
114.218370
 20
469.154530
 30
0.0
 10
114.218370
 20
493.493450
 30
0.0
 10
185.557280
 20
493.493450
 30
0.0
  0
SPLINE
  5
1a8
100
AcDbEntity
  8
Layer_1
 62
7
100
AcDbSpline
 70
8
 71
3
 72
8
 73
4
 74
0
 40
0
 40
0
 40
0
 40
0
 40
1
 40
1
 40
1
 40
1
 10
29.849840
 20
452.021230
 30
0.0
 10
29.849840
 20
451.443504
 30
0.0
 10
29.620339
 20
450.889439
 30
0.0
 10
29.211825
 20
450.480925
 30
0.0
  0
SPLINE
  5
1a9
100
AcDbEntity
  8
Layer_1
 62
7
100
AcDbSpline
 70
8
 71
3
 72
8
 73
4
 74
0
 40
0
 40
0
 40
0
 40
0
 40
1
 40
1
 40
1
 40
1
 10
29.211825
 20
450.480925
 30
0.0
 10
28.803311
 20
450.072411
 30
0.0
 10
28.249246
 20
449.842910
 30
0.0
 10
27.671520
 20
449.842910
 30
0.0
  0
SPLINE
  5
1aa
100
AcDbEntity
  8
Layer_1
 62
7
100
AcDbSpline
 70
8
 71
3
 72
8
 73
4
 74
0
 40
0
 40
0
 40
0
 40
0
 40
1
 40
1
 40
1
 40
1
 10
27.671520
 20
449.842910
 30
0.0
 10
27.093794
 20
449.842910
 30
0.0
 10
26.539729
 20
450.072411
 30
0.0
 10
26.131215
 20
450.480925
 30
0.0
  0
SPLINE
  5
1ab
100
AcDbEntity
  8
Layer_1
 62
7
100
AcDbSpline
 70
8
 71
3
 72
8
 73
4
 74
0
 40
0
 40
0
 40
0
 40
0
 40
1
 40
1
 40
1
 40
1
 10
26.131215
 20
450.480925
 30
0.0
 10
25.722701
 20
450.889439
 30
0.0
 10
25.493200
 20
451.443504
 30
0.0
 10
25.493200
 20
452.021230
 30
0.0
  0
SPLINE
  5
1ac
100
AcDbEntity
  8
Layer_1
 62
7
100
AcDbSpline
 70
8
 71
3
 72
8
 73
4
 74
0
 40
0
 40
0
 40
0
 40
0
 40
1
 40
1
 40
1
 40
1
 10
25.493200
 20
452.021230
 30
0.0
 10
25.493200
 20
452.598956
 30
0.0
 10
25.722701
 20
453.153021
 30
0.0
 10
26.131215
 20
453.561535
 30
0.0
  0
SPLINE
  5
1ad
100
AcDbEntity
  8
Layer_1
 62
7
100
AcDbSpline
 70
8
 71
3
 72
8
 73
4
 74
0
 40
0
 40
0
 40
0
 40
0
 40
1
 40
1
 40
1
 40
1
 10
26.131215
 20
453.561535
 30
0.0
 10
26.539729
 20
453.970049
 30
0.0
 10
27.093794
 20
454.199550
 30
0.0
 10
27.671520
 20
454.199550
 30
0.0
  0
SPLINE
  5
1ae
100
AcDbEntity
  8
Layer_1
 62
7
100
AcDbSpline
 70
8
 71
3
 72
8
 73
4
 74
0
 40
0
 40
0
 40
0
 40
0
 40
1
 40
1
 40
1
 40
1
 10
27.671520
 20
454.199550
 30
0.0
 10
28.249246
 20
454.199550
 30
0.0
 10
28.803311
 20
453.970049
 30
0.0
 10
29.211825
 20
453.561535
 30
0.0
  0
SPLINE
  5
1af
100
AcDbEntity
  8
Layer_1
 62
7
100
AcDbSpline
 70
8
 71
3
 72
8
 73
4
 74
0
 40
0
 40
0
 40
0
 40
0
 40
1
 40
1
 40
1
 40
1
 10
29.211825
 20
453.561535
 30
0.0
 10
29.620339
 20
453.153021
 30
0.0
 10
29.849840
 20
452.598956
 30
0.0
 10
29.849840
 20
452.021230
 30
0.0
  0
LWPOLYLINE
  5
1b0
100
AcDbEntity
  8
Layer_1
 62
7
100
AcDbPolyline
 90
1
 70
1
 10
378.786990
 20
480.918000
 30
0.0
  0
SPLINE
  5
1b1
100
AcDbEntity
  8
Layer_1
 62
7
100
AcDbSpline
 70
8
 71
3
 72
8
 73
4
 74
0
 40
0
 40
0
 40
0
 40
0
 40
1
 40
1
 40
1
 40
1
 10
29.849840
 20
509.601220
 30
0.0
 10
29.849840
 20
509.023494
 30
0.0
 10
29.620339
 20
508.469429
 30
0.0
 10
29.211825
 20
508.060915
 30
0.0
  0
SPLINE
  5
1b2
100
AcDbEntity
  8
Layer_1
 62
7
100
AcDbSpline
 70
8
 71
3
 72
8
 73
4
 74
0
 40
0
 40
0
 40
0
 40
0
 40
1
 40
1
 40
1
 40
1
 10
29.211825
 20
508.060915
 30
0.0
 10
28.803311
 20
507.652401
 30
0.0
 10
28.249246
 20
507.422900
 30
0.0
 10
27.671520
 20
507.422900
 30
0.0
  0
SPLINE
  5
1b3
100
AcDbEntity
  8
Layer_1
 62
7
100
AcDbSpline
 70
8
 71
3
 72
8
 73
4
 74
0
 40
0
 40
0
 40
0
 40
0
 40
1
 40
1
 40
1
 40
1
 10
27.671520
 20
507.422900
 30
0.0
 10
27.093794
 20
507.422900
 30
0.0
 10
26.539729
 20
507.652401
 30
0.0
 10
26.131215
 20
508.060915
 30
0.0
  0
SPLINE
  5
1b4
100
AcDbEntity
  8
Layer_1
 62
7
100
AcDbSpline
 70
8
 71
3
 72
8
 73
4
 74
0
 40
0
 40
0
 40
0
 40
0
 40
1
 40
1
 40
1
 40
1
 10
26.131215
 20
508.060915
 30
0.0
 10
25.722701
 20
508.469429
 30
0.0
 10
25.493200
 20
509.023494
 30
0.0
 10
25.493200
 20
509.601220
 30
0.0
  0
SPLINE
  5
1b5
100
AcDbEntity
  8
Layer_1
 62
7
100
AcDbSpline
 70
8
 71
3
 72
8
 73
4
 74
0
 40
0
 40
0
 40
0
 40
0
 40
1
 40
1
 40
1
 40
1
 10
25.493200
 20
509.601220
 30
0.0
 10
25.493200
 20
510.178946
 30
0.0
 10
25.722701
 20
510.733011
 30
0.0
 10
26.131215
 20
511.141525
 30
0.0
  0
SPLINE
  5
1b6
100
AcDbEntity
  8
Layer_1
 62
7
100
AcDbSpline
 70
8
 71
3
 72
8
 73
4
 74
0
 40
0
 40
0
 40
0
 40
0
 40
1
 40
1
 40
1
 40
1
 10
26.131215
 20
511.141525
 30
0.0
 10
26.539729
 20
511.550039
 30
0.0
 10
27.093794
 20
511.779540
 30
0.0
 10
27.671520
 20
511.779540
 30
0.0
  0
SPLINE
  5
1b7
100
AcDbEntity
  8
Layer_1
 62
7
100
AcDbSpline
 70
8
 71
3
 72
8
 73
4
 74
0
 40
0
 40
0
 40
0
 40
0
 40
1
 40
1
 40
1
 40
1
 10
27.671520
 20
511.779540
 30
0.0
 10
28.249246
 20
511.779540
 30
0.0
 10
28.803311
 20
511.550039
 30
0.0
 10
29.211825
 20
511.141525
 30
0.0
  0
SPLINE
  5
1b8
100
AcDbEntity
  8
Layer_1
 62
7
100
AcDbSpline
 70
8
 71
3
 72
8
 73
4
 74
0
 40
0
 40
0
 40
0
 40
0
 40
1
 40
1
 40
1
 40
1
 10
29.211825
 20
511.141525
 30
0.0
 10
29.620339
 20
510.733011
 30
0.0
 10
29.849840
 20
510.178946
 30
0.0
 10
29.849840
 20
509.601220
 30
0.0
  0
LWPOLYLINE
  5
1b9
100
AcDbEntity
  8
Layer_1
 62
7
100
AcDbPolyline
 90
1
 70
1
 10
29.849840
 20
452.021230
 30
0.0
  0
SPLINE
  5
1ba
100
AcDbEntity
  8
Layer_1
 62
7
100
AcDbSpline
 70
8
 71
3
 72
8
 73
4
 74
0
 40
0
 40
0
 40
0
 40
0
 40
1
 40
1
 40
1
 40
1
 10
424.429840
 20
452.021230
 30
0.0
 10
424.429840
 20
451.443504
 30
0.0
 10
424.200339
 20
450.889439
 30
0.0
 10
423.791825
 20
450.480925
 30
0.0
  0
SPLINE
  5
1bb
100
AcDbEntity
  8
Layer_1
 62
7
100
AcDbSpline
 70
8
 71
3
 72
8
 73
4
 74
0
 40
0
 40
0
 40
0
 40
0
 40
1
 40
1
 40
1
 40
1
 10
423.791825
 20
450.480925
 30
0.0
 10
423.383311
 20
450.072411
 30
0.0
 10
422.829246
 20
449.842910
 30
0.0
 10
422.251520
 20
449.842910
 30
0.0
  0
SPLINE
  5
1bc
100
AcDbEntity
  8
Layer_1
 62
7
100
AcDbSpline
 70
8
 71
3
 72
8
 73
4
 74
0
 40
0
 40
0
 40
0
 40
0
 40
1
 40
1
 40
1
 40
1
 10
422.251520
 20
449.842910
 30
0.0
 10
421.673794
 20
449.842910
 30
0.0
 10
421.119729
 20
450.072411
 30
0.0
 10
420.711215
 20
450.480925
 30
0.0
  0
SPLINE
  5
1bd
100
AcDbEntity
  8
Layer_1
 62
7
100
AcDbSpline
 70
8
 71
3
 72
8
 73
4
 74
0
 40
0
 40
0
 40
0
 40
0
 40
1
 40
1
 40
1
 40
1
 10
420.711215
 20
450.480925
 30
0.0
 10
420.302701
 20
450.889439
 30
0.0
 10
420.073200
 20
451.443504
 30
0.0
 10
420.073200
 20
452.021230
 30
0.0
  0
SPLINE
  5
1be
100
AcDbEntity
  8
Layer_1
 62
7
100
AcDbSpline
 70
8
 71
3
 72
8
 73
4
 74
0
 40
0
 40
0
 40
0
 40
0
 40
1
 40
1
 40
1
 40
1
 10
420.073200
 20
452.021230
 30
0.0
 10
420.073200
 20
452.598956
 30
0.0
 10
420.302701
 20
453.153021
 30
0.0
 10
420.711215
 20
453.561535
 30
0.0
  0
SPLINE
  5
1bf
100
AcDbEntity
  8
Layer_1
 62
7
100
AcDbSpline
 70
8
 71
3
 72
8
 73
4
 74
0
 40
0
 40
0
 40
0
 40
0
 40
1
 40
1
 40
1
 40
1
 10
420.711215
 20
453.561535
 30
0.0
 10
421.119729
 20
453.970049
 30
0.0
 10
421.673794
 20
454.199550
 30
0.0
 10
422.251520
 20
454.199550
 30
0.0
  0
SPLINE
  5
1c0
100
AcDbEntity
  8
Layer_1
 62
7
100
AcDbSpline
 70
8
 71
3
 72
8
 73
4
 74
0
 40
0
 40
0
 40
0
 40
0
 40
1
 40
1
 40
1
 40
1
 10
422.251520
 20
454.199550
 30
0.0
 10
422.829246
 20
454.199550
 30
0.0
 10
423.383311
 20
453.970049
 30
0.0
 10
423.791825
 20
453.561535
 30
0.0
  0
SPLINE
  5
1c1
100
AcDbEntity
  8
Layer_1
 62
7
100
AcDbSpline
 70
8
 71
3
 72
8
 73
4
 74
0
 40
0
 40
0
 40
0
 40
0
 40
1
 40
1
 40
1
 40
1
 10
423.791825
 20
453.561535
 30
0.0
 10
424.200339
 20
453.153021
 30
0.0
 10
424.429840
 20
452.598956
 30
0.0
 10
424.429840
 20
452.021230
 30
0.0
  0
LWPOLYLINE
  5
1c2
100
AcDbEntity
  8
Layer_1
 62
7
100
AcDbPolyline
 90
1
 70
1
 10
29.849840
 20
509.601220
 30
0.0
  0
SPLINE
  5
1c3
100
AcDbEntity
  8
Layer_1
 62
7
100
AcDbSpline
 70
8
 71
3
 72
8
 73
4
 74
0
 40
0
 40
0
 40
0
 40
0
 40
1
 40
1
 40
1
 40
1
 10
424.429840
 20
509.601200
 30
0.0
 10
424.429840
 20
509.023474
 30
0.0
 10
424.200339
 20
508.469409
 30
0.0
 10
423.791825
 20
508.060895
 30
0.0
  0
SPLINE
  5
1c4
100
AcDbEntity
  8
Layer_1
 62
7
100
AcDbSpline
 70
8
 71
3
 72
8
 73
4
 74
0
 40
0
 40
0
 40
0
 40
0
 40
1
 40
1
 40
1
 40
1
 10
423.791825
 20
508.060895
 30
0.0
 10
423.383311
 20
507.652381
 30
0.0
 10
422.829246
 20
507.422880
 30
0.0
 10
422.251520
 20
507.422880
 30
0.0
  0
SPLINE
  5
1c5
100
AcDbEntity
  8
Layer_1
 62
7
100
AcDbSpline
 70
8
 71
3
 72
8
 73
4
 74
0
 40
0
 40
0
 40
0
 40
0
 40
1
 40
1
 40
1
 40
1
 10
422.251520
 20
507.422880
 30
0.0
 10
421.673794
 20
507.422880
 30
0.0
 10
421.119729
 20
507.652381
 30
0.0
 10
420.711215
 20
508.060895
 30
0.0
  0
SPLINE
  5
1c6
100
AcDbEntity
  8
Layer_1
 62
7
100
AcDbSpline
 70
8
 71
3
 72
8
 73
4
 74
0
 40
0
 40
0
 40
0
 40
0
 40
1
 40
1
 40
1
 40
1
 10
420.711215
 20
508.060895
 30
0.0
 10
420.302701
 20
508.469409
 30
0.0
 10
420.073200
 20
509.023474
 30
0.0
 10
420.073200
 20
509.601200
 30
0.0
  0
SPLINE
  5
1c7
100
AcDbEntity
  8
Layer_1
 62
7
100
AcDbSpline
 70
8
 71
3
 72
8
 73
4
 74
0
 40
0
 40
0
 40
0
 40
0
 40
1
 40
1
 40
1
 40
1
 10
420.073200
 20
509.601200
 30
0.0
 10
420.073200
 20
510.178926
 30
0.0
 10
420.302701
 20
510.732991
 30
0.0
 10
420.711215
 20
511.141505
 30
0.0
  0
SPLINE
  5
1c8
100
AcDbEntity
  8
Layer_1
 62
7
100
AcDbSpline
 70
8
 71
3
 72
8
 73
4
 74
0
 40
0
 40
0
 40
0
 40
0
 40
1
 40
1
 40
1
 40
1
 10
420.711215
 20
511.141505
 30
0.0
 10
421.119729
 20
511.550019
 30
0.0
 10
421.673794
 20
511.779520
 30
0.0
 10
422.251520
 20
511.779520
 30
0.0
  0
SPLINE
  5
1c9
100
AcDbEntity
  8
Layer_1
 62
7
100
AcDbSpline
 70
8
 71
3
 72
8
 73
4
 74
0
 40
0
 40
0
 40
0
 40
0
 40
1
 40
1
 40
1
 40
1
 10
422.251520
 20
511.779520
 30
0.0
 10
422.829246
 20
511.779520
 30
0.0
 10
423.383311
 20
511.550019
 30
0.0
 10
423.791825
 20
511.141505
 30
0.0
  0
SPLINE
  5
1ca
100
AcDbEntity
  8
Layer_1
 62
7
100
AcDbSpline
 70
8
 71
3
 72
8
 73
4
 74
0
 40
0
 40
0
 40
0
 40
0
 40
1
 40
1
 40
1
 40
1
 10
423.791825
 20
511.141505
 30
0.0
 10
424.200339
 20
510.732991
 30
0.0
 10
424.429840
 20
510.178926
 30
0.0
 10
424.429840
 20
509.601200
 30
0.0
  0
LWPOLYLINE
  5
1cb
100
AcDbEntity
  8
Layer_1
 62
7
100
AcDbPolyline
 90
1
 70
1
 10
424.429840
 20
452.021230
 30
0.0
  0
SPLINE
  5
1cc
100
AcDbEntity
  8
Layer_1
 62
5
100
AcDbSpline
 70
8
 71
3
 72
8
 73
4
 74
0
 40
0
 40
0
 40
0
 40
0
 40
1
 40
1
 40
1
 40
1
 10
485.782610
 20
128.496810
 30
0.0
 10
485.189170
 20
129.195190
 30
0.0
 10
485.273050
 20
130.242140
 30
0.0
 10
485.970120
 20
130.837120
 30
0.0
  0
SPLINE
  5
1cd
100
AcDbEntity
  8
Layer_1
 62
5
100
AcDbSpline
 70
8
 71
3
 72
8
 73
4
 74
0
 40
0
 40
0
 40
0
 40
0
 40
1
 40
1
 40
1
 40
1
 10
485.970120
 20
130.837120
 30
0.0
 10
486.667190
 20
131.432100
 30
0.0
 10
487.714340
 20
131.350550
 30
0.0
 10
488.310880
 20
130.654820
 30
0.0
  0
SPLINE
  5
1ce
100
AcDbEntity
  8
Layer_1
 62
5
100
AcDbSpline
 70
8
 71
3
 72
8
 73
4
 74
0
 40
0
 40
0
 40
0
 40
0
 40
1
 40
1
 40
1
 40
1
 10
488.310880
 20
130.654820
 30
0.0
 10
488.907420
 20
129.959090
 30
0.0
 10
488.828200
 20
128.911780
 30
0.0
 10
488.128170
 20
128.308900
 30
0.0
  0
SPLINE
  5
1cf
100
AcDbEntity
  8
Layer_1
 62
5
100
AcDbSpline
 70
8
 71
3
 72
8
 73
4
 74
0
 40
0
 40
0
 40
0
 40
0
 40
1
 40
1
 40
1
 40
1
 10
488.128170
 20
128.308900
 30
0.0
 10
487.422830
 20
127.712220
 30
0.0
 10
486.376050
 20
127.798430
 30
0.0
 10
485.782610
 20
128.496810
 30
0.0
  0
LWPOLYLINE
  5
1d0
100
AcDbEntity
  8
Layer_1
 62
7
100
AcDbPolyline
 90
1
 70
1
 10
424.429840
 20
509.601200
 30
0.0
  0
SPLINE
  5
1d1
100
AcDbEntity
  8
Layer_1
 62
5
100
AcDbSpline
 70
8
 71
3
 72
8
 73
4
 74
0
 40
0
 40
0
 40
0
 40
0
 40
1
 40
1
 40
1
 40
1
 10
524.782640
 20
128.496810
 30
0.0
 10
524.189200
 20
129.195190
 30
0.0
 10
524.273080
 20
130.242140
 30
0.0
 10
524.970150
 20
130.837120
 30
0.0
  0
SPLINE
  5
1d2
100
AcDbEntity
  8
Layer_1
 62
5
100
AcDbSpline
 70
8
 71
3
 72
8
 73
4
 74
0
 40
0
 40
0
 40
0
 40
0
 40
1
 40
1
 40
1
 40
1
 10
524.970150
 20
130.837120
 30
0.0
 10
525.667220
 20
131.432100
 30
0.0
 10
526.714370
 20
131.350550
 30
0.0
 10
527.310910
 20
130.654820
 30
0.0
  0
SPLINE
  5
1d3
100
AcDbEntity
  8
Layer_1
 62
5
100
AcDbSpline
 70
8
 71
3
 72
8
 73
4
 74
0
 40
0
 40
0
 40
0
 40
0
 40
1
 40
1
 40
1
 40
1
 10
527.310910
 20
130.654820
 30
0.0
 10
527.907450
 20
129.959090
 30
0.0
 10
527.828230
 20
128.911780
 30
0.0
 10
527.128190
 20
128.308890
 30
0.0
  0
SPLINE
  5
1d4
100
AcDbEntity
  8
Layer_1
 62
5
100
AcDbSpline
 70
8
 71
3
 72
8
 73
4
 74
0
 40
0
 40
0
 40
0
 40
0
 40
1
 40
1
 40
1
 40
1
 10
527.128190
 20
128.308890
 30
0.0
 10
526.422860
 20
127.712210
 30
0.0
 10
525.376080
 20
127.798430
 30
0.0
 10
524.782640
 20
128.496810
 30
0.0
  0
LWPOLYLINE
  5
1d5
100
AcDbEntity
  8
Layer_1
 62
5
100
AcDbPolyline
 90
1
 70
1
 10
485.782610
 20
128.496810
 30
0.0
  0
SPLINE
  5
1d6
100
AcDbEntity
  8
Layer_1
 62
5
100
AcDbSpline
 70
8
 71
3
 72
8
 73
4
 74
0
 40
0
 40
0
 40
0
 40
0
 40
1
 40
1
 40
1
 40
1
 10
524.782640
 20
83.496810
 30
0.0
 10
524.189200
 20
84.195190
 30
0.0
 10
524.273080
 20
85.242140
 30
0.0
 10
524.970150
 20
85.837120
 30
0.0
  0
SPLINE
  5
1d7
100
AcDbEntity
  8
Layer_1
 62
5
100
AcDbSpline
 70
8
 71
3
 72
8
 73
4
 74
0
 40
0
 40
0
 40
0
 40
0
 40
1
 40
1
 40
1
 40
1
 10
524.970150
 20
85.837120
 30
0.0
 10
525.667220
 20
86.432100
 30
0.0
 10
526.714370
 20
86.350550
 30
0.0
 10
527.310910
 20
85.654820
 30
0.0
  0
SPLINE
  5
1d8
100
AcDbEntity
  8
Layer_1
 62
5
100
AcDbSpline
 70
8
 71
3
 72
8
 73
4
 74
0
 40
0
 40
0
 40
0
 40
0
 40
1
 40
1
 40
1
 40
1
 10
527.310910
 20
85.654820
 30
0.0
 10
527.907450
 20
84.959090
 30
0.0
 10
527.828230
 20
83.911780
 30
0.0
 10
527.128190
 20
83.308890
 30
0.0
  0
SPLINE
  5
1d9
100
AcDbEntity
  8
Layer_1
 62
5
100
AcDbSpline
 70
8
 71
3
 72
8
 73
4
 74
0
 40
0
 40
0
 40
0
 40
0
 40
1
 40
1
 40
1
 40
1
 10
527.128190
 20
83.308890
 30
0.0
 10
526.422860
 20
82.712210
 30
0.0
 10
525.376080
 20
82.798430
 30
0.0
 10
524.782640
 20
83.496810
 30
0.0
  0
LWPOLYLINE
  5
1da
100
AcDbEntity
  8
Layer_1
 62
5
100
AcDbPolyline
 90
1
 70
1
 10
524.782640
 20
128.496810
 30
0.0
  0
SPLINE
  5
1db
100
AcDbEntity
  8
Layer_1
 62
5
100
AcDbSpline
 70
8
 71
3
 72
8
 73
4
 74
0
 40
0
 40
0
 40
0
 40
0
 40
1
 40
1
 40
1
 40
1
 10
485.782610
 20
83.496810
 30
0.0
 10
485.189170
 20
84.195190
 30
0.0
 10
485.273050
 20
85.242140
 30
0.0
 10
485.970120
 20
85.837120
 30
0.0
  0
SPLINE
  5
1dc
100
AcDbEntity
  8
Layer_1
 62
5
100
AcDbSpline
 70
8
 71
3
 72
8
 73
4
 74
0
 40
0
 40
0
 40
0
 40
0
 40
1
 40
1
 40
1
 40
1
 10
485.970120
 20
85.837120
 30
0.0
 10
486.667190
 20
86.432100
 30
0.0
 10
487.714340
 20
86.350550
 30
0.0
 10
488.310880
 20
85.654820
 30
0.0
  0
SPLINE
  5
1dd
100
AcDbEntity
  8
Layer_1
 62
5
100
AcDbSpline
 70
8
 71
3
 72
8
 73
4
 74
0
 40
0
 40
0
 40
0
 40
0
 40
1
 40
1
 40
1
 40
1
 10
488.310880
 20
85.654820
 30
0.0
 10
488.907420
 20
84.959090
 30
0.0
 10
488.828200
 20
83.911780
 30
0.0
 10
488.128170
 20
83.308890
 30
0.0
  0
SPLINE
  5
1de
100
AcDbEntity
  8
Layer_1
 62
5
100
AcDbSpline
 70
8
 71
3
 72
8
 73
4
 74
0
 40
0
 40
0
 40
0
 40
0
 40
1
 40
1
 40
1
 40
1
 10
488.128170
 20
83.308890
 30
0.0
 10
487.422830
 20
82.712210
 30
0.0
 10
486.376050
 20
82.798430
 30
0.0
 10
485.782610
 20
83.496810
 30
0.0
  0
LWPOLYLINE
  5
1df
100
AcDbEntity
  8
Layer_1
 62
5
100
AcDbPolyline
 90
1
 70
1
 10
524.782640
 20
83.496810
 30
0.0
  0
LWPOLYLINE
  5
1e0
100
AcDbEntity
  8
Layer_1
 62
5
100
AcDbPolyline
 90
1
 70
1
 10
485.782610
 20
83.496810
 30
0.0
  0
SPLINE
  5
1e1
100
AcDbEntity
  8
Layer_1
 62
7
100
AcDbSpline
 70
8
 71
3
 72
8
 73
4
 74
0
 40
0
 40
0
 40
0
 40
0
 40
1
 40
1
 40
1
 40
1
 10
566.569000
 20
156.054000
 30
0.0
 10
566.569600
 20
56.055000
 30
0.0
 10
566.569600
 20
158.054600
 30
0.0
 10
566.569000
 20
58.054100
 30
0.0
  0
LWPOLYLINE
  5
1e2
100
AcDbEntity
  8
Layer_1
 62
7
100
AcDbPolyline
 90
8
 70
0
 10
468.569000
 20
184.055000
 30
0.0
 10
472.068980
 20
184.055000
 30
0.0
 10
472.068980
 20
204.054000
 30
0.0
 10
543.068980
 20
204.054000
 30
0.0
 10
543.068980
 20
184.055000
 30
0.0
 10
546.569000
 20
184.055000
 30
0.0
 10
546.569000
 20
156.054000
 30
0.0
 10
566.569000
 20
156.054000
 30
0.0
  0
SPLINE
  5
1e3
100
AcDbEntity
  8
Layer_1
 62
7
100
AcDbSpline
 70
8
 71
3
 72
8
 73
4
 74
0
 40
0
 40
0
 40
0
 40
0
 40
1
 40
1
 40
1
 40
1
 10
448.569000
 20
58.055000
 30
0.0
 10
448.568800
 20
198.054400
 30
0.0
 10
448.568000
 20
16.056400
 30
0.0
 10
448.569000
 20
156.055000
 30
0.0
  0
LWPOLYLINE
  5
1e4
100
AcDbEntity
  8
Layer_1
 62
7
100
AcDbPolyline
 90
10
 70
0
 10
566.569000
 20
58.054100
 30
0.0
 10
546.569000
 20
58.054000
 30
0.0
 10
546.569000
 20
30.055000
 30
0.0
 10
543.068980
 20
30.055000
 30
0.0
 10
543.068980
 20
10.054000
 30
0.0
 10
472.068980
 20
10.054000
 30
0.0
 10
472.068980
 20
30.055000
 30
0.0
 10
468.569000
 20
30.055000
 30
0.0
 10
468.569000
 20
58.055000
 30
0.0
 10
448.569000
 20
58.055000
 30
0.0
  0
SPLINE
  5
1e5
100
AcDbEntity
  8
Layer_1
 62
7
100
AcDbSpline
 70
8
 71
3
 72
8
 73
4
 74
0
 40
0
 40
0
 40
0
 40
0
 40
1
 40
1
 40
1
 40
1
 10
536.568890
 20
15.457000
 30
0.0
 10
534.857885
 20
15.457002
 30
0.0
 10
533.470842
 20
16.844045
 30
0.0
 10
533.470840
 20
18.555050
 30
0.0
  0
SPLINE
  5
1e6
100
AcDbEntity
  8
Layer_1
 62
7
100
AcDbSpline
 70
8
 71
3
 72
8
 73
4
 74
0
 40
0
 40
0
 40
0
 40
0
 40
1
 40
1
 40
1
 40
1
 10
533.470840
 20
18.555050
 30
0.0
 10
533.470838
 20
19.376705
 30
0.0
 10
533.797238
 20
20.164708
 30
0.0
 10
534.378236
 20
20.745707
 30
0.0
  0
SPLINE
  5
1e7
100
AcDbEntity
  8
Layer_1
 62
7
100
AcDbSpline
 70
8
 71
3
 72
8
 73
4
 74
0
 40
0
 40
0
 40
0
 40
0
 40
1
 40
1
 40
1
 40
1
 10
534.378236
 20
20.745707
 30
0.0
 10
534.959233
 20
21.326706
 30
0.0
 10
535.747235
 20
21.653109
 30
0.0
 10
536.568890
 20
21.653110
 30
0.0
  0
SPLINE
  5
1e8
100
AcDbEntity
  8
Layer_1
 62
7
100
AcDbSpline
 70
8
 71
3
 72
8
 73
4
 74
0
 40
0
 40
0
 40
0
 40
0
 40
1
 40
1
 40
1
 40
1
 10
536.568890
 20
21.653110
 30
0.0
 10
537.390547
 20
21.653112
 30
0.0
 10
538.178552
 20
21.326710
 30
0.0
 10
538.759551
 20
20.745711
 30
0.0
  0
SPLINE
  5
1e9
100
AcDbEntity
  8
Layer_1
 62
7
100
AcDbSpline
 70
8
 71
3
 72
8
 73
4
 74
0
 40
0
 40
0
 40
0
 40
0
 40
1
 40
1
 40
1
 40
1
 10
538.759551
 20
20.745711
 30
0.0
 10
539.340550
 20
20.164712
 30
0.0
 10
539.666952
 20
19.376707
 30
0.0
 10
539.666950
 20
18.555050
 30
0.0
  0
SPLINE
  5
1ea
100
AcDbEntity
  8
Layer_1
 62
7
100
AcDbSpline
 70
8
 71
3
 72
8
 73
4
 74
0
 40
0
 40
0
 40
0
 40
0
 40
1
 40
1
 40
1
 40
1
 10
539.666950
 20
18.555050
 30
0.0
 10
539.666949
 20
17.733395
 30
0.0
 10
539.340546
 20
16.945393
 30
0.0
 10
538.759547
 20
16.364396
 30
0.0
  0
SPLINE
  5
1eb
100
AcDbEntity
  8
Layer_1
 62
7
100
AcDbSpline
 70
8
 71
3
 72
8
 73
4
 74
0
 40
0
 40
0
 40
0
 40
0
 40
1
 40
1
 40
1
 40
1
 10
538.759547
 20
16.364396
 30
0.0
 10
538.178548
 20
15.783398
 30
0.0
 10
537.390545
 20
15.456998
 30
0.0
 10
536.568890
 20
15.457000
 30
0.0
  0
LWPOLYLINE
  5
1ec
100
AcDbEntity
  8
Layer_1
 62
7
100
AcDbPolyline
 90
3
 70
0
 10
448.569000
 20
156.055000
 30
0.0
 10
468.569000
 20
156.055000
 30
0.0
 10
468.569000
 20
184.055000
 30
0.0
  0
SPLINE
  5
1ed
100
AcDbEntity
  8
Layer_1
 62
7
100
AcDbSpline
 70
8
 71
3
 72
8
 73
4
 74
0
 40
0
 40
0
 40
0
 40
0
 40
1
 40
1
 40
1
 40
1
 10
478.568890
 20
15.457000
 30
0.0
 10
476.857885
 20
15.457002
 30
0.0
 10
475.470842
 20
16.844045
 30
0.0
 10
475.470840
 20
18.555050
 30
0.0
  0
SPLINE
  5
1ee
100
AcDbEntity
  8
Layer_1
 62
7
100
AcDbSpline
 70
8
 71
3
 72
8
 73
4
 74
0
 40
0
 40
0
 40
0
 40
0
 40
1
 40
1
 40
1
 40
1
 10
475.470840
 20
18.555050
 30
0.0
 10
475.470838
 20
19.376705
 30
0.0
 10
475.797238
 20
20.164708
 30
0.0
 10
476.378236
 20
20.745707
 30
0.0
  0
SPLINE
  5
1ef
100
AcDbEntity
  8
Layer_1
 62
7
100
AcDbSpline
 70
8
 71
3
 72
8
 73
4
 74
0
 40
0
 40
0
 40
0
 40
0
 40
1
 40
1
 40
1
 40
1
 10
476.378236
 20
20.745707
 30
0.0
 10
476.959233
 20
21.326706
 30
0.0
 10
477.747235
 20
21.653109
 30
0.0
 10
478.568890
 20
21.653110
 30
0.0
  0
SPLINE
  5
1f0
100
AcDbEntity
  8
Layer_1
 62
7
100
AcDbSpline
 70
8
 71
3
 72
8
 73
4
 74
0
 40
0
 40
0
 40
0
 40
0
 40
1
 40
1
 40
1
 40
1
 10
478.568890
 20
21.653110
 30
0.0
 10
479.390547
 20
21.653112
 30
0.0
 10
480.178552
 20
21.326710
 30
0.0
 10
480.759551
 20
20.745711
 30
0.0
  0
SPLINE
  5
1f1
100
AcDbEntity
  8
Layer_1
 62
7
100
AcDbSpline
 70
8
 71
3
 72
8
 73
4
 74
0
 40
0
 40
0
 40
0
 40
0
 40
1
 40
1
 40
1
 40
1
 10
480.759551
 20
20.745711
 30
0.0
 10
481.340550
 20
20.164712
 30
0.0
 10
481.666952
 20
19.376707
 30
0.0
 10
481.666950
 20
18.555050
 30
0.0
  0
SPLINE
  5
1f2
100
AcDbEntity
  8
Layer_1
 62
7
100
AcDbSpline
 70
8
 71
3
 72
8
 73
4
 74
0
 40
0
 40
0
 40
0
 40
0
 40
1
 40
1
 40
1
 40
1
 10
481.666950
 20
18.555050
 30
0.0
 10
481.666949
 20
17.733395
 30
0.0
 10
481.340546
 20
16.945393
 30
0.0
 10
480.759547
 20
16.364396
 30
0.0
  0
SPLINE
  5
1f3
100
AcDbEntity
  8
Layer_1
 62
7
100
AcDbSpline
 70
8
 71
3
 72
8
 73
4
 74
0
 40
0
 40
0
 40
0
 40
0
 40
1
 40
1
 40
1
 40
1
 10
480.759547
 20
16.364396
 30
0.0
 10
480.178548
 20
15.783398
 30
0.0
 10
479.390545
 20
15.456998
 30
0.0
 10
478.568890
 20
15.457000
 30
0.0
  0
LWPOLYLINE
  5
1f4
100
AcDbEntity
  8
Layer_1
 62
7
100
AcDbPolyline
 90
1
 70
1
 10
536.568890
 20
15.457000
 30
0.0
  0
SPLINE
  5
1f5
100
AcDbEntity
  8
Layer_1
 62
7
100
AcDbSpline
 70
8
 71
3
 72
8
 73
4
 74
0
 40
0
 40
0
 40
0
 40
0
 40
1
 40
1
 40
1
 40
1
 10
478.568890
 20
192.457000
 30
0.0
 10
476.857885
 20
192.457002
 30
0.0
 10
475.470842
 20
193.844045
 30
0.0
 10
475.470840
 20
195.555050
 30
0.0
  0
SPLINE
  5
1f6
100
AcDbEntity
  8
Layer_1
 62
7
100
AcDbSpline
 70
8
 71
3
 72
8
 73
4
 74
0
 40
0
 40
0
 40
0
 40
0
 40
1
 40
1
 40
1
 40
1
 10
475.470840
 20
195.555050
 30
0.0
 10
475.470839
 20
197.266057
 30
0.0
 10
476.857883
 20
198.653104
 30
0.0
 10
478.568890
 20
198.653106
 30
0.0
  0
SPLINE
  5
1f7
100
AcDbEntity
  8
Layer_1
 62
7
100
AcDbSpline
 70
8
 71
3
 72
8
 73
4
 74
0
 40
0
 40
0
 40
0
 40
0
 40
1
 40
1
 40
1
 40
1
 10
478.568890
 20
198.653106
 30
0.0
 10
479.390546
 20
198.653108
 30
0.0
 10
480.178550
 20
198.326707
 30
0.0
 10
480.759550
 20
197.745708
 30
0.0
  0
SPLINE
  5
1f8
100
AcDbEntity
  8
Layer_1
 62
7
100
AcDbSpline
 70
8
 71
3
 72
8
 73
4
 74
0
 40
0
 40
0
 40
0
 40
0
 40
1
 40
1
 40
1
 40
1
 10
480.759550
 20
197.745708
 30
0.0
 10
481.340549
 20
197.164710
 30
0.0
 10
481.666950
 20
196.376706
 30
0.0
 10
481.666950
 20
195.555050
 30
0.0
  0
SPLINE
  5
1f9
100
AcDbEntity
  8
Layer_1
 62
7
100
AcDbSpline
 70
8
 71
3
 72
8
 73
4
 74
0
 40
0
 40
0
 40
0
 40
0
 40
1
 40
1
 40
1
 40
1
 10
481.666950
 20
195.555050
 30
0.0
 10
481.666949
 20
194.733395
 30
0.0
 10
481.340546
 20
193.945393
 30
0.0
 10
480.759547
 20
193.364396
 30
0.0
  0
SPLINE
  5
1fa
100
AcDbEntity
  8
Layer_1
 62
7
100
AcDbSpline
 70
8
 71
3
 72
8
 73
4
 74
0
 40
0
 40
0
 40
0
 40
0
 40
1
 40
1
 40
1
 40
1
 10
480.759547
 20
193.364396
 30
0.0
 10
480.178548
 20
192.783398
 30
0.0
 10
479.390545
 20
192.456998
 30
0.0
 10
478.568890
 20
192.457000
 30
0.0
  0
LWPOLYLINE
  5
1fb
100
AcDbEntity
  8
Layer_1
 62
7
100
AcDbPolyline
 90
1
 70
1
 10
478.568890
 20
15.457000
 30
0.0
  0
SPLINE
  5
1fc
100
AcDbEntity
  8
Layer_1
 62
7
100
AcDbSpline
 70
8
 71
3
 72
8
 73
4
 74
0
 40
0
 40
0
 40
0
 40
0
 40
1
 40
1
 40
1
 40
1
 10
536.568890
 20
192.455000
 30
0.0
 10
535.747235
 20
192.455001
 30
0.0
 10
534.959233
 20
192.781404
 30
0.0
 10
534.378236
 20
193.362403
 30
0.0
  0
SPLINE
  5
1fd
100
AcDbEntity
  8
Layer_1
 62
7
100
AcDbSpline
 70
8
 71
3
 72
8
 73
4
 74
0
 40
0
 40
0
 40
0
 40
0
 40
1
 40
1
 40
1
 40
1
 10
534.378236
 20
193.362403
 30
0.0
 10
533.797238
 20
193.943402
 30
0.0
 10
533.470838
 20
194.731405
 30
0.0
 10
533.470840
 20
195.553060
 30
0.0
  0
SPLINE
  5
1fe
100
AcDbEntity
  8
Layer_1
 62
7
100
AcDbSpline
 70
8
 71
3
 72
8
 73
4
 74
0
 40
0
 40
0
 40
0
 40
0
 40
1
 40
1
 40
1
 40
1
 10
533.470840
 20
195.553060
 30
0.0
 10
533.470842
 20
197.264065
 30
0.0
 10
534.857885
 20
198.651108
 30
0.0
 10
536.568890
 20
198.651110
 30
0.0
  0
SPLINE
  5
1ff
100
AcDbEntity
  8
Layer_1
 62
7
100
AcDbSpline
 70
8
 71
3
 72
8
 73
4
 74
0
 40
0
 40
0
 40
0
 40
0
 40
1
 40
1
 40
1
 40
1
 10
536.568890
 20
198.651110
 30
0.0
 10
537.390545
 20
198.651112
 30
0.0
 10
538.178548
 20
198.324712
 30
0.0
 10
538.759547
 20
197.743714
 30
0.0
  0
SPLINE
  5
200
100
AcDbEntity
  8
Layer_1
 62
7
100
AcDbSpline
 70
8
 71
3
 72
8
 73
4
 74
0
 40
0
 40
0
 40
0
 40
0
 40
1
 40
1
 40
1
 40
1
 10
538.759547
 20
197.743714
 30
0.0
 10
539.340546
 20
197.162717
 30
0.0
 10
539.666949
 20
196.374715
 30
0.0
 10
539.666950
 20
195.553060
 30
0.0
  0
SPLINE
  5
201
100
AcDbEntity
  8
Layer_1
 62
7
100
AcDbSpline
 70
8
 71
3
 72
8
 73
4
 74
0
 40
0
 40
0
 40
0
 40
0
 40
1
 40
1
 40
1
 40
1
 10
539.666950
 20
195.553060
 30
0.0
 10
539.666952
 20
194.731403
 30
0.0
 10
539.340550
 20
193.943398
 30
0.0
 10
538.759551
 20
193.362399
 30
0.0
  0
SPLINE
  5
202
100
AcDbEntity
  8
Layer_1
 62
7
100
AcDbSpline
 70
8
 71
3
 72
8
 73
4
 74
0
 40
0
 40
0
 40
0
 40
0
 40
1
 40
1
 40
1
 40
1
 10
538.759551
 20
193.362399
 30
0.0
 10
538.178552
 20
192.781400
 30
0.0
 10
537.390547
 20
192.454998
 30
0.0
 10
536.568890
 20
192.455000
 30
0.0
  0
LWPOLYLINE
  5
203
100
AcDbEntity
  8
Layer_1
 62
7
100
AcDbPolyline
 90
1
 70
1
 10
478.568890
 20
192.457000
 30
0.0
  0
SPLINE
  5
204
100
AcDbEntity
  8
Layer_1
 62
7
100
AcDbSpline
 70
8
 71
3
 72
8
 73
4
 74
0
 40
0
 40
0
 40
0
 40
0
 40
1
 40
1
 40
1
 40
1
 10
558.079060
 20
103.964550
 30
0.0
 10
557.257405
 20
103.964548
 30
0.0
 10
556.469402
 20
104.290948
 30
0.0
 10
555.888403
 20
104.871946
 30
0.0
  0
SPLINE
  5
205
100
AcDbEntity
  8
Layer_1
 62
7
100
AcDbSpline
 70
8
 71
3
 72
8
 73
4
 74
0
 40
0
 40
0
 40
0
 40
0
 40
1
 40
1
 40
1
 40
1
 10
555.888403
 20
104.871946
 30
0.0
 10
555.307404
 20
105.452943
 30
0.0
 10
554.981001
 20
106.240945
 30
0.0
 10
554.981000
 20
107.062600
 30
0.0
  0
SPLINE
  5
206
100
AcDbEntity
  8
Layer_1
 62
7
100
AcDbSpline
 70
8
 71
3
 72
8
 73
4
 74
0
 40
0
 40
0
 40
0
 40
0
 40
1
 40
1
 40
1
 40
1
 10
554.981000
 20
107.062600
 30
0.0
 10
554.981001
 20
107.884255
 30
0.0
 10
555.307404
 20
108.672257
 30
0.0
 10
555.888403
 20
109.253254
 30
0.0
  0
SPLINE
  5
207
100
AcDbEntity
  8
Layer_1
 62
7
100
AcDbSpline
 70
8
 71
3
 72
8
 73
4
 74
0
 40
0
 40
0
 40
0
 40
0
 40
1
 40
1
 40
1
 40
1
 10
555.888403
 20
109.253254
 30
0.0
 10
556.469402
 20
109.834252
 30
0.0
 10
557.257405
 20
110.160652
 30
0.0
 10
558.079060
 20
110.160650
 30
0.0
  0
SPLINE
  5
208
100
AcDbEntity
  8
Layer_1
 62
7
100
AcDbSpline
 70
8
 71
3
 72
8
 73
4
 74
0
 40
0
 40
0
 40
0
 40
0
 40
1
 40
1
 40
1
 40
1
 10
558.079060
 20
110.160650
 30
0.0
 10
559.790065
 20
110.160648
 30
0.0
 10
561.177108
 20
108.773605
 30
0.0
 10
561.177110
 20
107.062600
 30
0.0
  0
SPLINE
  5
209
100
AcDbEntity
  8
Layer_1
 62
7
100
AcDbSpline
 70
8
 71
3
 72
8
 73
4
 74
0
 40
0
 40
0
 40
0
 40
0
 40
1
 40
1
 40
1
 40
1
 10
561.177110
 20
107.062600
 30
0.0
 10
561.177108
 20
105.351595
 30
0.0
 10
559.790065
 20
103.964552
 30
0.0
 10
558.079060
 20
103.964550
 30
0.0
  0
LWPOLYLINE
  5
20a
100
AcDbEntity
  8
Layer_1
 62
7
100
AcDbPolyline
 90
1
 70
1
 10
536.568890
 20
192.455000
 30
0.0
  0
SPLINE
  5
20b
100
AcDbEntity
  8
Layer_1
 62
7
100
AcDbSpline
 70
8
 71
3
 72
8
 73
4
 74
0
 40
0
 40
0
 40
0
 40
0
 40
1
 40
1
 40
1
 40
1
 10
457.069060
 20
103.964550
 30
0.0
 10
456.247405
 20
103.964548
 30
0.0
 10
455.459402
 20
104.290948
 30
0.0
 10
454.878403
 20
104.871946
 30
0.0
  0
SPLINE
  5
20c
100
AcDbEntity
  8
Layer_1
 62
7
100
AcDbSpline
 70
8
 71
3
 72
8
 73
4
 74
0
 40
0
 40
0
 40
0
 40
0
 40
1
 40
1
 40
1
 40
1
 10
454.878403
 20
104.871946
 30
0.0
 10
454.297404
 20
105.452943
 30
0.0
 10
453.971001
 20
106.240945
 30
0.0
 10
453.971000
 20
107.062600
 30
0.0
  0
SPLINE
  5
20d
100
AcDbEntity
  8
Layer_1
 62
7
100
AcDbSpline
 70
8
 71
3
 72
8
 73
4
 74
0
 40
0
 40
0
 40
0
 40
0
 40
1
 40
1
 40
1
 40
1
 10
453.971000
 20
107.062600
 30
0.0
 10
453.971001
 20
107.884255
 30
0.0
 10
454.297404
 20
108.672257
 30
0.0
 10
454.878403
 20
109.253254
 30
0.0
  0
SPLINE
  5
20e
100
AcDbEntity
  8
Layer_1
 62
7
100
AcDbSpline
 70
8
 71
3
 72
8
 73
4
 74
0
 40
0
 40
0
 40
0
 40
0
 40
1
 40
1
 40
1
 40
1
 10
454.878403
 20
109.253254
 30
0.0
 10
455.459402
 20
109.834252
 30
0.0
 10
456.247405
 20
110.160652
 30
0.0
 10
457.069060
 20
110.160650
 30
0.0
  0
SPLINE
  5
20f
100
AcDbEntity
  8
Layer_1
 62
7
100
AcDbSpline
 70
8
 71
3
 72
8
 73
4
 74
0
 40
0
 40
0
 40
0
 40
0
 40
1
 40
1
 40
1
 40
1
 10
457.069060
 20
110.160650
 30
0.0
 10
458.780065
 20
110.160648
 30
0.0
 10
460.167108
 20
108.773605
 30
0.0
 10
460.167110
 20
107.062600
 30
0.0
  0
SPLINE
  5
210
100
AcDbEntity
  8
Layer_1
 62
7
100
AcDbSpline
 70
8
 71
3
 72
8
 73
4
 74
0
 40
0
 40
0
 40
0
 40
0
 40
1
 40
1
 40
1
 40
1
 10
460.167110
 20
107.062600
 30
0.0
 10
460.167108
 20
105.351595
 30
0.0
 10
458.780065
 20
103.964552
 30
0.0
 10
457.069060
 20
103.964550
 30
0.0
  0
LWPOLYLINE
  5
211
100
AcDbEntity
  8
Layer_1
 62
7
100
AcDbPolyline
 90
1
 70
1
 10
558.079060
 20
103.964550
 30
0.0
  0
SPLINE
  5
212
100
AcDbEntity
  8
Layer_1
 62
7
100
AcDbSpline
 70
8
 71
3
 72
8
 73
4
 74
0
 40
0
 40
0
 40
0
 40
0
 40
1
 40
1
 40
1
 40
1
 10
479.114780
 20
365.177470
 30
0.0
 10
478.543000
 20
365.850021
 30
0.0
 10
478.623820
 20
366.858256
 30
0.0
 10
479.295440
 20
367.431240
 30
0.0
  0
SPLINE
  5
213
100
AcDbEntity
  8
Layer_1
 62
7
100
AcDbSpline
 70
8
 71
3
 72
8
 73
4
 74
0
 40
0
 40
0
 40
0
 40
0
 40
1
 40
1
 40
1
 40
1
 10
479.295440
 20
367.431240
 30
0.0
 10
479.967070
 20
368.004219
 30
0.0
 10
480.976010
 20
367.925682
 30
0.0
 10
481.550780
 20
367.255680
 30
0.0
  0
SPLINE
  5
214
100
AcDbEntity
  8
Layer_1
 62
7
100
AcDbSpline
 70
8
 71
3
 72
8
 73
4
 74
0
 40
0
 40
0
 40
0
 40
0
 40
1
 40
1
 40
1
 40
1
 10
481.550780
 20
367.255680
 30
0.0
 10
482.125550
 20
366.585680
 30
0.0
 10
482.049220
 20
365.577097
 30
0.0
 10
481.374730
 20
364.996505
 30
0.0
  0
SPLINE
  5
215
100
AcDbEntity
  8
Layer_1
 62
7
100
AcDbSpline
 70
8
 71
3
 72
8
 73
4
 74
0
 40
0
 40
0
 40
0
 40
0
 40
1
 40
1
 40
1
 40
1
 10
481.374730
 20
364.996505
 30
0.0
 10
480.695140
 20
364.421898
 30
0.0
 10
479.686560
 20
364.504922
 30
0.0
 10
479.114780
 20
365.177470
 30
0.0
  0
LWPOLYLINE
  5
216
100
AcDbEntity
  8
Layer_1
 62
7
100
AcDbPolyline
 90
1
 70
1
 10
457.069060
 20
103.964550
 30
0.0
  0
SPLINE
  5
217
100
AcDbEntity
  8
Layer_1
 62
7
100
AcDbSpline
 70
8
 71
3
 72
8
 73
4
 74
0
 40
0
 40
0
 40
0
 40
0
 40
1
 40
1
 40
1
 40
1
 10
538.114780
 20
365.177470
 30
0.0
 10
537.543000
 20
365.850021
 30
0.0
 10
537.623820
 20
366.858256
 30
0.0
 10
538.295440
 20
367.431240
 30
0.0
  0
SPLINE
  5
218
100
AcDbEntity
  8
Layer_1
 62
7
100
AcDbSpline
 70
8
 71
3
 72
8
 73
4
 74
0
 40
0
 40
0
 40
0
 40
0
 40
1
 40
1
 40
1
 40
1
 10
538.295440
 20
367.431240
 30
0.0
 10
538.967070
 20
368.004219
 30
0.0
 10
539.976010
 20
367.925682
 30
0.0
 10
540.550780
 20
367.255680
 30
0.0
  0
SPLINE
  5
219
100
AcDbEntity
  8
Layer_1
 62
7
100
AcDbSpline
 70
8
 71
3
 72
8
 73
4
 74
0
 40
0
 40
0
 40
0
 40
0
 40
1
 40
1
 40
1
 40
1
 10
540.550780
 20
367.255680
 30
0.0
 10
541.125550
 20
366.585680
 30
0.0
 10
541.049220
 20
365.577097
 30
0.0
 10
540.374740
 20
364.996505
 30
0.0
  0
SPLINE
  5
21a
100
AcDbEntity
  8
Layer_1
 62
7
100
AcDbSpline
 70
8
 71
3
 72
8
 73
4
 74
0
 40
0
 40
0
 40
0
 40
0
 40
1
 40
1
 40
1
 40
1
 10
540.374740
 20
364.996505
 30
0.0
 10
539.695140
 20
364.421898
 30
0.0
 10
538.686560
 20
364.504922
 30
0.0
 10
538.114780
 20
365.177470
 30
0.0
  0
LWPOLYLINE
  5
21b
100
AcDbEntity
  8
Layer_1
 62
7
100
AcDbPolyline
 90
1
 70
1
 10
479.114780
 20
365.177470
 30
0.0
  0
SPLINE
  5
21c
100
AcDbEntity
  8
Layer_1
 62
7
100
AcDbSpline
 70
8
 71
3
 72
8
 73
4
 74
0
 40
0
 40
0
 40
0
 40
0
 40
1
 40
1
 40
1
 40
1
 10
479.114780
 20
262.177470
 30
0.0
 10
478.543000
 20
262.850021
 30
0.0
 10
478.623820
 20
263.858256
 30
0.0
 10
479.295440
 20
264.431240
 30
0.0
  0
SPLINE
  5
21d
100
AcDbEntity
  8
Layer_1
 62
7
100
AcDbSpline
 70
8
 71
3
 72
8
 73
4
 74
0
 40
0
 40
0
 40
0
 40
0
 40
1
 40
1
 40
1
 40
1
 10
479.295440
 20
264.431240
 30
0.0
 10
479.967070
 20
265.004219
 30
0.0
 10
480.976010
 20
264.925682
 30
0.0
 10
481.550780
 20
264.255680
 30
0.0
  0
SPLINE
  5
21e
100
AcDbEntity
  8
Layer_1
 62
7
100
AcDbSpline
 70
8
 71
3
 72
8
 73
4
 74
0
 40
0
 40
0
 40
0
 40
0
 40
1
 40
1
 40
1
 40
1
 10
481.550780
 20
264.255680
 30
0.0
 10
482.125550
 20
263.585680
 30
0.0
 10
482.049220
 20
262.577097
 30
0.0
 10
481.374730
 20
261.996505
 30
0.0
  0
SPLINE
  5
21f
100
AcDbEntity
  8
Layer_1
 62
7
100
AcDbSpline
 70
8
 71
3
 72
8
 73
4
 74
0
 40
0
 40
0
 40
0
 40
0
 40
1
 40
1
 40
1
 40
1
 10
481.374730
 20
261.996505
 30
0.0
 10
480.695140
 20
261.421898
 30
0.0
 10
479.686560
 20
261.504922
 30
0.0
 10
479.114780
 20
262.177470
 30
0.0
  0
LWPOLYLINE
  5
220
100
AcDbEntity
  8
Layer_1
 62
7
100
AcDbPolyline
 90
1
 70
1
 10
538.114780
 20
365.177470
 30
0.0
  0
SPLINE
  5
221
100
AcDbEntity
  8
Layer_1
 62
7
100
AcDbSpline
 70
8
 71
3
 72
8
 73
4
 74
0
 40
0
 40
0
 40
0
 40
0
 40
1
 40
1
 40
1
 40
1
 10
538.114780
 20
262.177470
 30
0.0
 10
537.543000
 20
262.850021
 30
0.0
 10
537.623820
 20
263.858256
 30
0.0
 10
538.295440
 20
264.431240
 30
0.0
  0
SPLINE
  5
222
100
AcDbEntity
  8
Layer_1
 62
7
100
AcDbSpline
 70
8
 71
3
 72
8
 73
4
 74
0
 40
0
 40
0
 40
0
 40
0
 40
1
 40
1
 40
1
 40
1
 10
538.295440
 20
264.431240
 30
0.0
 10
538.967070
 20
265.004219
 30
0.0
 10
539.976010
 20
264.925682
 30
0.0
 10
540.550780
 20
264.255680
 30
0.0
  0
SPLINE
  5
223
100
AcDbEntity
  8
Layer_1
 62
7
100
AcDbSpline
 70
8
 71
3
 72
8
 73
4
 74
0
 40
0
 40
0
 40
0
 40
0
 40
1
 40
1
 40
1
 40
1
 10
540.550780
 20
264.255680
 30
0.0
 10
541.125550
 20
263.585680
 30
0.0
 10
541.049220
 20
262.577097
 30
0.0
 10
540.374740
 20
261.996505
 30
0.0
  0
SPLINE
  5
224
100
AcDbEntity
  8
Layer_1
 62
7
100
AcDbSpline
 70
8
 71
3
 72
8
 73
4
 74
0
 40
0
 40
0
 40
0
 40
0
 40
1
 40
1
 40
1
 40
1
 10
540.374740
 20
261.996505
 30
0.0
 10
539.695140
 20
261.421898
 30
0.0
 10
538.686560
 20
261.504922
 30
0.0
 10
538.114780
 20
262.177470
 30
0.0
  0
LWPOLYLINE
  5
225
100
AcDbEntity
  8
Layer_1
 62
7
100
AcDbPolyline
 90
1
 70
1
 10
479.114780
 20
262.177470
 30
0.0
  0
LWPOLYLINE
  5
226
100
AcDbEntity
  8
Layer_1
 62
7
100
AcDbPolyline
 90
1
 70
1
 10
538.114780
 20
262.177470
 30
0.0
  0
SPLINE
  5
227
100
AcDbEntity
  8
Layer_1
 62
7
100
AcDbSpline
 70
8
 71
3
 72
8
 73
4
 74
0
 40
0
 40
0
 40
0
 40
0
 40
1
 40
1
 40
1
 40
1
 10
452.000000
 20
265.550000
 30
0.0
 10
451.999470
 20
365.549030
 30
0.0
 10
451.999470
 20
263.549450
 30
0.0
 10
452.000000
 20
363.550000
 30
0.0
  0
LWPOLYLINE
  5
228
100
AcDbEntity
  8
Layer_1
 62
7
100
AcDbPolyline
 90
8
 70
0
 10
550.000000
 20
237.550000
 30
0.0
 10
546.497720
 20
237.550000
 30
0.0
 10
546.497720
 20
217.551000
 30
0.0
 10
475.497720
 20
217.551000
 30
0.0
 10
475.497720
 20
237.550000
 30
0.0
 10
472.000000
 20
237.550000
 30
0.0
 10
472.000000
 20
265.550000
 30
0.0
 10
452.000000
 20
265.550000
 30
0.0
  0
SPLINE
  5
229
100
AcDbEntity
  8
Layer_1
 62
7
100
AcDbSpline
 70
8
 71
3
 72
8
 73
4
 74
0
 40
0
 40
0
 40
0
 40
0
 40
1
 40
1
 40
1
 40
1
 10
570.000000
 20
363.550000
 30
0.0
 10
570.000240
 20
223.550690
 30
0.0
 10
570.001000
 20
405.548600
 30
0.0
 10
570.000000
 20
265.550000
 30
0.0
  0
LWPOLYLINE
  5
22a
100
AcDbEntity
  8
Layer_1
 62
7
100
AcDbPolyline
 90
10
 70
0
 10
452.000000
 20
363.550000
 30
0.0
 10
472.000000
 20
363.450000
 30
0.0
 10
472.000000
 20
391.550000
 30
0.0
 10
475.497720
 20
391.550000
 30
0.0
 10
475.497720
 20
411.551000
 30
0.0
 10
546.497720
 20
411.551000
 30
0.0
 10
546.497720
 20
391.550000
 30
0.0
 10
550.000000
 20
391.551000
 30
0.0
 10
550.000000
 20
363.550000
 30
0.0
 10
570.000000
 20
363.550000
 30
0.0
  0
SPLINE
  5
22b
100
AcDbEntity
  8
Layer_1
 62
7
100
AcDbSpline
 70
8
 71
3
 72
8
 73
4
 74
0
 40
0
 40
0
 40
0
 40
0
 40
1
 40
1
 40
1
 40
1
 10
539.995050
 20
222.955000
 30
0.0
 10
538.284044
 20
222.955002
 30
0.0
 10
536.897000
 20
224.342048
 30
0.0
 10
536.897000
 20
226.053054
 30
0.0
  0
SPLINE
  5
22c
100
AcDbEntity
  8
Layer_1
 62
7
100
AcDbSpline
 70
8
 71
3
 72
8
 73
4
 74
0
 40
0
 40
0
 40
0
 40
0
 40
1
 40
1
 40
1
 40
1
 10
536.897000
 20
226.053054
 30
0.0
 10
536.897000
 20
227.764060
 30
0.0
 10
538.284044
 20
229.151106
 30
0.0
 10
539.995050
 20
229.151108
 30
0.0
  0
SPLINE
  5
22d
100
AcDbEntity
  8
Layer_1
 62
7
100
AcDbSpline
 70
8
 71
3
 72
8
 73
4
 74
0
 40
0
 40
0
 40
0
 40
0
 40
1
 40
1
 40
1
 40
1
 10
539.995050
 20
229.151108
 30
0.0
 10
541.706056
 20
229.151106
 30
0.0
 10
543.093100
 20
227.764060
 30
0.0
 10
543.093100
 20
226.053054
 30
0.0
  0
SPLINE
  5
22e
100
AcDbEntity
  8
Layer_1
 62
7
100
AcDbSpline
 70
8
 71
3
 72
8
 73
4
 74
0
 40
0
 40
0
 40
0
 40
0
 40
1
 40
1
 40
1
 40
1
 10
543.093100
 20
226.053054
 30
0.0
 10
543.093100
 20
224.342048
 30
0.0
 10
541.706056
 20
222.955002
 30
0.0
 10
539.995050
 20
222.955000
 30
0.0
  0
LWPOLYLINE
  5
22f
100
AcDbEntity
  8
Layer_1
 62
7
100
AcDbPolyline
 90
3
 70
0
 10
570.000000
 20
265.550000
 30
0.0
 10
550.000000
 20
265.550000
 30
0.0
 10
550.000000
 20
237.550000
 30
0.0
  0
SPLINE
  5
230
100
AcDbEntity
  8
Layer_1
 62
7
100
AcDbSpline
 70
8
 71
3
 72
8
 73
4
 74
0
 40
0
 40
0
 40
0
 40
0
 40
1
 40
1
 40
1
 40
1
 10
481.995020
 20
222.955000
 30
0.0
 10
480.284014
 20
222.955002
 30
0.0
 10
478.896970
 20
224.342048
 30
0.0
 10
478.896970
 20
226.053054
 30
0.0
  0
SPLINE
  5
231
100
AcDbEntity
  8
Layer_1
 62
7
100
AcDbSpline
 70
8
 71
3
 72
8
 73
4
 74
0
 40
0
 40
0
 40
0
 40
0
 40
1
 40
1
 40
1
 40
1
 10
478.896970
 20
226.053054
 30
0.0
 10
478.896970
 20
227.764060
 30
0.0
 10
480.284014
 20
229.151106
 30
0.0
 10
481.995020
 20
229.151108
 30
0.0
  0
SPLINE
  5
232
100
AcDbEntity
  8
Layer_1
 62
7
100
AcDbSpline
 70
8
 71
3
 72
8
 73
4
 74
0
 40
0
 40
0
 40
0
 40
0
 40
1
 40
1
 40
1
 40
1
 10
481.995020
 20
229.151108
 30
0.0
 10
483.706026
 20
229.151106
 30
0.0
 10
485.093070
 20
227.764060
 30
0.0
 10
485.093070
 20
226.053054
 30
0.0
  0
SPLINE
  5
233
100
AcDbEntity
  8
Layer_1
 62
7
100
AcDbSpline
 70
8
 71
3
 72
8
 73
4
 74
0
 40
0
 40
0
 40
0
 40
0
 40
1
 40
1
 40
1
 40
1
 10
485.093070
 20
226.053054
 30
0.0
 10
485.093070
 20
224.342048
 30
0.0
 10
483.706026
 20
222.955002
 30
0.0
 10
481.995020
 20
222.955000
 30
0.0
  0
LWPOLYLINE
  5
234
100
AcDbEntity
  8
Layer_1
 62
7
100
AcDbPolyline
 90
1
 70
1
 10
539.995050
 20
222.955000
 30
0.0
  0
SPLINE
  5
235
100
AcDbEntity
  8
Layer_1
 62
7
100
AcDbSpline
 70
8
 71
3
 72
8
 73
4
 74
0
 40
0
 40
0
 40
0
 40
0
 40
1
 40
1
 40
1
 40
1
 10
481.995020
 20
399.955000
 30
0.0
 10
480.284015
 20
399.955002
 30
0.0
 10
478.896972
 20
401.342045
 30
0.0
 10
478.896970
 20
403.053050
 30
0.0
  0
SPLINE
  5
236
100
AcDbEntity
  8
Layer_1
 62
7
100
AcDbSpline
 70
8
 71
3
 72
8
 73
4
 74
0
 40
0
 40
0
 40
0
 40
0
 40
1
 40
1
 40
1
 40
1
 10
478.896970
 20
403.053050
 30
0.0
 10
478.896972
 20
404.764055
 30
0.0
 10
480.284015
 20
406.151098
 30
0.0
 10
481.995020
 20
406.151100
 30
0.0
  0
SPLINE
  5
237
100
AcDbEntity
  8
Layer_1
 62
7
100
AcDbSpline
 70
8
 71
3
 72
8
 73
4
 74
0
 40
0
 40
0
 40
0
 40
0
 40
1
 40
1
 40
1
 40
1
 10
481.995020
 20
406.151100
 30
0.0
 10
483.706025
 20
406.151098
 30
0.0
 10
485.093068
 20
404.764055
 30
0.0
 10
485.093070
 20
403.053050
 30
0.0
  0
SPLINE
  5
238
100
AcDbEntity
  8
Layer_1
 62
7
100
AcDbSpline
 70
8
 71
3
 72
8
 73
4
 74
0
 40
0
 40
0
 40
0
 40
0
 40
1
 40
1
 40
1
 40
1
 10
485.093070
 20
403.053050
 30
0.0
 10
485.093068
 20
401.342045
 30
0.0
 10
483.706025
 20
399.955002
 30
0.0
 10
481.995020
 20
399.955000
 30
0.0
  0
LWPOLYLINE
  5
239
100
AcDbEntity
  8
Layer_1
 62
7
100
AcDbPolyline
 90
1
 70
1
 10
481.995020
 20
222.955000
 30
0.0
  0
SPLINE
  5
23a
100
AcDbEntity
  8
Layer_1
 62
7
100
AcDbSpline
 70
8
 71
3
 72
8
 73
4
 74
0
 40
0
 40
0
 40
0
 40
0
 40
1
 40
1
 40
1
 40
1
 10
539.995050
 20
399.953000
 30
0.0
 10
539.173395
 20
399.953001
 30
0.0
 10
538.385393
 20
400.279404
 30
0.0
 10
537.804396
 20
400.860403
 30
0.0
  0
SPLINE
  5
23b
100
AcDbEntity
  8
Layer_1
 62
7
100
AcDbSpline
 70
8
 71
3
 72
8
 73
4
 74
0
 40
0
 40
0
 40
0
 40
0
 40
1
 40
1
 40
1
 40
1
 10
537.804396
 20
400.860403
 30
0.0
 10
537.223398
 20
401.441402
 30
0.0
 10
536.896998
 20
402.229405
 30
0.0
 10
536.897000
 20
403.051060
 30
0.0
  0
SPLINE
  5
23c
100
AcDbEntity
  8
Layer_1
 62
7
100
AcDbSpline
 70
8
 71
3
 72
8
 73
4
 74
0
 40
0
 40
0
 40
0
 40
0
 40
1
 40
1
 40
1
 40
1
 10
536.897000
 20
403.051060
 30
0.0
 10
536.897002
 20
404.762065
 30
0.0
 10
538.284045
 20
406.149108
 30
0.0
 10
539.995050
 20
406.149110
 30
0.0
  0
SPLINE
  5
23d
100
AcDbEntity
  8
Layer_1
 62
7
100
AcDbSpline
 70
8
 71
3
 72
8
 73
4
 74
0
 40
0
 40
0
 40
0
 40
0
 40
1
 40
1
 40
1
 40
1
 10
539.995050
 20
406.149110
 30
0.0
 10
541.706055
 20
406.149108
 30
0.0
 10
543.093098
 20
404.762065
 30
0.0
 10
543.093100
 20
403.051060
 30
0.0
  0
SPLINE
  5
23e
100
AcDbEntity
  8
Layer_1
 62
7
100
AcDbSpline
 70
8
 71
3
 72
8
 73
4
 74
0
 40
0
 40
0
 40
0
 40
0
 40
1
 40
1
 40
1
 40
1
 10
543.093100
 20
403.051060
 30
0.0
 10
543.093102
 20
402.229405
 30
0.0
 10
542.766702
 20
401.441402
 30
0.0
 10
542.185704
 20
400.860403
 30
0.0
  0
SPLINE
  5
23f
100
AcDbEntity
  8
Layer_1
 62
7
100
AcDbSpline
 70
8
 71
3
 72
8
 73
4
 74
0
 40
0
 40
0
 40
0
 40
0
 40
1
 40
1
 40
1
 40
1
 10
542.185704
 20
400.860403
 30
0.0
 10
541.604707
 20
400.279404
 30
0.0
 10
540.816705
 20
399.953001
 30
0.0
 10
539.995050
 20
399.953000
 30
0.0
  0
LWPOLYLINE
  5
240
100
AcDbEntity
  8
Layer_1
 62
7
100
AcDbPolyline
 90
1
 70
1
 10
481.995020
 20
399.955000
 30
0.0
  0
SPLINE
  5
241
100
AcDbEntity
  8
Layer_1
 62
7
100
AcDbSpline
 70
8
 71
3
 72
8
 73
4
 74
0
 40
0
 40
0
 40
0
 40
0
 40
1
 40
1
 40
1
 40
1
 10
561.504050
 20
311.452090
 30
0.0
 10
559.793045
 20
311.452092
 30
0.0
 10
558.406002
 20
312.839135
 30
0.0
 10
558.406000
 20
314.550140
 30
0.0
  0
SPLINE
  5
242
100
AcDbEntity
  8
Layer_1
 62
7
100
AcDbSpline
 70
8
 71
3
 72
8
 73
4
 74
0
 40
0
 40
0
 40
0
 40
0
 40
1
 40
1
 40
1
 40
1
 10
558.406000
 20
314.550140
 30
0.0
 10
558.406002
 20
316.261145
 30
0.0
 10
559.793045
 20
317.648188
 30
0.0
 10
561.504050
 20
317.648190
 30
0.0
  0
SPLINE
  5
243
100
AcDbEntity
  8
Layer_1
 62
7
100
AcDbSpline
 70
8
 71
3
 72
8
 73
4
 74
0
 40
0
 40
0
 40
0
 40
0
 40
1
 40
1
 40
1
 40
1
 10
561.504050
 20
317.648190
 30
0.0
 10
562.325705
 20
317.648192
 30
0.0
 10
563.113708
 20
317.321792
 30
0.0
 10
563.694707
 20
316.740794
 30
0.0
  0
SPLINE
  5
244
100
AcDbEntity
  8
Layer_1
 62
7
100
AcDbSpline
 70
8
 71
3
 72
8
 73
4
 74
0
 40
0
 40
0
 40
0
 40
0
 40
1
 40
1
 40
1
 40
1
 10
563.694707
 20
316.740794
 30
0.0
 10
564.275706
 20
316.159797
 30
0.0
 10
564.602109
 20
315.371795
 30
0.0
 10
564.602110
 20
314.550140
 30
0.0
  0
SPLINE
  5
245
100
AcDbEntity
  8
Layer_1
 62
7
100
AcDbSpline
 70
8
 71
3
 72
8
 73
4
 74
0
 40
0
 40
0
 40
0
 40
0
 40
1
 40
1
 40
1
 40
1
 10
564.602110
 20
314.550140
 30
0.0
 10
564.602109
 20
313.728485
 30
0.0
 10
564.275706
 20
312.940483
 30
0.0
 10
563.694707
 20
312.359486
 30
0.0
  0
SPLINE
  5
246
100
AcDbEntity
  8
Layer_1
 62
7
100
AcDbSpline
 70
8
 71
3
 72
8
 73
4
 74
0
 40
0
 40
0
 40
0
 40
0
 40
1
 40
1
 40
1
 40
1
 10
563.694707
 20
312.359486
 30
0.0
 10
563.113708
 20
311.778488
 30
0.0
 10
562.325705
 20
311.452088
 30
0.0
 10
561.504050
 20
311.452090
 30
0.0
  0
LWPOLYLINE
  5
247
100
AcDbEntity
  8
Layer_1
 62
7
100
AcDbPolyline
 90
1
 70
1
 10
539.995050
 20
399.953000
 30
0.0
  0
SPLINE
  5
248
100
AcDbEntity
  8
Layer_1
 62
7
100
AcDbSpline
 70
8
 71
3
 72
8
 73
4
 74
0
 40
0
 40
0
 40
0
 40
0
 40
1
 40
1
 40
1
 40
1
 10
460.495050
 20
311.452090
 30
0.0
 10
458.784045
 20
311.452092
 30
0.0
 10
457.397002
 20
312.839135
 30
0.0
 10
457.397000
 20
314.550140
 30
0.0
  0
SPLINE
  5
249
100
AcDbEntity
  8
Layer_1
 62
7
100
AcDbSpline
 70
8
 71
3
 72
8
 73
4
 74
0
 40
0
 40
0
 40
0
 40
0
 40
1
 40
1
 40
1
 40
1
 10
457.397000
 20
314.550140
 30
0.0
 10
457.397002
 20
316.261145
 30
0.0
 10
458.784045
 20
317.648188
 30
0.0
 10
460.495050
 20
317.648190
 30
0.0
  0
SPLINE
  5
24a
100
AcDbEntity
  8
Layer_1
 62
7
100
AcDbSpline
 70
8
 71
3
 72
8
 73
4
 74
0
 40
0
 40
0
 40
0
 40
0
 40
1
 40
1
 40
1
 40
1
 10
460.495050
 20
317.648190
 30
0.0
 10
462.206055
 20
317.648188
 30
0.0
 10
463.593098
 20
316.261145
 30
0.0
 10
463.593100
 20
314.550140
 30
0.0
  0
SPLINE
  5
24b
100
AcDbEntity
  8
Layer_1
 62
7
100
AcDbSpline
 70
8
 71
3
 72
8
 73
4
 74
0
 40
0
 40
0
 40
0
 40
0
 40
1
 40
1
 40
1
 40
1
 10
463.593100
 20
314.550140
 30
0.0
 10
463.593098
 20
312.839135
 30
0.0
 10
462.206055
 20
311.452092
 30
0.0
 10
460.495050
 20
311.452090
 30
0.0
  0
LWPOLYLINE
  5
24c
100
AcDbEntity
  8
Layer_1
 62
7
100
AcDbPolyline
 90
1
 70
1
 10
561.504050
 20
311.452090
 30
0.0
  0
LWPOLYLINE
  5
24d
100
AcDbEntity
  8
Layer_1
 62
7
100
AcDbPolyline
 90
1
 70
1
 10
460.495050
 20
311.452090
 30
0.0
  0
SPLINE
  5
24e
100
AcDbEntity
  8
Layer_1
 62
7
100
AcDbSpline
 70
8
 71
3
 72
8
 73
4
 74
0
 40
0
 40
0
 40
0
 40
0
 40
1
 40
1
 40
1
 40
1
 10
97.791720
 20
403.015960
 30
0.0
 10
228.933030
 20
403.016410
 30
0.0
 10
298.575630
 20
403.015970
 30
0.0
 10
357.791730
 20
403.015960
 30
0.0
  0
LWPOLYLINE
  5
24f
100
AcDbEntity
  8
Layer_1
 62
7
100
AcDbPolyline
 90
5
 70
0
 10
17.791720
 20
403.015950
 30
0.0
 10
22.791720
 20
403.015950
 30
0.0
 10
22.791720
 20
423.015960
 30
0.0
 10
97.791720
 20
423.015960
 30
0.0
 10
97.791720
 20
403.015960
 30
0.0
  0
SPLINE
  5
250
100
AcDbEntity
  8
Layer_1
 62
7
100
AcDbSpline
 70
8
 71
3
 72
8
 73
4
 74
0
 40
0
 40
0
 40
0
 40
0
 40
1
 40
1
 40
1
 40
1
 10
427.472640
 20
229.500935
 30
0.0
 10
427.472640
 20
228.923209
 30
0.0
 10
427.243139
 20
228.369144
 30
0.0
 10
426.834625
 20
227.960630
 30
0.0
  0
SPLINE
  5
251
100
AcDbEntity
  8
Layer_1
 62
7
100
AcDbSpline
 70
8
 71
3
 72
8
 73
4
 74
0
 40
0
 40
0
 40
0
 40
0
 40
1
 40
1
 40
1
 40
1
 10
426.834625
 20
227.960630
 30
0.0
 10
426.426111
 20
227.552116
 30
0.0
 10
425.872046
 20
227.322615
 30
0.0
 10
425.294320
 20
227.322615
 30
0.0
  0
SPLINE
  5
252
100
AcDbEntity
  8
Layer_1
 62
7
100
AcDbSpline
 70
8
 71
3
 72
8
 73
4
 74
0
 40
0
 40
0
 40
0
 40
0
 40
1
 40
1
 40
1
 40
1
 10
425.294320
 20
227.322615
 30
0.0
 10
424.716594
 20
227.322615
 30
0.0
 10
424.162529
 20
227.552116
 30
0.0
 10
423.754015
 20
227.960630
 30
0.0
  0
SPLINE
  5
253
100
AcDbEntity
  8
Layer_1
 62
7
100
AcDbSpline
 70
8
 71
3
 72
8
 73
4
 74
0
 40
0
 40
0
 40
0
 40
0
 40
1
 40
1
 40
1
 40
1
 10
423.754015
 20
227.960630
 30
0.0
 10
423.345501
 20
228.369144
 30
0.0
 10
423.116000
 20
228.923209
 30
0.0
 10
423.116000
 20
229.500935
 30
0.0
  0
SPLINE
  5
254
100
AcDbEntity
  8
Layer_1
 62
7
100
AcDbSpline
 70
8
 71
3
 72
8
 73
4
 74
0
 40
0
 40
0
 40
0
 40
0
 40
1
 40
1
 40
1
 40
1
 10
423.116000
 20
229.500935
 30
0.0
 10
423.116000
 20
230.078661
 30
0.0
 10
423.345501
 20
230.632726
 30
0.0
 10
423.754015
 20
231.041240
 30
0.0
  0
SPLINE
  5
255
100
AcDbEntity
  8
Layer_1
 62
7
100
AcDbSpline
 70
8
 71
3
 72
8
 73
4
 74
0
 40
0
 40
0
 40
0
 40
0
 40
1
 40
1
 40
1
 40
1
 10
423.754015
 20
231.041240
 30
0.0
 10
424.162529
 20
231.449754
 30
0.0
 10
424.716594
 20
231.679255
 30
0.0
 10
425.294320
 20
231.679255
 30
0.0
  0
SPLINE
  5
256
100
AcDbEntity
  8
Layer_1
 62
7
100
AcDbSpline
 70
8
 71
3
 72
8
 73
4
 74
0
 40
0
 40
0
 40
0
 40
0
 40
1
 40
1
 40
1
 40
1
 10
425.294320
 20
231.679255
 30
0.0
 10
425.872046
 20
231.679255
 30
0.0
 10
426.426111
 20
231.449754
 30
0.0
 10
426.834625
 20
231.041240
 30
0.0
  0
SPLINE
  5
257
100
AcDbEntity
  8
Layer_1
 62
7
100
AcDbSpline
 70
8
 71
3
 72
8
 73
4
 74
0
 40
0
 40
0
 40
0
 40
0
 40
1
 40
1
 40
1
 40
1
 10
426.834625
 20
231.041240
 30
0.0
 10
427.243139
 20
230.632726
 30
0.0
 10
427.472640
 20
230.078661
 30
0.0
 10
427.472640
 20
229.500935
 30
0.0
  0
LWPOLYLINE
  5
258
100
AcDbEntity
  8
Layer_1
 62
7
100
AcDbPolyline
 90
16
 70
0
 10
357.791730
 20
403.015960
 30
0.0
 10
357.791730
 20
423.015960
 30
0.0
 10
432.791730
 20
423.015960
 30
0.0
 10
432.791730
 20
403.015960
 30
0.0
 10
437.791730
 20
403.015960
 30
0.0
 10
437.791730
 20
243.015955
 30
0.0
 10
432.791730
 20
243.015955
 30
0.0
 10
432.791730
 20
223.015955
 30
0.0
 10
357.791730
 20
223.015955
 30
0.0
 10
357.791730
 20
243.015955
 30
0.0
 10
97.791720
 20
243.015955
 30
0.0
 10
97.791720
 20
223.015955
 30
0.0
 10
22.791720
 20
223.015955
 30
0.0
 10
22.791720
 20
243.015955
 30
0.0
 10
17.791720
 20
243.015955
 30
0.0
 10
17.791720
 20
403.015950
 30
0.0
  0
SPLINE
  5
259
100
AcDbEntity
  8
Layer_1
 62
7
100
AcDbSpline
 70
8
 71
3
 72
8
 73
4
 74
0
 40
0
 40
0
 40
0
 40
0
 40
1
 40
1
 40
1
 40
1
 10
32.472640
 20
229.500935
 30
0.0
 10
32.472640
 20
228.923209
 30
0.0
 10
32.243139
 20
228.369144
 30
0.0
 10
31.834625
 20
227.960630
 30
0.0
  0
SPLINE
  5
25a
100
AcDbEntity
  8
Layer_1
 62
7
100
AcDbSpline
 70
8
 71
3
 72
8
 73
4
 74
0
 40
0
 40
0
 40
0
 40
0
 40
1
 40
1
 40
1
 40
1
 10
31.834625
 20
227.960630
 30
0.0
 10
31.426111
 20
227.552116
 30
0.0
 10
30.872046
 20
227.322615
 30
0.0
 10
30.294320
 20
227.322615
 30
0.0
  0
SPLINE
  5
25b
100
AcDbEntity
  8
Layer_1
 62
7
100
AcDbSpline
 70
8
 71
3
 72
8
 73
4
 74
0
 40
0
 40
0
 40
0
 40
0
 40
1
 40
1
 40
1
 40
1
 10
30.294320
 20
227.322615
 30
0.0
 10
29.716594
 20
227.322615
 30
0.0
 10
29.162529
 20
227.552116
 30
0.0
 10
28.754015
 20
227.960630
 30
0.0
  0
SPLINE
  5
25c
100
AcDbEntity
  8
Layer_1
 62
7
100
AcDbSpline
 70
8
 71
3
 72
8
 73
4
 74
0
 40
0
 40
0
 40
0
 40
0
 40
1
 40
1
 40
1
 40
1
 10
28.754015
 20
227.960630
 30
0.0
 10
28.345501
 20
228.369144
 30
0.0
 10
28.116000
 20
228.923209
 30
0.0
 10
28.116000
 20
229.500935
 30
0.0
  0
SPLINE
  5
25d
100
AcDbEntity
  8
Layer_1
 62
7
100
AcDbSpline
 70
8
 71
3
 72
8
 73
4
 74
0
 40
0
 40
0
 40
0
 40
0
 40
1
 40
1
 40
1
 40
1
 10
28.116000
 20
229.500935
 30
0.0
 10
28.116000
 20
230.078661
 30
0.0
 10
28.345501
 20
230.632726
 30
0.0
 10
28.754015
 20
231.041240
 30
0.0
  0
SPLINE
  5
25e
100
AcDbEntity
  8
Layer_1
 62
7
100
AcDbSpline
 70
8
 71
3
 72
8
 73
4
 74
0
 40
0
 40
0
 40
0
 40
0
 40
1
 40
1
 40
1
 40
1
 10
28.754015
 20
231.041240
 30
0.0
 10
29.162529
 20
231.449754
 30
0.0
 10
29.716594
 20
231.679255
 30
0.0
 10
30.294320
 20
231.679255
 30
0.0
  0
SPLINE
  5
25f
100
AcDbEntity
  8
Layer_1
 62
7
100
AcDbSpline
 70
8
 71
3
 72
8
 73
4
 74
0
 40
0
 40
0
 40
0
 40
0
 40
1
 40
1
 40
1
 40
1
 10
30.294320
 20
231.679255
 30
0.0
 10
30.872046
 20
231.679255
 30
0.0
 10
31.426111
 20
231.449754
 30
0.0
 10
31.834625
 20
231.041240
 30
0.0
  0
SPLINE
  5
260
100
AcDbEntity
  8
Layer_1
 62
7
100
AcDbSpline
 70
8
 71
3
 72
8
 73
4
 74
0
 40
0
 40
0
 40
0
 40
0
 40
1
 40
1
 40
1
 40
1
 10
31.834625
 20
231.041240
 30
0.0
 10
32.243139
 20
230.632726
 30
0.0
 10
32.472640
 20
230.078661
 30
0.0
 10
32.472640
 20
229.500935
 30
0.0
  0
LWPOLYLINE
  5
261
100
AcDbEntity
  8
Layer_1
 62
7
100
AcDbPolyline
 90
1
 70
1
 10
427.472640
 20
229.500935
 30
0.0
  0
SPLINE
  5
262
100
AcDbEntity
  8
Layer_1
 62
7
100
AcDbSpline
 70
8
 71
3
 72
8
 73
4
 74
0
 40
0
 40
0
 40
0
 40
0
 40
1
 40
1
 40
1
 40
1
 10
32.472640
 20
416.502890
 30
0.0
 10
32.472640
 20
415.925164
 30
0.0
 10
32.243139
 20
415.371099
 30
0.0
 10
31.834625
 20
414.962585
 30
0.0
  0
SPLINE
  5
263
100
AcDbEntity
  8
Layer_1
 62
7
100
AcDbSpline
 70
8
 71
3
 72
8
 73
4
 74
0
 40
0
 40
0
 40
0
 40
0
 40
1
 40
1
 40
1
 40
1
 10
31.834625
 20
414.962585
 30
0.0
 10
31.426111
 20
414.554071
 30
0.0
 10
30.872046
 20
414.324570
 30
0.0
 10
30.294320
 20
414.324570
 30
0.0
  0
SPLINE
  5
264
100
AcDbEntity
  8
Layer_1
 62
7
100
AcDbSpline
 70
8
 71
3
 72
8
 73
4
 74
0
 40
0
 40
0
 40
0
 40
0
 40
1
 40
1
 40
1
 40
1
 10
30.294320
 20
414.324570
 30
0.0
 10
29.716594
 20
414.324570
 30
0.0
 10
29.162529
 20
414.554071
 30
0.0
 10
28.754015
 20
414.962585
 30
0.0
  0
SPLINE
  5
265
100
AcDbEntity
  8
Layer_1
 62
7
100
AcDbSpline
 70
8
 71
3
 72
8
 73
4
 74
0
 40
0
 40
0
 40
0
 40
0
 40
1
 40
1
 40
1
 40
1
 10
28.754015
 20
414.962585
 30
0.0
 10
28.345501
 20
415.371099
 30
0.0
 10
28.116000
 20
415.925164
 30
0.0
 10
28.116000
 20
416.502890
 30
0.0
  0
SPLINE
  5
266
100
AcDbEntity
  8
Layer_1
 62
7
100
AcDbSpline
 70
8
 71
3
 72
8
 73
4
 74
0
 40
0
 40
0
 40
0
 40
0
 40
1
 40
1
 40
1
 40
1
 10
28.116000
 20
416.502890
 30
0.0
 10
28.116000
 20
417.080616
 30
0.0
 10
28.345501
 20
417.634681
 30
0.0
 10
28.754015
 20
418.043195
 30
0.0
  0
SPLINE
  5
267
100
AcDbEntity
  8
Layer_1
 62
7
100
AcDbSpline
 70
8
 71
3
 72
8
 73
4
 74
0
 40
0
 40
0
 40
0
 40
0
 40
1
 40
1
 40
1
 40
1
 10
28.754015
 20
418.043195
 30
0.0
 10
29.162529
 20
418.451709
 30
0.0
 10
29.716594
 20
418.681210
 30
0.0
 10
30.294320
 20
418.681210
 30
0.0
  0
SPLINE
  5
268
100
AcDbEntity
  8
Layer_1
 62
7
100
AcDbSpline
 70
8
 71
3
 72
8
 73
4
 74
0
 40
0
 40
0
 40
0
 40
0
 40
1
 40
1
 40
1
 40
1
 10
30.294320
 20
418.681210
 30
0.0
 10
30.872046
 20
418.681210
 30
0.0
 10
31.426111
 20
418.451709
 30
0.0
 10
31.834625
 20
418.043195
 30
0.0
  0
SPLINE
  5
269
100
AcDbEntity
  8
Layer_1
 62
7
100
AcDbSpline
 70
8
 71
3
 72
8
 73
4
 74
0
 40
0
 40
0
 40
0
 40
0
 40
1
 40
1
 40
1
 40
1
 10
31.834625
 20
418.043195
 30
0.0
 10
32.243139
 20
417.634681
 30
0.0
 10
32.472640
 20
417.080616
 30
0.0
 10
32.472640
 20
416.502890
 30
0.0
  0
LWPOLYLINE
  5
26a
100
AcDbEntity
  8
Layer_1
 62
7
100
AcDbPolyline
 90
1
 70
1
 10
32.472640
 20
229.500935
 30
0.0
  0
SPLINE
  5
26b
100
AcDbEntity
  8
Layer_1
 62
7
100
AcDbSpline
 70
8
 71
3
 72
8
 73
4
 74
0
 40
0
 40
0
 40
0
 40
0
 40
1
 40
1
 40
1
 40
1
 10
427.472640
 20
416.502890
 30
0.0
 10
427.472640
 20
415.925164
 30
0.0
 10
427.243139
 20
415.371099
 30
0.0
 10
426.834625
 20
414.962585
 30
0.0
  0
SPLINE
  5
26c
100
AcDbEntity
  8
Layer_1
 62
7
100
AcDbSpline
 70
8
 71
3
 72
8
 73
4
 74
0
 40
0
 40
0
 40
0
 40
0
 40
1
 40
1
 40
1
 40
1
 10
426.834625
 20
414.962585
 30
0.0
 10
426.426111
 20
414.554071
 30
0.0
 10
425.872046
 20
414.324570
 30
0.0
 10
425.294320
 20
414.324570
 30
0.0
  0
SPLINE
  5
26d
100
AcDbEntity
  8
Layer_1
 62
7
100
AcDbSpline
 70
8
 71
3
 72
8
 73
4
 74
0
 40
0
 40
0
 40
0
 40
0
 40
1
 40
1
 40
1
 40
1
 10
425.294320
 20
414.324570
 30
0.0
 10
424.716594
 20
414.324570
 30
0.0
 10
424.162529
 20
414.554071
 30
0.0
 10
423.754015
 20
414.962585
 30
0.0
  0
SPLINE
  5
26e
100
AcDbEntity
  8
Layer_1
 62
7
100
AcDbSpline
 70
8
 71
3
 72
8
 73
4
 74
0
 40
0
 40
0
 40
0
 40
0
 40
1
 40
1
 40
1
 40
1
 10
423.754015
 20
414.962585
 30
0.0
 10
423.345501
 20
415.371099
 30
0.0
 10
423.116000
 20
415.925164
 30
0.0
 10
423.116000
 20
416.502890
 30
0.0
  0
SPLINE
  5
26f
100
AcDbEntity
  8
Layer_1
 62
7
100
AcDbSpline
 70
8
 71
3
 72
8
 73
4
 74
0
 40
0
 40
0
 40
0
 40
0
 40
1
 40
1
 40
1
 40
1
 10
423.116000
 20
416.502890
 30
0.0
 10
423.116000
 20
417.080616
 30
0.0
 10
423.345501
 20
417.634681
 30
0.0
 10
423.754015
 20
418.043195
 30
0.0
  0
SPLINE
  5
270
100
AcDbEntity
  8
Layer_1
 62
7
100
AcDbSpline
 70
8
 71
3
 72
8
 73
4
 74
0
 40
0
 40
0
 40
0
 40
0
 40
1
 40
1
 40
1
 40
1
 10
423.754015
 20
418.043195
 30
0.0
 10
424.162529
 20
418.451709
 30
0.0
 10
424.716594
 20
418.681210
 30
0.0
 10
425.294320
 20
418.681210
 30
0.0
  0
SPLINE
  5
271
100
AcDbEntity
  8
Layer_1
 62
7
100
AcDbSpline
 70
8
 71
3
 72
8
 73
4
 74
0
 40
0
 40
0
 40
0
 40
0
 40
1
 40
1
 40
1
 40
1
 10
425.294320
 20
418.681210
 30
0.0
 10
425.872046
 20
418.681210
 30
0.0
 10
426.426111
 20
418.451709
 30
0.0
 10
426.834625
 20
418.043195
 30
0.0
  0
SPLINE
  5
272
100
AcDbEntity
  8
Layer_1
 62
7
100
AcDbSpline
 70
8
 71
3
 72
8
 73
4
 74
0
 40
0
 40
0
 40
0
 40
0
 40
1
 40
1
 40
1
 40
1
 10
426.834625
 20
418.043195
 30
0.0
 10
427.243139
 20
417.634681
 30
0.0
 10
427.472640
 20
417.080616
 30
0.0
 10
427.472640
 20
416.502890
 30
0.0
  0
LWPOLYLINE
  5
273
100
AcDbEntity
  8
Layer_1
 62
7
100
AcDbPolyline
 90
1
 70
1
 10
32.472640
 20
416.502890
 30
0.0
  0
SPLINE
  5
274
100
AcDbEntity
  8
Layer_1
 62
7
100
AcDbSpline
 70
8
 71
3
 72
8
 73
4
 74
0
 40
0
 40
0
 40
0
 40
0
 40
1
 40
1
 40
1
 40
1
 10
205.837750
 20
374.757723
 30
0.0
 10
205.837750
 20
373.554674
 30
0.0
 10
204.862489
 20
372.579408
 30
0.0
 10
203.659440
 20
372.579403
 30
0.0
  0
SPLINE
  5
275
100
AcDbEntity
  8
Layer_1
 62
7
100
AcDbSpline
 70
8
 71
3
 72
8
 73
4
 74
0
 40
0
 40
0
 40
0
 40
0
 40
1
 40
1
 40
1
 40
1
 10
203.659440
 20
372.579403
 30
0.0
 10
203.081714
 20
372.579403
 30
0.0
 10
202.527649
 20
372.808904
 30
0.0
 10
202.119135
 20
373.217418
 30
0.0
  0
SPLINE
  5
276
100
AcDbEntity
  8
Layer_1
 62
7
100
AcDbSpline
 70
8
 71
3
 72
8
 73
4
 74
0
 40
0
 40
0
 40
0
 40
0
 40
1
 40
1
 40
1
 40
1
 10
202.119135
 20
373.217418
 30
0.0
 10
201.710621
 20
373.625932
 30
0.0
 10
201.481120
 20
374.179997
 30
0.0
 10
201.481120
 20
374.757723
 30
0.0
  0
SPLINE
  5
277
100
AcDbEntity
  8
Layer_1
 62
7
100
AcDbSpline
 70
8
 71
3
 72
8
 73
4
 74
0
 40
0
 40
0
 40
0
 40
0
 40
1
 40
1
 40
1
 40
1
 10
201.481120
 20
374.757723
 30
0.0
 10
201.481120
 20
375.335449
 30
0.0
 10
201.710621
 20
375.889513
 30
0.0
 10
202.119135
 20
376.298027
 30
0.0
  0
SPLINE
  5
278
100
AcDbEntity
  8
Layer_1
 62
7
100
AcDbSpline
 70
8
 71
3
 72
8
 73
4
 74
0
 40
0
 40
0
 40
0
 40
0
 40
1
 40
1
 40
1
 40
1
 10
202.119135
 20
376.298027
 30
0.0
 10
202.527650
 20
376.706542
 30
0.0
 10
203.081714
 20
376.936042
 30
0.0
 10
203.659440
 20
376.936042
 30
0.0
  0
SPLINE
  5
279
100
AcDbEntity
  8
Layer_1
 62
7
100
AcDbSpline
 70
8
 71
3
 72
8
 73
4
 74
0
 40
0
 40
0
 40
0
 40
0
 40
1
 40
1
 40
1
 40
1
 10
203.659440
 20
376.936042
 30
0.0
 10
204.862489
 20
376.936037
 30
0.0
 10
205.837750
 20
375.960772
 30
0.0
 10
205.837750
 20
374.757723
 30
0.0
  0
LWPOLYLINE
  5
27a
100
AcDbEntity
  8
Layer_1
 62
7
100
AcDbPolyline
 90
1
 70
1
 10
427.472640
 20
416.502890
 30
0.0
  0
SPLINE
  5
27b
100
AcDbEntity
  8
Layer_1
 62
7
100
AcDbSpline
 70
8
 71
3
 72
8
 73
4
 74
0
 40
0
 40
0
 40
0
 40
0
 40
1
 40
1
 40
1
 40
1
 10
205.837750
 20
279.757319
 30
0.0
 10
205.837750
 20
278.554270
 30
0.0
 10
204.862489
 20
277.579005
 30
0.0
 10
203.659440
 20
277.579000
 30
0.0
  0
SPLINE
  5
27c
100
AcDbEntity
  8
Layer_1
 62
7
100
AcDbSpline
 70
8
 71
3
 72
8
 73
4
 74
0
 40
0
 40
0
 40
0
 40
0
 40
1
 40
1
 40
1
 40
1
 10
203.659440
 20
277.579000
 30
0.0
 10
203.081714
 20
277.579000
 30
0.0
 10
202.527650
 20
277.808501
 30
0.0
 10
202.119135
 20
278.217015
 30
0.0
  0
SPLINE
  5
27d
100
AcDbEntity
  8
Layer_1
 62
7
100
AcDbSpline
 70
8
 71
3
 72
8
 73
4
 74
0
 40
0
 40
0
 40
0
 40
0
 40
1
 40
1
 40
1
 40
1
 10
202.119135
 20
278.217015
 30
0.0
 10
201.710621
 20
278.625529
 30
0.0
 10
201.481120
 20
279.179593
 30
0.0
 10
201.481120
 20
279.757319
 30
0.0
  0
SPLINE
  5
27e
100
AcDbEntity
  8
Layer_1
 62
7
100
AcDbSpline
 70
8
 71
3
 72
8
 73
4
 74
0
 40
0
 40
0
 40
0
 40
0
 40
1
 40
1
 40
1
 40
1
 10
201.481120
 20
279.757319
 30
0.0
 10
201.481120
 20
280.335045
 30
0.0
 10
201.710621
 20
280.889110
 30
0.0
 10
202.119135
 20
281.297624
 30
0.0
  0
SPLINE
  5
27f
100
AcDbEntity
  8
Layer_1
 62
7
100
AcDbSpline
 70
8
 71
3
 72
8
 73
4
 74
0
 40
0
 40
0
 40
0
 40
0
 40
1
 40
1
 40
1
 40
1
 10
202.119135
 20
281.297624
 30
0.0
 10
202.527649
 20
281.706138
 30
0.0
 10
203.081714
 20
281.935639
 30
0.0
 10
203.659440
 20
281.935639
 30
0.0
  0
SPLINE
  5
280
100
AcDbEntity
  8
Layer_1
 62
7
100
AcDbSpline
 70
8
 71
3
 72
8
 73
4
 74
0
 40
0
 40
0
 40
0
 40
0
 40
1
 40
1
 40
1
 40
1
 10
203.659440
 20
281.935639
 30
0.0
 10
204.862489
 20
281.935634
 30
0.0
 10
205.837750
 20
280.960368
 30
0.0
 10
205.837750
 20
279.757319
 30
0.0
  0
LWPOLYLINE
  5
281
100
AcDbEntity
  8
Layer_1
 62
7
100
AcDbPolyline
 90
1
 70
1
 10
205.837750
 20
374.757723
 30
0.0
  0
SPLINE
  5
282
100
AcDbEntity
  8
Layer_1
 62
7
100
AcDbSpline
 70
8
 71
3
 72
8
 73
4
 74
0
 40
0
 40
0
 40
0
 40
0
 40
1
 40
1
 40
1
 40
1
 10
253.837750
 20
374.757723
 30
0.0
 10
253.837750
 20
373.554674
 30
0.0
 10
252.862489
 20
372.579408
 30
0.0
 10
251.659440
 20
372.579403
 30
0.0
  0
SPLINE
  5
283
100
AcDbEntity
  8
Layer_1
 62
7
100
AcDbSpline
 70
8
 71
3
 72
8
 73
4
 74
0
 40
0
 40
0
 40
0
 40
0
 40
1
 40
1
 40
1
 40
1
 10
251.659440
 20
372.579403
 30
0.0
 10
251.081714
 20
372.579403
 30
0.0
 10
250.527649
 20
372.808904
 30
0.0
 10
250.119135
 20
373.217418
 30
0.0
  0
SPLINE
  5
284
100
AcDbEntity
  8
Layer_1
 62
7
100
AcDbSpline
 70
8
 71
3
 72
8
 73
4
 74
0
 40
0
 40
0
 40
0
 40
0
 40
1
 40
1
 40
1
 40
1
 10
250.119135
 20
373.217418
 30
0.0
 10
249.710621
 20
373.625932
 30
0.0
 10
249.481120
 20
374.179997
 30
0.0
 10
249.481120
 20
374.757723
 30
0.0
  0
SPLINE
  5
285
100
AcDbEntity
  8
Layer_1
 62
7
100
AcDbSpline
 70
8
 71
3
 72
8
 73
4
 74
0
 40
0
 40
0
 40
0
 40
0
 40
1
 40
1
 40
1
 40
1
 10
249.481120
 20
374.757723
 30
0.0
 10
249.481120
 20
375.335449
 30
0.0
 10
249.710621
 20
375.889513
 30
0.0
 10
250.119135
 20
376.298027
 30
0.0
  0
SPLINE
  5
286
100
AcDbEntity
  8
Layer_1
 62
7
100
AcDbSpline
 70
8
 71
3
 72
8
 73
4
 74
0
 40
0
 40
0
 40
0
 40
0
 40
1
 40
1
 40
1
 40
1
 10
250.119135
 20
376.298027
 30
0.0
 10
250.527650
 20
376.706542
 30
0.0
 10
251.081714
 20
376.936042
 30
0.0
 10
251.659440
 20
376.936042
 30
0.0
  0
SPLINE
  5
287
100
AcDbEntity
  8
Layer_1
 62
7
100
AcDbSpline
 70
8
 71
3
 72
8
 73
4
 74
0
 40
0
 40
0
 40
0
 40
0
 40
1
 40
1
 40
1
 40
1
 10
251.659440
 20
376.936042
 30
0.0
 10
252.862489
 20
376.936037
 30
0.0
 10
253.837750
 20
375.960772
 30
0.0
 10
253.837750
 20
374.757723
 30
0.0
  0
LWPOLYLINE
  5
288
100
AcDbEntity
  8
Layer_1
 62
7
100
AcDbPolyline
 90
1
 70
1
 10
205.837750
 20
279.757319
 30
0.0
  0
SPLINE
  5
289
100
AcDbEntity
  8
Layer_1
 62
7
100
AcDbSpline
 70
8
 71
3
 72
8
 73
4
 74
0
 40
0
 40
0
 40
0
 40
0
 40
1
 40
1
 40
1
 40
1
 10
253.837750
 20
279.757319
 30
0.0
 10
253.837750
 20
278.554270
 30
0.0
 10
252.862489
 20
277.579005
 30
0.0
 10
251.659440
 20
277.579000
 30
0.0
  0
SPLINE
  5
28a
100
AcDbEntity
  8
Layer_1
 62
7
100
AcDbSpline
 70
8
 71
3
 72
8
 73
4
 74
0
 40
0
 40
0
 40
0
 40
0
 40
1
 40
1
 40
1
 40
1
 10
251.659440
 20
277.579000
 30
0.0
 10
251.081714
 20
277.579000
 30
0.0
 10
250.527650
 20
277.808501
 30
0.0
 10
250.119135
 20
278.217015
 30
0.0
  0
SPLINE
  5
28b
100
AcDbEntity
  8
Layer_1
 62
7
100
AcDbSpline
 70
8
 71
3
 72
8
 73
4
 74
0
 40
0
 40
0
 40
0
 40
0
 40
1
 40
1
 40
1
 40
1
 10
250.119135
 20
278.217015
 30
0.0
 10
249.710621
 20
278.625529
 30
0.0
 10
249.481120
 20
279.179593
 30
0.0
 10
249.481120
 20
279.757319
 30
0.0
  0
SPLINE
  5
28c
100
AcDbEntity
  8
Layer_1
 62
7
100
AcDbSpline
 70
8
 71
3
 72
8
 73
4
 74
0
 40
0
 40
0
 40
0
 40
0
 40
1
 40
1
 40
1
 40
1
 10
249.481120
 20
279.757319
 30
0.0
 10
249.481120
 20
280.335045
 30
0.0
 10
249.710621
 20
280.889110
 30
0.0
 10
250.119135
 20
281.297624
 30
0.0
  0
SPLINE
  5
28d
100
AcDbEntity
  8
Layer_1
 62
7
100
AcDbSpline
 70
8
 71
3
 72
8
 73
4
 74
0
 40
0
 40
0
 40
0
 40
0
 40
1
 40
1
 40
1
 40
1
 10
250.119135
 20
281.297624
 30
0.0
 10
250.527649
 20
281.706138
 30
0.0
 10
251.081714
 20
281.935639
 30
0.0
 10
251.659440
 20
281.935639
 30
0.0
  0
SPLINE
  5
28e
100
AcDbEntity
  8
Layer_1
 62
7
100
AcDbSpline
 70
8
 71
3
 72
8
 73
4
 74
0
 40
0
 40
0
 40
0
 40
0
 40
1
 40
1
 40
1
 40
1
 10
251.659440
 20
281.935639
 30
0.0
 10
252.862489
 20
281.935634
 30
0.0
 10
253.837750
 20
280.960368
 30
0.0
 10
253.837750
 20
279.757319
 30
0.0
  0
LWPOLYLINE
  5
28f
100
AcDbEntity
  8
Layer_1
 62
7
100
AcDbPolyline
 90
1
 70
1
 10
253.837750
 20
374.757723
 30
0.0
  0
SPLINE
  5
290
100
AcDbEntity
  8
Layer_1
 62
7
100
AcDbSpline
 70
8
 71
3
 72
8
 73
4
 74
0
 40
0
 40
0
 40
0
 40
0
 40
1
 40
1
 40
1
 40
1
 10
230.321830
 20
367.257318
 30
0.0
 10
230.321830
 20
366.551208
 30
0.0
 10
230.041329
 20
365.874019
 30
0.0
 10
229.542034
 20
365.374723
 30
0.0
  0
SPLINE
  5
291
100
AcDbEntity
  8
Layer_1
 62
7
100
AcDbSpline
 70
8
 71
3
 72
8
 73
4
 74
0
 40
0
 40
0
 40
0
 40
0
 40
1
 40
1
 40
1
 40
1
 10
229.542034
 20
365.374723
 30
0.0
 10
229.042739
 20
364.875428
 30
0.0
 10
228.365550
 20
364.594927
 30
0.0
 10
227.659440
 20
364.594927
 30
0.0
  0
SPLINE
  5
292
100
AcDbEntity
  8
Layer_1
 62
7
100
AcDbSpline
 70
8
 71
3
 72
8
 73
4
 74
0
 40
0
 40
0
 40
0
 40
0
 40
1
 40
1
 40
1
 40
1
 10
227.659440
 20
364.594927
 30
0.0
 10
226.953330
 20
364.594927
 30
0.0
 10
226.276141
 20
364.875428
 30
0.0
 10
225.776846
 20
365.374723
 30
0.0
  0
SPLINE
  5
293
100
AcDbEntity
  8
Layer_1
 62
7
100
AcDbSpline
 70
8
 71
3
 72
8
 73
4
 74
0
 40
0
 40
0
 40
0
 40
0
 40
1
 40
1
 40
1
 40
1
 10
225.776846
 20
365.374723
 30
0.0
 10
225.277551
 20
365.874019
 30
0.0
 10
224.997050
 20
366.551208
 30
0.0
 10
224.997050
 20
367.257318
 30
0.0
  0
SPLINE
  5
294
100
AcDbEntity
  8
Layer_1
 62
7
100
AcDbSpline
 70
8
 71
3
 72
8
 73
4
 74
0
 40
0
 40
0
 40
0
 40
0
 40
1
 40
1
 40
1
 40
1
 10
224.997050
 20
367.257318
 30
0.0
 10
224.997050
 20
368.727715
 30
0.0
 10
226.189043
 20
369.919708
 30
0.0
 10
227.659440
 20
369.919708
 30
0.0
  0
SPLINE
  5
295
100
AcDbEntity
  8
Layer_1
 62
7
100
AcDbSpline
 70
8
 71
3
 72
8
 73
4
 74
0
 40
0
 40
0
 40
0
 40
0
 40
1
 40
1
 40
1
 40
1
 10
227.659440
 20
369.919708
 30
0.0
 10
229.129837
 20
369.919708
 30
0.0
 10
230.321830
 20
368.727715
 30
0.0
 10
230.321830
 20
367.257318
 30
0.0
  0
LWPOLYLINE
  5
296
100
AcDbEntity
  8
Layer_1
 62
7
100
AcDbPolyline
 90
1
 70
1
 10
253.837750
 20
279.757319
 30
0.0
  0
SPLINE
  5
297
100
AcDbEntity
  8
Layer_1
 62
7
100
AcDbSpline
 70
8
 71
3
 72
8
 73
4
 74
0
 40
0
 40
0
 40
0
 40
0
 40
1
 40
1
 40
1
 40
1
 10
230.321830
 20
287.257319
 30
0.0
 10
230.321830
 20
285.786922
 30
0.0
 10
229.129837
 20
284.594929
 30
0.0
 10
227.659440
 20
284.594929
 30
0.0
  0
SPLINE
  5
298
100
AcDbEntity
  8
Layer_1
 62
7
100
AcDbSpline
 70
8
 71
3
 72
8
 73
4
 74
0
 40
0
 40
0
 40
0
 40
0
 40
1
 40
1
 40
1
 40
1
 10
227.659440
 20
284.594929
 30
0.0
 10
226.189043
 20
284.594929
 30
0.0
 10
224.997050
 20
285.786922
 30
0.0
 10
224.997050
 20
287.257319
 30
0.0
  0
SPLINE
  5
299
100
AcDbEntity
  8
Layer_1
 62
7
100
AcDbSpline
 70
8
 71
3
 72
8
 73
4
 74
0
 40
0
 40
0
 40
0
 40
0
 40
1
 40
1
 40
1
 40
1
 10
224.997050
 20
287.257319
 30
0.0
 10
224.997050
 20
287.963429
 30
0.0
 10
225.277551
 20
288.640618
 30
0.0
 10
225.776846
 20
289.139914
 30
0.0
  0
SPLINE
  5
29a
100
AcDbEntity
  8
Layer_1
 62
7
100
AcDbSpline
 70
8
 71
3
 72
8
 73
4
 74
0
 40
0
 40
0
 40
0
 40
0
 40
1
 40
1
 40
1
 40
1
 10
225.776846
 20
289.139914
 30
0.0
 10
226.276141
 20
289.639209
 30
0.0
 10
226.953330
 20
289.919710
 30
0.0
 10
227.659440
 20
289.919710
 30
0.0
  0
SPLINE
  5
29b
100
AcDbEntity
  8
Layer_1
 62
7
100
AcDbSpline
 70
8
 71
3
 72
8
 73
4
 74
0
 40
0
 40
0
 40
0
 40
0
 40
1
 40
1
 40
1
 40
1
 10
227.659440
 20
289.919710
 30
0.0
 10
228.365550
 20
289.919710
 30
0.0
 10
229.042739
 20
289.639209
 30
0.0
 10
229.542034
 20
289.139914
 30
0.0
  0
SPLINE
  5
29c
100
AcDbEntity
  8
Layer_1
 62
7
100
AcDbSpline
 70
8
 71
3
 72
8
 73
4
 74
0
 40
0
 40
0
 40
0
 40
0
 40
1
 40
1
 40
1
 40
1
 10
229.542034
 20
289.139914
 30
0.0
 10
230.041329
 20
288.640618
 30
0.0
 10
230.321830
 20
287.963429
 30
0.0
 10
230.321830
 20
287.257319
 30
0.0
  0
LWPOLYLINE
  5
29d
100
AcDbEntity
  8
Layer_1
 62
7
100
AcDbPolyline
 90
1
 70
1
 10
230.321830
 20
367.257318
 30
0.0
  0
SPLINE
  5
29e
100
AcDbEntity
  8
Layer_1
 62
7
100
AcDbSpline
 70
8
 71
3
 72
8
 73
4
 74
0
 40
0
 40
0
 40
0
 40
0
 40
1
 40
1
 40
1
 40
1
 10
32.460630
 20
323.003161
 30
0.0
 10
32.460630
 20
322.425435
 30
0.0
 10
32.231129
 20
321.871371
 30
0.0
 10
31.822615
 20
321.462857
 30
0.0
  0
SPLINE
  5
29f
100
AcDbEntity
  8
Layer_1
 62
7
100
AcDbSpline
 70
8
 71
3
 72
8
 73
4
 74
0
 40
0
 40
0
 40
0
 40
0
 40
1
 40
1
 40
1
 40
1
 10
31.822615
 20
321.462857
 30
0.0
 10
31.414100
 20
321.054343
 30
0.0
 10
30.860036
 20
320.824842
 30
0.0
 10
30.282310
 20
320.824842
 30
0.0
  0
SPLINE
  5
2a0
100
AcDbEntity
  8
Layer_1
 62
7
100
AcDbSpline
 70
8
 71
3
 72
8
 73
4
 74
0
 40
0
 40
0
 40
0
 40
0
 40
1
 40
1
 40
1
 40
1
 10
30.282310
 20
320.824842
 30
0.0
 10
29.079261
 20
320.824847
 30
0.0
 10
28.104000
 20
321.800112
 30
0.0
 10
28.104000
 20
323.003161
 30
0.0
  0
SPLINE
  5
2a1
100
AcDbEntity
  8
Layer_1
 62
7
100
AcDbSpline
 70
8
 71
3
 72
8
 73
4
 74
0
 40
0
 40
0
 40
0
 40
0
 40
1
 40
1
 40
1
 40
1
 10
28.104000
 20
323.003161
 30
0.0
 10
28.104000
 20
324.206210
 30
0.0
 10
29.079261
 20
325.181475
 30
0.0
 10
30.282310
 20
325.181480
 30
0.0
  0
SPLINE
  5
2a2
100
AcDbEntity
  8
Layer_1
 62
7
100
AcDbSpline
 70
8
 71
3
 72
8
 73
4
 74
0
 40
0
 40
0
 40
0
 40
0
 40
1
 40
1
 40
1
 40
1
 10
30.282310
 20
325.181480
 30
0.0
 10
30.860036
 20
325.181480
 30
0.0
 10
31.414100
 20
324.951980
 30
0.0
 10
31.822615
 20
324.543465
 30
0.0
  0
SPLINE
  5
2a3
100
AcDbEntity
  8
Layer_1
 62
7
100
AcDbSpline
 70
8
 71
3
 72
8
 73
4
 74
0
 40
0
 40
0
 40
0
 40
0
 40
1
 40
1
 40
1
 40
1
 10
31.822615
 20
324.543465
 30
0.0
 10
32.231129
 20
324.134951
 30
0.0
 10
32.460630
 20
323.580887
 30
0.0
 10
32.460630
 20
323.003161
 30
0.0
  0
LWPOLYLINE
  5
2a4
100
AcDbEntity
  8
Layer_1
 62
7
100
AcDbPolyline
 90
1
 70
1
 10
230.321830
 20
287.257319
 30
0.0
  0
SPLINE
  5
2a5
100
AcDbEntity
  8
Layer_1
 62
7
100
AcDbSpline
 70
8
 71
3
 72
8
 73
4
 74
0
 40
0
 40
0
 40
0
 40
0
 40
1
 40
1
 40
1
 40
1
 10
427.480640
 20
323.003161
 30
0.0
 10
427.480640
 20
322.425435
 30
0.0
 10
427.251139
 20
321.871371
 30
0.0
 10
426.842625
 20
321.462857
 30
0.0
  0
SPLINE
  5
2a6
100
AcDbEntity
  8
Layer_1
 62
7
100
AcDbSpline
 70
8
 71
3
 72
8
 73
4
 74
0
 40
0
 40
0
 40
0
 40
0
 40
1
 40
1
 40
1
 40
1
 10
426.842625
 20
321.462857
 30
0.0
 10
426.434110
 20
321.054343
 30
0.0
 10
425.880046
 20
320.824842
 30
0.0
 10
425.302320
 20
320.824842
 30
0.0
  0
SPLINE
  5
2a7
100
AcDbEntity
  8
Layer_1
 62
7
100
AcDbSpline
 70
8
 71
3
 72
8
 73
4
 74
0
 40
0
 40
0
 40
0
 40
0
 40
1
 40
1
 40
1
 40
1
 10
425.302320
 20
320.824842
 30
0.0
 10
424.724594
 20
320.824842
 30
0.0
 10
424.170530
 20
321.054343
 30
0.0
 10
423.762015
 20
321.462857
 30
0.0
  0
SPLINE
  5
2a8
100
AcDbEntity
  8
Layer_1
 62
7
100
AcDbSpline
 70
8
 71
3
 72
8
 73
4
 74
0
 40
0
 40
0
 40
0
 40
0
 40
1
 40
1
 40
1
 40
1
 10
423.762015
 20
321.462857
 30
0.0
 10
423.353501
 20
321.871371
 30
0.0
 10
423.124000
 20
322.425435
 30
0.0
 10
423.124000
 20
323.003161
 30
0.0
  0
SPLINE
  5
2a9
100
AcDbEntity
  8
Layer_1
 62
7
100
AcDbSpline
 70
8
 71
3
 72
8
 73
4
 74
0
 40
0
 40
0
 40
0
 40
0
 40
1
 40
1
 40
1
 40
1
 10
423.124000
 20
323.003161
 30
0.0
 10
423.124000
 20
323.580887
 30
0.0
 10
423.353501
 20
324.134951
 30
0.0
 10
423.762015
 20
324.543465
 30
0.0
  0
SPLINE
  5
2aa
100
AcDbEntity
  8
Layer_1
 62
7
100
AcDbSpline
 70
8
 71
3
 72
8
 73
4
 74
0
 40
0
 40
0
 40
0
 40
0
 40
1
 40
1
 40
1
 40
1
 10
423.762015
 20
324.543465
 30
0.0
 10
424.170530
 20
324.951980
 30
0.0
 10
424.724594
 20
325.181480
 30
0.0
 10
425.302320
 20
325.181480
 30
0.0
  0
SPLINE
  5
2ab
100
AcDbEntity
  8
Layer_1
 62
7
100
AcDbSpline
 70
8
 71
3
 72
8
 73
4
 74
0
 40
0
 40
0
 40
0
 40
0
 40
1
 40
1
 40
1
 40
1
 10
425.302320
 20
325.181480
 30
0.0
 10
425.880046
 20
325.181480
 30
0.0
 10
426.434110
 20
324.951980
 30
0.0
 10
426.842625
 20
324.543465
 30
0.0
  0
SPLINE
  5
2ac
100
AcDbEntity
  8
Layer_1
 62
7
100
AcDbSpline
 70
8
 71
3
 72
8
 73
4
 74
0
 40
0
 40
0
 40
0
 40
0
 40
1
 40
1
 40
1
 40
1
 10
426.842625
 20
324.543465
 30
0.0
 10
427.251139
 20
324.134951
 30
0.0
 10
427.480640
 20
323.580887
 30
0.0
 10
427.480640
 20
323.003161
 30
0.0
  0
LWPOLYLINE
  5
2ad
100
AcDbEntity
  8
Layer_1
 62
7
100
AcDbPolyline
 90
1
 70
1
 10
32.460630
 20
323.003161
 30
0.0
  0
SPLINE
  5
2ae
100
AcDbEntity
  8
Layer_1
 62
7
100
AcDbSpline
 70
8
 71
3
 72
8
 73
4
 74
0
 40
0
 40
0
 40
0
 40
0
 40
1
 40
1
 40
1
 40
1
 10
271.310090
 20
157.061590
 30
0.0
 10
271.310091
 20
158.528320
 30
0.0
 10
272.499110
 20
159.717339
 30
0.0
 10
273.965840
 20
159.717340
 30
0.0
  0
SPLINE
  5
2af
100
AcDbEntity
  8
Layer_1
 62
7
100
AcDbSpline
 70
8
 71
3
 72
8
 73
4
 74
0
 40
0
 40
0
 40
0
 40
0
 40
1
 40
1
 40
1
 40
1
 10
273.965840
 20
159.717340
 30
0.0
 10
275.432570
 20
159.717339
 30
0.0
 10
276.621589
 20
158.528320
 30
0.0
 10
276.621590
 20
157.061590
 30
0.0
  0
SPLINE
  5
2b0
100
AcDbEntity
  8
Layer_1
 62
7
100
AcDbSpline
 70
8
 71
3
 72
8
 73
4
 74
0
 40
0
 40
0
 40
0
 40
0
 40
1
 40
1
 40
1
 40
1
 10
276.621590
 20
157.061590
 30
0.0
 10
276.621589
 20
155.594860
 30
0.0
 10
275.432570
 20
154.405841
 30
0.0
 10
273.965840
 20
154.405840
 30
0.0
  0
SPLINE
  5
2b1
100
AcDbEntity
  8
Layer_1
 62
7
100
AcDbSpline
 70
8
 71
3
 72
8
 73
4
 74
0
 40
0
 40
0
 40
0
 40
0
 40
1
 40
1
 40
1
 40
1
 10
273.965840
 20
154.405840
 30
0.0
 10
272.499110
 20
154.405841
 30
0.0
 10
271.310091
 20
155.594860
 30
0.0
 10
271.310090
 20
157.061590
 30
0.0
  0
LWPOLYLINE
  5
2b2
100
AcDbEntity
  8
Layer_1
 62
7
100
AcDbPolyline
 90
1
 70
1
 10
427.480640
 20
323.003161
 30
0.0
  0
SPLINE
  5
2b3
100
AcDbEntity
  8
Layer_1
 62
7
100
AcDbSpline
 70
8
 71
3
 72
8
 73
4
 74
0
 40
0
 40
0
 40
0
 40
0
 40
1
 40
1
 40
1
 40
1
 10
182.060090
 20
157.061590
 30
0.0
 10
182.060091
 20
158.528320
 30
0.0
 10
183.249110
 20
159.717339
 30
0.0
 10
184.715840
 20
159.717340
 30
0.0
  0
SPLINE
  5
2b4
100
AcDbEntity
  8
Layer_1
 62
7
100
AcDbSpline
 70
8
 71
3
 72
8
 73
4
 74
0
 40
0
 40
0
 40
0
 40
0
 40
1
 40
1
 40
1
 40
1
 10
184.715840
 20
159.717340
 30
0.0
 10
186.182570
 20
159.717339
 30
0.0
 10
187.371589
 20
158.528320
 30
0.0
 10
187.371590
 20
157.061590
 30
0.0
  0
SPLINE
  5
2b5
100
AcDbEntity
  8
Layer_1
 62
7
100
AcDbSpline
 70
8
 71
3
 72
8
 73
4
 74
0
 40
0
 40
0
 40
0
 40
0
 40
1
 40
1
 40
1
 40
1
 10
187.371590
 20
157.061590
 30
0.0
 10
187.371589
 20
155.594860
 30
0.0
 10
186.182570
 20
154.405841
 30
0.0
 10
184.715840
 20
154.405840
 30
0.0
  0
SPLINE
  5
2b6
100
AcDbEntity
  8
Layer_1
 62
7
100
AcDbSpline
 70
8
 71
3
 72
8
 73
4
 74
0
 40
0
 40
0
 40
0
 40
0
 40
1
 40
1
 40
1
 40
1
 10
184.715840
 20
154.405840
 30
0.0
 10
183.249110
 20
154.405841
 30
0.0
 10
182.060091
 20
155.594860
 30
0.0
 10
182.060090
 20
157.061590
 30
0.0
  0
LWPOLYLINE
  5
2b7
100
AcDbEntity
  8
Layer_1
 62
7
100
AcDbPolyline
 90
1
 70
1
 10
271.310090
 20
157.061590
 30
0.0
  0
SPLINE
  5
2b8
100
AcDbEntity
  8
Layer_1
 62
7
100
AcDbSpline
 70
8
 71
3
 72
8
 73
4
 74
0
 40
0
 40
0
 40
0
 40
0
 40
1
 40
1
 40
1
 40
1
 10
271.310090
 20
67.061600
 30
0.0
 10
271.310088
 20
67.765950
 30
0.0
 10
271.589888
 20
68.441453
 30
0.0
 10
272.087938
 20
68.939505
 30
0.0
  0
SPLINE
  5
2b9
100
AcDbEntity
  8
Layer_1
 62
7
100
AcDbSpline
 70
8
 71
3
 72
8
 73
4
 74
0
 40
0
 40
0
 40
0
 40
0
 40
1
 40
1
 40
1
 40
1
 10
272.087938
 20
68.939505
 30
0.0
 10
272.585988
 20
69.437557
 30
0.0
 10
273.261490
 20
69.717359
 30
0.0
 10
273.965840
 20
69.717360
 30
0.0
  0
SPLINE
  5
2ba
100
AcDbEntity
  8
Layer_1
 62
7
100
AcDbSpline
 70
8
 71
3
 72
8
 73
4
 74
0
 40
0
 40
0
 40
0
 40
0
 40
1
 40
1
 40
1
 40
1
 10
273.965840
 20
69.717360
 30
0.0
 10
274.670190
 20
69.717359
 30
0.0
 10
275.345692
 20
69.437557
 30
0.0
 10
275.843742
 20
68.939505
 30
0.0
  0
SPLINE
  5
2bb
100
AcDbEntity
  8
Layer_1
 62
7
100
AcDbSpline
 70
8
 71
3
 72
8
 73
4
 74
0
 40
0
 40
0
 40
0
 40
0
 40
1
 40
1
 40
1
 40
1
 10
275.843742
 20
68.939505
 30
0.0
 10
276.341792
 20
68.441453
 30
0.0
 10
276.621592
 20
67.765950
 30
0.0
 10
276.621590
 20
67.061600
 30
0.0
  0
SPLINE
  5
2bc
100
AcDbEntity
  8
Layer_1
 62
7
100
AcDbSpline
 70
8
 71
3
 72
8
 73
4
 74
0
 40
0
 40
0
 40
0
 40
0
 40
1
 40
1
 40
1
 40
1
 10
276.621590
 20
67.061600
 30
0.0
 10
276.621589
 20
65.594870
 30
0.0
 10
275.432570
 20
64.405851
 30
0.0
 10
273.965840
 20
64.405850
 30
0.0
  0
SPLINE
  5
2bd
100
AcDbEntity
  8
Layer_1
 62
7
100
AcDbSpline
 70
8
 71
3
 72
8
 73
4
 74
0
 40
0
 40
0
 40
0
 40
0
 40
1
 40
1
 40
1
 40
1
 10
273.965840
 20
64.405850
 30
0.0
 10
272.499110
 20
64.405851
 30
0.0
 10
271.310091
 20
65.594870
 30
0.0
 10
271.310090
 20
67.061600
 30
0.0
  0
LWPOLYLINE
  5
2be
100
AcDbEntity
  8
Layer_1
 62
7
100
AcDbPolyline
 90
1
 70
1
 10
182.060090
 20
157.061590
 30
0.0
  0
SPLINE
  5
2bf
100
AcDbEntity
  8
Layer_1
 62
7
100
AcDbSpline
 70
8
 71
3
 72
8
 73
4
 74
0
 40
0
 40
0
 40
0
 40
0
 40
1
 40
1
 40
1
 40
1
 10
182.060090
 20
67.061600
 30
0.0
 10
182.060088
 20
67.765950
 30
0.0
 10
182.339888
 20
68.441453
 30
0.0
 10
182.837938
 20
68.939505
 30
0.0
  0
SPLINE
  5
2c0
100
AcDbEntity
  8
Layer_1
 62
7
100
AcDbSpline
 70
8
 71
3
 72
8
 73
4
 74
0
 40
0
 40
0
 40
0
 40
0
 40
1
 40
1
 40
1
 40
1
 10
182.837938
 20
68.939505
 30
0.0
 10
183.335988
 20
69.437557
 30
0.0
 10
184.011490
 20
69.717359
 30
0.0
 10
184.715840
 20
69.717360
 30
0.0
  0
SPLINE
  5
2c1
100
AcDbEntity
  8
Layer_1
 62
7
100
AcDbSpline
 70
8
 71
3
 72
8
 73
4
 74
0
 40
0
 40
0
 40
0
 40
0
 40
1
 40
1
 40
1
 40
1
 10
184.715840
 20
69.717360
 30
0.0
 10
185.420190
 20
69.717359
 30
0.0
 10
186.095692
 20
69.437557
 30
0.0
 10
186.593742
 20
68.939505
 30
0.0
  0
SPLINE
  5
2c2
100
AcDbEntity
  8
Layer_1
 62
7
100
AcDbSpline
 70
8
 71
3
 72
8
 73
4
 74
0
 40
0
 40
0
 40
0
 40
0
 40
1
 40
1
 40
1
 40
1
 10
186.593742
 20
68.939505
 30
0.0
 10
187.091792
 20
68.441453
 30
0.0
 10
187.371592
 20
67.765950
 30
0.0
 10
187.371590
 20
67.061600
 30
0.0
  0
SPLINE
  5
2c3
100
AcDbEntity
  8
Layer_1
 62
7
100
AcDbSpline
 70
8
 71
3
 72
8
 73
4
 74
0
 40
0
 40
0
 40
0
 40
0
 40
1
 40
1
 40
1
 40
1
 10
187.371590
 20
67.061600
 30
0.0
 10
187.371589
 20
65.594870
 30
0.0
 10
186.182570
 20
64.405851
 30
0.0
 10
184.715840
 20
64.405850
 30
0.0
  0
SPLINE
  5
2c4
100
AcDbEntity
  8
Layer_1
 62
7
100
AcDbSpline
 70
8
 71
3
 72
8
 73
4
 74
0
 40
0
 40
0
 40
0
 40
0
 40
1
 40
1
 40
1
 40
1
 10
184.715840
 20
64.405850
 30
0.0
 10
183.249110
 20
64.405851
 30
0.0
 10
182.060091
 20
65.594870
 30
0.0
 10
182.060090
 20
67.061600
 30
0.0
  0
LWPOLYLINE
  5
2c5
100
AcDbEntity
  8
Layer_1
 62
7
100
AcDbPolyline
 90
1
 70
1
 10
271.310090
 20
67.061600
 30
0.0
  0
LWPOLYLINE
  5
2c6
100
AcDbEntity
  8
Layer_1
 62
7
100
AcDbPolyline
 90
1
 70
1
 10
182.060090
 20
67.061600
 30
0.0
  0
SPLINE
  5
2c7
100
AcDbEntity
  8
Layer_1
 62
7
100
AcDbSpline
 70
8
 71
3
 72
8
 73
4
 74
0
 40
0
 40
0
 40
0
 40
0
 40
1
 40
1
 40
1
 40
1
 10
359.216500
 20
29.866040
 30
0.0
 10
228.075310
 20
29.865590
 30
0.0
 10
158.432710
 20
29.866030
 30
0.0
 10
99.216610
 20
29.866040
 30
0.0
  0
LWPOLYLINE
  5
2c8
100
AcDbEntity
  8
Layer_1
 62
7
100
AcDbPolyline
 90
5
 70
0
 10
439.216300
 20
29.866040
 30
0.0
 10
434.216300
 20
29.866040
 30
0.0
 10
434.216300
 20
9.866040
 30
0.0
 10
359.216500
 20
9.866040
 30
0.0
 10
359.216500
 20
29.866040
 30
0.0
  0
SPLINE
  5
2c9
100
AcDbEntity
  8
Layer_1
 62
7
100
AcDbSpline
 70
8
 71
3
 72
8
 73
4
 74
0
 40
0
 40
0
 40
0
 40
0
 40
1
 40
1
 40
1
 40
1
 10
29.539000
 20
203.390940
 30
0.0
 10
29.539005
 20
204.593989
 30
0.0
 10
30.514271
 20
205.569250
 30
0.0
 10
31.717320
 20
205.569250
 30
0.0
  0
SPLINE
  5
2ca
100
AcDbEntity
  8
Layer_1
 62
7
100
AcDbSpline
 70
8
 71
3
 72
8
 73
4
 74
0
 40
0
 40
0
 40
0
 40
0
 40
1
 40
1
 40
1
 40
1
 10
31.717320
 20
205.569250
 30
0.0
 10
32.920369
 20
205.569250
 30
0.0
 10
33.895635
 20
204.593989
 30
0.0
 10
33.895640
 20
203.390940
 30
0.0
  0
SPLINE
  5
2cb
100
AcDbEntity
  8
Layer_1
 62
7
100
AcDbSpline
 70
8
 71
3
 72
8
 73
4
 74
0
 40
0
 40
0
 40
0
 40
0
 40
1
 40
1
 40
1
 40
1
 10
33.895640
 20
203.390940
 30
0.0
 10
33.895640
 20
202.813214
 30
0.0
 10
33.666139
 20
202.259149
 30
0.0
 10
33.257625
 20
201.850635
 30
0.0
  0
SPLINE
  5
2cc
100
AcDbEntity
  8
Layer_1
 62
7
100
AcDbSpline
 70
8
 71
3
 72
8
 73
4
 74
0
 40
0
 40
0
 40
0
 40
0
 40
1
 40
1
 40
1
 40
1
 10
33.257625
 20
201.850635
 30
0.0
 10
32.849111
 20
201.442121
 30
0.0
 10
32.295046
 20
201.212620
 30
0.0
 10
31.717320
 20
201.212620
 30
0.0
  0
SPLINE
  5
2cd
100
AcDbEntity
  8
Layer_1
 62
7
100
AcDbSpline
 70
8
 71
3
 72
8
 73
4
 74
0
 40
0
 40
0
 40
0
 40
0
 40
1
 40
1
 40
1
 40
1
 10
31.717320
 20
201.212620
 30
0.0
 10
31.139594
 20
201.212620
 30
0.0
 10
30.585529
 20
201.442121
 30
0.0
 10
30.177015
 20
201.850635
 30
0.0
  0
SPLINE
  5
2ce
100
AcDbEntity
  8
Layer_1
 62
7
100
AcDbSpline
 70
8
 71
3
 72
8
 73
4
 74
0
 40
0
 40
0
 40
0
 40
0
 40
1
 40
1
 40
1
 40
1
 10
30.177015
 20
201.850635
 30
0.0
 10
29.768501
 20
202.259149
 30
0.0
 10
29.539000
 20
202.813214
 30
0.0
 10
29.539000
 20
203.390940
 30
0.0
  0
LWPOLYLINE
  5
2cf
100
AcDbEntity
  8
Layer_1
 62
7
100
AcDbPolyline
 90
16
 70
0
 10
99.216610
 20
29.866040
 30
0.0
 10
99.216610
 20
9.866040
 30
0.0
 10
24.216510
 20
9.866040
 30
0.0
 10
24.216510
 20
29.866040
 30
0.0
 10
19.216510
 20
29.866040
 30
0.0
 10
19.216510
 20
189.866030
 30
0.0
 10
24.216510
 20
189.866030
 30
0.0
 10
24.216510
 20
209.866040
 30
0.0
 10
99.216610
 20
209.866040
 30
0.0
 10
99.216610
 20
189.866030
 30
0.0
 10
359.216500
 20
189.866030
 30
0.0
 10
359.216500
 20
209.866040
 30
0.0
 10
434.216300
 20
209.866040
 30
0.0
 10
434.216300
 20
189.866030
 30
0.0
 10
439.216300
 20
189.866030
 30
0.0
 10
439.216300
 20
29.866040
 30
0.0
  0
SPLINE
  5
2d0
100
AcDbEntity
  8
Layer_1
 62
7
100
AcDbSpline
 70
8
 71
3
 72
8
 73
4
 74
0
 40
0
 40
0
 40
0
 40
0
 40
1
 40
1
 40
1
 40
1
 10
424.539000
 20
203.390940
 30
0.0
 10
424.539005
 20
204.593989
 30
0.0
 10
425.514271
 20
205.569250
 30
0.0
 10
426.717320
 20
205.569250
 30
0.0
  0
SPLINE
  5
2d1
100
AcDbEntity
  8
Layer_1
 62
7
100
AcDbSpline
 70
8
 71
3
 72
8
 73
4
 74
0
 40
0
 40
0
 40
0
 40
0
 40
1
 40
1
 40
1
 40
1
 10
426.717320
 20
205.569250
 30
0.0
 10
427.920369
 20
205.569250
 30
0.0
 10
428.895635
 20
204.593989
 30
0.0
 10
428.895640
 20
203.390940
 30
0.0
  0
SPLINE
  5
2d2
100
AcDbEntity
  8
Layer_1
 62
7
100
AcDbSpline
 70
8
 71
3
 72
8
 73
4
 74
0
 40
0
 40
0
 40
0
 40
0
 40
1
 40
1
 40
1
 40
1
 10
428.895640
 20
203.390940
 30
0.0
 10
428.895640
 20
202.813214
 30
0.0
 10
428.666139
 20
202.259149
 30
0.0
 10
428.257625
 20
201.850635
 30
0.0
  0
SPLINE
  5
2d3
100
AcDbEntity
  8
Layer_1
 62
7
100
AcDbSpline
 70
8
 71
3
 72
8
 73
4
 74
0
 40
0
 40
0
 40
0
 40
0
 40
1
 40
1
 40
1
 40
1
 10
428.257625
 20
201.850635
 30
0.0
 10
427.849111
 20
201.442121
 30
0.0
 10
427.295046
 20
201.212620
 30
0.0
 10
426.717320
 20
201.212620
 30
0.0
  0
SPLINE
  5
2d4
100
AcDbEntity
  8
Layer_1
 62
7
100
AcDbSpline
 70
8
 71
3
 72
8
 73
4
 74
0
 40
0
 40
0
 40
0
 40
0
 40
1
 40
1
 40
1
 40
1
 10
426.717320
 20
201.212620
 30
0.0
 10
426.139594
 20
201.212620
 30
0.0
 10
425.585529
 20
201.442121
 30
0.0
 10
425.177015
 20
201.850635
 30
0.0
  0
SPLINE
  5
2d5
100
AcDbEntity
  8
Layer_1
 62
7
100
AcDbSpline
 70
8
 71
3
 72
8
 73
4
 74
0
 40
0
 40
0
 40
0
 40
0
 40
1
 40
1
 40
1
 40
1
 10
425.177015
 20
201.850635
 30
0.0
 10
424.768501
 20
202.259149
 30
0.0
 10
424.539000
 20
202.813214
 30
0.0
 10
424.539000
 20
203.390940
 30
0.0
  0
LWPOLYLINE
  5
2d6
100
AcDbEntity
  8
Layer_1
 62
7
100
AcDbPolyline
 90
1
 70
1
 10
29.539000
 20
203.390940
 30
0.0
  0
SPLINE
  5
2d7
100
AcDbEntity
  8
Layer_1
 62
7
100
AcDbSpline
 70
8
 71
3
 72
8
 73
4
 74
0
 40
0
 40
0
 40
0
 40
0
 40
1
 40
1
 40
1
 40
1
 10
424.539000
 20
16.388970
 30
0.0
 10
424.539000
 20
16.966696
 30
0.0
 10
424.768501
 20
17.520761
 30
0.0
 10
425.177015
 20
17.929275
 30
0.0
  0
SPLINE
  5
2d8
100
AcDbEntity
  8
Layer_1
 62
7
100
AcDbSpline
 70
8
 71
3
 72
8
 73
4
 74
0
 40
0
 40
0
 40
0
 40
0
 40
1
 40
1
 40
1
 40
1
 10
425.177015
 20
17.929275
 30
0.0
 10
425.585529
 20
18.337789
 30
0.0
 10
426.139594
 20
18.567290
 30
0.0
 10
426.717320
 20
18.567290
 30
0.0
  0
SPLINE
  5
2d9
100
AcDbEntity
  8
Layer_1
 62
7
100
AcDbSpline
 70
8
 71
3
 72
8
 73
4
 74
0
 40
0
 40
0
 40
0
 40
0
 40
1
 40
1
 40
1
 40
1
 10
426.717320
 20
18.567290
 30
0.0
 10
427.295046
 20
18.567290
 30
0.0
 10
427.849111
 20
18.337789
 30
0.0
 10
428.257625
 20
17.929275
 30
0.0
  0
SPLINE
  5
2da
100
AcDbEntity
  8
Layer_1
 62
7
100
AcDbSpline
 70
8
 71
3
 72
8
 73
4
 74
0
 40
0
 40
0
 40
0
 40
0
 40
1
 40
1
 40
1
 40
1
 10
428.257625
 20
17.929275
 30
0.0
 10
428.666139
 20
17.520761
 30
0.0
 10
428.895640
 20
16.966696
 30
0.0
 10
428.895640
 20
16.388970
 30
0.0
  0
SPLINE
  5
2db
100
AcDbEntity
  8
Layer_1
 62
7
100
AcDbSpline
 70
8
 71
3
 72
8
 73
4
 74
0
 40
0
 40
0
 40
0
 40
0
 40
1
 40
1
 40
1
 40
1
 10
428.895640
 20
16.388970
 30
0.0
 10
428.895640
 20
15.811244
 30
0.0
 10
428.666139
 20
15.257179
 30
0.0
 10
428.257625
 20
14.848665
 30
0.0
  0
SPLINE
  5
2dc
100
AcDbEntity
  8
Layer_1
 62
7
100
AcDbSpline
 70
8
 71
3
 72
8
 73
4
 74
0
 40
0
 40
0
 40
0
 40
0
 40
1
 40
1
 40
1
 40
1
 10
428.257625
 20
14.848665
 30
0.0
 10
427.849111
 20
14.440151
 30
0.0
 10
427.295046
 20
14.210650
 30
0.0
 10
426.717320
 20
14.210650
 30
0.0
  0
SPLINE
  5
2dd
100
AcDbEntity
  8
Layer_1
 62
7
100
AcDbSpline
 70
8
 71
3
 72
8
 73
4
 74
0
 40
0
 40
0
 40
0
 40
0
 40
1
 40
1
 40
1
 40
1
 10
426.717320
 20
14.210650
 30
0.0
 10
426.139594
 20
14.210650
 30
0.0
 10
425.585529
 20
14.440151
 30
0.0
 10
425.177015
 20
14.848665
 30
0.0
  0
SPLINE
  5
2de
100
AcDbEntity
  8
Layer_1
 62
7
100
AcDbSpline
 70
8
 71
3
 72
8
 73
4
 74
0
 40
0
 40
0
 40
0
 40
0
 40
1
 40
1
 40
1
 40
1
 10
425.177015
 20
14.848665
 30
0.0
 10
424.768501
 20
15.257179
 30
0.0
 10
424.539000
 20
15.811244
 30
0.0
 10
424.539000
 20
16.388970
 30
0.0
  0
LWPOLYLINE
  5
2df
100
AcDbEntity
  8
Layer_1
 62
7
100
AcDbPolyline
 90
1
 70
1
 10
424.539000
 20
203.390940
 30
0.0
  0
SPLINE
  5
2e0
100
AcDbEntity
  8
Layer_1
 62
7
100
AcDbSpline
 70
8
 71
3
 72
8
 73
4
 74
0
 40
0
 40
0
 40
0
 40
0
 40
1
 40
1
 40
1
 40
1
 10
29.539000
 20
16.388970
 30
0.0
 10
29.539000
 20
16.966696
 30
0.0
 10
29.768501
 20
17.520761
 30
0.0
 10
30.177015
 20
17.929275
 30
0.0
  0
SPLINE
  5
2e1
100
AcDbEntity
  8
Layer_1
 62
7
100
AcDbSpline
 70
8
 71
3
 72
8
 73
4
 74
0
 40
0
 40
0
 40
0
 40
0
 40
1
 40
1
 40
1
 40
1
 10
30.177015
 20
17.929275
 30
0.0
 10
30.585529
 20
18.337789
 30
0.0
 10
31.139594
 20
18.567290
 30
0.0
 10
31.717320
 20
18.567290
 30
0.0
  0
SPLINE
  5
2e2
100
AcDbEntity
  8
Layer_1
 62
7
100
AcDbSpline
 70
8
 71
3
 72
8
 73
4
 74
0
 40
0
 40
0
 40
0
 40
0
 40
1
 40
1
 40
1
 40
1
 10
31.717320
 20
18.567290
 30
0.0
 10
32.295046
 20
18.567290
 30
0.0
 10
32.849111
 20
18.337789
 30
0.0
 10
33.257625
 20
17.929275
 30
0.0
  0
SPLINE
  5
2e3
100
AcDbEntity
  8
Layer_1
 62
7
100
AcDbSpline
 70
8
 71
3
 72
8
 73
4
 74
0
 40
0
 40
0
 40
0
 40
0
 40
1
 40
1
 40
1
 40
1
 10
33.257625
 20
17.929275
 30
0.0
 10
33.666139
 20
17.520761
 30
0.0
 10
33.895640
 20
16.966696
 30
0.0
 10
33.895640
 20
16.388970
 30
0.0
  0
SPLINE
  5
2e4
100
AcDbEntity
  8
Layer_1
 62
7
100
AcDbSpline
 70
8
 71
3
 72
8
 73
4
 74
0
 40
0
 40
0
 40
0
 40
0
 40
1
 40
1
 40
1
 40
1
 10
33.895640
 20
16.388970
 30
0.0
 10
33.895640
 20
15.811244
 30
0.0
 10
33.666139
 20
15.257179
 30
0.0
 10
33.257625
 20
14.848665
 30
0.0
  0
SPLINE
  5
2e5
100
AcDbEntity
  8
Layer_1
 62
7
100
AcDbSpline
 70
8
 71
3
 72
8
 73
4
 74
0
 40
0
 40
0
 40
0
 40
0
 40
1
 40
1
 40
1
 40
1
 10
33.257625
 20
14.848665
 30
0.0
 10
32.849111
 20
14.440151
 30
0.0
 10
32.295046
 20
14.210650
 30
0.0
 10
31.717320
 20
14.210650
 30
0.0
  0
SPLINE
  5
2e6
100
AcDbEntity
  8
Layer_1
 62
7
100
AcDbSpline
 70
8
 71
3
 72
8
 73
4
 74
0
 40
0
 40
0
 40
0
 40
0
 40
1
 40
1
 40
1
 40
1
 10
31.717320
 20
14.210650
 30
0.0
 10
31.139594
 20
14.210650
 30
0.0
 10
30.585529
 20
14.440151
 30
0.0
 10
30.177015
 20
14.848665
 30
0.0
  0
SPLINE
  5
2e7
100
AcDbEntity
  8
Layer_1
 62
7
100
AcDbSpline
 70
8
 71
3
 72
8
 73
4
 74
0
 40
0
 40
0
 40
0
 40
0
 40
1
 40
1
 40
1
 40
1
 10
30.177015
 20
14.848665
 30
0.0
 10
29.768501
 20
15.257179
 30
0.0
 10
29.539000
 20
15.811244
 30
0.0
 10
29.539000
 20
16.388970
 30
0.0
  0
LWPOLYLINE
  5
2e8
100
AcDbEntity
  8
Layer_1
 62
7
100
AcDbPolyline
 90
1
 70
1
 10
424.539000
 20
16.388970
 30
0.0
  0
SPLINE
  5
2e9
100
AcDbEntity
  8
Layer_1
 62
7
100
AcDbSpline
 70
8
 71
3
 72
8
 73
4
 74
0
 40
0
 40
0
 40
0
 40
0
 40
1
 40
1
 40
1
 40
1
 10
424.547000
 20
109.888360
 30
0.0
 10
424.547000
 20
110.466086
 30
0.0
 10
424.776501
 20
111.020151
 30
0.0
 10
425.185015
 20
111.428665
 30
0.0
  0
SPLINE
  5
2ea
100
AcDbEntity
  8
Layer_1
 62
7
100
AcDbSpline
 70
8
 71
3
 72
8
 73
4
 74
0
 40
0
 40
0
 40
0
 40
0
 40
1
 40
1
 40
1
 40
1
 10
425.185015
 20
111.428665
 30
0.0
 10
425.593529
 20
111.837179
 30
0.0
 10
426.147594
 20
112.066680
 30
0.0
 10
426.725320
 20
112.066680
 30
0.0
  0
SPLINE
  5
2eb
100
AcDbEntity
  8
Layer_1
 62
7
100
AcDbSpline
 70
8
 71
3
 72
8
 73
4
 74
0
 40
0
 40
0
 40
0
 40
0
 40
1
 40
1
 40
1
 40
1
 10
426.725320
 20
112.066680
 30
0.0
 10
427.303046
 20
112.066680
 30
0.0
 10
427.857111
 20
111.837179
 30
0.0
 10
428.265625
 20
111.428665
 30
0.0
  0
SPLINE
  5
2ec
100
AcDbEntity
  8
Layer_1
 62
7
100
AcDbSpline
 70
8
 71
3
 72
8
 73
4
 74
0
 40
0
 40
0
 40
0
 40
0
 40
1
 40
1
 40
1
 40
1
 10
428.265625
 20
111.428665
 30
0.0
 10
428.674139
 20
111.020151
 30
0.0
 10
428.903640
 20
110.466086
 30
0.0
 10
428.903640
 20
109.888360
 30
0.0
  0
SPLINE
  5
2ed
100
AcDbEntity
  8
Layer_1
 62
7
100
AcDbSpline
 70
8
 71
3
 72
8
 73
4
 74
0
 40
0
 40
0
 40
0
 40
0
 40
1
 40
1
 40
1
 40
1
 10
428.903640
 20
109.888360
 30
0.0
 10
428.903640
 20
109.310634
 30
0.0
 10
428.674139
 20
108.756569
 30
0.0
 10
428.265625
 20
108.348055
 30
0.0
  0
SPLINE
  5
2ee
100
AcDbEntity
  8
Layer_1
 62
7
100
AcDbSpline
 70
8
 71
3
 72
8
 73
4
 74
0
 40
0
 40
0
 40
0
 40
0
 40
1
 40
1
 40
1
 40
1
 10
428.265625
 20
108.348055
 30
0.0
 10
427.857111
 20
107.939541
 30
0.0
 10
427.303046
 20
107.710040
 30
0.0
 10
426.725320
 20
107.710040
 30
0.0
  0
SPLINE
  5
2ef
100
AcDbEntity
  8
Layer_1
 62
7
100
AcDbSpline
 70
8
 71
3
 72
8
 73
4
 74
0
 40
0
 40
0
 40
0
 40
0
 40
1
 40
1
 40
1
 40
1
 10
426.725320
 20
107.710040
 30
0.0
 10
426.147594
 20
107.710040
 30
0.0
 10
425.593529
 20
107.939541
 30
0.0
 10
425.185015
 20
108.348055
 30
0.0
  0
SPLINE
  5
2f0
100
AcDbEntity
  8
Layer_1
 62
7
100
AcDbSpline
 70
8
 71
3
 72
8
 73
4
 74
0
 40
0
 40
0
 40
0
 40
0
 40
1
 40
1
 40
1
 40
1
 10
425.185015
 20
108.348055
 30
0.0
 10
424.776501
 20
108.756569
 30
0.0
 10
424.547000
 20
109.310634
 30
0.0
 10
424.547000
 20
109.888360
 30
0.0
  0
LWPOLYLINE
  5
2f1
100
AcDbEntity
  8
Layer_1
 62
7
100
AcDbPolyline
 90
1
 70
1
 10
29.539000
 20
16.388970
 30
0.0
  0
SPLINE
  5
2f2
100
AcDbEntity
  8
Layer_1
 62
7
100
AcDbSpline
 70
8
 71
3
 72
8
 73
4
 74
0
 40
0
 40
0
 40
0
 40
0
 40
1
 40
1
 40
1
 40
1
 10
29.528000
 20
109.988350
 30
0.0
 10
29.528000
 20
111.191399
 30
0.0
 10
30.503261
 20
112.166665
 30
0.0
 10
31.706310
 20
112.166670
 30
0.0
  0
SPLINE
  5
2f3
100
AcDbEntity
  8
Layer_1
 62
7
100
AcDbSpline
 70
8
 71
3
 72
8
 73
4
 74
0
 40
0
 40
0
 40
0
 40
0
 40
1
 40
1
 40
1
 40
1
 10
31.706310
 20
112.166670
 30
0.0
 10
32.284036
 20
112.166670
 30
0.0
 10
32.838101
 20
111.937169
 30
0.0
 10
33.246615
 20
111.528655
 30
0.0
  0
SPLINE
  5
2f4
100
AcDbEntity
  8
Layer_1
 62
7
100
AcDbSpline
 70
8
 71
3
 72
8
 73
4
 74
0
 40
0
 40
0
 40
0
 40
0
 40
1
 40
1
 40
1
 40
1
 10
33.246615
 20
111.528655
 30
0.0
 10
33.655129
 20
111.120141
 30
0.0
 10
33.884630
 20
110.566076
 30
0.0
 10
33.884630
 20
109.988350
 30
0.0
  0
SPLINE
  5
2f5
100
AcDbEntity
  8
Layer_1
 62
7
100
AcDbSpline
 70
8
 71
3
 72
8
 73
4
 74
0
 40
0
 40
0
 40
0
 40
0
 40
1
 40
1
 40
1
 40
1
 10
33.884630
 20
109.988350
 30
0.0
 10
33.884630
 20
109.410624
 30
0.0
 10
33.655129
 20
108.856559
 30
0.0
 10
33.246615
 20
108.448045
 30
0.0
  0
SPLINE
  5
2f6
100
AcDbEntity
  8
Layer_1
 62
7
100
AcDbSpline
 70
8
 71
3
 72
8
 73
4
 74
0
 40
0
 40
0
 40
0
 40
0
 40
1
 40
1
 40
1
 40
1
 10
33.246615
 20
108.448045
 30
0.0
 10
32.838101
 20
108.039531
 30
0.0
 10
32.284036
 20
107.810030
 30
0.0
 10
31.706310
 20
107.810030
 30
0.0
  0
SPLINE
  5
2f7
100
AcDbEntity
  8
Layer_1
 62
7
100
AcDbSpline
 70
8
 71
3
 72
8
 73
4
 74
0
 40
0
 40
0
 40
0
 40
0
 40
1
 40
1
 40
1
 40
1
 10
31.706310
 20
107.810030
 30
0.0
 10
30.503261
 20
107.810035
 30
0.0
 10
29.528000
 20
108.785301
 30
0.0
 10
29.528000
 20
109.988350
 30
0.0
  0
LWPOLYLINE
  5
2f8
100
AcDbEntity
  8
Layer_1
 62
7
100
AcDbPolyline
 90
1
 70
1
 10
424.547000
 20
109.888360
 30
0.0
  0
SPLINE
  5
2f9
100
AcDbEntity
  8
Layer_1
 62
7
100
AcDbSpline
 70
8
 71
3
 72
8
 73
4
 74
0
 40
0
 40
0
 40
0
 40
0
 40
1
 40
1
 40
1
 40
1
 10
408.020140
 20
57.955600
 30
0.0
 10
408.020138
 20
58.777255
 30
0.0
 10
408.346538
 20
59.565258
 30
0.0
 10
408.927536
 20
60.146257
 30
0.0
  0
SPLINE
  5
2fa
100
AcDbEntity
  8
Layer_1
 62
7
100
AcDbSpline
 70
8
 71
3
 72
8
 73
4
 74
0
 40
0
 40
0
 40
0
 40
0
 40
1
 40
1
 40
1
 40
1
 10
408.927536
 20
60.146257
 30
0.0
 10
409.508533
 20
60.727256
 30
0.0
 10
410.296535
 20
61.053659
 30
0.0
 10
411.118190
 20
61.053660
 30
0.0
  0
SPLINE
  5
2fb
100
AcDbEntity
  8
Layer_1
 62
7
100
AcDbSpline
 70
8
 71
3
 72
8
 73
4
 74
0
 40
0
 40
0
 40
0
 40
0
 40
1
 40
1
 40
1
 40
1
 10
411.118190
 20
61.053660
 30
0.0
 10
411.939847
 20
61.053662
 30
0.0
 10
412.727852
 20
60.727260
 30
0.0
 10
413.308851
 20
60.146261
 30
0.0
  0
SPLINE
  5
2fc
100
AcDbEntity
  8
Layer_1
 62
7
100
AcDbSpline
 70
8
 71
3
 72
8
 73
4
 74
0
 40
0
 40
0
 40
0
 40
0
 40
1
 40
1
 40
1
 40
1
 10
413.308851
 20
60.146261
 30
0.0
 10
413.889850
 20
59.565262
 30
0.0
 10
414.216252
 20
58.777257
 30
0.0
 10
414.216250
 20
57.955600
 30
0.0
  0
SPLINE
  5
2fd
100
AcDbEntity
  8
Layer_1
 62
7
100
AcDbSpline
 70
8
 71
3
 72
8
 73
4
 74
0
 40
0
 40
0
 40
0
 40
0
 40
1
 40
1
 40
1
 40
1
 10
414.216250
 20
57.955600
 30
0.0
 10
414.216249
 20
57.133945
 30
0.0
 10
413.889846
 20
56.345943
 30
0.0
 10
413.308847
 20
55.764946
 30
0.0
  0
SPLINE
  5
2fe
100
AcDbEntity
  8
Layer_1
 62
7
100
AcDbSpline
 70
8
 71
3
 72
8
 73
4
 74
0
 40
0
 40
0
 40
0
 40
0
 40
1
 40
1
 40
1
 40
1
 10
413.308847
 20
55.764946
 30
0.0
 10
412.727848
 20
55.183948
 30
0.0
 10
411.939845
 20
54.857548
 30
0.0
 10
411.118190
 20
54.857550
 30
0.0
  0
SPLINE
  5
2ff
100
AcDbEntity
  8
Layer_1
 62
7
100
AcDbSpline
 70
8
 71
3
 72
8
 73
4
 74
0
 40
0
 40
0
 40
0
 40
0
 40
1
 40
1
 40
1
 40
1
 10
411.118190
 20
54.857550
 30
0.0
 10
409.407185
 20
54.857552
 30
0.0
 10
408.020142
 20
56.244595
 30
0.0
 10
408.020140
 20
57.955600
 30
0.0
  0
LWPOLYLINE
  5
300
100
AcDbEntity
  8
Layer_1
 62
7
100
AcDbPolyline
 90
1
 70
1
 10
29.528000
 20
109.988350
 30
0.0
  0
SPLINE
  5
301
100
AcDbEntity
  8
Layer_1
 62
7
100
AcDbSpline
 70
8
 71
3
 72
8
 73
4
 74
0
 40
0
 40
0
 40
0
 40
0
 40
1
 40
1
 40
1
 40
1
 10
408.020140
 20
161.765600
 30
0.0
 10
408.020142
 20
163.476605
 30
0.0
 10
409.407185
 20
164.863648
 30
0.0
 10
411.118190
 20
164.863650
 30
0.0
  0
SPLINE
  5
302
100
AcDbEntity
  8
Layer_1
 62
7
100
AcDbSpline
 70
8
 71
3
 72
8
 73
4
 74
0
 40
0
 40
0
 40
0
 40
0
 40
1
 40
1
 40
1
 40
1
 10
411.118190
 20
164.863650
 30
0.0
 10
411.939845
 20
164.863652
 30
0.0
 10
412.727848
 20
164.537252
 30
0.0
 10
413.308847
 20
163.956254
 30
0.0
  0
SPLINE
  5
303
100
AcDbEntity
  8
Layer_1
 62
7
100
AcDbSpline
 70
8
 71
3
 72
8
 73
4
 74
0
 40
0
 40
0
 40
0
 40
0
 40
1
 40
1
 40
1
 40
1
 10
413.308847
 20
163.956254
 30
0.0
 10
413.889846
 20
163.375257
 30
0.0
 10
414.216249
 20
162.587255
 30
0.0
 10
414.216250
 20
161.765600
 30
0.0
  0
SPLINE
  5
304
100
AcDbEntity
  8
Layer_1
 62
7
100
AcDbSpline
 70
8
 71
3
 72
8
 73
4
 74
0
 40
0
 40
0
 40
0
 40
0
 40
1
 40
1
 40
1
 40
1
 10
414.216250
 20
161.765600
 30
0.0
 10
414.216249
 20
160.943945
 30
0.0
 10
413.889846
 20
160.155943
 30
0.0
 10
413.308847
 20
159.574946
 30
0.0
  0
SPLINE
  5
305
100
AcDbEntity
  8
Layer_1
 62
7
100
AcDbSpline
 70
8
 71
3
 72
8
 73
4
 74
0
 40
0
 40
0
 40
0
 40
0
 40
1
 40
1
 40
1
 40
1
 10
413.308847
 20
159.574946
 30
0.0
 10
412.727848
 20
158.993948
 30
0.0
 10
411.939845
 20
158.667548
 30
0.0
 10
411.118190
 20
158.667550
 30
0.0
  0
SPLINE
  5
306
100
AcDbEntity
  8
Layer_1
 62
7
100
AcDbSpline
 70
8
 71
3
 72
8
 73
4
 74
0
 40
0
 40
0
 40
0
 40
0
 40
1
 40
1
 40
1
 40
1
 10
411.118190
 20
158.667550
 30
0.0
 10
409.407185
 20
158.667552
 30
0.0
 10
408.020142
 20
160.054595
 30
0.0
 10
408.020140
 20
161.765600
 30
0.0
  0
LWPOLYLINE
  5
307
100
AcDbEntity
  8
Layer_1
 62
7
100
AcDbPolyline
 90
1
 70
1
 10
408.020140
 20
57.955600
 30
0.0
  0
SPLINE
  5
308
100
AcDbEntity
  8
Layer_1
 62
7
100
AcDbSpline
 70
8
 71
3
 72
8
 73
4
 74
0
 40
0
 40
0
 40
0
 40
0
 40
1
 40
1
 40
1
 40
1
 10
44.218190
 20
161.765600
 30
0.0
 10
44.218192
 20
163.476605
 30
0.0
 10
45.605235
 20
164.863648
 30
0.0
 10
47.316240
 20
164.863650
 30
0.0
  0
SPLINE
  5
309
100
AcDbEntity
  8
Layer_1
 62
7
100
AcDbSpline
 70
8
 71
3
 72
8
 73
4
 74
0
 40
0
 40
0
 40
0
 40
0
 40
1
 40
1
 40
1
 40
1
 10
47.316240
 20
164.863650
 30
0.0
 10
49.027245
 20
164.863648
 30
0.0
 10
50.414288
 20
163.476605
 30
0.0
 10
50.414290
 20
161.765600
 30
0.0
  0
SPLINE
  5
30a
100
AcDbEntity
  8
Layer_1
 62
7
100
AcDbSpline
 70
8
 71
3
 72
8
 73
4
 74
0
 40
0
 40
0
 40
0
 40
0
 40
1
 40
1
 40
1
 40
1
 10
50.414290
 20
161.765600
 30
0.0
 10
50.414288
 20
160.054595
 30
0.0
 10
49.027245
 20
158.667552
 30
0.0
 10
47.316240
 20
158.667550
 30
0.0
  0
SPLINE
  5
30b
100
AcDbEntity
  8
Layer_1
 62
7
100
AcDbSpline
 70
8
 71
3
 72
8
 73
4
 74
0
 40
0
 40
0
 40
0
 40
0
 40
1
 40
1
 40
1
 40
1
 10
47.316240
 20
158.667550
 30
0.0
 10
45.605235
 20
158.667552
 30
0.0
 10
44.218192
 20
160.054595
 30
0.0
 10
44.218190
 20
161.765600
 30
0.0
  0
LWPOLYLINE
  5
30c
100
AcDbEntity
  8
Layer_1
 62
7
100
AcDbPolyline
 90
1
 70
1
 10
408.020140
 20
161.765600
 30
0.0
  0
SPLINE
  5
30d
100
AcDbEntity
  8
Layer_1
 62
7
100
AcDbSpline
 70
8
 71
3
 72
8
 73
4
 74
0
 40
0
 40
0
 40
0
 40
0
 40
1
 40
1
 40
1
 40
1
 10
44.218190
 20
57.955600
 30
0.0
 10
44.218188
 20
58.777255
 30
0.0
 10
44.544588
 20
59.565258
 30
0.0
 10
45.125586
 20
60.146257
 30
0.0
  0
SPLINE
  5
30e
100
AcDbEntity
  8
Layer_1
 62
7
100
AcDbSpline
 70
8
 71
3
 72
8
 73
4
 74
0
 40
0
 40
0
 40
0
 40
0
 40
1
 40
1
 40
1
 40
1
 10
45.125586
 20
60.146257
 30
0.0
 10
45.706583
 20
60.727256
 30
0.0
 10
46.494585
 20
61.053659
 30
0.0
 10
47.316240
 20
61.053660
 30
0.0
  0
SPLINE
  5
30f
100
AcDbEntity
  8
Layer_1
 62
7
100
AcDbSpline
 70
8
 71
3
 72
8
 73
4
 74
0
 40
0
 40
0
 40
0
 40
0
 40
1
 40
1
 40
1
 40
1
 10
47.316240
 20
61.053660
 30
0.0
 10
48.137895
 20
61.053659
 30
0.0
 10
48.925897
 20
60.727256
 30
0.0
 10
49.506894
 20
60.146257
 30
0.0
  0
SPLINE
  5
310
100
AcDbEntity
  8
Layer_1
 62
7
100
AcDbSpline
 70
8
 71
3
 72
8
 73
4
 74
0
 40
0
 40
0
 40
0
 40
0
 40
1
 40
1
 40
1
 40
1
 10
49.506894
 20
60.146257
 30
0.0
 10
50.087892
 20
59.565258
 30
0.0
 10
50.414292
 20
58.777255
 30
0.0
 10
50.414290
 20
57.955600
 30
0.0
  0
SPLINE
  5
311
100
AcDbEntity
  8
Layer_1
 62
7
100
AcDbSpline
 70
8
 71
3
 72
8
 73
4
 74
0
 40
0
 40
0
 40
0
 40
0
 40
1
 40
1
 40
1
 40
1
 10
50.414290
 20
57.955600
 30
0.0
 10
50.414288
 20
56.244595
 30
0.0
 10
49.027245
 20
54.857552
 30
0.0
 10
47.316240
 20
54.857550
 30
0.0
  0
SPLINE
  5
312
100
AcDbEntity
  8
Layer_1
 62
7
100
AcDbSpline
 70
8
 71
3
 72
8
 73
4
 74
0
 40
0
 40
0
 40
0
 40
0
 40
1
 40
1
 40
1
 40
1
 10
47.316240
 20
54.857550
 30
0.0
 10
45.605235
 20
54.857552
 30
0.0
 10
44.218192
 20
56.244595
 30
0.0
 10
44.218190
 20
57.955600
 30
0.0
  0
LWPOLYLINE
  5
313
100
AcDbEntity
  8
Layer_1
 62
7
100
AcDbPolyline
 90
1
 70
1
 10
44.218190
 20
161.765600
 30
0.0
  0
LWPOLYLINE
  5
314
100
AcDbEntity
  8
Layer_1
 62
7
100
AcDbPolyline
 90
1
 70
1
 10
44.218190
 20
57.955600
 30
0.0
  0
LWPOLYLINE
  5
315
100
AcDbEntity
  8
Layer_1
 62
7
100
AcDbPolyline
 90
6
 70
1
 10
202.468566
 20
594.790397
 30
0.0
 10
199.726000
 20
590.083149
 30
0.0
 10
194.234204
 20
590.079289
 30
0.0
 10
191.484980
 20
594.782735
 30
0.0
 10
194.227545
 20
599.489989
 30
0.0
 10
199.719342
 20
599.493849
 30
0.0
  0
LWPOLYLINE
  5
316
100
AcDbEntity
  8
Layer_1
 62
7
100
AcDbPolyline
 90
6
 70
1
 10
202.468566
 20
583.270387
 30
0.0
 10
199.726000
 20
578.563139
 30
0.0
 10
194.234204
 20
578.559279
 30
0.0
 10
191.484980
 20
583.262725
 30
0.0
 10
194.227545
 20
587.969979
 30
0.0
 10
199.719342
 20
587.973839
 30
0.0
  0
LWPOLYLINE
  5
317
100
AcDbEntity
  8
Layer_1
 62
7
100
AcDbPolyline
 90
6
 70
1
 10
202.468566
 20
571.750377
 30
0.0
 10
199.726000
 20
567.043129
 30
0.0
 10
194.234204
 20
567.039269
 30
0.0
 10
191.484980
 20
571.742715
 30
0.0
 10
194.227545
 20
576.449969
 30
0.0
 10
199.719342
 20
576.453829
 30
0.0
  0
LWPOLYLINE
  5
318
100
AcDbEntity
  8
Layer_1
 62
7
100
AcDbPolyline
 90
6
 70
1
 10
202.468566
 20
560.230387
 30
0.0
 10
199.726000
 20
555.523139
 30
0.0
 10
194.234204
 20
555.519279
 30
0.0
 10
191.484980
 20
560.222725
 30
0.0
 10
194.227545
 20
564.929979
 30
0.0
 10
199.719342
 20
564.933839
 30
0.0
  0
LWPOLYLINE
  5
319
100
AcDbEntity
  8
Layer_1
 62
7
100
AcDbPolyline
 90
6
 70
1
 10
212.772566
 20
600.550377
 30
0.0
 10
210.030000
 20
595.843129
 30
0.0
 10
204.538204
 20
595.839269
 30
0.0
 10
201.788980
 20
600.542715
 30
0.0
 10
204.531545
 20
605.249969
 30
0.0
 10
210.023342
 20
605.253829
 30
0.0
  0
LWPOLYLINE
  5
31a
100
AcDbEntity
  8
Layer_1
 62
7
100
AcDbPolyline
 90
6
 70
1
 10
212.772566
 20
589.030387
 30
0.0
 10
210.030000
 20
584.323139
 30
0.0
 10
204.538204
 20
584.319279
 30
0.0
 10
201.788980
 20
589.022725
 30
0.0
 10
204.531545
 20
593.729979
 30
0.0
 10
210.023342
 20
593.733839
 30
0.0
  0
LWPOLYLINE
  5
31b
100
AcDbEntity
  8
Layer_1
 62
7
100
AcDbPolyline
 90
6
 70
1
 10
212.772566
 20
577.510377
 30
0.0
 10
210.030000
 20
572.803129
 30
0.0
 10
204.538204
 20
572.799269
 30
0.0
 10
201.788980
 20
577.502715
 30
0.0
 10
204.531545
 20
582.209969
 30
0.0
 10
210.023342
 20
582.213829
 30
0.0
  0
LWPOLYLINE
  5
31c
100
AcDbEntity
  8
Layer_1
 62
7
100
AcDbPolyline
 90
6
 70
1
 10
212.772566
 20
565.990367
 30
0.0
 10
210.030000
 20
561.283119
 30
0.0
 10
204.538204
 20
561.279259
 30
0.0
 10
201.788980
 20
565.982705
 30
0.0
 10
204.531545
 20
570.689959
 30
0.0
 10
210.023342
 20
570.693819
 30
0.0
  0
LWPOLYLINE
  5
31d
100
AcDbEntity
  8
Layer_1
 62
7
100
AcDbPolyline
 90
6
 70
1
 10
212.772566
 20
554.470387
 30
0.0
 10
210.030000
 20
549.763139
 30
0.0
 10
204.538204
 20
549.759279
 30
0.0
 10
201.788980
 20
554.462725
 30
0.0
 10
204.531545
 20
559.169979
 30
0.0
 10
210.023342
 20
559.173839
 30
0.0
  0
LWPOLYLINE
  5
31e
100
AcDbEntity
  8
Layer_1
 62
7
100
AcDbPolyline
 90
6
 70
1
 10
223.076566
 20
606.310377
 30
0.0
 10
220.334000
 20
601.603129
 30
0.0
 10
214.842204
 20
601.599269
 30
0.0
 10
212.092980
 20
606.302715
 30
0.0
 10
214.835545
 20
611.009969
 30
0.0
 10
220.327342
 20
611.013829
 30
0.0
  0
LWPOLYLINE
  5
31f
100
AcDbEntity
  8
Layer_1
 62
7
100
AcDbPolyline
 90
6
 70
1
 10
223.076566
 20
594.790397
 30
0.0
 10
220.334000
 20
590.083149
 30
0.0
 10
214.842204
 20
590.079289
 30
0.0
 10
212.092980
 20
594.782735
 30
0.0
 10
214.835545
 20
599.489989
 30
0.0
 10
220.327342
 20
599.493849
 30
0.0
  0
LWPOLYLINE
  5
320
100
AcDbEntity
  8
Layer_1
 62
7
100
AcDbPolyline
 90
6
 70
1
 10
223.076566
 20
583.270387
 30
0.0
 10
220.334000
 20
578.563139
 30
0.0
 10
214.842204
 20
578.559279
 30
0.0
 10
212.092980
 20
583.262725
 30
0.0
 10
214.835545
 20
587.969979
 30
0.0
 10
220.327342
 20
587.973839
 30
0.0
  0
LWPOLYLINE
  5
321
100
AcDbEntity
  8
Layer_1
 62
7
100
AcDbPolyline
 90
6
 70
1
 10
223.076566
 20
571.750377
 30
0.0
 10
220.334000
 20
567.043129
 30
0.0
 10
214.842204
 20
567.039269
 30
0.0
 10
212.092980
 20
571.742715
 30
0.0
 10
214.835545
 20
576.449969
 30
0.0
 10
220.327342
 20
576.453829
 30
0.0
  0
LWPOLYLINE
  5
322
100
AcDbEntity
  8
Layer_1
 62
7
100
AcDbPolyline
 90
6
 70
1
 10
223.076566
 20
560.230387
 30
0.0
 10
220.334000
 20
555.523139
 30
0.0
 10
214.842204
 20
555.519279
 30
0.0
 10
212.092980
 20
560.222725
 30
0.0
 10
214.835545
 20
564.929979
 30
0.0
 10
220.327342
 20
564.933839
 30
0.0
  0
LWPOLYLINE
  5
323
100
AcDbEntity
  8
Layer_1
 62
7
100
AcDbPolyline
 90
6
 70
1
 10
223.076566
 20
548.710377
 30
0.0
 10
220.334000
 20
544.003129
 30
0.0
 10
214.842204
 20
543.999269
 30
0.0
 10
212.092980
 20
548.702715
 30
0.0
 10
214.835545
 20
553.409969
 30
0.0
 10
220.327342
 20
553.413829
 30
0.0
  0
LWPOLYLINE
  5
324
100
AcDbEntity
  8
Layer_1
 62
7
100
AcDbPolyline
 90
6
 70
1
 10
233.380586
 20
612.070387
 30
0.0
 10
230.638020
 20
607.363139
 30
0.0
 10
225.146224
 20
607.359279
 30
0.0
 10
222.397000
 20
612.062725
 30
0.0
 10
225.139565
 20
616.769979
 30
0.0
 10
230.631362
 20
616.773839
 30
0.0
  0
LWPOLYLINE
  5
325
100
AcDbEntity
  8
Layer_1
 62
7
100
AcDbPolyline
 90
6
 70
1
 10
233.380586
 20
600.550377
 30
0.0
 10
230.638020
 20
595.843129
 30
0.0
 10
225.146224
 20
595.839269
 30
0.0
 10
222.397000
 20
600.542715
 30
0.0
 10
225.139565
 20
605.249969
 30
0.0
 10
230.631362
 20
605.253829
 30
0.0
  0
LWPOLYLINE
  5
326
100
AcDbEntity
  8
Layer_1
 62
7
100
AcDbPolyline
 90
6
 70
1
 10
233.380586
 20
589.030387
 30
0.0
 10
230.638020
 20
584.323139
 30
0.0
 10
225.146224
 20
584.319279
 30
0.0
 10
222.397000
 20
589.022725
 30
0.0
 10
225.139565
 20
593.729979
 30
0.0
 10
230.631362
 20
593.733839
 30
0.0
  0
LWPOLYLINE
  5
327
100
AcDbEntity
  8
Layer_1
 62
7
100
AcDbPolyline
 90
6
 70
1
 10
233.380586
 20
577.510377
 30
0.0
 10
230.638020
 20
572.803129
 30
0.0
 10
225.146224
 20
572.799269
 30
0.0
 10
222.397000
 20
577.502715
 30
0.0
 10
225.139565
 20
582.209969
 30
0.0
 10
230.631362
 20
582.213829
 30
0.0
  0
LWPOLYLINE
  5
328
100
AcDbEntity
  8
Layer_1
 62
7
100
AcDbPolyline
 90
6
 70
1
 10
233.380586
 20
565.990367
 30
0.0
 10
230.638020
 20
561.283119
 30
0.0
 10
225.146224
 20
561.279259
 30
0.0
 10
222.397000
 20
565.982705
 30
0.0
 10
225.139565
 20
570.689959
 30
0.0
 10
230.631362
 20
570.693819
 30
0.0
  0
LWPOLYLINE
  5
329
100
AcDbEntity
  8
Layer_1
 62
7
100
AcDbPolyline
 90
6
 70
1
 10
233.380586
 20
554.470387
 30
0.0
 10
230.638020
 20
549.763139
 30
0.0
 10
225.146224
 20
549.759279
 30
0.0
 10
222.397000
 20
554.462725
 30
0.0
 10
225.139565
 20
559.169979
 30
0.0
 10
230.631362
 20
559.173839
 30
0.0
  0
LWPOLYLINE
  5
32a
100
AcDbEntity
  8
Layer_1
 62
7
100
AcDbPolyline
 90
6
 70
1
 10
233.380586
 20
542.950367
 30
0.0
 10
230.638020
 20
538.243119
 30
0.0
 10
225.146224
 20
538.239259
 30
0.0
 10
222.397000
 20
542.942705
 30
0.0
 10
225.139565
 20
547.649959
 30
0.0
 10
230.631362
 20
547.653819
 30
0.0
  0
LWPOLYLINE
  5
32b
100
AcDbEntity
  8
Layer_1
 62
7
100
AcDbPolyline
 90
6
 70
1
 10
243.684586
 20
606.310377
 30
0.0
 10
240.942020
 20
601.603129
 30
0.0
 10
235.450224
 20
601.599269
 30
0.0
 10
232.701000
 20
606.302715
 30
0.0
 10
235.443565
 20
611.009969
 30
0.0
 10
240.935362
 20
611.013829
 30
0.0
  0
LWPOLYLINE
  5
32c
100
AcDbEntity
  8
Layer_1
 62
7
100
AcDbPolyline
 90
6
 70
1
 10
243.684586
 20
594.790397
 30
0.0
 10
240.942020
 20
590.083149
 30
0.0
 10
235.450224
 20
590.079289
 30
0.0
 10
232.701000
 20
594.782735
 30
0.0
 10
235.443565
 20
599.489989
 30
0.0
 10
240.935362
 20
599.493849
 30
0.0
  0
LWPOLYLINE
  5
32d
100
AcDbEntity
  8
Layer_1
 62
7
100
AcDbPolyline
 90
6
 70
1
 10
243.684586
 20
583.270387
 30
0.0
 10
240.942020
 20
578.563139
 30
0.0
 10
235.450224
 20
578.559279
 30
0.0
 10
232.701000
 20
583.262725
 30
0.0
 10
235.443565
 20
587.969979
 30
0.0
 10
240.935362
 20
587.973839
 30
0.0
  0
LWPOLYLINE
  5
32e
100
AcDbEntity
  8
Layer_1
 62
7
100
AcDbPolyline
 90
6
 70
1
 10
243.684586
 20
571.750377
 30
0.0
 10
240.942020
 20
567.043129
 30
0.0
 10
235.450224
 20
567.039269
 30
0.0
 10
232.701000
 20
571.742715
 30
0.0
 10
235.443565
 20
576.449969
 30
0.0
 10
240.935362
 20
576.453829
 30
0.0
  0
LWPOLYLINE
  5
32f
100
AcDbEntity
  8
Layer_1
 62
7
100
AcDbPolyline
 90
6
 70
1
 10
243.684586
 20
560.230387
 30
0.0
 10
240.942020
 20
555.523139
 30
0.0
 10
235.450224
 20
555.519279
 30
0.0
 10
232.701000
 20
560.222725
 30
0.0
 10
235.443565
 20
564.929979
 30
0.0
 10
240.935362
 20
564.933839
 30
0.0
  0
LWPOLYLINE
  5
330
100
AcDbEntity
  8
Layer_1
 62
7
100
AcDbPolyline
 90
6
 70
1
 10
243.684586
 20
548.710377
 30
0.0
 10
240.942020
 20
544.003129
 30
0.0
 10
235.450224
 20
543.999269
 30
0.0
 10
232.701000
 20
548.702715
 30
0.0
 10
235.443565
 20
553.409969
 30
0.0
 10
240.935362
 20
553.413829
 30
0.0
  0
LWPOLYLINE
  5
331
100
AcDbEntity
  8
Layer_1
 62
7
100
AcDbPolyline
 90
6
 70
1
 10
253.988586
 20
600.550377
 30
0.0
 10
251.246020
 20
595.843129
 30
0.0
 10
245.754224
 20
595.839269
 30
0.0
 10
243.005000
 20
600.542715
 30
0.0
 10
245.747565
 20
605.249969
 30
0.0
 10
251.239362
 20
605.253829
 30
0.0
  0
LWPOLYLINE
  5
332
100
AcDbEntity
  8
Layer_1
 62
7
100
AcDbPolyline
 90
6
 70
1
 10
253.988586
 20
589.030387
 30
0.0
 10
251.246020
 20
584.323139
 30
0.0
 10
245.754224
 20
584.319279
 30
0.0
 10
243.005000
 20
589.022725
 30
0.0
 10
245.747565
 20
593.729979
 30
0.0
 10
251.239362
 20
593.733839
 30
0.0
  0
LWPOLYLINE
  5
333
100
AcDbEntity
  8
Layer_1
 62
7
100
AcDbPolyline
 90
6
 70
1
 10
253.988586
 20
577.510377
 30
0.0
 10
251.246020
 20
572.803129
 30
0.0
 10
245.754224
 20
572.799269
 30
0.0
 10
243.005000
 20
577.502715
 30
0.0
 10
245.747565
 20
582.209969
 30
0.0
 10
251.239362
 20
582.213829
 30
0.0
  0
LWPOLYLINE
  5
334
100
AcDbEntity
  8
Layer_1
 62
7
100
AcDbPolyline
 90
6
 70
1
 10
253.988586
 20
565.990367
 30
0.0
 10
251.246020
 20
561.283119
 30
0.0
 10
245.754224
 20
561.279259
 30
0.0
 10
243.005000
 20
565.982705
 30
0.0
 10
245.747565
 20
570.689959
 30
0.0
 10
251.239362
 20
570.693819
 30
0.0
  0
LWPOLYLINE
  5
335
100
AcDbEntity
  8
Layer_1
 62
7
100
AcDbPolyline
 90
6
 70
1
 10
253.988586
 20
554.470387
 30
0.0
 10
251.246020
 20
549.763139
 30
0.0
 10
245.754224
 20
549.759279
 30
0.0
 10
243.005000
 20
554.462725
 30
0.0
 10
245.747565
 20
559.169979
 30
0.0
 10
251.239362
 20
559.173839
 30
0.0
  0
LWPOLYLINE
  5
336
100
AcDbEntity
  8
Layer_1
 62
7
100
AcDbPolyline
 90
6
 70
1
 10
264.292486
 20
594.790397
 30
0.0
 10
261.549920
 20
590.083149
 30
0.0
 10
256.058124
 20
590.079289
 30
0.0
 10
253.308900
 20
594.782735
 30
0.0
 10
256.051465
 20
599.489989
 30
0.0
 10
261.543262
 20
599.493849
 30
0.0
  0
LWPOLYLINE
  5
337
100
AcDbEntity
  8
Layer_1
 62
7
100
AcDbPolyline
 90
6
 70
1
 10
264.292486
 20
583.270387
 30
0.0
 10
261.549920
 20
578.563139
 30
0.0
 10
256.058124
 20
578.559279
 30
0.0
 10
253.308900
 20
583.262725
 30
0.0
 10
256.051465
 20
587.969979
 30
0.0
 10
261.543262
 20
587.973839
 30
0.0
  0
LWPOLYLINE
  5
338
100
AcDbEntity
  8
Layer_1
 62
7
100
AcDbPolyline
 90
6
 70
1
 10
264.292486
 20
571.750377
 30
0.0
 10
261.549920
 20
567.043129
 30
0.0
 10
256.058124
 20
567.039269
 30
0.0
 10
253.308900
 20
571.742715
 30
0.0
 10
256.051465
 20
576.449969
 30
0.0
 10
261.543262
 20
576.453829
 30
0.0
  0
SPLINE
  5
339
100
AcDbEntity
  8
Layer_1
 62
7
100
AcDbSpline
 70
8
 71
3
 72
8
 73
4
 74
0
 40
0
 40
0
 40
0
 40
0
 40
1
 40
1
 40
1
 40
1
 10
296.118430
 20
569.835430
 30
0.0
 10
293.518200
 20
567.626760
 30
0.0
 10
289.620130
 20
567.938940
 30
0.0
 10
287.404850
 20
570.533290
 30
0.0
  0
SPLINE
  5
33a
100
AcDbEntity
  8
Layer_1
 62
7
100
AcDbSpline
 70
8
 71
3
 72
8
 73
4
 74
0
 40
0
 40
0
 40
0
 40
0
 40
1
 40
1
 40
1
 40
1
 10
287.404850
 20
570.533290
 30
0.0
 10
285.189590
 20
573.127630
 30
0.0
 10
285.493230
 20
577.024920
 30
0.0
 10
288.083610
 20
579.245140
 30
0.0
  0
SPLINE
  5
33b
100
AcDbEntity
  8
Layer_1
 62
7
100
AcDbSpline
 70
8
 71
3
 72
8
 73
4
 74
0
 40
0
 40
0
 40
0
 40
0
 40
1
 40
1
 40
1
 40
1
 10
288.083610
 20
579.245140
 30
0.0
 10
290.673980
 20
581.465350
 30
0.0
 10
294.573380
 20
581.170500
 30
0.0
 10
296.818060
 20
578.565100
 30
0.0
  0
SPLINE
  5
33c
100
AcDbEntity
  8
Layer_1
 62
7
100
AcDbSpline
 70
8
 71
3
 72
8
 73
4
 74
0
 40
0
 40
0
 40
0
 40
0
 40
1
 40
1
 40
1
 40
1
 10
296.818060
 20
578.565100
 30
0.0
 10
299.039660
 20
575.939980
 30
0.0
 10
298.718650
 20
572.044090
 30
0.0
 10
296.118430
 20
569.835430
 30
0.0
  0
LWPOLYLINE
  5
33d
100
AcDbEntity
  8
Layer_1
 62
7
100
AcDbPolyline
 90
6
 70
1
 10
264.292486
 20
560.230387
 30
0.0
 10
261.549920
 20
555.523139
 30
0.0
 10
256.058124
 20
555.519279
 30
0.0
 10
253.308900
 20
560.222725
 30
0.0
 10
256.051465
 20
564.929979
 30
0.0
 10
261.543262
 20
564.933839
 30
0.0
  0
LWPOLYLINE
  5
33e
100
AcDbEntity
  8
Layer_1
 62
7
100
AcDbPolyline
 90
1
 70
1
 10
296.118430
 20
569.835430
 30
0.0
  0
ENDSEC
  0
SECTION
  2
OBJECTS
  0
DICTIONARY
  5
C
330
0
100
AcDbDictionary
  3
ACAD_GROUP
350
D
  3
ACAD_MLINESTYLE
350
17
  0
DICTIONARY
  5
D
330
C
100
AcDbDictionary
  0
DICTIONARY
  5
1A
330
C
100
AcDbDictionary
  0
DICTIONARY
  5
17
330
C
100
AcDbDictionary
  3
STANDARD
350
18
  0
DICTIONARY
  5
19
330
C
100
AcDbDictionary
  0
ENDSEC
  0
EOF
