%TF.GenerationSoftware,KiCad,Pcbnew,5.1.6-c6e7f7d~87~ubuntu18.04.1*%
%TF.CreationDate,2021-08-18T14:30:19+12:00*%
%TF.ProjectId,Output and Rail Splitter,4f757470-7574-4206-916e-64205261696c,rev?*%
%TF.SameCoordinates,Original*%
%TF.FileFunction,Legend,Top*%
%TF.FilePolarity,Positive*%
%FSLAX46Y46*%
G04 Gerber Fmt 4.6, Leading zero omitted, Abs format (unit mm)*
G04 Created by KiCad (PCBNEW 5.1.6-c6e7f7d~87~ubuntu18.04.1) date 2021-08-18 14:30:19*
%MOMM*%
%LPD*%
G01*
G04 APERTURE LIST*
%ADD10C,0.150000*%
G04 APERTURE END LIST*
%TO.C,J1*%
D10*
X96666666Y-101252380D02*
X96666666Y-101966666D01*
X96619047Y-102109523D01*
X96523809Y-102204761D01*
X96380952Y-102252380D01*
X96285714Y-102252380D01*
X97666666Y-102252380D02*
X97095238Y-102252380D01*
X97380952Y-102252380D02*
X97380952Y-101252380D01*
X97285714Y-101395238D01*
X97190476Y-101490476D01*
X97095238Y-101538095D01*
%TO.C,J2*%
X119666666Y-101252380D02*
X119666666Y-101966666D01*
X119619047Y-102109523D01*
X119523809Y-102204761D01*
X119380952Y-102252380D01*
X119285714Y-102252380D01*
X120095238Y-101347619D02*
X120142857Y-101300000D01*
X120238095Y-101252380D01*
X120476190Y-101252380D01*
X120571428Y-101300000D01*
X120619047Y-101347619D01*
X120666666Y-101442857D01*
X120666666Y-101538095D01*
X120619047Y-101680952D01*
X120047619Y-102252380D01*
X120666666Y-102252380D01*
%TO.C,J3*%
X104666666Y-101252380D02*
X104666666Y-101966666D01*
X104619047Y-102109523D01*
X104523809Y-102204761D01*
X104380952Y-102252380D01*
X104285714Y-102252380D01*
X105047619Y-101252380D02*
X105666666Y-101252380D01*
X105333333Y-101633333D01*
X105476190Y-101633333D01*
X105571428Y-101680952D01*
X105619047Y-101728571D01*
X105666666Y-101823809D01*
X105666666Y-102061904D01*
X105619047Y-102157142D01*
X105571428Y-102204761D01*
X105476190Y-102252380D01*
X105190476Y-102252380D01*
X105095238Y-102204761D01*
X105047619Y-102157142D01*
%TO.C,J4*%
X88666666Y-101252380D02*
X88666666Y-101966666D01*
X88619047Y-102109523D01*
X88523809Y-102204761D01*
X88380952Y-102252380D01*
X88285714Y-102252380D01*
X89571428Y-101585714D02*
X89571428Y-102252380D01*
X89333333Y-101204761D02*
X89095238Y-101919047D01*
X89714285Y-101919047D01*
%TO.C,J5*%
X96666666Y-113252380D02*
X96666666Y-113966666D01*
X96619047Y-114109523D01*
X96523809Y-114204761D01*
X96380952Y-114252380D01*
X96285714Y-114252380D01*
X97619047Y-113252380D02*
X97142857Y-113252380D01*
X97095238Y-113728571D01*
X97142857Y-113680952D01*
X97238095Y-113633333D01*
X97476190Y-113633333D01*
X97571428Y-113680952D01*
X97619047Y-113728571D01*
X97666666Y-113823809D01*
X97666666Y-114061904D01*
X97619047Y-114157142D01*
X97571428Y-114204761D01*
X97476190Y-114252380D01*
X97238095Y-114252380D01*
X97142857Y-114204761D01*
X97095238Y-114157142D01*
%TO.C,J6*%
X119666666Y-113252380D02*
X119666666Y-113966666D01*
X119619047Y-114109523D01*
X119523809Y-114204761D01*
X119380952Y-114252380D01*
X119285714Y-114252380D01*
X120571428Y-113252380D02*
X120380952Y-113252380D01*
X120285714Y-113300000D01*
X120238095Y-113347619D01*
X120142857Y-113490476D01*
X120095238Y-113680952D01*
X120095238Y-114061904D01*
X120142857Y-114157142D01*
X120190476Y-114204761D01*
X120285714Y-114252380D01*
X120476190Y-114252380D01*
X120571428Y-114204761D01*
X120619047Y-114157142D01*
X120666666Y-114061904D01*
X120666666Y-113823809D01*
X120619047Y-113728571D01*
X120571428Y-113680952D01*
X120476190Y-113633333D01*
X120285714Y-113633333D01*
X120190476Y-113680952D01*
X120142857Y-113728571D01*
X120095238Y-113823809D01*
%TO.C,J7*%
X104666666Y-113252380D02*
X104666666Y-113966666D01*
X104619047Y-114109523D01*
X104523809Y-114204761D01*
X104380952Y-114252380D01*
X104285714Y-114252380D01*
X105047619Y-113252380D02*
X105714285Y-113252380D01*
X105285714Y-114252380D01*
%TO.C,J8*%
X88666666Y-113252380D02*
X88666666Y-113966666D01*
X88619047Y-114109523D01*
X88523809Y-114204761D01*
X88380952Y-114252380D01*
X88285714Y-114252380D01*
X89285714Y-113680952D02*
X89190476Y-113633333D01*
X89142857Y-113585714D01*
X89095238Y-113490476D01*
X89095238Y-113442857D01*
X89142857Y-113347619D01*
X89190476Y-113300000D01*
X89285714Y-113252380D01*
X89476190Y-113252380D01*
X89571428Y-113300000D01*
X89619047Y-113347619D01*
X89666666Y-113442857D01*
X89666666Y-113490476D01*
X89619047Y-113585714D01*
X89571428Y-113633333D01*
X89476190Y-113680952D01*
X89285714Y-113680952D01*
X89190476Y-113728571D01*
X89142857Y-113776190D01*
X89095238Y-113871428D01*
X89095238Y-114061904D01*
X89142857Y-114157142D01*
X89190476Y-114204761D01*
X89285714Y-114252380D01*
X89476190Y-114252380D01*
X89571428Y-114204761D01*
X89619047Y-114157142D01*
X89666666Y-114061904D01*
X89666666Y-113871428D01*
X89619047Y-113776190D01*
X89571428Y-113728571D01*
X89476190Y-113680952D01*
%TO.C,J9*%
X96666666Y-125252380D02*
X96666666Y-125966666D01*
X96619047Y-126109523D01*
X96523809Y-126204761D01*
X96380952Y-126252380D01*
X96285714Y-126252380D01*
X97190476Y-126252380D02*
X97380952Y-126252380D01*
X97476190Y-126204761D01*
X97523809Y-126157142D01*
X97619047Y-126014285D01*
X97666666Y-125823809D01*
X97666666Y-125442857D01*
X97619047Y-125347619D01*
X97571428Y-125300000D01*
X97476190Y-125252380D01*
X97285714Y-125252380D01*
X97190476Y-125300000D01*
X97142857Y-125347619D01*
X97095238Y-125442857D01*
X97095238Y-125680952D01*
X97142857Y-125776190D01*
X97190476Y-125823809D01*
X97285714Y-125871428D01*
X97476190Y-125871428D01*
X97571428Y-125823809D01*
X97619047Y-125776190D01*
X97666666Y-125680952D01*
%TO.C,J10*%
X119190476Y-125252380D02*
X119190476Y-125966666D01*
X119142857Y-126109523D01*
X119047619Y-126204761D01*
X118904761Y-126252380D01*
X118809523Y-126252380D01*
X120190476Y-126252380D02*
X119619047Y-126252380D01*
X119904761Y-126252380D02*
X119904761Y-125252380D01*
X119809523Y-125395238D01*
X119714285Y-125490476D01*
X119619047Y-125538095D01*
X120809523Y-125252380D02*
X120904761Y-125252380D01*
X121000000Y-125300000D01*
X121047619Y-125347619D01*
X121095238Y-125442857D01*
X121142857Y-125633333D01*
X121142857Y-125871428D01*
X121095238Y-126061904D01*
X121047619Y-126157142D01*
X121000000Y-126204761D01*
X120904761Y-126252380D01*
X120809523Y-126252380D01*
X120714285Y-126204761D01*
X120666666Y-126157142D01*
X120619047Y-126061904D01*
X120571428Y-125871428D01*
X120571428Y-125633333D01*
X120619047Y-125442857D01*
X120666666Y-125347619D01*
X120714285Y-125300000D01*
X120809523Y-125252380D01*
%TO.C,J11*%
X104190476Y-125252380D02*
X104190476Y-125966666D01*
X104142857Y-126109523D01*
X104047619Y-126204761D01*
X103904761Y-126252380D01*
X103809523Y-126252380D01*
X105190476Y-126252380D02*
X104619047Y-126252380D01*
X104904761Y-126252380D02*
X104904761Y-125252380D01*
X104809523Y-125395238D01*
X104714285Y-125490476D01*
X104619047Y-125538095D01*
X106142857Y-126252380D02*
X105571428Y-126252380D01*
X105857142Y-126252380D02*
X105857142Y-125252380D01*
X105761904Y-125395238D01*
X105666666Y-125490476D01*
X105571428Y-125538095D01*
%TD*%
M02*
