%TF.GenerationSoftware,KiCad,Pcbnew,5.1.6-c6e7f7d~87~ubuntu18.04.1*%
%TF.CreationDate,2021-08-18T14:30:19+12:00*%
%TF.ProjectId,Output and Rail Splitter,4f757470-7574-4206-916e-64205261696c,rev?*%
%TF.SameCoordinates,Original*%
%TF.FileFunction,Legend,Bot*%
%TF.FilePolarity,Positive*%
%FSLAX46Y46*%
G04 Gerber Fmt 4.6, Leading zero omitted, Abs format (unit mm)*
G04 Created by KiCad (PCBNEW 5.1.6-c6e7f7d~87~ubuntu18.04.1) date 2021-08-18 14:30:19*
%MOMM*%
%LPD*%
G01*
G04 APERTURE LIST*
%ADD10C,0.150000*%
%ADD11C,0.120000*%
G04 APERTURE END LIST*
D10*
X127761904Y-129071428D02*
X127000000Y-129071428D01*
X126571428Y-128547619D02*
X126523809Y-128500000D01*
X126428571Y-128452380D01*
X126190476Y-128452380D01*
X126095238Y-128500000D01*
X126047619Y-128547619D01*
X126000000Y-128642857D01*
X126000000Y-128738095D01*
X126047619Y-128880952D01*
X126619047Y-129452380D01*
X126000000Y-129452380D01*
X125142857Y-128785714D02*
X125142857Y-129452380D01*
X125380952Y-128404761D02*
X125619047Y-129119047D01*
X125000000Y-129119047D01*
X124761904Y-128452380D02*
X124428571Y-129452380D01*
X124095238Y-128452380D01*
X126761904Y-116500000D02*
X126857142Y-116452380D01*
X127000000Y-116452380D01*
X127142857Y-116500000D01*
X127238095Y-116595238D01*
X127285714Y-116690476D01*
X127333333Y-116880952D01*
X127333333Y-117023809D01*
X127285714Y-117214285D01*
X127238095Y-117309523D01*
X127142857Y-117404761D01*
X127000000Y-117452380D01*
X126904761Y-117452380D01*
X126761904Y-117404761D01*
X126714285Y-117357142D01*
X126714285Y-117023809D01*
X126904761Y-117023809D01*
X126285714Y-117452380D02*
X126285714Y-116452380D01*
X125714285Y-117452380D01*
X125714285Y-116452380D01*
X125238095Y-117452380D02*
X125238095Y-116452380D01*
X125000000Y-116452380D01*
X124857142Y-116500000D01*
X124761904Y-116595238D01*
X124714285Y-116690476D01*
X124666666Y-116880952D01*
X124666666Y-117023809D01*
X124714285Y-117214285D01*
X124761904Y-117309523D01*
X124857142Y-117404761D01*
X125000000Y-117452380D01*
X125238095Y-117452380D01*
X127761904Y-105071428D02*
X127000000Y-105071428D01*
X127380952Y-105452380D02*
X127380952Y-104690476D01*
X126571428Y-104547619D02*
X126523809Y-104500000D01*
X126428571Y-104452380D01*
X126190476Y-104452380D01*
X126095238Y-104500000D01*
X126047619Y-104547619D01*
X126000000Y-104642857D01*
X126000000Y-104738095D01*
X126047619Y-104880952D01*
X126619047Y-105452380D01*
X126000000Y-105452380D01*
X125142857Y-104785714D02*
X125142857Y-105452380D01*
X125380952Y-104404761D02*
X125619047Y-105119047D01*
X125000000Y-105119047D01*
X124761904Y-104452380D02*
X124428571Y-105452380D01*
X124095238Y-104452380D01*
D11*
X123000000Y-133000000D02*
X122000000Y-133000000D01*
X123000000Y-125000000D02*
X123000000Y-133000000D01*
X122000000Y-125000000D02*
X123000000Y-125000000D01*
X123000000Y-121000000D02*
X122000000Y-121000000D01*
X123000000Y-113000000D02*
X123000000Y-121000000D01*
X122000000Y-113000000D02*
X123000000Y-113000000D01*
X123000000Y-109000000D02*
X122000000Y-109000000D01*
X123000000Y-101000000D02*
X123000000Y-109000000D01*
X122000000Y-101000000D02*
X123000000Y-101000000D01*
D10*
X91904761Y-126357142D02*
X91952380Y-126404761D01*
X92095238Y-126452380D01*
X92190476Y-126452380D01*
X92333333Y-126404761D01*
X92428571Y-126309523D01*
X92476190Y-126214285D01*
X92523809Y-126023809D01*
X92523809Y-125880952D01*
X92476190Y-125690476D01*
X92428571Y-125595238D01*
X92333333Y-125500000D01*
X92190476Y-125452380D01*
X92095238Y-125452380D01*
X91952380Y-125500000D01*
X91904761Y-125547619D01*
X91285714Y-125452380D02*
X91095238Y-125452380D01*
X91000000Y-125500000D01*
X90904761Y-125595238D01*
X90857142Y-125785714D01*
X90857142Y-126119047D01*
X90904761Y-126309523D01*
X91000000Y-126404761D01*
X91095238Y-126452380D01*
X91285714Y-126452380D01*
X91380952Y-126404761D01*
X91476190Y-126309523D01*
X91523809Y-126119047D01*
X91523809Y-125785714D01*
X91476190Y-125595238D01*
X91380952Y-125500000D01*
X91285714Y-125452380D01*
X90428571Y-126452380D02*
X90428571Y-125452380D01*
X89857142Y-126452380D01*
X89857142Y-125452380D01*
X89523809Y-125452380D02*
X88952380Y-125452380D01*
X89238095Y-126452380D02*
X89238095Y-125452380D01*
X88047619Y-126452380D02*
X88380952Y-125976190D01*
X88619047Y-126452380D02*
X88619047Y-125452380D01*
X88238095Y-125452380D01*
X88142857Y-125500000D01*
X88095238Y-125547619D01*
X88047619Y-125642857D01*
X88047619Y-125785714D01*
X88095238Y-125880952D01*
X88142857Y-125928571D01*
X88238095Y-125976190D01*
X88619047Y-125976190D01*
X87428571Y-125452380D02*
X87238095Y-125452380D01*
X87142857Y-125500000D01*
X87047619Y-125595238D01*
X87000000Y-125785714D01*
X87000000Y-126119047D01*
X87047619Y-126309523D01*
X87142857Y-126404761D01*
X87238095Y-126452380D01*
X87428571Y-126452380D01*
X87523809Y-126404761D01*
X87619047Y-126309523D01*
X87666666Y-126119047D01*
X87666666Y-125785714D01*
X87619047Y-125595238D01*
X87523809Y-125500000D01*
X87428571Y-125452380D01*
X86095238Y-126452380D02*
X86571428Y-126452380D01*
X86571428Y-125452380D01*
X85285714Y-126452380D02*
X85761904Y-126452380D01*
X85761904Y-125452380D01*
X84952380Y-125928571D02*
X84619047Y-125928571D01*
X84476190Y-126452380D02*
X84952380Y-126452380D01*
X84952380Y-125452380D01*
X84476190Y-125452380D01*
X83476190Y-126452380D02*
X83809523Y-125976190D01*
X84047619Y-126452380D02*
X84047619Y-125452380D01*
X83666666Y-125452380D01*
X83571428Y-125500000D01*
X83523809Y-125547619D01*
X83476190Y-125642857D01*
X83476190Y-125785714D01*
X83523809Y-125880952D01*
X83571428Y-125928571D01*
X83666666Y-125976190D01*
X84047619Y-125976190D01*
X91809523Y-123452380D02*
X91476190Y-124452380D01*
X91142857Y-123452380D01*
X90619047Y-123452380D02*
X90428571Y-123452380D01*
X90333333Y-123500000D01*
X90238095Y-123595238D01*
X90190476Y-123785714D01*
X90190476Y-124119047D01*
X90238095Y-124309523D01*
X90333333Y-124404761D01*
X90428571Y-124452380D01*
X90619047Y-124452380D01*
X90714285Y-124404761D01*
X90809523Y-124309523D01*
X90857142Y-124119047D01*
X90857142Y-123785714D01*
X90809523Y-123595238D01*
X90714285Y-123500000D01*
X90619047Y-123452380D01*
X89285714Y-124452380D02*
X89761904Y-124452380D01*
X89761904Y-123452380D01*
X88952380Y-123452380D02*
X88952380Y-124261904D01*
X88904761Y-124357142D01*
X88857142Y-124404761D01*
X88761904Y-124452380D01*
X88571428Y-124452380D01*
X88476190Y-124404761D01*
X88428571Y-124357142D01*
X88380952Y-124261904D01*
X88380952Y-123452380D01*
X87904761Y-124452380D02*
X87904761Y-123452380D01*
X87571428Y-124166666D01*
X87238095Y-123452380D01*
X87238095Y-124452380D01*
X86761904Y-123928571D02*
X86428571Y-123928571D01*
X86285714Y-124452380D02*
X86761904Y-124452380D01*
X86761904Y-123452380D01*
X86285714Y-123452380D01*
X97952380Y-98452380D02*
X98428571Y-98452380D01*
X98428571Y-97452380D01*
X97619047Y-97928571D02*
X97285714Y-97928571D01*
X97142857Y-98452380D02*
X97619047Y-98452380D01*
X97619047Y-97452380D01*
X97142857Y-97452380D01*
X96380952Y-97928571D02*
X96714285Y-97928571D01*
X96714285Y-98452380D02*
X96714285Y-97452380D01*
X96238095Y-97452380D01*
X96000000Y-97452380D02*
X95428571Y-97452380D01*
X95714285Y-98452380D02*
X95714285Y-97452380D01*
X106333333Y-98452380D02*
X106666666Y-97976190D01*
X106904761Y-98452380D02*
X106904761Y-97452380D01*
X106523809Y-97452380D01*
X106428571Y-97500000D01*
X106380952Y-97547619D01*
X106333333Y-97642857D01*
X106333333Y-97785714D01*
X106380952Y-97880952D01*
X106428571Y-97928571D01*
X106523809Y-97976190D01*
X106904761Y-97976190D01*
X105904761Y-98452380D02*
X105904761Y-97452380D01*
X104904761Y-97500000D02*
X105000000Y-97452380D01*
X105142857Y-97452380D01*
X105285714Y-97500000D01*
X105380952Y-97595238D01*
X105428571Y-97690476D01*
X105476190Y-97880952D01*
X105476190Y-98023809D01*
X105428571Y-98214285D01*
X105380952Y-98309523D01*
X105285714Y-98404761D01*
X105142857Y-98452380D01*
X105047619Y-98452380D01*
X104904761Y-98404761D01*
X104857142Y-98357142D01*
X104857142Y-98023809D01*
X105047619Y-98023809D01*
X104428571Y-98452380D02*
X104428571Y-97452380D01*
X104428571Y-97928571D02*
X103857142Y-97928571D01*
X103857142Y-98452380D02*
X103857142Y-97452380D01*
X103523809Y-97452380D02*
X102952380Y-97452380D01*
X103238095Y-98452380D02*
X103238095Y-97452380D01*
D11*
X86000000Y-122000000D02*
X86000000Y-100000000D01*
X92000000Y-122000000D02*
X86000000Y-122000000D01*
X92000000Y-100000000D02*
X92000000Y-122000000D01*
X94000000Y-100000000D02*
X94000000Y-133000000D01*
X100000000Y-100000000D02*
X94000000Y-100000000D01*
X100000000Y-133000000D02*
X100000000Y-100000000D01*
X102000000Y-100000000D02*
X102000000Y-133000000D01*
X108000000Y-100000000D02*
X108000000Y-133000000D01*
X102000000Y-100000000D02*
X108000000Y-100000000D01*
M02*
