%TF.GenerationSoftware,KiCad,Pcbnew,5.1.6-c6e7f7d~86~ubuntu18.04.1*%
%TF.CreationDate,2020-08-11T14:48:33+12:00*%
%TF.ProjectId,Trimodal SMD Cheap,5472696d-6f64-4616-9c20-534d44204368,rev?*%
%TF.SameCoordinates,Original*%
%TF.FileFunction,Soldermask,Bot*%
%TF.FilePolarity,Negative*%
%FSLAX46Y46*%
G04 Gerber Fmt 4.6, Leading zero omitted, Abs format (unit mm)*
G04 Created by KiCad (PCBNEW 5.1.6-c6e7f7d~86~ubuntu18.04.1) date 2020-08-11 14:48:33*
%MOMM*%
%LPD*%
G01*
G04 APERTURE LIST*
%TA.AperFunction,Profile*%
%ADD10C,0.100000*%
%TD*%
%ADD11C,0.150000*%
G04 APERTURE END LIST*
D10*
X62293500Y-131635500D02*
X31686500Y-131635500D01*
X62230000Y-32194500D02*
X31623000Y-32194500D01*
X31686500Y-131635500D02*
X31623000Y-32194500D01*
X146494500Y-32131000D02*
X146367500Y-131572000D01*
X62230000Y-32194500D02*
X146494500Y-32131000D01*
X146367500Y-131572000D02*
X62293500Y-131635500D01*
D11*
G36*
X61714972Y-127273912D02*
G01*
X61810540Y-127283325D01*
X62055780Y-127357718D01*
X62281794Y-127478525D01*
X62333399Y-127520876D01*
X62479897Y-127641103D01*
X62583165Y-127766937D01*
X62642475Y-127839206D01*
X62763282Y-128065220D01*
X62837675Y-128310460D01*
X62862794Y-128565500D01*
X62837675Y-128820540D01*
X62763282Y-129065780D01*
X62642475Y-129291794D01*
X62600124Y-129343399D01*
X62479897Y-129489897D01*
X62333399Y-129610124D01*
X62281794Y-129652475D01*
X62055780Y-129773282D01*
X61810540Y-129847675D01*
X61714973Y-129857087D01*
X61619406Y-129866500D01*
X59491594Y-129866500D01*
X59396027Y-129857087D01*
X59300460Y-129847675D01*
X59055220Y-129773282D01*
X58829206Y-129652475D01*
X58777601Y-129610124D01*
X58631103Y-129489897D01*
X58510876Y-129343399D01*
X58468525Y-129291794D01*
X58347718Y-129065780D01*
X58273325Y-128820540D01*
X58248206Y-128565500D01*
X58273325Y-128310460D01*
X58347718Y-128065220D01*
X58468525Y-127839206D01*
X58527835Y-127766937D01*
X58631103Y-127641103D01*
X58777601Y-127520876D01*
X58829206Y-127478525D01*
X59055220Y-127357718D01*
X59300460Y-127283325D01*
X59396028Y-127273912D01*
X59491594Y-127264500D01*
X61619406Y-127264500D01*
X61714972Y-127273912D01*
G37*
G36*
X126251072Y-125827918D02*
G01*
X126383476Y-125882761D01*
X126496939Y-125929759D01*
X126718212Y-126077610D01*
X126906390Y-126265788D01*
X126993533Y-126396205D01*
X127054242Y-126487063D01*
X127156082Y-126732928D01*
X127208000Y-126993937D01*
X127208000Y-127260063D01*
X127156082Y-127521072D01*
X127119484Y-127609429D01*
X127054241Y-127766939D01*
X126906390Y-127988212D01*
X126718212Y-128176390D01*
X126496939Y-128324241D01*
X126496938Y-128324242D01*
X126496937Y-128324242D01*
X126251072Y-128426082D01*
X125990063Y-128478000D01*
X125723937Y-128478000D01*
X125462928Y-128426082D01*
X125217063Y-128324242D01*
X125217062Y-128324242D01*
X125217061Y-128324241D01*
X124995788Y-128176390D01*
X124807610Y-127988212D01*
X124659759Y-127766939D01*
X124594517Y-127609429D01*
X124557918Y-127521072D01*
X124506000Y-127260063D01*
X124506000Y-126993937D01*
X124557918Y-126732928D01*
X124659758Y-126487063D01*
X124720468Y-126396205D01*
X124807610Y-126265788D01*
X124995788Y-126077610D01*
X125217061Y-125929759D01*
X125330525Y-125882761D01*
X125462928Y-125827918D01*
X125723937Y-125776000D01*
X125990063Y-125776000D01*
X126251072Y-125827918D01*
G37*
G36*
X120091572Y-125827918D02*
G01*
X120223976Y-125882761D01*
X120337439Y-125929759D01*
X120558712Y-126077610D01*
X120746890Y-126265788D01*
X120834033Y-126396205D01*
X120894742Y-126487063D01*
X120996582Y-126732928D01*
X121048500Y-126993937D01*
X121048500Y-127260063D01*
X120996582Y-127521072D01*
X120959984Y-127609429D01*
X120894741Y-127766939D01*
X120746890Y-127988212D01*
X120558712Y-128176390D01*
X120337439Y-128324241D01*
X120337438Y-128324242D01*
X120337437Y-128324242D01*
X120091572Y-128426082D01*
X119830563Y-128478000D01*
X119564437Y-128478000D01*
X119303428Y-128426082D01*
X119057563Y-128324242D01*
X119057562Y-128324242D01*
X119057561Y-128324241D01*
X118836288Y-128176390D01*
X118648110Y-127988212D01*
X118500259Y-127766939D01*
X118435017Y-127609429D01*
X118398418Y-127521072D01*
X118346500Y-127260063D01*
X118346500Y-126993937D01*
X118398418Y-126732928D01*
X118500258Y-126487063D01*
X118560968Y-126396205D01*
X118648110Y-126265788D01*
X118836288Y-126077610D01*
X119057561Y-125929759D01*
X119171025Y-125882761D01*
X119303428Y-125827918D01*
X119564437Y-125776000D01*
X119830563Y-125776000D01*
X120091572Y-125827918D01*
G37*
G36*
X112670880Y-123934276D02*
G01*
X113051593Y-124010004D01*
X113461249Y-124179689D01*
X113829929Y-124426034D01*
X114143466Y-124739571D01*
X114389811Y-125108251D01*
X114559496Y-125517907D01*
X114610833Y-125776000D01*
X114641418Y-125929758D01*
X114646000Y-125952796D01*
X114646000Y-126396204D01*
X114559496Y-126831093D01*
X114389811Y-127240749D01*
X114143466Y-127609429D01*
X113829929Y-127922966D01*
X113461249Y-128169311D01*
X113051593Y-128338996D01*
X112670880Y-128414724D01*
X112616705Y-128425500D01*
X112173295Y-128425500D01*
X112119120Y-128414724D01*
X111738407Y-128338996D01*
X111328751Y-128169311D01*
X110960071Y-127922966D01*
X110646534Y-127609429D01*
X110400189Y-127240749D01*
X110230504Y-126831093D01*
X110144000Y-126396204D01*
X110144000Y-125952796D01*
X110148583Y-125929758D01*
X110179167Y-125776000D01*
X110230504Y-125517907D01*
X110400189Y-125108251D01*
X110646534Y-124739571D01*
X110960071Y-124426034D01*
X111328751Y-124179689D01*
X111738407Y-124010004D01*
X112119120Y-123934276D01*
X112173295Y-123923500D01*
X112616705Y-123923500D01*
X112670880Y-123934276D01*
G37*
G36*
X107325777Y-124202475D02*
G01*
X107507410Y-124238604D01*
X107789674Y-124355521D01*
X108043705Y-124525259D01*
X108259741Y-124741295D01*
X108429479Y-124995326D01*
X108546396Y-125277590D01*
X108606000Y-125577240D01*
X108606000Y-125882760D01*
X108546396Y-126182410D01*
X108429479Y-126464674D01*
X108259741Y-126718705D01*
X108043705Y-126934741D01*
X107789674Y-127104479D01*
X107507410Y-127221396D01*
X107357585Y-127251198D01*
X107207761Y-127281000D01*
X106902239Y-127281000D01*
X106752415Y-127251198D01*
X106602590Y-127221396D01*
X106320326Y-127104479D01*
X106066295Y-126934741D01*
X105850259Y-126718705D01*
X105680521Y-126464674D01*
X105563604Y-126182410D01*
X105504000Y-125882760D01*
X105504000Y-125577240D01*
X105563604Y-125277590D01*
X105680521Y-124995326D01*
X105850259Y-124741295D01*
X106066295Y-124525259D01*
X106320326Y-124355521D01*
X106602590Y-124238604D01*
X106784223Y-124202475D01*
X106902239Y-124179000D01*
X107207761Y-124179000D01*
X107325777Y-124202475D01*
G37*
G36*
X84725777Y-124202475D02*
G01*
X84907410Y-124238604D01*
X85189674Y-124355521D01*
X85443705Y-124525259D01*
X85659741Y-124741295D01*
X85829479Y-124995326D01*
X85946396Y-125277590D01*
X86006000Y-125577240D01*
X86006000Y-125882760D01*
X85946396Y-126182410D01*
X85829479Y-126464674D01*
X85659741Y-126718705D01*
X85443705Y-126934741D01*
X85189674Y-127104479D01*
X84907410Y-127221396D01*
X84757585Y-127251198D01*
X84607761Y-127281000D01*
X84302239Y-127281000D01*
X84152415Y-127251198D01*
X84002590Y-127221396D01*
X83720326Y-127104479D01*
X83466295Y-126934741D01*
X83250259Y-126718705D01*
X83080521Y-126464674D01*
X82963604Y-126182410D01*
X82904000Y-125882760D01*
X82904000Y-125577240D01*
X82963604Y-125277590D01*
X83080521Y-124995326D01*
X83250259Y-124741295D01*
X83466295Y-124525259D01*
X83720326Y-124355521D01*
X84002590Y-124238604D01*
X84184223Y-124202475D01*
X84302239Y-124179000D01*
X84607761Y-124179000D01*
X84725777Y-124202475D01*
G37*
G36*
X61714973Y-121823913D02*
G01*
X61810540Y-121833325D01*
X62055780Y-121907718D01*
X62281794Y-122028525D01*
X62333399Y-122070876D01*
X62479897Y-122191103D01*
X62600124Y-122337601D01*
X62642475Y-122389206D01*
X62763282Y-122615220D01*
X62837675Y-122860460D01*
X62862794Y-123115500D01*
X62837675Y-123370540D01*
X62763282Y-123615780D01*
X62642475Y-123841794D01*
X62600124Y-123893399D01*
X62479897Y-124039897D01*
X62333399Y-124160124D01*
X62281794Y-124202475D01*
X62055780Y-124323282D01*
X61810540Y-124397675D01*
X61714973Y-124407087D01*
X61619406Y-124416500D01*
X59491594Y-124416500D01*
X59396027Y-124407087D01*
X59300460Y-124397675D01*
X59055220Y-124323282D01*
X58829206Y-124202475D01*
X58777601Y-124160124D01*
X58631103Y-124039897D01*
X58510876Y-123893399D01*
X58468525Y-123841794D01*
X58347718Y-123615780D01*
X58273325Y-123370540D01*
X58248206Y-123115500D01*
X58273325Y-122860460D01*
X58347718Y-122615220D01*
X58468525Y-122389206D01*
X58510876Y-122337601D01*
X58631103Y-122191103D01*
X58777601Y-122070876D01*
X58829206Y-122028525D01*
X59055220Y-121907718D01*
X59300460Y-121833325D01*
X59396027Y-121823913D01*
X59491594Y-121814500D01*
X61619406Y-121814500D01*
X61714973Y-121823913D01*
G37*
G36*
X62856500Y-118966500D02*
G01*
X58254500Y-118966500D01*
X58254500Y-116364500D01*
X62856500Y-116364500D01*
X62856500Y-118966500D01*
G37*
G36*
X140919572Y-115413918D02*
G01*
X141165439Y-115515759D01*
X141276828Y-115590187D01*
X141386711Y-115663609D01*
X141574891Y-115851789D01*
X141722742Y-116073063D01*
X141824582Y-116318928D01*
X141876500Y-116579937D01*
X141876500Y-116846063D01*
X141824582Y-117107072D01*
X141742654Y-117304866D01*
X141722741Y-117352939D01*
X141574890Y-117574212D01*
X141386712Y-117762390D01*
X141165439Y-117910241D01*
X141165438Y-117910242D01*
X141165437Y-117910242D01*
X140919572Y-118012082D01*
X140658563Y-118064000D01*
X140392437Y-118064000D01*
X140131428Y-118012082D01*
X139885563Y-117910242D01*
X139885562Y-117910242D01*
X139885561Y-117910241D01*
X139664288Y-117762390D01*
X139476110Y-117574212D01*
X139328259Y-117352939D01*
X139308347Y-117304866D01*
X139226418Y-117107072D01*
X139174500Y-116846063D01*
X139174500Y-116579937D01*
X139226418Y-116318928D01*
X139328258Y-116073063D01*
X139476109Y-115851789D01*
X139664289Y-115663609D01*
X139774172Y-115590187D01*
X139885561Y-115515759D01*
X140131428Y-115413918D01*
X140392437Y-115362000D01*
X140658563Y-115362000D01*
X140919572Y-115413918D01*
G37*
G36*
X89789943Y-112001248D02*
G01*
X90345189Y-112231238D01*
X90559267Y-112374281D01*
X90844899Y-112565134D01*
X91269866Y-112990101D01*
X91269867Y-112990103D01*
X91603762Y-113489811D01*
X91833752Y-114045057D01*
X91951000Y-114634501D01*
X91951000Y-115235499D01*
X91833752Y-115824943D01*
X91603762Y-116380189D01*
X91603761Y-116380190D01*
X91269866Y-116879899D01*
X90844899Y-117304866D01*
X90593347Y-117472948D01*
X90345189Y-117638762D01*
X89789943Y-117868752D01*
X89200499Y-117986000D01*
X88599501Y-117986000D01*
X88010057Y-117868752D01*
X87454811Y-117638762D01*
X87206653Y-117472948D01*
X86955101Y-117304866D01*
X86530134Y-116879899D01*
X86196239Y-116380190D01*
X86196238Y-116380189D01*
X85966248Y-115824943D01*
X85849000Y-115235499D01*
X85849000Y-114634501D01*
X85966248Y-114045057D01*
X86196238Y-113489811D01*
X86530133Y-112990103D01*
X86530134Y-112990101D01*
X86955101Y-112565134D01*
X87240733Y-112374281D01*
X87454811Y-112231238D01*
X88010057Y-112001248D01*
X88599501Y-111884000D01*
X89200499Y-111884000D01*
X89789943Y-112001248D01*
G37*
G36*
X140792572Y-111095918D02*
G01*
X141038439Y-111197759D01*
X141149828Y-111272187D01*
X141259711Y-111345609D01*
X141447891Y-111533789D01*
X141595742Y-111755063D01*
X141697582Y-112000928D01*
X141749500Y-112261937D01*
X141749500Y-112528063D01*
X141697582Y-112789072D01*
X141614314Y-112990101D01*
X141595741Y-113034939D01*
X141447890Y-113256212D01*
X141259712Y-113444390D01*
X141038439Y-113592241D01*
X141038438Y-113592242D01*
X141038437Y-113592242D01*
X140792572Y-113694082D01*
X140531563Y-113746000D01*
X140265437Y-113746000D01*
X140004428Y-113694082D01*
X139758563Y-113592242D01*
X139758562Y-113592242D01*
X139758561Y-113592241D01*
X139537288Y-113444390D01*
X139349110Y-113256212D01*
X139201259Y-113034939D01*
X139182687Y-112990101D01*
X139099418Y-112789072D01*
X139047500Y-112528063D01*
X139047500Y-112261937D01*
X139099418Y-112000928D01*
X139201258Y-111755063D01*
X139349109Y-111533789D01*
X139537289Y-111345609D01*
X139647172Y-111272187D01*
X139758561Y-111197759D01*
X140004428Y-111095918D01*
X140265437Y-111044000D01*
X140531563Y-111044000D01*
X140792572Y-111095918D01*
G37*
G36*
X61714973Y-109874913D02*
G01*
X61810540Y-109884325D01*
X62055780Y-109958718D01*
X62281794Y-110079525D01*
X62333399Y-110121876D01*
X62479897Y-110242103D01*
X62600124Y-110388601D01*
X62642475Y-110440206D01*
X62763282Y-110666220D01*
X62837675Y-110911460D01*
X62862794Y-111166500D01*
X62837675Y-111421540D01*
X62763282Y-111666780D01*
X62642475Y-111892794D01*
X62600124Y-111944399D01*
X62479897Y-112090897D01*
X62333399Y-112211124D01*
X62281794Y-112253475D01*
X62055780Y-112374282D01*
X61810540Y-112448675D01*
X61714972Y-112458088D01*
X61619406Y-112467500D01*
X59491594Y-112467500D01*
X59396028Y-112458088D01*
X59300460Y-112448675D01*
X59055220Y-112374282D01*
X58829206Y-112253475D01*
X58777601Y-112211124D01*
X58631103Y-112090897D01*
X58510876Y-111944399D01*
X58468525Y-111892794D01*
X58347718Y-111666780D01*
X58273325Y-111421540D01*
X58248206Y-111166500D01*
X58273325Y-110911460D01*
X58347718Y-110666220D01*
X58468525Y-110440206D01*
X58510876Y-110388601D01*
X58631103Y-110242103D01*
X58777601Y-110121876D01*
X58829206Y-110079525D01*
X59055220Y-109958718D01*
X59300460Y-109884325D01*
X59396027Y-109874913D01*
X59491594Y-109865500D01*
X61619406Y-109865500D01*
X61714973Y-109874913D01*
G37*
G36*
X61714972Y-104424912D02*
G01*
X61810540Y-104434325D01*
X62055780Y-104508718D01*
X62281794Y-104629525D01*
X62333399Y-104671876D01*
X62479897Y-104792103D01*
X62600124Y-104938601D01*
X62642475Y-104990206D01*
X62763282Y-105216220D01*
X62837675Y-105461460D01*
X62862794Y-105716500D01*
X62837675Y-105971540D01*
X62763282Y-106216780D01*
X62642475Y-106442794D01*
X62600124Y-106494399D01*
X62479897Y-106640897D01*
X62333399Y-106761124D01*
X62281794Y-106803475D01*
X62055780Y-106924282D01*
X61810540Y-106998675D01*
X61714973Y-107008087D01*
X61619406Y-107017500D01*
X59491594Y-107017500D01*
X59396027Y-107008087D01*
X59300460Y-106998675D01*
X59055220Y-106924282D01*
X58829206Y-106803475D01*
X58777601Y-106761124D01*
X58631103Y-106640897D01*
X58510876Y-106494399D01*
X58468525Y-106442794D01*
X58347718Y-106216780D01*
X58273325Y-105971540D01*
X58248206Y-105716500D01*
X58273325Y-105461460D01*
X58347718Y-105216220D01*
X58468525Y-104990206D01*
X58510876Y-104938601D01*
X58631103Y-104792103D01*
X58777601Y-104671876D01*
X58829206Y-104629525D01*
X59055220Y-104508718D01*
X59300460Y-104434325D01*
X59396028Y-104424912D01*
X59491594Y-104415500D01*
X61619406Y-104415500D01*
X61714972Y-104424912D01*
G37*
G36*
X86041000Y-105726000D02*
G01*
X84139000Y-105726000D01*
X84139000Y-103824000D01*
X86041000Y-103824000D01*
X86041000Y-105726000D01*
G37*
G36*
X92987395Y-103860546D02*
G01*
X93160466Y-103932234D01*
X93160467Y-103932235D01*
X93316227Y-104036310D01*
X93448690Y-104168773D01*
X93448691Y-104168775D01*
X93552766Y-104324534D01*
X93624454Y-104497605D01*
X93661000Y-104681333D01*
X93661000Y-104868667D01*
X93624454Y-105052395D01*
X93552766Y-105225466D01*
X93552765Y-105225467D01*
X93448690Y-105381227D01*
X93316227Y-105513690D01*
X93237818Y-105566081D01*
X93160466Y-105617766D01*
X92987395Y-105689454D01*
X92803667Y-105726000D01*
X92616333Y-105726000D01*
X92432605Y-105689454D01*
X92259534Y-105617766D01*
X92182182Y-105566081D01*
X92103773Y-105513690D01*
X91971310Y-105381227D01*
X91867235Y-105225467D01*
X91867234Y-105225466D01*
X91795546Y-105052395D01*
X91759000Y-104868667D01*
X91759000Y-104681333D01*
X91795546Y-104497605D01*
X91867234Y-104324534D01*
X91971309Y-104168775D01*
X91971310Y-104168773D01*
X92103773Y-104036310D01*
X92259533Y-103932235D01*
X92259534Y-103932234D01*
X92432605Y-103860546D01*
X92616333Y-103824000D01*
X92803667Y-103824000D01*
X92987395Y-103860546D01*
G37*
G36*
X85367395Y-101320546D02*
G01*
X85540466Y-101392234D01*
X85540467Y-101392235D01*
X85696227Y-101496310D01*
X85828690Y-101628773D01*
X85828691Y-101628775D01*
X85932766Y-101784534D01*
X86004454Y-101957605D01*
X86041000Y-102141333D01*
X86041000Y-102328667D01*
X86004454Y-102512395D01*
X85932766Y-102685466D01*
X85932765Y-102685467D01*
X85828690Y-102841227D01*
X85696227Y-102973690D01*
X85617818Y-103026081D01*
X85540466Y-103077766D01*
X85367395Y-103149454D01*
X85183667Y-103186000D01*
X84996333Y-103186000D01*
X84812605Y-103149454D01*
X84639534Y-103077766D01*
X84562182Y-103026081D01*
X84483773Y-102973690D01*
X84351310Y-102841227D01*
X84247235Y-102685467D01*
X84247234Y-102685466D01*
X84175546Y-102512395D01*
X84139000Y-102328667D01*
X84139000Y-102141333D01*
X84175546Y-101957605D01*
X84247234Y-101784534D01*
X84351309Y-101628775D01*
X84351310Y-101628773D01*
X84483773Y-101496310D01*
X84639533Y-101392235D01*
X84639534Y-101392234D01*
X84812605Y-101320546D01*
X84996333Y-101284000D01*
X85183667Y-101284000D01*
X85367395Y-101320546D01*
G37*
G36*
X92987395Y-101320546D02*
G01*
X93160466Y-101392234D01*
X93160467Y-101392235D01*
X93316227Y-101496310D01*
X93448690Y-101628773D01*
X93448691Y-101628775D01*
X93552766Y-101784534D01*
X93624454Y-101957605D01*
X93661000Y-102141333D01*
X93661000Y-102328667D01*
X93624454Y-102512395D01*
X93552766Y-102685466D01*
X93552765Y-102685467D01*
X93448690Y-102841227D01*
X93316227Y-102973690D01*
X93237818Y-103026081D01*
X93160466Y-103077766D01*
X92987395Y-103149454D01*
X92803667Y-103186000D01*
X92616333Y-103186000D01*
X92432605Y-103149454D01*
X92259534Y-103077766D01*
X92182182Y-103026081D01*
X92103773Y-102973690D01*
X91971310Y-102841227D01*
X91867235Y-102685467D01*
X91867234Y-102685466D01*
X91795546Y-102512395D01*
X91759000Y-102328667D01*
X91759000Y-102141333D01*
X91795546Y-101957605D01*
X91867234Y-101784534D01*
X91971309Y-101628775D01*
X91971310Y-101628773D01*
X92103773Y-101496310D01*
X92259533Y-101392235D01*
X92259534Y-101392234D01*
X92432605Y-101320546D01*
X92616333Y-101284000D01*
X92803667Y-101284000D01*
X92987395Y-101320546D01*
G37*
G36*
X104378205Y-99727461D02*
G01*
X104496153Y-99750922D01*
X104587272Y-99788665D01*
X104718359Y-99842963D01*
X104918342Y-99976587D01*
X105088413Y-100146658D01*
X105222037Y-100346641D01*
X105258094Y-100433690D01*
X105314078Y-100568847D01*
X105361000Y-100804742D01*
X105361000Y-101045258D01*
X105314078Y-101281153D01*
X105297760Y-101320547D01*
X105222037Y-101503359D01*
X105088413Y-101703342D01*
X104918342Y-101873413D01*
X104718359Y-102007037D01*
X104588194Y-102060953D01*
X104496153Y-102099078D01*
X104378205Y-102122539D01*
X104260259Y-102146000D01*
X104019741Y-102146000D01*
X103901795Y-102122539D01*
X103783847Y-102099078D01*
X103691806Y-102060953D01*
X103561641Y-102007037D01*
X103361658Y-101873413D01*
X103191587Y-101703342D01*
X103057963Y-101503359D01*
X102982240Y-101320547D01*
X102965922Y-101281153D01*
X102919000Y-101045258D01*
X102919000Y-100804742D01*
X102965922Y-100568847D01*
X103021906Y-100433690D01*
X103057963Y-100346641D01*
X103191587Y-100146658D01*
X103361658Y-99976587D01*
X103561641Y-99842963D01*
X103692728Y-99788665D01*
X103783847Y-99750922D01*
X103901795Y-99727461D01*
X104019741Y-99704000D01*
X104260259Y-99704000D01*
X104378205Y-99727461D01*
G37*
G36*
X62856500Y-101567500D02*
G01*
X58254500Y-101567500D01*
X58254500Y-98965500D01*
X62856500Y-98965500D01*
X62856500Y-101567500D01*
G37*
G36*
X85367395Y-98780546D02*
G01*
X85540466Y-98852234D01*
X85540467Y-98852235D01*
X85696227Y-98956310D01*
X85828690Y-99088773D01*
X85828691Y-99088775D01*
X85932766Y-99244534D01*
X86004454Y-99417605D01*
X86041000Y-99601333D01*
X86041000Y-99788667D01*
X86004454Y-99972395D01*
X85932766Y-100145466D01*
X85881081Y-100222818D01*
X85828690Y-100301227D01*
X85696227Y-100433690D01*
X85617818Y-100486081D01*
X85540466Y-100537766D01*
X85367395Y-100609454D01*
X85183667Y-100646000D01*
X84996333Y-100646000D01*
X84812605Y-100609454D01*
X84639534Y-100537766D01*
X84562182Y-100486081D01*
X84483773Y-100433690D01*
X84351310Y-100301227D01*
X84298919Y-100222818D01*
X84247234Y-100145466D01*
X84175546Y-99972395D01*
X84139000Y-99788667D01*
X84139000Y-99601333D01*
X84175546Y-99417605D01*
X84247234Y-99244534D01*
X84351309Y-99088775D01*
X84351310Y-99088773D01*
X84483773Y-98956310D01*
X84639533Y-98852235D01*
X84639534Y-98852234D01*
X84812605Y-98780546D01*
X84996333Y-98744000D01*
X85183667Y-98744000D01*
X85367395Y-98780546D01*
G37*
G36*
X93661000Y-100646000D02*
G01*
X91759000Y-100646000D01*
X91759000Y-98744000D01*
X93661000Y-98744000D01*
X93661000Y-100646000D01*
G37*
G36*
X114496153Y-97250922D02*
G01*
X114588194Y-97289047D01*
X114718359Y-97342963D01*
X114918342Y-97476587D01*
X115088413Y-97646658D01*
X115222037Y-97846641D01*
X115275953Y-97976806D01*
X115314078Y-98068847D01*
X115361000Y-98304742D01*
X115361000Y-98545258D01*
X115314199Y-98780547D01*
X115314078Y-98781152D01*
X115222037Y-99003359D01*
X115088413Y-99203342D01*
X114918342Y-99373413D01*
X114718359Y-99507037D01*
X114588194Y-99560953D01*
X114496153Y-99599078D01*
X114260259Y-99646000D01*
X114019741Y-99646000D01*
X113901795Y-99622539D01*
X113783847Y-99599078D01*
X113691806Y-99560953D01*
X113561641Y-99507037D01*
X113361658Y-99373413D01*
X113191587Y-99203342D01*
X113057963Y-99003359D01*
X112965922Y-98781152D01*
X112965802Y-98780547D01*
X112919000Y-98545258D01*
X112919000Y-98304742D01*
X112965922Y-98068847D01*
X113004047Y-97976806D01*
X113057963Y-97846641D01*
X113191587Y-97646658D01*
X113361658Y-97476587D01*
X113561641Y-97342963D01*
X113691806Y-97289047D01*
X113783847Y-97250922D01*
X114019741Y-97204000D01*
X114260259Y-97204000D01*
X114496153Y-97250922D01*
G37*
G36*
X104378205Y-94727461D02*
G01*
X104496153Y-94750922D01*
X104588194Y-94789047D01*
X104718359Y-94842963D01*
X104918342Y-94976587D01*
X105088413Y-95146658D01*
X105222037Y-95346641D01*
X105314078Y-95568848D01*
X105361000Y-95804741D01*
X105361000Y-96045259D01*
X105314078Y-96281152D01*
X105222037Y-96503359D01*
X105088413Y-96703342D01*
X104918342Y-96873413D01*
X104718359Y-97007037D01*
X104588194Y-97060953D01*
X104496153Y-97099078D01*
X104378205Y-97122539D01*
X104260259Y-97146000D01*
X104019741Y-97146000D01*
X103901795Y-97122539D01*
X103783847Y-97099078D01*
X103691806Y-97060953D01*
X103561641Y-97007037D01*
X103361658Y-96873413D01*
X103191587Y-96703342D01*
X103057963Y-96503359D01*
X102965922Y-96281152D01*
X102919000Y-96045259D01*
X102919000Y-95804741D01*
X102965922Y-95568848D01*
X103057963Y-95346641D01*
X103191587Y-95146658D01*
X103361658Y-94976587D01*
X103561641Y-94842963D01*
X103691806Y-94789047D01*
X103783847Y-94750922D01*
X103901795Y-94727461D01*
X104019741Y-94704000D01*
X104260259Y-94704000D01*
X104378205Y-94727461D01*
G37*
G36*
X68944903Y-93793075D02*
G01*
X69172571Y-93887378D01*
X69377466Y-94024285D01*
X69551715Y-94198534D01*
X69688622Y-94403429D01*
X69782925Y-94631097D01*
X69831000Y-94872787D01*
X69831000Y-95119213D01*
X69782925Y-95360903D01*
X69688622Y-95588571D01*
X69551715Y-95793466D01*
X69377466Y-95967715D01*
X69172571Y-96104622D01*
X69172570Y-96104623D01*
X69172569Y-96104623D01*
X68944903Y-96198925D01*
X68703214Y-96247000D01*
X68456786Y-96247000D01*
X68215097Y-96198925D01*
X67987431Y-96104623D01*
X67987430Y-96104623D01*
X67987429Y-96104622D01*
X67782534Y-95967715D01*
X67608285Y-95793466D01*
X67471378Y-95588571D01*
X67377075Y-95360903D01*
X67329000Y-95119213D01*
X67329000Y-94872787D01*
X67377075Y-94631097D01*
X67471378Y-94403429D01*
X67608285Y-94198534D01*
X67782534Y-94024285D01*
X67987429Y-93887378D01*
X68215097Y-93793075D01*
X68456786Y-93745000D01*
X68703214Y-93745000D01*
X68944903Y-93793075D01*
G37*
G36*
X89789943Y-86601248D02*
G01*
X90345189Y-86831238D01*
X90345190Y-86831239D01*
X90844899Y-87165134D01*
X91269866Y-87590101D01*
X91269867Y-87590103D01*
X91603762Y-88089811D01*
X91833752Y-88645057D01*
X91951000Y-89234501D01*
X91951000Y-89835499D01*
X91833752Y-90424943D01*
X91603762Y-90980189D01*
X91603761Y-90980190D01*
X91269866Y-91479899D01*
X90844899Y-91904866D01*
X90593347Y-92072948D01*
X90345189Y-92238762D01*
X89789943Y-92468752D01*
X89200499Y-92586000D01*
X88599501Y-92586000D01*
X88010057Y-92468752D01*
X87454811Y-92238762D01*
X87206653Y-92072948D01*
X86955101Y-91904866D01*
X86530134Y-91479899D01*
X86196239Y-90980190D01*
X86196238Y-90980189D01*
X85966248Y-90424943D01*
X85849000Y-89835499D01*
X85849000Y-89234501D01*
X85966248Y-88645057D01*
X86196238Y-88089811D01*
X86530133Y-87590103D01*
X86530134Y-87590101D01*
X86955101Y-87165134D01*
X87454810Y-86831239D01*
X87454811Y-86831238D01*
X88010057Y-86601248D01*
X88599501Y-86484000D01*
X89200499Y-86484000D01*
X89789943Y-86601248D01*
G37*
G36*
X90826880Y-79611276D02*
G01*
X91207593Y-79687004D01*
X91617249Y-79856689D01*
X91985929Y-80103034D01*
X92299466Y-80416571D01*
X92545811Y-80785251D01*
X92715496Y-81194907D01*
X92802000Y-81629796D01*
X92802000Y-82073204D01*
X92715496Y-82508093D01*
X92545811Y-82917749D01*
X92299466Y-83286429D01*
X91985929Y-83599966D01*
X91617249Y-83846311D01*
X91207593Y-84015996D01*
X90826880Y-84091724D01*
X90772705Y-84102500D01*
X90329295Y-84102500D01*
X90275120Y-84091724D01*
X89894407Y-84015996D01*
X89484751Y-83846311D01*
X89116071Y-83599966D01*
X88802534Y-83286429D01*
X88556189Y-82917749D01*
X88386504Y-82508093D01*
X88300000Y-82073204D01*
X88300000Y-81629796D01*
X88386504Y-81194907D01*
X88556189Y-80785251D01*
X88802534Y-80416571D01*
X89116071Y-80103034D01*
X89484751Y-79856689D01*
X89894407Y-79687004D01*
X90275120Y-79611276D01*
X90329295Y-79600500D01*
X90772705Y-79600500D01*
X90826880Y-79611276D01*
G37*
G36*
X86064380Y-79547776D02*
G01*
X86445093Y-79623504D01*
X86854749Y-79793189D01*
X87223429Y-80039534D01*
X87536966Y-80353071D01*
X87783311Y-80721751D01*
X87952996Y-81131407D01*
X88039500Y-81566296D01*
X88039500Y-82009704D01*
X87952996Y-82444593D01*
X87783311Y-82854249D01*
X87536966Y-83222929D01*
X87223429Y-83536466D01*
X86854749Y-83782811D01*
X86445093Y-83952496D01*
X86064380Y-84028224D01*
X86010205Y-84039000D01*
X85566795Y-84039000D01*
X85512620Y-84028224D01*
X85131907Y-83952496D01*
X84722251Y-83782811D01*
X84353571Y-83536466D01*
X84040034Y-83222929D01*
X83793689Y-82854249D01*
X83624004Y-82444593D01*
X83537500Y-82009704D01*
X83537500Y-81566296D01*
X83624004Y-81131407D01*
X83793689Y-80721751D01*
X84040034Y-80353071D01*
X84353571Y-80039534D01*
X84722251Y-79793189D01*
X85131907Y-79623504D01*
X85512620Y-79547776D01*
X85566795Y-79537000D01*
X86010205Y-79537000D01*
X86064380Y-79547776D01*
G37*
G36*
X119170500Y-82277000D02*
G01*
X116668500Y-82277000D01*
X116668500Y-79775000D01*
X119170500Y-79775000D01*
X119170500Y-82277000D01*
G37*
G36*
X118284403Y-74823075D02*
G01*
X118512071Y-74917378D01*
X118716966Y-75054285D01*
X118891215Y-75228534D01*
X118891216Y-75228536D01*
X119028123Y-75433431D01*
X119122425Y-75661097D01*
X119170500Y-75902786D01*
X119170500Y-76149214D01*
X119122425Y-76390903D01*
X119038403Y-76593752D01*
X119028122Y-76618571D01*
X118891215Y-76823466D01*
X118716966Y-76997715D01*
X118512071Y-77134622D01*
X118512070Y-77134623D01*
X118512069Y-77134623D01*
X118284403Y-77228925D01*
X118042714Y-77277000D01*
X117796286Y-77277000D01*
X117554597Y-77228925D01*
X117326931Y-77134623D01*
X117326930Y-77134623D01*
X117326929Y-77134622D01*
X117122034Y-76997715D01*
X116947785Y-76823466D01*
X116810878Y-76618571D01*
X116800598Y-76593752D01*
X116716575Y-76390903D01*
X116668500Y-76149214D01*
X116668500Y-75902786D01*
X116716575Y-75661097D01*
X116810877Y-75433431D01*
X116947784Y-75228536D01*
X116947785Y-75228534D01*
X117122034Y-75054285D01*
X117326929Y-74917378D01*
X117554597Y-74823075D01*
X117796286Y-74775000D01*
X118042714Y-74775000D01*
X118284403Y-74823075D01*
G37*
G36*
X89789943Y-70726248D02*
G01*
X90345189Y-70956238D01*
X90345190Y-70956239D01*
X90844899Y-71290134D01*
X91269866Y-71715101D01*
X91269867Y-71715103D01*
X91603762Y-72214811D01*
X91833752Y-72770057D01*
X91951000Y-73359501D01*
X91951000Y-73960499D01*
X91833752Y-74549943D01*
X91603762Y-75105189D01*
X91603761Y-75105190D01*
X91269866Y-75604899D01*
X90844899Y-76029866D01*
X90666284Y-76149213D01*
X90345189Y-76363762D01*
X89789943Y-76593752D01*
X89200499Y-76711000D01*
X88599501Y-76711000D01*
X88010057Y-76593752D01*
X87454811Y-76363762D01*
X87133716Y-76149213D01*
X86955101Y-76029866D01*
X86530134Y-75604899D01*
X86196239Y-75105190D01*
X86196238Y-75105189D01*
X85966248Y-74549943D01*
X85849000Y-73960499D01*
X85849000Y-73359501D01*
X85966248Y-72770057D01*
X86196238Y-72214811D01*
X86530133Y-71715103D01*
X86530134Y-71715101D01*
X86955101Y-71290134D01*
X87454810Y-70956239D01*
X87454811Y-70956238D01*
X88010057Y-70726248D01*
X88599501Y-70609000D01*
X89200499Y-70609000D01*
X89789943Y-70726248D01*
G37*
G36*
X68944903Y-68393075D02*
G01*
X69172571Y-68487378D01*
X69377466Y-68624285D01*
X69551715Y-68798534D01*
X69688622Y-69003429D01*
X69782925Y-69231097D01*
X69831000Y-69472787D01*
X69831000Y-69719213D01*
X69782925Y-69960903D01*
X69688622Y-70188571D01*
X69551715Y-70393466D01*
X69377466Y-70567715D01*
X69172571Y-70704622D01*
X69172570Y-70704623D01*
X69172569Y-70704623D01*
X68944903Y-70798925D01*
X68703214Y-70847000D01*
X68456786Y-70847000D01*
X68215097Y-70798925D01*
X67987431Y-70704623D01*
X67987430Y-70704623D01*
X67987429Y-70704622D01*
X67782534Y-70567715D01*
X67608285Y-70393466D01*
X67471378Y-70188571D01*
X67377075Y-69960903D01*
X67329000Y-69719213D01*
X67329000Y-69472787D01*
X67377075Y-69231097D01*
X67471378Y-69003429D01*
X67608285Y-68798534D01*
X67782534Y-68624285D01*
X67987429Y-68487378D01*
X68215097Y-68393075D01*
X68456786Y-68345000D01*
X68703214Y-68345000D01*
X68944903Y-68393075D01*
G37*
G36*
X67776380Y-62021776D02*
G01*
X68157093Y-62097504D01*
X68566749Y-62267189D01*
X68935429Y-62513534D01*
X69248966Y-62827071D01*
X69495311Y-63195751D01*
X69664996Y-63605407D01*
X69751500Y-64040296D01*
X69751500Y-64483704D01*
X69664996Y-64918593D01*
X69495311Y-65328249D01*
X69248966Y-65696929D01*
X68935429Y-66010466D01*
X68566749Y-66256811D01*
X68157093Y-66426496D01*
X67776380Y-66502224D01*
X67722205Y-66513000D01*
X67278795Y-66513000D01*
X67224620Y-66502224D01*
X66843907Y-66426496D01*
X66434251Y-66256811D01*
X66065571Y-66010466D01*
X65752034Y-65696929D01*
X65505689Y-65328249D01*
X65336004Y-64918593D01*
X65249500Y-64483704D01*
X65249500Y-64040296D01*
X65336004Y-63605407D01*
X65505689Y-63195751D01*
X65752034Y-62827071D01*
X66065571Y-62513534D01*
X66434251Y-62267189D01*
X66843907Y-62097504D01*
X67224620Y-62021776D01*
X67278795Y-62011000D01*
X67722205Y-62011000D01*
X67776380Y-62021776D01*
G37*
G36*
X61778473Y-63011913D02*
G01*
X61874040Y-63021325D01*
X62119280Y-63095718D01*
X62345294Y-63216525D01*
X62352701Y-63222604D01*
X62543397Y-63379103D01*
X62663624Y-63525601D01*
X62705975Y-63577206D01*
X62826782Y-63803220D01*
X62901175Y-64048460D01*
X62926294Y-64303500D01*
X62901175Y-64558540D01*
X62826782Y-64803780D01*
X62705975Y-65029794D01*
X62663624Y-65081399D01*
X62543397Y-65227897D01*
X62396899Y-65348124D01*
X62345294Y-65390475D01*
X62119280Y-65511282D01*
X61874040Y-65585675D01*
X61778472Y-65595088D01*
X61682906Y-65604500D01*
X59555094Y-65604500D01*
X59459528Y-65595088D01*
X59363960Y-65585675D01*
X59118720Y-65511282D01*
X58892706Y-65390475D01*
X58841101Y-65348124D01*
X58694603Y-65227897D01*
X58574376Y-65081399D01*
X58532025Y-65029794D01*
X58411218Y-64803780D01*
X58336825Y-64558540D01*
X58311706Y-64303500D01*
X58336825Y-64048460D01*
X58411218Y-63803220D01*
X58532025Y-63577206D01*
X58574376Y-63525601D01*
X58694603Y-63379103D01*
X58885299Y-63222604D01*
X58892706Y-63216525D01*
X59118720Y-63095718D01*
X59363960Y-63021325D01*
X59459527Y-63011913D01*
X59555094Y-63002500D01*
X61682906Y-63002500D01*
X61778473Y-63011913D01*
G37*
G36*
X92987395Y-62585546D02*
G01*
X93160466Y-62657234D01*
X93160467Y-62657235D01*
X93316227Y-62761310D01*
X93448690Y-62893773D01*
X93448691Y-62893775D01*
X93552766Y-63049534D01*
X93624454Y-63222605D01*
X93661000Y-63406333D01*
X93661000Y-63593667D01*
X93624454Y-63777395D01*
X93552766Y-63950466D01*
X93552765Y-63950467D01*
X93448690Y-64106227D01*
X93316227Y-64238690D01*
X93237818Y-64291081D01*
X93160466Y-64342766D01*
X92987395Y-64414454D01*
X92803667Y-64451000D01*
X92616333Y-64451000D01*
X92432605Y-64414454D01*
X92259534Y-64342766D01*
X92182182Y-64291081D01*
X92103773Y-64238690D01*
X91971310Y-64106227D01*
X91867235Y-63950467D01*
X91867234Y-63950466D01*
X91795546Y-63777395D01*
X91759000Y-63593667D01*
X91759000Y-63406333D01*
X91795546Y-63222605D01*
X91867234Y-63049534D01*
X91971309Y-62893775D01*
X91971310Y-62893773D01*
X92103773Y-62761310D01*
X92259533Y-62657235D01*
X92259534Y-62657234D01*
X92432605Y-62585546D01*
X92616333Y-62549000D01*
X92803667Y-62549000D01*
X92987395Y-62585546D01*
G37*
G36*
X92987395Y-60045546D02*
G01*
X93160466Y-60117234D01*
X93160467Y-60117235D01*
X93316227Y-60221310D01*
X93448690Y-60353773D01*
X93448691Y-60353775D01*
X93552766Y-60509534D01*
X93624454Y-60682605D01*
X93661000Y-60866333D01*
X93661000Y-61053667D01*
X93624454Y-61237395D01*
X93552766Y-61410466D01*
X93552765Y-61410467D01*
X93448690Y-61566227D01*
X93316227Y-61698690D01*
X93237818Y-61751081D01*
X93160466Y-61802766D01*
X92987395Y-61874454D01*
X92803667Y-61911000D01*
X92616333Y-61911000D01*
X92432605Y-61874454D01*
X92259534Y-61802766D01*
X92182182Y-61751081D01*
X92103773Y-61698690D01*
X91971310Y-61566227D01*
X91867235Y-61410467D01*
X91867234Y-61410466D01*
X91795546Y-61237395D01*
X91759000Y-61053667D01*
X91759000Y-60866333D01*
X91795546Y-60682605D01*
X91867234Y-60509534D01*
X91971309Y-60353775D01*
X91971310Y-60353773D01*
X92103773Y-60221310D01*
X92259533Y-60117235D01*
X92259534Y-60117234D01*
X92432605Y-60045546D01*
X92616333Y-60009000D01*
X92803667Y-60009000D01*
X92987395Y-60045546D01*
G37*
G36*
X61778472Y-57561912D02*
G01*
X61874040Y-57571325D01*
X62119280Y-57645718D01*
X62345294Y-57766525D01*
X62396899Y-57808876D01*
X62543397Y-57929103D01*
X62663624Y-58075601D01*
X62705975Y-58127206D01*
X62826782Y-58353220D01*
X62901175Y-58598460D01*
X62926294Y-58853500D01*
X62901175Y-59108540D01*
X62826782Y-59353780D01*
X62705975Y-59579794D01*
X62663624Y-59631399D01*
X62543397Y-59777897D01*
X62396899Y-59898124D01*
X62345294Y-59940475D01*
X62119280Y-60061282D01*
X61874040Y-60135675D01*
X61778472Y-60145088D01*
X61682906Y-60154500D01*
X59555094Y-60154500D01*
X59459528Y-60145088D01*
X59363960Y-60135675D01*
X59118720Y-60061282D01*
X58892706Y-59940475D01*
X58841101Y-59898124D01*
X58694603Y-59777897D01*
X58574376Y-59631399D01*
X58532025Y-59579794D01*
X58411218Y-59353780D01*
X58336825Y-59108540D01*
X58311706Y-58853500D01*
X58336825Y-58598460D01*
X58411218Y-58353220D01*
X58532025Y-58127206D01*
X58574376Y-58075601D01*
X58694603Y-57929103D01*
X58841101Y-57808876D01*
X58892706Y-57766525D01*
X59118720Y-57645718D01*
X59363960Y-57571325D01*
X59459528Y-57561912D01*
X59555094Y-57552500D01*
X61682906Y-57552500D01*
X61778472Y-57561912D01*
G37*
G36*
X93661000Y-59371000D02*
G01*
X91759000Y-59371000D01*
X91759000Y-57469000D01*
X93661000Y-57469000D01*
X93661000Y-59371000D01*
G37*
G36*
X119805500Y-56051500D02*
G01*
X117303500Y-56051500D01*
X117303500Y-53549500D01*
X119805500Y-53549500D01*
X119805500Y-56051500D01*
G37*
G36*
X62920000Y-54704500D02*
G01*
X58318000Y-54704500D01*
X58318000Y-52102500D01*
X62920000Y-52102500D01*
X62920000Y-54704500D01*
G37*
G36*
X89789943Y-45326248D02*
G01*
X90345189Y-45556238D01*
X90477020Y-45644325D01*
X90844899Y-45890134D01*
X91269866Y-46315101D01*
X91269867Y-46315103D01*
X91603762Y-46814811D01*
X91833752Y-47370057D01*
X91951000Y-47959501D01*
X91951000Y-48560499D01*
X91833752Y-49149943D01*
X91603762Y-49705189D01*
X91603761Y-49705190D01*
X91269866Y-50204899D01*
X90844899Y-50629866D01*
X90631859Y-50772215D01*
X90345189Y-50963762D01*
X89789943Y-51193752D01*
X89200499Y-51311000D01*
X88599501Y-51311000D01*
X88010057Y-51193752D01*
X87454811Y-50963762D01*
X87168141Y-50772215D01*
X86955101Y-50629866D01*
X86530134Y-50204899D01*
X86196239Y-49705190D01*
X86196238Y-49705189D01*
X85966248Y-49149943D01*
X85849000Y-48560499D01*
X85849000Y-47959501D01*
X85966248Y-47370057D01*
X86196238Y-46814811D01*
X86530133Y-46315103D01*
X86530134Y-46315101D01*
X86955101Y-45890134D01*
X87322980Y-45644325D01*
X87454811Y-45556238D01*
X88010057Y-45326248D01*
X88599501Y-45209000D01*
X89200499Y-45209000D01*
X89789943Y-45326248D01*
G37*
G36*
X118919403Y-48597575D02*
G01*
X119147071Y-48691878D01*
X119351966Y-48828785D01*
X119526215Y-49003034D01*
X119663122Y-49207929D01*
X119757425Y-49435597D01*
X119805500Y-49677287D01*
X119805500Y-49923713D01*
X119757425Y-50165403D01*
X119663122Y-50393071D01*
X119526215Y-50597966D01*
X119351966Y-50772215D01*
X119147071Y-50909122D01*
X119147070Y-50909123D01*
X119147069Y-50909123D01*
X118919403Y-51003425D01*
X118677714Y-51051500D01*
X118431286Y-51051500D01*
X118189597Y-51003425D01*
X117961931Y-50909123D01*
X117961930Y-50909123D01*
X117961929Y-50909122D01*
X117757034Y-50772215D01*
X117582785Y-50597966D01*
X117445878Y-50393071D01*
X117351575Y-50165403D01*
X117303500Y-49923713D01*
X117303500Y-49677287D01*
X117351575Y-49435597D01*
X117445878Y-49207929D01*
X117582785Y-49003034D01*
X117757034Y-48828785D01*
X117961929Y-48691878D01*
X118189597Y-48597575D01*
X118431286Y-48549500D01*
X118677714Y-48549500D01*
X118919403Y-48597575D01*
G37*
G36*
X61778473Y-45634913D02*
G01*
X61874040Y-45644325D01*
X62119280Y-45718718D01*
X62345294Y-45839525D01*
X62396899Y-45881876D01*
X62543397Y-46002103D01*
X62663624Y-46148601D01*
X62705975Y-46200206D01*
X62826782Y-46426220D01*
X62901175Y-46671460D01*
X62926294Y-46926500D01*
X62901175Y-47181540D01*
X62826782Y-47426780D01*
X62705975Y-47652794D01*
X62663624Y-47704399D01*
X62543397Y-47850897D01*
X62411061Y-47959501D01*
X62345294Y-48013475D01*
X62119280Y-48134282D01*
X61874040Y-48208675D01*
X61778473Y-48218087D01*
X61682906Y-48227500D01*
X59555094Y-48227500D01*
X59459528Y-48218088D01*
X59363960Y-48208675D01*
X59118720Y-48134282D01*
X58892706Y-48013475D01*
X58826939Y-47959501D01*
X58694603Y-47850897D01*
X58574376Y-47704399D01*
X58532025Y-47652794D01*
X58411218Y-47426780D01*
X58336825Y-47181540D01*
X58311706Y-46926500D01*
X58336825Y-46671460D01*
X58411218Y-46426220D01*
X58532025Y-46200206D01*
X58574376Y-46148601D01*
X58694603Y-46002103D01*
X58841101Y-45881876D01*
X58892706Y-45839525D01*
X59118720Y-45718718D01*
X59363960Y-45644325D01*
X59459527Y-45634913D01*
X59555094Y-45625500D01*
X61682906Y-45625500D01*
X61778473Y-45634913D01*
G37*
G36*
X61778472Y-40184912D02*
G01*
X61874040Y-40194325D01*
X62119280Y-40268718D01*
X62345294Y-40389525D01*
X62396899Y-40431876D01*
X62543397Y-40552103D01*
X62663624Y-40698601D01*
X62705975Y-40750206D01*
X62826782Y-40976220D01*
X62901175Y-41221460D01*
X62926294Y-41476500D01*
X62901175Y-41731540D01*
X62826782Y-41976780D01*
X62705975Y-42202794D01*
X62663624Y-42254399D01*
X62543397Y-42400897D01*
X62396899Y-42521124D01*
X62345294Y-42563475D01*
X62119280Y-42684282D01*
X61874040Y-42758675D01*
X61778473Y-42768087D01*
X61682906Y-42777500D01*
X59555094Y-42777500D01*
X59459527Y-42768087D01*
X59363960Y-42758675D01*
X59118720Y-42684282D01*
X58892706Y-42563475D01*
X58841101Y-42521124D01*
X58694603Y-42400897D01*
X58574376Y-42254399D01*
X58532025Y-42202794D01*
X58411218Y-41976780D01*
X58336825Y-41731540D01*
X58311706Y-41476500D01*
X58336825Y-41221460D01*
X58411218Y-40976220D01*
X58532025Y-40750206D01*
X58574376Y-40698601D01*
X58694603Y-40552103D01*
X58841101Y-40431876D01*
X58892706Y-40389525D01*
X59118720Y-40268718D01*
X59363960Y-40194325D01*
X59459528Y-40184912D01*
X59555094Y-40175500D01*
X61682906Y-40175500D01*
X61778472Y-40184912D01*
G37*
G36*
X113305880Y-35224776D02*
G01*
X113686593Y-35300504D01*
X114096249Y-35470189D01*
X114464929Y-35716534D01*
X114778466Y-36030071D01*
X115024811Y-36398751D01*
X115194496Y-36808407D01*
X115281000Y-37243296D01*
X115281000Y-37686704D01*
X115194496Y-38121593D01*
X115024811Y-38531249D01*
X114778466Y-38899929D01*
X114464929Y-39213466D01*
X114096249Y-39459811D01*
X113686593Y-39629496D01*
X113305880Y-39705224D01*
X113251705Y-39716000D01*
X112808295Y-39716000D01*
X112754120Y-39705224D01*
X112373407Y-39629496D01*
X111963751Y-39459811D01*
X111595071Y-39213466D01*
X111281534Y-38899929D01*
X111035189Y-38531249D01*
X110865504Y-38121593D01*
X110779000Y-37686704D01*
X110779000Y-37243296D01*
X110865504Y-36808407D01*
X111035189Y-36398751D01*
X111281534Y-36030071D01*
X111595071Y-35716534D01*
X111963751Y-35470189D01*
X112373407Y-35300504D01*
X112754120Y-35224776D01*
X112808295Y-35214000D01*
X113251705Y-35214000D01*
X113305880Y-35224776D01*
G37*
G36*
X107992585Y-35943802D02*
G01*
X108142410Y-35973604D01*
X108424674Y-36090521D01*
X108678705Y-36260259D01*
X108894741Y-36476295D01*
X109064479Y-36730326D01*
X109181396Y-37012590D01*
X109241000Y-37312240D01*
X109241000Y-37617760D01*
X109181396Y-37917410D01*
X109064479Y-38199674D01*
X108894741Y-38453705D01*
X108678705Y-38669741D01*
X108424674Y-38839479D01*
X108142410Y-38956396D01*
X107992585Y-38986198D01*
X107842761Y-39016000D01*
X107537239Y-39016000D01*
X107387415Y-38986198D01*
X107237590Y-38956396D01*
X106955326Y-38839479D01*
X106701295Y-38669741D01*
X106485259Y-38453705D01*
X106315521Y-38199674D01*
X106198604Y-37917410D01*
X106139000Y-37617760D01*
X106139000Y-37312240D01*
X106198604Y-37012590D01*
X106315521Y-36730326D01*
X106485259Y-36476295D01*
X106701295Y-36260259D01*
X106955326Y-36090521D01*
X107237590Y-35973604D01*
X107387415Y-35943802D01*
X107537239Y-35914000D01*
X107842761Y-35914000D01*
X107992585Y-35943802D01*
G37*
G36*
X85392585Y-35943802D02*
G01*
X85542410Y-35973604D01*
X85824674Y-36090521D01*
X86078705Y-36260259D01*
X86294741Y-36476295D01*
X86464479Y-36730326D01*
X86581396Y-37012590D01*
X86641000Y-37312240D01*
X86641000Y-37617760D01*
X86581396Y-37917410D01*
X86464479Y-38199674D01*
X86294741Y-38453705D01*
X86078705Y-38669741D01*
X85824674Y-38839479D01*
X85542410Y-38956396D01*
X85392585Y-38986198D01*
X85242761Y-39016000D01*
X84937239Y-39016000D01*
X84787415Y-38986198D01*
X84637590Y-38956396D01*
X84355326Y-38839479D01*
X84101295Y-38669741D01*
X83885259Y-38453705D01*
X83715521Y-38199674D01*
X83598604Y-37917410D01*
X83539000Y-37617760D01*
X83539000Y-37312240D01*
X83598604Y-37012590D01*
X83715521Y-36730326D01*
X83885259Y-36476295D01*
X84101295Y-36260259D01*
X84355326Y-36090521D01*
X84637590Y-35973604D01*
X84787415Y-35943802D01*
X84937239Y-35914000D01*
X85242761Y-35914000D01*
X85392585Y-35943802D01*
G37*
G36*
X183281381Y-33318277D02*
G01*
X183662094Y-33394005D01*
X184071750Y-33563690D01*
X184440430Y-33810035D01*
X184753967Y-34123572D01*
X185000312Y-34492252D01*
X185169997Y-34901908D01*
X185256501Y-35336797D01*
X185256501Y-35780205D01*
X185169997Y-36215094D01*
X185000312Y-36624750D01*
X184753967Y-36993430D01*
X184440430Y-37306967D01*
X184071750Y-37553312D01*
X183662094Y-37722997D01*
X183281381Y-37798725D01*
X183227206Y-37809501D01*
X182783796Y-37809501D01*
X182729621Y-37798725D01*
X182348908Y-37722997D01*
X181939252Y-37553312D01*
X181570572Y-37306967D01*
X181257035Y-36993430D01*
X181010690Y-36624750D01*
X180841005Y-36215094D01*
X180754501Y-35780205D01*
X180754501Y-35336797D01*
X180841005Y-34901908D01*
X181010690Y-34492252D01*
X181257035Y-34123572D01*
X181570572Y-33810035D01*
X181939252Y-33563690D01*
X182348908Y-33394005D01*
X182729621Y-33318277D01*
X182783796Y-33307501D01*
X183227206Y-33307501D01*
X183281381Y-33318277D01*
G37*
G36*
X189231381Y-33318277D02*
G01*
X189612094Y-33394005D01*
X190021750Y-33563690D01*
X190390430Y-33810035D01*
X190703967Y-34123572D01*
X190950312Y-34492252D01*
X191119997Y-34901908D01*
X191206501Y-35336797D01*
X191206501Y-35780205D01*
X191119997Y-36215094D01*
X190950312Y-36624750D01*
X190703967Y-36993430D01*
X190390430Y-37306967D01*
X190021750Y-37553312D01*
X189612094Y-37722997D01*
X189231381Y-37798725D01*
X189177206Y-37809501D01*
X188733796Y-37809501D01*
X188679621Y-37798725D01*
X188298908Y-37722997D01*
X187889252Y-37553312D01*
X187520572Y-37306967D01*
X187207035Y-36993430D01*
X186960690Y-36624750D01*
X186791005Y-36215094D01*
X186704501Y-35780205D01*
X186704501Y-35336797D01*
X186791005Y-34901908D01*
X186960690Y-34492252D01*
X187207035Y-34123572D01*
X187520572Y-33810035D01*
X187889252Y-33563690D01*
X188298908Y-33394005D01*
X188679621Y-33318277D01*
X188733796Y-33307501D01*
X189177206Y-33307501D01*
X189231381Y-33318277D01*
G37*
G36*
X195181381Y-33318277D02*
G01*
X195562094Y-33394005D01*
X195971750Y-33563690D01*
X196340430Y-33810035D01*
X196653967Y-34123572D01*
X196900312Y-34492252D01*
X197069997Y-34901908D01*
X197156501Y-35336797D01*
X197156501Y-35780205D01*
X197069997Y-36215094D01*
X196900312Y-36624750D01*
X196653967Y-36993430D01*
X196340430Y-37306967D01*
X195971750Y-37553312D01*
X195562094Y-37722997D01*
X195181381Y-37798725D01*
X195127206Y-37809501D01*
X194683796Y-37809501D01*
X194629621Y-37798725D01*
X194248908Y-37722997D01*
X193839252Y-37553312D01*
X193470572Y-37306967D01*
X193157035Y-36993430D01*
X192910690Y-36624750D01*
X192741005Y-36215094D01*
X192654501Y-35780205D01*
X192654501Y-35336797D01*
X192741005Y-34901908D01*
X192910690Y-34492252D01*
X193157035Y-34123572D01*
X193470572Y-33810035D01*
X193839252Y-33563690D01*
X194248908Y-33394005D01*
X194629621Y-33318277D01*
X194683796Y-33307501D01*
X195127206Y-33307501D01*
X195181381Y-33318277D01*
G37*
G36*
X62920000Y-37327500D02*
G01*
X58318000Y-37327500D01*
X58318000Y-34725500D01*
X62920000Y-34725500D01*
X62920000Y-37327500D01*
G37*
M02*
