%TF.GenerationSoftware,KiCad,Pcbnew,5.1.6-c6e7f7d~86~ubuntu18.04.1*%
%TF.CreationDate,2020-08-11T14:48:33+12:00*%
%TF.ProjectId,Trimodal SMD Cheap,5472696d-6f64-4616-9c20-534d44204368,rev?*%
%TF.SameCoordinates,Original*%
%TF.FileFunction,Copper,L1,Top*%
%TF.FilePolarity,Positive*%
%FSLAX46Y46*%
G04 Gerber Fmt 4.6, Leading zero omitted, Abs format (unit mm)*
G04 Created by KiCad (PCBNEW 5.1.6-c6e7f7d~86~ubuntu18.04.1) date 2020-08-11 14:48:33*
%MOMM*%
%LPD*%
G01*
G04 APERTURE LIST*
%TA.AperFunction,Profile*%
%ADD10C,0.100000*%
%TD*%
%TA.AperFunction,ComponentPad*%
%ADD11C,6.000000*%
%TD*%
%TA.AperFunction,SMDPad,CuDef*%
%ADD12R,1.200000X0.900000*%
%TD*%
%TA.AperFunction,SMDPad,CuDef*%
%ADD13R,0.900000X1.200000*%
%TD*%
%TA.AperFunction,ComponentPad*%
%ADD14C,3.000000*%
%TD*%
%TA.AperFunction,ComponentPad*%
%ADD15C,2.600000*%
%TD*%
%TA.AperFunction,ComponentPad*%
%ADD16C,2.400000*%
%TD*%
%TA.AperFunction,ComponentPad*%
%ADD17O,2.400000X2.400000*%
%TD*%
%TA.AperFunction,ComponentPad*%
%ADD18C,2.340000*%
%TD*%
%TA.AperFunction,SMDPad,CuDef*%
%ADD19C,0.150000*%
%TD*%
%TA.AperFunction,SMDPad,CuDef*%
%ADD20R,1.000000X1.500000*%
%TD*%
%TA.AperFunction,SMDPad,CuDef*%
%ADD21R,1.000000X1.800000*%
%TD*%
%TA.AperFunction,SMDPad,CuDef*%
%ADD22R,2.200000X1.840000*%
%TD*%
%TA.AperFunction,SMDPad,CuDef*%
%ADD23R,1.500000X1.000000*%
%TD*%
%TA.AperFunction,SMDPad,CuDef*%
%ADD24R,1.800000X1.000000*%
%TD*%
%TA.AperFunction,SMDPad,CuDef*%
%ADD25R,1.840000X2.200000*%
%TD*%
%TA.AperFunction,ComponentPad*%
%ADD26O,1.800000X1.800000*%
%TD*%
%TA.AperFunction,ComponentPad*%
%ADD27R,1.800000X1.800000*%
%TD*%
%TA.AperFunction,ComponentPad*%
%ADD28R,4.500000X2.500000*%
%TD*%
%TA.AperFunction,ComponentPad*%
%ADD29O,4.500000X2.500000*%
%TD*%
%TA.AperFunction,SMDPad,CuDef*%
%ADD30R,0.900000X0.800000*%
%TD*%
%TA.AperFunction,ComponentPad*%
%ADD31R,2.400000X2.400000*%
%TD*%
%TA.AperFunction,ComponentPad*%
%ADD32C,4.400000*%
%TD*%
%TA.AperFunction,ViaPad*%
%ADD33C,5.000000*%
%TD*%
%TA.AperFunction,ViaPad*%
%ADD34C,4.000000*%
%TD*%
%TA.AperFunction,ViaPad*%
%ADD35C,2.000000*%
%TD*%
%TA.AperFunction,Conductor*%
%ADD36C,1.600000*%
%TD*%
%TA.AperFunction,Conductor*%
%ADD37C,1.000000*%
%TD*%
%TA.AperFunction,Conductor*%
%ADD38C,6.000001*%
%TD*%
%TA.AperFunction,Conductor*%
%ADD39C,2.999999*%
%TD*%
%TA.AperFunction,Conductor*%
%ADD40C,2.000000*%
%TD*%
%TA.AperFunction,Conductor*%
%ADD41C,4.000000*%
%TD*%
G04 APERTURE END LIST*
D10*
X62293500Y-131635500D02*
X31686500Y-131635500D01*
X62230000Y-32194500D02*
X31623000Y-32194500D01*
X31686500Y-131635500D02*
X31623000Y-32194500D01*
X146494500Y-32131000D02*
X146367500Y-131572000D01*
X62230000Y-32194500D02*
X146494500Y-32131000D01*
X146367500Y-131572000D02*
X62293500Y-131635500D01*
D11*
X88900000Y-114935000D03*
X88900000Y-89535000D03*
%TA.AperFunction,SMDPad,CuDef*%
G36*
G01*
X77073000Y-127538500D02*
X75073000Y-127538500D01*
G75*
G02*
X74823000Y-127288500I0J250000D01*
G01*
X74823000Y-123788500D01*
G75*
G02*
X75073000Y-123538500I250000J0D01*
G01*
X77073000Y-123538500D01*
G75*
G02*
X77323000Y-123788500I0J-250000D01*
G01*
X77323000Y-127288500D01*
G75*
G02*
X77073000Y-127538500I-250000J0D01*
G01*
G37*
%TD.AperFunction*%
%TA.AperFunction,SMDPad,CuDef*%
G36*
G01*
X77073000Y-119538500D02*
X75073000Y-119538500D01*
G75*
G02*
X74823000Y-119288500I0J250000D01*
G01*
X74823000Y-115788500D01*
G75*
G02*
X75073000Y-115538500I250000J0D01*
G01*
X77073000Y-115538500D01*
G75*
G02*
X77323000Y-115788500I0J-250000D01*
G01*
X77323000Y-119288500D01*
G75*
G02*
X77073000Y-119538500I-250000J0D01*
G01*
G37*
%TD.AperFunction*%
%TA.AperFunction,SMDPad,CuDef*%
G36*
G01*
X73330750Y-90601500D02*
X74243250Y-90601500D01*
G75*
G02*
X74487000Y-90845250I0J-243750D01*
G01*
X74487000Y-91332750D01*
G75*
G02*
X74243250Y-91576500I-243750J0D01*
G01*
X73330750Y-91576500D01*
G75*
G02*
X73087000Y-91332750I0J243750D01*
G01*
X73087000Y-90845250D01*
G75*
G02*
X73330750Y-90601500I243750J0D01*
G01*
G37*
%TD.AperFunction*%
%TA.AperFunction,SMDPad,CuDef*%
G36*
G01*
X73330750Y-92476500D02*
X74243250Y-92476500D01*
G75*
G02*
X74487000Y-92720250I0J-243750D01*
G01*
X74487000Y-93207750D01*
G75*
G02*
X74243250Y-93451500I-243750J0D01*
G01*
X73330750Y-93451500D01*
G75*
G02*
X73087000Y-93207750I0J243750D01*
G01*
X73087000Y-92720250D01*
G75*
G02*
X73330750Y-92476500I243750J0D01*
G01*
G37*
%TD.AperFunction*%
%TA.AperFunction,SMDPad,CuDef*%
G36*
G01*
X77009500Y-40926500D02*
X75009500Y-40926500D01*
G75*
G02*
X74759500Y-40676500I0J250000D01*
G01*
X74759500Y-37176500D01*
G75*
G02*
X75009500Y-36926500I250000J0D01*
G01*
X77009500Y-36926500D01*
G75*
G02*
X77259500Y-37176500I0J-250000D01*
G01*
X77259500Y-40676500D01*
G75*
G02*
X77009500Y-40926500I-250000J0D01*
G01*
G37*
%TD.AperFunction*%
%TA.AperFunction,SMDPad,CuDef*%
G36*
G01*
X77009500Y-48926500D02*
X75009500Y-48926500D01*
G75*
G02*
X74759500Y-48676500I0J250000D01*
G01*
X74759500Y-45176500D01*
G75*
G02*
X75009500Y-44926500I250000J0D01*
G01*
X77009500Y-44926500D01*
G75*
G02*
X77259500Y-45176500I0J-250000D01*
G01*
X77259500Y-48676500D01*
G75*
G02*
X77009500Y-48926500I-250000J0D01*
G01*
G37*
%TD.AperFunction*%
D12*
X129095500Y-80327500D03*
X129095500Y-83627500D03*
X129095500Y-75313000D03*
X129095500Y-78613000D03*
X126238000Y-80391000D03*
X126238000Y-83691000D03*
X126238000Y-78612000D03*
X126238000Y-75312000D03*
X108521500Y-52893500D03*
X108521500Y-49593500D03*
X107124500Y-47752000D03*
X107124500Y-44452000D03*
D13*
X86550500Y-97155000D03*
X83250500Y-97155000D03*
X86614000Y-65278000D03*
X83314000Y-65278000D03*
D12*
X104648000Y-85788500D03*
X104648000Y-82488500D03*
D14*
X107055000Y-125730000D03*
X84455000Y-125730000D03*
X85090000Y-37465000D03*
X107690000Y-37465000D03*
D11*
X88900000Y-48260000D03*
X88900000Y-73660000D03*
D15*
X140525500Y-116713000D03*
X140398500Y-112395000D03*
D16*
X68580000Y-94996000D03*
D17*
X68580000Y-69596000D03*
D18*
X104140000Y-95925000D03*
X114140000Y-98425000D03*
X104140000Y-100925000D03*
%TA.AperFunction,SMDPad,CuDef*%
D19*
G36*
X138854000Y-49320000D02*
G01*
X139454000Y-48470000D01*
X140454000Y-48470000D01*
X141054000Y-49320000D01*
X138854000Y-49320000D01*
G37*
%TD.AperFunction*%
D20*
X138454000Y-53042000D03*
D21*
X139954000Y-52895500D03*
D20*
X141454000Y-53042000D03*
D22*
X139954000Y-50228500D03*
%TA.AperFunction,SMDPad,CuDef*%
D19*
G36*
X141054000Y-51138200D02*
G01*
X140354000Y-52138200D01*
X139554000Y-52138200D01*
X138854000Y-51138200D01*
X141054000Y-51138200D01*
G37*
%TD.AperFunction*%
%TA.AperFunction,SMDPad,CuDef*%
G36*
X132608500Y-109558200D02*
G01*
X131908500Y-110558200D01*
X131108500Y-110558200D01*
X130408500Y-109558200D01*
X132608500Y-109558200D01*
G37*
%TD.AperFunction*%
D22*
X131508500Y-108648500D03*
D20*
X133008500Y-111462000D03*
D21*
X131508500Y-111315500D03*
D20*
X130008500Y-111462000D03*
%TA.AperFunction,SMDPad,CuDef*%
D19*
G36*
X130408500Y-107740000D02*
G01*
X131008500Y-106890000D01*
X132008500Y-106890000D01*
X132608500Y-107740000D01*
X130408500Y-107740000D01*
G37*
%TD.AperFunction*%
%TA.AperFunction,SMDPad,CuDef*%
G36*
X127504500Y-96965700D02*
G01*
X126804500Y-97965700D01*
X126004500Y-97965700D01*
X125304500Y-96965700D01*
X127504500Y-96965700D01*
G37*
%TD.AperFunction*%
D22*
X126404500Y-96056000D03*
D20*
X127904500Y-98869500D03*
D21*
X126404500Y-98723000D03*
D20*
X124904500Y-98869500D03*
%TA.AperFunction,SMDPad,CuDef*%
D19*
G36*
X125304500Y-95147500D02*
G01*
X125904500Y-94297500D01*
X126904500Y-94297500D01*
X127504500Y-95147500D01*
X125304500Y-95147500D01*
G37*
%TD.AperFunction*%
%TA.AperFunction,SMDPad,CuDef*%
G36*
X119550000Y-95167000D02*
G01*
X120150000Y-94317000D01*
X121150000Y-94317000D01*
X121750000Y-95167000D01*
X119550000Y-95167000D01*
G37*
%TD.AperFunction*%
D20*
X119150000Y-98889000D03*
D21*
X120650000Y-98742500D03*
D20*
X122150000Y-98889000D03*
D22*
X120650000Y-96075500D03*
%TA.AperFunction,SMDPad,CuDef*%
D19*
G36*
X121750000Y-96985200D02*
G01*
X121050000Y-97985200D01*
X120250000Y-97985200D01*
X119550000Y-96985200D01*
X121750000Y-96985200D01*
G37*
%TD.AperFunction*%
%TA.AperFunction,SMDPad,CuDef*%
G36*
X129560500Y-58757000D02*
G01*
X128960500Y-59607000D01*
X127960500Y-59607000D01*
X127360500Y-58757000D01*
X129560500Y-58757000D01*
G37*
%TD.AperFunction*%
D20*
X129960500Y-55035000D03*
D21*
X128460500Y-55181500D03*
D20*
X126960500Y-55035000D03*
D22*
X128460500Y-57848500D03*
%TA.AperFunction,SMDPad,CuDef*%
D19*
G36*
X127360500Y-56938800D02*
G01*
X128060500Y-55938800D01*
X128860500Y-55938800D01*
X129560500Y-56938800D01*
X127360500Y-56938800D01*
G37*
%TD.AperFunction*%
%TA.AperFunction,SMDPad,CuDef*%
G36*
X103588000Y-110279000D02*
G01*
X104438000Y-110879000D01*
X104438000Y-111879000D01*
X103588000Y-112479000D01*
X103588000Y-110279000D01*
G37*
%TD.AperFunction*%
D23*
X99866000Y-109879000D03*
D24*
X100012500Y-111379000D03*
D23*
X99866000Y-112879000D03*
D25*
X102679500Y-111379000D03*
%TA.AperFunction,SMDPad,CuDef*%
D19*
G36*
X101769800Y-112479000D02*
G01*
X100769800Y-111779000D01*
X100769800Y-110979000D01*
X101769800Y-110279000D01*
X101769800Y-112479000D01*
G37*
%TD.AperFunction*%
D26*
X92710000Y-104775000D03*
X92710000Y-102235000D03*
D27*
X92710000Y-99695000D03*
D28*
X60555500Y-117665500D03*
D29*
X60555500Y-123115500D03*
X60555500Y-128565500D03*
D27*
X92710000Y-58420000D03*
D26*
X92710000Y-60960000D03*
X92710000Y-63500000D03*
D28*
X60619000Y-36026500D03*
D29*
X60619000Y-41476500D03*
X60619000Y-46926500D03*
%TA.AperFunction,SMDPad,CuDef*%
D19*
G36*
X126027000Y-88372500D02*
G01*
X126627000Y-87522500D01*
X127627000Y-87522500D01*
X128227000Y-88372500D01*
X126027000Y-88372500D01*
G37*
%TD.AperFunction*%
D20*
X125627000Y-92094500D03*
D21*
X127127000Y-91948000D03*
D20*
X128627000Y-92094500D03*
D22*
X127127000Y-89281000D03*
%TA.AperFunction,SMDPad,CuDef*%
D19*
G36*
X128227000Y-90190700D02*
G01*
X127527000Y-91190700D01*
X126727000Y-91190700D01*
X126027000Y-90190700D01*
X128227000Y-90190700D01*
G37*
%TD.AperFunction*%
%TA.AperFunction,SMDPad,CuDef*%
G36*
X120988200Y-88943000D02*
G01*
X121988200Y-89643000D01*
X121988200Y-90443000D01*
X120988200Y-91143000D01*
X120988200Y-88943000D01*
G37*
%TD.AperFunction*%
D25*
X120078500Y-90043000D03*
D23*
X122892000Y-88543000D03*
D24*
X122745500Y-90043000D03*
D23*
X122892000Y-91543000D03*
%TA.AperFunction,SMDPad,CuDef*%
D19*
G36*
X119170000Y-91143000D02*
G01*
X118320000Y-90543000D01*
X118320000Y-89543000D01*
X119170000Y-88943000D01*
X119170000Y-91143000D01*
G37*
%TD.AperFunction*%
%TA.AperFunction,SMDPad,CuDef*%
G36*
X126195200Y-63352500D02*
G01*
X127195200Y-64052500D01*
X127195200Y-64852500D01*
X126195200Y-65552500D01*
X126195200Y-63352500D01*
G37*
%TD.AperFunction*%
D25*
X125285500Y-64452500D03*
D23*
X128099000Y-62952500D03*
D24*
X127952500Y-64452500D03*
D23*
X128099000Y-65952500D03*
%TA.AperFunction,SMDPad,CuDef*%
D19*
G36*
X124377000Y-65552500D02*
G01*
X123527000Y-64952500D01*
X123527000Y-63952500D01*
X124377000Y-63352500D01*
X124377000Y-65552500D01*
G37*
%TD.AperFunction*%
D27*
X85090000Y-104775000D03*
D26*
X85090000Y-102235000D03*
X85090000Y-99695000D03*
%TA.AperFunction,SMDPad,CuDef*%
D19*
G36*
X98623500Y-62717500D02*
G01*
X99623500Y-63417500D01*
X99623500Y-64217500D01*
X98623500Y-64917500D01*
X98623500Y-62717500D01*
G37*
%TD.AperFunction*%
D25*
X97713800Y-63817500D03*
D23*
X100527300Y-62317500D03*
D24*
X100380800Y-63817500D03*
D23*
X100527300Y-65317500D03*
%TA.AperFunction,SMDPad,CuDef*%
D19*
G36*
X96805300Y-64917500D02*
G01*
X95955300Y-64317500D01*
X95955300Y-63317500D01*
X96805300Y-62717500D01*
X96805300Y-64917500D01*
G37*
%TD.AperFunction*%
%TA.AperFunction,SMDPad,CuDef*%
G36*
X105835000Y-63647500D02*
G01*
X104985000Y-63047500D01*
X104985000Y-62047500D01*
X105835000Y-61447500D01*
X105835000Y-63647500D01*
G37*
%TD.AperFunction*%
D23*
X109557000Y-64047500D03*
D24*
X109410500Y-62547500D03*
D23*
X109557000Y-61047500D03*
D25*
X106743500Y-62547500D03*
%TA.AperFunction,SMDPad,CuDef*%
D19*
G36*
X107653200Y-61447500D02*
G01*
X108653200Y-62147500D01*
X108653200Y-62947500D01*
X107653200Y-63647500D01*
X107653200Y-61447500D01*
G37*
%TD.AperFunction*%
%TA.AperFunction,SMDPad,CuDef*%
G36*
X100247000Y-56154500D02*
G01*
X99397000Y-55554500D01*
X99397000Y-54554500D01*
X100247000Y-53954500D01*
X100247000Y-56154500D01*
G37*
%TD.AperFunction*%
D23*
X103969000Y-56554500D03*
D24*
X103822500Y-55054500D03*
D23*
X103969000Y-53554500D03*
D25*
X101155500Y-55054500D03*
%TA.AperFunction,SMDPad,CuDef*%
D19*
G36*
X102065200Y-53954500D02*
G01*
X103065200Y-54654500D01*
X103065200Y-55454500D01*
X102065200Y-56154500D01*
X102065200Y-53954500D01*
G37*
%TD.AperFunction*%
%TA.AperFunction,SMDPad,CuDef*%
G36*
X103843000Y-51137000D02*
G01*
X103243000Y-51987000D01*
X102243000Y-51987000D01*
X101643000Y-51137000D01*
X103843000Y-51137000D01*
G37*
%TD.AperFunction*%
D20*
X104243000Y-47415000D03*
D21*
X102743000Y-47561500D03*
D20*
X101243000Y-47415000D03*
D22*
X102743000Y-50228500D03*
%TA.AperFunction,SMDPad,CuDef*%
D19*
G36*
X101643000Y-49318800D02*
G01*
X102343000Y-48318800D01*
X103143000Y-48318800D01*
X103843000Y-49318800D01*
X101643000Y-49318800D01*
G37*
%TD.AperFunction*%
%TA.AperFunction,SMDPad,CuDef*%
G36*
X80664500Y-92181500D02*
G01*
X81514500Y-92781500D01*
X81514500Y-93781500D01*
X80664500Y-94381500D01*
X80664500Y-92181500D01*
G37*
%TD.AperFunction*%
D23*
X76942500Y-91781500D03*
D24*
X77089000Y-93281500D03*
D23*
X76942500Y-94781500D03*
D25*
X79756000Y-93281500D03*
%TA.AperFunction,SMDPad,CuDef*%
D19*
G36*
X78846300Y-94381500D02*
G01*
X77846300Y-93681500D01*
X77846300Y-92881500D01*
X78846300Y-92181500D01*
X78846300Y-94381500D01*
G37*
%TD.AperFunction*%
%TA.AperFunction,SMDPad,CuDef*%
G36*
X80030500Y-66822700D02*
G01*
X79330500Y-67822700D01*
X78530500Y-67822700D01*
X77830500Y-66822700D01*
X80030500Y-66822700D01*
G37*
%TD.AperFunction*%
D22*
X78930500Y-65913000D03*
D20*
X80430500Y-68726500D03*
D21*
X78930500Y-68580000D03*
D20*
X77430500Y-68726500D03*
%TA.AperFunction,SMDPad,CuDef*%
D19*
G36*
X77830500Y-65004500D02*
G01*
X78430500Y-64154500D01*
X79430500Y-64154500D01*
X80030500Y-65004500D01*
X77830500Y-65004500D01*
G37*
%TD.AperFunction*%
%TA.AperFunction,SMDPad,CuDef*%
G36*
X110850300Y-88222000D02*
G01*
X109850300Y-87522000D01*
X109850300Y-86722000D01*
X110850300Y-86022000D01*
X110850300Y-88222000D01*
G37*
%TD.AperFunction*%
D25*
X111760000Y-87122000D03*
D23*
X108946500Y-88622000D03*
D24*
X109093000Y-87122000D03*
D23*
X108946500Y-85622000D03*
%TA.AperFunction,SMDPad,CuDef*%
D19*
G36*
X112668500Y-86022000D02*
G01*
X113518500Y-86622000D01*
X113518500Y-87622000D01*
X112668500Y-88222000D01*
X112668500Y-86022000D01*
G37*
%TD.AperFunction*%
%TA.AperFunction,SMDPad,CuDef*%
G36*
X110151800Y-118194000D02*
G01*
X109151800Y-117494000D01*
X109151800Y-116694000D01*
X110151800Y-115994000D01*
X110151800Y-118194000D01*
G37*
%TD.AperFunction*%
D25*
X111061500Y-117094000D03*
D23*
X108248000Y-118594000D03*
D24*
X108394500Y-117094000D03*
D23*
X108248000Y-115594000D03*
%TA.AperFunction,SMDPad,CuDef*%
D19*
G36*
X111970000Y-115994000D02*
G01*
X112820000Y-116594000D01*
X112820000Y-117594000D01*
X111970000Y-118194000D01*
X111970000Y-115994000D01*
G37*
%TD.AperFunction*%
D29*
X60619000Y-64303500D03*
X60619000Y-58853500D03*
D28*
X60619000Y-53403500D03*
%TA.AperFunction,SMDPad,CuDef*%
G36*
G01*
X70322501Y-90591000D02*
X67472499Y-90591000D01*
G75*
G02*
X67222500Y-90341001I0J249999D01*
G01*
X67222500Y-89490999D01*
G75*
G02*
X67472499Y-89241000I249999J0D01*
G01*
X70322501Y-89241000D01*
G75*
G02*
X70572500Y-89490999I0J-249999D01*
G01*
X70572500Y-90341001D01*
G75*
G02*
X70322501Y-90591000I-249999J0D01*
G01*
G37*
%TD.AperFunction*%
%TA.AperFunction,SMDPad,CuDef*%
G36*
G01*
X70322501Y-84791000D02*
X67472499Y-84791000D01*
G75*
G02*
X67222500Y-84541001I0J249999D01*
G01*
X67222500Y-83690999D01*
G75*
G02*
X67472499Y-83441000I249999J0D01*
G01*
X70322501Y-83441000D01*
G75*
G02*
X70572500Y-83690999I0J-249999D01*
G01*
X70572500Y-84541001D01*
G75*
G02*
X70322501Y-84791000I-249999J0D01*
G01*
G37*
%TD.AperFunction*%
%TA.AperFunction,SMDPad,CuDef*%
G36*
G01*
X70386001Y-74208000D02*
X67535999Y-74208000D01*
G75*
G02*
X67286000Y-73958001I0J249999D01*
G01*
X67286000Y-73107999D01*
G75*
G02*
X67535999Y-72858000I249999J0D01*
G01*
X70386001Y-72858000D01*
G75*
G02*
X70636000Y-73107999I0J-249999D01*
G01*
X70636000Y-73958001D01*
G75*
G02*
X70386001Y-74208000I-249999J0D01*
G01*
G37*
%TD.AperFunction*%
%TA.AperFunction,SMDPad,CuDef*%
G36*
G01*
X70386001Y-80008000D02*
X67535999Y-80008000D01*
G75*
G02*
X67286000Y-79758001I0J249999D01*
G01*
X67286000Y-78907999D01*
G75*
G02*
X67535999Y-78658000I249999J0D01*
G01*
X70386001Y-78658000D01*
G75*
G02*
X70636000Y-78907999I0J-249999D01*
G01*
X70636000Y-79758001D01*
G75*
G02*
X70386001Y-80008000I-249999J0D01*
G01*
G37*
%TD.AperFunction*%
%TA.AperFunction,SMDPad,CuDef*%
G36*
G01*
X135055000Y-59130250D02*
X135055000Y-58217750D01*
G75*
G02*
X135298750Y-57974000I243750J0D01*
G01*
X135786250Y-57974000D01*
G75*
G02*
X136030000Y-58217750I0J-243750D01*
G01*
X136030000Y-59130250D01*
G75*
G02*
X135786250Y-59374000I-243750J0D01*
G01*
X135298750Y-59374000D01*
G75*
G02*
X135055000Y-59130250I0J243750D01*
G01*
G37*
%TD.AperFunction*%
%TA.AperFunction,SMDPad,CuDef*%
G36*
G01*
X133180000Y-59130250D02*
X133180000Y-58217750D01*
G75*
G02*
X133423750Y-57974000I243750J0D01*
G01*
X133911250Y-57974000D01*
G75*
G02*
X134155000Y-58217750I0J-243750D01*
G01*
X134155000Y-59130250D01*
G75*
G02*
X133911250Y-59374000I-243750J0D01*
G01*
X133423750Y-59374000D01*
G75*
G02*
X133180000Y-59130250I0J243750D01*
G01*
G37*
%TD.AperFunction*%
%TA.AperFunction,SMDPad,CuDef*%
G36*
G01*
X82561750Y-81513500D02*
X81649250Y-81513500D01*
G75*
G02*
X81405500Y-81269750I0J243750D01*
G01*
X81405500Y-80782250D01*
G75*
G02*
X81649250Y-80538500I243750J0D01*
G01*
X82561750Y-80538500D01*
G75*
G02*
X82805500Y-80782250I0J-243750D01*
G01*
X82805500Y-81269750D01*
G75*
G02*
X82561750Y-81513500I-243750J0D01*
G01*
G37*
%TD.AperFunction*%
%TA.AperFunction,SMDPad,CuDef*%
G36*
G01*
X82561750Y-83388500D02*
X81649250Y-83388500D01*
G75*
G02*
X81405500Y-83144750I0J243750D01*
G01*
X81405500Y-82657250D01*
G75*
G02*
X81649250Y-82413500I243750J0D01*
G01*
X82561750Y-82413500D01*
G75*
G02*
X82805500Y-82657250I0J-243750D01*
G01*
X82805500Y-83144750D01*
G75*
G02*
X82561750Y-83388500I-243750J0D01*
G01*
G37*
%TD.AperFunction*%
%TA.AperFunction,SMDPad,CuDef*%
G36*
G01*
X135496000Y-109739750D02*
X135496000Y-108827250D01*
G75*
G02*
X135739750Y-108583500I243750J0D01*
G01*
X136227250Y-108583500D01*
G75*
G02*
X136471000Y-108827250I0J-243750D01*
G01*
X136471000Y-109739750D01*
G75*
G02*
X136227250Y-109983500I-243750J0D01*
G01*
X135739750Y-109983500D01*
G75*
G02*
X135496000Y-109739750I0J243750D01*
G01*
G37*
%TD.AperFunction*%
%TA.AperFunction,SMDPad,CuDef*%
G36*
G01*
X137371000Y-109739750D02*
X137371000Y-108827250D01*
G75*
G02*
X137614750Y-108583500I243750J0D01*
G01*
X138102250Y-108583500D01*
G75*
G02*
X138346000Y-108827250I0J-243750D01*
G01*
X138346000Y-109739750D01*
G75*
G02*
X138102250Y-109983500I-243750J0D01*
G01*
X137614750Y-109983500D01*
G75*
G02*
X137371000Y-109739750I0J243750D01*
G01*
G37*
%TD.AperFunction*%
%TA.AperFunction,SMDPad,CuDef*%
G36*
G01*
X92842500Y-55447250D02*
X92842500Y-54534750D01*
G75*
G02*
X93086250Y-54291000I243750J0D01*
G01*
X93573750Y-54291000D01*
G75*
G02*
X93817500Y-54534750I0J-243750D01*
G01*
X93817500Y-55447250D01*
G75*
G02*
X93573750Y-55691000I-243750J0D01*
G01*
X93086250Y-55691000D01*
G75*
G02*
X92842500Y-55447250I0J243750D01*
G01*
G37*
%TD.AperFunction*%
%TA.AperFunction,SMDPad,CuDef*%
G36*
G01*
X90967500Y-55447250D02*
X90967500Y-54534750D01*
G75*
G02*
X91211250Y-54291000I243750J0D01*
G01*
X91698750Y-54291000D01*
G75*
G02*
X91942500Y-54534750I0J-243750D01*
G01*
X91942500Y-55447250D01*
G75*
G02*
X91698750Y-55691000I-243750J0D01*
G01*
X91211250Y-55691000D01*
G75*
G02*
X90967500Y-55447250I0J243750D01*
G01*
G37*
%TD.AperFunction*%
%TA.AperFunction,SMDPad,CuDef*%
G36*
G01*
X131623750Y-96794500D02*
X132536250Y-96794500D01*
G75*
G02*
X132780000Y-97038250I0J-243750D01*
G01*
X132780000Y-97525750D01*
G75*
G02*
X132536250Y-97769500I-243750J0D01*
G01*
X131623750Y-97769500D01*
G75*
G02*
X131380000Y-97525750I0J243750D01*
G01*
X131380000Y-97038250D01*
G75*
G02*
X131623750Y-96794500I243750J0D01*
G01*
G37*
%TD.AperFunction*%
%TA.AperFunction,SMDPad,CuDef*%
G36*
G01*
X131623750Y-98669500D02*
X132536250Y-98669500D01*
G75*
G02*
X132780000Y-98913250I0J-243750D01*
G01*
X132780000Y-99400750D01*
G75*
G02*
X132536250Y-99644500I-243750J0D01*
G01*
X131623750Y-99644500D01*
G75*
G02*
X131380000Y-99400750I0J243750D01*
G01*
X131380000Y-98913250D01*
G75*
G02*
X131623750Y-98669500I243750J0D01*
G01*
G37*
%TD.AperFunction*%
%TA.AperFunction,SMDPad,CuDef*%
G36*
G01*
X142188250Y-64495500D02*
X141275750Y-64495500D01*
G75*
G02*
X141032000Y-64251750I0J243750D01*
G01*
X141032000Y-63764250D01*
G75*
G02*
X141275750Y-63520500I243750J0D01*
G01*
X142188250Y-63520500D01*
G75*
G02*
X142432000Y-63764250I0J-243750D01*
G01*
X142432000Y-64251750D01*
G75*
G02*
X142188250Y-64495500I-243750J0D01*
G01*
G37*
%TD.AperFunction*%
%TA.AperFunction,SMDPad,CuDef*%
G36*
G01*
X142188250Y-62620500D02*
X141275750Y-62620500D01*
G75*
G02*
X141032000Y-62376750I0J243750D01*
G01*
X141032000Y-61889250D01*
G75*
G02*
X141275750Y-61645500I243750J0D01*
G01*
X142188250Y-61645500D01*
G75*
G02*
X142432000Y-61889250I0J-243750D01*
G01*
X142432000Y-62376750D01*
G75*
G02*
X142188250Y-62620500I-243750J0D01*
G01*
G37*
%TD.AperFunction*%
%TA.AperFunction,SMDPad,CuDef*%
G36*
G01*
X134036750Y-94221000D02*
X134949250Y-94221000D01*
G75*
G02*
X135193000Y-94464750I0J-243750D01*
G01*
X135193000Y-94952250D01*
G75*
G02*
X134949250Y-95196000I-243750J0D01*
G01*
X134036750Y-95196000D01*
G75*
G02*
X133793000Y-94952250I0J243750D01*
G01*
X133793000Y-94464750D01*
G75*
G02*
X134036750Y-94221000I243750J0D01*
G01*
G37*
%TD.AperFunction*%
%TA.AperFunction,SMDPad,CuDef*%
G36*
G01*
X134036750Y-96096000D02*
X134949250Y-96096000D01*
G75*
G02*
X135193000Y-96339750I0J-243750D01*
G01*
X135193000Y-96827250D01*
G75*
G02*
X134949250Y-97071000I-243750J0D01*
G01*
X134036750Y-97071000D01*
G75*
G02*
X133793000Y-96827250I0J243750D01*
G01*
X133793000Y-96339750D01*
G75*
G02*
X134036750Y-96096000I243750J0D01*
G01*
G37*
%TD.AperFunction*%
%TA.AperFunction,SMDPad,CuDef*%
G36*
G01*
X132536250Y-101579500D02*
X131623750Y-101579500D01*
G75*
G02*
X131380000Y-101335750I0J243750D01*
G01*
X131380000Y-100848250D01*
G75*
G02*
X131623750Y-100604500I243750J0D01*
G01*
X132536250Y-100604500D01*
G75*
G02*
X132780000Y-100848250I0J-243750D01*
G01*
X132780000Y-101335750D01*
G75*
G02*
X132536250Y-101579500I-243750J0D01*
G01*
G37*
%TD.AperFunction*%
%TA.AperFunction,SMDPad,CuDef*%
G36*
G01*
X132536250Y-103454500D02*
X131623750Y-103454500D01*
G75*
G02*
X131380000Y-103210750I0J243750D01*
G01*
X131380000Y-102723250D01*
G75*
G02*
X131623750Y-102479500I243750J0D01*
G01*
X132536250Y-102479500D01*
G75*
G02*
X132780000Y-102723250I0J-243750D01*
G01*
X132780000Y-103210750D01*
G75*
G02*
X132536250Y-103454500I-243750J0D01*
G01*
G37*
%TD.AperFunction*%
%TA.AperFunction,SMDPad,CuDef*%
G36*
G01*
X129678750Y-103454500D02*
X128766250Y-103454500D01*
G75*
G02*
X128522500Y-103210750I0J243750D01*
G01*
X128522500Y-102723250D01*
G75*
G02*
X128766250Y-102479500I243750J0D01*
G01*
X129678750Y-102479500D01*
G75*
G02*
X129922500Y-102723250I0J-243750D01*
G01*
X129922500Y-103210750D01*
G75*
G02*
X129678750Y-103454500I-243750J0D01*
G01*
G37*
%TD.AperFunction*%
%TA.AperFunction,SMDPad,CuDef*%
G36*
G01*
X129678750Y-101579500D02*
X128766250Y-101579500D01*
G75*
G02*
X128522500Y-101335750I0J243750D01*
G01*
X128522500Y-100848250D01*
G75*
G02*
X128766250Y-100604500I243750J0D01*
G01*
X129678750Y-100604500D01*
G75*
G02*
X129922500Y-100848250I0J-243750D01*
G01*
X129922500Y-101335750D01*
G75*
G02*
X129678750Y-101579500I-243750J0D01*
G01*
G37*
%TD.AperFunction*%
%TA.AperFunction,SMDPad,CuDef*%
G36*
G01*
X137617500Y-111303750D02*
X137617500Y-112216250D01*
G75*
G02*
X137373750Y-112460000I-243750J0D01*
G01*
X136886250Y-112460000D01*
G75*
G02*
X136642500Y-112216250I0J243750D01*
G01*
X136642500Y-111303750D01*
G75*
G02*
X136886250Y-111060000I243750J0D01*
G01*
X137373750Y-111060000D01*
G75*
G02*
X137617500Y-111303750I0J-243750D01*
G01*
G37*
%TD.AperFunction*%
%TA.AperFunction,SMDPad,CuDef*%
G36*
G01*
X135742500Y-111303750D02*
X135742500Y-112216250D01*
G75*
G02*
X135498750Y-112460000I-243750J0D01*
G01*
X135011250Y-112460000D01*
G75*
G02*
X134767500Y-112216250I0J243750D01*
G01*
X134767500Y-111303750D01*
G75*
G02*
X135011250Y-111060000I243750J0D01*
G01*
X135498750Y-111060000D01*
G75*
G02*
X135742500Y-111303750I0J-243750D01*
G01*
G37*
%TD.AperFunction*%
%TA.AperFunction,SMDPad,CuDef*%
G36*
G01*
X126195000Y-111454250D02*
X126195000Y-110541750D01*
G75*
G02*
X126438750Y-110298000I243750J0D01*
G01*
X126926250Y-110298000D01*
G75*
G02*
X127170000Y-110541750I0J-243750D01*
G01*
X127170000Y-111454250D01*
G75*
G02*
X126926250Y-111698000I-243750J0D01*
G01*
X126438750Y-111698000D01*
G75*
G02*
X126195000Y-111454250I0J243750D01*
G01*
G37*
%TD.AperFunction*%
%TA.AperFunction,SMDPad,CuDef*%
G36*
G01*
X124320000Y-111454250D02*
X124320000Y-110541750D01*
G75*
G02*
X124563750Y-110298000I243750J0D01*
G01*
X125051250Y-110298000D01*
G75*
G02*
X125295000Y-110541750I0J-243750D01*
G01*
X125295000Y-111454250D01*
G75*
G02*
X125051250Y-111698000I-243750J0D01*
G01*
X124563750Y-111698000D01*
G75*
G02*
X124320000Y-111454250I0J243750D01*
G01*
G37*
%TD.AperFunction*%
%TA.AperFunction,SMDPad,CuDef*%
G36*
G01*
X141420000Y-60146250D02*
X141420000Y-59233750D01*
G75*
G02*
X141663750Y-58990000I243750J0D01*
G01*
X142151250Y-58990000D01*
G75*
G02*
X142395000Y-59233750I0J-243750D01*
G01*
X142395000Y-60146250D01*
G75*
G02*
X142151250Y-60390000I-243750J0D01*
G01*
X141663750Y-60390000D01*
G75*
G02*
X141420000Y-60146250I0J243750D01*
G01*
G37*
%TD.AperFunction*%
%TA.AperFunction,SMDPad,CuDef*%
G36*
G01*
X139545000Y-60146250D02*
X139545000Y-59233750D01*
G75*
G02*
X139788750Y-58990000I243750J0D01*
G01*
X140276250Y-58990000D01*
G75*
G02*
X140520000Y-59233750I0J-243750D01*
G01*
X140520000Y-60146250D01*
G75*
G02*
X140276250Y-60390000I-243750J0D01*
G01*
X139788750Y-60390000D01*
G75*
G02*
X139545000Y-60146250I0J243750D01*
G01*
G37*
%TD.AperFunction*%
%TA.AperFunction,SMDPad,CuDef*%
G36*
G01*
X139695000Y-57606250D02*
X139695000Y-56693750D01*
G75*
G02*
X139938750Y-56450000I243750J0D01*
G01*
X140426250Y-56450000D01*
G75*
G02*
X140670000Y-56693750I0J-243750D01*
G01*
X140670000Y-57606250D01*
G75*
G02*
X140426250Y-57850000I-243750J0D01*
G01*
X139938750Y-57850000D01*
G75*
G02*
X139695000Y-57606250I0J243750D01*
G01*
G37*
%TD.AperFunction*%
%TA.AperFunction,SMDPad,CuDef*%
G36*
G01*
X141570000Y-57606250D02*
X141570000Y-56693750D01*
G75*
G02*
X141813750Y-56450000I243750J0D01*
G01*
X142301250Y-56450000D01*
G75*
G02*
X142545000Y-56693750I0J-243750D01*
G01*
X142545000Y-57606250D01*
G75*
G02*
X142301250Y-57850000I-243750J0D01*
G01*
X141813750Y-57850000D01*
G75*
G02*
X141570000Y-57606250I0J243750D01*
G01*
G37*
%TD.AperFunction*%
%TA.AperFunction,SMDPad,CuDef*%
G36*
G01*
X113715500Y-105485250D02*
X113715500Y-104572750D01*
G75*
G02*
X113959250Y-104329000I243750J0D01*
G01*
X114446750Y-104329000D01*
G75*
G02*
X114690500Y-104572750I0J-243750D01*
G01*
X114690500Y-105485250D01*
G75*
G02*
X114446750Y-105729000I-243750J0D01*
G01*
X113959250Y-105729000D01*
G75*
G02*
X113715500Y-105485250I0J243750D01*
G01*
G37*
%TD.AperFunction*%
%TA.AperFunction,SMDPad,CuDef*%
G36*
G01*
X115590500Y-105485250D02*
X115590500Y-104572750D01*
G75*
G02*
X115834250Y-104329000I243750J0D01*
G01*
X116321750Y-104329000D01*
G75*
G02*
X116565500Y-104572750I0J-243750D01*
G01*
X116565500Y-105485250D01*
G75*
G02*
X116321750Y-105729000I-243750J0D01*
G01*
X115834250Y-105729000D01*
G75*
G02*
X115590500Y-105485250I0J243750D01*
G01*
G37*
%TD.AperFunction*%
%TA.AperFunction,SMDPad,CuDef*%
G36*
G01*
X132599750Y-94086500D02*
X131687250Y-94086500D01*
G75*
G02*
X131443500Y-93842750I0J243750D01*
G01*
X131443500Y-93355250D01*
G75*
G02*
X131687250Y-93111500I243750J0D01*
G01*
X132599750Y-93111500D01*
G75*
G02*
X132843500Y-93355250I0J-243750D01*
G01*
X132843500Y-93842750D01*
G75*
G02*
X132599750Y-94086500I-243750J0D01*
G01*
G37*
%TD.AperFunction*%
%TA.AperFunction,SMDPad,CuDef*%
G36*
G01*
X132599750Y-95961500D02*
X131687250Y-95961500D01*
G75*
G02*
X131443500Y-95717750I0J243750D01*
G01*
X131443500Y-95230250D01*
G75*
G02*
X131687250Y-94986500I243750J0D01*
G01*
X132599750Y-94986500D01*
G75*
G02*
X132843500Y-95230250I0J-243750D01*
G01*
X132843500Y-95717750D01*
G75*
G02*
X132599750Y-95961500I-243750J0D01*
G01*
G37*
%TD.AperFunction*%
%TA.AperFunction,SMDPad,CuDef*%
G36*
G01*
X82507000Y-107311750D02*
X82507000Y-106399250D01*
G75*
G02*
X82750750Y-106155500I243750J0D01*
G01*
X83238250Y-106155500D01*
G75*
G02*
X83482000Y-106399250I0J-243750D01*
G01*
X83482000Y-107311750D01*
G75*
G02*
X83238250Y-107555500I-243750J0D01*
G01*
X82750750Y-107555500D01*
G75*
G02*
X82507000Y-107311750I0J243750D01*
G01*
G37*
%TD.AperFunction*%
%TA.AperFunction,SMDPad,CuDef*%
G36*
G01*
X80632000Y-107311750D02*
X80632000Y-106399250D01*
G75*
G02*
X80875750Y-106155500I243750J0D01*
G01*
X81363250Y-106155500D01*
G75*
G02*
X81607000Y-106399250I0J-243750D01*
G01*
X81607000Y-107311750D01*
G75*
G02*
X81363250Y-107555500I-243750J0D01*
G01*
X80875750Y-107555500D01*
G75*
G02*
X80632000Y-107311750I0J243750D01*
G01*
G37*
%TD.AperFunction*%
%TA.AperFunction,SMDPad,CuDef*%
G36*
G01*
X100722750Y-99308500D02*
X99810250Y-99308500D01*
G75*
G02*
X99566500Y-99064750I0J243750D01*
G01*
X99566500Y-98577250D01*
G75*
G02*
X99810250Y-98333500I243750J0D01*
G01*
X100722750Y-98333500D01*
G75*
G02*
X100966500Y-98577250I0J-243750D01*
G01*
X100966500Y-99064750D01*
G75*
G02*
X100722750Y-99308500I-243750J0D01*
G01*
G37*
%TD.AperFunction*%
%TA.AperFunction,SMDPad,CuDef*%
G36*
G01*
X100722750Y-101183500D02*
X99810250Y-101183500D01*
G75*
G02*
X99566500Y-100939750I0J243750D01*
G01*
X99566500Y-100452250D01*
G75*
G02*
X99810250Y-100208500I243750J0D01*
G01*
X100722750Y-100208500D01*
G75*
G02*
X100966500Y-100452250I0J-243750D01*
G01*
X100966500Y-100939750D01*
G75*
G02*
X100722750Y-101183500I-243750J0D01*
G01*
G37*
%TD.AperFunction*%
%TA.AperFunction,SMDPad,CuDef*%
G36*
G01*
X93612000Y-96698750D02*
X93612000Y-97611250D01*
G75*
G02*
X93368250Y-97855000I-243750J0D01*
G01*
X92880750Y-97855000D01*
G75*
G02*
X92637000Y-97611250I0J243750D01*
G01*
X92637000Y-96698750D01*
G75*
G02*
X92880750Y-96455000I243750J0D01*
G01*
X93368250Y-96455000D01*
G75*
G02*
X93612000Y-96698750I0J-243750D01*
G01*
G37*
%TD.AperFunction*%
%TA.AperFunction,SMDPad,CuDef*%
G36*
G01*
X91737000Y-96698750D02*
X91737000Y-97611250D01*
G75*
G02*
X91493250Y-97855000I-243750J0D01*
G01*
X91005750Y-97855000D01*
G75*
G02*
X90762000Y-97611250I0J243750D01*
G01*
X90762000Y-96698750D01*
G75*
G02*
X91005750Y-96455000I243750J0D01*
G01*
X91493250Y-96455000D01*
G75*
G02*
X91737000Y-96698750I0J-243750D01*
G01*
G37*
%TD.AperFunction*%
%TA.AperFunction,SMDPad,CuDef*%
G36*
G01*
X104596250Y-118597500D02*
X103683750Y-118597500D01*
G75*
G02*
X103440000Y-118353750I0J243750D01*
G01*
X103440000Y-117866250D01*
G75*
G02*
X103683750Y-117622500I243750J0D01*
G01*
X104596250Y-117622500D01*
G75*
G02*
X104840000Y-117866250I0J-243750D01*
G01*
X104840000Y-118353750D01*
G75*
G02*
X104596250Y-118597500I-243750J0D01*
G01*
G37*
%TD.AperFunction*%
%TA.AperFunction,SMDPad,CuDef*%
G36*
G01*
X104596250Y-120472500D02*
X103683750Y-120472500D01*
G75*
G02*
X103440000Y-120228750I0J243750D01*
G01*
X103440000Y-119741250D01*
G75*
G02*
X103683750Y-119497500I243750J0D01*
G01*
X104596250Y-119497500D01*
G75*
G02*
X104840000Y-119741250I0J-243750D01*
G01*
X104840000Y-120228750D01*
G75*
G02*
X104596250Y-120472500I-243750J0D01*
G01*
G37*
%TD.AperFunction*%
%TA.AperFunction,SMDPad,CuDef*%
G36*
G01*
X81672750Y-105296000D02*
X80760250Y-105296000D01*
G75*
G02*
X80516500Y-105052250I0J243750D01*
G01*
X80516500Y-104564750D01*
G75*
G02*
X80760250Y-104321000I243750J0D01*
G01*
X81672750Y-104321000D01*
G75*
G02*
X81916500Y-104564750I0J-243750D01*
G01*
X81916500Y-105052250D01*
G75*
G02*
X81672750Y-105296000I-243750J0D01*
G01*
G37*
%TD.AperFunction*%
%TA.AperFunction,SMDPad,CuDef*%
G36*
G01*
X81672750Y-103421000D02*
X80760250Y-103421000D01*
G75*
G02*
X80516500Y-103177250I0J243750D01*
G01*
X80516500Y-102689750D01*
G75*
G02*
X80760250Y-102446000I243750J0D01*
G01*
X81672750Y-102446000D01*
G75*
G02*
X81916500Y-102689750I0J-243750D01*
G01*
X81916500Y-103177250D01*
G75*
G02*
X81672750Y-103421000I-243750J0D01*
G01*
G37*
%TD.AperFunction*%
%TA.AperFunction,SMDPad,CuDef*%
G36*
G01*
X105550000Y-66409250D02*
X105550000Y-67321750D01*
G75*
G02*
X105306250Y-67565500I-243750J0D01*
G01*
X104818750Y-67565500D01*
G75*
G02*
X104575000Y-67321750I0J243750D01*
G01*
X104575000Y-66409250D01*
G75*
G02*
X104818750Y-66165500I243750J0D01*
G01*
X105306250Y-66165500D01*
G75*
G02*
X105550000Y-66409250I0J-243750D01*
G01*
G37*
%TD.AperFunction*%
%TA.AperFunction,SMDPad,CuDef*%
G36*
G01*
X103675000Y-66409250D02*
X103675000Y-67321750D01*
G75*
G02*
X103431250Y-67565500I-243750J0D01*
G01*
X102943750Y-67565500D01*
G75*
G02*
X102700000Y-67321750I0J243750D01*
G01*
X102700000Y-66409250D01*
G75*
G02*
X102943750Y-66165500I243750J0D01*
G01*
X103431250Y-66165500D01*
G75*
G02*
X103675000Y-66409250I0J-243750D01*
G01*
G37*
%TD.AperFunction*%
%TA.AperFunction,SMDPad,CuDef*%
G36*
G01*
X79649500Y-82371250D02*
X79649500Y-81458750D01*
G75*
G02*
X79893250Y-81215000I243750J0D01*
G01*
X80380750Y-81215000D01*
G75*
G02*
X80624500Y-81458750I0J-243750D01*
G01*
X80624500Y-82371250D01*
G75*
G02*
X80380750Y-82615000I-243750J0D01*
G01*
X79893250Y-82615000D01*
G75*
G02*
X79649500Y-82371250I0J243750D01*
G01*
G37*
%TD.AperFunction*%
%TA.AperFunction,SMDPad,CuDef*%
G36*
G01*
X77774500Y-82371250D02*
X77774500Y-81458750D01*
G75*
G02*
X78018250Y-81215000I243750J0D01*
G01*
X78505750Y-81215000D01*
G75*
G02*
X78749500Y-81458750I0J-243750D01*
G01*
X78749500Y-82371250D01*
G75*
G02*
X78505750Y-82615000I-243750J0D01*
G01*
X78018250Y-82615000D01*
G75*
G02*
X77774500Y-82371250I0J243750D01*
G01*
G37*
%TD.AperFunction*%
%TA.AperFunction,SMDPad,CuDef*%
G36*
G01*
X71997250Y-80378000D02*
X72909750Y-80378000D01*
G75*
G02*
X73153500Y-80621750I0J-243750D01*
G01*
X73153500Y-81109250D01*
G75*
G02*
X72909750Y-81353000I-243750J0D01*
G01*
X71997250Y-81353000D01*
G75*
G02*
X71753500Y-81109250I0J243750D01*
G01*
X71753500Y-80621750D01*
G75*
G02*
X71997250Y-80378000I243750J0D01*
G01*
G37*
%TD.AperFunction*%
%TA.AperFunction,SMDPad,CuDef*%
G36*
G01*
X71997250Y-82253000D02*
X72909750Y-82253000D01*
G75*
G02*
X73153500Y-82496750I0J-243750D01*
G01*
X73153500Y-82984250D01*
G75*
G02*
X72909750Y-83228000I-243750J0D01*
G01*
X71997250Y-83228000D01*
G75*
G02*
X71753500Y-82984250I0J243750D01*
G01*
X71753500Y-82496750D01*
G75*
G02*
X71997250Y-82253000I243750J0D01*
G01*
G37*
%TD.AperFunction*%
%TA.AperFunction,SMDPad,CuDef*%
G36*
G01*
X107707750Y-59034500D02*
X106795250Y-59034500D01*
G75*
G02*
X106551500Y-58790750I0J243750D01*
G01*
X106551500Y-58303250D01*
G75*
G02*
X106795250Y-58059500I243750J0D01*
G01*
X107707750Y-58059500D01*
G75*
G02*
X107951500Y-58303250I0J-243750D01*
G01*
X107951500Y-58790750D01*
G75*
G02*
X107707750Y-59034500I-243750J0D01*
G01*
G37*
%TD.AperFunction*%
%TA.AperFunction,SMDPad,CuDef*%
G36*
G01*
X107707750Y-57159500D02*
X106795250Y-57159500D01*
G75*
G02*
X106551500Y-56915750I0J243750D01*
G01*
X106551500Y-56428250D01*
G75*
G02*
X106795250Y-56184500I243750J0D01*
G01*
X107707750Y-56184500D01*
G75*
G02*
X107951500Y-56428250I0J-243750D01*
G01*
X107951500Y-56915750D01*
G75*
G02*
X107707750Y-57159500I-243750J0D01*
G01*
G37*
%TD.AperFunction*%
%TA.AperFunction,SMDPad,CuDef*%
G36*
G01*
X72791500Y-96277750D02*
X72791500Y-95365250D01*
G75*
G02*
X73035250Y-95121500I243750J0D01*
G01*
X73522750Y-95121500D01*
G75*
G02*
X73766500Y-95365250I0J-243750D01*
G01*
X73766500Y-96277750D01*
G75*
G02*
X73522750Y-96521500I-243750J0D01*
G01*
X73035250Y-96521500D01*
G75*
G02*
X72791500Y-96277750I0J243750D01*
G01*
G37*
%TD.AperFunction*%
%TA.AperFunction,SMDPad,CuDef*%
G36*
G01*
X70916500Y-96277750D02*
X70916500Y-95365250D01*
G75*
G02*
X71160250Y-95121500I243750J0D01*
G01*
X71647750Y-95121500D01*
G75*
G02*
X71891500Y-95365250I0J-243750D01*
G01*
X71891500Y-96277750D01*
G75*
G02*
X71647750Y-96521500I-243750J0D01*
G01*
X71160250Y-96521500D01*
G75*
G02*
X70916500Y-96277750I0J243750D01*
G01*
G37*
%TD.AperFunction*%
%TA.AperFunction,SMDPad,CuDef*%
G36*
G01*
X113399250Y-91430500D02*
X114311750Y-91430500D01*
G75*
G02*
X114555500Y-91674250I0J-243750D01*
G01*
X114555500Y-92161750D01*
G75*
G02*
X114311750Y-92405500I-243750J0D01*
G01*
X113399250Y-92405500D01*
G75*
G02*
X113155500Y-92161750I0J243750D01*
G01*
X113155500Y-91674250D01*
G75*
G02*
X113399250Y-91430500I243750J0D01*
G01*
G37*
%TD.AperFunction*%
%TA.AperFunction,SMDPad,CuDef*%
G36*
G01*
X113399250Y-89555500D02*
X114311750Y-89555500D01*
G75*
G02*
X114555500Y-89799250I0J-243750D01*
G01*
X114555500Y-90286750D01*
G75*
G02*
X114311750Y-90530500I-243750J0D01*
G01*
X113399250Y-90530500D01*
G75*
G02*
X113155500Y-90286750I0J243750D01*
G01*
X113155500Y-89799250D01*
G75*
G02*
X113399250Y-89555500I243750J0D01*
G01*
G37*
%TD.AperFunction*%
%TA.AperFunction,SMDPad,CuDef*%
G36*
G01*
X97429500Y-57733250D02*
X97429500Y-56820750D01*
G75*
G02*
X97673250Y-56577000I243750J0D01*
G01*
X98160750Y-56577000D01*
G75*
G02*
X98404500Y-56820750I0J-243750D01*
G01*
X98404500Y-57733250D01*
G75*
G02*
X98160750Y-57977000I-243750J0D01*
G01*
X97673250Y-57977000D01*
G75*
G02*
X97429500Y-57733250I0J243750D01*
G01*
G37*
%TD.AperFunction*%
%TA.AperFunction,SMDPad,CuDef*%
G36*
G01*
X95554500Y-57733250D02*
X95554500Y-56820750D01*
G75*
G02*
X95798250Y-56577000I243750J0D01*
G01*
X96285750Y-56577000D01*
G75*
G02*
X96529500Y-56820750I0J-243750D01*
G01*
X96529500Y-57733250D01*
G75*
G02*
X96285750Y-57977000I-243750J0D01*
G01*
X95798250Y-57977000D01*
G75*
G02*
X95554500Y-57733250I0J243750D01*
G01*
G37*
%TD.AperFunction*%
%TA.AperFunction,SMDPad,CuDef*%
G36*
G01*
X70916500Y-99135250D02*
X70916500Y-98222750D01*
G75*
G02*
X71160250Y-97979000I243750J0D01*
G01*
X71647750Y-97979000D01*
G75*
G02*
X71891500Y-98222750I0J-243750D01*
G01*
X71891500Y-99135250D01*
G75*
G02*
X71647750Y-99379000I-243750J0D01*
G01*
X71160250Y-99379000D01*
G75*
G02*
X70916500Y-99135250I0J243750D01*
G01*
G37*
%TD.AperFunction*%
%TA.AperFunction,SMDPad,CuDef*%
G36*
G01*
X72791500Y-99135250D02*
X72791500Y-98222750D01*
G75*
G02*
X73035250Y-97979000I243750J0D01*
G01*
X73522750Y-97979000D01*
G75*
G02*
X73766500Y-98222750I0J-243750D01*
G01*
X73766500Y-99135250D01*
G75*
G02*
X73522750Y-99379000I-243750J0D01*
G01*
X73035250Y-99379000D01*
G75*
G02*
X72791500Y-99135250I0J243750D01*
G01*
G37*
%TD.AperFunction*%
%TA.AperFunction,SMDPad,CuDef*%
G36*
G01*
X72844000Y-65774250D02*
X72844000Y-66686750D01*
G75*
G02*
X72600250Y-66930500I-243750J0D01*
G01*
X72112750Y-66930500D01*
G75*
G02*
X71869000Y-66686750I0J243750D01*
G01*
X71869000Y-65774250D01*
G75*
G02*
X72112750Y-65530500I243750J0D01*
G01*
X72600250Y-65530500D01*
G75*
G02*
X72844000Y-65774250I0J-243750D01*
G01*
G37*
%TD.AperFunction*%
%TA.AperFunction,SMDPad,CuDef*%
G36*
G01*
X74719000Y-65774250D02*
X74719000Y-66686750D01*
G75*
G02*
X74475250Y-66930500I-243750J0D01*
G01*
X73987750Y-66930500D01*
G75*
G02*
X73744000Y-66686750I0J243750D01*
G01*
X73744000Y-65774250D01*
G75*
G02*
X73987750Y-65530500I243750J0D01*
G01*
X74475250Y-65530500D01*
G75*
G02*
X74719000Y-65774250I0J-243750D01*
G01*
G37*
%TD.AperFunction*%
%TA.AperFunction,SMDPad,CuDef*%
G36*
G01*
X74624250Y-71798000D02*
X73711750Y-71798000D01*
G75*
G02*
X73468000Y-71554250I0J243750D01*
G01*
X73468000Y-71066750D01*
G75*
G02*
X73711750Y-70823000I243750J0D01*
G01*
X74624250Y-70823000D01*
G75*
G02*
X74868000Y-71066750I0J-243750D01*
G01*
X74868000Y-71554250D01*
G75*
G02*
X74624250Y-71798000I-243750J0D01*
G01*
G37*
%TD.AperFunction*%
%TA.AperFunction,SMDPad,CuDef*%
G36*
G01*
X74624250Y-73673000D02*
X73711750Y-73673000D01*
G75*
G02*
X73468000Y-73429250I0J243750D01*
G01*
X73468000Y-72941750D01*
G75*
G02*
X73711750Y-72698000I243750J0D01*
G01*
X74624250Y-72698000D01*
G75*
G02*
X74868000Y-72941750I0J-243750D01*
G01*
X74868000Y-73429250D01*
G75*
G02*
X74624250Y-73673000I-243750J0D01*
G01*
G37*
%TD.AperFunction*%
%TA.AperFunction,SMDPad,CuDef*%
G36*
G01*
X74719000Y-68441250D02*
X74719000Y-69353750D01*
G75*
G02*
X74475250Y-69597500I-243750J0D01*
G01*
X73987750Y-69597500D01*
G75*
G02*
X73744000Y-69353750I0J243750D01*
G01*
X73744000Y-68441250D01*
G75*
G02*
X73987750Y-68197500I243750J0D01*
G01*
X74475250Y-68197500D01*
G75*
G02*
X74719000Y-68441250I0J-243750D01*
G01*
G37*
%TD.AperFunction*%
%TA.AperFunction,SMDPad,CuDef*%
G36*
G01*
X72844000Y-68441250D02*
X72844000Y-69353750D01*
G75*
G02*
X72600250Y-69597500I-243750J0D01*
G01*
X72112750Y-69597500D01*
G75*
G02*
X71869000Y-69353750I0J243750D01*
G01*
X71869000Y-68441250D01*
G75*
G02*
X72112750Y-68197500I243750J0D01*
G01*
X72600250Y-68197500D01*
G75*
G02*
X72844000Y-68441250I0J-243750D01*
G01*
G37*
%TD.AperFunction*%
%TA.AperFunction,SMDPad,CuDef*%
G36*
G01*
X101620500Y-86816250D02*
X101620500Y-85903750D01*
G75*
G02*
X101864250Y-85660000I243750J0D01*
G01*
X102351750Y-85660000D01*
G75*
G02*
X102595500Y-85903750I0J-243750D01*
G01*
X102595500Y-86816250D01*
G75*
G02*
X102351750Y-87060000I-243750J0D01*
G01*
X101864250Y-87060000D01*
G75*
G02*
X101620500Y-86816250I0J243750D01*
G01*
G37*
%TD.AperFunction*%
%TA.AperFunction,SMDPad,CuDef*%
G36*
G01*
X99745500Y-86816250D02*
X99745500Y-85903750D01*
G75*
G02*
X99989250Y-85660000I243750J0D01*
G01*
X100476750Y-85660000D01*
G75*
G02*
X100720500Y-85903750I0J-243750D01*
G01*
X100720500Y-86816250D01*
G75*
G02*
X100476750Y-87060000I-243750J0D01*
G01*
X99989250Y-87060000D01*
G75*
G02*
X99745500Y-86816250I0J243750D01*
G01*
G37*
%TD.AperFunction*%
%TA.AperFunction,SMDPad,CuDef*%
G36*
G01*
X98707000Y-85840250D02*
X98707000Y-86752750D01*
G75*
G02*
X98463250Y-86996500I-243750J0D01*
G01*
X97975750Y-86996500D01*
G75*
G02*
X97732000Y-86752750I0J243750D01*
G01*
X97732000Y-85840250D01*
G75*
G02*
X97975750Y-85596500I243750J0D01*
G01*
X98463250Y-85596500D01*
G75*
G02*
X98707000Y-85840250I0J-243750D01*
G01*
G37*
%TD.AperFunction*%
%TA.AperFunction,SMDPad,CuDef*%
G36*
G01*
X96832000Y-85840250D02*
X96832000Y-86752750D01*
G75*
G02*
X96588250Y-86996500I-243750J0D01*
G01*
X96100750Y-86996500D01*
G75*
G02*
X95857000Y-86752750I0J243750D01*
G01*
X95857000Y-85840250D01*
G75*
G02*
X96100750Y-85596500I243750J0D01*
G01*
X96588250Y-85596500D01*
G75*
G02*
X96832000Y-85840250I0J-243750D01*
G01*
G37*
%TD.AperFunction*%
%TA.AperFunction,SMDPad,CuDef*%
G36*
G01*
X106099000Y-92340750D02*
X106099000Y-91428250D01*
G75*
G02*
X106342750Y-91184500I243750J0D01*
G01*
X106830250Y-91184500D01*
G75*
G02*
X107074000Y-91428250I0J-243750D01*
G01*
X107074000Y-92340750D01*
G75*
G02*
X106830250Y-92584500I-243750J0D01*
G01*
X106342750Y-92584500D01*
G75*
G02*
X106099000Y-92340750I0J243750D01*
G01*
G37*
%TD.AperFunction*%
%TA.AperFunction,SMDPad,CuDef*%
G36*
G01*
X104224000Y-92340750D02*
X104224000Y-91428250D01*
G75*
G02*
X104467750Y-91184500I243750J0D01*
G01*
X104955250Y-91184500D01*
G75*
G02*
X105199000Y-91428250I0J-243750D01*
G01*
X105199000Y-92340750D01*
G75*
G02*
X104955250Y-92584500I-243750J0D01*
G01*
X104467750Y-92584500D01*
G75*
G02*
X104224000Y-92340750I0J243750D01*
G01*
G37*
%TD.AperFunction*%
%TA.AperFunction,SMDPad,CuDef*%
G36*
G01*
X104128250Y-89208000D02*
X105040750Y-89208000D01*
G75*
G02*
X105284500Y-89451750I0J-243750D01*
G01*
X105284500Y-89939250D01*
G75*
G02*
X105040750Y-90183000I-243750J0D01*
G01*
X104128250Y-90183000D01*
G75*
G02*
X103884500Y-89939250I0J243750D01*
G01*
X103884500Y-89451750D01*
G75*
G02*
X104128250Y-89208000I243750J0D01*
G01*
G37*
%TD.AperFunction*%
%TA.AperFunction,SMDPad,CuDef*%
G36*
G01*
X104128250Y-87333000D02*
X105040750Y-87333000D01*
G75*
G02*
X105284500Y-87576750I0J-243750D01*
G01*
X105284500Y-88064250D01*
G75*
G02*
X105040750Y-88308000I-243750J0D01*
G01*
X104128250Y-88308000D01*
G75*
G02*
X103884500Y-88064250I0J243750D01*
G01*
X103884500Y-87576750D01*
G75*
G02*
X104128250Y-87333000I243750J0D01*
G01*
G37*
%TD.AperFunction*%
%TA.AperFunction,SMDPad,CuDef*%
G36*
G01*
X135563000Y-53161250D02*
X135563000Y-52248750D01*
G75*
G02*
X135806750Y-52005000I243750J0D01*
G01*
X136294250Y-52005000D01*
G75*
G02*
X136538000Y-52248750I0J-243750D01*
G01*
X136538000Y-53161250D01*
G75*
G02*
X136294250Y-53405000I-243750J0D01*
G01*
X135806750Y-53405000D01*
G75*
G02*
X135563000Y-53161250I0J243750D01*
G01*
G37*
%TD.AperFunction*%
%TA.AperFunction,SMDPad,CuDef*%
G36*
G01*
X133688000Y-53161250D02*
X133688000Y-52248750D01*
G75*
G02*
X133931750Y-52005000I243750J0D01*
G01*
X134419250Y-52005000D01*
G75*
G02*
X134663000Y-52248750I0J-243750D01*
G01*
X134663000Y-53161250D01*
G75*
G02*
X134419250Y-53405000I-243750J0D01*
G01*
X133931750Y-53405000D01*
G75*
G02*
X133688000Y-53161250I0J243750D01*
G01*
G37*
%TD.AperFunction*%
%TA.AperFunction,SMDPad,CuDef*%
G36*
G01*
X131805500Y-104953750D02*
X131805500Y-105866250D01*
G75*
G02*
X131561750Y-106110000I-243750J0D01*
G01*
X131074250Y-106110000D01*
G75*
G02*
X130830500Y-105866250I0J243750D01*
G01*
X130830500Y-104953750D01*
G75*
G02*
X131074250Y-104710000I243750J0D01*
G01*
X131561750Y-104710000D01*
G75*
G02*
X131805500Y-104953750I0J-243750D01*
G01*
G37*
%TD.AperFunction*%
%TA.AperFunction,SMDPad,CuDef*%
G36*
G01*
X129930500Y-104953750D02*
X129930500Y-105866250D01*
G75*
G02*
X129686750Y-106110000I-243750J0D01*
G01*
X129199250Y-106110000D01*
G75*
G02*
X128955500Y-105866250I0J243750D01*
G01*
X128955500Y-104953750D01*
G75*
G02*
X129199250Y-104710000I243750J0D01*
G01*
X129686750Y-104710000D01*
G75*
G02*
X129930500Y-104953750I0J-243750D01*
G01*
G37*
%TD.AperFunction*%
%TA.AperFunction,SMDPad,CuDef*%
G36*
G01*
X135647750Y-50271500D02*
X134735250Y-50271500D01*
G75*
G02*
X134491500Y-50027750I0J243750D01*
G01*
X134491500Y-49540250D01*
G75*
G02*
X134735250Y-49296500I243750J0D01*
G01*
X135647750Y-49296500D01*
G75*
G02*
X135891500Y-49540250I0J-243750D01*
G01*
X135891500Y-50027750D01*
G75*
G02*
X135647750Y-50271500I-243750J0D01*
G01*
G37*
%TD.AperFunction*%
%TA.AperFunction,SMDPad,CuDef*%
G36*
G01*
X135647750Y-48396500D02*
X134735250Y-48396500D01*
G75*
G02*
X134491500Y-48152750I0J243750D01*
G01*
X134491500Y-47665250D01*
G75*
G02*
X134735250Y-47421500I243750J0D01*
G01*
X135647750Y-47421500D01*
G75*
G02*
X135891500Y-47665250I0J-243750D01*
G01*
X135891500Y-48152750D01*
G75*
G02*
X135647750Y-48396500I-243750J0D01*
G01*
G37*
%TD.AperFunction*%
%TA.AperFunction,SMDPad,CuDef*%
G36*
G01*
X108826000Y-44588750D02*
X108826000Y-43676250D01*
G75*
G02*
X109069750Y-43432500I243750J0D01*
G01*
X109557250Y-43432500D01*
G75*
G02*
X109801000Y-43676250I0J-243750D01*
G01*
X109801000Y-44588750D01*
G75*
G02*
X109557250Y-44832500I-243750J0D01*
G01*
X109069750Y-44832500D01*
G75*
G02*
X108826000Y-44588750I0J243750D01*
G01*
G37*
%TD.AperFunction*%
%TA.AperFunction,SMDPad,CuDef*%
G36*
G01*
X110701000Y-44588750D02*
X110701000Y-43676250D01*
G75*
G02*
X110944750Y-43432500I243750J0D01*
G01*
X111432250Y-43432500D01*
G75*
G02*
X111676000Y-43676250I0J-243750D01*
G01*
X111676000Y-44588750D01*
G75*
G02*
X111432250Y-44832500I-243750J0D01*
G01*
X110944750Y-44832500D01*
G75*
G02*
X110701000Y-44588750I0J243750D01*
G01*
G37*
%TD.AperFunction*%
%TA.AperFunction,SMDPad,CuDef*%
G36*
G01*
X127138750Y-48587000D02*
X126226250Y-48587000D01*
G75*
G02*
X125982500Y-48343250I0J243750D01*
G01*
X125982500Y-47855750D01*
G75*
G02*
X126226250Y-47612000I243750J0D01*
G01*
X127138750Y-47612000D01*
G75*
G02*
X127382500Y-47855750I0J-243750D01*
G01*
X127382500Y-48343250D01*
G75*
G02*
X127138750Y-48587000I-243750J0D01*
G01*
G37*
%TD.AperFunction*%
%TA.AperFunction,SMDPad,CuDef*%
G36*
G01*
X127138750Y-50462000D02*
X126226250Y-50462000D01*
G75*
G02*
X125982500Y-50218250I0J243750D01*
G01*
X125982500Y-49730750D01*
G75*
G02*
X126226250Y-49487000I243750J0D01*
G01*
X127138750Y-49487000D01*
G75*
G02*
X127382500Y-49730750I0J-243750D01*
G01*
X127382500Y-50218250D01*
G75*
G02*
X127138750Y-50462000I-243750J0D01*
G01*
G37*
%TD.AperFunction*%
%TA.AperFunction,SMDPad,CuDef*%
G36*
G01*
X115962750Y-109009000D02*
X115050250Y-109009000D01*
G75*
G02*
X114806500Y-108765250I0J243750D01*
G01*
X114806500Y-108277750D01*
G75*
G02*
X115050250Y-108034000I243750J0D01*
G01*
X115962750Y-108034000D01*
G75*
G02*
X116206500Y-108277750I0J-243750D01*
G01*
X116206500Y-108765250D01*
G75*
G02*
X115962750Y-109009000I-243750J0D01*
G01*
G37*
%TD.AperFunction*%
%TA.AperFunction,SMDPad,CuDef*%
G36*
G01*
X115962750Y-110884000D02*
X115050250Y-110884000D01*
G75*
G02*
X114806500Y-110640250I0J243750D01*
G01*
X114806500Y-110152750D01*
G75*
G02*
X115050250Y-109909000I243750J0D01*
G01*
X115962750Y-109909000D01*
G75*
G02*
X116206500Y-110152750I0J-243750D01*
G01*
X116206500Y-110640250D01*
G75*
G02*
X115962750Y-110884000I-243750J0D01*
G01*
G37*
%TD.AperFunction*%
%TA.AperFunction,SMDPad,CuDef*%
G36*
G01*
X117232750Y-89847000D02*
X116320250Y-89847000D01*
G75*
G02*
X116076500Y-89603250I0J243750D01*
G01*
X116076500Y-89115750D01*
G75*
G02*
X116320250Y-88872000I243750J0D01*
G01*
X117232750Y-88872000D01*
G75*
G02*
X117476500Y-89115750I0J-243750D01*
G01*
X117476500Y-89603250D01*
G75*
G02*
X117232750Y-89847000I-243750J0D01*
G01*
G37*
%TD.AperFunction*%
%TA.AperFunction,SMDPad,CuDef*%
G36*
G01*
X117232750Y-91722000D02*
X116320250Y-91722000D01*
G75*
G02*
X116076500Y-91478250I0J243750D01*
G01*
X116076500Y-90990750D01*
G75*
G02*
X116320250Y-90747000I243750J0D01*
G01*
X117232750Y-90747000D01*
G75*
G02*
X117476500Y-90990750I0J-243750D01*
G01*
X117476500Y-91478250D01*
G75*
G02*
X117232750Y-91722000I-243750J0D01*
G01*
G37*
%TD.AperFunction*%
%TA.AperFunction,SMDPad,CuDef*%
G36*
G01*
X103365000Y-116089750D02*
X103365000Y-115177250D01*
G75*
G02*
X103608750Y-114933500I243750J0D01*
G01*
X104096250Y-114933500D01*
G75*
G02*
X104340000Y-115177250I0J-243750D01*
G01*
X104340000Y-116089750D01*
G75*
G02*
X104096250Y-116333500I-243750J0D01*
G01*
X103608750Y-116333500D01*
G75*
G02*
X103365000Y-116089750I0J243750D01*
G01*
G37*
%TD.AperFunction*%
%TA.AperFunction,SMDPad,CuDef*%
G36*
G01*
X105240000Y-116089750D02*
X105240000Y-115177250D01*
G75*
G02*
X105483750Y-114933500I243750J0D01*
G01*
X105971250Y-114933500D01*
G75*
G02*
X106215000Y-115177250I0J-243750D01*
G01*
X106215000Y-116089750D01*
G75*
G02*
X105971250Y-116333500I-243750J0D01*
G01*
X105483750Y-116333500D01*
G75*
G02*
X105240000Y-116089750I0J243750D01*
G01*
G37*
%TD.AperFunction*%
%TA.AperFunction,SMDPad,CuDef*%
G36*
G01*
X99516250Y-120599500D02*
X98603750Y-120599500D01*
G75*
G02*
X98360000Y-120355750I0J243750D01*
G01*
X98360000Y-119868250D01*
G75*
G02*
X98603750Y-119624500I243750J0D01*
G01*
X99516250Y-119624500D01*
G75*
G02*
X99760000Y-119868250I0J-243750D01*
G01*
X99760000Y-120355750D01*
G75*
G02*
X99516250Y-120599500I-243750J0D01*
G01*
G37*
%TD.AperFunction*%
%TA.AperFunction,SMDPad,CuDef*%
G36*
G01*
X99516250Y-118724500D02*
X98603750Y-118724500D01*
G75*
G02*
X98360000Y-118480750I0J243750D01*
G01*
X98360000Y-117993250D01*
G75*
G02*
X98603750Y-117749500I243750J0D01*
G01*
X99516250Y-117749500D01*
G75*
G02*
X99760000Y-117993250I0J-243750D01*
G01*
X99760000Y-118480750D01*
G75*
G02*
X99516250Y-118724500I-243750J0D01*
G01*
G37*
%TD.AperFunction*%
%TA.AperFunction,SMDPad,CuDef*%
G36*
G01*
X99073000Y-115304250D02*
X99073000Y-116216750D01*
G75*
G02*
X98829250Y-116460500I-243750J0D01*
G01*
X98341750Y-116460500D01*
G75*
G02*
X98098000Y-116216750I0J243750D01*
G01*
X98098000Y-115304250D01*
G75*
G02*
X98341750Y-115060500I243750J0D01*
G01*
X98829250Y-115060500D01*
G75*
G02*
X99073000Y-115304250I0J-243750D01*
G01*
G37*
%TD.AperFunction*%
%TA.AperFunction,SMDPad,CuDef*%
G36*
G01*
X97198000Y-115304250D02*
X97198000Y-116216750D01*
G75*
G02*
X96954250Y-116460500I-243750J0D01*
G01*
X96466750Y-116460500D01*
G75*
G02*
X96223000Y-116216750I0J243750D01*
G01*
X96223000Y-115304250D01*
G75*
G02*
X96466750Y-115060500I243750J0D01*
G01*
X96954250Y-115060500D01*
G75*
G02*
X97198000Y-115304250I0J-243750D01*
G01*
G37*
%TD.AperFunction*%
%TA.AperFunction,SMDPad,CuDef*%
G36*
G01*
X103809500Y-81037750D02*
X103809500Y-80125250D01*
G75*
G02*
X104053250Y-79881500I243750J0D01*
G01*
X104540750Y-79881500D01*
G75*
G02*
X104784500Y-80125250I0J-243750D01*
G01*
X104784500Y-81037750D01*
G75*
G02*
X104540750Y-81281500I-243750J0D01*
G01*
X104053250Y-81281500D01*
G75*
G02*
X103809500Y-81037750I0J243750D01*
G01*
G37*
%TD.AperFunction*%
%TA.AperFunction,SMDPad,CuDef*%
G36*
G01*
X105684500Y-81037750D02*
X105684500Y-80125250D01*
G75*
G02*
X105928250Y-79881500I243750J0D01*
G01*
X106415750Y-79881500D01*
G75*
G02*
X106659500Y-80125250I0J-243750D01*
G01*
X106659500Y-81037750D01*
G75*
G02*
X106415750Y-81281500I-243750J0D01*
G01*
X105928250Y-81281500D01*
G75*
G02*
X105684500Y-81037750I0J243750D01*
G01*
G37*
%TD.AperFunction*%
%TA.AperFunction,SMDPad,CuDef*%
G36*
G01*
X98881250Y-45905000D02*
X97968750Y-45905000D01*
G75*
G02*
X97725000Y-45661250I0J243750D01*
G01*
X97725000Y-45173750D01*
G75*
G02*
X97968750Y-44930000I243750J0D01*
G01*
X98881250Y-44930000D01*
G75*
G02*
X99125000Y-45173750I0J-243750D01*
G01*
X99125000Y-45661250D01*
G75*
G02*
X98881250Y-45905000I-243750J0D01*
G01*
G37*
%TD.AperFunction*%
%TA.AperFunction,SMDPad,CuDef*%
G36*
G01*
X98881250Y-47780000D02*
X97968750Y-47780000D01*
G75*
G02*
X97725000Y-47536250I0J243750D01*
G01*
X97725000Y-47048750D01*
G75*
G02*
X97968750Y-46805000I243750J0D01*
G01*
X98881250Y-46805000D01*
G75*
G02*
X99125000Y-47048750I0J-243750D01*
G01*
X99125000Y-47536250D01*
G75*
G02*
X98881250Y-47780000I-243750J0D01*
G01*
G37*
%TD.AperFunction*%
%TA.AperFunction,SMDPad,CuDef*%
G36*
G01*
X133973250Y-99779000D02*
X134885750Y-99779000D01*
G75*
G02*
X135129500Y-100022750I0J-243750D01*
G01*
X135129500Y-100510250D01*
G75*
G02*
X134885750Y-100754000I-243750J0D01*
G01*
X133973250Y-100754000D01*
G75*
G02*
X133729500Y-100510250I0J243750D01*
G01*
X133729500Y-100022750D01*
G75*
G02*
X133973250Y-99779000I243750J0D01*
G01*
G37*
%TD.AperFunction*%
%TA.AperFunction,SMDPad,CuDef*%
G36*
G01*
X133973250Y-97904000D02*
X134885750Y-97904000D01*
G75*
G02*
X135129500Y-98147750I0J-243750D01*
G01*
X135129500Y-98635250D01*
G75*
G02*
X134885750Y-98879000I-243750J0D01*
G01*
X133973250Y-98879000D01*
G75*
G02*
X133729500Y-98635250I0J243750D01*
G01*
X133729500Y-98147750D01*
G75*
G02*
X133973250Y-97904000I243750J0D01*
G01*
G37*
%TD.AperFunction*%
%TA.AperFunction,SMDPad,CuDef*%
G36*
G01*
X118369500Y-102119750D02*
X118369500Y-101207250D01*
G75*
G02*
X118613250Y-100963500I243750J0D01*
G01*
X119100750Y-100963500D01*
G75*
G02*
X119344500Y-101207250I0J-243750D01*
G01*
X119344500Y-102119750D01*
G75*
G02*
X119100750Y-102363500I-243750J0D01*
G01*
X118613250Y-102363500D01*
G75*
G02*
X118369500Y-102119750I0J243750D01*
G01*
G37*
%TD.AperFunction*%
%TA.AperFunction,SMDPad,CuDef*%
G36*
G01*
X116494500Y-102119750D02*
X116494500Y-101207250D01*
G75*
G02*
X116738250Y-100963500I243750J0D01*
G01*
X117225750Y-100963500D01*
G75*
G02*
X117469500Y-101207250I0J-243750D01*
G01*
X117469500Y-102119750D01*
G75*
G02*
X117225750Y-102363500I-243750J0D01*
G01*
X116738250Y-102363500D01*
G75*
G02*
X116494500Y-102119750I0J243750D01*
G01*
G37*
%TD.AperFunction*%
%TA.AperFunction,SMDPad,CuDef*%
G36*
G01*
X134822250Y-104470500D02*
X133909750Y-104470500D01*
G75*
G02*
X133666000Y-104226750I0J243750D01*
G01*
X133666000Y-103739250D01*
G75*
G02*
X133909750Y-103495500I243750J0D01*
G01*
X134822250Y-103495500D01*
G75*
G02*
X135066000Y-103739250I0J-243750D01*
G01*
X135066000Y-104226750D01*
G75*
G02*
X134822250Y-104470500I-243750J0D01*
G01*
G37*
%TD.AperFunction*%
%TA.AperFunction,SMDPad,CuDef*%
G36*
G01*
X134822250Y-102595500D02*
X133909750Y-102595500D01*
G75*
G02*
X133666000Y-102351750I0J243750D01*
G01*
X133666000Y-101864250D01*
G75*
G02*
X133909750Y-101620500I243750J0D01*
G01*
X134822250Y-101620500D01*
G75*
G02*
X135066000Y-101864250I0J-243750D01*
G01*
X135066000Y-102351750D01*
G75*
G02*
X134822250Y-102595500I-243750J0D01*
G01*
G37*
%TD.AperFunction*%
%TA.AperFunction,SMDPad,CuDef*%
G36*
G01*
X120248500Y-110732250D02*
X120248500Y-111644750D01*
G75*
G02*
X120004750Y-111888500I-243750J0D01*
G01*
X119517250Y-111888500D01*
G75*
G02*
X119273500Y-111644750I0J243750D01*
G01*
X119273500Y-110732250D01*
G75*
G02*
X119517250Y-110488500I243750J0D01*
G01*
X120004750Y-110488500D01*
G75*
G02*
X120248500Y-110732250I0J-243750D01*
G01*
G37*
%TD.AperFunction*%
%TA.AperFunction,SMDPad,CuDef*%
G36*
G01*
X118373500Y-110732250D02*
X118373500Y-111644750D01*
G75*
G02*
X118129750Y-111888500I-243750J0D01*
G01*
X117642250Y-111888500D01*
G75*
G02*
X117398500Y-111644750I0J243750D01*
G01*
X117398500Y-110732250D01*
G75*
G02*
X117642250Y-110488500I243750J0D01*
G01*
X118129750Y-110488500D01*
G75*
G02*
X118373500Y-110732250I0J-243750D01*
G01*
G37*
%TD.AperFunction*%
%TA.AperFunction,SMDPad,CuDef*%
G36*
G01*
X66131501Y-84791000D02*
X63281499Y-84791000D01*
G75*
G02*
X63031500Y-84541001I0J249999D01*
G01*
X63031500Y-83690999D01*
G75*
G02*
X63281499Y-83441000I249999J0D01*
G01*
X66131501Y-83441000D01*
G75*
G02*
X66381500Y-83690999I0J-249999D01*
G01*
X66381500Y-84541001D01*
G75*
G02*
X66131501Y-84791000I-249999J0D01*
G01*
G37*
%TD.AperFunction*%
%TA.AperFunction,SMDPad,CuDef*%
G36*
G01*
X66131501Y-90591000D02*
X63281499Y-90591000D01*
G75*
G02*
X63031500Y-90341001I0J249999D01*
G01*
X63031500Y-89490999D01*
G75*
G02*
X63281499Y-89241000I249999J0D01*
G01*
X66131501Y-89241000D01*
G75*
G02*
X66381500Y-89490999I0J-249999D01*
G01*
X66381500Y-90341001D01*
G75*
G02*
X66131501Y-90591000I-249999J0D01*
G01*
G37*
%TD.AperFunction*%
%TA.AperFunction,SMDPad,CuDef*%
G36*
G01*
X66131501Y-80008000D02*
X63281499Y-80008000D01*
G75*
G02*
X63031500Y-79758001I0J249999D01*
G01*
X63031500Y-78907999D01*
G75*
G02*
X63281499Y-78658000I249999J0D01*
G01*
X66131501Y-78658000D01*
G75*
G02*
X66381500Y-78907999I0J-249999D01*
G01*
X66381500Y-79758001D01*
G75*
G02*
X66131501Y-80008000I-249999J0D01*
G01*
G37*
%TD.AperFunction*%
%TA.AperFunction,SMDPad,CuDef*%
G36*
G01*
X66131501Y-74208000D02*
X63281499Y-74208000D01*
G75*
G02*
X63031500Y-73958001I0J249999D01*
G01*
X63031500Y-73107999D01*
G75*
G02*
X63281499Y-72858000I249999J0D01*
G01*
X66131501Y-72858000D01*
G75*
G02*
X66381500Y-73107999I0J-249999D01*
G01*
X66381500Y-73958001D01*
G75*
G02*
X66131501Y-74208000I-249999J0D01*
G01*
G37*
%TD.AperFunction*%
X60555500Y-100266500D03*
D29*
X60555500Y-105716500D03*
X60555500Y-111166500D03*
%TA.AperFunction,SMDPad,CuDef*%
G36*
G01*
X129205000Y-118226500D02*
X129205000Y-118501500D01*
G75*
G02*
X129067500Y-118639000I-137500J0D01*
G01*
X127892500Y-118639000D01*
G75*
G02*
X127755000Y-118501500I0J137500D01*
G01*
X127755000Y-118226500D01*
G75*
G02*
X127892500Y-118089000I137500J0D01*
G01*
X129067500Y-118089000D01*
G75*
G02*
X129205000Y-118226500I0J-137500D01*
G01*
G37*
%TD.AperFunction*%
%TA.AperFunction,SMDPad,CuDef*%
G36*
G01*
X129205000Y-115686500D02*
X129205000Y-115961500D01*
G75*
G02*
X129067500Y-116099000I-137500J0D01*
G01*
X127892500Y-116099000D01*
G75*
G02*
X127755000Y-115961500I0J137500D01*
G01*
X127755000Y-115686500D01*
G75*
G02*
X127892500Y-115549000I137500J0D01*
G01*
X129067500Y-115549000D01*
G75*
G02*
X129205000Y-115686500I0J-137500D01*
G01*
G37*
%TD.AperFunction*%
%TA.AperFunction,SMDPad,CuDef*%
G36*
G01*
X123705000Y-115686500D02*
X123705000Y-115961500D01*
G75*
G02*
X123567500Y-116099000I-137500J0D01*
G01*
X122392500Y-116099000D01*
G75*
G02*
X122255000Y-115961500I0J137500D01*
G01*
X122255000Y-115686500D01*
G75*
G02*
X122392500Y-115549000I137500J0D01*
G01*
X123567500Y-115549000D01*
G75*
G02*
X123705000Y-115686500I0J-137500D01*
G01*
G37*
%TD.AperFunction*%
%TA.AperFunction,SMDPad,CuDef*%
G36*
G01*
X123705000Y-118226500D02*
X123705000Y-118501500D01*
G75*
G02*
X123567500Y-118639000I-137500J0D01*
G01*
X122392500Y-118639000D01*
G75*
G02*
X122255000Y-118501500I0J137500D01*
G01*
X122255000Y-118226500D01*
G75*
G02*
X122392500Y-118089000I137500J0D01*
G01*
X123567500Y-118089000D01*
G75*
G02*
X123705000Y-118226500I0J-137500D01*
G01*
G37*
%TD.AperFunction*%
D30*
X99758500Y-90609500D03*
X99758500Y-88709500D03*
X97758500Y-89659500D03*
D31*
X117919500Y-81026000D03*
D16*
X117919500Y-76026000D03*
X118554500Y-49800500D03*
D31*
X118554500Y-54800500D03*
D32*
X67500500Y-64262000D03*
X85788500Y-81788000D03*
X112395000Y-126174500D03*
X113030000Y-37465000D03*
X90551000Y-81851500D03*
D15*
X119697500Y-127127000D03*
X125857000Y-127127000D03*
%TA.AperFunction,SMDPad,CuDef*%
G36*
G01*
X136262000Y-83735000D02*
X138312000Y-83735000D01*
G75*
G02*
X138562000Y-83985000I0J-250000D01*
G01*
X138562000Y-85560000D01*
G75*
G02*
X138312000Y-85810000I-250000J0D01*
G01*
X136262000Y-85810000D01*
G75*
G02*
X136012000Y-85560000I0J250000D01*
G01*
X136012000Y-83985000D01*
G75*
G02*
X136262000Y-83735000I250000J0D01*
G01*
G37*
%TD.AperFunction*%
%TA.AperFunction,SMDPad,CuDef*%
G36*
G01*
X136262000Y-89960000D02*
X138312000Y-89960000D01*
G75*
G02*
X138562000Y-90210000I0J-250000D01*
G01*
X138562000Y-91785000D01*
G75*
G02*
X138312000Y-92035000I-250000J0D01*
G01*
X136262000Y-92035000D01*
G75*
G02*
X136012000Y-91785000I0J250000D01*
G01*
X136012000Y-90210000D01*
G75*
G02*
X136262000Y-89960000I250000J0D01*
G01*
G37*
%TD.AperFunction*%
%TA.AperFunction,SMDPad,CuDef*%
G36*
G01*
X77034500Y-101944000D02*
X74984500Y-101944000D01*
G75*
G02*
X74734500Y-101694000I0J250000D01*
G01*
X74734500Y-100119000D01*
G75*
G02*
X74984500Y-99869000I250000J0D01*
G01*
X77034500Y-99869000D01*
G75*
G02*
X77284500Y-100119000I0J-250000D01*
G01*
X77284500Y-101694000D01*
G75*
G02*
X77034500Y-101944000I-250000J0D01*
G01*
G37*
%TD.AperFunction*%
%TA.AperFunction,SMDPad,CuDef*%
G36*
G01*
X77034500Y-108169000D02*
X74984500Y-108169000D01*
G75*
G02*
X74734500Y-107919000I0J250000D01*
G01*
X74734500Y-106344000D01*
G75*
G02*
X74984500Y-106094000I250000J0D01*
G01*
X77034500Y-106094000D01*
G75*
G02*
X77284500Y-106344000I0J-250000D01*
G01*
X77284500Y-107919000D01*
G75*
G02*
X77034500Y-108169000I-250000J0D01*
G01*
G37*
%TD.AperFunction*%
%TA.AperFunction,SMDPad,CuDef*%
G36*
G01*
X110499000Y-113306500D02*
X108449000Y-113306500D01*
G75*
G02*
X108199000Y-113056500I0J250000D01*
G01*
X108199000Y-111481500D01*
G75*
G02*
X108449000Y-111231500I250000J0D01*
G01*
X110499000Y-111231500D01*
G75*
G02*
X110749000Y-111481500I0J-250000D01*
G01*
X110749000Y-113056500D01*
G75*
G02*
X110499000Y-113306500I-250000J0D01*
G01*
G37*
%TD.AperFunction*%
%TA.AperFunction,SMDPad,CuDef*%
G36*
G01*
X110499000Y-107081500D02*
X108449000Y-107081500D01*
G75*
G02*
X108199000Y-106831500I0J250000D01*
G01*
X108199000Y-105256500D01*
G75*
G02*
X108449000Y-105006500I250000J0D01*
G01*
X110499000Y-105006500D01*
G75*
G02*
X110749000Y-105256500I0J-250000D01*
G01*
X110749000Y-106831500D01*
G75*
G02*
X110499000Y-107081500I-250000J0D01*
G01*
G37*
%TD.AperFunction*%
%TA.AperFunction,SMDPad,CuDef*%
G36*
G01*
X119135000Y-121885000D02*
X117085000Y-121885000D01*
G75*
G02*
X116835000Y-121635000I0J250000D01*
G01*
X116835000Y-120060000D01*
G75*
G02*
X117085000Y-119810000I250000J0D01*
G01*
X119135000Y-119810000D01*
G75*
G02*
X119385000Y-120060000I0J-250000D01*
G01*
X119385000Y-121635000D01*
G75*
G02*
X119135000Y-121885000I-250000J0D01*
G01*
G37*
%TD.AperFunction*%
%TA.AperFunction,SMDPad,CuDef*%
G36*
G01*
X119135000Y-115660000D02*
X117085000Y-115660000D01*
G75*
G02*
X116835000Y-115410000I0J250000D01*
G01*
X116835000Y-113835000D01*
G75*
G02*
X117085000Y-113585000I250000J0D01*
G01*
X119135000Y-113585000D01*
G75*
G02*
X119385000Y-113835000I0J-250000D01*
G01*
X119385000Y-115410000D01*
G75*
G02*
X119135000Y-115660000I-250000J0D01*
G01*
G37*
%TD.AperFunction*%
%TA.AperFunction,SMDPad,CuDef*%
G36*
G01*
X134375000Y-116295000D02*
X132325000Y-116295000D01*
G75*
G02*
X132075000Y-116045000I0J250000D01*
G01*
X132075000Y-114470000D01*
G75*
G02*
X132325000Y-114220000I250000J0D01*
G01*
X134375000Y-114220000D01*
G75*
G02*
X134625000Y-114470000I0J-250000D01*
G01*
X134625000Y-116045000D01*
G75*
G02*
X134375000Y-116295000I-250000J0D01*
G01*
G37*
%TD.AperFunction*%
%TA.AperFunction,SMDPad,CuDef*%
G36*
G01*
X134375000Y-122520000D02*
X132325000Y-122520000D01*
G75*
G02*
X132075000Y-122270000I0J250000D01*
G01*
X132075000Y-120695000D01*
G75*
G02*
X132325000Y-120445000I250000J0D01*
G01*
X134375000Y-120445000D01*
G75*
G02*
X134625000Y-120695000I0J-250000D01*
G01*
X134625000Y-122270000D01*
G75*
G02*
X134375000Y-122520000I-250000J0D01*
G01*
G37*
%TD.AperFunction*%
%TA.AperFunction,SMDPad,CuDef*%
G36*
G01*
X125456500Y-106181000D02*
X125456500Y-104131000D01*
G75*
G02*
X125706500Y-103881000I250000J0D01*
G01*
X127281500Y-103881000D01*
G75*
G02*
X127531500Y-104131000I0J-250000D01*
G01*
X127531500Y-106181000D01*
G75*
G02*
X127281500Y-106431000I-250000J0D01*
G01*
X125706500Y-106431000D01*
G75*
G02*
X125456500Y-106181000I0J250000D01*
G01*
G37*
%TD.AperFunction*%
%TA.AperFunction,SMDPad,CuDef*%
G36*
G01*
X119231500Y-106181000D02*
X119231500Y-104131000D01*
G75*
G02*
X119481500Y-103881000I250000J0D01*
G01*
X121056500Y-103881000D01*
G75*
G02*
X121306500Y-104131000I0J-250000D01*
G01*
X121306500Y-106181000D01*
G75*
G02*
X121056500Y-106431000I-250000J0D01*
G01*
X119481500Y-106431000D01*
G75*
G02*
X119231500Y-106181000I0J250000D01*
G01*
G37*
%TD.AperFunction*%
D32*
X183005501Y-35558501D03*
X188955501Y-35558501D03*
X194905501Y-35558501D03*
D33*
X42926000Y-105727500D03*
X42926000Y-123126500D03*
X42926000Y-58864500D03*
X42926000Y-41656000D03*
D34*
X38100000Y-58864500D03*
X47752000Y-58864500D03*
X47752000Y-41656000D03*
X38100000Y-41656000D03*
X47752000Y-105791000D03*
X38163500Y-105791000D03*
X47815500Y-123126500D03*
X38100000Y-123126500D03*
D35*
X136144000Y-106489500D03*
D33*
X78676500Y-53149500D03*
X78740000Y-111569500D03*
D34*
X118745000Y-70993000D03*
X139065000Y-71120000D03*
D35*
X117792500Y-107251500D03*
X136906000Y-100266500D03*
X131699000Y-79311500D03*
X129476500Y-94551500D03*
X102362000Y-83883500D03*
X97917000Y-54356000D03*
X124206000Y-57785000D03*
X89535000Y-95694500D03*
X106997500Y-76073000D03*
X101409500Y-116205000D03*
X106680000Y-110934500D03*
X72453500Y-84455000D03*
X83415000Y-94210000D03*
X83439000Y-69146999D03*
X83415000Y-86233000D03*
X83439000Y-77470000D03*
X85852000Y-108077000D03*
X64325500Y-81661000D03*
X74422000Y-80645000D03*
X125565000Y-102324000D03*
X136969500Y-97409000D03*
X123507500Y-96882930D03*
X129177070Y-96882930D03*
X108648500Y-82931000D03*
X128480000Y-113684500D03*
X72517000Y-79057500D03*
X113474500Y-113919000D03*
X119951500Y-108839000D03*
X102743000Y-64389000D03*
X101282500Y-57785000D03*
X93027500Y-77343000D03*
X97152316Y-73027684D03*
X70866000Y-110998000D03*
X73660000Y-63055500D03*
X97345500Y-99377500D03*
X95758000Y-118745000D03*
X97806817Y-70722183D03*
X107950000Y-66675000D03*
X131127500Y-61595000D03*
X133604000Y-55245000D03*
X132016500Y-50355500D03*
X96837500Y-68135500D03*
X100012500Y-59944000D03*
X120713500Y-117602000D03*
X124800500Y-113728500D03*
D36*
X132143500Y-93111500D02*
X132143500Y-93599000D01*
X132143500Y-91761716D02*
X132143500Y-93111500D01*
X136969500Y-86935716D02*
X132143500Y-91761716D01*
X136969500Y-85153500D02*
X136969500Y-86935716D01*
X135066000Y-103983000D02*
X134366000Y-103983000D01*
X138969501Y-101163001D02*
X136149502Y-103983000D01*
X136149502Y-103983000D02*
X135066000Y-103983000D01*
X138969501Y-92753501D02*
X138969501Y-101163001D01*
X136969500Y-90753500D02*
X138969501Y-92753501D01*
X134851527Y-104468527D02*
X134851527Y-105197027D01*
X134366000Y-103983000D02*
X134851527Y-104468527D01*
X134851527Y-105197027D02*
X136144000Y-106489500D01*
X136144000Y-106489500D02*
X136207500Y-106553000D01*
X116776500Y-89359500D02*
X117015500Y-89359500D01*
X119127500Y-83627500D02*
X118745000Y-84010000D01*
X116776500Y-85978500D02*
X118745000Y-84010000D01*
X116776500Y-89359500D02*
X116776500Y-85978500D01*
X116776500Y-84969000D02*
X116776500Y-85978500D01*
X117919500Y-83826000D02*
X116776500Y-84969000D01*
X117919500Y-81026000D02*
X117919500Y-83826000D01*
X117919500Y-81470500D02*
X120078500Y-83629500D01*
X117919500Y-81026000D02*
X117919500Y-81470500D01*
X129095500Y-83627500D02*
X120078500Y-83629500D01*
X120078500Y-83629500D02*
X119127500Y-83627500D01*
D37*
X119075000Y-63095000D02*
X118745000Y-62765000D01*
D38*
X76073000Y-114236500D02*
X78740000Y-111569500D01*
X76073000Y-117538500D02*
X76073000Y-114236500D01*
X76009500Y-50482500D02*
X78676500Y-53149500D01*
X76009500Y-46926500D02*
X76009500Y-50482500D01*
D36*
X80518000Y-54991000D02*
X78676500Y-53149500D01*
X91455000Y-54991000D02*
X80518000Y-54991000D01*
X115992027Y-108035973D02*
X117008027Y-108035973D01*
X115506500Y-108521500D02*
X115992027Y-108035973D01*
X117008027Y-108035973D02*
X117792500Y-107251500D01*
X117792500Y-107251500D02*
X117792500Y-107251500D01*
X119571000Y-75184000D02*
X118745000Y-76010000D01*
X119442000Y-75313000D02*
X118745000Y-76010000D01*
X129095500Y-75313000D02*
X119442000Y-75313000D01*
X141732000Y-68453000D02*
X139065000Y-71120000D01*
X141732000Y-64008000D02*
X141732000Y-68453000D01*
X119329000Y-63349000D02*
X118745000Y-62765000D01*
X133845556Y-100266500D02*
X134429500Y-100266500D01*
X132736056Y-99157000D02*
X133845556Y-100266500D01*
X132080000Y-99157000D02*
X132736056Y-99157000D01*
X134429500Y-102044500D02*
X134366000Y-102108000D01*
X134429500Y-100266500D02*
X134429500Y-102044500D01*
X134429500Y-100266500D02*
X135129500Y-100266500D01*
X135129500Y-100266500D02*
X136906000Y-100266500D01*
X136906000Y-100266500D02*
X136906000Y-100266500D01*
X141064999Y-73119999D02*
X139065000Y-71120000D01*
X141064999Y-106564501D02*
X141064999Y-73119999D01*
X138346000Y-109283500D02*
X141064999Y-106564501D01*
X137858500Y-109283500D02*
X138346000Y-109283500D01*
X84455000Y-81026000D02*
X85344000Y-81915000D01*
X82105500Y-81026000D02*
X84455000Y-81026000D01*
D39*
X118745000Y-54991000D02*
X118554500Y-54800500D01*
X118745000Y-75200500D02*
X117919500Y-76026000D01*
X118745000Y-70993000D02*
X118745000Y-75200500D01*
D36*
X121182000Y-63920500D02*
X118745000Y-66357500D01*
X121182000Y-63349000D02*
X121182000Y-63920500D01*
D39*
X118745000Y-70993000D02*
X118745000Y-66357500D01*
D36*
X121182000Y-63349000D02*
X119329000Y-63349000D01*
X121182000Y-63079500D02*
X118745000Y-60642500D01*
D39*
X118745000Y-66357500D02*
X118745000Y-60642500D01*
D36*
X121182000Y-63349000D02*
X121182000Y-63079500D01*
D39*
X118745000Y-60642500D02*
X118745000Y-54991000D01*
D36*
X122555000Y-64452500D02*
X121182000Y-63079500D01*
X125285500Y-64452500D02*
X122555000Y-64452500D01*
D37*
X127952500Y-64452500D02*
X125285500Y-64452500D01*
D36*
X131699000Y-79311500D02*
X131699000Y-68389500D01*
X135613990Y-64474510D02*
X135613990Y-58505510D01*
X131699000Y-68389500D02*
X135613990Y-64474510D01*
X135542500Y-58674000D02*
X139035000Y-55181500D01*
X139035000Y-55181500D02*
X139954000Y-55181500D01*
D37*
X139954000Y-52895500D02*
X139954000Y-55181500D01*
X139954000Y-48895000D02*
X139954000Y-55181500D01*
D36*
X129262000Y-65952500D02*
X131699000Y-68389500D01*
X128099000Y-65952500D02*
X129262000Y-65952500D01*
D37*
X127127000Y-95333500D02*
X126404500Y-96056000D01*
X126404500Y-94702500D02*
X127127000Y-93980000D01*
X127127000Y-87947500D02*
X127127000Y-93980000D01*
X126404500Y-98723000D02*
X126404500Y-94702500D01*
X127127000Y-94551500D02*
X127127000Y-95333500D01*
D36*
X127127000Y-94551500D02*
X129476500Y-94551500D01*
D37*
X127127000Y-93980000D02*
X127127000Y-94551500D01*
D36*
X129476500Y-94551500D02*
X129476500Y-94551500D01*
X77533500Y-99695000D02*
X85090000Y-99695000D01*
X76009500Y-101219000D02*
X77533500Y-99695000D01*
X107628000Y-91884500D02*
X106586500Y-91884500D01*
X106586500Y-93478500D02*
X104140000Y-95925000D01*
X106586500Y-91884500D02*
X106586500Y-93478500D01*
X102362000Y-70294500D02*
X102362000Y-83883500D01*
X97155000Y-65087500D02*
X102362000Y-70294500D01*
X97155000Y-60706500D02*
X97155000Y-65087500D01*
X97814000Y-60047500D02*
X97155000Y-60706500D01*
X97814000Y-59797500D02*
X97814000Y-60047500D01*
X97814000Y-57380000D02*
X97917000Y-57277000D01*
X97814000Y-59797500D02*
X97814000Y-57380000D01*
X97917000Y-57277000D02*
X97917000Y-54356000D01*
X97917000Y-54356000D02*
X97917000Y-54356000D01*
X106586500Y-92926000D02*
X107628000Y-91884500D01*
X106586500Y-93478500D02*
X106586500Y-92926000D01*
D37*
X100380800Y-63817500D02*
X97713800Y-63817500D01*
D36*
X132778500Y-57785000D02*
X133667500Y-58674000D01*
X124206000Y-57785000D02*
X132778500Y-57785000D01*
D37*
X128460500Y-55181500D02*
X128460500Y-59182000D01*
D36*
X108946500Y-90566000D02*
X107628000Y-91884500D01*
X108946500Y-88622000D02*
X108946500Y-90566000D01*
X79895000Y-102933500D02*
X81216500Y-102933500D01*
X76009500Y-106819000D02*
X79895000Y-102933500D01*
X81915000Y-102235000D02*
X85090000Y-102235000D01*
X81216500Y-102933500D02*
X81915000Y-102235000D01*
X91149500Y-97255000D02*
X91249500Y-97255000D01*
X85090000Y-102235000D02*
X86169500Y-102235000D01*
X86169500Y-102235000D02*
X91149500Y-97255000D01*
X91249500Y-96455000D02*
X90489000Y-95694500D01*
X91249500Y-97155000D02*
X91249500Y-96455000D01*
X90489000Y-95694500D02*
X89535000Y-95694500D01*
X89535000Y-95694500D02*
X89535000Y-95694500D01*
X105062500Y-74138000D02*
X105062500Y-66865500D01*
X106997500Y-76073000D02*
X105062500Y-74138000D01*
X105062500Y-64291000D02*
X105009500Y-64238000D01*
X105062500Y-66865500D02*
X105062500Y-64291000D01*
X106513499Y-62317499D02*
X100527300Y-62317499D01*
X106743500Y-62547500D02*
X106513499Y-62317499D01*
X105062500Y-62895000D02*
X105410000Y-62547500D01*
X105062500Y-64291000D02*
X105062500Y-62895000D01*
D37*
X109410500Y-62547500D02*
X105410000Y-62547500D01*
D36*
X99060000Y-116235000D02*
X98585500Y-115760500D01*
X99060000Y-118237000D02*
X99060000Y-116235000D01*
X98585500Y-115760500D02*
X100965000Y-115760500D01*
X100965000Y-115760500D02*
X101409500Y-116205000D01*
X101409500Y-116205000D02*
X101409500Y-116205000D01*
X108452000Y-110934500D02*
X109474000Y-111956500D01*
X106680000Y-110934500D02*
X108452000Y-110934500D01*
X83415000Y-94210000D02*
X83415000Y-94210000D01*
X83688499Y-69146999D02*
X83688499Y-69146999D01*
D40*
X83439000Y-86209000D02*
X83415000Y-86233000D01*
D36*
X87266213Y-108077000D02*
X88155213Y-108966000D01*
X85852000Y-108077000D02*
X87266213Y-108077000D01*
X88155213Y-108966000D02*
X96139000Y-108966000D01*
X96139000Y-108966000D02*
X98933000Y-106172000D01*
X99117500Y-106356500D02*
X109474000Y-106356500D01*
X98933000Y-106172000D02*
X99117500Y-106356500D01*
X109912500Y-105918000D02*
X109474000Y-106356500D01*
X110801500Y-105029000D02*
X109474000Y-106356500D01*
X114203000Y-105029000D02*
X110801500Y-105029000D01*
D39*
X69765000Y-80539500D02*
X69786500Y-80518000D01*
X65468500Y-80539500D02*
X69765000Y-80539500D01*
X65405000Y-82846000D02*
X69786500Y-82846000D01*
X65468500Y-82782500D02*
X65405000Y-82846000D01*
X65468500Y-80539500D02*
X65468500Y-82782500D01*
X69786500Y-80518000D02*
X69786500Y-82846000D01*
X64325500Y-86143990D02*
X64452500Y-86270990D01*
X64325500Y-81661000D02*
X64325500Y-86143990D01*
X75093974Y-77647020D02*
X83382474Y-77647020D01*
X74053464Y-76606510D02*
X75093974Y-77647020D01*
X64325500Y-76771500D02*
X64490490Y-76606510D01*
X64389000Y-76200000D02*
X73507474Y-76200000D01*
X64325500Y-81661000D02*
X64325500Y-76771500D01*
X64325500Y-86487000D02*
X64680990Y-86842490D01*
X64325500Y-86143990D02*
X64325500Y-86487000D01*
X64643000Y-87249000D02*
X73660000Y-87249000D01*
X74983753Y-86001227D02*
X83183227Y-86001227D01*
X74142490Y-86842490D02*
X74983753Y-86001227D01*
D40*
X68961000Y-79333000D02*
X64706500Y-79333000D01*
X68897500Y-84116000D02*
X64706500Y-84116000D01*
D36*
X76992000Y-80645000D02*
X78262000Y-81915000D01*
X74422000Y-80645000D02*
X76992000Y-80645000D01*
X72453500Y-84455000D02*
X72453500Y-82740500D01*
X77436500Y-82740500D02*
X78262000Y-81915000D01*
X72453500Y-82740500D02*
X77436500Y-82740500D01*
X83018501Y-68726500D02*
X83439000Y-69146999D01*
X80430500Y-68726500D02*
X83018501Y-68726500D01*
X82243490Y-95381510D02*
X83415000Y-94210000D01*
X77542510Y-95381510D02*
X82243490Y-95381510D01*
X76942500Y-94781500D02*
X77542510Y-95381510D01*
X81123000Y-82901000D02*
X80137000Y-81915000D01*
X82105500Y-82901000D02*
X81123000Y-82901000D01*
D41*
X85954999Y-124230001D02*
X96114999Y-124230001D01*
X84455000Y-125730000D02*
X85954999Y-124230001D01*
X117310000Y-121335000D02*
X118110000Y-120535000D01*
X96114999Y-124230001D02*
X99010000Y-121335000D01*
X118745000Y-121170000D02*
X118110000Y-120535000D01*
X133350000Y-121170000D02*
X118745000Y-121170000D01*
D36*
X137130000Y-117390000D02*
X137130000Y-111760000D01*
X133350000Y-121170000D02*
X137130000Y-117390000D01*
X137130000Y-111060000D02*
X137130000Y-111760000D01*
D41*
X76264500Y-125730000D02*
X76073000Y-125538500D01*
X84455000Y-125730000D02*
X76264500Y-125730000D01*
D36*
X68810500Y-124309500D02*
X70040500Y-125539500D01*
X68810500Y-109287000D02*
X68810500Y-124309500D01*
X76073000Y-125538500D02*
X70040500Y-125539500D01*
X70040500Y-125539500D02*
X67245500Y-125538500D01*
X70643501Y-107346999D02*
X68707000Y-109283500D01*
X68707000Y-109283500D02*
X68810500Y-109287000D01*
X70643501Y-99439499D02*
X71404000Y-98679000D01*
X70643501Y-107346999D02*
X70643501Y-99439499D01*
X71404000Y-98679000D02*
X71404000Y-95821500D01*
X111125000Y-121348500D02*
X110871000Y-121348500D01*
X111398500Y-121075000D02*
X111125000Y-121348500D01*
D41*
X110871000Y-121348500D02*
X117310000Y-121335000D01*
D36*
X137130000Y-111176056D02*
X137130000Y-111760000D01*
X135983500Y-110029556D02*
X137130000Y-111176056D01*
X135983500Y-109283500D02*
X135983500Y-110029556D01*
X131286000Y-121170000D02*
X128480000Y-118364000D01*
X133350000Y-121170000D02*
X131286000Y-121170000D01*
X62438500Y-109283500D02*
X60555500Y-111166500D01*
X68707000Y-109283500D02*
X62438500Y-109283500D01*
X63582500Y-125538500D02*
X60555500Y-128565500D01*
X67245500Y-125538500D02*
X63582500Y-125538500D01*
X108248000Y-120089172D02*
X106993086Y-121344086D01*
X108248000Y-118594000D02*
X108248000Y-120089172D01*
D41*
X99010000Y-121335000D02*
X106993086Y-121344086D01*
X106993086Y-121344086D02*
X110871000Y-121348500D01*
D36*
X72356500Y-66230500D02*
X72356500Y-68897500D01*
D41*
X77471000Y-37465000D02*
X76009500Y-38926500D01*
X85090000Y-37465000D02*
X77471000Y-37465000D01*
X87211320Y-37465000D02*
X93751820Y-44005500D01*
X85090000Y-37465000D02*
X87211320Y-37465000D01*
X93751820Y-44005500D02*
X107886500Y-44005500D01*
D36*
X76009500Y-38926500D02*
X74548000Y-38926500D01*
X74548000Y-38926500D02*
X71691500Y-41783000D01*
X71691500Y-41783000D02*
X71691500Y-52509500D01*
X93330000Y-44427320D02*
X93751820Y-44005500D01*
X93330000Y-54991000D02*
X93330000Y-44427320D01*
X71659999Y-52541001D02*
X71691500Y-52509500D01*
X72356500Y-64712002D02*
X71659999Y-64015501D01*
X72356500Y-66230500D02*
X72356500Y-64712002D01*
X65762500Y-41783000D02*
X60619000Y-46926500D01*
X71691500Y-41783000D02*
X65762500Y-41783000D01*
X60619000Y-63777500D02*
X71659999Y-52736501D01*
X60619000Y-64303500D02*
X60619000Y-63777500D01*
X71659999Y-64015501D02*
X71659999Y-52736501D01*
X71659999Y-52736501D02*
X71659999Y-52541001D01*
X117886000Y-114711000D02*
X118110000Y-114935000D01*
X117886000Y-111188500D02*
X117886000Y-114711000D01*
X116298500Y-111188500D02*
X115506500Y-110396500D01*
X117886000Y-111188500D02*
X116298500Y-111188500D01*
X111188500Y-44132500D02*
X112612500Y-44132500D01*
X112612500Y-44132500D02*
X114998500Y-44132500D01*
X114998500Y-44132500D02*
X114998500Y-44323000D01*
X133985000Y-47807500D02*
X121202500Y-47807500D01*
X141732000Y-62133000D02*
X141907500Y-61957500D01*
X141907500Y-59690000D02*
X142057500Y-59540000D01*
X141907500Y-61957500D02*
X141907500Y-59690000D01*
X142057500Y-59540000D02*
X142057500Y-57150000D01*
X133985000Y-47807500D02*
X135838500Y-47807500D01*
D39*
X118554500Y-47879000D02*
X114998500Y-44323000D01*
X118554500Y-49800500D02*
X118554500Y-47879000D01*
X120547500Y-47807500D02*
X121202500Y-47807500D01*
X118554500Y-49800500D02*
X120547500Y-47807500D01*
D36*
X142057500Y-53645500D02*
X141454000Y-53042000D01*
X142057500Y-57150000D02*
X142057500Y-53645500D01*
X135191500Y-47909000D02*
X136110500Y-46990000D01*
X136110500Y-46990000D02*
X142176500Y-46990000D01*
X142057500Y-52633500D02*
X142811500Y-51879500D01*
X142057500Y-53645500D02*
X142057500Y-52633500D01*
X142811500Y-47625000D02*
X142176500Y-46990000D01*
X142811500Y-51879500D02*
X142811500Y-47625000D01*
X129544500Y-110998000D02*
X130008500Y-111462000D01*
X126682500Y-110998000D02*
X129544500Y-110998000D01*
D37*
X130008500Y-111462000D02*
X130008500Y-112696998D01*
D36*
X132569002Y-115257500D02*
X130766251Y-113454749D01*
D37*
X130008500Y-112696998D02*
X130766251Y-113454749D01*
D36*
X133350000Y-115257500D02*
X132569002Y-115257500D01*
X125565000Y-104038500D02*
X125565000Y-102324000D01*
X126365000Y-104838500D02*
X125565000Y-104038500D01*
X125565000Y-102324000D02*
X125565000Y-102324000D01*
X134493000Y-97282000D02*
X134493000Y-96583500D01*
X136969500Y-97409000D02*
X134366000Y-97409000D01*
X134366000Y-97409000D02*
X134493000Y-97282000D01*
X134429500Y-98304846D02*
X134472827Y-98348173D01*
X134429500Y-97134500D02*
X134429500Y-98304846D01*
X134493000Y-96583500D02*
X134493000Y-97071000D01*
X134493000Y-97071000D02*
X134429500Y-97134500D01*
X118857000Y-102930500D02*
X120765000Y-104838500D01*
X118857000Y-101663500D02*
X118857000Y-102930500D01*
X132843500Y-95474000D02*
X132143500Y-95474000D01*
X133027500Y-95474000D02*
X132843500Y-95474000D01*
X133793000Y-94708500D02*
X133027500Y-95474000D01*
X134493000Y-94708500D02*
X133793000Y-94708500D01*
X132143500Y-95474000D02*
X132143500Y-96647000D01*
X132080000Y-96710500D02*
X132080000Y-97282000D01*
X132143500Y-96647000D02*
X132080000Y-96710500D01*
D37*
X131977000Y-97385000D02*
X132080000Y-97282000D01*
D36*
X124904500Y-98279930D02*
X123507500Y-96882930D01*
X124904500Y-98869500D02*
X124904500Y-98279930D01*
X123507500Y-96882930D02*
X123507500Y-96882930D01*
X131680930Y-96882930D02*
X132080000Y-97282000D01*
X129177070Y-96882930D02*
X131680930Y-96882930D01*
X129095500Y-80327500D02*
X129095500Y-78613000D01*
X126238000Y-78612000D02*
X126238000Y-80391000D01*
X111918501Y-74834999D02*
X106172000Y-80581500D01*
X112172501Y-54344501D02*
X112172501Y-74834999D01*
X110721500Y-52893500D02*
X112172501Y-54344501D01*
X112172501Y-74834999D02*
X111918501Y-74834999D01*
X108521500Y-52893500D02*
X110721500Y-52893500D01*
X104243000Y-48004570D02*
X104243000Y-47415000D01*
X108521500Y-52283070D02*
X104243000Y-48004570D01*
X108521500Y-52893500D02*
X108521500Y-52283070D01*
X107124500Y-48196500D02*
X108521500Y-49593500D01*
X107124500Y-47752000D02*
X107124500Y-48196500D01*
X93124500Y-99280500D02*
X92710000Y-99695000D01*
X93124500Y-97155000D02*
X93124500Y-99280500D01*
X87461510Y-96243990D02*
X86550500Y-97155000D01*
X87461510Y-94402490D02*
X87461510Y-96243990D01*
X88169501Y-93694499D02*
X87461510Y-94402490D01*
X91034597Y-93694499D02*
X88169501Y-93694499D01*
X93124500Y-95784402D02*
X91034597Y-93694499D01*
X93124500Y-97155000D02*
X93124500Y-95784402D01*
X83250500Y-97155000D02*
X83250500Y-97005000D01*
X83250500Y-97155000D02*
X83629500Y-97155000D01*
X83629500Y-97155000D02*
X85661500Y-95123000D01*
X85661500Y-95123000D02*
X85661500Y-93091000D01*
X85661500Y-93091000D02*
X83780500Y-91210000D01*
X81827500Y-91210000D02*
X79756000Y-93281500D01*
X83780500Y-91210000D02*
X81827500Y-91210000D01*
D37*
X77089000Y-93281500D02*
X81089500Y-93281500D01*
D36*
X86614000Y-63078000D02*
X86614000Y-65278000D01*
X86614000Y-62016000D02*
X86614000Y-63078000D01*
X90210000Y-58420000D02*
X86614000Y-62016000D01*
X92710000Y-58420000D02*
X90210000Y-58420000D01*
X96013990Y-57616010D02*
X96013990Y-57277000D01*
X92710000Y-58420000D02*
X95210000Y-58420000D01*
X95210000Y-58420000D02*
X96013990Y-57616010D01*
X79565500Y-65278000D02*
X78930500Y-65913000D01*
X83314000Y-65278000D02*
X79565500Y-65278000D01*
D37*
X78930500Y-68580000D02*
X78930500Y-65913000D01*
X78930500Y-64579500D02*
X78930500Y-65913000D01*
D36*
X104648000Y-87757000D02*
X104584500Y-87820500D01*
X104648000Y-85788500D02*
X104648000Y-87757000D01*
X104297000Y-82137500D02*
X104648000Y-82488500D01*
X104297000Y-80581500D02*
X104297000Y-82137500D01*
X104648000Y-82488500D02*
X105285000Y-82488500D01*
X105285000Y-82488500D02*
X105727500Y-82931000D01*
X105727500Y-82931000D02*
X108648500Y-82931000D01*
X108648500Y-82931000D02*
X108648500Y-82931000D01*
X128480000Y-115824000D02*
X128480000Y-113684500D01*
X128480000Y-113684500D02*
X128480000Y-113684500D01*
D41*
X112395000Y-125730000D02*
X107055000Y-125730000D01*
X113030000Y-37465000D02*
X107690000Y-37465000D01*
D36*
X72421999Y-79684999D02*
X72421999Y-80865500D01*
X72517000Y-79057500D02*
X72517000Y-79589998D01*
X72517000Y-79589998D02*
X72421999Y-79684999D01*
D40*
X68580000Y-65341500D02*
X67500500Y-64262000D01*
X68580000Y-69596000D02*
X68580000Y-65341500D01*
D36*
X104848500Y-100925000D02*
X104140000Y-100925000D01*
X113855500Y-91918000D02*
X113855500Y-94043500D01*
X106974000Y-100925000D02*
X104140000Y-100925000D01*
X113855500Y-94043500D02*
X106974000Y-100925000D01*
D37*
X129034680Y-98869500D02*
X127904500Y-98869500D01*
X131257180Y-101092000D02*
X129034680Y-98869500D01*
X132080000Y-101092000D02*
X131257180Y-101092000D01*
X129928527Y-104924473D02*
X129928527Y-104640473D01*
X129443000Y-105410000D02*
X129928527Y-104924473D01*
X129928527Y-104640473D02*
X130492500Y-104076500D01*
X130492500Y-103060500D02*
X130556000Y-102997000D01*
X130492500Y-104076500D02*
X130492500Y-103060500D01*
D36*
X128905000Y-102967000D02*
X130556000Y-102997000D01*
X130556000Y-102997000D02*
X132080000Y-102967000D01*
D37*
X128736973Y-100606473D02*
X122767973Y-100606473D01*
X129222500Y-101092000D02*
X128736973Y-100606473D01*
X122150000Y-99988500D02*
X122150000Y-98889000D01*
X122767973Y-100606473D02*
X122150000Y-99988500D01*
D36*
X134870346Y-111462000D02*
X135211673Y-111803327D01*
X133008500Y-111462000D02*
X134870346Y-111462000D01*
X113474500Y-113919000D02*
X113474500Y-113919000D01*
X119951500Y-110998000D02*
X119761000Y-111188500D01*
X119951500Y-108839000D02*
X119951500Y-110998000D01*
X124617000Y-111188500D02*
X124807500Y-110998000D01*
X119761000Y-111188500D02*
X124617000Y-111188500D01*
X113474500Y-114681000D02*
X111061500Y-117094000D01*
X113474500Y-113919000D02*
X113474500Y-114681000D01*
X113474500Y-113919000D02*
X113474500Y-110998000D01*
X113474500Y-110998000D02*
X110998000Y-108521500D01*
X101223500Y-108521500D02*
X99866000Y-109879000D01*
X110998000Y-108521500D02*
X101223500Y-108521500D01*
D37*
X108394500Y-117094000D02*
X112395000Y-117094000D01*
D36*
X128631500Y-92094500D02*
X134683500Y-86042500D01*
X139546973Y-60175527D02*
X140032500Y-59690000D01*
X134683500Y-86042500D02*
X134683500Y-82359500D01*
X128627000Y-92094500D02*
X128631500Y-92094500D01*
X134683500Y-82359500D02*
X136017000Y-81026000D01*
X139546973Y-66198025D02*
X139546973Y-60175527D01*
X136017000Y-81026000D02*
X136017000Y-69727998D01*
X136017000Y-69727998D02*
X139546973Y-66198025D01*
X139695000Y-57150000D02*
X137414000Y-59431000D01*
X137414000Y-59431000D02*
X137414000Y-65785400D01*
X140182500Y-57150000D02*
X139695000Y-57150000D01*
X134112000Y-69087400D02*
X134112000Y-80385402D01*
X137414000Y-65785400D02*
X134112000Y-69087400D01*
X134112000Y-80385402D02*
X132016500Y-82480902D01*
X132016500Y-82480902D02*
X132016500Y-84899500D01*
X132016500Y-84899500D02*
X131191000Y-85725000D01*
X131191000Y-85725000D02*
X123190000Y-85725000D01*
X123190000Y-88242991D02*
X122892000Y-88242991D01*
X123190000Y-85725000D02*
X123190000Y-88242991D01*
X116078000Y-102567500D02*
X116982000Y-101663500D01*
X116078000Y-105029000D02*
X116078000Y-102567500D01*
X116982000Y-101663500D02*
X116982000Y-99997500D01*
X116776500Y-99792000D02*
X116776500Y-91234500D01*
X116982000Y-99997500D02*
X116776500Y-99792000D01*
X118090500Y-98889000D02*
X116982000Y-99997500D01*
X119150000Y-98889000D02*
X118090500Y-98889000D01*
X83016510Y-106833490D02*
X83016510Y-106855500D01*
X85090000Y-104775000D02*
X85075000Y-104775000D01*
X85075000Y-104775000D02*
X83016510Y-106833490D01*
X87590000Y-104775000D02*
X85090000Y-104775000D01*
X94954510Y-106911990D02*
X89726990Y-106911990D01*
X89726990Y-106911990D02*
X87590000Y-104775000D01*
X100266500Y-100696000D02*
X100266500Y-101600000D01*
X100266500Y-101600000D02*
X94954510Y-106911990D01*
X81216500Y-106758500D02*
X81119500Y-106855500D01*
X81216500Y-104808500D02*
X81216500Y-106758500D01*
X96520000Y-111823500D02*
X91708502Y-111823500D01*
X90820001Y-110934999D02*
X84645001Y-110934999D01*
X91708502Y-111823500D02*
X90820001Y-110934999D01*
X83419000Y-109855000D02*
X81216500Y-107652500D01*
X81216500Y-107652500D02*
X81216500Y-106758500D01*
X83565002Y-109855000D02*
X83419000Y-109855000D01*
X84645001Y-110934999D02*
X83565002Y-109855000D01*
D37*
X96964500Y-111379000D02*
X96520000Y-111823500D01*
X100012500Y-111379000D02*
X96964500Y-111379000D01*
X104013000Y-111379000D02*
X100012500Y-111379000D01*
D36*
X113855500Y-90043000D02*
X113155500Y-90043000D01*
X100281500Y-98821000D02*
X100677500Y-98425000D01*
X100266500Y-98821000D02*
X100281500Y-98821000D01*
X100677500Y-98425000D02*
X105727500Y-98425000D01*
X113855500Y-90043000D02*
X112649000Y-90043000D01*
X112649000Y-90043000D02*
X109791500Y-92900500D01*
X109791500Y-94361000D02*
X105727500Y-98425000D01*
X109791500Y-92900500D02*
X109791500Y-94361000D01*
X113855500Y-87884000D02*
X113093500Y-87122000D01*
X113855500Y-90043000D02*
X113855500Y-87884000D01*
X113093500Y-87122000D02*
X111760000Y-87122000D01*
D37*
X111760000Y-87122000D02*
X109093000Y-87122000D01*
D36*
X103842000Y-115623000D02*
X103852500Y-115633500D01*
X103852500Y-117822500D02*
X104140000Y-118110000D01*
X103852500Y-115633500D02*
X103852500Y-117822500D01*
X102179490Y-113960490D02*
X103852500Y-115633500D01*
X101006490Y-113960490D02*
X102179490Y-113960490D01*
X99925000Y-112879000D02*
X101006490Y-113960490D01*
X99866000Y-112879000D02*
X99925000Y-112879000D01*
X102743000Y-64389000D02*
X102743000Y-64389000D01*
X102075300Y-66865500D02*
X100527300Y-65317500D01*
X103187500Y-66865500D02*
X102075300Y-66865500D01*
X102743000Y-64389000D02*
X102743000Y-65722500D01*
X103187500Y-66167000D02*
X103187500Y-66865500D01*
X102743000Y-65722500D02*
X103187500Y-66167000D01*
X101282500Y-55181500D02*
X101155500Y-55054500D01*
X101282500Y-57785000D02*
X101282500Y-55181500D01*
D37*
X103822500Y-55054500D02*
X99822000Y-55054500D01*
D36*
X84418011Y-75147011D02*
X76129511Y-75147011D01*
X92710000Y-64772792D02*
X93154500Y-65217292D01*
X92710000Y-63500000D02*
X92710000Y-64772792D01*
X86995000Y-77724000D02*
X84418011Y-75147011D01*
X93154500Y-65217292D02*
X93154500Y-75501500D01*
X90678000Y-77978000D02*
X86995000Y-77978000D01*
X86995000Y-77978000D02*
X86995000Y-77724000D01*
X97282000Y-88582500D02*
X98806000Y-88582500D01*
X96329500Y-87630000D02*
X97282000Y-88582500D01*
X91948000Y-76708000D02*
X92392500Y-76708000D01*
X91948000Y-76708000D02*
X90678000Y-77978000D01*
X93154500Y-75501500D02*
X91948000Y-76708000D01*
X92392500Y-76708000D02*
X93027500Y-77343000D01*
X93027500Y-77343000D02*
X93027500Y-77343000D01*
X74159500Y-73194000D02*
X74168000Y-73185500D01*
X74653527Y-73671027D02*
X74168000Y-73185500D01*
X76129511Y-75147011D02*
X74653527Y-73671027D01*
X69308500Y-73185500D02*
X68961000Y-73533000D01*
X74168000Y-73185500D02*
X69308500Y-73185500D01*
X96329500Y-87011500D02*
X96329500Y-87630000D01*
X96344500Y-85625902D02*
X96344500Y-86296500D01*
X96344500Y-86296500D02*
X96344500Y-86996500D01*
X96344500Y-86996500D02*
X96329500Y-87011500D01*
X97152316Y-73027684D02*
X97152316Y-83441684D01*
X97152316Y-83441684D02*
X96266000Y-84328000D01*
X96344500Y-84406500D02*
X96344500Y-86296500D01*
X96266000Y-84328000D02*
X96344500Y-84406500D01*
X98806000Y-88582500D02*
X99758500Y-88582500D01*
X97758500Y-89059000D02*
X97282000Y-88582500D01*
X97758500Y-89659500D02*
X97758500Y-89059000D01*
X104086500Y-56672000D02*
X103969000Y-56554500D01*
X107251500Y-56672000D02*
X104086500Y-56672000D01*
X73279000Y-93472000D02*
X73787000Y-92964000D01*
X73279000Y-95821500D02*
X73279000Y-93472000D01*
X74487000Y-92964000D02*
X73787000Y-92964000D01*
X75669500Y-91781500D02*
X74487000Y-92964000D01*
X76942500Y-91781500D02*
X75669500Y-91781500D01*
X73025000Y-108839000D02*
X70866000Y-110998000D01*
X73279000Y-99379000D02*
X73279000Y-98679000D01*
X73279000Y-100131716D02*
X73279000Y-99379000D01*
X73025000Y-100385716D02*
X73279000Y-100131716D01*
X73025000Y-108839000D02*
X73025000Y-100385716D01*
X74231500Y-63627000D02*
X74231500Y-66230500D01*
X73660000Y-63055500D02*
X74231500Y-63627000D01*
X74231500Y-71247000D02*
X74168000Y-71310500D01*
X74231500Y-68897500D02*
X74231500Y-71247000D01*
X74402500Y-68726500D02*
X74231500Y-68897500D01*
X77430500Y-68726500D02*
X74402500Y-68726500D01*
X97345500Y-95991000D02*
X98552000Y-94784500D01*
X97345500Y-99377500D02*
X97345500Y-95991000D01*
X102108000Y-86360000D02*
X102108000Y-91228500D01*
X97345500Y-95271500D02*
X98234500Y-94382500D01*
X97345500Y-95991000D02*
X97345500Y-95271500D01*
X95758000Y-116713000D02*
X96710500Y-115760500D01*
X95758000Y-118745000D02*
X95758000Y-116713000D01*
X101049750Y-92286750D02*
X101049750Y-91905750D01*
X101049750Y-92286750D02*
X98552000Y-94784500D01*
X102108000Y-91228500D02*
X101049750Y-92286750D01*
X101049750Y-91905750D02*
X99949000Y-90805000D01*
X98283000Y-86360000D02*
X98219500Y-86296500D01*
X100233000Y-86360000D02*
X98283000Y-86360000D01*
X98219500Y-86296500D02*
X99137990Y-85378010D01*
X99137990Y-85378010D02*
X99137990Y-74002012D01*
X99152317Y-72067683D02*
X97806817Y-70722183D01*
X99137990Y-74002012D02*
X99152317Y-73987685D01*
X99152317Y-73987685D02*
X99152317Y-72067683D01*
X97806817Y-70722183D02*
X97760134Y-70675500D01*
X109557000Y-65068000D02*
X107950000Y-66675000D01*
X109557000Y-64047500D02*
X109557000Y-65068000D01*
X104711500Y-89822500D02*
X104584500Y-89695500D01*
X104711500Y-91884500D02*
X104711500Y-89822500D01*
X105128098Y-89822500D02*
X104711500Y-89822500D01*
X106743500Y-88207098D02*
X105128098Y-89822500D01*
X106743500Y-86271498D02*
X106743500Y-88207098D01*
X108946500Y-85622000D02*
X107392999Y-85621999D01*
X107392999Y-85621999D02*
X106743500Y-86271498D01*
X126960500Y-50252500D02*
X126682500Y-49974500D01*
X127302000Y-52705000D02*
X126960500Y-52363500D01*
X134175500Y-52705000D02*
X127302000Y-52705000D01*
X126960500Y-55035000D02*
X126960500Y-52363500D01*
X126960500Y-52363500D02*
X126960500Y-50252500D01*
X131508500Y-105489963D02*
X131428537Y-105410000D01*
X131508500Y-108648500D02*
X131508500Y-105489963D01*
D37*
X131508500Y-111315500D02*
X131508500Y-107315000D01*
D36*
X128099000Y-62952500D02*
X129770000Y-62952500D01*
X129770000Y-62952500D02*
X131127500Y-61595000D01*
X131127500Y-61595000D02*
X131127500Y-61595000D01*
X130170500Y-55245000D02*
X129960500Y-55035000D01*
X133604000Y-55245000D02*
X130170500Y-55245000D01*
X132588000Y-49784000D02*
X132016500Y-50355500D01*
X135191500Y-49784000D02*
X132588000Y-49784000D01*
X105767000Y-115594000D02*
X105727500Y-115633500D01*
X108248000Y-115594000D02*
X105767000Y-115594000D01*
X101120500Y-47292500D02*
X101243000Y-47415000D01*
X98425000Y-47292500D02*
X101120500Y-47292500D01*
X62241000Y-105716500D02*
X60555500Y-105716500D01*
X64706500Y-89916000D02*
X64706500Y-103251000D01*
X64706500Y-103251000D02*
X62241000Y-105716500D01*
X60619000Y-58853500D02*
X57859500Y-58853500D01*
X57859500Y-58853500D02*
X56642000Y-60071000D01*
X56642000Y-60071000D02*
X56642000Y-67056000D01*
X63119000Y-73533000D02*
X64706500Y-73533000D01*
X56642000Y-67056000D02*
X63119000Y-73533000D01*
X75722000Y-89154000D02*
X73787000Y-91089000D01*
X94545902Y-104775000D02*
X95186500Y-104134402D01*
X92710000Y-104775000D02*
X94545902Y-104775000D01*
X83566000Y-89154000D02*
X75722000Y-89154000D01*
X95186500Y-104134402D02*
X95186500Y-89901498D01*
X90820001Y-85534999D02*
X87185001Y-85534999D01*
X87185001Y-85534999D02*
X83566000Y-89154000D01*
X95027501Y-81327499D02*
X95027501Y-72548501D01*
X95027501Y-72548501D02*
X95027501Y-72294999D01*
X95027501Y-72548501D02*
X95027501Y-71786999D01*
X95027501Y-72548501D02*
X95027501Y-71342001D01*
X95027501Y-71342001D02*
X95027501Y-69945499D01*
X95027501Y-69945499D02*
X96139000Y-68834000D01*
X96139000Y-68834000D02*
X96837500Y-68135500D01*
X96837500Y-68135500D02*
X96837500Y-68135500D01*
X70070500Y-91089000D02*
X68897500Y-89916000D01*
X73787000Y-91089000D02*
X70070500Y-91089000D01*
X105854500Y-59944000D02*
X100012500Y-59944000D01*
X107251500Y-58547000D02*
X105854500Y-59944000D01*
X94114251Y-82240749D02*
X94114251Y-88829249D01*
X95027501Y-81327499D02*
X94114251Y-82240749D01*
X95186500Y-89901498D02*
X94114251Y-88829249D01*
X94114251Y-88829249D02*
X90820001Y-85534999D01*
X121916490Y-118169990D02*
X122980000Y-118169990D01*
X120713500Y-117602000D02*
X120713500Y-117602000D01*
X121348500Y-117602000D02*
X121916490Y-118169990D01*
X120713500Y-117602000D02*
X121348500Y-117602000D01*
X122980000Y-115549000D02*
X124800500Y-113728500D01*
X122980000Y-115824000D02*
X122980000Y-115549000D01*
X124800500Y-113728500D02*
X124800500Y-113728500D01*
X138117000Y-52705000D02*
X138454000Y-53042000D01*
X136050500Y-52705000D02*
X138117000Y-52705000D01*
D37*
X120650000Y-98742500D02*
X120650000Y-94742000D01*
X118745000Y-90043000D02*
X122745500Y-90043000D01*
D36*
X123443500Y-92094500D02*
X122892000Y-91543000D01*
X125627000Y-92094500D02*
X123443500Y-92094500D01*
X122892000Y-90189500D02*
X122745500Y-90043000D01*
X122892000Y-91543000D02*
X122892000Y-90189500D01*
X120650000Y-90614500D02*
X120078500Y-90043000D01*
X120650000Y-96075500D02*
X120650000Y-90614500D01*
X109557000Y-61047500D02*
X109557000Y-55645500D01*
X105522502Y-53554500D02*
X103969000Y-53554500D01*
X106661512Y-54693510D02*
X105522502Y-53554500D01*
X108605010Y-54693510D02*
X106661512Y-54693510D01*
X109557000Y-55645500D02*
X108605010Y-54693510D01*
X102743000Y-52328500D02*
X103969000Y-53554500D01*
X102743000Y-50228500D02*
X102743000Y-52328500D01*
D37*
X102743000Y-47561500D02*
X102743000Y-50228500D01*
M02*
