%TF.GenerationSoftware,KiCad,Pcbnew,5.1.6-c6e7f7d~87~ubuntu18.04.1*%
%TF.CreationDate,2021-08-18T14:30:57+12:00*%
%TF.ProjectId,Output Splitter,4f757470-7574-4205-9370-6c6974746572,rev?*%
%TF.SameCoordinates,Original*%
%TF.FileFunction,Legend,Bot*%
%TF.FilePolarity,Positive*%
%FSLAX46Y46*%
G04 Gerber Fmt 4.6, Leading zero omitted, Abs format (unit mm)*
G04 Created by KiCad (PCBNEW 5.1.6-c6e7f7d~87~ubuntu18.04.1) date 2021-08-18 14:30:57*
%MOMM*%
%LPD*%
G01*
G04 APERTURE LIST*
%ADD10C,0.150000*%
%ADD11C,0.120000*%
G04 APERTURE END LIST*
D10*
X104761904Y-52500000D02*
X104857142Y-52452380D01*
X105000000Y-52452380D01*
X105142857Y-52500000D01*
X105238095Y-52595238D01*
X105285714Y-52690476D01*
X105333333Y-52880952D01*
X105333333Y-53023809D01*
X105285714Y-53214285D01*
X105238095Y-53309523D01*
X105142857Y-53404761D01*
X105000000Y-53452380D01*
X104904761Y-53452380D01*
X104761904Y-53404761D01*
X104714285Y-53357142D01*
X104714285Y-53023809D01*
X104904761Y-53023809D01*
X104285714Y-53452380D02*
X104285714Y-52452380D01*
X103714285Y-53452380D01*
X103714285Y-52452380D01*
X103238095Y-53452380D02*
X103238095Y-52452380D01*
X103000000Y-52452380D01*
X102857142Y-52500000D01*
X102761904Y-52595238D01*
X102714285Y-52690476D01*
X102666666Y-52880952D01*
X102666666Y-53023809D01*
X102714285Y-53214285D01*
X102761904Y-53309523D01*
X102857142Y-53404761D01*
X103000000Y-53452380D01*
X103238095Y-53452380D01*
D11*
X102000000Y-60000000D02*
X104000000Y-60000000D01*
X102000000Y-45000000D02*
X102000000Y-60000000D01*
X104000000Y-45000000D02*
X102000000Y-45000000D01*
D10*
X149333333Y-42452380D02*
X149666666Y-41976190D01*
X149904761Y-42452380D02*
X149904761Y-41452380D01*
X149523809Y-41452380D01*
X149428571Y-41500000D01*
X149380952Y-41547619D01*
X149333333Y-41642857D01*
X149333333Y-41785714D01*
X149380952Y-41880952D01*
X149428571Y-41928571D01*
X149523809Y-41976190D01*
X149904761Y-41976190D01*
X148904761Y-42452380D02*
X148904761Y-41452380D01*
X147904761Y-41500000D02*
X148000000Y-41452380D01*
X148142857Y-41452380D01*
X148285714Y-41500000D01*
X148380952Y-41595238D01*
X148428571Y-41690476D01*
X148476190Y-41880952D01*
X148476190Y-42023809D01*
X148428571Y-42214285D01*
X148380952Y-42309523D01*
X148285714Y-42404761D01*
X148142857Y-42452380D01*
X148047619Y-42452380D01*
X147904761Y-42404761D01*
X147857142Y-42357142D01*
X147857142Y-42023809D01*
X148047619Y-42023809D01*
X147428571Y-42452380D02*
X147428571Y-41452380D01*
X147428571Y-41928571D02*
X146857142Y-41928571D01*
X146857142Y-42452380D02*
X146857142Y-41452380D01*
X146523809Y-41452380D02*
X145952380Y-41452380D01*
X146238095Y-42452380D02*
X146238095Y-41452380D01*
D11*
X145000000Y-49000000D02*
X144000000Y-49000000D01*
X145000000Y-35000000D02*
X145000000Y-49000000D01*
X144000000Y-35000000D02*
X145000000Y-35000000D01*
D10*
X148952380Y-63452380D02*
X149428571Y-63452380D01*
X149428571Y-62452380D01*
X148619047Y-62928571D02*
X148285714Y-62928571D01*
X148142857Y-63452380D02*
X148619047Y-63452380D01*
X148619047Y-62452380D01*
X148142857Y-62452380D01*
X147380952Y-62928571D02*
X147714285Y-62928571D01*
X147714285Y-63452380D02*
X147714285Y-62452380D01*
X147238095Y-62452380D01*
X147000000Y-62452380D02*
X146428571Y-62452380D01*
X146714285Y-63452380D02*
X146714285Y-62452380D01*
D11*
X145000000Y-70000000D02*
X144000000Y-70000000D01*
X145000000Y-56000000D02*
X145000000Y-70000000D01*
X144000000Y-56000000D02*
X145000000Y-56000000D01*
M02*
