%TF.GenerationSoftware,KiCad,Pcbnew,5.1.5-52549c5~84~ubuntu18.04.1*%
%TF.CreationDate,2020-04-30T17:46:21+12:00*%
%TF.ProjectId,Trimodal SMD Cheap,5472696d-6f64-4616-9c20-534d44204368,rev?*%
%TF.SameCoordinates,Original*%
%TF.FileFunction,Legend,Top*%
%TF.FilePolarity,Positive*%
%FSLAX46Y46*%
G04 Gerber Fmt 4.6, Leading zero omitted, Abs format (unit mm)*
G04 Created by KiCad (PCBNEW 5.1.5-52549c5~84~ubuntu18.04.1) date 2020-04-30 17:46:21*
%MOMM*%
%LPD*%
G04 APERTURE LIST*
%ADD10C,0.152400*%
%ADD11C,0.100000*%
%ADD12C,0.120000*%
%ADD13C,0.150000*%
G04 APERTURE END LIST*
D10*
X131050090Y-37093676D02*
X131050090Y-36230076D01*
X131337957Y-36846933D01*
X131625823Y-36230076D01*
X131625823Y-37093676D01*
X132037061Y-37093676D02*
X132037061Y-36517942D01*
X132037061Y-36230076D02*
X131995938Y-36271200D01*
X132037061Y-36312323D01*
X132078185Y-36271200D01*
X132037061Y-36230076D01*
X132037061Y-36312323D01*
X132448300Y-37093676D02*
X132448300Y-36517942D01*
X132448300Y-36682438D02*
X132489423Y-36600190D01*
X132530547Y-36559066D01*
X132612795Y-36517942D01*
X132695042Y-36517942D01*
X133106280Y-37093676D02*
X133024033Y-37052552D01*
X132982909Y-37011428D01*
X132941785Y-36929180D01*
X132941785Y-36682438D01*
X132982909Y-36600190D01*
X133024033Y-36559066D01*
X133106280Y-36517942D01*
X133229652Y-36517942D01*
X133311900Y-36559066D01*
X133353023Y-36600190D01*
X133394147Y-36682438D01*
X133394147Y-36929180D01*
X133353023Y-37011428D01*
X133311900Y-37052552D01*
X133229652Y-37093676D01*
X133106280Y-37093676D01*
X134381119Y-36312323D02*
X134422242Y-36271200D01*
X134504490Y-36230076D01*
X134710109Y-36230076D01*
X134792357Y-36271200D01*
X134833480Y-36312323D01*
X134874604Y-36394571D01*
X134874604Y-36476819D01*
X134833480Y-36600190D01*
X134339995Y-37093676D01*
X134874604Y-37093676D01*
X135409214Y-36230076D02*
X135491461Y-36230076D01*
X135573709Y-36271200D01*
X135614833Y-36312323D01*
X135655957Y-36394571D01*
X135697080Y-36559066D01*
X135697080Y-36764685D01*
X135655957Y-36929180D01*
X135614833Y-37011428D01*
X135573709Y-37052552D01*
X135491461Y-37093676D01*
X135409214Y-37093676D01*
X135326966Y-37052552D01*
X135285842Y-37011428D01*
X135244719Y-36929180D01*
X135203595Y-36764685D01*
X135203595Y-36559066D01*
X135244719Y-36394571D01*
X135285842Y-36312323D01*
X135326966Y-36271200D01*
X135409214Y-36230076D01*
X136026071Y-36312323D02*
X136067195Y-36271200D01*
X136149442Y-36230076D01*
X136355061Y-36230076D01*
X136437309Y-36271200D01*
X136478433Y-36312323D01*
X136519557Y-36394571D01*
X136519557Y-36476819D01*
X136478433Y-36600190D01*
X135984947Y-37093676D01*
X136519557Y-37093676D01*
X137054166Y-36230076D02*
X137136414Y-36230076D01*
X137218661Y-36271200D01*
X137259785Y-36312323D01*
X137300909Y-36394571D01*
X137342033Y-36559066D01*
X137342033Y-36764685D01*
X137300909Y-36929180D01*
X137259785Y-37011428D01*
X137218661Y-37052552D01*
X137136414Y-37093676D01*
X137054166Y-37093676D01*
X136971919Y-37052552D01*
X136930795Y-37011428D01*
X136889671Y-36929180D01*
X136848547Y-36764685D01*
X136848547Y-36559066D01*
X136889671Y-36394571D01*
X136930795Y-36312323D01*
X136971919Y-36271200D01*
X137054166Y-36230076D01*
X126705480Y-33944076D02*
X127198966Y-33944076D01*
X126952223Y-34807676D02*
X126952223Y-33944076D01*
X127486833Y-34807676D02*
X127486833Y-34231942D01*
X127486833Y-34396438D02*
X127527957Y-34314190D01*
X127569080Y-34273066D01*
X127651328Y-34231942D01*
X127733576Y-34231942D01*
X128021442Y-34807676D02*
X128021442Y-34231942D01*
X128021442Y-33944076D02*
X127980319Y-33985200D01*
X128021442Y-34026323D01*
X128062566Y-33985200D01*
X128021442Y-33944076D01*
X128021442Y-34026323D01*
X128432680Y-34807676D02*
X128432680Y-34231942D01*
X128432680Y-34314190D02*
X128473804Y-34273066D01*
X128556052Y-34231942D01*
X128679423Y-34231942D01*
X128761671Y-34273066D01*
X128802795Y-34355314D01*
X128802795Y-34807676D01*
X128802795Y-34355314D02*
X128843919Y-34273066D01*
X128926166Y-34231942D01*
X129049538Y-34231942D01*
X129131785Y-34273066D01*
X129172909Y-34355314D01*
X129172909Y-34807676D01*
X129707519Y-34807676D02*
X129625271Y-34766552D01*
X129584147Y-34725428D01*
X129543023Y-34643180D01*
X129543023Y-34396438D01*
X129584147Y-34314190D01*
X129625271Y-34273066D01*
X129707519Y-34231942D01*
X129830890Y-34231942D01*
X129913138Y-34273066D01*
X129954261Y-34314190D01*
X129995385Y-34396438D01*
X129995385Y-34643180D01*
X129954261Y-34725428D01*
X129913138Y-34766552D01*
X129830890Y-34807676D01*
X129707519Y-34807676D01*
X130735614Y-34807676D02*
X130735614Y-33944076D01*
X130735614Y-34766552D02*
X130653366Y-34807676D01*
X130488871Y-34807676D01*
X130406623Y-34766552D01*
X130365500Y-34725428D01*
X130324376Y-34643180D01*
X130324376Y-34396438D01*
X130365500Y-34314190D01*
X130406623Y-34273066D01*
X130488871Y-34231942D01*
X130653366Y-34231942D01*
X130735614Y-34273066D01*
X131516966Y-34807676D02*
X131516966Y-34355314D01*
X131475842Y-34273066D01*
X131393595Y-34231942D01*
X131229100Y-34231942D01*
X131146852Y-34273066D01*
X131516966Y-34766552D02*
X131434719Y-34807676D01*
X131229100Y-34807676D01*
X131146852Y-34766552D01*
X131105728Y-34684304D01*
X131105728Y-34602057D01*
X131146852Y-34519809D01*
X131229100Y-34478685D01*
X131434719Y-34478685D01*
X131516966Y-34437561D01*
X132051576Y-34807676D02*
X131969328Y-34766552D01*
X131928204Y-34684304D01*
X131928204Y-33944076D01*
X133326414Y-34355314D02*
X133449785Y-34396438D01*
X133490909Y-34437561D01*
X133532033Y-34519809D01*
X133532033Y-34643180D01*
X133490909Y-34725428D01*
X133449785Y-34766552D01*
X133367538Y-34807676D01*
X133038547Y-34807676D01*
X133038547Y-33944076D01*
X133326414Y-33944076D01*
X133408661Y-33985200D01*
X133449785Y-34026323D01*
X133490909Y-34108571D01*
X133490909Y-34190819D01*
X133449785Y-34273066D01*
X133408661Y-34314190D01*
X133326414Y-34355314D01*
X133038547Y-34355314D01*
X134025519Y-34807676D02*
X133943271Y-34766552D01*
X133902147Y-34684304D01*
X133902147Y-33944076D01*
X134724623Y-34807676D02*
X134724623Y-34355314D01*
X134683500Y-34273066D01*
X134601252Y-34231942D01*
X134436757Y-34231942D01*
X134354509Y-34273066D01*
X134724623Y-34766552D02*
X134642376Y-34807676D01*
X134436757Y-34807676D01*
X134354509Y-34766552D01*
X134313385Y-34684304D01*
X134313385Y-34602057D01*
X134354509Y-34519809D01*
X134436757Y-34478685D01*
X134642376Y-34478685D01*
X134724623Y-34437561D01*
X135135861Y-34807676D02*
X135135861Y-34231942D01*
X135135861Y-34314190D02*
X135176985Y-34273066D01*
X135259233Y-34231942D01*
X135382604Y-34231942D01*
X135464852Y-34273066D01*
X135505976Y-34355314D01*
X135505976Y-34807676D01*
X135505976Y-34355314D02*
X135547100Y-34273066D01*
X135629347Y-34231942D01*
X135752719Y-34231942D01*
X135834966Y-34273066D01*
X135876090Y-34355314D01*
X135876090Y-34807676D01*
X136616319Y-34766552D02*
X136534071Y-34807676D01*
X136369576Y-34807676D01*
X136287328Y-34766552D01*
X136246204Y-34684304D01*
X136246204Y-34355314D01*
X136287328Y-34273066D01*
X136369576Y-34231942D01*
X136534071Y-34231942D01*
X136616319Y-34273066D01*
X136657442Y-34355314D01*
X136657442Y-34437561D01*
X136246204Y-34519809D01*
X137150928Y-34807676D02*
X137068680Y-34766552D01*
X137027557Y-34684304D01*
X137027557Y-33944076D01*
X137808909Y-34766552D02*
X137726661Y-34807676D01*
X137562166Y-34807676D01*
X137479919Y-34766552D01*
X137438795Y-34684304D01*
X137438795Y-34355314D01*
X137479919Y-34273066D01*
X137562166Y-34231942D01*
X137726661Y-34231942D01*
X137808909Y-34273066D01*
X137850033Y-34355314D01*
X137850033Y-34437561D01*
X137438795Y-34519809D01*
X138179023Y-34766552D02*
X138261271Y-34807676D01*
X138425766Y-34807676D01*
X138508014Y-34766552D01*
X138549138Y-34684304D01*
X138549138Y-34643180D01*
X138508014Y-34560933D01*
X138425766Y-34519809D01*
X138302395Y-34519809D01*
X138220147Y-34478685D01*
X138179023Y-34396438D01*
X138179023Y-34355314D01*
X138220147Y-34273066D01*
X138302395Y-34231942D01*
X138425766Y-34231942D01*
X138508014Y-34273066D01*
X138878128Y-34766552D02*
X138960376Y-34807676D01*
X139124871Y-34807676D01*
X139207119Y-34766552D01*
X139248242Y-34684304D01*
X139248242Y-34643180D01*
X139207119Y-34560933D01*
X139124871Y-34519809D01*
X139001500Y-34519809D01*
X138919252Y-34478685D01*
X138878128Y-34396438D01*
X138878128Y-34355314D01*
X138919252Y-34273066D01*
X139001500Y-34231942D01*
X139124871Y-34231942D01*
X139207119Y-34273066D01*
X140235214Y-34766552D02*
X140358585Y-34807676D01*
X140564204Y-34807676D01*
X140646452Y-34766552D01*
X140687576Y-34725428D01*
X140728700Y-34643180D01*
X140728700Y-34560933D01*
X140687576Y-34478685D01*
X140646452Y-34437561D01*
X140564204Y-34396438D01*
X140399709Y-34355314D01*
X140317461Y-34314190D01*
X140276338Y-34273066D01*
X140235214Y-34190819D01*
X140235214Y-34108571D01*
X140276338Y-34026323D01*
X140317461Y-33985200D01*
X140399709Y-33944076D01*
X140605328Y-33944076D01*
X140728700Y-33985200D01*
X141098814Y-34807676D02*
X141098814Y-33944076D01*
X141386680Y-34560933D01*
X141674547Y-33944076D01*
X141674547Y-34807676D01*
X142085785Y-34807676D02*
X142085785Y-33944076D01*
X142291404Y-33944076D01*
X142414776Y-33985200D01*
X142497023Y-34067447D01*
X142538147Y-34149695D01*
X142579271Y-34314190D01*
X142579271Y-34437561D01*
X142538147Y-34602057D01*
X142497023Y-34684304D01*
X142414776Y-34766552D01*
X142291404Y-34807676D01*
X142085785Y-34807676D01*
D11*
X146494500Y-32131000D02*
X146367500Y-131572000D01*
X62230000Y-32194500D02*
X146494500Y-32131000D01*
X62293500Y-131635500D02*
X62230000Y-32194500D01*
X146367500Y-131572000D02*
X62293500Y-131635500D01*
D12*
X91790000Y-112425000D02*
X95510000Y-114925000D01*
X95510000Y-114925000D02*
X95450000Y-115105000D01*
X95450000Y-115105000D02*
X92650000Y-114445000D01*
X92650000Y-114445000D02*
X95530000Y-119745000D01*
X95410000Y-119865000D02*
X91640000Y-117715000D01*
X92320000Y-119765000D02*
X92170000Y-119855000D01*
X91640000Y-117715000D02*
X92320000Y-119765000D01*
X92170000Y-119855000D02*
X90280000Y-117895000D01*
X95530000Y-119745000D02*
X95410000Y-119865000D01*
X82300000Y-110805000D02*
X86010000Y-112415000D01*
X88050000Y-110135000D02*
X82300000Y-110135000D01*
X82300000Y-110135000D02*
X82300000Y-110805000D01*
X85150000Y-114445000D02*
X82270000Y-119745000D01*
X82290000Y-114925000D02*
X82350000Y-115105000D01*
X82350000Y-115105000D02*
X85150000Y-114445000D01*
X86010000Y-112425000D02*
X82290000Y-114925000D01*
X85630000Y-119855000D02*
X87520000Y-117895000D01*
X82390000Y-119865000D02*
X86160000Y-117715000D01*
X85480000Y-119765000D02*
X85630000Y-119855000D01*
X82270000Y-119745000D02*
X82390000Y-119865000D01*
X86160000Y-117715000D02*
X85480000Y-119765000D01*
X88050000Y-102235000D02*
X88050000Y-110135000D01*
X89750000Y-110135000D02*
X95500000Y-110135000D01*
X95500000Y-110135000D02*
X95500000Y-110805000D01*
X95500000Y-110805000D02*
X91790000Y-112415000D01*
X89750000Y-102235000D02*
X89750000Y-110135000D01*
X82350000Y-89365000D02*
X85150000Y-90025000D01*
X82290000Y-89545000D02*
X82350000Y-89365000D01*
X86010000Y-92045000D02*
X82290000Y-89545000D01*
X85150000Y-90025000D02*
X82270000Y-84725000D01*
X85630000Y-84615000D02*
X87520000Y-86575000D01*
X86160000Y-86755000D02*
X85480000Y-84705000D01*
X82390000Y-84605000D02*
X86160000Y-86755000D01*
X82270000Y-84725000D02*
X82390000Y-84605000D01*
X85480000Y-84705000D02*
X85630000Y-84615000D01*
X82300000Y-93665000D02*
X86010000Y-92055000D01*
X88050000Y-102235000D02*
X88050000Y-94335000D01*
X88050000Y-94335000D02*
X82300000Y-94335000D01*
X82300000Y-94335000D02*
X82300000Y-93665000D01*
X89750000Y-102235000D02*
X89750000Y-94335000D01*
X89750000Y-94335000D02*
X95500000Y-94335000D01*
X95500000Y-94335000D02*
X95500000Y-93665000D01*
X95500000Y-93665000D02*
X91790000Y-92055000D01*
X91790000Y-92045000D02*
X95510000Y-89545000D01*
X95510000Y-89545000D02*
X95450000Y-89365000D01*
X95450000Y-89365000D02*
X92650000Y-90025000D01*
X92650000Y-90025000D02*
X95530000Y-84725000D01*
X95530000Y-84725000D02*
X95410000Y-84605000D01*
X95410000Y-84605000D02*
X91640000Y-86755000D01*
X91640000Y-86755000D02*
X92320000Y-84705000D01*
X92320000Y-84705000D02*
X92170000Y-84615000D01*
X92170000Y-84615000D02*
X90280000Y-86575000D01*
X81333000Y-116278500D02*
X77583000Y-116278500D01*
X70813000Y-116278500D02*
X74563000Y-116278500D01*
X70813000Y-125734063D02*
X70813000Y-116278500D01*
X81333000Y-125734063D02*
X81333000Y-116278500D01*
X80268563Y-126798500D02*
X77583000Y-126798500D01*
X71877437Y-126798500D02*
X74563000Y-126798500D01*
X71877437Y-126798500D02*
X70813000Y-125734063D01*
X80268563Y-126798500D02*
X81333000Y-125734063D01*
X73313000Y-128288500D02*
X73313000Y-127038500D01*
X72688000Y-127663500D02*
X73938000Y-127663500D01*
X74497000Y-91767922D02*
X74497000Y-92285078D01*
X73077000Y-91767922D02*
X73077000Y-92285078D01*
X133559500Y-91363500D02*
X135909500Y-91363500D01*
X140379500Y-91363500D02*
X138029500Y-91363500D01*
X140379500Y-85607937D02*
X140379500Y-91363500D01*
X133559500Y-85607937D02*
X133559500Y-91363500D01*
X134623937Y-84543500D02*
X135909500Y-84543500D01*
X139315063Y-84543500D02*
X138029500Y-84543500D01*
X139315063Y-84543500D02*
X140379500Y-85607937D01*
X134623937Y-84543500D02*
X133559500Y-85607937D01*
X138817000Y-83516000D02*
X138817000Y-84303500D01*
X139210750Y-83909750D02*
X138423250Y-83909750D01*
X79419500Y-100609000D02*
X77069500Y-100609000D01*
X72599500Y-100609000D02*
X74949500Y-100609000D01*
X72599500Y-106364563D02*
X72599500Y-100609000D01*
X79419500Y-106364563D02*
X79419500Y-100609000D01*
X78355063Y-107429000D02*
X77069500Y-107429000D01*
X73663937Y-107429000D02*
X74949500Y-107429000D01*
X73663937Y-107429000D02*
X72599500Y-106364563D01*
X78355063Y-107429000D02*
X79419500Y-106364563D01*
X74162000Y-108456500D02*
X74162000Y-107669000D01*
X73768250Y-108062750D02*
X74555750Y-108062750D01*
X112884000Y-105746500D02*
X110534000Y-105746500D01*
X106064000Y-105746500D02*
X108414000Y-105746500D01*
X106064000Y-111502063D02*
X106064000Y-105746500D01*
X112884000Y-111502063D02*
X112884000Y-105746500D01*
X111819563Y-112566500D02*
X110534000Y-112566500D01*
X107128437Y-112566500D02*
X108414000Y-112566500D01*
X107128437Y-112566500D02*
X106064000Y-111502063D01*
X111819563Y-112566500D02*
X112884000Y-111502063D01*
X107626500Y-113594000D02*
X107626500Y-112806500D01*
X107232750Y-113200250D02*
X108020250Y-113200250D01*
X72624500Y-49051500D02*
X73874500Y-49051500D01*
X73249500Y-49676500D02*
X73249500Y-48426500D01*
X80205063Y-48186500D02*
X81269500Y-47122063D01*
X71813937Y-48186500D02*
X70749500Y-47122063D01*
X71813937Y-48186500D02*
X74499500Y-48186500D01*
X80205063Y-48186500D02*
X77519500Y-48186500D01*
X81269500Y-47122063D02*
X81269500Y-37666500D01*
X70749500Y-47122063D02*
X70749500Y-37666500D01*
X70749500Y-37666500D02*
X74499500Y-37666500D01*
X81269500Y-37666500D02*
X77519500Y-37666500D01*
X115868750Y-121778750D02*
X116656250Y-121778750D01*
X116262500Y-122172500D02*
X116262500Y-121385000D01*
X120455563Y-121145000D02*
X121520000Y-120080563D01*
X115764437Y-121145000D02*
X114700000Y-120080563D01*
X115764437Y-121145000D02*
X117050000Y-121145000D01*
X120455563Y-121145000D02*
X119170000Y-121145000D01*
X121520000Y-120080563D02*
X121520000Y-114325000D01*
X114700000Y-120080563D02*
X114700000Y-114325000D01*
X114700000Y-114325000D02*
X117050000Y-114325000D01*
X121520000Y-114325000D02*
X119170000Y-114325000D01*
X131108750Y-122413750D02*
X131896250Y-122413750D01*
X131502500Y-122807500D02*
X131502500Y-122020000D01*
X135695563Y-121780000D02*
X136760000Y-120715563D01*
X131004437Y-121780000D02*
X129940000Y-120715563D01*
X131004437Y-121780000D02*
X132290000Y-121780000D01*
X135695563Y-121780000D02*
X134410000Y-121780000D01*
X136760000Y-120715563D02*
X136760000Y-114960000D01*
X129940000Y-120715563D02*
X129940000Y-114960000D01*
X129940000Y-114960000D02*
X132290000Y-114960000D01*
X136760000Y-114960000D02*
X134410000Y-114960000D01*
X119521250Y-102597250D02*
X119521250Y-103384750D01*
X119127500Y-102991000D02*
X119915000Y-102991000D01*
X120155000Y-107184063D02*
X121219437Y-108248500D01*
X120155000Y-102492937D02*
X121219437Y-101428500D01*
X120155000Y-102492937D02*
X120155000Y-103778500D01*
X120155000Y-107184063D02*
X120155000Y-105898500D01*
X121219437Y-108248500D02*
X126975000Y-108248500D01*
X121219437Y-101428500D02*
X126975000Y-101428500D01*
X126975000Y-101428500D02*
X126975000Y-103778500D01*
X126975000Y-108248500D02*
X126975000Y-105898500D01*
X130095500Y-79727500D02*
X128095500Y-79727500D01*
X128095500Y-79727500D02*
X128095500Y-83627500D01*
X130095500Y-79727500D02*
X130095500Y-83627500D01*
X130095500Y-74713000D02*
X128095500Y-74713000D01*
X128095500Y-74713000D02*
X128095500Y-78613000D01*
X130095500Y-74713000D02*
X130095500Y-78613000D01*
X125238000Y-84291000D02*
X125238000Y-80391000D01*
X127238000Y-84291000D02*
X127238000Y-80391000D01*
X125238000Y-84291000D02*
X127238000Y-84291000D01*
X125238000Y-79212000D02*
X127238000Y-79212000D01*
X127238000Y-79212000D02*
X127238000Y-75312000D01*
X125238000Y-79212000D02*
X125238000Y-75312000D01*
X109521500Y-48993500D02*
X109521500Y-52893500D01*
X107521500Y-48993500D02*
X107521500Y-52893500D01*
X109521500Y-48993500D02*
X107521500Y-48993500D01*
X108124500Y-43852000D02*
X108124500Y-47752000D01*
X106124500Y-43852000D02*
X106124500Y-47752000D01*
X108124500Y-43852000D02*
X106124500Y-43852000D01*
X82650500Y-96155000D02*
X86550500Y-96155000D01*
X82650500Y-98155000D02*
X86550500Y-98155000D01*
X82650500Y-96155000D02*
X82650500Y-98155000D01*
X87214000Y-66278000D02*
X87214000Y-64278000D01*
X87214000Y-64278000D02*
X83314000Y-64278000D01*
X87214000Y-66278000D02*
X83314000Y-66278000D01*
X103648000Y-86388500D02*
X105648000Y-86388500D01*
X105648000Y-86388500D02*
X105648000Y-82488500D01*
X103648000Y-86388500D02*
X103648000Y-82488500D01*
X84455000Y-120930000D02*
X84455000Y-123730000D01*
X84455000Y-127730000D02*
X84455000Y-130530000D01*
X107055000Y-127730000D02*
X107055000Y-130530000D01*
X107055000Y-130530000D02*
X84455000Y-130530000D01*
X107055000Y-120930000D02*
X84455000Y-120930000D01*
X107055000Y-120930000D02*
X107055000Y-123730000D01*
X107690000Y-32665000D02*
X107690000Y-35465000D01*
X107690000Y-32665000D02*
X85090000Y-32665000D01*
X107690000Y-42265000D02*
X85090000Y-42265000D01*
X107690000Y-39465000D02*
X107690000Y-42265000D01*
X85090000Y-39465000D02*
X85090000Y-42265000D01*
X85090000Y-32665000D02*
X85090000Y-35465000D01*
X92170000Y-43340000D02*
X90280000Y-45300000D01*
X92320000Y-43430000D02*
X92170000Y-43340000D01*
X91640000Y-45480000D02*
X92320000Y-43430000D01*
X95410000Y-43330000D02*
X91640000Y-45480000D01*
X95530000Y-43450000D02*
X95410000Y-43330000D01*
X92650000Y-48750000D02*
X95530000Y-43450000D01*
X95450000Y-48090000D02*
X92650000Y-48750000D01*
X95510000Y-48270000D02*
X95450000Y-48090000D01*
X91790000Y-50770000D02*
X95510000Y-48270000D01*
X95500000Y-52390000D02*
X91790000Y-50780000D01*
X95500000Y-53060000D02*
X95500000Y-52390000D01*
X89750000Y-53060000D02*
X95500000Y-53060000D01*
X89750000Y-60960000D02*
X89750000Y-53060000D01*
X82300000Y-53060000D02*
X82300000Y-52390000D01*
X88050000Y-53060000D02*
X82300000Y-53060000D01*
X88050000Y-60960000D02*
X88050000Y-53060000D01*
X82300000Y-52390000D02*
X86010000Y-50780000D01*
X85480000Y-43430000D02*
X85630000Y-43340000D01*
X82270000Y-43450000D02*
X82390000Y-43330000D01*
X82390000Y-43330000D02*
X86160000Y-45480000D01*
X86160000Y-45480000D02*
X85480000Y-43430000D01*
X85630000Y-43340000D02*
X87520000Y-45300000D01*
X85150000Y-48750000D02*
X82270000Y-43450000D01*
X86010000Y-50770000D02*
X82290000Y-48270000D01*
X82290000Y-48270000D02*
X82350000Y-48090000D01*
X82350000Y-48090000D02*
X85150000Y-48750000D01*
X89750000Y-60960000D02*
X89750000Y-68860000D01*
X95500000Y-69530000D02*
X91790000Y-71140000D01*
X95500000Y-68860000D02*
X95500000Y-69530000D01*
X89750000Y-68860000D02*
X95500000Y-68860000D01*
X88050000Y-60960000D02*
X88050000Y-68860000D01*
X86160000Y-76440000D02*
X85480000Y-78490000D01*
X82270000Y-78470000D02*
X82390000Y-78590000D01*
X85480000Y-78490000D02*
X85630000Y-78580000D01*
X82390000Y-78590000D02*
X86160000Y-76440000D01*
X85630000Y-78580000D02*
X87520000Y-76620000D01*
X86010000Y-71150000D02*
X82290000Y-73650000D01*
X82350000Y-73830000D02*
X85150000Y-73170000D01*
X82290000Y-73650000D02*
X82350000Y-73830000D01*
X85150000Y-73170000D02*
X82270000Y-78470000D01*
X82300000Y-68860000D02*
X82300000Y-69530000D01*
X88050000Y-68860000D02*
X82300000Y-68860000D01*
X82300000Y-69530000D02*
X86010000Y-71140000D01*
X95530000Y-78470000D02*
X95410000Y-78590000D01*
X92170000Y-78580000D02*
X90280000Y-76620000D01*
X91640000Y-76440000D02*
X92320000Y-78490000D01*
X92320000Y-78490000D02*
X92170000Y-78580000D01*
X95410000Y-78590000D02*
X91640000Y-76440000D01*
X92650000Y-73170000D02*
X95530000Y-78470000D01*
X95450000Y-73830000D02*
X92650000Y-73170000D01*
X95510000Y-73650000D02*
X95450000Y-73830000D01*
X91790000Y-71150000D02*
X95510000Y-73650000D01*
X142126281Y-116713000D02*
G75*
G03X142126281Y-116713000I-1600781J0D01*
G01*
X141999281Y-112395000D02*
G75*
G03X141999281Y-112395000I-1600781J0D01*
G01*
X70752281Y-65849500D02*
G75*
G03X70752281Y-65849500I-1600781J0D01*
G01*
X86944781Y-81915000D02*
G75*
G03X86944781Y-81915000I-1600781J0D01*
G01*
X113995781Y-125730000D02*
G75*
G03X113995781Y-125730000I-1600781J0D01*
G01*
X114630781Y-37465000D02*
G75*
G03X114630781Y-37465000I-1600781J0D01*
G01*
X62110000Y-92576000D02*
X75050000Y-92576000D01*
X75050000Y-92576000D02*
X75050000Y-72016000D01*
X75050000Y-72016000D02*
X62110000Y-72016000D01*
X62110000Y-72016000D02*
X62110000Y-92576000D01*
X68580000Y-93556000D02*
X68580000Y-92576000D01*
X68580000Y-71036000D02*
X68580000Y-72016000D01*
X104020000Y-93404000D02*
X114260000Y-93404000D01*
X104020000Y-103445000D02*
X114260000Y-103445000D01*
X104020000Y-93404000D02*
X104020000Y-94499000D01*
X104020000Y-97351000D02*
X104020000Y-99500000D01*
X104020000Y-102350000D02*
X104020000Y-103445000D01*
X114260000Y-93404000D02*
X114260000Y-97000000D01*
X114260000Y-99850000D02*
X114260000Y-103445000D01*
X141353000Y-52762000D02*
X141353000Y-53962000D01*
X141353000Y-53962000D02*
X138653000Y-53962000D01*
X137353000Y-49162000D02*
X141353000Y-49162000D01*
X141353000Y-49162000D02*
X141353000Y-50362000D01*
X91326281Y-81978500D02*
G75*
G03X91326281Y-81978500I-1600781J0D01*
G01*
X129728500Y-111620000D02*
X129728500Y-110420000D01*
X133728500Y-111620000D02*
X129728500Y-111620000D01*
X129728500Y-106820000D02*
X132428500Y-106820000D01*
X129728500Y-108020000D02*
X129728500Y-106820000D01*
X126553500Y-99785000D02*
X126553500Y-98585000D01*
X130553500Y-99785000D02*
X126553500Y-99785000D01*
X126553500Y-94985000D02*
X129253500Y-94985000D01*
X126553500Y-96185000D02*
X126553500Y-94985000D01*
X120076500Y-96590000D02*
X120076500Y-95390000D01*
X120076500Y-95390000D02*
X122776500Y-95390000D01*
X124076500Y-100190000D02*
X120076500Y-100190000D01*
X120076500Y-100190000D02*
X120076500Y-98990000D01*
X131777200Y-54921000D02*
X131777200Y-56121000D01*
X131777200Y-56121000D02*
X129077200Y-56121000D01*
X127777200Y-51321000D02*
X131777200Y-51321000D01*
X131777200Y-51321000D02*
X131777200Y-52521000D01*
X100582000Y-110179000D02*
X100582000Y-108979000D01*
X100582000Y-108979000D02*
X103282000Y-108979000D01*
X104582000Y-113779000D02*
X100582000Y-113779000D01*
X100582000Y-113779000D02*
X100582000Y-112579000D01*
X92170000Y-103836000D02*
X91340000Y-103836000D01*
X94830000Y-103836000D02*
X93250000Y-103836000D01*
X91660000Y-100635000D02*
X91340000Y-100635000D01*
X94830000Y-100635000D02*
X93760000Y-100635000D01*
X94830000Y-106355000D02*
X91340000Y-106355000D01*
X94830000Y-98115000D02*
X91340000Y-98115000D01*
X91340000Y-98115000D02*
X91340000Y-106355000D01*
X94830000Y-98115000D02*
X94830000Y-106355000D01*
X68080500Y-115245500D02*
X68080500Y-130985500D01*
X63340500Y-115245500D02*
X63340500Y-116265500D01*
X63340500Y-119065500D02*
X63340500Y-121716500D01*
X63340500Y-124515500D02*
X63340500Y-127165500D01*
X63340500Y-129965500D02*
X63340500Y-130985500D01*
X68080500Y-115245500D02*
X63340500Y-115245500D01*
X68080500Y-130985500D02*
X63340500Y-130985500D01*
X66340500Y-115245500D02*
X66340500Y-116265500D01*
X66340500Y-119065500D02*
X66340500Y-121716500D01*
X66340500Y-124515500D02*
X66340500Y-127165500D01*
X66340500Y-129965500D02*
X66340500Y-130985500D01*
X68080500Y-121515500D02*
X66340500Y-121515500D01*
X68080500Y-124716500D02*
X66340500Y-124716500D01*
X94830000Y-56840000D02*
X94830000Y-65080000D01*
X91340000Y-56840000D02*
X91340000Y-65080000D01*
X94830000Y-56840000D02*
X91340000Y-56840000D01*
X94830000Y-65080000D02*
X91340000Y-65080000D01*
X94830000Y-59360000D02*
X93760000Y-59360000D01*
X91660000Y-59360000D02*
X91340000Y-59360000D01*
X94830000Y-62561000D02*
X93250000Y-62561000D01*
X92170000Y-62561000D02*
X91340000Y-62561000D01*
X68080500Y-33225500D02*
X68080500Y-48965500D01*
X63340500Y-33225500D02*
X63340500Y-34245500D01*
X63340500Y-37045500D02*
X63340500Y-39696500D01*
X63340500Y-42495500D02*
X63340500Y-45145500D01*
X63340500Y-47945500D02*
X63340500Y-48965500D01*
X68080500Y-33225500D02*
X63340500Y-33225500D01*
X68080500Y-48965500D02*
X63340500Y-48965500D01*
X66340500Y-33225500D02*
X66340500Y-34245500D01*
X66340500Y-37045500D02*
X66340500Y-39696500D01*
X66340500Y-42495500D02*
X66340500Y-45145500D01*
X66340500Y-47945500D02*
X66340500Y-48965500D01*
X68080500Y-39495500D02*
X66340500Y-39495500D01*
X68080500Y-42696500D02*
X66340500Y-42696500D01*
X129478500Y-92640000D02*
X129478500Y-93840000D01*
X129478500Y-93840000D02*
X126778500Y-93840000D01*
X125478500Y-89040000D02*
X129478500Y-89040000D01*
X129478500Y-89040000D02*
X129478500Y-90240000D01*
X123065000Y-89040000D02*
X123065000Y-90240000D01*
X119065000Y-89040000D02*
X123065000Y-89040000D01*
X123065000Y-93840000D02*
X120365000Y-93840000D01*
X123065000Y-92640000D02*
X123065000Y-93840000D01*
X131891500Y-59449000D02*
X131891500Y-60649000D01*
X127891500Y-59449000D02*
X131891500Y-59449000D01*
X131891500Y-64249000D02*
X129191500Y-64249000D01*
X131891500Y-63049000D02*
X131891500Y-64249000D01*
X82970000Y-106355000D02*
X82970000Y-98115000D01*
X86460000Y-106355000D02*
X86460000Y-98115000D01*
X82970000Y-106355000D02*
X86460000Y-106355000D01*
X82970000Y-98115000D02*
X86460000Y-98115000D01*
X82970000Y-103835000D02*
X84040000Y-103835000D01*
X86140000Y-103835000D02*
X86460000Y-103835000D01*
X82970000Y-100634000D02*
X84550000Y-100634000D01*
X85630000Y-100634000D02*
X86460000Y-100634000D01*
X101714000Y-63057500D02*
X100514000Y-63057500D01*
X101714000Y-59057500D02*
X101714000Y-63057500D01*
X96914000Y-63057500D02*
X96914000Y-60357500D01*
X98114000Y-63057500D02*
X96914000Y-63057500D01*
X108269500Y-63938000D02*
X108269500Y-65138000D01*
X108269500Y-65138000D02*
X105569500Y-65138000D01*
X104269500Y-60338000D02*
X108269500Y-60338000D01*
X108269500Y-60338000D02*
X108269500Y-61538000D01*
X104205500Y-56254500D02*
X104205500Y-57454500D01*
X104205500Y-57454500D02*
X101505500Y-57454500D01*
X100205500Y-52654500D02*
X104205500Y-52654500D01*
X104205500Y-52654500D02*
X104205500Y-53854500D01*
X104142000Y-50285500D02*
X104142000Y-51485500D01*
X104142000Y-51485500D02*
X101442000Y-51485500D01*
X100142000Y-46685500D02*
X104142000Y-46685500D01*
X104142000Y-46685500D02*
X104142000Y-47885500D01*
X76769500Y-91510000D02*
X76769500Y-90310000D01*
X76769500Y-90310000D02*
X79469500Y-90310000D01*
X80769500Y-95110000D02*
X76769500Y-95110000D01*
X76769500Y-95110000D02*
X76769500Y-93910000D01*
X80456500Y-68847000D02*
X80456500Y-70047000D01*
X76456500Y-68847000D02*
X80456500Y-68847000D01*
X80456500Y-73647000D02*
X77756500Y-73647000D01*
X80456500Y-72447000D02*
X80456500Y-73647000D01*
X107757500Y-89395000D02*
X107757500Y-88195000D01*
X111757500Y-89395000D02*
X107757500Y-89395000D01*
X107757500Y-84595000D02*
X110457500Y-84595000D01*
X107757500Y-85795000D02*
X107757500Y-84595000D01*
X108138500Y-119875000D02*
X108138500Y-118675000D01*
X112138500Y-119875000D02*
X108138500Y-119875000D01*
X108138500Y-115075000D02*
X110838500Y-115075000D01*
X108138500Y-116275000D02*
X108138500Y-115075000D01*
X68080500Y-59841500D02*
X66340500Y-59841500D01*
X68080500Y-56640500D02*
X66340500Y-56640500D01*
X66340500Y-65090500D02*
X66340500Y-66110500D01*
X66340500Y-59640500D02*
X66340500Y-62290500D01*
X66340500Y-54190500D02*
X66340500Y-56841500D01*
X66340500Y-50370500D02*
X66340500Y-51390500D01*
X68080500Y-66110500D02*
X63340500Y-66110500D01*
X68080500Y-50370500D02*
X63340500Y-50370500D01*
X63340500Y-65090500D02*
X63340500Y-66110500D01*
X63340500Y-59640500D02*
X63340500Y-62290500D01*
X63340500Y-54190500D02*
X63340500Y-56841500D01*
X63340500Y-50370500D02*
X63340500Y-51390500D01*
X68080500Y-50370500D02*
X68080500Y-66110500D01*
X67187500Y-89068064D02*
X67187500Y-84963936D01*
X70607500Y-89068064D02*
X70607500Y-84963936D01*
X70671000Y-78485064D02*
X70671000Y-74380936D01*
X67251000Y-78485064D02*
X67251000Y-74380936D01*
X131869922Y-58495000D02*
X132387078Y-58495000D01*
X131869922Y-57075000D02*
X132387078Y-57075000D01*
X82815500Y-82222078D02*
X82815500Y-81704922D01*
X81395500Y-82222078D02*
X81395500Y-81704922D01*
X136662422Y-108573500D02*
X137179578Y-108573500D01*
X136662422Y-109993500D02*
X137179578Y-109993500D01*
X92133922Y-55701000D02*
X92651078Y-55701000D01*
X92133922Y-54281000D02*
X92651078Y-54281000D01*
X132790000Y-97960922D02*
X132790000Y-98478078D01*
X131370000Y-97960922D02*
X131370000Y-98478078D01*
X141022000Y-63329078D02*
X141022000Y-62811922D01*
X142442000Y-63329078D02*
X142442000Y-62811922D01*
X135203000Y-95387422D02*
X135203000Y-95904578D01*
X133783000Y-95387422D02*
X133783000Y-95904578D01*
X132790000Y-102288078D02*
X132790000Y-101770922D01*
X131370000Y-102288078D02*
X131370000Y-101770922D01*
X128195000Y-102288078D02*
X128195000Y-101770922D01*
X129615000Y-102288078D02*
X129615000Y-101770922D01*
X136451078Y-112470000D02*
X135933922Y-112470000D01*
X136451078Y-111050000D02*
X135933922Y-111050000D01*
X125486422Y-111708000D02*
X126003578Y-111708000D01*
X125486422Y-110288000D02*
X126003578Y-110288000D01*
X140711422Y-60400000D02*
X141228578Y-60400000D01*
X140711422Y-58980000D02*
X141228578Y-58980000D01*
X140861422Y-56440000D02*
X141378578Y-56440000D01*
X140861422Y-57860000D02*
X141378578Y-57860000D01*
X114881922Y-104319000D02*
X115399078Y-104319000D01*
X114881922Y-105739000D02*
X115399078Y-105739000D01*
X132853500Y-94795078D02*
X132853500Y-94277922D01*
X131433500Y-94795078D02*
X131433500Y-94277922D01*
X81798422Y-107565500D02*
X82315578Y-107565500D01*
X81798422Y-106145500D02*
X82315578Y-106145500D01*
X100976500Y-100017078D02*
X100976500Y-99499922D01*
X99556500Y-100017078D02*
X99556500Y-99499922D01*
X92445578Y-97865000D02*
X91928422Y-97865000D01*
X92445578Y-96445000D02*
X91928422Y-96445000D01*
X104850000Y-119306078D02*
X104850000Y-118788922D01*
X103430000Y-119306078D02*
X103430000Y-118788922D01*
X80506500Y-104129578D02*
X80506500Y-103612422D01*
X81926500Y-104129578D02*
X81926500Y-103612422D01*
X104383578Y-67575500D02*
X103866422Y-67575500D01*
X104383578Y-66155500D02*
X103866422Y-66155500D01*
X78940922Y-82625000D02*
X79458078Y-82625000D01*
X78940922Y-81205000D02*
X79458078Y-81205000D01*
X73163500Y-81544422D02*
X73163500Y-82061578D01*
X71743500Y-81544422D02*
X71743500Y-82061578D01*
X106541500Y-57647578D02*
X106541500Y-57130422D01*
X107961500Y-57647578D02*
X107961500Y-57130422D01*
X72082922Y-96531500D02*
X72600078Y-96531500D01*
X72082922Y-95111500D02*
X72600078Y-95111500D01*
X113145500Y-90721922D02*
X113145500Y-91239078D01*
X114565500Y-90721922D02*
X114565500Y-91239078D01*
X96720922Y-57987000D02*
X97238078Y-57987000D01*
X96720922Y-56567000D02*
X97238078Y-56567000D01*
X72082922Y-97969000D02*
X72600078Y-97969000D01*
X72082922Y-99389000D02*
X72600078Y-99389000D01*
X73552578Y-65520500D02*
X73035422Y-65520500D01*
X73552578Y-66940500D02*
X73035422Y-66940500D01*
X74878000Y-72506578D02*
X74878000Y-71989422D01*
X73458000Y-72506578D02*
X73458000Y-71989422D01*
X73552578Y-69607500D02*
X73035422Y-69607500D01*
X73552578Y-68187500D02*
X73035422Y-68187500D01*
X100911922Y-87070000D02*
X101429078Y-87070000D01*
X100911922Y-85650000D02*
X101429078Y-85650000D01*
X97540578Y-87006500D02*
X97023422Y-87006500D01*
X97540578Y-85586500D02*
X97023422Y-85586500D01*
X105390422Y-92594500D02*
X105907578Y-92594500D01*
X105390422Y-91174500D02*
X105907578Y-91174500D01*
X103874500Y-88499422D02*
X103874500Y-89016578D01*
X105294500Y-88499422D02*
X105294500Y-89016578D01*
X134854422Y-52399000D02*
X135371578Y-52399000D01*
X134854422Y-50979000D02*
X135371578Y-50979000D01*
X130639078Y-106120000D02*
X130121922Y-106120000D01*
X130639078Y-104700000D02*
X130121922Y-104700000D01*
X134481500Y-49105078D02*
X134481500Y-48587922D01*
X135901500Y-49105078D02*
X135901500Y-48587922D01*
X109992422Y-43422500D02*
X110509578Y-43422500D01*
X109992422Y-44842500D02*
X110509578Y-44842500D01*
X129297500Y-49232078D02*
X129297500Y-48714922D01*
X127877500Y-49232078D02*
X127877500Y-48714922D01*
X116216500Y-109717578D02*
X116216500Y-109200422D01*
X114796500Y-109717578D02*
X114796500Y-109200422D01*
X117486500Y-90555578D02*
X117486500Y-90038422D01*
X116066500Y-90555578D02*
X116066500Y-90038422D01*
X104531422Y-114923500D02*
X105048578Y-114923500D01*
X104531422Y-116343500D02*
X105048578Y-116343500D01*
X98350000Y-119433078D02*
X98350000Y-118915922D01*
X99770000Y-119433078D02*
X99770000Y-118915922D01*
X97906578Y-116470500D02*
X97389422Y-116470500D01*
X97906578Y-115050500D02*
X97389422Y-115050500D01*
X104975922Y-79871500D02*
X105493078Y-79871500D01*
X104975922Y-81291500D02*
X105493078Y-81291500D01*
X99135000Y-46613578D02*
X99135000Y-46096422D01*
X97715000Y-46613578D02*
X97715000Y-46096422D01*
X133719500Y-99070422D02*
X133719500Y-99587578D01*
X135139500Y-99070422D02*
X135139500Y-99587578D01*
X117660922Y-102373500D02*
X118178078Y-102373500D01*
X117660922Y-100953500D02*
X118178078Y-100953500D01*
X133656000Y-103304078D02*
X133656000Y-102786922D01*
X135076000Y-103304078D02*
X135076000Y-102786922D01*
X119082078Y-111898500D02*
X118564922Y-111898500D01*
X119082078Y-110478500D02*
X118564922Y-110478500D01*
X66416500Y-89068064D02*
X66416500Y-84963936D01*
X62996500Y-89068064D02*
X62996500Y-84963936D01*
X62996500Y-78485064D02*
X62996500Y-74380936D01*
X66416500Y-78485064D02*
X66416500Y-74380936D01*
X68080500Y-98481500D02*
X68080500Y-114221500D01*
X63340500Y-98481500D02*
X63340500Y-99501500D01*
X63340500Y-102301500D02*
X63340500Y-104952500D01*
X63340500Y-107751500D02*
X63340500Y-110401500D01*
X63340500Y-113201500D02*
X63340500Y-114221500D01*
X68080500Y-98481500D02*
X63340500Y-98481500D01*
X68080500Y-114221500D02*
X63340500Y-114221500D01*
X66340500Y-98481500D02*
X66340500Y-99501500D01*
X66340500Y-102301500D02*
X66340500Y-104952500D01*
X66340500Y-107751500D02*
X66340500Y-110401500D01*
X66340500Y-113201500D02*
X66340500Y-114221500D01*
X68080500Y-104751500D02*
X66340500Y-104751500D01*
X68080500Y-107952500D02*
X66340500Y-107952500D01*
X125730000Y-114934000D02*
X123720000Y-114934000D01*
X123720000Y-114934000D02*
X123720000Y-115289000D01*
X125730000Y-114934000D02*
X127740000Y-114934000D01*
X127740000Y-114934000D02*
X127740000Y-115289000D01*
X125730000Y-119254000D02*
X123720000Y-119254000D01*
X123720000Y-119254000D02*
X123720000Y-118899000D01*
X125730000Y-119254000D02*
X127740000Y-119254000D01*
X127740000Y-119254000D02*
X127740000Y-118899000D01*
X127740000Y-118899000D02*
X129205000Y-118899000D01*
X121298281Y-127127000D02*
G75*
G03X121298281Y-127127000I-1600781J0D01*
G01*
X127457781Y-127127000D02*
G75*
G03X127457781Y-127127000I-1600781J0D01*
G01*
X97998500Y-88079500D02*
X97998500Y-89009500D01*
X97998500Y-91239500D02*
X97998500Y-90309500D01*
X97998500Y-91239500D02*
X100158500Y-91239500D01*
X97998500Y-88079500D02*
X99458500Y-88079500D01*
X124289500Y-78526000D02*
G75*
G03X124289500Y-78526000I-6370000J0D01*
G01*
X111589500Y-78526000D02*
X124249500Y-78526000D01*
X111589500Y-78486000D02*
X124249500Y-78486000D01*
X111589500Y-78446000D02*
X124249500Y-78446000D01*
X111590500Y-78406000D02*
X124248500Y-78406000D01*
X111591500Y-78366000D02*
X124247500Y-78366000D01*
X111592500Y-78326000D02*
X124246500Y-78326000D01*
X111593500Y-78286000D02*
X124245500Y-78286000D01*
X111595500Y-78246000D02*
X124243500Y-78246000D01*
X111597500Y-78206000D02*
X124241500Y-78206000D01*
X111599500Y-78166000D02*
X124239500Y-78166000D01*
X111601500Y-78126000D02*
X124237500Y-78126000D01*
X111604500Y-78086000D02*
X124234500Y-78086000D01*
X111607500Y-78046000D02*
X124231500Y-78046000D01*
X111610500Y-78006000D02*
X124228500Y-78006000D01*
X111613500Y-77966000D02*
X124225500Y-77966000D01*
X111617500Y-77926000D02*
X124221500Y-77926000D01*
X111621500Y-77886000D02*
X124217500Y-77886000D01*
X111625500Y-77846000D02*
X124213500Y-77846000D01*
X111629500Y-77805000D02*
X124209500Y-77805000D01*
X111634500Y-77765000D02*
X124204500Y-77765000D01*
X111639500Y-77725000D02*
X124199500Y-77725000D01*
X111644500Y-77685000D02*
X124194500Y-77685000D01*
X111650500Y-77645000D02*
X124188500Y-77645000D01*
X111655500Y-77605000D02*
X124183500Y-77605000D01*
X111661500Y-77565000D02*
X124177500Y-77565000D01*
X111667500Y-77525000D02*
X124171500Y-77525000D01*
X111674500Y-77485000D02*
X124164500Y-77485000D01*
X111681500Y-77445000D02*
X116479500Y-77445000D01*
X119359500Y-77445000D02*
X124157500Y-77445000D01*
X111688500Y-77405000D02*
X116479500Y-77405000D01*
X119359500Y-77405000D02*
X124150500Y-77405000D01*
X111695500Y-77365000D02*
X116479500Y-77365000D01*
X119359500Y-77365000D02*
X124143500Y-77365000D01*
X111703500Y-77325000D02*
X116479500Y-77325000D01*
X119359500Y-77325000D02*
X124135500Y-77325000D01*
X111710500Y-77285000D02*
X116479500Y-77285000D01*
X119359500Y-77285000D02*
X124128500Y-77285000D01*
X111718500Y-77245000D02*
X116479500Y-77245000D01*
X119359500Y-77245000D02*
X124120500Y-77245000D01*
X111727500Y-77205000D02*
X116479500Y-77205000D01*
X119359500Y-77205000D02*
X124111500Y-77205000D01*
X111735500Y-77165000D02*
X116479500Y-77165000D01*
X119359500Y-77165000D02*
X124103500Y-77165000D01*
X111744500Y-77125000D02*
X116479500Y-77125000D01*
X119359500Y-77125000D02*
X124094500Y-77125000D01*
X111753500Y-77085000D02*
X116479500Y-77085000D01*
X119359500Y-77085000D02*
X124085500Y-77085000D01*
X111763500Y-77045000D02*
X116479500Y-77045000D01*
X119359500Y-77045000D02*
X124075500Y-77045000D01*
X111773500Y-77005000D02*
X116479500Y-77005000D01*
X119359500Y-77005000D02*
X124065500Y-77005000D01*
X111782500Y-76965000D02*
X116479500Y-76965000D01*
X119359500Y-76965000D02*
X124056500Y-76965000D01*
X111793500Y-76925000D02*
X116479500Y-76925000D01*
X119359500Y-76925000D02*
X124045500Y-76925000D01*
X111803500Y-76885000D02*
X116479500Y-76885000D01*
X119359500Y-76885000D02*
X124035500Y-76885000D01*
X111814500Y-76845000D02*
X116479500Y-76845000D01*
X119359500Y-76845000D02*
X124024500Y-76845000D01*
X111825500Y-76805000D02*
X116479500Y-76805000D01*
X119359500Y-76805000D02*
X124013500Y-76805000D01*
X111836500Y-76765000D02*
X116479500Y-76765000D01*
X119359500Y-76765000D02*
X124002500Y-76765000D01*
X111848500Y-76725000D02*
X116479500Y-76725000D01*
X119359500Y-76725000D02*
X123990500Y-76725000D01*
X111860500Y-76685000D02*
X116479500Y-76685000D01*
X119359500Y-76685000D02*
X123978500Y-76685000D01*
X111872500Y-76645000D02*
X116479500Y-76645000D01*
X119359500Y-76645000D02*
X123966500Y-76645000D01*
X111885500Y-76605000D02*
X116479500Y-76605000D01*
X119359500Y-76605000D02*
X123953500Y-76605000D01*
X111898500Y-76565000D02*
X116479500Y-76565000D01*
X119359500Y-76565000D02*
X123940500Y-76565000D01*
X111911500Y-76525000D02*
X116479500Y-76525000D01*
X119359500Y-76525000D02*
X123927500Y-76525000D01*
X111924500Y-76485000D02*
X116479500Y-76485000D01*
X119359500Y-76485000D02*
X123914500Y-76485000D01*
X111938500Y-76445000D02*
X116479500Y-76445000D01*
X119359500Y-76445000D02*
X123900500Y-76445000D01*
X111952500Y-76405000D02*
X116479500Y-76405000D01*
X119359500Y-76405000D02*
X123886500Y-76405000D01*
X111966500Y-76365000D02*
X116479500Y-76365000D01*
X119359500Y-76365000D02*
X123872500Y-76365000D01*
X111980500Y-76325000D02*
X116479500Y-76325000D01*
X119359500Y-76325000D02*
X123858500Y-76325000D01*
X111995500Y-76285000D02*
X116479500Y-76285000D01*
X119359500Y-76285000D02*
X123843500Y-76285000D01*
X112011500Y-76245000D02*
X116479500Y-76245000D01*
X119359500Y-76245000D02*
X123827500Y-76245000D01*
X112026500Y-76205000D02*
X116479500Y-76205000D01*
X119359500Y-76205000D02*
X123812500Y-76205000D01*
X112042500Y-76165000D02*
X116479500Y-76165000D01*
X119359500Y-76165000D02*
X123796500Y-76165000D01*
X112058500Y-76125000D02*
X116479500Y-76125000D01*
X119359500Y-76125000D02*
X123780500Y-76125000D01*
X112074500Y-76085000D02*
X116479500Y-76085000D01*
X119359500Y-76085000D02*
X123764500Y-76085000D01*
X112091500Y-76045000D02*
X116479500Y-76045000D01*
X119359500Y-76045000D02*
X123747500Y-76045000D01*
X112108500Y-76005000D02*
X116479500Y-76005000D01*
X119359500Y-76005000D02*
X123730500Y-76005000D01*
X112126500Y-75965000D02*
X116479500Y-75965000D01*
X119359500Y-75965000D02*
X123712500Y-75965000D01*
X112143500Y-75925000D02*
X116479500Y-75925000D01*
X119359500Y-75925000D02*
X123695500Y-75925000D01*
X112161500Y-75885000D02*
X116479500Y-75885000D01*
X119359500Y-75885000D02*
X123677500Y-75885000D01*
X112180500Y-75845000D02*
X116479500Y-75845000D01*
X119359500Y-75845000D02*
X123658500Y-75845000D01*
X112198500Y-75805000D02*
X116479500Y-75805000D01*
X119359500Y-75805000D02*
X123640500Y-75805000D01*
X112217500Y-75765000D02*
X116479500Y-75765000D01*
X119359500Y-75765000D02*
X123621500Y-75765000D01*
X112237500Y-75725000D02*
X116479500Y-75725000D01*
X119359500Y-75725000D02*
X123601500Y-75725000D01*
X112257500Y-75685000D02*
X116479500Y-75685000D01*
X119359500Y-75685000D02*
X123581500Y-75685000D01*
X112277500Y-75645000D02*
X116479500Y-75645000D01*
X119359500Y-75645000D02*
X123561500Y-75645000D01*
X112297500Y-75605000D02*
X116479500Y-75605000D01*
X119359500Y-75605000D02*
X123541500Y-75605000D01*
X112318500Y-75565000D02*
X116479500Y-75565000D01*
X119359500Y-75565000D02*
X123520500Y-75565000D01*
X112339500Y-75525000D02*
X116479500Y-75525000D01*
X119359500Y-75525000D02*
X123499500Y-75525000D01*
X112361500Y-75485000D02*
X116479500Y-75485000D01*
X119359500Y-75485000D02*
X123477500Y-75485000D01*
X112383500Y-75445000D02*
X116479500Y-75445000D01*
X119359500Y-75445000D02*
X123455500Y-75445000D01*
X112405500Y-75405000D02*
X116479500Y-75405000D01*
X119359500Y-75405000D02*
X123433500Y-75405000D01*
X112428500Y-75365000D02*
X116479500Y-75365000D01*
X119359500Y-75365000D02*
X123410500Y-75365000D01*
X112451500Y-75325000D02*
X116479500Y-75325000D01*
X119359500Y-75325000D02*
X123387500Y-75325000D01*
X112474500Y-75285000D02*
X116479500Y-75285000D01*
X119359500Y-75285000D02*
X123364500Y-75285000D01*
X112498500Y-75245000D02*
X116479500Y-75245000D01*
X119359500Y-75245000D02*
X123340500Y-75245000D01*
X112522500Y-75205000D02*
X116479500Y-75205000D01*
X119359500Y-75205000D02*
X123316500Y-75205000D01*
X112547500Y-75165000D02*
X116479500Y-75165000D01*
X119359500Y-75165000D02*
X123291500Y-75165000D01*
X112572500Y-75125000D02*
X116479500Y-75125000D01*
X119359500Y-75125000D02*
X123266500Y-75125000D01*
X112597500Y-75085000D02*
X116479500Y-75085000D01*
X119359500Y-75085000D02*
X123241500Y-75085000D01*
X112623500Y-75045000D02*
X116479500Y-75045000D01*
X119359500Y-75045000D02*
X123215500Y-75045000D01*
X112649500Y-75005000D02*
X116479500Y-75005000D01*
X119359500Y-75005000D02*
X123189500Y-75005000D01*
X112676500Y-74965000D02*
X116479500Y-74965000D01*
X119359500Y-74965000D02*
X123162500Y-74965000D01*
X112703500Y-74925000D02*
X116479500Y-74925000D01*
X119359500Y-74925000D02*
X123135500Y-74925000D01*
X112731500Y-74885000D02*
X116479500Y-74885000D01*
X119359500Y-74885000D02*
X123107500Y-74885000D01*
X112759500Y-74845000D02*
X116479500Y-74845000D01*
X119359500Y-74845000D02*
X123079500Y-74845000D01*
X112788500Y-74805000D02*
X116479500Y-74805000D01*
X119359500Y-74805000D02*
X123050500Y-74805000D01*
X112817500Y-74765000D02*
X116479500Y-74765000D01*
X119359500Y-74765000D02*
X123021500Y-74765000D01*
X112846500Y-74725000D02*
X116479500Y-74725000D01*
X119359500Y-74725000D02*
X122992500Y-74725000D01*
X112876500Y-74685000D02*
X116479500Y-74685000D01*
X119359500Y-74685000D02*
X122962500Y-74685000D01*
X112907500Y-74645000D02*
X116479500Y-74645000D01*
X119359500Y-74645000D02*
X122931500Y-74645000D01*
X112937500Y-74605000D02*
X116479500Y-74605000D01*
X119359500Y-74605000D02*
X122901500Y-74605000D01*
X112969500Y-74565000D02*
X122869500Y-74565000D01*
X113001500Y-74525000D02*
X122837500Y-74525000D01*
X113034500Y-74485000D02*
X122804500Y-74485000D01*
X113067500Y-74445000D02*
X122771500Y-74445000D01*
X113100500Y-74405000D02*
X122738500Y-74405000D01*
X113134500Y-74365000D02*
X122704500Y-74365000D01*
X113169500Y-74325000D02*
X122669500Y-74325000D01*
X113205500Y-74285000D02*
X122633500Y-74285000D01*
X113241500Y-74245000D02*
X122597500Y-74245000D01*
X113277500Y-74205000D02*
X122561500Y-74205000D01*
X113314500Y-74165000D02*
X122524500Y-74165000D01*
X113352500Y-74125000D02*
X122486500Y-74125000D01*
X113391500Y-74085000D02*
X122447500Y-74085000D01*
X113430500Y-74045000D02*
X122408500Y-74045000D01*
X113470500Y-74005000D02*
X122368500Y-74005000D01*
X113511500Y-73965000D02*
X122327500Y-73965000D01*
X113552500Y-73925000D02*
X122286500Y-73925000D01*
X113594500Y-73885000D02*
X122244500Y-73885000D01*
X113637500Y-73845000D02*
X122201500Y-73845000D01*
X113681500Y-73805000D02*
X122157500Y-73805000D01*
X113725500Y-73765000D02*
X122113500Y-73765000D01*
X113771500Y-73725000D02*
X122067500Y-73725000D01*
X113817500Y-73685000D02*
X122021500Y-73685000D01*
X113864500Y-73645000D02*
X121974500Y-73645000D01*
X113912500Y-73605000D02*
X121926500Y-73605000D01*
X113962500Y-73565000D02*
X121876500Y-73565000D01*
X114012500Y-73525000D02*
X121826500Y-73525000D01*
X114063500Y-73485000D02*
X121775500Y-73485000D01*
X114115500Y-73445000D02*
X121723500Y-73445000D01*
X114169500Y-73405000D02*
X121669500Y-73405000D01*
X114223500Y-73365000D02*
X121615500Y-73365000D01*
X114279500Y-73325000D02*
X121559500Y-73325000D01*
X114336500Y-73285000D02*
X121502500Y-73285000D01*
X114395500Y-73245000D02*
X121443500Y-73245000D01*
X114455500Y-73205000D02*
X121383500Y-73205000D01*
X114517500Y-73165000D02*
X121321500Y-73165000D01*
X114580500Y-73125000D02*
X121258500Y-73125000D01*
X114644500Y-73085000D02*
X121194500Y-73085000D01*
X114711500Y-73045000D02*
X121127500Y-73045000D01*
X114779500Y-73005000D02*
X121059500Y-73005000D01*
X114850500Y-72965000D02*
X120988500Y-72965000D01*
X114923500Y-72925000D02*
X120915500Y-72925000D01*
X114998500Y-72885000D02*
X120840500Y-72885000D01*
X115075500Y-72845000D02*
X120763500Y-72845000D01*
X115155500Y-72805000D02*
X120683500Y-72805000D01*
X115238500Y-72765000D02*
X120600500Y-72765000D01*
X115325500Y-72725000D02*
X120513500Y-72725000D01*
X115415500Y-72685000D02*
X120423500Y-72685000D01*
X115509500Y-72645000D02*
X120329500Y-72645000D01*
X115607500Y-72605000D02*
X120231500Y-72605000D01*
X115710500Y-72565000D02*
X120128500Y-72565000D01*
X115819500Y-72525000D02*
X120019500Y-72525000D01*
X115935500Y-72485000D02*
X119903500Y-72485000D01*
X116058500Y-72445000D02*
X119780500Y-72445000D01*
X116191500Y-72405000D02*
X119647500Y-72405000D01*
X116336500Y-72365000D02*
X119502500Y-72365000D01*
X116497500Y-72325000D02*
X119341500Y-72325000D01*
X116678500Y-72285000D02*
X119160500Y-72285000D01*
X116891500Y-72245000D02*
X118947500Y-72245000D01*
X117162500Y-72205000D02*
X118676500Y-72205000D01*
X117602500Y-72165000D02*
X118236500Y-72165000D01*
X114344500Y-85343082D02*
X114344500Y-84093082D01*
X113719500Y-84718082D02*
X114969500Y-84718082D01*
X114354500Y-58492582D02*
X115604500Y-58492582D01*
X114979500Y-59117582D02*
X114979500Y-57867582D01*
X118237500Y-45939500D02*
X118871500Y-45939500D01*
X117797500Y-45979500D02*
X119311500Y-45979500D01*
X117526500Y-46019500D02*
X119582500Y-46019500D01*
X117313500Y-46059500D02*
X119795500Y-46059500D01*
X117132500Y-46099500D02*
X119976500Y-46099500D01*
X116971500Y-46139500D02*
X120137500Y-46139500D01*
X116826500Y-46179500D02*
X120282500Y-46179500D01*
X116693500Y-46219500D02*
X120415500Y-46219500D01*
X116570500Y-46259500D02*
X120538500Y-46259500D01*
X116454500Y-46299500D02*
X120654500Y-46299500D01*
X116345500Y-46339500D02*
X120763500Y-46339500D01*
X116242500Y-46379500D02*
X120866500Y-46379500D01*
X116144500Y-46419500D02*
X120964500Y-46419500D01*
X116050500Y-46459500D02*
X121058500Y-46459500D01*
X115960500Y-46499500D02*
X121148500Y-46499500D01*
X115873500Y-46539500D02*
X121235500Y-46539500D01*
X115790500Y-46579500D02*
X121318500Y-46579500D01*
X115710500Y-46619500D02*
X121398500Y-46619500D01*
X115633500Y-46659500D02*
X121475500Y-46659500D01*
X115558500Y-46699500D02*
X121550500Y-46699500D01*
X115485500Y-46739500D02*
X121623500Y-46739500D01*
X115414500Y-46779500D02*
X121694500Y-46779500D01*
X115346500Y-46819500D02*
X121762500Y-46819500D01*
X115279500Y-46859500D02*
X121829500Y-46859500D01*
X115215500Y-46899500D02*
X121893500Y-46899500D01*
X115152500Y-46939500D02*
X121956500Y-46939500D01*
X115090500Y-46979500D02*
X122018500Y-46979500D01*
X115030500Y-47019500D02*
X122078500Y-47019500D01*
X114971500Y-47059500D02*
X122137500Y-47059500D01*
X114914500Y-47099500D02*
X122194500Y-47099500D01*
X114858500Y-47139500D02*
X122250500Y-47139500D01*
X114804500Y-47179500D02*
X122304500Y-47179500D01*
X114750500Y-47219500D02*
X122358500Y-47219500D01*
X114698500Y-47259500D02*
X122410500Y-47259500D01*
X114647500Y-47299500D02*
X122461500Y-47299500D01*
X114597500Y-47339500D02*
X122511500Y-47339500D01*
X114547500Y-47379500D02*
X122561500Y-47379500D01*
X114499500Y-47419500D02*
X122609500Y-47419500D01*
X114452500Y-47459500D02*
X122656500Y-47459500D01*
X114406500Y-47499500D02*
X122702500Y-47499500D01*
X114360500Y-47539500D02*
X122748500Y-47539500D01*
X114316500Y-47579500D02*
X122792500Y-47579500D01*
X114272500Y-47619500D02*
X122836500Y-47619500D01*
X114229500Y-47659500D02*
X122879500Y-47659500D01*
X114187500Y-47699500D02*
X122921500Y-47699500D01*
X114146500Y-47739500D02*
X122962500Y-47739500D01*
X114105500Y-47779500D02*
X123003500Y-47779500D01*
X114065500Y-47819500D02*
X123043500Y-47819500D01*
X114026500Y-47859500D02*
X123082500Y-47859500D01*
X113987500Y-47899500D02*
X123121500Y-47899500D01*
X113949500Y-47939500D02*
X123159500Y-47939500D01*
X113912500Y-47979500D02*
X123196500Y-47979500D01*
X113876500Y-48019500D02*
X123232500Y-48019500D01*
X113840500Y-48059500D02*
X123268500Y-48059500D01*
X113804500Y-48099500D02*
X123304500Y-48099500D01*
X113769500Y-48139500D02*
X123339500Y-48139500D01*
X113735500Y-48179500D02*
X123373500Y-48179500D01*
X113702500Y-48219500D02*
X123406500Y-48219500D01*
X113669500Y-48259500D02*
X123439500Y-48259500D01*
X113636500Y-48299500D02*
X123472500Y-48299500D01*
X113604500Y-48339500D02*
X123504500Y-48339500D01*
X119994500Y-48379500D02*
X123536500Y-48379500D01*
X113572500Y-48379500D02*
X117114500Y-48379500D01*
X119994500Y-48419500D02*
X123566500Y-48419500D01*
X113542500Y-48419500D02*
X117114500Y-48419500D01*
X119994500Y-48459500D02*
X123597500Y-48459500D01*
X113511500Y-48459500D02*
X117114500Y-48459500D01*
X119994500Y-48499500D02*
X123627500Y-48499500D01*
X113481500Y-48499500D02*
X117114500Y-48499500D01*
X119994500Y-48539500D02*
X123656500Y-48539500D01*
X113452500Y-48539500D02*
X117114500Y-48539500D01*
X119994500Y-48579500D02*
X123685500Y-48579500D01*
X113423500Y-48579500D02*
X117114500Y-48579500D01*
X119994500Y-48619500D02*
X123714500Y-48619500D01*
X113394500Y-48619500D02*
X117114500Y-48619500D01*
X119994500Y-48659500D02*
X123742500Y-48659500D01*
X113366500Y-48659500D02*
X117114500Y-48659500D01*
X119994500Y-48699500D02*
X123770500Y-48699500D01*
X113338500Y-48699500D02*
X117114500Y-48699500D01*
X119994500Y-48739500D02*
X123797500Y-48739500D01*
X113311500Y-48739500D02*
X117114500Y-48739500D01*
X119994500Y-48779500D02*
X123824500Y-48779500D01*
X113284500Y-48779500D02*
X117114500Y-48779500D01*
X119994500Y-48819500D02*
X123850500Y-48819500D01*
X113258500Y-48819500D02*
X117114500Y-48819500D01*
X119994500Y-48859500D02*
X123876500Y-48859500D01*
X113232500Y-48859500D02*
X117114500Y-48859500D01*
X119994500Y-48899500D02*
X123901500Y-48899500D01*
X113207500Y-48899500D02*
X117114500Y-48899500D01*
X119994500Y-48939500D02*
X123926500Y-48939500D01*
X113182500Y-48939500D02*
X117114500Y-48939500D01*
X119994500Y-48979500D02*
X123951500Y-48979500D01*
X113157500Y-48979500D02*
X117114500Y-48979500D01*
X119994500Y-49019500D02*
X123975500Y-49019500D01*
X113133500Y-49019500D02*
X117114500Y-49019500D01*
X119994500Y-49059500D02*
X123999500Y-49059500D01*
X113109500Y-49059500D02*
X117114500Y-49059500D01*
X119994500Y-49099500D02*
X124022500Y-49099500D01*
X113086500Y-49099500D02*
X117114500Y-49099500D01*
X119994500Y-49139500D02*
X124045500Y-49139500D01*
X113063500Y-49139500D02*
X117114500Y-49139500D01*
X119994500Y-49179500D02*
X124068500Y-49179500D01*
X113040500Y-49179500D02*
X117114500Y-49179500D01*
X119994500Y-49219500D02*
X124090500Y-49219500D01*
X113018500Y-49219500D02*
X117114500Y-49219500D01*
X119994500Y-49259500D02*
X124112500Y-49259500D01*
X112996500Y-49259500D02*
X117114500Y-49259500D01*
X119994500Y-49299500D02*
X124134500Y-49299500D01*
X112974500Y-49299500D02*
X117114500Y-49299500D01*
X119994500Y-49339500D02*
X124155500Y-49339500D01*
X112953500Y-49339500D02*
X117114500Y-49339500D01*
X119994500Y-49379500D02*
X124176500Y-49379500D01*
X112932500Y-49379500D02*
X117114500Y-49379500D01*
X119994500Y-49419500D02*
X124196500Y-49419500D01*
X112912500Y-49419500D02*
X117114500Y-49419500D01*
X119994500Y-49459500D02*
X124216500Y-49459500D01*
X112892500Y-49459500D02*
X117114500Y-49459500D01*
X119994500Y-49499500D02*
X124236500Y-49499500D01*
X112872500Y-49499500D02*
X117114500Y-49499500D01*
X119994500Y-49539500D02*
X124256500Y-49539500D01*
X112852500Y-49539500D02*
X117114500Y-49539500D01*
X119994500Y-49579500D02*
X124275500Y-49579500D01*
X112833500Y-49579500D02*
X117114500Y-49579500D01*
X119994500Y-49619500D02*
X124293500Y-49619500D01*
X112815500Y-49619500D02*
X117114500Y-49619500D01*
X119994500Y-49659500D02*
X124312500Y-49659500D01*
X112796500Y-49659500D02*
X117114500Y-49659500D01*
X119994500Y-49699500D02*
X124330500Y-49699500D01*
X112778500Y-49699500D02*
X117114500Y-49699500D01*
X119994500Y-49739500D02*
X124347500Y-49739500D01*
X112761500Y-49739500D02*
X117114500Y-49739500D01*
X119994500Y-49779500D02*
X124365500Y-49779500D01*
X112743500Y-49779500D02*
X117114500Y-49779500D01*
X119994500Y-49819500D02*
X124382500Y-49819500D01*
X112726500Y-49819500D02*
X117114500Y-49819500D01*
X119994500Y-49859500D02*
X124399500Y-49859500D01*
X112709500Y-49859500D02*
X117114500Y-49859500D01*
X119994500Y-49899500D02*
X124415500Y-49899500D01*
X112693500Y-49899500D02*
X117114500Y-49899500D01*
X119994500Y-49939500D02*
X124431500Y-49939500D01*
X112677500Y-49939500D02*
X117114500Y-49939500D01*
X119994500Y-49979500D02*
X124447500Y-49979500D01*
X112661500Y-49979500D02*
X117114500Y-49979500D01*
X119994500Y-50019500D02*
X124462500Y-50019500D01*
X112646500Y-50019500D02*
X117114500Y-50019500D01*
X119994500Y-50059500D02*
X124478500Y-50059500D01*
X112630500Y-50059500D02*
X117114500Y-50059500D01*
X119994500Y-50099500D02*
X124493500Y-50099500D01*
X112615500Y-50099500D02*
X117114500Y-50099500D01*
X119994500Y-50139500D02*
X124507500Y-50139500D01*
X112601500Y-50139500D02*
X117114500Y-50139500D01*
X119994500Y-50179500D02*
X124521500Y-50179500D01*
X112587500Y-50179500D02*
X117114500Y-50179500D01*
X119994500Y-50219500D02*
X124535500Y-50219500D01*
X112573500Y-50219500D02*
X117114500Y-50219500D01*
X119994500Y-50259500D02*
X124549500Y-50259500D01*
X112559500Y-50259500D02*
X117114500Y-50259500D01*
X119994500Y-50299500D02*
X124562500Y-50299500D01*
X112546500Y-50299500D02*
X117114500Y-50299500D01*
X119994500Y-50339500D02*
X124575500Y-50339500D01*
X112533500Y-50339500D02*
X117114500Y-50339500D01*
X119994500Y-50379500D02*
X124588500Y-50379500D01*
X112520500Y-50379500D02*
X117114500Y-50379500D01*
X119994500Y-50419500D02*
X124601500Y-50419500D01*
X112507500Y-50419500D02*
X117114500Y-50419500D01*
X119994500Y-50459500D02*
X124613500Y-50459500D01*
X112495500Y-50459500D02*
X117114500Y-50459500D01*
X119994500Y-50499500D02*
X124625500Y-50499500D01*
X112483500Y-50499500D02*
X117114500Y-50499500D01*
X119994500Y-50539500D02*
X124637500Y-50539500D01*
X112471500Y-50539500D02*
X117114500Y-50539500D01*
X119994500Y-50579500D02*
X124648500Y-50579500D01*
X112460500Y-50579500D02*
X117114500Y-50579500D01*
X119994500Y-50619500D02*
X124659500Y-50619500D01*
X112449500Y-50619500D02*
X117114500Y-50619500D01*
X119994500Y-50659500D02*
X124670500Y-50659500D01*
X112438500Y-50659500D02*
X117114500Y-50659500D01*
X119994500Y-50699500D02*
X124680500Y-50699500D01*
X112428500Y-50699500D02*
X117114500Y-50699500D01*
X119994500Y-50739500D02*
X124691500Y-50739500D01*
X112417500Y-50739500D02*
X117114500Y-50739500D01*
X119994500Y-50779500D02*
X124700500Y-50779500D01*
X112408500Y-50779500D02*
X117114500Y-50779500D01*
X119994500Y-50819500D02*
X124710500Y-50819500D01*
X112398500Y-50819500D02*
X117114500Y-50819500D01*
X119994500Y-50859500D02*
X124720500Y-50859500D01*
X112388500Y-50859500D02*
X117114500Y-50859500D01*
X119994500Y-50899500D02*
X124729500Y-50899500D01*
X112379500Y-50899500D02*
X117114500Y-50899500D01*
X119994500Y-50939500D02*
X124738500Y-50939500D01*
X112370500Y-50939500D02*
X117114500Y-50939500D01*
X119994500Y-50979500D02*
X124746500Y-50979500D01*
X112362500Y-50979500D02*
X117114500Y-50979500D01*
X119994500Y-51019500D02*
X124755500Y-51019500D01*
X112353500Y-51019500D02*
X117114500Y-51019500D01*
X119994500Y-51059500D02*
X124763500Y-51059500D01*
X112345500Y-51059500D02*
X117114500Y-51059500D01*
X119994500Y-51099500D02*
X124770500Y-51099500D01*
X112338500Y-51099500D02*
X117114500Y-51099500D01*
X119994500Y-51139500D02*
X124778500Y-51139500D01*
X112330500Y-51139500D02*
X117114500Y-51139500D01*
X119994500Y-51179500D02*
X124785500Y-51179500D01*
X112323500Y-51179500D02*
X117114500Y-51179500D01*
X119994500Y-51219500D02*
X124792500Y-51219500D01*
X112316500Y-51219500D02*
X117114500Y-51219500D01*
X112309500Y-51259500D02*
X124799500Y-51259500D01*
X112302500Y-51299500D02*
X124806500Y-51299500D01*
X112296500Y-51339500D02*
X124812500Y-51339500D01*
X112290500Y-51379500D02*
X124818500Y-51379500D01*
X112285500Y-51419500D02*
X124823500Y-51419500D01*
X112279500Y-51459500D02*
X124829500Y-51459500D01*
X112274500Y-51499500D02*
X124834500Y-51499500D01*
X112269500Y-51539500D02*
X124839500Y-51539500D01*
X112264500Y-51579500D02*
X124844500Y-51579500D01*
X112260500Y-51620500D02*
X124848500Y-51620500D01*
X112256500Y-51660500D02*
X124852500Y-51660500D01*
X112252500Y-51700500D02*
X124856500Y-51700500D01*
X112248500Y-51740500D02*
X124860500Y-51740500D01*
X112245500Y-51780500D02*
X124863500Y-51780500D01*
X112242500Y-51820500D02*
X124866500Y-51820500D01*
X112239500Y-51860500D02*
X124869500Y-51860500D01*
X112236500Y-51900500D02*
X124872500Y-51900500D01*
X112234500Y-51940500D02*
X124874500Y-51940500D01*
X112232500Y-51980500D02*
X124876500Y-51980500D01*
X112230500Y-52020500D02*
X124878500Y-52020500D01*
X112228500Y-52060500D02*
X124880500Y-52060500D01*
X112227500Y-52100500D02*
X124881500Y-52100500D01*
X112226500Y-52140500D02*
X124882500Y-52140500D01*
X112225500Y-52180500D02*
X124883500Y-52180500D01*
X112224500Y-52220500D02*
X124884500Y-52220500D01*
X112224500Y-52260500D02*
X124884500Y-52260500D01*
X112224500Y-52300500D02*
X124884500Y-52300500D01*
X124924500Y-52300500D02*
G75*
G03X124924500Y-52300500I-6370000J0D01*
G01*
D13*
X86852380Y-103498095D02*
X85852380Y-103498095D01*
X86328571Y-103498095D02*
X86328571Y-102926666D01*
X86852380Y-102926666D02*
X85852380Y-102926666D01*
X86804761Y-102498095D02*
X86852380Y-102355238D01*
X86852380Y-102117142D01*
X86804761Y-102021904D01*
X86757142Y-101974285D01*
X86661904Y-101926666D01*
X86566666Y-101926666D01*
X86471428Y-101974285D01*
X86423809Y-102021904D01*
X86376190Y-102117142D01*
X86328571Y-102307619D01*
X86280952Y-102402857D01*
X86233333Y-102450476D01*
X86138095Y-102498095D01*
X86042857Y-102498095D01*
X85947619Y-102450476D01*
X85900000Y-102402857D01*
X85852380Y-102307619D01*
X85852380Y-102069523D01*
X85900000Y-101926666D01*
X86852380Y-100974285D02*
X86852380Y-101545714D01*
X86852380Y-101260000D02*
X85852380Y-101260000D01*
X85995238Y-101355238D01*
X86090476Y-101450476D01*
X86138095Y-101545714D01*
X70230142Y-121705166D02*
X70277761Y-121752785D01*
X70325380Y-121895642D01*
X70325380Y-121990880D01*
X70277761Y-122133738D01*
X70182523Y-122228976D01*
X70087285Y-122276595D01*
X69896809Y-122324214D01*
X69753952Y-122324214D01*
X69563476Y-122276595D01*
X69468238Y-122228976D01*
X69373000Y-122133738D01*
X69325380Y-121990880D01*
X69325380Y-121895642D01*
X69373000Y-121752785D01*
X69420619Y-121705166D01*
X70325380Y-121228976D02*
X70325380Y-121038500D01*
X70277761Y-120943261D01*
X70230142Y-120895642D01*
X70087285Y-120800404D01*
X69896809Y-120752785D01*
X69515857Y-120752785D01*
X69420619Y-120800404D01*
X69373000Y-120848023D01*
X69325380Y-120943261D01*
X69325380Y-121133738D01*
X69373000Y-121228976D01*
X69420619Y-121276595D01*
X69515857Y-121324214D01*
X69753952Y-121324214D01*
X69849190Y-121276595D01*
X69896809Y-121228976D01*
X69944428Y-121133738D01*
X69944428Y-120943261D01*
X69896809Y-120848023D01*
X69849190Y-120800404D01*
X69753952Y-120752785D01*
X75889380Y-92669357D02*
X75413190Y-93002690D01*
X75889380Y-93240785D02*
X74889380Y-93240785D01*
X74889380Y-92859833D01*
X74937000Y-92764595D01*
X74984619Y-92716976D01*
X75079857Y-92669357D01*
X75222714Y-92669357D01*
X75317952Y-92716976D01*
X75365571Y-92764595D01*
X75413190Y-92859833D01*
X75413190Y-93240785D01*
X74984619Y-92288404D02*
X74937000Y-92240785D01*
X74889380Y-92145547D01*
X74889380Y-91907452D01*
X74937000Y-91812214D01*
X74984619Y-91764595D01*
X75079857Y-91716976D01*
X75175095Y-91716976D01*
X75317952Y-91764595D01*
X75889380Y-92336023D01*
X75889380Y-91716976D01*
X74889380Y-91383642D02*
X74889380Y-90764595D01*
X75270333Y-91097928D01*
X75270333Y-90955071D01*
X75317952Y-90859833D01*
X75365571Y-90812214D01*
X75460809Y-90764595D01*
X75698904Y-90764595D01*
X75794142Y-90812214D01*
X75841761Y-90859833D01*
X75889380Y-90955071D01*
X75889380Y-91240785D01*
X75841761Y-91336023D01*
X75794142Y-91383642D01*
X141676642Y-88120166D02*
X141724261Y-88167785D01*
X141771880Y-88310642D01*
X141771880Y-88405880D01*
X141724261Y-88548738D01*
X141629023Y-88643976D01*
X141533785Y-88691595D01*
X141343309Y-88739214D01*
X141200452Y-88739214D01*
X141009976Y-88691595D01*
X140914738Y-88643976D01*
X140819500Y-88548738D01*
X140771880Y-88405880D01*
X140771880Y-88310642D01*
X140819500Y-88167785D01*
X140867119Y-88120166D01*
X141771880Y-87167785D02*
X141771880Y-87739214D01*
X141771880Y-87453500D02*
X140771880Y-87453500D01*
X140914738Y-87548738D01*
X141009976Y-87643976D01*
X141057595Y-87739214D01*
X72016642Y-104185666D02*
X72064261Y-104233285D01*
X72111880Y-104376142D01*
X72111880Y-104471380D01*
X72064261Y-104614238D01*
X71969023Y-104709476D01*
X71873785Y-104757095D01*
X71683309Y-104804714D01*
X71540452Y-104804714D01*
X71349976Y-104757095D01*
X71254738Y-104709476D01*
X71159500Y-104614238D01*
X71111880Y-104471380D01*
X71111880Y-104376142D01*
X71159500Y-104233285D01*
X71207119Y-104185666D01*
X71445214Y-103328523D02*
X72111880Y-103328523D01*
X71064261Y-103566619D02*
X71778547Y-103804714D01*
X71778547Y-103185666D01*
X105481142Y-109323166D02*
X105528761Y-109370785D01*
X105576380Y-109513642D01*
X105576380Y-109608880D01*
X105528761Y-109751738D01*
X105433523Y-109846976D01*
X105338285Y-109894595D01*
X105147809Y-109942214D01*
X105004952Y-109942214D01*
X104814476Y-109894595D01*
X104719238Y-109846976D01*
X104624000Y-109751738D01*
X104576380Y-109608880D01*
X104576380Y-109513642D01*
X104624000Y-109370785D01*
X104671619Y-109323166D01*
X104576380Y-108418404D02*
X104576380Y-108894595D01*
X105052571Y-108942214D01*
X105004952Y-108894595D01*
X104957333Y-108799357D01*
X104957333Y-108561261D01*
X105004952Y-108466023D01*
X105052571Y-108418404D01*
X105147809Y-108370785D01*
X105385904Y-108370785D01*
X105481142Y-108418404D01*
X105528761Y-108466023D01*
X105576380Y-108561261D01*
X105576380Y-108799357D01*
X105528761Y-108894595D01*
X105481142Y-108942214D01*
X70166642Y-43569357D02*
X70214261Y-43616976D01*
X70261880Y-43759833D01*
X70261880Y-43855071D01*
X70214261Y-43997928D01*
X70119023Y-44093166D01*
X70023785Y-44140785D01*
X69833309Y-44188404D01*
X69690452Y-44188404D01*
X69499976Y-44140785D01*
X69404738Y-44093166D01*
X69309500Y-43997928D01*
X69261880Y-43855071D01*
X69261880Y-43759833D01*
X69309500Y-43616976D01*
X69357119Y-43569357D01*
X70261880Y-42616976D02*
X70261880Y-43188404D01*
X70261880Y-42902690D02*
X69261880Y-42902690D01*
X69404738Y-42997928D01*
X69499976Y-43093166D01*
X69547595Y-43188404D01*
X69261880Y-41997928D02*
X69261880Y-41902690D01*
X69309500Y-41807452D01*
X69357119Y-41759833D01*
X69452357Y-41712214D01*
X69642833Y-41664595D01*
X69880928Y-41664595D01*
X70071404Y-41712214D01*
X70166642Y-41759833D01*
X70214261Y-41807452D01*
X70261880Y-41902690D01*
X70261880Y-41997928D01*
X70214261Y-42093166D01*
X70166642Y-42140785D01*
X70071404Y-42188404D01*
X69880928Y-42236023D01*
X69642833Y-42236023D01*
X69452357Y-42188404D01*
X69357119Y-42140785D01*
X69309500Y-42093166D01*
X69261880Y-41997928D01*
X114117142Y-118377857D02*
X114164761Y-118425476D01*
X114212380Y-118568333D01*
X114212380Y-118663571D01*
X114164761Y-118806428D01*
X114069523Y-118901666D01*
X113974285Y-118949285D01*
X113783809Y-118996904D01*
X113640952Y-118996904D01*
X113450476Y-118949285D01*
X113355238Y-118901666D01*
X113260000Y-118806428D01*
X113212380Y-118663571D01*
X113212380Y-118568333D01*
X113260000Y-118425476D01*
X113307619Y-118377857D01*
X114212380Y-117425476D02*
X114212380Y-117996904D01*
X114212380Y-117711190D02*
X113212380Y-117711190D01*
X113355238Y-117806428D01*
X113450476Y-117901666D01*
X113498095Y-117996904D01*
X114212380Y-116473095D02*
X114212380Y-117044523D01*
X114212380Y-116758809D02*
X113212380Y-116758809D01*
X113355238Y-116854047D01*
X113450476Y-116949285D01*
X113498095Y-117044523D01*
X129357142Y-119012857D02*
X129404761Y-119060476D01*
X129452380Y-119203333D01*
X129452380Y-119298571D01*
X129404761Y-119441428D01*
X129309523Y-119536666D01*
X129214285Y-119584285D01*
X129023809Y-119631904D01*
X128880952Y-119631904D01*
X128690476Y-119584285D01*
X128595238Y-119536666D01*
X128500000Y-119441428D01*
X128452380Y-119298571D01*
X128452380Y-119203333D01*
X128500000Y-119060476D01*
X128547619Y-119012857D01*
X129452380Y-118060476D02*
X129452380Y-118631904D01*
X129452380Y-118346190D02*
X128452380Y-118346190D01*
X128595238Y-118441428D01*
X128690476Y-118536666D01*
X128738095Y-118631904D01*
X128785714Y-117203333D02*
X129452380Y-117203333D01*
X128404761Y-117441428D02*
X129119047Y-117679523D01*
X129119047Y-117060476D01*
X122922142Y-100845642D02*
X122874523Y-100893261D01*
X122731666Y-100940880D01*
X122636428Y-100940880D01*
X122493571Y-100893261D01*
X122398333Y-100798023D01*
X122350714Y-100702785D01*
X122303095Y-100512309D01*
X122303095Y-100369452D01*
X122350714Y-100178976D01*
X122398333Y-100083738D01*
X122493571Y-99988500D01*
X122636428Y-99940880D01*
X122731666Y-99940880D01*
X122874523Y-99988500D01*
X122922142Y-100036119D01*
X123874523Y-100940880D02*
X123303095Y-100940880D01*
X123588809Y-100940880D02*
X123588809Y-99940880D01*
X123493571Y-100083738D01*
X123398333Y-100178976D01*
X123303095Y-100226595D01*
X124779285Y-99940880D02*
X124303095Y-99940880D01*
X124255476Y-100417071D01*
X124303095Y-100369452D01*
X124398333Y-100321833D01*
X124636428Y-100321833D01*
X124731666Y-100369452D01*
X124779285Y-100417071D01*
X124826904Y-100512309D01*
X124826904Y-100750404D01*
X124779285Y-100845642D01*
X124731666Y-100893261D01*
X124636428Y-100940880D01*
X124398333Y-100940880D01*
X124303095Y-100893261D01*
X124255476Y-100845642D01*
X131547880Y-82715595D02*
X130547880Y-82715595D01*
X130547880Y-82477500D01*
X130595500Y-82334642D01*
X130690738Y-82239404D01*
X130785976Y-82191785D01*
X130976452Y-82144166D01*
X131119309Y-82144166D01*
X131309785Y-82191785D01*
X131405023Y-82239404D01*
X131500261Y-82334642D01*
X131547880Y-82477500D01*
X131547880Y-82715595D01*
X131547880Y-81191785D02*
X131547880Y-81763214D01*
X131547880Y-81477500D02*
X130547880Y-81477500D01*
X130690738Y-81572738D01*
X130785976Y-81667976D01*
X130833595Y-81763214D01*
X131547880Y-77701095D02*
X130547880Y-77701095D01*
X130547880Y-77463000D01*
X130595500Y-77320142D01*
X130690738Y-77224904D01*
X130785976Y-77177285D01*
X130976452Y-77129666D01*
X131119309Y-77129666D01*
X131309785Y-77177285D01*
X131405023Y-77224904D01*
X131500261Y-77320142D01*
X131547880Y-77463000D01*
X131547880Y-77701095D01*
X130643119Y-76748714D02*
X130595500Y-76701095D01*
X130547880Y-76605857D01*
X130547880Y-76367761D01*
X130595500Y-76272523D01*
X130643119Y-76224904D01*
X130738357Y-76177285D01*
X130833595Y-76177285D01*
X130976452Y-76224904D01*
X131547880Y-76796333D01*
X131547880Y-76177285D01*
X124690380Y-82779095D02*
X123690380Y-82779095D01*
X123690380Y-82541000D01*
X123738000Y-82398142D01*
X123833238Y-82302904D01*
X123928476Y-82255285D01*
X124118952Y-82207666D01*
X124261809Y-82207666D01*
X124452285Y-82255285D01*
X124547523Y-82302904D01*
X124642761Y-82398142D01*
X124690380Y-82541000D01*
X124690380Y-82779095D01*
X123690380Y-81874333D02*
X123690380Y-81255285D01*
X124071333Y-81588619D01*
X124071333Y-81445761D01*
X124118952Y-81350523D01*
X124166571Y-81302904D01*
X124261809Y-81255285D01*
X124499904Y-81255285D01*
X124595142Y-81302904D01*
X124642761Y-81350523D01*
X124690380Y-81445761D01*
X124690380Y-81731476D01*
X124642761Y-81826714D01*
X124595142Y-81874333D01*
X124690380Y-77700095D02*
X123690380Y-77700095D01*
X123690380Y-77462000D01*
X123738000Y-77319142D01*
X123833238Y-77223904D01*
X123928476Y-77176285D01*
X124118952Y-77128666D01*
X124261809Y-77128666D01*
X124452285Y-77176285D01*
X124547523Y-77223904D01*
X124642761Y-77319142D01*
X124690380Y-77462000D01*
X124690380Y-77700095D01*
X124023714Y-76271523D02*
X124690380Y-76271523D01*
X123642761Y-76509619D02*
X124357047Y-76747714D01*
X124357047Y-76128666D01*
X110973880Y-51981595D02*
X109973880Y-51981595D01*
X109973880Y-51743500D01*
X110021500Y-51600642D01*
X110116738Y-51505404D01*
X110211976Y-51457785D01*
X110402452Y-51410166D01*
X110545309Y-51410166D01*
X110735785Y-51457785D01*
X110831023Y-51505404D01*
X110926261Y-51600642D01*
X110973880Y-51743500D01*
X110973880Y-51981595D01*
X109973880Y-50505404D02*
X109973880Y-50981595D01*
X110450071Y-51029214D01*
X110402452Y-50981595D01*
X110354833Y-50886357D01*
X110354833Y-50648261D01*
X110402452Y-50553023D01*
X110450071Y-50505404D01*
X110545309Y-50457785D01*
X110783404Y-50457785D01*
X110878642Y-50505404D01*
X110926261Y-50553023D01*
X110973880Y-50648261D01*
X110973880Y-50886357D01*
X110926261Y-50981595D01*
X110878642Y-51029214D01*
X109576880Y-46840095D02*
X108576880Y-46840095D01*
X108576880Y-46602000D01*
X108624500Y-46459142D01*
X108719738Y-46363904D01*
X108814976Y-46316285D01*
X109005452Y-46268666D01*
X109148309Y-46268666D01*
X109338785Y-46316285D01*
X109434023Y-46363904D01*
X109529261Y-46459142D01*
X109576880Y-46602000D01*
X109576880Y-46840095D01*
X108576880Y-45411523D02*
X108576880Y-45602000D01*
X108624500Y-45697238D01*
X108672119Y-45744857D01*
X108814976Y-45840095D01*
X109005452Y-45887714D01*
X109386404Y-45887714D01*
X109481642Y-45840095D01*
X109529261Y-45792476D01*
X109576880Y-45697238D01*
X109576880Y-45506761D01*
X109529261Y-45411523D01*
X109481642Y-45363904D01*
X109386404Y-45316285D01*
X109148309Y-45316285D01*
X109053071Y-45363904D01*
X109005452Y-45411523D01*
X108957833Y-45506761D01*
X108957833Y-45697238D01*
X109005452Y-45792476D01*
X109053071Y-45840095D01*
X109148309Y-45887714D01*
X84162404Y-95607380D02*
X84162404Y-94607380D01*
X84400500Y-94607380D01*
X84543357Y-94655000D01*
X84638595Y-94750238D01*
X84686214Y-94845476D01*
X84733833Y-95035952D01*
X84733833Y-95178809D01*
X84686214Y-95369285D01*
X84638595Y-95464523D01*
X84543357Y-95559761D01*
X84400500Y-95607380D01*
X84162404Y-95607380D01*
X85067166Y-94607380D02*
X85733833Y-94607380D01*
X85305261Y-95607380D01*
X84225904Y-67730380D02*
X84225904Y-66730380D01*
X84464000Y-66730380D01*
X84606857Y-66778000D01*
X84702095Y-66873238D01*
X84749714Y-66968476D01*
X84797333Y-67158952D01*
X84797333Y-67301809D01*
X84749714Y-67492285D01*
X84702095Y-67587523D01*
X84606857Y-67682761D01*
X84464000Y-67730380D01*
X84225904Y-67730380D01*
X85368761Y-67158952D02*
X85273523Y-67111333D01*
X85225904Y-67063714D01*
X85178285Y-66968476D01*
X85178285Y-66920857D01*
X85225904Y-66825619D01*
X85273523Y-66778000D01*
X85368761Y-66730380D01*
X85559238Y-66730380D01*
X85654476Y-66778000D01*
X85702095Y-66825619D01*
X85749714Y-66920857D01*
X85749714Y-66968476D01*
X85702095Y-67063714D01*
X85654476Y-67111333D01*
X85559238Y-67158952D01*
X85368761Y-67158952D01*
X85273523Y-67206571D01*
X85225904Y-67254190D01*
X85178285Y-67349428D01*
X85178285Y-67539904D01*
X85225904Y-67635142D01*
X85273523Y-67682761D01*
X85368761Y-67730380D01*
X85559238Y-67730380D01*
X85654476Y-67682761D01*
X85702095Y-67635142D01*
X85749714Y-67539904D01*
X85749714Y-67349428D01*
X85702095Y-67254190D01*
X85654476Y-67206571D01*
X85559238Y-67158952D01*
X103100380Y-84876595D02*
X102100380Y-84876595D01*
X102100380Y-84638500D01*
X102148000Y-84495642D01*
X102243238Y-84400404D01*
X102338476Y-84352785D01*
X102528952Y-84305166D01*
X102671809Y-84305166D01*
X102862285Y-84352785D01*
X102957523Y-84400404D01*
X103052761Y-84495642D01*
X103100380Y-84638500D01*
X103100380Y-84876595D01*
X103100380Y-83828976D02*
X103100380Y-83638500D01*
X103052761Y-83543261D01*
X103005142Y-83495642D01*
X102862285Y-83400404D01*
X102671809Y-83352785D01*
X102290857Y-83352785D01*
X102195619Y-83400404D01*
X102148000Y-83448023D01*
X102100380Y-83543261D01*
X102100380Y-83733738D01*
X102148000Y-83828976D01*
X102195619Y-83876595D01*
X102290857Y-83924214D01*
X102528952Y-83924214D01*
X102624190Y-83876595D01*
X102671809Y-83828976D01*
X102719428Y-83733738D01*
X102719428Y-83543261D01*
X102671809Y-83448023D01*
X102624190Y-83400404D01*
X102528952Y-83352785D01*
X95471666Y-131658571D02*
X95138333Y-131658571D01*
X95138333Y-132182380D02*
X95138333Y-131182380D01*
X95614523Y-131182380D01*
X96519285Y-132182380D02*
X95947857Y-132182380D01*
X96233571Y-132182380D02*
X96233571Y-131182380D01*
X96138333Y-131325238D01*
X96043095Y-131420476D01*
X95947857Y-131468095D01*
X96106666Y-43393571D02*
X95773333Y-43393571D01*
X95773333Y-43917380D02*
X95773333Y-42917380D01*
X96249523Y-42917380D01*
X96582857Y-43012619D02*
X96630476Y-42965000D01*
X96725714Y-42917380D01*
X96963809Y-42917380D01*
X97059047Y-42965000D01*
X97106666Y-43012619D01*
X97154285Y-43107857D01*
X97154285Y-43203095D01*
X97106666Y-43345952D01*
X96535238Y-43917380D01*
X97154285Y-43917380D01*
X86852380Y-62223095D02*
X85852380Y-62223095D01*
X86328571Y-62223095D02*
X86328571Y-61651666D01*
X86852380Y-61651666D02*
X85852380Y-61651666D01*
X86804761Y-61223095D02*
X86852380Y-61080238D01*
X86852380Y-60842142D01*
X86804761Y-60746904D01*
X86757142Y-60699285D01*
X86661904Y-60651666D01*
X86566666Y-60651666D01*
X86471428Y-60699285D01*
X86423809Y-60746904D01*
X86376190Y-60842142D01*
X86328571Y-61032619D01*
X86280952Y-61127857D01*
X86233333Y-61175476D01*
X86138095Y-61223095D01*
X86042857Y-61223095D01*
X85947619Y-61175476D01*
X85900000Y-61127857D01*
X85852380Y-61032619D01*
X85852380Y-60794523D01*
X85900000Y-60651666D01*
X85947619Y-60270714D02*
X85900000Y-60223095D01*
X85852380Y-60127857D01*
X85852380Y-59889761D01*
X85900000Y-59794523D01*
X85947619Y-59746904D01*
X86042857Y-59699285D01*
X86138095Y-59699285D01*
X86280952Y-59746904D01*
X86852380Y-60318333D01*
X86852380Y-59699285D01*
X140192166Y-113765380D02*
X140192166Y-114479666D01*
X140144547Y-114622523D01*
X140049309Y-114717761D01*
X139906452Y-114765380D01*
X139811214Y-114765380D01*
X141192166Y-114765380D02*
X140620738Y-114765380D01*
X140906452Y-114765380D02*
X140906452Y-113765380D01*
X140811214Y-113908238D01*
X140715976Y-114003476D01*
X140620738Y-114051095D01*
X140065166Y-109447380D02*
X140065166Y-110161666D01*
X140017547Y-110304523D01*
X139922309Y-110399761D01*
X139779452Y-110447380D01*
X139684214Y-110447380D01*
X140493738Y-109542619D02*
X140541357Y-109495000D01*
X140636595Y-109447380D01*
X140874690Y-109447380D01*
X140969928Y-109495000D01*
X141017547Y-109542619D01*
X141065166Y-109637857D01*
X141065166Y-109733095D01*
X141017547Y-109875952D01*
X140446119Y-110447380D01*
X141065166Y-110447380D01*
X68818166Y-67701880D02*
X68818166Y-68416166D01*
X68770547Y-68559023D01*
X68675309Y-68654261D01*
X68532452Y-68701880D01*
X68437214Y-68701880D01*
X69199119Y-67701880D02*
X69818166Y-67701880D01*
X69484833Y-68082833D01*
X69627690Y-68082833D01*
X69722928Y-68130452D01*
X69770547Y-68178071D01*
X69818166Y-68273309D01*
X69818166Y-68511404D01*
X69770547Y-68606642D01*
X69722928Y-68654261D01*
X69627690Y-68701880D01*
X69341976Y-68701880D01*
X69246738Y-68654261D01*
X69199119Y-68606642D01*
X85010666Y-83767380D02*
X85010666Y-84481666D01*
X84963047Y-84624523D01*
X84867809Y-84719761D01*
X84724952Y-84767380D01*
X84629714Y-84767380D01*
X85915428Y-84100714D02*
X85915428Y-84767380D01*
X85677333Y-83719761D02*
X85439238Y-84434047D01*
X86058285Y-84434047D01*
X111656904Y-127582380D02*
X111656904Y-128296666D01*
X111609285Y-128439523D01*
X111514047Y-128534761D01*
X111371190Y-128582380D01*
X111275952Y-128582380D01*
X112609285Y-128582380D02*
X112133095Y-128582380D01*
X112133095Y-127582380D01*
X113466428Y-128582380D02*
X112895000Y-128582380D01*
X113180714Y-128582380D02*
X113180714Y-127582380D01*
X113085476Y-127725238D01*
X112990238Y-127820476D01*
X112895000Y-127868095D01*
X112291904Y-39317380D02*
X112291904Y-40031666D01*
X112244285Y-40174523D01*
X112149047Y-40269761D01*
X112006190Y-40317380D01*
X111910952Y-40317380D01*
X113244285Y-40317380D02*
X112768095Y-40317380D01*
X112768095Y-39317380D01*
X113530000Y-39412619D02*
X113577619Y-39365000D01*
X113672857Y-39317380D01*
X113910952Y-39317380D01*
X114006190Y-39365000D01*
X114053809Y-39412619D01*
X114101428Y-39507857D01*
X114101428Y-39603095D01*
X114053809Y-39745952D01*
X113482380Y-40317380D01*
X114101428Y-40317380D01*
X61562380Y-82462666D02*
X61562380Y-82938857D01*
X60562380Y-82938857D01*
X61562380Y-81605523D02*
X61562380Y-82176952D01*
X61562380Y-81891238D02*
X60562380Y-81891238D01*
X60705238Y-81986476D01*
X60800476Y-82081714D01*
X60848095Y-82176952D01*
X107901904Y-92727380D02*
X107901904Y-91727380D01*
X108282857Y-91727380D01*
X108378095Y-91775000D01*
X108425714Y-91822619D01*
X108473333Y-91917857D01*
X108473333Y-92060714D01*
X108425714Y-92155952D01*
X108378095Y-92203571D01*
X108282857Y-92251190D01*
X107901904Y-92251190D01*
X109473333Y-92727380D02*
X109140000Y-92251190D01*
X108901904Y-92727380D02*
X108901904Y-91727380D01*
X109282857Y-91727380D01*
X109378095Y-91775000D01*
X109425714Y-91822619D01*
X109473333Y-91917857D01*
X109473333Y-92060714D01*
X109425714Y-92155952D01*
X109378095Y-92203571D01*
X109282857Y-92251190D01*
X108901904Y-92251190D01*
X110425714Y-92727380D02*
X109854285Y-92727380D01*
X110140000Y-92727380D02*
X110140000Y-91727380D01*
X110044761Y-91870238D01*
X109949523Y-91965476D01*
X109854285Y-92013095D01*
X139927761Y-48909619D02*
X139832523Y-48862000D01*
X139737285Y-48766761D01*
X139594428Y-48623904D01*
X139499190Y-48576285D01*
X139403952Y-48576285D01*
X139451571Y-48814380D02*
X139356333Y-48766761D01*
X139261095Y-48671523D01*
X139213476Y-48481047D01*
X139213476Y-48147714D01*
X139261095Y-47957238D01*
X139356333Y-47862000D01*
X139451571Y-47814380D01*
X139642047Y-47814380D01*
X139737285Y-47862000D01*
X139832523Y-47957238D01*
X139880142Y-48147714D01*
X139880142Y-48481047D01*
X139832523Y-48671523D01*
X139737285Y-48766761D01*
X139642047Y-48814380D01*
X139451571Y-48814380D01*
X140737285Y-47814380D02*
X140546809Y-47814380D01*
X140451571Y-47862000D01*
X140403952Y-47909619D01*
X140308714Y-48052476D01*
X140261095Y-48242952D01*
X140261095Y-48623904D01*
X140308714Y-48719142D01*
X140356333Y-48766761D01*
X140451571Y-48814380D01*
X140642047Y-48814380D01*
X140737285Y-48766761D01*
X140784904Y-48719142D01*
X140832523Y-48623904D01*
X140832523Y-48385809D01*
X140784904Y-48290571D01*
X140737285Y-48242952D01*
X140642047Y-48195333D01*
X140451571Y-48195333D01*
X140356333Y-48242952D01*
X140308714Y-48290571D01*
X140261095Y-48385809D01*
X88463595Y-83830880D02*
X89035023Y-83830880D01*
X88749309Y-84830880D02*
X88749309Y-83830880D01*
X89368357Y-84830880D02*
X89368357Y-83830880D01*
X89749309Y-83830880D01*
X89844547Y-83878500D01*
X89892166Y-83926119D01*
X89939785Y-84021357D01*
X89939785Y-84164214D01*
X89892166Y-84259452D01*
X89844547Y-84307071D01*
X89749309Y-84354690D01*
X89368357Y-84354690D01*
X90796928Y-83830880D02*
X90606452Y-83830880D01*
X90511214Y-83878500D01*
X90463595Y-83926119D01*
X90368357Y-84068976D01*
X90320738Y-84259452D01*
X90320738Y-84640404D01*
X90368357Y-84735642D01*
X90415976Y-84783261D01*
X90511214Y-84830880D01*
X90701690Y-84830880D01*
X90796928Y-84783261D01*
X90844547Y-84735642D01*
X90892166Y-84640404D01*
X90892166Y-84402309D01*
X90844547Y-84307071D01*
X90796928Y-84259452D01*
X90701690Y-84211833D01*
X90511214Y-84211833D01*
X90415976Y-84259452D01*
X90368357Y-84307071D01*
X90320738Y-84402309D01*
X129796595Y-111872380D02*
X130368023Y-111872380D01*
X130082309Y-112872380D02*
X130082309Y-111872380D01*
X131272785Y-112872380D02*
X130939452Y-112396190D01*
X130701357Y-112872380D02*
X130701357Y-111872380D01*
X131082309Y-111872380D01*
X131177547Y-111920000D01*
X131225166Y-111967619D01*
X131272785Y-112062857D01*
X131272785Y-112205714D01*
X131225166Y-112300952D01*
X131177547Y-112348571D01*
X131082309Y-112396190D01*
X130701357Y-112396190D01*
X132225166Y-112872380D02*
X131653738Y-112872380D01*
X131939452Y-112872380D02*
X131939452Y-111872380D01*
X131844214Y-112015238D01*
X131748976Y-112110476D01*
X131653738Y-112158095D01*
X126621595Y-100037380D02*
X127193023Y-100037380D01*
X126907309Y-101037380D02*
X126907309Y-100037380D01*
X128097785Y-101037380D02*
X127764452Y-100561190D01*
X127526357Y-101037380D02*
X127526357Y-100037380D01*
X127907309Y-100037380D01*
X128002547Y-100085000D01*
X128050166Y-100132619D01*
X128097785Y-100227857D01*
X128097785Y-100370714D01*
X128050166Y-100465952D01*
X128002547Y-100513571D01*
X127907309Y-100561190D01*
X127526357Y-100561190D01*
X128478738Y-100132619D02*
X128526357Y-100085000D01*
X128621595Y-100037380D01*
X128859690Y-100037380D01*
X128954928Y-100085000D01*
X129002547Y-100132619D01*
X129050166Y-100227857D01*
X129050166Y-100323095D01*
X129002547Y-100465952D01*
X128431119Y-101037380D01*
X129050166Y-101037380D01*
X120144595Y-100442380D02*
X120716023Y-100442380D01*
X120430309Y-101442380D02*
X120430309Y-100442380D01*
X121620785Y-101442380D02*
X121287452Y-100966190D01*
X121049357Y-101442380D02*
X121049357Y-100442380D01*
X121430309Y-100442380D01*
X121525547Y-100490000D01*
X121573166Y-100537619D01*
X121620785Y-100632857D01*
X121620785Y-100775714D01*
X121573166Y-100870952D01*
X121525547Y-100918571D01*
X121430309Y-100966190D01*
X121049357Y-100966190D01*
X121954119Y-100442380D02*
X122573166Y-100442380D01*
X122239833Y-100823333D01*
X122382690Y-100823333D01*
X122477928Y-100870952D01*
X122525547Y-100918571D01*
X122573166Y-101013809D01*
X122573166Y-101251904D01*
X122525547Y-101347142D01*
X122477928Y-101394761D01*
X122382690Y-101442380D01*
X122096976Y-101442380D01*
X122001738Y-101394761D01*
X121954119Y-101347142D01*
X129185295Y-49973380D02*
X129756723Y-49973380D01*
X129471009Y-50973380D02*
X129471009Y-49973380D01*
X130661485Y-50973380D02*
X130328152Y-50497190D01*
X130090057Y-50973380D02*
X130090057Y-49973380D01*
X130471009Y-49973380D01*
X130566247Y-50021000D01*
X130613866Y-50068619D01*
X130661485Y-50163857D01*
X130661485Y-50306714D01*
X130613866Y-50401952D01*
X130566247Y-50449571D01*
X130471009Y-50497190D01*
X130090057Y-50497190D01*
X131518628Y-50306714D02*
X131518628Y-50973380D01*
X131280533Y-49925761D02*
X131042438Y-50640047D01*
X131661485Y-50640047D01*
X100650095Y-114031380D02*
X101221523Y-114031380D01*
X100935809Y-115031380D02*
X100935809Y-114031380D01*
X102126285Y-115031380D02*
X101792952Y-114555190D01*
X101554857Y-115031380D02*
X101554857Y-114031380D01*
X101935809Y-114031380D01*
X102031047Y-114079000D01*
X102078666Y-114126619D01*
X102126285Y-114221857D01*
X102126285Y-114364714D01*
X102078666Y-114459952D01*
X102031047Y-114507571D01*
X101935809Y-114555190D01*
X101554857Y-114555190D01*
X103031047Y-114031380D02*
X102554857Y-114031380D01*
X102507238Y-114507571D01*
X102554857Y-114459952D01*
X102650095Y-114412333D01*
X102888190Y-114412333D01*
X102983428Y-114459952D01*
X103031047Y-114507571D01*
X103078666Y-114602809D01*
X103078666Y-114840904D01*
X103031047Y-114936142D01*
X102983428Y-114983761D01*
X102888190Y-115031380D01*
X102650095Y-115031380D01*
X102554857Y-114983761D01*
X102507238Y-114936142D01*
X95282380Y-103496904D02*
X95282380Y-102925476D01*
X96282380Y-103211190D02*
X95282380Y-103211190D01*
X96282380Y-102020714D02*
X95806190Y-102354047D01*
X96282380Y-102592142D02*
X95282380Y-102592142D01*
X95282380Y-102211190D01*
X95330000Y-102115952D01*
X95377619Y-102068333D01*
X95472857Y-102020714D01*
X95615714Y-102020714D01*
X95710952Y-102068333D01*
X95758571Y-102115952D01*
X95806190Y-102211190D01*
X95806190Y-102592142D01*
X95282380Y-101163571D02*
X95282380Y-101354047D01*
X95330000Y-101449285D01*
X95377619Y-101496904D01*
X95520476Y-101592142D01*
X95710952Y-101639761D01*
X96091904Y-101639761D01*
X96187142Y-101592142D01*
X96234761Y-101544523D01*
X96282380Y-101449285D01*
X96282380Y-101258809D01*
X96234761Y-101163571D01*
X96187142Y-101115952D01*
X96091904Y-101068333D01*
X95853809Y-101068333D01*
X95758571Y-101115952D01*
X95710952Y-101163571D01*
X95663333Y-101258809D01*
X95663333Y-101449285D01*
X95710952Y-101544523D01*
X95758571Y-101592142D01*
X95853809Y-101639761D01*
X68532880Y-124377404D02*
X68532880Y-123805976D01*
X69532880Y-124091690D02*
X68532880Y-124091690D01*
X69532880Y-122901214D02*
X69056690Y-123234547D01*
X69532880Y-123472642D02*
X68532880Y-123472642D01*
X68532880Y-123091690D01*
X68580500Y-122996452D01*
X68628119Y-122948833D01*
X68723357Y-122901214D01*
X68866214Y-122901214D01*
X68961452Y-122948833D01*
X69009071Y-122996452D01*
X69056690Y-123091690D01*
X69056690Y-123472642D01*
X68532880Y-122567880D02*
X68532880Y-121901214D01*
X69532880Y-122329785D01*
X95282380Y-62221904D02*
X95282380Y-61650476D01*
X96282380Y-61936190D02*
X95282380Y-61936190D01*
X96282380Y-60745714D02*
X95806190Y-61079047D01*
X96282380Y-61317142D02*
X95282380Y-61317142D01*
X95282380Y-60936190D01*
X95330000Y-60840952D01*
X95377619Y-60793333D01*
X95472857Y-60745714D01*
X95615714Y-60745714D01*
X95710952Y-60793333D01*
X95758571Y-60840952D01*
X95806190Y-60936190D01*
X95806190Y-61317142D01*
X95710952Y-60174285D02*
X95663333Y-60269523D01*
X95615714Y-60317142D01*
X95520476Y-60364761D01*
X95472857Y-60364761D01*
X95377619Y-60317142D01*
X95330000Y-60269523D01*
X95282380Y-60174285D01*
X95282380Y-59983809D01*
X95330000Y-59888571D01*
X95377619Y-59840952D01*
X95472857Y-59793333D01*
X95520476Y-59793333D01*
X95615714Y-59840952D01*
X95663333Y-59888571D01*
X95710952Y-59983809D01*
X95710952Y-60174285D01*
X95758571Y-60269523D01*
X95806190Y-60317142D01*
X95901428Y-60364761D01*
X96091904Y-60364761D01*
X96187142Y-60317142D01*
X96234761Y-60269523D01*
X96282380Y-60174285D01*
X96282380Y-59983809D01*
X96234761Y-59888571D01*
X96187142Y-59840952D01*
X96091904Y-59793333D01*
X95901428Y-59793333D01*
X95806190Y-59840952D01*
X95758571Y-59888571D01*
X95710952Y-59983809D01*
X68532880Y-42357404D02*
X68532880Y-41785976D01*
X69532880Y-42071690D02*
X68532880Y-42071690D01*
X69532880Y-40881214D02*
X69056690Y-41214547D01*
X69532880Y-41452642D02*
X68532880Y-41452642D01*
X68532880Y-41071690D01*
X68580500Y-40976452D01*
X68628119Y-40928833D01*
X68723357Y-40881214D01*
X68866214Y-40881214D01*
X68961452Y-40928833D01*
X69009071Y-40976452D01*
X69056690Y-41071690D01*
X69056690Y-41452642D01*
X69532880Y-40405023D02*
X69532880Y-40214547D01*
X69485261Y-40119309D01*
X69437642Y-40071690D01*
X69294785Y-39976452D01*
X69104309Y-39928833D01*
X68723357Y-39928833D01*
X68628119Y-39976452D01*
X68580500Y-40024071D01*
X68532880Y-40119309D01*
X68532880Y-40309785D01*
X68580500Y-40405023D01*
X68628119Y-40452642D01*
X68723357Y-40500261D01*
X68961452Y-40500261D01*
X69056690Y-40452642D01*
X69104309Y-40405023D01*
X69151928Y-40309785D01*
X69151928Y-40119309D01*
X69104309Y-40024071D01*
X69056690Y-39976452D01*
X68961452Y-39928833D01*
X126410404Y-87692380D02*
X126981833Y-87692380D01*
X126696119Y-88692380D02*
X126696119Y-87692380D01*
X127886595Y-88692380D02*
X127553261Y-88216190D01*
X127315166Y-88692380D02*
X127315166Y-87692380D01*
X127696119Y-87692380D01*
X127791357Y-87740000D01*
X127838976Y-87787619D01*
X127886595Y-87882857D01*
X127886595Y-88025714D01*
X127838976Y-88120952D01*
X127791357Y-88168571D01*
X127696119Y-88216190D01*
X127315166Y-88216190D01*
X128838976Y-88692380D02*
X128267547Y-88692380D01*
X128553261Y-88692380D02*
X128553261Y-87692380D01*
X128458023Y-87835238D01*
X128362785Y-87930476D01*
X128267547Y-87978095D01*
X129458023Y-87692380D02*
X129553261Y-87692380D01*
X129648500Y-87740000D01*
X129696119Y-87787619D01*
X129743738Y-87882857D01*
X129791357Y-88073333D01*
X129791357Y-88311428D01*
X129743738Y-88501904D01*
X129696119Y-88597142D01*
X129648500Y-88644761D01*
X129553261Y-88692380D01*
X129458023Y-88692380D01*
X129362785Y-88644761D01*
X129315166Y-88597142D01*
X129267547Y-88501904D01*
X129219928Y-88311428D01*
X129219928Y-88073333D01*
X129267547Y-87882857D01*
X129315166Y-87787619D01*
X129362785Y-87740000D01*
X129458023Y-87692380D01*
X119996904Y-87692380D02*
X120568333Y-87692380D01*
X120282619Y-88692380D02*
X120282619Y-87692380D01*
X121473095Y-88692380D02*
X121139761Y-88216190D01*
X120901666Y-88692380D02*
X120901666Y-87692380D01*
X121282619Y-87692380D01*
X121377857Y-87740000D01*
X121425476Y-87787619D01*
X121473095Y-87882857D01*
X121473095Y-88025714D01*
X121425476Y-88120952D01*
X121377857Y-88168571D01*
X121282619Y-88216190D01*
X120901666Y-88216190D01*
X122425476Y-88692380D02*
X121854047Y-88692380D01*
X122139761Y-88692380D02*
X122139761Y-87692380D01*
X122044523Y-87835238D01*
X121949285Y-87930476D01*
X121854047Y-87978095D01*
X123377857Y-88692380D02*
X122806428Y-88692380D01*
X123092142Y-88692380D02*
X123092142Y-87692380D01*
X122996904Y-87835238D01*
X122901666Y-87930476D01*
X122806428Y-87978095D01*
X128823404Y-58101380D02*
X129394833Y-58101380D01*
X129109119Y-59101380D02*
X129109119Y-58101380D01*
X130299595Y-59101380D02*
X129966261Y-58625190D01*
X129728166Y-59101380D02*
X129728166Y-58101380D01*
X130109119Y-58101380D01*
X130204357Y-58149000D01*
X130251976Y-58196619D01*
X130299595Y-58291857D01*
X130299595Y-58434714D01*
X130251976Y-58529952D01*
X130204357Y-58577571D01*
X130109119Y-58625190D01*
X129728166Y-58625190D01*
X131251976Y-59101380D02*
X130680547Y-59101380D01*
X130966261Y-59101380D02*
X130966261Y-58101380D01*
X130871023Y-58244238D01*
X130775785Y-58339476D01*
X130680547Y-58387095D01*
X131632928Y-58196619D02*
X131680547Y-58149000D01*
X131775785Y-58101380D01*
X132013880Y-58101380D01*
X132109119Y-58149000D01*
X132156738Y-58196619D01*
X132204357Y-58291857D01*
X132204357Y-58387095D01*
X132156738Y-58529952D01*
X131585309Y-59101380D01*
X132204357Y-59101380D01*
X81422380Y-103973095D02*
X81422380Y-103401666D01*
X82422380Y-103687380D02*
X81422380Y-103687380D01*
X82422380Y-102496904D02*
X81946190Y-102830238D01*
X82422380Y-103068333D02*
X81422380Y-103068333D01*
X81422380Y-102687380D01*
X81470000Y-102592142D01*
X81517619Y-102544523D01*
X81612857Y-102496904D01*
X81755714Y-102496904D01*
X81850952Y-102544523D01*
X81898571Y-102592142D01*
X81946190Y-102687380D01*
X81946190Y-103068333D01*
X82422380Y-101544523D02*
X82422380Y-102115952D01*
X82422380Y-101830238D02*
X81422380Y-101830238D01*
X81565238Y-101925476D01*
X81660476Y-102020714D01*
X81708095Y-102115952D01*
X81422380Y-101211190D02*
X81422380Y-100592142D01*
X81803333Y-100925476D01*
X81803333Y-100782619D01*
X81850952Y-100687380D01*
X81898571Y-100639761D01*
X81993809Y-100592142D01*
X82231904Y-100592142D01*
X82327142Y-100639761D01*
X82374761Y-100687380D01*
X82422380Y-100782619D01*
X82422380Y-101068333D01*
X82374761Y-101163571D01*
X82327142Y-101211190D01*
X101966380Y-63465595D02*
X101966380Y-62894166D01*
X102966380Y-63179880D02*
X101966380Y-63179880D01*
X102966380Y-61989404D02*
X102490190Y-62322738D01*
X102966380Y-62560833D02*
X101966380Y-62560833D01*
X101966380Y-62179880D01*
X102014000Y-62084642D01*
X102061619Y-62037023D01*
X102156857Y-61989404D01*
X102299714Y-61989404D01*
X102394952Y-62037023D01*
X102442571Y-62084642D01*
X102490190Y-62179880D01*
X102490190Y-62560833D01*
X102966380Y-61037023D02*
X102966380Y-61608452D01*
X102966380Y-61322738D02*
X101966380Y-61322738D01*
X102109238Y-61417976D01*
X102204476Y-61513214D01*
X102252095Y-61608452D01*
X102299714Y-60179880D02*
X102966380Y-60179880D01*
X101918761Y-60417976D02*
X102633047Y-60656071D01*
X102633047Y-60037023D01*
X105201404Y-58990380D02*
X105772833Y-58990380D01*
X105487119Y-59990380D02*
X105487119Y-58990380D01*
X106677595Y-59990380D02*
X106344261Y-59514190D01*
X106106166Y-59990380D02*
X106106166Y-58990380D01*
X106487119Y-58990380D01*
X106582357Y-59038000D01*
X106629976Y-59085619D01*
X106677595Y-59180857D01*
X106677595Y-59323714D01*
X106629976Y-59418952D01*
X106582357Y-59466571D01*
X106487119Y-59514190D01*
X106106166Y-59514190D01*
X107629976Y-59990380D02*
X107058547Y-59990380D01*
X107344261Y-59990380D02*
X107344261Y-58990380D01*
X107249023Y-59133238D01*
X107153785Y-59228476D01*
X107058547Y-59276095D01*
X108534738Y-58990380D02*
X108058547Y-58990380D01*
X108010928Y-59466571D01*
X108058547Y-59418952D01*
X108153785Y-59371333D01*
X108391880Y-59371333D01*
X108487119Y-59418952D01*
X108534738Y-59466571D01*
X108582357Y-59561809D01*
X108582357Y-59799904D01*
X108534738Y-59895142D01*
X108487119Y-59942761D01*
X108391880Y-59990380D01*
X108153785Y-59990380D01*
X108058547Y-59942761D01*
X108010928Y-59895142D01*
X101137404Y-51306880D02*
X101708833Y-51306880D01*
X101423119Y-52306880D02*
X101423119Y-51306880D01*
X102613595Y-52306880D02*
X102280261Y-51830690D01*
X102042166Y-52306880D02*
X102042166Y-51306880D01*
X102423119Y-51306880D01*
X102518357Y-51354500D01*
X102565976Y-51402119D01*
X102613595Y-51497357D01*
X102613595Y-51640214D01*
X102565976Y-51735452D01*
X102518357Y-51783071D01*
X102423119Y-51830690D01*
X102042166Y-51830690D01*
X103565976Y-52306880D02*
X102994547Y-52306880D01*
X103280261Y-52306880D02*
X103280261Y-51306880D01*
X103185023Y-51449738D01*
X103089785Y-51544976D01*
X102994547Y-51592595D01*
X104423119Y-51306880D02*
X104232642Y-51306880D01*
X104137404Y-51354500D01*
X104089785Y-51402119D01*
X103994547Y-51544976D01*
X103946928Y-51735452D01*
X103946928Y-52116404D01*
X103994547Y-52211642D01*
X104042166Y-52259261D01*
X104137404Y-52306880D01*
X104327880Y-52306880D01*
X104423119Y-52259261D01*
X104470738Y-52211642D01*
X104518357Y-52116404D01*
X104518357Y-51878309D01*
X104470738Y-51783071D01*
X104423119Y-51735452D01*
X104327880Y-51687833D01*
X104137404Y-51687833D01*
X104042166Y-51735452D01*
X103994547Y-51783071D01*
X103946928Y-51878309D01*
X101073904Y-45337880D02*
X101645333Y-45337880D01*
X101359619Y-46337880D02*
X101359619Y-45337880D01*
X102550095Y-46337880D02*
X102216761Y-45861690D01*
X101978666Y-46337880D02*
X101978666Y-45337880D01*
X102359619Y-45337880D01*
X102454857Y-45385500D01*
X102502476Y-45433119D01*
X102550095Y-45528357D01*
X102550095Y-45671214D01*
X102502476Y-45766452D01*
X102454857Y-45814071D01*
X102359619Y-45861690D01*
X101978666Y-45861690D01*
X103502476Y-46337880D02*
X102931047Y-46337880D01*
X103216761Y-46337880D02*
X103216761Y-45337880D01*
X103121523Y-45480738D01*
X103026285Y-45575976D01*
X102931047Y-45623595D01*
X103835809Y-45337880D02*
X104502476Y-45337880D01*
X104073904Y-46337880D01*
X76361404Y-95362380D02*
X76932833Y-95362380D01*
X76647119Y-96362380D02*
X76647119Y-95362380D01*
X77837595Y-96362380D02*
X77504261Y-95886190D01*
X77266166Y-96362380D02*
X77266166Y-95362380D01*
X77647119Y-95362380D01*
X77742357Y-95410000D01*
X77789976Y-95457619D01*
X77837595Y-95552857D01*
X77837595Y-95695714D01*
X77789976Y-95790952D01*
X77742357Y-95838571D01*
X77647119Y-95886190D01*
X77266166Y-95886190D01*
X78789976Y-96362380D02*
X78218547Y-96362380D01*
X78504261Y-96362380D02*
X78504261Y-95362380D01*
X78409023Y-95505238D01*
X78313785Y-95600476D01*
X78218547Y-95648095D01*
X79361404Y-95790952D02*
X79266166Y-95743333D01*
X79218547Y-95695714D01*
X79170928Y-95600476D01*
X79170928Y-95552857D01*
X79218547Y-95457619D01*
X79266166Y-95410000D01*
X79361404Y-95362380D01*
X79551880Y-95362380D01*
X79647119Y-95410000D01*
X79694738Y-95457619D01*
X79742357Y-95552857D01*
X79742357Y-95600476D01*
X79694738Y-95695714D01*
X79647119Y-95743333D01*
X79551880Y-95790952D01*
X79361404Y-95790952D01*
X79266166Y-95838571D01*
X79218547Y-95886190D01*
X79170928Y-95981428D01*
X79170928Y-96171904D01*
X79218547Y-96267142D01*
X79266166Y-96314761D01*
X79361404Y-96362380D01*
X79551880Y-96362380D01*
X79647119Y-96314761D01*
X79694738Y-96267142D01*
X79742357Y-96171904D01*
X79742357Y-95981428D01*
X79694738Y-95886190D01*
X79647119Y-95838571D01*
X79551880Y-95790952D01*
X77388404Y-67499380D02*
X77959833Y-67499380D01*
X77674119Y-68499380D02*
X77674119Y-67499380D01*
X78864595Y-68499380D02*
X78531261Y-68023190D01*
X78293166Y-68499380D02*
X78293166Y-67499380D01*
X78674119Y-67499380D01*
X78769357Y-67547000D01*
X78816976Y-67594619D01*
X78864595Y-67689857D01*
X78864595Y-67832714D01*
X78816976Y-67927952D01*
X78769357Y-67975571D01*
X78674119Y-68023190D01*
X78293166Y-68023190D01*
X79816976Y-68499380D02*
X79245547Y-68499380D01*
X79531261Y-68499380D02*
X79531261Y-67499380D01*
X79436023Y-67642238D01*
X79340785Y-67737476D01*
X79245547Y-67785095D01*
X80293166Y-68499380D02*
X80483642Y-68499380D01*
X80578880Y-68451761D01*
X80626500Y-68404142D01*
X80721738Y-68261285D01*
X80769357Y-68070809D01*
X80769357Y-67689857D01*
X80721738Y-67594619D01*
X80674119Y-67547000D01*
X80578880Y-67499380D01*
X80388404Y-67499380D01*
X80293166Y-67547000D01*
X80245547Y-67594619D01*
X80197928Y-67689857D01*
X80197928Y-67927952D01*
X80245547Y-68023190D01*
X80293166Y-68070809D01*
X80388404Y-68118428D01*
X80578880Y-68118428D01*
X80674119Y-68070809D01*
X80721738Y-68023190D01*
X80769357Y-67927952D01*
X107349404Y-89647380D02*
X107920833Y-89647380D01*
X107635119Y-90647380D02*
X107635119Y-89647380D01*
X108825595Y-90647380D02*
X108492261Y-90171190D01*
X108254166Y-90647380D02*
X108254166Y-89647380D01*
X108635119Y-89647380D01*
X108730357Y-89695000D01*
X108777976Y-89742619D01*
X108825595Y-89837857D01*
X108825595Y-89980714D01*
X108777976Y-90075952D01*
X108730357Y-90123571D01*
X108635119Y-90171190D01*
X108254166Y-90171190D01*
X109206547Y-89742619D02*
X109254166Y-89695000D01*
X109349404Y-89647380D01*
X109587500Y-89647380D01*
X109682738Y-89695000D01*
X109730357Y-89742619D01*
X109777976Y-89837857D01*
X109777976Y-89933095D01*
X109730357Y-90075952D01*
X109158928Y-90647380D01*
X109777976Y-90647380D01*
X110397023Y-89647380D02*
X110492261Y-89647380D01*
X110587500Y-89695000D01*
X110635119Y-89742619D01*
X110682738Y-89837857D01*
X110730357Y-90028333D01*
X110730357Y-90266428D01*
X110682738Y-90456904D01*
X110635119Y-90552142D01*
X110587500Y-90599761D01*
X110492261Y-90647380D01*
X110397023Y-90647380D01*
X110301785Y-90599761D01*
X110254166Y-90552142D01*
X110206547Y-90456904D01*
X110158928Y-90266428D01*
X110158928Y-90028333D01*
X110206547Y-89837857D01*
X110254166Y-89742619D01*
X110301785Y-89695000D01*
X110397023Y-89647380D01*
X107730404Y-120127380D02*
X108301833Y-120127380D01*
X108016119Y-121127380D02*
X108016119Y-120127380D01*
X109206595Y-121127380D02*
X108873261Y-120651190D01*
X108635166Y-121127380D02*
X108635166Y-120127380D01*
X109016119Y-120127380D01*
X109111357Y-120175000D01*
X109158976Y-120222619D01*
X109206595Y-120317857D01*
X109206595Y-120460714D01*
X109158976Y-120555952D01*
X109111357Y-120603571D01*
X109016119Y-120651190D01*
X108635166Y-120651190D01*
X109587547Y-120222619D02*
X109635166Y-120175000D01*
X109730404Y-120127380D01*
X109968500Y-120127380D01*
X110063738Y-120175000D01*
X110111357Y-120222619D01*
X110158976Y-120317857D01*
X110158976Y-120413095D01*
X110111357Y-120555952D01*
X109539928Y-121127380D01*
X110158976Y-121127380D01*
X111111357Y-121127380D02*
X110539928Y-121127380D01*
X110825642Y-121127380D02*
X110825642Y-120127380D01*
X110730404Y-120270238D01*
X110635166Y-120365476D01*
X110539928Y-120413095D01*
X68532880Y-59978595D02*
X68532880Y-59407166D01*
X69532880Y-59692880D02*
X68532880Y-59692880D01*
X69532880Y-58502404D02*
X69056690Y-58835738D01*
X69532880Y-59073833D02*
X68532880Y-59073833D01*
X68532880Y-58692880D01*
X68580500Y-58597642D01*
X68628119Y-58550023D01*
X68723357Y-58502404D01*
X68866214Y-58502404D01*
X68961452Y-58550023D01*
X69009071Y-58597642D01*
X69056690Y-58692880D01*
X69056690Y-59073833D01*
X69532880Y-58026214D02*
X69532880Y-57835738D01*
X69485261Y-57740500D01*
X69437642Y-57692880D01*
X69294785Y-57597642D01*
X69104309Y-57550023D01*
X68723357Y-57550023D01*
X68628119Y-57597642D01*
X68580500Y-57645261D01*
X68532880Y-57740500D01*
X68532880Y-57930976D01*
X68580500Y-58026214D01*
X68628119Y-58073833D01*
X68723357Y-58121452D01*
X68961452Y-58121452D01*
X69056690Y-58073833D01*
X69104309Y-58026214D01*
X69151928Y-57930976D01*
X69151928Y-57740500D01*
X69104309Y-57645261D01*
X69056690Y-57597642D01*
X68961452Y-57550023D01*
X69532880Y-57073833D02*
X69532880Y-56883357D01*
X69485261Y-56788119D01*
X69437642Y-56740500D01*
X69294785Y-56645261D01*
X69104309Y-56597642D01*
X68723357Y-56597642D01*
X68628119Y-56645261D01*
X68580500Y-56692880D01*
X68532880Y-56788119D01*
X68532880Y-56978595D01*
X68580500Y-57073833D01*
X68628119Y-57121452D01*
X68723357Y-57169071D01*
X68961452Y-57169071D01*
X69056690Y-57121452D01*
X69104309Y-57073833D01*
X69151928Y-56978595D01*
X69151928Y-56788119D01*
X69104309Y-56692880D01*
X69056690Y-56645261D01*
X68961452Y-56597642D01*
X66729880Y-87658857D02*
X66253690Y-87992190D01*
X66729880Y-88230285D02*
X65729880Y-88230285D01*
X65729880Y-87849333D01*
X65777500Y-87754095D01*
X65825119Y-87706476D01*
X65920357Y-87658857D01*
X66063214Y-87658857D01*
X66158452Y-87706476D01*
X66206071Y-87754095D01*
X66253690Y-87849333D01*
X66253690Y-88230285D01*
X66729880Y-86706476D02*
X66729880Y-87277904D01*
X66729880Y-86992190D02*
X65729880Y-86992190D01*
X65872738Y-87087428D01*
X65967976Y-87182666D01*
X66015595Y-87277904D01*
X65729880Y-85849333D02*
X65729880Y-86039809D01*
X65777500Y-86135047D01*
X65825119Y-86182666D01*
X65967976Y-86277904D01*
X66158452Y-86325523D01*
X66539404Y-86325523D01*
X66634642Y-86277904D01*
X66682261Y-86230285D01*
X66729880Y-86135047D01*
X66729880Y-85944571D01*
X66682261Y-85849333D01*
X66634642Y-85801714D01*
X66539404Y-85754095D01*
X66301309Y-85754095D01*
X66206071Y-85801714D01*
X66158452Y-85849333D01*
X66110833Y-85944571D01*
X66110833Y-86135047D01*
X66158452Y-86230285D01*
X66206071Y-86277904D01*
X66301309Y-86325523D01*
X66793380Y-77075857D02*
X66317190Y-77409190D01*
X66793380Y-77647285D02*
X65793380Y-77647285D01*
X65793380Y-77266333D01*
X65841000Y-77171095D01*
X65888619Y-77123476D01*
X65983857Y-77075857D01*
X66126714Y-77075857D01*
X66221952Y-77123476D01*
X66269571Y-77171095D01*
X66317190Y-77266333D01*
X66317190Y-77647285D01*
X66793380Y-76123476D02*
X66793380Y-76694904D01*
X66793380Y-76409190D02*
X65793380Y-76409190D01*
X65936238Y-76504428D01*
X66031476Y-76599666D01*
X66079095Y-76694904D01*
X65793380Y-75790142D02*
X65793380Y-75123476D01*
X66793380Y-75552047D01*
X131961833Y-56492142D02*
X131914214Y-56539761D01*
X131771357Y-56587380D01*
X131676119Y-56587380D01*
X131533261Y-56539761D01*
X131438023Y-56444523D01*
X131390404Y-56349285D01*
X131342785Y-56158809D01*
X131342785Y-56015952D01*
X131390404Y-55825476D01*
X131438023Y-55730238D01*
X131533261Y-55635000D01*
X131676119Y-55587380D01*
X131771357Y-55587380D01*
X131914214Y-55635000D01*
X131961833Y-55682619D01*
X132295166Y-55587380D02*
X132914214Y-55587380D01*
X132580880Y-55968333D01*
X132723738Y-55968333D01*
X132818976Y-56015952D01*
X132866595Y-56063571D01*
X132914214Y-56158809D01*
X132914214Y-56396904D01*
X132866595Y-56492142D01*
X132818976Y-56539761D01*
X132723738Y-56587380D01*
X132438023Y-56587380D01*
X132342785Y-56539761D01*
X132295166Y-56492142D01*
X80812642Y-82130166D02*
X80860261Y-82177785D01*
X80907880Y-82320642D01*
X80907880Y-82415880D01*
X80860261Y-82558738D01*
X80765023Y-82653976D01*
X80669785Y-82701595D01*
X80479309Y-82749214D01*
X80336452Y-82749214D01*
X80145976Y-82701595D01*
X80050738Y-82653976D01*
X79955500Y-82558738D01*
X79907880Y-82415880D01*
X79907880Y-82320642D01*
X79955500Y-82177785D01*
X80003119Y-82130166D01*
X79907880Y-81273023D02*
X79907880Y-81463500D01*
X79955500Y-81558738D01*
X80003119Y-81606357D01*
X80145976Y-81701595D01*
X80336452Y-81749214D01*
X80717404Y-81749214D01*
X80812642Y-81701595D01*
X80860261Y-81653976D01*
X80907880Y-81558738D01*
X80907880Y-81368261D01*
X80860261Y-81273023D01*
X80812642Y-81225404D01*
X80717404Y-81177785D01*
X80479309Y-81177785D01*
X80384071Y-81225404D01*
X80336452Y-81273023D01*
X80288833Y-81368261D01*
X80288833Y-81558738D01*
X80336452Y-81653976D01*
X80384071Y-81701595D01*
X80479309Y-81749214D01*
X136754333Y-107990642D02*
X136706714Y-108038261D01*
X136563857Y-108085880D01*
X136468619Y-108085880D01*
X136325761Y-108038261D01*
X136230523Y-107943023D01*
X136182904Y-107847785D01*
X136135285Y-107657309D01*
X136135285Y-107514452D01*
X136182904Y-107323976D01*
X136230523Y-107228738D01*
X136325761Y-107133500D01*
X136468619Y-107085880D01*
X136563857Y-107085880D01*
X136706714Y-107133500D01*
X136754333Y-107181119D01*
X137087666Y-107085880D02*
X137754333Y-107085880D01*
X137325761Y-108085880D01*
X91749642Y-53698142D02*
X91702023Y-53745761D01*
X91559166Y-53793380D01*
X91463928Y-53793380D01*
X91321071Y-53745761D01*
X91225833Y-53650523D01*
X91178214Y-53555285D01*
X91130595Y-53364809D01*
X91130595Y-53221952D01*
X91178214Y-53031476D01*
X91225833Y-52936238D01*
X91321071Y-52841000D01*
X91463928Y-52793380D01*
X91559166Y-52793380D01*
X91702023Y-52841000D01*
X91749642Y-52888619D01*
X92702023Y-53793380D02*
X92130595Y-53793380D01*
X92416309Y-53793380D02*
X92416309Y-52793380D01*
X92321071Y-52936238D01*
X92225833Y-53031476D01*
X92130595Y-53079095D01*
X93035357Y-52793380D02*
X93654404Y-52793380D01*
X93321071Y-53174333D01*
X93463928Y-53174333D01*
X93559166Y-53221952D01*
X93606785Y-53269571D01*
X93654404Y-53364809D01*
X93654404Y-53602904D01*
X93606785Y-53698142D01*
X93559166Y-53745761D01*
X93463928Y-53793380D01*
X93178214Y-53793380D01*
X93082976Y-53745761D01*
X93035357Y-53698142D01*
X134087142Y-98862357D02*
X134134761Y-98909976D01*
X134182380Y-99052833D01*
X134182380Y-99148071D01*
X134134761Y-99290928D01*
X134039523Y-99386166D01*
X133944285Y-99433785D01*
X133753809Y-99481404D01*
X133610952Y-99481404D01*
X133420476Y-99433785D01*
X133325238Y-99386166D01*
X133230000Y-99290928D01*
X133182380Y-99148071D01*
X133182380Y-99052833D01*
X133230000Y-98909976D01*
X133277619Y-98862357D01*
X134182380Y-97909976D02*
X134182380Y-98481404D01*
X134182380Y-98195690D02*
X133182380Y-98195690D01*
X133325238Y-98290928D01*
X133420476Y-98386166D01*
X133468095Y-98481404D01*
X133182380Y-97052833D02*
X133182380Y-97243309D01*
X133230000Y-97338547D01*
X133277619Y-97386166D01*
X133420476Y-97481404D01*
X133610952Y-97529023D01*
X133991904Y-97529023D01*
X134087142Y-97481404D01*
X134134761Y-97433785D01*
X134182380Y-97338547D01*
X134182380Y-97148071D01*
X134134761Y-97052833D01*
X134087142Y-97005214D01*
X133991904Y-96957595D01*
X133753809Y-96957595D01*
X133658571Y-97005214D01*
X133610952Y-97052833D01*
X133563333Y-97148071D01*
X133563333Y-97338547D01*
X133610952Y-97433785D01*
X133658571Y-97481404D01*
X133753809Y-97529023D01*
X140439142Y-63713357D02*
X140486761Y-63760976D01*
X140534380Y-63903833D01*
X140534380Y-63999071D01*
X140486761Y-64141928D01*
X140391523Y-64237166D01*
X140296285Y-64284785D01*
X140105809Y-64332404D01*
X139962952Y-64332404D01*
X139772476Y-64284785D01*
X139677238Y-64237166D01*
X139582000Y-64141928D01*
X139534380Y-63999071D01*
X139534380Y-63903833D01*
X139582000Y-63760976D01*
X139629619Y-63713357D01*
X140534380Y-62760976D02*
X140534380Y-63332404D01*
X140534380Y-63046690D02*
X139534380Y-63046690D01*
X139677238Y-63141928D01*
X139772476Y-63237166D01*
X139820095Y-63332404D01*
X139534380Y-62427642D02*
X139534380Y-61760976D01*
X140534380Y-62189547D01*
X136595380Y-95812666D02*
X136119190Y-96146000D01*
X136595380Y-96384095D02*
X135595380Y-96384095D01*
X135595380Y-96003142D01*
X135643000Y-95907904D01*
X135690619Y-95860285D01*
X135785857Y-95812666D01*
X135928714Y-95812666D01*
X136023952Y-95860285D01*
X136071571Y-95907904D01*
X136119190Y-96003142D01*
X136119190Y-96384095D01*
X136595380Y-94860285D02*
X136595380Y-95431714D01*
X136595380Y-95146000D02*
X135595380Y-95146000D01*
X135738238Y-95241238D01*
X135833476Y-95336476D01*
X135881095Y-95431714D01*
X130882380Y-102196166D02*
X130406190Y-102529500D01*
X130882380Y-102767595D02*
X129882380Y-102767595D01*
X129882380Y-102386642D01*
X129930000Y-102291404D01*
X129977619Y-102243785D01*
X130072857Y-102196166D01*
X130215714Y-102196166D01*
X130310952Y-102243785D01*
X130358571Y-102291404D01*
X130406190Y-102386642D01*
X130406190Y-102767595D01*
X129977619Y-101815214D02*
X129930000Y-101767595D01*
X129882380Y-101672357D01*
X129882380Y-101434261D01*
X129930000Y-101339023D01*
X129977619Y-101291404D01*
X130072857Y-101243785D01*
X130168095Y-101243785D01*
X130310952Y-101291404D01*
X130882380Y-101862833D01*
X130882380Y-101243785D01*
X127707380Y-102196166D02*
X127231190Y-102529500D01*
X127707380Y-102767595D02*
X126707380Y-102767595D01*
X126707380Y-102386642D01*
X126755000Y-102291404D01*
X126802619Y-102243785D01*
X126897857Y-102196166D01*
X127040714Y-102196166D01*
X127135952Y-102243785D01*
X127183571Y-102291404D01*
X127231190Y-102386642D01*
X127231190Y-102767595D01*
X126707380Y-101862833D02*
X126707380Y-101243785D01*
X127088333Y-101577119D01*
X127088333Y-101434261D01*
X127135952Y-101339023D01*
X127183571Y-101291404D01*
X127278809Y-101243785D01*
X127516904Y-101243785D01*
X127612142Y-101291404D01*
X127659761Y-101339023D01*
X127707380Y-101434261D01*
X127707380Y-101719976D01*
X127659761Y-101815214D01*
X127612142Y-101862833D01*
X136025833Y-113862380D02*
X135692500Y-113386190D01*
X135454404Y-113862380D02*
X135454404Y-112862380D01*
X135835357Y-112862380D01*
X135930595Y-112910000D01*
X135978214Y-112957619D01*
X136025833Y-113052857D01*
X136025833Y-113195714D01*
X135978214Y-113290952D01*
X135930595Y-113338571D01*
X135835357Y-113386190D01*
X135454404Y-113386190D01*
X136882976Y-113195714D02*
X136882976Y-113862380D01*
X136644880Y-112814761D02*
X136406785Y-113529047D01*
X137025833Y-113529047D01*
X125578333Y-109800380D02*
X125245000Y-109324190D01*
X125006904Y-109800380D02*
X125006904Y-108800380D01*
X125387857Y-108800380D01*
X125483095Y-108848000D01*
X125530714Y-108895619D01*
X125578333Y-108990857D01*
X125578333Y-109133714D01*
X125530714Y-109228952D01*
X125483095Y-109276571D01*
X125387857Y-109324190D01*
X125006904Y-109324190D01*
X126483095Y-108800380D02*
X126006904Y-108800380D01*
X125959285Y-109276571D01*
X126006904Y-109228952D01*
X126102142Y-109181333D01*
X126340238Y-109181333D01*
X126435476Y-109228952D01*
X126483095Y-109276571D01*
X126530714Y-109371809D01*
X126530714Y-109609904D01*
X126483095Y-109705142D01*
X126435476Y-109752761D01*
X126340238Y-109800380D01*
X126102142Y-109800380D01*
X126006904Y-109752761D01*
X125959285Y-109705142D01*
X140803333Y-58492380D02*
X140470000Y-58016190D01*
X140231904Y-58492380D02*
X140231904Y-57492380D01*
X140612857Y-57492380D01*
X140708095Y-57540000D01*
X140755714Y-57587619D01*
X140803333Y-57682857D01*
X140803333Y-57825714D01*
X140755714Y-57920952D01*
X140708095Y-57968571D01*
X140612857Y-58016190D01*
X140231904Y-58016190D01*
X141660476Y-57492380D02*
X141470000Y-57492380D01*
X141374761Y-57540000D01*
X141327142Y-57587619D01*
X141231904Y-57730476D01*
X141184285Y-57920952D01*
X141184285Y-58301904D01*
X141231904Y-58397142D01*
X141279523Y-58444761D01*
X141374761Y-58492380D01*
X141565238Y-58492380D01*
X141660476Y-58444761D01*
X141708095Y-58397142D01*
X141755714Y-58301904D01*
X141755714Y-58063809D01*
X141708095Y-57968571D01*
X141660476Y-57920952D01*
X141565238Y-57873333D01*
X141374761Y-57873333D01*
X141279523Y-57920952D01*
X141231904Y-57968571D01*
X141184285Y-58063809D01*
X140953333Y-55952380D02*
X140620000Y-55476190D01*
X140381904Y-55952380D02*
X140381904Y-54952380D01*
X140762857Y-54952380D01*
X140858095Y-55000000D01*
X140905714Y-55047619D01*
X140953333Y-55142857D01*
X140953333Y-55285714D01*
X140905714Y-55380952D01*
X140858095Y-55428571D01*
X140762857Y-55476190D01*
X140381904Y-55476190D01*
X141286666Y-54952380D02*
X141953333Y-54952380D01*
X141524761Y-55952380D01*
X114973833Y-103831380D02*
X114640500Y-103355190D01*
X114402404Y-103831380D02*
X114402404Y-102831380D01*
X114783357Y-102831380D01*
X114878595Y-102879000D01*
X114926214Y-102926619D01*
X114973833Y-103021857D01*
X114973833Y-103164714D01*
X114926214Y-103259952D01*
X114878595Y-103307571D01*
X114783357Y-103355190D01*
X114402404Y-103355190D01*
X115545261Y-103259952D02*
X115450023Y-103212333D01*
X115402404Y-103164714D01*
X115354785Y-103069476D01*
X115354785Y-103021857D01*
X115402404Y-102926619D01*
X115450023Y-102879000D01*
X115545261Y-102831380D01*
X115735738Y-102831380D01*
X115830976Y-102879000D01*
X115878595Y-102926619D01*
X115926214Y-103021857D01*
X115926214Y-103069476D01*
X115878595Y-103164714D01*
X115830976Y-103212333D01*
X115735738Y-103259952D01*
X115545261Y-103259952D01*
X115450023Y-103307571D01*
X115402404Y-103355190D01*
X115354785Y-103450428D01*
X115354785Y-103640904D01*
X115402404Y-103736142D01*
X115450023Y-103783761D01*
X115545261Y-103831380D01*
X115735738Y-103831380D01*
X115830976Y-103783761D01*
X115878595Y-103736142D01*
X115926214Y-103640904D01*
X115926214Y-103450428D01*
X115878595Y-103355190D01*
X115830976Y-103307571D01*
X115735738Y-103259952D01*
X130945880Y-94703166D02*
X130469690Y-95036500D01*
X130945880Y-95274595D02*
X129945880Y-95274595D01*
X129945880Y-94893642D01*
X129993500Y-94798404D01*
X130041119Y-94750785D01*
X130136357Y-94703166D01*
X130279214Y-94703166D01*
X130374452Y-94750785D01*
X130422071Y-94798404D01*
X130469690Y-94893642D01*
X130469690Y-95274595D01*
X130945880Y-94226976D02*
X130945880Y-94036500D01*
X130898261Y-93941261D01*
X130850642Y-93893642D01*
X130707785Y-93798404D01*
X130517309Y-93750785D01*
X130136357Y-93750785D01*
X130041119Y-93798404D01*
X129993500Y-93846023D01*
X129945880Y-93941261D01*
X129945880Y-94131738D01*
X129993500Y-94226976D01*
X130041119Y-94274595D01*
X130136357Y-94322214D01*
X130374452Y-94322214D01*
X130469690Y-94274595D01*
X130517309Y-94226976D01*
X130564928Y-94131738D01*
X130564928Y-93941261D01*
X130517309Y-93846023D01*
X130469690Y-93798404D01*
X130374452Y-93750785D01*
X81414142Y-105657880D02*
X81080809Y-105181690D01*
X80842714Y-105657880D02*
X80842714Y-104657880D01*
X81223666Y-104657880D01*
X81318904Y-104705500D01*
X81366523Y-104753119D01*
X81414142Y-104848357D01*
X81414142Y-104991214D01*
X81366523Y-105086452D01*
X81318904Y-105134071D01*
X81223666Y-105181690D01*
X80842714Y-105181690D01*
X82366523Y-105657880D02*
X81795095Y-105657880D01*
X82080809Y-105657880D02*
X82080809Y-104657880D01*
X81985571Y-104800738D01*
X81890333Y-104895976D01*
X81795095Y-104943595D01*
X82985571Y-104657880D02*
X83080809Y-104657880D01*
X83176047Y-104705500D01*
X83223666Y-104753119D01*
X83271285Y-104848357D01*
X83318904Y-105038833D01*
X83318904Y-105276928D01*
X83271285Y-105467404D01*
X83223666Y-105562642D01*
X83176047Y-105610261D01*
X83080809Y-105657880D01*
X82985571Y-105657880D01*
X82890333Y-105610261D01*
X82842714Y-105562642D01*
X82795095Y-105467404D01*
X82747476Y-105276928D01*
X82747476Y-105038833D01*
X82795095Y-104848357D01*
X82842714Y-104753119D01*
X82890333Y-104705500D01*
X82985571Y-104657880D01*
X99068880Y-100401357D02*
X98592690Y-100734690D01*
X99068880Y-100972785D02*
X98068880Y-100972785D01*
X98068880Y-100591833D01*
X98116500Y-100496595D01*
X98164119Y-100448976D01*
X98259357Y-100401357D01*
X98402214Y-100401357D01*
X98497452Y-100448976D01*
X98545071Y-100496595D01*
X98592690Y-100591833D01*
X98592690Y-100972785D01*
X99068880Y-99448976D02*
X99068880Y-100020404D01*
X99068880Y-99734690D02*
X98068880Y-99734690D01*
X98211738Y-99829928D01*
X98306976Y-99925166D01*
X98354595Y-100020404D01*
X99068880Y-98496595D02*
X99068880Y-99068023D01*
X99068880Y-98782309D02*
X98068880Y-98782309D01*
X98211738Y-98877547D01*
X98306976Y-98972785D01*
X98354595Y-99068023D01*
X91544142Y-99257380D02*
X91210809Y-98781190D01*
X90972714Y-99257380D02*
X90972714Y-98257380D01*
X91353666Y-98257380D01*
X91448904Y-98305000D01*
X91496523Y-98352619D01*
X91544142Y-98447857D01*
X91544142Y-98590714D01*
X91496523Y-98685952D01*
X91448904Y-98733571D01*
X91353666Y-98781190D01*
X90972714Y-98781190D01*
X92496523Y-99257380D02*
X91925095Y-99257380D01*
X92210809Y-99257380D02*
X92210809Y-98257380D01*
X92115571Y-98400238D01*
X92020333Y-98495476D01*
X91925095Y-98543095D01*
X92877476Y-98352619D02*
X92925095Y-98305000D01*
X93020333Y-98257380D01*
X93258428Y-98257380D01*
X93353666Y-98305000D01*
X93401285Y-98352619D01*
X93448904Y-98447857D01*
X93448904Y-98543095D01*
X93401285Y-98685952D01*
X92829857Y-99257380D01*
X93448904Y-99257380D01*
X102942380Y-119690357D02*
X102466190Y-120023690D01*
X102942380Y-120261785D02*
X101942380Y-120261785D01*
X101942380Y-119880833D01*
X101990000Y-119785595D01*
X102037619Y-119737976D01*
X102132857Y-119690357D01*
X102275714Y-119690357D01*
X102370952Y-119737976D01*
X102418571Y-119785595D01*
X102466190Y-119880833D01*
X102466190Y-120261785D01*
X102942380Y-118737976D02*
X102942380Y-119309404D01*
X102942380Y-119023690D02*
X101942380Y-119023690D01*
X102085238Y-119118928D01*
X102180476Y-119214166D01*
X102228095Y-119309404D01*
X101942380Y-118404642D02*
X101942380Y-117785595D01*
X102323333Y-118118928D01*
X102323333Y-117976071D01*
X102370952Y-117880833D01*
X102418571Y-117833214D01*
X102513809Y-117785595D01*
X102751904Y-117785595D01*
X102847142Y-117833214D01*
X102894761Y-117880833D01*
X102942380Y-117976071D01*
X102942380Y-118261785D01*
X102894761Y-118357023D01*
X102847142Y-118404642D01*
X80018880Y-104513857D02*
X79542690Y-104847190D01*
X80018880Y-105085285D02*
X79018880Y-105085285D01*
X79018880Y-104704333D01*
X79066500Y-104609095D01*
X79114119Y-104561476D01*
X79209357Y-104513857D01*
X79352214Y-104513857D01*
X79447452Y-104561476D01*
X79495071Y-104609095D01*
X79542690Y-104704333D01*
X79542690Y-105085285D01*
X80018880Y-103561476D02*
X80018880Y-104132904D01*
X80018880Y-103847190D02*
X79018880Y-103847190D01*
X79161738Y-103942428D01*
X79256976Y-104037666D01*
X79304595Y-104132904D01*
X79352214Y-102704333D02*
X80018880Y-102704333D01*
X78971261Y-102942428D02*
X79685547Y-103180523D01*
X79685547Y-102561476D01*
X103482142Y-68967880D02*
X103148809Y-68491690D01*
X102910714Y-68967880D02*
X102910714Y-67967880D01*
X103291666Y-67967880D01*
X103386904Y-68015500D01*
X103434523Y-68063119D01*
X103482142Y-68158357D01*
X103482142Y-68301214D01*
X103434523Y-68396452D01*
X103386904Y-68444071D01*
X103291666Y-68491690D01*
X102910714Y-68491690D01*
X104434523Y-68967880D02*
X103863095Y-68967880D01*
X104148809Y-68967880D02*
X104148809Y-67967880D01*
X104053571Y-68110738D01*
X103958333Y-68205976D01*
X103863095Y-68253595D01*
X105339285Y-67967880D02*
X104863095Y-67967880D01*
X104815476Y-68444071D01*
X104863095Y-68396452D01*
X104958333Y-68348833D01*
X105196428Y-68348833D01*
X105291666Y-68396452D01*
X105339285Y-68444071D01*
X105386904Y-68539309D01*
X105386904Y-68777404D01*
X105339285Y-68872642D01*
X105291666Y-68920261D01*
X105196428Y-68967880D01*
X104958333Y-68967880D01*
X104863095Y-68920261D01*
X104815476Y-68872642D01*
X78556642Y-80717380D02*
X78223309Y-80241190D01*
X77985214Y-80717380D02*
X77985214Y-79717380D01*
X78366166Y-79717380D01*
X78461404Y-79765000D01*
X78509023Y-79812619D01*
X78556642Y-79907857D01*
X78556642Y-80050714D01*
X78509023Y-80145952D01*
X78461404Y-80193571D01*
X78366166Y-80241190D01*
X77985214Y-80241190D01*
X79509023Y-80717380D02*
X78937595Y-80717380D01*
X79223309Y-80717380D02*
X79223309Y-79717380D01*
X79128071Y-79860238D01*
X79032833Y-79955476D01*
X78937595Y-80003095D01*
X80080452Y-80145952D02*
X79985214Y-80098333D01*
X79937595Y-80050714D01*
X79889976Y-79955476D01*
X79889976Y-79907857D01*
X79937595Y-79812619D01*
X79985214Y-79765000D01*
X80080452Y-79717380D01*
X80270928Y-79717380D01*
X80366166Y-79765000D01*
X80413785Y-79812619D01*
X80461404Y-79907857D01*
X80461404Y-79955476D01*
X80413785Y-80050714D01*
X80366166Y-80098333D01*
X80270928Y-80145952D01*
X80080452Y-80145952D01*
X79985214Y-80193571D01*
X79937595Y-80241190D01*
X79889976Y-80336428D01*
X79889976Y-80526904D01*
X79937595Y-80622142D01*
X79985214Y-80669761D01*
X80080452Y-80717380D01*
X80270928Y-80717380D01*
X80366166Y-80669761D01*
X80413785Y-80622142D01*
X80461404Y-80526904D01*
X80461404Y-80336428D01*
X80413785Y-80241190D01*
X80366166Y-80193571D01*
X80270928Y-80145952D01*
X74555880Y-82445857D02*
X74079690Y-82779190D01*
X74555880Y-83017285D02*
X73555880Y-83017285D01*
X73555880Y-82636333D01*
X73603500Y-82541095D01*
X73651119Y-82493476D01*
X73746357Y-82445857D01*
X73889214Y-82445857D01*
X73984452Y-82493476D01*
X74032071Y-82541095D01*
X74079690Y-82636333D01*
X74079690Y-83017285D01*
X74555880Y-81493476D02*
X74555880Y-82064904D01*
X74555880Y-81779190D02*
X73555880Y-81779190D01*
X73698738Y-81874428D01*
X73793976Y-81969666D01*
X73841595Y-82064904D01*
X74555880Y-81017285D02*
X74555880Y-80826809D01*
X74508261Y-80731571D01*
X74460642Y-80683952D01*
X74317785Y-80588714D01*
X74127309Y-80541095D01*
X73746357Y-80541095D01*
X73651119Y-80588714D01*
X73603500Y-80636333D01*
X73555880Y-80731571D01*
X73555880Y-80922047D01*
X73603500Y-81017285D01*
X73651119Y-81064904D01*
X73746357Y-81112523D01*
X73984452Y-81112523D01*
X74079690Y-81064904D01*
X74127309Y-81017285D01*
X74174928Y-80922047D01*
X74174928Y-80731571D01*
X74127309Y-80636333D01*
X74079690Y-80588714D01*
X73984452Y-80541095D01*
X106053880Y-58031857D02*
X105577690Y-58365190D01*
X106053880Y-58603285D02*
X105053880Y-58603285D01*
X105053880Y-58222333D01*
X105101500Y-58127095D01*
X105149119Y-58079476D01*
X105244357Y-58031857D01*
X105387214Y-58031857D01*
X105482452Y-58079476D01*
X105530071Y-58127095D01*
X105577690Y-58222333D01*
X105577690Y-58603285D01*
X105149119Y-57650904D02*
X105101500Y-57603285D01*
X105053880Y-57508047D01*
X105053880Y-57269952D01*
X105101500Y-57174714D01*
X105149119Y-57127095D01*
X105244357Y-57079476D01*
X105339595Y-57079476D01*
X105482452Y-57127095D01*
X106053880Y-57698523D01*
X106053880Y-57079476D01*
X105053880Y-56460428D02*
X105053880Y-56365190D01*
X105101500Y-56269952D01*
X105149119Y-56222333D01*
X105244357Y-56174714D01*
X105434833Y-56127095D01*
X105672928Y-56127095D01*
X105863404Y-56174714D01*
X105958642Y-56222333D01*
X106006261Y-56269952D01*
X106053880Y-56365190D01*
X106053880Y-56460428D01*
X106006261Y-56555666D01*
X105958642Y-56603285D01*
X105863404Y-56650904D01*
X105672928Y-56698523D01*
X105434833Y-56698523D01*
X105244357Y-56650904D01*
X105149119Y-56603285D01*
X105101500Y-56555666D01*
X105053880Y-56460428D01*
X71698642Y-94623880D02*
X71365309Y-94147690D01*
X71127214Y-94623880D02*
X71127214Y-93623880D01*
X71508166Y-93623880D01*
X71603404Y-93671500D01*
X71651023Y-93719119D01*
X71698642Y-93814357D01*
X71698642Y-93957214D01*
X71651023Y-94052452D01*
X71603404Y-94100071D01*
X71508166Y-94147690D01*
X71127214Y-94147690D01*
X72079595Y-93719119D02*
X72127214Y-93671500D01*
X72222452Y-93623880D01*
X72460547Y-93623880D01*
X72555785Y-93671500D01*
X72603404Y-93719119D01*
X72651023Y-93814357D01*
X72651023Y-93909595D01*
X72603404Y-94052452D01*
X72031976Y-94623880D01*
X72651023Y-94623880D01*
X73603404Y-94623880D02*
X73031976Y-94623880D01*
X73317690Y-94623880D02*
X73317690Y-93623880D01*
X73222452Y-93766738D01*
X73127214Y-93861976D01*
X73031976Y-93909595D01*
X115957880Y-91623357D02*
X115481690Y-91956690D01*
X115957880Y-92194785D02*
X114957880Y-92194785D01*
X114957880Y-91813833D01*
X115005500Y-91718595D01*
X115053119Y-91670976D01*
X115148357Y-91623357D01*
X115291214Y-91623357D01*
X115386452Y-91670976D01*
X115434071Y-91718595D01*
X115481690Y-91813833D01*
X115481690Y-92194785D01*
X115053119Y-91242404D02*
X115005500Y-91194785D01*
X114957880Y-91099547D01*
X114957880Y-90861452D01*
X115005500Y-90766214D01*
X115053119Y-90718595D01*
X115148357Y-90670976D01*
X115243595Y-90670976D01*
X115386452Y-90718595D01*
X115957880Y-91290023D01*
X115957880Y-90670976D01*
X115053119Y-90290023D02*
X115005500Y-90242404D01*
X114957880Y-90147166D01*
X114957880Y-89909071D01*
X115005500Y-89813833D01*
X115053119Y-89766214D01*
X115148357Y-89718595D01*
X115243595Y-89718595D01*
X115386452Y-89766214D01*
X115957880Y-90337642D01*
X115957880Y-89718595D01*
X96336642Y-56079380D02*
X96003309Y-55603190D01*
X95765214Y-56079380D02*
X95765214Y-55079380D01*
X96146166Y-55079380D01*
X96241404Y-55127000D01*
X96289023Y-55174619D01*
X96336642Y-55269857D01*
X96336642Y-55412714D01*
X96289023Y-55507952D01*
X96241404Y-55555571D01*
X96146166Y-55603190D01*
X95765214Y-55603190D01*
X96717595Y-55174619D02*
X96765214Y-55127000D01*
X96860452Y-55079380D01*
X97098547Y-55079380D01*
X97193785Y-55127000D01*
X97241404Y-55174619D01*
X97289023Y-55269857D01*
X97289023Y-55365095D01*
X97241404Y-55507952D01*
X96669976Y-56079380D01*
X97289023Y-56079380D01*
X98146166Y-55412714D02*
X98146166Y-56079380D01*
X97908071Y-55031761D02*
X97669976Y-55746047D01*
X98289023Y-55746047D01*
X71698642Y-97481380D02*
X71365309Y-97005190D01*
X71127214Y-97481380D02*
X71127214Y-96481380D01*
X71508166Y-96481380D01*
X71603404Y-96529000D01*
X71651023Y-96576619D01*
X71698642Y-96671857D01*
X71698642Y-96814714D01*
X71651023Y-96909952D01*
X71603404Y-96957571D01*
X71508166Y-97005190D01*
X71127214Y-97005190D01*
X72079595Y-96576619D02*
X72127214Y-96529000D01*
X72222452Y-96481380D01*
X72460547Y-96481380D01*
X72555785Y-96529000D01*
X72603404Y-96576619D01*
X72651023Y-96671857D01*
X72651023Y-96767095D01*
X72603404Y-96909952D01*
X72031976Y-97481380D01*
X72651023Y-97481380D01*
X73555785Y-96481380D02*
X73079595Y-96481380D01*
X73031976Y-96957571D01*
X73079595Y-96909952D01*
X73174833Y-96862333D01*
X73412928Y-96862333D01*
X73508166Y-96909952D01*
X73555785Y-96957571D01*
X73603404Y-97052809D01*
X73603404Y-97290904D01*
X73555785Y-97386142D01*
X73508166Y-97433761D01*
X73412928Y-97481380D01*
X73174833Y-97481380D01*
X73079595Y-97433761D01*
X73031976Y-97386142D01*
X72651142Y-68332880D02*
X72317809Y-67856690D01*
X72079714Y-68332880D02*
X72079714Y-67332880D01*
X72460666Y-67332880D01*
X72555904Y-67380500D01*
X72603523Y-67428119D01*
X72651142Y-67523357D01*
X72651142Y-67666214D01*
X72603523Y-67761452D01*
X72555904Y-67809071D01*
X72460666Y-67856690D01*
X72079714Y-67856690D01*
X73032095Y-67428119D02*
X73079714Y-67380500D01*
X73174952Y-67332880D01*
X73413047Y-67332880D01*
X73508285Y-67380500D01*
X73555904Y-67428119D01*
X73603523Y-67523357D01*
X73603523Y-67618595D01*
X73555904Y-67761452D01*
X72984476Y-68332880D01*
X73603523Y-68332880D01*
X74460666Y-67332880D02*
X74270190Y-67332880D01*
X74174952Y-67380500D01*
X74127333Y-67428119D01*
X74032095Y-67570976D01*
X73984476Y-67761452D01*
X73984476Y-68142404D01*
X74032095Y-68237642D01*
X74079714Y-68285261D01*
X74174952Y-68332880D01*
X74365428Y-68332880D01*
X74460666Y-68285261D01*
X74508285Y-68237642D01*
X74555904Y-68142404D01*
X74555904Y-67904309D01*
X74508285Y-67809071D01*
X74460666Y-67761452D01*
X74365428Y-67713833D01*
X74174952Y-67713833D01*
X74079714Y-67761452D01*
X74032095Y-67809071D01*
X73984476Y-67904309D01*
X72970380Y-72890857D02*
X72494190Y-73224190D01*
X72970380Y-73462285D02*
X71970380Y-73462285D01*
X71970380Y-73081333D01*
X72018000Y-72986095D01*
X72065619Y-72938476D01*
X72160857Y-72890857D01*
X72303714Y-72890857D01*
X72398952Y-72938476D01*
X72446571Y-72986095D01*
X72494190Y-73081333D01*
X72494190Y-73462285D01*
X72065619Y-72509904D02*
X72018000Y-72462285D01*
X71970380Y-72367047D01*
X71970380Y-72128952D01*
X72018000Y-72033714D01*
X72065619Y-71986095D01*
X72160857Y-71938476D01*
X72256095Y-71938476D01*
X72398952Y-71986095D01*
X72970380Y-72557523D01*
X72970380Y-71938476D01*
X71970380Y-71605142D02*
X71970380Y-70938476D01*
X72970380Y-71367047D01*
X72651142Y-70999880D02*
X72317809Y-70523690D01*
X72079714Y-70999880D02*
X72079714Y-69999880D01*
X72460666Y-69999880D01*
X72555904Y-70047500D01*
X72603523Y-70095119D01*
X72651142Y-70190357D01*
X72651142Y-70333214D01*
X72603523Y-70428452D01*
X72555904Y-70476071D01*
X72460666Y-70523690D01*
X72079714Y-70523690D01*
X73032095Y-70095119D02*
X73079714Y-70047500D01*
X73174952Y-69999880D01*
X73413047Y-69999880D01*
X73508285Y-70047500D01*
X73555904Y-70095119D01*
X73603523Y-70190357D01*
X73603523Y-70285595D01*
X73555904Y-70428452D01*
X72984476Y-70999880D01*
X73603523Y-70999880D01*
X74079714Y-70999880D02*
X74270190Y-70999880D01*
X74365428Y-70952261D01*
X74413047Y-70904642D01*
X74508285Y-70761785D01*
X74555904Y-70571309D01*
X74555904Y-70190357D01*
X74508285Y-70095119D01*
X74460666Y-70047500D01*
X74365428Y-69999880D01*
X74174952Y-69999880D01*
X74079714Y-70047500D01*
X74032095Y-70095119D01*
X73984476Y-70190357D01*
X73984476Y-70428452D01*
X74032095Y-70523690D01*
X74079714Y-70571309D01*
X74174952Y-70618928D01*
X74365428Y-70618928D01*
X74460666Y-70571309D01*
X74508285Y-70523690D01*
X74555904Y-70428452D01*
X100527642Y-85162380D02*
X100194309Y-84686190D01*
X99956214Y-85162380D02*
X99956214Y-84162380D01*
X100337166Y-84162380D01*
X100432404Y-84210000D01*
X100480023Y-84257619D01*
X100527642Y-84352857D01*
X100527642Y-84495714D01*
X100480023Y-84590952D01*
X100432404Y-84638571D01*
X100337166Y-84686190D01*
X99956214Y-84686190D01*
X100860976Y-84162380D02*
X101480023Y-84162380D01*
X101146690Y-84543333D01*
X101289547Y-84543333D01*
X101384785Y-84590952D01*
X101432404Y-84638571D01*
X101480023Y-84733809D01*
X101480023Y-84971904D01*
X101432404Y-85067142D01*
X101384785Y-85114761D01*
X101289547Y-85162380D01*
X101003833Y-85162380D01*
X100908595Y-85114761D01*
X100860976Y-85067142D01*
X102099071Y-84162380D02*
X102194309Y-84162380D01*
X102289547Y-84210000D01*
X102337166Y-84257619D01*
X102384785Y-84352857D01*
X102432404Y-84543333D01*
X102432404Y-84781428D01*
X102384785Y-84971904D01*
X102337166Y-85067142D01*
X102289547Y-85114761D01*
X102194309Y-85162380D01*
X102099071Y-85162380D01*
X102003833Y-85114761D01*
X101956214Y-85067142D01*
X101908595Y-84971904D01*
X101860976Y-84781428D01*
X101860976Y-84543333D01*
X101908595Y-84352857D01*
X101956214Y-84257619D01*
X102003833Y-84210000D01*
X102099071Y-84162380D01*
X96639142Y-88398880D02*
X96305809Y-87922690D01*
X96067714Y-88398880D02*
X96067714Y-87398880D01*
X96448666Y-87398880D01*
X96543904Y-87446500D01*
X96591523Y-87494119D01*
X96639142Y-87589357D01*
X96639142Y-87732214D01*
X96591523Y-87827452D01*
X96543904Y-87875071D01*
X96448666Y-87922690D01*
X96067714Y-87922690D01*
X96972476Y-87398880D02*
X97591523Y-87398880D01*
X97258190Y-87779833D01*
X97401047Y-87779833D01*
X97496285Y-87827452D01*
X97543904Y-87875071D01*
X97591523Y-87970309D01*
X97591523Y-88208404D01*
X97543904Y-88303642D01*
X97496285Y-88351261D01*
X97401047Y-88398880D01*
X97115333Y-88398880D01*
X97020095Y-88351261D01*
X96972476Y-88303642D01*
X98543904Y-88398880D02*
X97972476Y-88398880D01*
X98258190Y-88398880D02*
X98258190Y-87398880D01*
X98162952Y-87541738D01*
X98067714Y-87636976D01*
X97972476Y-87684595D01*
X105006142Y-90686880D02*
X104672809Y-90210690D01*
X104434714Y-90686880D02*
X104434714Y-89686880D01*
X104815666Y-89686880D01*
X104910904Y-89734500D01*
X104958523Y-89782119D01*
X105006142Y-89877357D01*
X105006142Y-90020214D01*
X104958523Y-90115452D01*
X104910904Y-90163071D01*
X104815666Y-90210690D01*
X104434714Y-90210690D01*
X105339476Y-89686880D02*
X105958523Y-89686880D01*
X105625190Y-90067833D01*
X105768047Y-90067833D01*
X105863285Y-90115452D01*
X105910904Y-90163071D01*
X105958523Y-90258309D01*
X105958523Y-90496404D01*
X105910904Y-90591642D01*
X105863285Y-90639261D01*
X105768047Y-90686880D01*
X105482333Y-90686880D01*
X105387095Y-90639261D01*
X105339476Y-90591642D01*
X106339476Y-89782119D02*
X106387095Y-89734500D01*
X106482333Y-89686880D01*
X106720428Y-89686880D01*
X106815666Y-89734500D01*
X106863285Y-89782119D01*
X106910904Y-89877357D01*
X106910904Y-89972595D01*
X106863285Y-90115452D01*
X106291857Y-90686880D01*
X106910904Y-90686880D01*
X106686880Y-89400857D02*
X106210690Y-89734190D01*
X106686880Y-89972285D02*
X105686880Y-89972285D01*
X105686880Y-89591333D01*
X105734500Y-89496095D01*
X105782119Y-89448476D01*
X105877357Y-89400857D01*
X106020214Y-89400857D01*
X106115452Y-89448476D01*
X106163071Y-89496095D01*
X106210690Y-89591333D01*
X106210690Y-89972285D01*
X105686880Y-89067523D02*
X105686880Y-88448476D01*
X106067833Y-88781809D01*
X106067833Y-88638952D01*
X106115452Y-88543714D01*
X106163071Y-88496095D01*
X106258309Y-88448476D01*
X106496404Y-88448476D01*
X106591642Y-88496095D01*
X106639261Y-88543714D01*
X106686880Y-88638952D01*
X106686880Y-88924666D01*
X106639261Y-89019904D01*
X106591642Y-89067523D01*
X105686880Y-88115142D02*
X105686880Y-87496095D01*
X106067833Y-87829428D01*
X106067833Y-87686571D01*
X106115452Y-87591333D01*
X106163071Y-87543714D01*
X106258309Y-87496095D01*
X106496404Y-87496095D01*
X106591642Y-87543714D01*
X106639261Y-87591333D01*
X106686880Y-87686571D01*
X106686880Y-87972285D01*
X106639261Y-88067523D01*
X106591642Y-88115142D01*
X134470142Y-50491380D02*
X134136809Y-50015190D01*
X133898714Y-50491380D02*
X133898714Y-49491380D01*
X134279666Y-49491380D01*
X134374904Y-49539000D01*
X134422523Y-49586619D01*
X134470142Y-49681857D01*
X134470142Y-49824714D01*
X134422523Y-49919952D01*
X134374904Y-49967571D01*
X134279666Y-50015190D01*
X133898714Y-50015190D01*
X134803476Y-49491380D02*
X135422523Y-49491380D01*
X135089190Y-49872333D01*
X135232047Y-49872333D01*
X135327285Y-49919952D01*
X135374904Y-49967571D01*
X135422523Y-50062809D01*
X135422523Y-50300904D01*
X135374904Y-50396142D01*
X135327285Y-50443761D01*
X135232047Y-50491380D01*
X134946333Y-50491380D01*
X134851095Y-50443761D01*
X134803476Y-50396142D01*
X136279666Y-49824714D02*
X136279666Y-50491380D01*
X136041571Y-49443761D02*
X135803476Y-50158047D01*
X136422523Y-50158047D01*
X129737642Y-107512380D02*
X129404309Y-107036190D01*
X129166214Y-107512380D02*
X129166214Y-106512380D01*
X129547166Y-106512380D01*
X129642404Y-106560000D01*
X129690023Y-106607619D01*
X129737642Y-106702857D01*
X129737642Y-106845714D01*
X129690023Y-106940952D01*
X129642404Y-106988571D01*
X129547166Y-107036190D01*
X129166214Y-107036190D01*
X130070976Y-106512380D02*
X130690023Y-106512380D01*
X130356690Y-106893333D01*
X130499547Y-106893333D01*
X130594785Y-106940952D01*
X130642404Y-106988571D01*
X130690023Y-107083809D01*
X130690023Y-107321904D01*
X130642404Y-107417142D01*
X130594785Y-107464761D01*
X130499547Y-107512380D01*
X130213833Y-107512380D01*
X130118595Y-107464761D01*
X130070976Y-107417142D01*
X131594785Y-106512380D02*
X131118595Y-106512380D01*
X131070976Y-106988571D01*
X131118595Y-106940952D01*
X131213833Y-106893333D01*
X131451928Y-106893333D01*
X131547166Y-106940952D01*
X131594785Y-106988571D01*
X131642404Y-107083809D01*
X131642404Y-107321904D01*
X131594785Y-107417142D01*
X131547166Y-107464761D01*
X131451928Y-107512380D01*
X131213833Y-107512380D01*
X131118595Y-107464761D01*
X131070976Y-107417142D01*
X133993880Y-49489357D02*
X133517690Y-49822690D01*
X133993880Y-50060785D02*
X132993880Y-50060785D01*
X132993880Y-49679833D01*
X133041500Y-49584595D01*
X133089119Y-49536976D01*
X133184357Y-49489357D01*
X133327214Y-49489357D01*
X133422452Y-49536976D01*
X133470071Y-49584595D01*
X133517690Y-49679833D01*
X133517690Y-50060785D01*
X132993880Y-49156023D02*
X132993880Y-48536976D01*
X133374833Y-48870309D01*
X133374833Y-48727452D01*
X133422452Y-48632214D01*
X133470071Y-48584595D01*
X133565309Y-48536976D01*
X133803404Y-48536976D01*
X133898642Y-48584595D01*
X133946261Y-48632214D01*
X133993880Y-48727452D01*
X133993880Y-49013166D01*
X133946261Y-49108404D01*
X133898642Y-49156023D01*
X132993880Y-47679833D02*
X132993880Y-47870309D01*
X133041500Y-47965547D01*
X133089119Y-48013166D01*
X133231976Y-48108404D01*
X133422452Y-48156023D01*
X133803404Y-48156023D01*
X133898642Y-48108404D01*
X133946261Y-48060785D01*
X133993880Y-47965547D01*
X133993880Y-47775071D01*
X133946261Y-47679833D01*
X133898642Y-47632214D01*
X133803404Y-47584595D01*
X133565309Y-47584595D01*
X133470071Y-47632214D01*
X133422452Y-47679833D01*
X133374833Y-47775071D01*
X133374833Y-47965547D01*
X133422452Y-48060785D01*
X133470071Y-48108404D01*
X133565309Y-48156023D01*
X109608142Y-42934880D02*
X109274809Y-42458690D01*
X109036714Y-42934880D02*
X109036714Y-41934880D01*
X109417666Y-41934880D01*
X109512904Y-41982500D01*
X109560523Y-42030119D01*
X109608142Y-42125357D01*
X109608142Y-42268214D01*
X109560523Y-42363452D01*
X109512904Y-42411071D01*
X109417666Y-42458690D01*
X109036714Y-42458690D01*
X109941476Y-41934880D02*
X110560523Y-41934880D01*
X110227190Y-42315833D01*
X110370047Y-42315833D01*
X110465285Y-42363452D01*
X110512904Y-42411071D01*
X110560523Y-42506309D01*
X110560523Y-42744404D01*
X110512904Y-42839642D01*
X110465285Y-42887261D01*
X110370047Y-42934880D01*
X110084333Y-42934880D01*
X109989095Y-42887261D01*
X109941476Y-42839642D01*
X110893857Y-41934880D02*
X111560523Y-41934880D01*
X111131952Y-42934880D01*
X127389880Y-49616357D02*
X126913690Y-49949690D01*
X127389880Y-50187785D02*
X126389880Y-50187785D01*
X126389880Y-49806833D01*
X126437500Y-49711595D01*
X126485119Y-49663976D01*
X126580357Y-49616357D01*
X126723214Y-49616357D01*
X126818452Y-49663976D01*
X126866071Y-49711595D01*
X126913690Y-49806833D01*
X126913690Y-50187785D01*
X126389880Y-49283023D02*
X126389880Y-48663976D01*
X126770833Y-48997309D01*
X126770833Y-48854452D01*
X126818452Y-48759214D01*
X126866071Y-48711595D01*
X126961309Y-48663976D01*
X127199404Y-48663976D01*
X127294642Y-48711595D01*
X127342261Y-48759214D01*
X127389880Y-48854452D01*
X127389880Y-49140166D01*
X127342261Y-49235404D01*
X127294642Y-49283023D01*
X126818452Y-48092547D02*
X126770833Y-48187785D01*
X126723214Y-48235404D01*
X126627976Y-48283023D01*
X126580357Y-48283023D01*
X126485119Y-48235404D01*
X126437500Y-48187785D01*
X126389880Y-48092547D01*
X126389880Y-47902071D01*
X126437500Y-47806833D01*
X126485119Y-47759214D01*
X126580357Y-47711595D01*
X126627976Y-47711595D01*
X126723214Y-47759214D01*
X126770833Y-47806833D01*
X126818452Y-47902071D01*
X126818452Y-48092547D01*
X126866071Y-48187785D01*
X126913690Y-48235404D01*
X127008928Y-48283023D01*
X127199404Y-48283023D01*
X127294642Y-48235404D01*
X127342261Y-48187785D01*
X127389880Y-48092547D01*
X127389880Y-47902071D01*
X127342261Y-47806833D01*
X127294642Y-47759214D01*
X127199404Y-47711595D01*
X127008928Y-47711595D01*
X126913690Y-47759214D01*
X126866071Y-47806833D01*
X126818452Y-47902071D01*
X114308880Y-110101857D02*
X113832690Y-110435190D01*
X114308880Y-110673285D02*
X113308880Y-110673285D01*
X113308880Y-110292333D01*
X113356500Y-110197095D01*
X113404119Y-110149476D01*
X113499357Y-110101857D01*
X113642214Y-110101857D01*
X113737452Y-110149476D01*
X113785071Y-110197095D01*
X113832690Y-110292333D01*
X113832690Y-110673285D01*
X113308880Y-109768523D02*
X113308880Y-109149476D01*
X113689833Y-109482809D01*
X113689833Y-109339952D01*
X113737452Y-109244714D01*
X113785071Y-109197095D01*
X113880309Y-109149476D01*
X114118404Y-109149476D01*
X114213642Y-109197095D01*
X114261261Y-109244714D01*
X114308880Y-109339952D01*
X114308880Y-109625666D01*
X114261261Y-109720904D01*
X114213642Y-109768523D01*
X114308880Y-108673285D02*
X114308880Y-108482809D01*
X114261261Y-108387571D01*
X114213642Y-108339952D01*
X114070785Y-108244714D01*
X113880309Y-108197095D01*
X113499357Y-108197095D01*
X113404119Y-108244714D01*
X113356500Y-108292333D01*
X113308880Y-108387571D01*
X113308880Y-108578047D01*
X113356500Y-108673285D01*
X113404119Y-108720904D01*
X113499357Y-108768523D01*
X113737452Y-108768523D01*
X113832690Y-108720904D01*
X113880309Y-108673285D01*
X113927928Y-108578047D01*
X113927928Y-108387571D01*
X113880309Y-108292333D01*
X113832690Y-108244714D01*
X113737452Y-108197095D01*
X115578880Y-90939857D02*
X115102690Y-91273190D01*
X115578880Y-91511285D02*
X114578880Y-91511285D01*
X114578880Y-91130333D01*
X114626500Y-91035095D01*
X114674119Y-90987476D01*
X114769357Y-90939857D01*
X114912214Y-90939857D01*
X115007452Y-90987476D01*
X115055071Y-91035095D01*
X115102690Y-91130333D01*
X115102690Y-91511285D01*
X114912214Y-90082714D02*
X115578880Y-90082714D01*
X114531261Y-90320809D02*
X115245547Y-90558904D01*
X115245547Y-89939857D01*
X114578880Y-89368428D02*
X114578880Y-89273190D01*
X114626500Y-89177952D01*
X114674119Y-89130333D01*
X114769357Y-89082714D01*
X114959833Y-89035095D01*
X115197928Y-89035095D01*
X115388404Y-89082714D01*
X115483642Y-89130333D01*
X115531261Y-89177952D01*
X115578880Y-89273190D01*
X115578880Y-89368428D01*
X115531261Y-89463666D01*
X115483642Y-89511285D01*
X115388404Y-89558904D01*
X115197928Y-89606523D01*
X114959833Y-89606523D01*
X114769357Y-89558904D01*
X114674119Y-89511285D01*
X114626500Y-89463666D01*
X114578880Y-89368428D01*
X104147142Y-114435880D02*
X103813809Y-113959690D01*
X103575714Y-114435880D02*
X103575714Y-113435880D01*
X103956666Y-113435880D01*
X104051904Y-113483500D01*
X104099523Y-113531119D01*
X104147142Y-113626357D01*
X104147142Y-113769214D01*
X104099523Y-113864452D01*
X104051904Y-113912071D01*
X103956666Y-113959690D01*
X103575714Y-113959690D01*
X105004285Y-113769214D02*
X105004285Y-114435880D01*
X104766190Y-113388261D02*
X104528095Y-114102547D01*
X105147142Y-114102547D01*
X106051904Y-114435880D02*
X105480476Y-114435880D01*
X105766190Y-114435880D02*
X105766190Y-113435880D01*
X105670952Y-113578738D01*
X105575714Y-113673976D01*
X105480476Y-113721595D01*
X97862380Y-119817357D02*
X97386190Y-120150690D01*
X97862380Y-120388785D02*
X96862380Y-120388785D01*
X96862380Y-120007833D01*
X96910000Y-119912595D01*
X96957619Y-119864976D01*
X97052857Y-119817357D01*
X97195714Y-119817357D01*
X97290952Y-119864976D01*
X97338571Y-119912595D01*
X97386190Y-120007833D01*
X97386190Y-120388785D01*
X97195714Y-118960214D02*
X97862380Y-118960214D01*
X96814761Y-119198309D02*
X97529047Y-119436404D01*
X97529047Y-118817357D01*
X96957619Y-118484023D02*
X96910000Y-118436404D01*
X96862380Y-118341166D01*
X96862380Y-118103071D01*
X96910000Y-118007833D01*
X96957619Y-117960214D01*
X97052857Y-117912595D01*
X97148095Y-117912595D01*
X97290952Y-117960214D01*
X97862380Y-118531642D01*
X97862380Y-117912595D01*
X97005142Y-117862880D02*
X96671809Y-117386690D01*
X96433714Y-117862880D02*
X96433714Y-116862880D01*
X96814666Y-116862880D01*
X96909904Y-116910500D01*
X96957523Y-116958119D01*
X97005142Y-117053357D01*
X97005142Y-117196214D01*
X96957523Y-117291452D01*
X96909904Y-117339071D01*
X96814666Y-117386690D01*
X96433714Y-117386690D01*
X97862285Y-117196214D02*
X97862285Y-117862880D01*
X97624190Y-116815261D02*
X97386095Y-117529547D01*
X98005142Y-117529547D01*
X98290857Y-116862880D02*
X98909904Y-116862880D01*
X98576571Y-117243833D01*
X98719428Y-117243833D01*
X98814666Y-117291452D01*
X98862285Y-117339071D01*
X98909904Y-117434309D01*
X98909904Y-117672404D01*
X98862285Y-117767642D01*
X98814666Y-117815261D01*
X98719428Y-117862880D01*
X98433714Y-117862880D01*
X98338476Y-117815261D01*
X98290857Y-117767642D01*
X104591642Y-79383880D02*
X104258309Y-78907690D01*
X104020214Y-79383880D02*
X104020214Y-78383880D01*
X104401166Y-78383880D01*
X104496404Y-78431500D01*
X104544023Y-78479119D01*
X104591642Y-78574357D01*
X104591642Y-78717214D01*
X104544023Y-78812452D01*
X104496404Y-78860071D01*
X104401166Y-78907690D01*
X104020214Y-78907690D01*
X105448785Y-78717214D02*
X105448785Y-79383880D01*
X105210690Y-78336261D02*
X104972595Y-79050547D01*
X105591642Y-79050547D01*
X106401166Y-78717214D02*
X106401166Y-79383880D01*
X106163071Y-78336261D02*
X105924976Y-79050547D01*
X106544023Y-79050547D01*
X97227380Y-46997857D02*
X96751190Y-47331190D01*
X97227380Y-47569285D02*
X96227380Y-47569285D01*
X96227380Y-47188333D01*
X96275000Y-47093095D01*
X96322619Y-47045476D01*
X96417857Y-46997857D01*
X96560714Y-46997857D01*
X96655952Y-47045476D01*
X96703571Y-47093095D01*
X96751190Y-47188333D01*
X96751190Y-47569285D01*
X96560714Y-46140714D02*
X97227380Y-46140714D01*
X96179761Y-46378809D02*
X96894047Y-46616904D01*
X96894047Y-45997857D01*
X96227380Y-45140714D02*
X96227380Y-45616904D01*
X96703571Y-45664523D01*
X96655952Y-45616904D01*
X96608333Y-45521666D01*
X96608333Y-45283571D01*
X96655952Y-45188333D01*
X96703571Y-45140714D01*
X96798809Y-45093095D01*
X97036904Y-45093095D01*
X97132142Y-45140714D01*
X97179761Y-45188333D01*
X97227380Y-45283571D01*
X97227380Y-45521666D01*
X97179761Y-45616904D01*
X97132142Y-45664523D01*
X136531880Y-99971857D02*
X136055690Y-100305190D01*
X136531880Y-100543285D02*
X135531880Y-100543285D01*
X135531880Y-100162333D01*
X135579500Y-100067095D01*
X135627119Y-100019476D01*
X135722357Y-99971857D01*
X135865214Y-99971857D01*
X135960452Y-100019476D01*
X136008071Y-100067095D01*
X136055690Y-100162333D01*
X136055690Y-100543285D01*
X135865214Y-99114714D02*
X136531880Y-99114714D01*
X135484261Y-99352809D02*
X136198547Y-99590904D01*
X136198547Y-98971857D01*
X135531880Y-98162333D02*
X135531880Y-98352809D01*
X135579500Y-98448047D01*
X135627119Y-98495666D01*
X135769976Y-98590904D01*
X135960452Y-98638523D01*
X136341404Y-98638523D01*
X136436642Y-98590904D01*
X136484261Y-98543285D01*
X136531880Y-98448047D01*
X136531880Y-98257571D01*
X136484261Y-98162333D01*
X136436642Y-98114714D01*
X136341404Y-98067095D01*
X136103309Y-98067095D01*
X136008071Y-98114714D01*
X135960452Y-98162333D01*
X135912833Y-98257571D01*
X135912833Y-98448047D01*
X135960452Y-98543285D01*
X136008071Y-98590904D01*
X136103309Y-98638523D01*
X117276642Y-100465880D02*
X116943309Y-99989690D01*
X116705214Y-100465880D02*
X116705214Y-99465880D01*
X117086166Y-99465880D01*
X117181404Y-99513500D01*
X117229023Y-99561119D01*
X117276642Y-99656357D01*
X117276642Y-99799214D01*
X117229023Y-99894452D01*
X117181404Y-99942071D01*
X117086166Y-99989690D01*
X116705214Y-99989690D01*
X118133785Y-99799214D02*
X118133785Y-100465880D01*
X117895690Y-99418261D02*
X117657595Y-100132547D01*
X118276642Y-100132547D01*
X118562357Y-99465880D02*
X119229023Y-99465880D01*
X118800452Y-100465880D01*
X133168380Y-103688357D02*
X132692190Y-104021690D01*
X133168380Y-104259785D02*
X132168380Y-104259785D01*
X132168380Y-103878833D01*
X132216000Y-103783595D01*
X132263619Y-103735976D01*
X132358857Y-103688357D01*
X132501714Y-103688357D01*
X132596952Y-103735976D01*
X132644571Y-103783595D01*
X132692190Y-103878833D01*
X132692190Y-104259785D01*
X132501714Y-102831214D02*
X133168380Y-102831214D01*
X132120761Y-103069309D02*
X132835047Y-103307404D01*
X132835047Y-102688357D01*
X132596952Y-102164547D02*
X132549333Y-102259785D01*
X132501714Y-102307404D01*
X132406476Y-102355023D01*
X132358857Y-102355023D01*
X132263619Y-102307404D01*
X132216000Y-102259785D01*
X132168380Y-102164547D01*
X132168380Y-101974071D01*
X132216000Y-101878833D01*
X132263619Y-101831214D01*
X132358857Y-101783595D01*
X132406476Y-101783595D01*
X132501714Y-101831214D01*
X132549333Y-101878833D01*
X132596952Y-101974071D01*
X132596952Y-102164547D01*
X132644571Y-102259785D01*
X132692190Y-102307404D01*
X132787428Y-102355023D01*
X132977904Y-102355023D01*
X133073142Y-102307404D01*
X133120761Y-102259785D01*
X133168380Y-102164547D01*
X133168380Y-101974071D01*
X133120761Y-101878833D01*
X133073142Y-101831214D01*
X132977904Y-101783595D01*
X132787428Y-101783595D01*
X132692190Y-101831214D01*
X132644571Y-101878833D01*
X132596952Y-101974071D01*
X118180642Y-113290880D02*
X117847309Y-112814690D01*
X117609214Y-113290880D02*
X117609214Y-112290880D01*
X117990166Y-112290880D01*
X118085404Y-112338500D01*
X118133023Y-112386119D01*
X118180642Y-112481357D01*
X118180642Y-112624214D01*
X118133023Y-112719452D01*
X118085404Y-112767071D01*
X117990166Y-112814690D01*
X117609214Y-112814690D01*
X119037785Y-112624214D02*
X119037785Y-113290880D01*
X118799690Y-112243261D02*
X118561595Y-112957547D01*
X119180642Y-112957547D01*
X119609214Y-113290880D02*
X119799690Y-113290880D01*
X119894928Y-113243261D01*
X119942547Y-113195642D01*
X120037785Y-113052785D01*
X120085404Y-112862309D01*
X120085404Y-112481357D01*
X120037785Y-112386119D01*
X119990166Y-112338500D01*
X119894928Y-112290880D01*
X119704452Y-112290880D01*
X119609214Y-112338500D01*
X119561595Y-112386119D01*
X119513976Y-112481357D01*
X119513976Y-112719452D01*
X119561595Y-112814690D01*
X119609214Y-112862309D01*
X119704452Y-112909928D01*
X119894928Y-112909928D01*
X119990166Y-112862309D01*
X120037785Y-112814690D01*
X120085404Y-112719452D01*
X62538880Y-88135047D02*
X62062690Y-88468380D01*
X62538880Y-88706476D02*
X61538880Y-88706476D01*
X61538880Y-88325523D01*
X61586500Y-88230285D01*
X61634119Y-88182666D01*
X61729357Y-88135047D01*
X61872214Y-88135047D01*
X61967452Y-88182666D01*
X62015071Y-88230285D01*
X62062690Y-88325523D01*
X62062690Y-88706476D01*
X62538880Y-87182666D02*
X62538880Y-87754095D01*
X62538880Y-87468380D02*
X61538880Y-87468380D01*
X61681738Y-87563619D01*
X61776976Y-87658857D01*
X61824595Y-87754095D01*
X61538880Y-86325523D02*
X61538880Y-86516000D01*
X61586500Y-86611238D01*
X61634119Y-86658857D01*
X61776976Y-86754095D01*
X61967452Y-86801714D01*
X62348404Y-86801714D01*
X62443642Y-86754095D01*
X62491261Y-86706476D01*
X62538880Y-86611238D01*
X62538880Y-86420761D01*
X62491261Y-86325523D01*
X62443642Y-86277904D01*
X62348404Y-86230285D01*
X62110309Y-86230285D01*
X62015071Y-86277904D01*
X61967452Y-86325523D01*
X61919833Y-86420761D01*
X61919833Y-86611238D01*
X61967452Y-86706476D01*
X62015071Y-86754095D01*
X62110309Y-86801714D01*
X61538880Y-85373142D02*
X61538880Y-85563619D01*
X61586500Y-85658857D01*
X61634119Y-85706476D01*
X61776976Y-85801714D01*
X61967452Y-85849333D01*
X62348404Y-85849333D01*
X62443642Y-85801714D01*
X62491261Y-85754095D01*
X62538880Y-85658857D01*
X62538880Y-85468380D01*
X62491261Y-85373142D01*
X62443642Y-85325523D01*
X62348404Y-85277904D01*
X62110309Y-85277904D01*
X62015071Y-85325523D01*
X61967452Y-85373142D01*
X61919833Y-85468380D01*
X61919833Y-85658857D01*
X61967452Y-85754095D01*
X62015071Y-85801714D01*
X62110309Y-85849333D01*
X62538880Y-77552047D02*
X62062690Y-77885380D01*
X62538880Y-78123476D02*
X61538880Y-78123476D01*
X61538880Y-77742523D01*
X61586500Y-77647285D01*
X61634119Y-77599666D01*
X61729357Y-77552047D01*
X61872214Y-77552047D01*
X61967452Y-77599666D01*
X62015071Y-77647285D01*
X62062690Y-77742523D01*
X62062690Y-78123476D01*
X62538880Y-76599666D02*
X62538880Y-77171095D01*
X62538880Y-76885380D02*
X61538880Y-76885380D01*
X61681738Y-76980619D01*
X61776976Y-77075857D01*
X61824595Y-77171095D01*
X61538880Y-76266333D02*
X61538880Y-75599666D01*
X62538880Y-76028238D01*
X61538880Y-75313952D02*
X61538880Y-74647285D01*
X62538880Y-75075857D01*
X68532880Y-108089595D02*
X68532880Y-107518166D01*
X69532880Y-107803880D02*
X68532880Y-107803880D01*
X69532880Y-106613404D02*
X69056690Y-106946738D01*
X69532880Y-107184833D02*
X68532880Y-107184833D01*
X68532880Y-106803880D01*
X68580500Y-106708642D01*
X68628119Y-106661023D01*
X68723357Y-106613404D01*
X68866214Y-106613404D01*
X68961452Y-106661023D01*
X69009071Y-106708642D01*
X69056690Y-106803880D01*
X69056690Y-107184833D01*
X68532880Y-106280071D02*
X68532880Y-105613404D01*
X69532880Y-106041976D01*
X68532880Y-105327690D02*
X68532880Y-104661023D01*
X69532880Y-105089595D01*
X124396666Y-120498761D02*
X124539523Y-120546380D01*
X124777619Y-120546380D01*
X124872857Y-120498761D01*
X124920476Y-120451142D01*
X124968095Y-120355904D01*
X124968095Y-120260666D01*
X124920476Y-120165428D01*
X124872857Y-120117809D01*
X124777619Y-120070190D01*
X124587142Y-120022571D01*
X124491904Y-119974952D01*
X124444285Y-119927333D01*
X124396666Y-119832095D01*
X124396666Y-119736857D01*
X124444285Y-119641619D01*
X124491904Y-119594000D01*
X124587142Y-119546380D01*
X124825238Y-119546380D01*
X124968095Y-119594000D01*
X125301428Y-119546380D02*
X125539523Y-120546380D01*
X125730000Y-119832095D01*
X125920476Y-120546380D01*
X126158571Y-119546380D01*
X127063333Y-120546380D02*
X126491904Y-120546380D01*
X126777619Y-120546380D02*
X126777619Y-119546380D01*
X126682380Y-119689238D01*
X126587142Y-119784476D01*
X126491904Y-119832095D01*
X118435595Y-128979380D02*
X119007023Y-128979380D01*
X118721309Y-129979380D02*
X118721309Y-128979380D01*
X119340357Y-129979380D02*
X119340357Y-128979380D01*
X119721309Y-128979380D01*
X119816547Y-129027000D01*
X119864166Y-129074619D01*
X119911785Y-129169857D01*
X119911785Y-129312714D01*
X119864166Y-129407952D01*
X119816547Y-129455571D01*
X119721309Y-129503190D01*
X119340357Y-129503190D01*
X120864166Y-129979380D02*
X120292738Y-129979380D01*
X120578452Y-129979380D02*
X120578452Y-128979380D01*
X120483214Y-129122238D01*
X120387976Y-129217476D01*
X120292738Y-129265095D01*
X124595095Y-128979380D02*
X125166523Y-128979380D01*
X124880809Y-129979380D02*
X124880809Y-128979380D01*
X125499857Y-129979380D02*
X125499857Y-128979380D01*
X125880809Y-128979380D01*
X125976047Y-129027000D01*
X126023666Y-129074619D01*
X126071285Y-129169857D01*
X126071285Y-129312714D01*
X126023666Y-129407952D01*
X125976047Y-129455571D01*
X125880809Y-129503190D01*
X125499857Y-129503190D01*
X126452238Y-129074619D02*
X126499857Y-129027000D01*
X126595095Y-128979380D01*
X126833190Y-128979380D01*
X126928428Y-129027000D01*
X126976047Y-129074619D01*
X127023666Y-129169857D01*
X127023666Y-129265095D01*
X126976047Y-129407952D01*
X126404619Y-129979380D01*
X127023666Y-129979380D01*
X98091833Y-92611880D02*
X97758500Y-92135690D01*
X97520404Y-92611880D02*
X97520404Y-91611880D01*
X97901357Y-91611880D01*
X97996595Y-91659500D01*
X98044214Y-91707119D01*
X98091833Y-91802357D01*
X98091833Y-91945214D01*
X98044214Y-92040452D01*
X97996595Y-92088071D01*
X97901357Y-92135690D01*
X97520404Y-92135690D01*
X99044214Y-91659500D02*
X98948976Y-91611880D01*
X98806119Y-91611880D01*
X98663261Y-91659500D01*
X98568023Y-91754738D01*
X98520404Y-91849976D01*
X98472785Y-92040452D01*
X98472785Y-92183309D01*
X98520404Y-92373785D01*
X98568023Y-92469023D01*
X98663261Y-92564261D01*
X98806119Y-92611880D01*
X98901357Y-92611880D01*
X99044214Y-92564261D01*
X99091833Y-92516642D01*
X99091833Y-92183309D01*
X98901357Y-92183309D01*
X100044214Y-92611880D02*
X99472785Y-92611880D01*
X99758500Y-92611880D02*
X99758500Y-91611880D01*
X99663261Y-91754738D01*
X99568023Y-91849976D01*
X99472785Y-91897595D01*
X110776642Y-78692666D02*
X110824261Y-78740285D01*
X110871880Y-78883142D01*
X110871880Y-78978380D01*
X110824261Y-79121238D01*
X110729023Y-79216476D01*
X110633785Y-79264095D01*
X110443309Y-79311714D01*
X110300452Y-79311714D01*
X110109976Y-79264095D01*
X110014738Y-79216476D01*
X109919500Y-79121238D01*
X109871880Y-78978380D01*
X109871880Y-78883142D01*
X109919500Y-78740285D01*
X109967119Y-78692666D01*
X109967119Y-78311714D02*
X109919500Y-78264095D01*
X109871880Y-78168857D01*
X109871880Y-77930761D01*
X109919500Y-77835523D01*
X109967119Y-77787904D01*
X110062357Y-77740285D01*
X110157595Y-77740285D01*
X110300452Y-77787904D01*
X110871880Y-78359333D01*
X110871880Y-77740285D01*
X111411642Y-52943357D02*
X111459261Y-52990976D01*
X111506880Y-53133833D01*
X111506880Y-53229071D01*
X111459261Y-53371928D01*
X111364023Y-53467166D01*
X111268785Y-53514785D01*
X111078309Y-53562404D01*
X110935452Y-53562404D01*
X110744976Y-53514785D01*
X110649738Y-53467166D01*
X110554500Y-53371928D01*
X110506880Y-53229071D01*
X110506880Y-53133833D01*
X110554500Y-52990976D01*
X110602119Y-52943357D01*
X111506880Y-51990976D02*
X111506880Y-52562404D01*
X111506880Y-52276690D02*
X110506880Y-52276690D01*
X110649738Y-52371928D01*
X110744976Y-52467166D01*
X110792595Y-52562404D01*
X110602119Y-51610023D02*
X110554500Y-51562404D01*
X110506880Y-51467166D01*
X110506880Y-51229071D01*
X110554500Y-51133833D01*
X110602119Y-51086214D01*
X110697357Y-51038595D01*
X110792595Y-51038595D01*
X110935452Y-51086214D01*
X111506880Y-51657642D01*
X111506880Y-51038595D01*
M02*
