%TF.GenerationSoftware,KiCad,Pcbnew,5.1.5-52549c5~84~ubuntu18.04.1*%
%TF.CreationDate,2020-04-30T17:46:21+12:00*%
%TF.ProjectId,Trimodal SMD Cheap,5472696d-6f64-4616-9c20-534d44204368,rev?*%
%TF.SameCoordinates,Original*%
%TF.FileFunction,Soldermask,Bot*%
%TF.FilePolarity,Negative*%
%FSLAX46Y46*%
G04 Gerber Fmt 4.6, Leading zero omitted, Abs format (unit mm)*
G04 Created by KiCad (PCBNEW 5.1.5-52549c5~84~ubuntu18.04.1) date 2020-04-30 17:46:21*
%MOMM*%
%LPD*%
G04 APERTURE LIST*
%ADD10C,0.100000*%
%ADD11C,0.150000*%
G04 APERTURE END LIST*
D10*
X146494500Y-32131000D02*
X146367500Y-131572000D01*
X62230000Y-32194500D02*
X146494500Y-32131000D01*
X62293500Y-131635500D02*
X62230000Y-32194500D01*
X146367500Y-131572000D02*
X62293500Y-131635500D01*
D11*
G36*
X66119972Y-127273912D02*
G01*
X66215540Y-127283325D01*
X66460780Y-127357718D01*
X66686794Y-127478525D01*
X66738399Y-127520876D01*
X66884897Y-127641103D01*
X66988165Y-127766937D01*
X67047475Y-127839206D01*
X67168282Y-128065220D01*
X67242675Y-128310460D01*
X67267794Y-128565500D01*
X67242675Y-128820540D01*
X67168282Y-129065780D01*
X67047475Y-129291794D01*
X67005124Y-129343399D01*
X66884897Y-129489897D01*
X66738399Y-129610124D01*
X66686794Y-129652475D01*
X66460780Y-129773282D01*
X66215540Y-129847675D01*
X66119973Y-129857087D01*
X66024406Y-129866500D01*
X63896594Y-129866500D01*
X63801027Y-129857087D01*
X63705460Y-129847675D01*
X63460220Y-129773282D01*
X63234206Y-129652475D01*
X63182601Y-129610124D01*
X63036103Y-129489897D01*
X62915876Y-129343399D01*
X62873525Y-129291794D01*
X62752718Y-129065780D01*
X62678325Y-128820540D01*
X62653206Y-128565500D01*
X62678325Y-128310460D01*
X62752718Y-128065220D01*
X62873525Y-127839206D01*
X62932835Y-127766937D01*
X63036103Y-127641103D01*
X63182601Y-127520876D01*
X63234206Y-127478525D01*
X63460220Y-127357718D01*
X63705460Y-127283325D01*
X63801028Y-127273912D01*
X63896594Y-127264500D01*
X66024406Y-127264500D01*
X66119972Y-127273912D01*
G37*
G36*
X126251072Y-125827918D02*
G01*
X126383476Y-125882761D01*
X126496939Y-125929759D01*
X126608328Y-126004187D01*
X126718211Y-126077609D01*
X126906391Y-126265789D01*
X127054242Y-126487063D01*
X127156082Y-126732928D01*
X127194734Y-126927242D01*
X127208000Y-126993938D01*
X127208000Y-127260062D01*
X127156082Y-127521072D01*
X127054241Y-127766939D01*
X126906390Y-127988212D01*
X126718212Y-128176390D01*
X126496939Y-128324241D01*
X126496938Y-128324242D01*
X126496937Y-128324242D01*
X126251072Y-128426082D01*
X125990063Y-128478000D01*
X125723937Y-128478000D01*
X125462928Y-128426082D01*
X125217063Y-128324242D01*
X125217062Y-128324242D01*
X125217061Y-128324241D01*
X124995788Y-128176390D01*
X124807610Y-127988212D01*
X124659759Y-127766939D01*
X124557918Y-127521072D01*
X124506000Y-127260062D01*
X124506000Y-126993938D01*
X124519267Y-126927242D01*
X124557918Y-126732928D01*
X124659758Y-126487063D01*
X124807609Y-126265789D01*
X124995789Y-126077609D01*
X125105672Y-126004187D01*
X125217061Y-125929759D01*
X125330525Y-125882761D01*
X125462928Y-125827918D01*
X125723937Y-125776000D01*
X125990063Y-125776000D01*
X126251072Y-125827918D01*
G37*
G36*
X120091572Y-125827918D02*
G01*
X120223976Y-125882761D01*
X120337439Y-125929759D01*
X120448828Y-126004187D01*
X120558711Y-126077609D01*
X120746891Y-126265789D01*
X120894742Y-126487063D01*
X120996582Y-126732928D01*
X121035234Y-126927242D01*
X121048500Y-126993938D01*
X121048500Y-127260062D01*
X120996582Y-127521072D01*
X120894741Y-127766939D01*
X120746890Y-127988212D01*
X120558712Y-128176390D01*
X120337439Y-128324241D01*
X120337438Y-128324242D01*
X120337437Y-128324242D01*
X120091572Y-128426082D01*
X119830563Y-128478000D01*
X119564437Y-128478000D01*
X119303428Y-128426082D01*
X119057563Y-128324242D01*
X119057562Y-128324242D01*
X119057561Y-128324241D01*
X118836288Y-128176390D01*
X118648110Y-127988212D01*
X118500259Y-127766939D01*
X118398418Y-127521072D01*
X118346500Y-127260062D01*
X118346500Y-126993938D01*
X118359767Y-126927242D01*
X118398418Y-126732928D01*
X118500258Y-126487063D01*
X118648109Y-126265789D01*
X118836289Y-126077609D01*
X118946172Y-126004187D01*
X119057561Y-125929759D01*
X119171025Y-125882761D01*
X119303428Y-125827918D01*
X119564437Y-125776000D01*
X119830563Y-125776000D01*
X120091572Y-125827918D01*
G37*
G36*
X84725777Y-124202475D02*
G01*
X84907410Y-124238604D01*
X85189674Y-124355521D01*
X85443705Y-124525259D01*
X85659741Y-124741295D01*
X85829479Y-124995326D01*
X85946396Y-125277590D01*
X86006000Y-125577240D01*
X86006000Y-125882760D01*
X85946396Y-126182410D01*
X85829479Y-126464674D01*
X85659741Y-126718705D01*
X85443705Y-126934741D01*
X85189674Y-127104479D01*
X84907410Y-127221396D01*
X84757585Y-127251198D01*
X84607761Y-127281000D01*
X84302239Y-127281000D01*
X84152415Y-127251198D01*
X84002590Y-127221396D01*
X83720326Y-127104479D01*
X83466295Y-126934741D01*
X83250259Y-126718705D01*
X83080521Y-126464674D01*
X82963604Y-126182410D01*
X82904000Y-125882760D01*
X82904000Y-125577240D01*
X82963604Y-125277590D01*
X83080521Y-124995326D01*
X83250259Y-124741295D01*
X83466295Y-124525259D01*
X83720326Y-124355521D01*
X84002590Y-124238604D01*
X84184223Y-124202475D01*
X84302239Y-124179000D01*
X84607761Y-124179000D01*
X84725777Y-124202475D01*
G37*
G36*
X107325777Y-124202475D02*
G01*
X107507410Y-124238604D01*
X107789674Y-124355521D01*
X108043705Y-124525259D01*
X108259741Y-124741295D01*
X108429479Y-124995326D01*
X108546396Y-125277590D01*
X108606000Y-125577240D01*
X108606000Y-125882760D01*
X108546396Y-126182410D01*
X108429479Y-126464674D01*
X108259741Y-126718705D01*
X108043705Y-126934741D01*
X107789674Y-127104479D01*
X107507410Y-127221396D01*
X107357585Y-127251198D01*
X107207761Y-127281000D01*
X106902239Y-127281000D01*
X106752415Y-127251198D01*
X106602590Y-127221396D01*
X106320326Y-127104479D01*
X106066295Y-126934741D01*
X105850259Y-126718705D01*
X105680521Y-126464674D01*
X105563604Y-126182410D01*
X105504000Y-125882760D01*
X105504000Y-125577240D01*
X105563604Y-125277590D01*
X105680521Y-124995326D01*
X105850259Y-124741295D01*
X106066295Y-124525259D01*
X106320326Y-124355521D01*
X106602590Y-124238604D01*
X106784223Y-124202475D01*
X106902239Y-124179000D01*
X107207761Y-124179000D01*
X107325777Y-124202475D01*
G37*
G36*
X112789072Y-124430918D02*
G01*
X113016833Y-124525259D01*
X113034939Y-124532759D01*
X113146328Y-124607187D01*
X113256211Y-124680609D01*
X113444391Y-124868789D01*
X113592242Y-125090063D01*
X113694082Y-125335928D01*
X113746000Y-125596937D01*
X113746000Y-125863063D01*
X113732733Y-125929759D01*
X113694082Y-126124072D01*
X113592241Y-126369939D01*
X113444390Y-126591212D01*
X113256212Y-126779390D01*
X113034939Y-126927241D01*
X113034938Y-126927242D01*
X113034937Y-126927242D01*
X112789072Y-127029082D01*
X112528063Y-127081000D01*
X112261937Y-127081000D01*
X112000928Y-127029082D01*
X111755063Y-126927242D01*
X111755062Y-126927242D01*
X111755061Y-126927241D01*
X111533788Y-126779390D01*
X111345610Y-126591212D01*
X111197759Y-126369939D01*
X111095918Y-126124072D01*
X111057267Y-125929759D01*
X111044000Y-125863063D01*
X111044000Y-125596937D01*
X111095918Y-125335928D01*
X111197758Y-125090063D01*
X111345609Y-124868789D01*
X111533789Y-124680609D01*
X111643672Y-124607187D01*
X111755061Y-124532759D01*
X111773168Y-124525259D01*
X112000928Y-124430918D01*
X112261937Y-124379000D01*
X112528063Y-124379000D01*
X112789072Y-124430918D01*
G37*
G36*
X66119973Y-121823913D02*
G01*
X66215540Y-121833325D01*
X66460780Y-121907718D01*
X66686794Y-122028525D01*
X66738399Y-122070876D01*
X66884897Y-122191103D01*
X67005124Y-122337601D01*
X67047475Y-122389206D01*
X67168282Y-122615220D01*
X67242675Y-122860460D01*
X67267794Y-123115500D01*
X67242675Y-123370540D01*
X67168282Y-123615780D01*
X67047475Y-123841794D01*
X67005124Y-123893399D01*
X66884897Y-124039897D01*
X66738399Y-124160124D01*
X66686794Y-124202475D01*
X66460780Y-124323282D01*
X66215540Y-124397675D01*
X66119973Y-124407087D01*
X66024406Y-124416500D01*
X63896594Y-124416500D01*
X63801027Y-124407087D01*
X63705460Y-124397675D01*
X63460220Y-124323282D01*
X63234206Y-124202475D01*
X63182601Y-124160124D01*
X63036103Y-124039897D01*
X62915876Y-123893399D01*
X62873525Y-123841794D01*
X62752718Y-123615780D01*
X62678325Y-123370540D01*
X62653206Y-123115500D01*
X62678325Y-122860460D01*
X62752718Y-122615220D01*
X62873525Y-122389206D01*
X62915876Y-122337601D01*
X63036103Y-122191103D01*
X63182601Y-122070876D01*
X63234206Y-122028525D01*
X63460220Y-121907718D01*
X63705460Y-121833325D01*
X63801027Y-121823913D01*
X63896594Y-121814500D01*
X66024406Y-121814500D01*
X66119973Y-121823913D01*
G37*
G36*
X67261500Y-118966500D02*
G01*
X62659500Y-118966500D01*
X62659500Y-116364500D01*
X67261500Y-116364500D01*
X67261500Y-118966500D01*
G37*
G36*
X140919572Y-115413918D02*
G01*
X141165439Y-115515759D01*
X141276828Y-115590187D01*
X141386711Y-115663609D01*
X141574891Y-115851789D01*
X141722742Y-116073063D01*
X141824582Y-116318928D01*
X141876500Y-116579937D01*
X141876500Y-116846063D01*
X141824582Y-117107072D01*
X141742654Y-117304866D01*
X141722741Y-117352939D01*
X141574890Y-117574212D01*
X141386712Y-117762390D01*
X141165439Y-117910241D01*
X141165438Y-117910242D01*
X141165437Y-117910242D01*
X140919572Y-118012082D01*
X140658563Y-118064000D01*
X140392437Y-118064000D01*
X140131428Y-118012082D01*
X139885563Y-117910242D01*
X139885562Y-117910242D01*
X139885561Y-117910241D01*
X139664288Y-117762390D01*
X139476110Y-117574212D01*
X139328259Y-117352939D01*
X139308347Y-117304866D01*
X139226418Y-117107072D01*
X139174500Y-116846063D01*
X139174500Y-116579937D01*
X139226418Y-116318928D01*
X139328258Y-116073063D01*
X139476109Y-115851789D01*
X139664289Y-115663609D01*
X139774172Y-115590187D01*
X139885561Y-115515759D01*
X140131428Y-115413918D01*
X140392437Y-115362000D01*
X140658563Y-115362000D01*
X140919572Y-115413918D01*
G37*
G36*
X89789943Y-112001248D02*
G01*
X90345189Y-112231238D01*
X90450762Y-112301780D01*
X90844899Y-112565134D01*
X91269866Y-112990101D01*
X91437948Y-113241653D01*
X91603762Y-113489811D01*
X91833752Y-114045057D01*
X91951000Y-114634501D01*
X91951000Y-115235499D01*
X91833752Y-115824943D01*
X91603762Y-116380189D01*
X91603761Y-116380190D01*
X91269866Y-116879899D01*
X90844899Y-117304866D01*
X90593347Y-117472948D01*
X90345189Y-117638762D01*
X89789943Y-117868752D01*
X89200499Y-117986000D01*
X88599501Y-117986000D01*
X88010057Y-117868752D01*
X87454811Y-117638762D01*
X87206653Y-117472948D01*
X86955101Y-117304866D01*
X86530134Y-116879899D01*
X86196239Y-116380190D01*
X86196238Y-116380189D01*
X85966248Y-115824943D01*
X85849000Y-115235499D01*
X85849000Y-114634501D01*
X85966248Y-114045057D01*
X86196238Y-113489811D01*
X86362052Y-113241653D01*
X86530134Y-112990101D01*
X86955101Y-112565134D01*
X87349238Y-112301780D01*
X87454811Y-112231238D01*
X88010057Y-112001248D01*
X88599501Y-111884000D01*
X89200499Y-111884000D01*
X89789943Y-112001248D01*
G37*
G36*
X140688446Y-111075206D02*
G01*
X140792572Y-111095918D01*
X141038439Y-111197759D01*
X141149828Y-111272187D01*
X141259711Y-111345609D01*
X141447891Y-111533789D01*
X141595742Y-111755063D01*
X141697582Y-112000928D01*
X141749500Y-112261937D01*
X141749500Y-112528063D01*
X141697582Y-112789072D01*
X141606369Y-113009282D01*
X141595741Y-113034939D01*
X141447890Y-113256212D01*
X141259712Y-113444390D01*
X141038439Y-113592241D01*
X141038438Y-113592242D01*
X141038437Y-113592242D01*
X140792572Y-113694082D01*
X140531563Y-113746000D01*
X140265437Y-113746000D01*
X140004428Y-113694082D01*
X139758563Y-113592242D01*
X139758562Y-113592242D01*
X139758561Y-113592241D01*
X139537288Y-113444390D01*
X139349110Y-113256212D01*
X139201259Y-113034939D01*
X139190632Y-113009282D01*
X139099418Y-112789072D01*
X139047500Y-112528063D01*
X139047500Y-112261937D01*
X139099418Y-112000928D01*
X139201258Y-111755063D01*
X139349109Y-111533789D01*
X139537289Y-111345609D01*
X139647172Y-111272187D01*
X139758561Y-111197759D01*
X140004428Y-111095918D01*
X140108554Y-111075206D01*
X140265437Y-111044000D01*
X140531563Y-111044000D01*
X140688446Y-111075206D01*
G37*
G36*
X66119973Y-110509913D02*
G01*
X66215540Y-110519325D01*
X66460780Y-110593718D01*
X66686794Y-110714525D01*
X66738399Y-110756876D01*
X66884897Y-110877103D01*
X67005124Y-111023601D01*
X67047475Y-111075206D01*
X67168282Y-111301220D01*
X67242675Y-111546460D01*
X67267794Y-111801500D01*
X67242675Y-112056540D01*
X67168282Y-112301780D01*
X67047475Y-112527794D01*
X67016831Y-112565134D01*
X66884897Y-112725897D01*
X66738399Y-112846124D01*
X66686794Y-112888475D01*
X66460780Y-113009282D01*
X66215540Y-113083675D01*
X66119973Y-113093087D01*
X66024406Y-113102500D01*
X63896594Y-113102500D01*
X63801027Y-113093087D01*
X63705460Y-113083675D01*
X63460220Y-113009282D01*
X63234206Y-112888475D01*
X63182601Y-112846124D01*
X63036103Y-112725897D01*
X62904169Y-112565134D01*
X62873525Y-112527794D01*
X62752718Y-112301780D01*
X62678325Y-112056540D01*
X62653206Y-111801500D01*
X62678325Y-111546460D01*
X62752718Y-111301220D01*
X62873525Y-111075206D01*
X62915876Y-111023601D01*
X63036103Y-110877103D01*
X63182601Y-110756876D01*
X63234206Y-110714525D01*
X63460220Y-110593718D01*
X63705460Y-110519325D01*
X63801027Y-110509913D01*
X63896594Y-110500500D01*
X66024406Y-110500500D01*
X66119973Y-110509913D01*
G37*
G36*
X66043656Y-105052396D02*
G01*
X66215540Y-105069325D01*
X66460780Y-105143718D01*
X66686794Y-105264525D01*
X66738399Y-105306876D01*
X66884897Y-105427103D01*
X66955956Y-105513690D01*
X67047475Y-105625206D01*
X67168282Y-105851220D01*
X67242675Y-106096460D01*
X67267794Y-106351500D01*
X67242675Y-106606540D01*
X67168282Y-106851780D01*
X67047475Y-107077794D01*
X67005124Y-107129399D01*
X66884897Y-107275897D01*
X66738399Y-107396124D01*
X66686794Y-107438475D01*
X66460780Y-107559282D01*
X66215540Y-107633675D01*
X66119973Y-107643087D01*
X66024406Y-107652500D01*
X63896594Y-107652500D01*
X63801027Y-107643087D01*
X63705460Y-107633675D01*
X63460220Y-107559282D01*
X63234206Y-107438475D01*
X63182601Y-107396124D01*
X63036103Y-107275897D01*
X62915876Y-107129399D01*
X62873525Y-107077794D01*
X62752718Y-106851780D01*
X62678325Y-106606540D01*
X62653206Y-106351500D01*
X62678325Y-106096460D01*
X62752718Y-105851220D01*
X62873525Y-105625206D01*
X62965044Y-105513690D01*
X63036103Y-105427103D01*
X63182601Y-105306876D01*
X63234206Y-105264525D01*
X63460220Y-105143718D01*
X63705460Y-105069325D01*
X63877344Y-105052396D01*
X63896594Y-105050500D01*
X66024406Y-105050500D01*
X66043656Y-105052396D01*
G37*
G36*
X92987395Y-103860546D02*
G01*
X93160466Y-103932234D01*
X93160467Y-103932235D01*
X93316227Y-104036310D01*
X93448690Y-104168773D01*
X93448691Y-104168775D01*
X93552766Y-104324534D01*
X93624454Y-104497605D01*
X93661000Y-104681333D01*
X93661000Y-104868667D01*
X93624454Y-105052395D01*
X93552766Y-105225466D01*
X93501081Y-105302818D01*
X93448690Y-105381227D01*
X93316227Y-105513690D01*
X93237818Y-105566081D01*
X93160466Y-105617766D01*
X92987395Y-105689454D01*
X92803667Y-105726000D01*
X92616333Y-105726000D01*
X92432605Y-105689454D01*
X92259534Y-105617766D01*
X92182182Y-105566081D01*
X92103773Y-105513690D01*
X91971310Y-105381227D01*
X91918919Y-105302818D01*
X91867234Y-105225466D01*
X91795546Y-105052395D01*
X91759000Y-104868667D01*
X91759000Y-104681333D01*
X91795546Y-104497605D01*
X91867234Y-104324534D01*
X91971309Y-104168775D01*
X91971310Y-104168773D01*
X92103773Y-104036310D01*
X92259533Y-103932235D01*
X92259534Y-103932234D01*
X92432605Y-103860546D01*
X92616333Y-103824000D01*
X92803667Y-103824000D01*
X92987395Y-103860546D01*
G37*
G36*
X86041000Y-105726000D02*
G01*
X84139000Y-105726000D01*
X84139000Y-103824000D01*
X86041000Y-103824000D01*
X86041000Y-105726000D01*
G37*
G36*
X92987395Y-101320546D02*
G01*
X93160466Y-101392234D01*
X93160467Y-101392235D01*
X93316227Y-101496310D01*
X93448690Y-101628773D01*
X93448691Y-101628775D01*
X93552766Y-101784534D01*
X93624454Y-101957605D01*
X93661000Y-102141333D01*
X93661000Y-102328667D01*
X93624454Y-102512395D01*
X93552766Y-102685466D01*
X93552765Y-102685467D01*
X93448690Y-102841227D01*
X93316227Y-102973690D01*
X93237818Y-103026081D01*
X93160466Y-103077766D01*
X92987395Y-103149454D01*
X92803667Y-103186000D01*
X92616333Y-103186000D01*
X92432605Y-103149454D01*
X92259534Y-103077766D01*
X92182182Y-103026081D01*
X92103773Y-102973690D01*
X91971310Y-102841227D01*
X91867235Y-102685467D01*
X91867234Y-102685466D01*
X91795546Y-102512395D01*
X91759000Y-102328667D01*
X91759000Y-102141333D01*
X91795546Y-101957605D01*
X91867234Y-101784534D01*
X91971309Y-101628775D01*
X91971310Y-101628773D01*
X92103773Y-101496310D01*
X92259533Y-101392235D01*
X92259534Y-101392234D01*
X92432605Y-101320546D01*
X92616333Y-101284000D01*
X92803667Y-101284000D01*
X92987395Y-101320546D01*
G37*
G36*
X85367395Y-101320546D02*
G01*
X85540466Y-101392234D01*
X85540467Y-101392235D01*
X85696227Y-101496310D01*
X85828690Y-101628773D01*
X85828691Y-101628775D01*
X85932766Y-101784534D01*
X86004454Y-101957605D01*
X86041000Y-102141333D01*
X86041000Y-102328667D01*
X86004454Y-102512395D01*
X85932766Y-102685466D01*
X85932765Y-102685467D01*
X85828690Y-102841227D01*
X85696227Y-102973690D01*
X85617818Y-103026081D01*
X85540466Y-103077766D01*
X85367395Y-103149454D01*
X85183667Y-103186000D01*
X84996333Y-103186000D01*
X84812605Y-103149454D01*
X84639534Y-103077766D01*
X84562182Y-103026081D01*
X84483773Y-102973690D01*
X84351310Y-102841227D01*
X84247235Y-102685467D01*
X84247234Y-102685466D01*
X84175546Y-102512395D01*
X84139000Y-102328667D01*
X84139000Y-102141333D01*
X84175546Y-101957605D01*
X84247234Y-101784534D01*
X84351309Y-101628775D01*
X84351310Y-101628773D01*
X84483773Y-101496310D01*
X84639533Y-101392235D01*
X84639534Y-101392234D01*
X84812605Y-101320546D01*
X84996333Y-101284000D01*
X85183667Y-101284000D01*
X85367395Y-101320546D01*
G37*
G36*
X67261500Y-102202500D02*
G01*
X62659500Y-102202500D01*
X62659500Y-99600500D01*
X67261500Y-99600500D01*
X67261500Y-102202500D01*
G37*
G36*
X104378205Y-99727461D02*
G01*
X104496153Y-99750922D01*
X104587272Y-99788665D01*
X104718359Y-99842963D01*
X104918342Y-99976587D01*
X105088413Y-100146658D01*
X105222037Y-100346641D01*
X105258094Y-100433690D01*
X105314078Y-100568847D01*
X105361000Y-100804742D01*
X105361000Y-101045258D01*
X105314078Y-101281153D01*
X105297760Y-101320547D01*
X105222037Y-101503359D01*
X105088413Y-101703342D01*
X104918342Y-101873413D01*
X104718359Y-102007037D01*
X104588194Y-102060953D01*
X104496153Y-102099078D01*
X104378205Y-102122539D01*
X104260259Y-102146000D01*
X104019741Y-102146000D01*
X103901795Y-102122539D01*
X103783847Y-102099078D01*
X103691806Y-102060953D01*
X103561641Y-102007037D01*
X103361658Y-101873413D01*
X103191587Y-101703342D01*
X103057963Y-101503359D01*
X102982240Y-101320547D01*
X102965922Y-101281153D01*
X102919000Y-101045258D01*
X102919000Y-100804742D01*
X102965922Y-100568847D01*
X103021906Y-100433690D01*
X103057963Y-100346641D01*
X103191587Y-100146658D01*
X103361658Y-99976587D01*
X103561641Y-99842963D01*
X103692728Y-99788665D01*
X103783847Y-99750922D01*
X103901795Y-99727461D01*
X104019741Y-99704000D01*
X104260259Y-99704000D01*
X104378205Y-99727461D01*
G37*
G36*
X85367395Y-98780546D02*
G01*
X85540466Y-98852234D01*
X85540467Y-98852235D01*
X85696227Y-98956310D01*
X85828690Y-99088773D01*
X85828691Y-99088775D01*
X85932766Y-99244534D01*
X86004454Y-99417605D01*
X86041000Y-99601333D01*
X86041000Y-99788667D01*
X86004454Y-99972395D01*
X85932766Y-100145466D01*
X85881081Y-100222818D01*
X85828690Y-100301227D01*
X85696227Y-100433690D01*
X85617818Y-100486081D01*
X85540466Y-100537766D01*
X85367395Y-100609454D01*
X85183667Y-100646000D01*
X84996333Y-100646000D01*
X84812605Y-100609454D01*
X84639534Y-100537766D01*
X84562182Y-100486081D01*
X84483773Y-100433690D01*
X84351310Y-100301227D01*
X84298919Y-100222818D01*
X84247234Y-100145466D01*
X84175546Y-99972395D01*
X84139000Y-99788667D01*
X84139000Y-99601333D01*
X84175546Y-99417605D01*
X84247234Y-99244534D01*
X84351309Y-99088775D01*
X84351310Y-99088773D01*
X84483773Y-98956310D01*
X84639533Y-98852235D01*
X84639534Y-98852234D01*
X84812605Y-98780546D01*
X84996333Y-98744000D01*
X85183667Y-98744000D01*
X85367395Y-98780546D01*
G37*
G36*
X93661000Y-100646000D02*
G01*
X91759000Y-100646000D01*
X91759000Y-98744000D01*
X93661000Y-98744000D01*
X93661000Y-100646000D01*
G37*
G36*
X114496153Y-97250922D02*
G01*
X114588194Y-97289047D01*
X114718359Y-97342963D01*
X114918342Y-97476587D01*
X115088413Y-97646658D01*
X115222037Y-97846641D01*
X115275953Y-97976806D01*
X115314078Y-98068847D01*
X115361000Y-98304742D01*
X115361000Y-98545258D01*
X115314199Y-98780547D01*
X115314078Y-98781152D01*
X115222037Y-99003359D01*
X115088413Y-99203342D01*
X114918342Y-99373413D01*
X114718359Y-99507037D01*
X114588194Y-99560953D01*
X114496153Y-99599078D01*
X114260259Y-99646000D01*
X114019741Y-99646000D01*
X113901795Y-99622539D01*
X113783847Y-99599078D01*
X113691806Y-99560953D01*
X113561641Y-99507037D01*
X113361658Y-99373413D01*
X113191587Y-99203342D01*
X113057963Y-99003359D01*
X112965922Y-98781152D01*
X112965802Y-98780547D01*
X112919000Y-98545258D01*
X112919000Y-98304742D01*
X112965922Y-98068847D01*
X113004047Y-97976806D01*
X113057963Y-97846641D01*
X113191587Y-97646658D01*
X113361658Y-97476587D01*
X113561641Y-97342963D01*
X113691806Y-97289047D01*
X113783847Y-97250922D01*
X114019741Y-97204000D01*
X114260259Y-97204000D01*
X114496153Y-97250922D01*
G37*
G36*
X104378205Y-94727461D02*
G01*
X104496153Y-94750922D01*
X104588194Y-94789047D01*
X104718359Y-94842963D01*
X104918342Y-94976587D01*
X105088413Y-95146658D01*
X105222037Y-95346641D01*
X105314078Y-95568848D01*
X105361000Y-95804741D01*
X105361000Y-96045259D01*
X105314078Y-96281152D01*
X105222037Y-96503359D01*
X105088413Y-96703342D01*
X104918342Y-96873413D01*
X104718359Y-97007037D01*
X104588194Y-97060953D01*
X104496153Y-97099078D01*
X104378205Y-97122539D01*
X104260259Y-97146000D01*
X104019741Y-97146000D01*
X103901795Y-97122539D01*
X103783847Y-97099078D01*
X103691806Y-97060953D01*
X103561641Y-97007037D01*
X103361658Y-96873413D01*
X103191587Y-96703342D01*
X103057963Y-96503359D01*
X102965922Y-96281152D01*
X102919000Y-96045259D01*
X102919000Y-95804741D01*
X102965922Y-95568848D01*
X103057963Y-95346641D01*
X103191587Y-95146658D01*
X103361658Y-94976587D01*
X103561641Y-94842963D01*
X103691806Y-94789047D01*
X103783847Y-94750922D01*
X103901795Y-94727461D01*
X104019741Y-94704000D01*
X104260259Y-94704000D01*
X104378205Y-94727461D01*
G37*
G36*
X68944903Y-93793075D02*
G01*
X69172571Y-93887378D01*
X69377466Y-94024285D01*
X69551715Y-94198534D01*
X69688622Y-94403429D01*
X69782925Y-94631097D01*
X69831000Y-94872787D01*
X69831000Y-95119213D01*
X69782925Y-95360903D01*
X69688622Y-95588571D01*
X69551715Y-95793466D01*
X69377466Y-95967715D01*
X69172571Y-96104622D01*
X69172570Y-96104623D01*
X69172569Y-96104623D01*
X68944903Y-96198925D01*
X68703214Y-96247000D01*
X68456786Y-96247000D01*
X68215097Y-96198925D01*
X67987431Y-96104623D01*
X67987430Y-96104623D01*
X67987429Y-96104622D01*
X67782534Y-95967715D01*
X67608285Y-95793466D01*
X67471378Y-95588571D01*
X67377075Y-95360903D01*
X67329000Y-95119213D01*
X67329000Y-94872787D01*
X67377075Y-94631097D01*
X67471378Y-94403429D01*
X67608285Y-94198534D01*
X67782534Y-94024285D01*
X67987429Y-93887378D01*
X68215097Y-93793075D01*
X68456786Y-93745000D01*
X68703214Y-93745000D01*
X68944903Y-93793075D01*
G37*
G36*
X89789943Y-86601248D02*
G01*
X90345189Y-86831238D01*
X90345190Y-86831239D01*
X90844899Y-87165134D01*
X91269866Y-87590101D01*
X91269867Y-87590103D01*
X91603762Y-88089811D01*
X91833752Y-88645057D01*
X91951000Y-89234501D01*
X91951000Y-89835499D01*
X91833752Y-90424943D01*
X91603762Y-90980189D01*
X91603761Y-90980190D01*
X91269866Y-91479899D01*
X90844899Y-91904866D01*
X90593347Y-92072948D01*
X90345189Y-92238762D01*
X89789943Y-92468752D01*
X89200499Y-92586000D01*
X88599501Y-92586000D01*
X88010057Y-92468752D01*
X87454811Y-92238762D01*
X87206653Y-92072948D01*
X86955101Y-91904866D01*
X86530134Y-91479899D01*
X86196239Y-90980190D01*
X86196238Y-90980189D01*
X85966248Y-90424943D01*
X85849000Y-89835499D01*
X85849000Y-89234501D01*
X85966248Y-88645057D01*
X86196238Y-88089811D01*
X86530133Y-87590103D01*
X86530134Y-87590101D01*
X86955101Y-87165134D01*
X87454810Y-86831239D01*
X87454811Y-86831238D01*
X88010057Y-86601248D01*
X88599501Y-86484000D01*
X89200499Y-86484000D01*
X89789943Y-86601248D01*
G37*
G36*
X90119572Y-80679418D02*
G01*
X90212134Y-80717758D01*
X90365439Y-80781259D01*
X90476828Y-80855687D01*
X90586711Y-80929109D01*
X90774891Y-81117289D01*
X90922742Y-81338563D01*
X91024582Y-81584428D01*
X91076500Y-81845437D01*
X91076500Y-82111563D01*
X91024582Y-82372572D01*
X90949044Y-82554939D01*
X90922741Y-82618439D01*
X90774890Y-82839712D01*
X90586712Y-83027890D01*
X90365439Y-83175741D01*
X90365438Y-83175742D01*
X90365437Y-83175742D01*
X90119572Y-83277582D01*
X89858563Y-83329500D01*
X89592437Y-83329500D01*
X89331428Y-83277582D01*
X89085563Y-83175742D01*
X89085562Y-83175742D01*
X89085561Y-83175741D01*
X88864288Y-83027890D01*
X88676110Y-82839712D01*
X88528259Y-82618439D01*
X88501957Y-82554939D01*
X88426418Y-82372572D01*
X88374500Y-82111563D01*
X88374500Y-81845437D01*
X88426418Y-81584428D01*
X88528258Y-81338563D01*
X88676109Y-81117289D01*
X88864289Y-80929109D01*
X88974172Y-80855687D01*
X89085561Y-80781259D01*
X89238867Y-80717758D01*
X89331428Y-80679418D01*
X89592437Y-80627500D01*
X89858563Y-80627500D01*
X90119572Y-80679418D01*
G37*
G36*
X85738072Y-80615918D02*
G01*
X85983939Y-80717759D01*
X86078971Y-80781258D01*
X86205211Y-80865609D01*
X86393391Y-81053789D01*
X86541242Y-81275063D01*
X86567544Y-81338563D01*
X86643082Y-81520928D01*
X86695000Y-81781938D01*
X86695000Y-82048062D01*
X86643082Y-82309072D01*
X86541241Y-82554939D01*
X86393390Y-82776212D01*
X86205212Y-82964390D01*
X85983939Y-83112241D01*
X85983938Y-83112242D01*
X85983937Y-83112242D01*
X85738072Y-83214082D01*
X85477063Y-83266000D01*
X85210937Y-83266000D01*
X84949928Y-83214082D01*
X84704063Y-83112242D01*
X84704062Y-83112242D01*
X84704061Y-83112241D01*
X84482788Y-82964390D01*
X84294610Y-82776212D01*
X84146759Y-82554939D01*
X84044918Y-82309072D01*
X83993000Y-82048062D01*
X83993000Y-81781938D01*
X84044918Y-81520928D01*
X84120456Y-81338563D01*
X84146758Y-81275063D01*
X84294609Y-81053789D01*
X84482789Y-80865609D01*
X84609029Y-80781258D01*
X84704061Y-80717759D01*
X84949928Y-80615918D01*
X85210937Y-80564000D01*
X85477063Y-80564000D01*
X85738072Y-80615918D01*
G37*
G36*
X119170500Y-82277000D02*
G01*
X116668500Y-82277000D01*
X116668500Y-79775000D01*
X119170500Y-79775000D01*
X119170500Y-82277000D01*
G37*
G36*
X118284403Y-74823075D02*
G01*
X118512071Y-74917378D01*
X118716966Y-75054285D01*
X118891215Y-75228534D01*
X118891216Y-75228536D01*
X119028123Y-75433431D01*
X119122425Y-75661097D01*
X119170500Y-75902786D01*
X119170500Y-76149214D01*
X119122425Y-76390903D01*
X119038403Y-76593752D01*
X119028122Y-76618571D01*
X118891215Y-76823466D01*
X118716966Y-76997715D01*
X118512071Y-77134622D01*
X118512070Y-77134623D01*
X118512069Y-77134623D01*
X118284403Y-77228925D01*
X118042714Y-77277000D01*
X117796286Y-77277000D01*
X117554597Y-77228925D01*
X117326931Y-77134623D01*
X117326930Y-77134623D01*
X117326929Y-77134622D01*
X117122034Y-76997715D01*
X116947785Y-76823466D01*
X116810878Y-76618571D01*
X116800598Y-76593752D01*
X116716575Y-76390903D01*
X116668500Y-76149214D01*
X116668500Y-75902786D01*
X116716575Y-75661097D01*
X116810877Y-75433431D01*
X116947784Y-75228536D01*
X116947785Y-75228534D01*
X117122034Y-75054285D01*
X117326929Y-74917378D01*
X117554597Y-74823075D01*
X117796286Y-74775000D01*
X118042714Y-74775000D01*
X118284403Y-74823075D01*
G37*
G36*
X89789943Y-70726248D02*
G01*
X90345189Y-70956238D01*
X90345190Y-70956239D01*
X90844899Y-71290134D01*
X91269866Y-71715101D01*
X91269867Y-71715103D01*
X91603762Y-72214811D01*
X91833752Y-72770057D01*
X91951000Y-73359501D01*
X91951000Y-73960499D01*
X91833752Y-74549943D01*
X91603762Y-75105189D01*
X91603761Y-75105190D01*
X91269866Y-75604899D01*
X90844899Y-76029866D01*
X90666284Y-76149213D01*
X90345189Y-76363762D01*
X89789943Y-76593752D01*
X89200499Y-76711000D01*
X88599501Y-76711000D01*
X88010057Y-76593752D01*
X87454811Y-76363762D01*
X87133716Y-76149213D01*
X86955101Y-76029866D01*
X86530134Y-75604899D01*
X86196239Y-75105190D01*
X86196238Y-75105189D01*
X85966248Y-74549943D01*
X85849000Y-73960499D01*
X85849000Y-73359501D01*
X85966248Y-72770057D01*
X86196238Y-72214811D01*
X86530133Y-71715103D01*
X86530134Y-71715101D01*
X86955101Y-71290134D01*
X87454810Y-70956239D01*
X87454811Y-70956238D01*
X88010057Y-70726248D01*
X88599501Y-70609000D01*
X89200499Y-70609000D01*
X89789943Y-70726248D01*
G37*
G36*
X68944903Y-68393075D02*
G01*
X69172571Y-68487378D01*
X69377466Y-68624285D01*
X69551715Y-68798534D01*
X69688622Y-69003429D01*
X69782925Y-69231097D01*
X69831000Y-69472787D01*
X69831000Y-69719213D01*
X69782925Y-69960903D01*
X69688622Y-70188571D01*
X69551715Y-70393466D01*
X69377466Y-70567715D01*
X69172571Y-70704622D01*
X69172570Y-70704623D01*
X69172569Y-70704623D01*
X68944903Y-70798925D01*
X68703214Y-70847000D01*
X68456786Y-70847000D01*
X68215097Y-70798925D01*
X67987431Y-70704623D01*
X67987430Y-70704623D01*
X67987429Y-70704622D01*
X67782534Y-70567715D01*
X67608285Y-70393466D01*
X67471378Y-70188571D01*
X67377075Y-69960903D01*
X67329000Y-69719213D01*
X67329000Y-69472787D01*
X67377075Y-69231097D01*
X67471378Y-69003429D01*
X67608285Y-68798534D01*
X67782534Y-68624285D01*
X67987429Y-68487378D01*
X68215097Y-68393075D01*
X68456786Y-68345000D01*
X68703214Y-68345000D01*
X68944903Y-68393075D01*
G37*
G36*
X69545572Y-64550418D02*
G01*
X69701237Y-64614896D01*
X69791439Y-64652259D01*
X69902828Y-64726687D01*
X70012711Y-64800109D01*
X70200891Y-64988289D01*
X70274313Y-65098172D01*
X70348741Y-65209561D01*
X70450582Y-65455428D01*
X70502500Y-65716438D01*
X70502500Y-65982562D01*
X70450582Y-66243572D01*
X70348741Y-66489439D01*
X70200890Y-66710712D01*
X70012712Y-66898890D01*
X69791439Y-67046741D01*
X69791438Y-67046742D01*
X69791437Y-67046742D01*
X69545572Y-67148582D01*
X69284563Y-67200500D01*
X69018437Y-67200500D01*
X68757428Y-67148582D01*
X68511563Y-67046742D01*
X68511562Y-67046742D01*
X68511561Y-67046741D01*
X68290288Y-66898890D01*
X68102110Y-66710712D01*
X67954259Y-66489439D01*
X67852418Y-66243572D01*
X67800500Y-65982562D01*
X67800500Y-65716438D01*
X67852418Y-65455428D01*
X67954259Y-65209561D01*
X68028687Y-65098172D01*
X68102109Y-64988289D01*
X68290289Y-64800109D01*
X68400172Y-64726687D01*
X68511561Y-64652259D01*
X68601764Y-64614896D01*
X68757428Y-64550418D01*
X69018437Y-64498500D01*
X69284563Y-64498500D01*
X69545572Y-64550418D01*
G37*
G36*
X66119973Y-62398913D02*
G01*
X66215540Y-62408325D01*
X66460780Y-62482718D01*
X66686794Y-62603525D01*
X66738399Y-62645876D01*
X66884897Y-62766103D01*
X67005124Y-62912601D01*
X67047475Y-62964206D01*
X67168282Y-63190220D01*
X67242675Y-63435460D01*
X67267794Y-63690500D01*
X67242675Y-63945540D01*
X67168282Y-64190780D01*
X67047475Y-64416794D01*
X67005124Y-64468399D01*
X66884897Y-64614897D01*
X66738399Y-64735124D01*
X66686794Y-64777475D01*
X66460780Y-64898282D01*
X66215540Y-64972675D01*
X66119973Y-64982087D01*
X66024406Y-64991500D01*
X63896594Y-64991500D01*
X63801027Y-64982087D01*
X63705460Y-64972675D01*
X63460220Y-64898282D01*
X63234206Y-64777475D01*
X63182601Y-64735124D01*
X63036103Y-64614897D01*
X62915876Y-64468399D01*
X62873525Y-64416794D01*
X62752718Y-64190780D01*
X62678325Y-63945540D01*
X62653206Y-63690500D01*
X62678325Y-63435460D01*
X62752718Y-63190220D01*
X62873525Y-62964206D01*
X62915876Y-62912601D01*
X63036103Y-62766103D01*
X63182601Y-62645876D01*
X63234206Y-62603525D01*
X63460220Y-62482718D01*
X63705460Y-62408325D01*
X63801027Y-62398913D01*
X63896594Y-62389500D01*
X66024406Y-62389500D01*
X66119973Y-62398913D01*
G37*
G36*
X92987395Y-62585546D02*
G01*
X93160466Y-62657234D01*
X93160467Y-62657235D01*
X93316227Y-62761310D01*
X93448690Y-62893773D01*
X93448691Y-62893775D01*
X93552766Y-63049534D01*
X93624454Y-63222605D01*
X93661000Y-63406333D01*
X93661000Y-63593667D01*
X93624454Y-63777395D01*
X93552766Y-63950466D01*
X93552765Y-63950467D01*
X93448690Y-64106227D01*
X93316227Y-64238690D01*
X93237818Y-64291081D01*
X93160466Y-64342766D01*
X92987395Y-64414454D01*
X92803667Y-64451000D01*
X92616333Y-64451000D01*
X92432605Y-64414454D01*
X92259534Y-64342766D01*
X92182182Y-64291081D01*
X92103773Y-64238690D01*
X91971310Y-64106227D01*
X91867235Y-63950467D01*
X91867234Y-63950466D01*
X91795546Y-63777395D01*
X91759000Y-63593667D01*
X91759000Y-63406333D01*
X91795546Y-63222605D01*
X91867234Y-63049534D01*
X91971309Y-62893775D01*
X91971310Y-62893773D01*
X92103773Y-62761310D01*
X92259533Y-62657235D01*
X92259534Y-62657234D01*
X92432605Y-62585546D01*
X92616333Y-62549000D01*
X92803667Y-62549000D01*
X92987395Y-62585546D01*
G37*
G36*
X92987395Y-60045546D02*
G01*
X93160466Y-60117234D01*
X93160467Y-60117235D01*
X93316227Y-60221310D01*
X93448690Y-60353773D01*
X93448691Y-60353775D01*
X93552766Y-60509534D01*
X93624454Y-60682605D01*
X93661000Y-60866333D01*
X93661000Y-61053667D01*
X93624454Y-61237395D01*
X93552766Y-61410466D01*
X93552765Y-61410467D01*
X93448690Y-61566227D01*
X93316227Y-61698690D01*
X93237818Y-61751081D01*
X93160466Y-61802766D01*
X92987395Y-61874454D01*
X92803667Y-61911000D01*
X92616333Y-61911000D01*
X92432605Y-61874454D01*
X92259534Y-61802766D01*
X92182182Y-61751081D01*
X92103773Y-61698690D01*
X91971310Y-61566227D01*
X91867235Y-61410467D01*
X91867234Y-61410466D01*
X91795546Y-61237395D01*
X91759000Y-61053667D01*
X91759000Y-60866333D01*
X91795546Y-60682605D01*
X91867234Y-60509534D01*
X91971309Y-60353775D01*
X91971310Y-60353773D01*
X92103773Y-60221310D01*
X92259533Y-60117235D01*
X92259534Y-60117234D01*
X92432605Y-60045546D01*
X92616333Y-60009000D01*
X92803667Y-60009000D01*
X92987395Y-60045546D01*
G37*
G36*
X66119973Y-56948913D02*
G01*
X66215540Y-56958325D01*
X66460780Y-57032718D01*
X66686794Y-57153525D01*
X66738399Y-57195876D01*
X66884897Y-57316103D01*
X67005124Y-57462601D01*
X67047475Y-57514206D01*
X67168282Y-57740220D01*
X67242675Y-57985460D01*
X67267794Y-58240500D01*
X67242675Y-58495540D01*
X67168282Y-58740780D01*
X67047475Y-58966794D01*
X67005124Y-59018399D01*
X66884897Y-59164897D01*
X66738399Y-59285124D01*
X66686794Y-59327475D01*
X66460780Y-59448282D01*
X66215540Y-59522675D01*
X66119972Y-59532088D01*
X66024406Y-59541500D01*
X63896594Y-59541500D01*
X63801028Y-59532088D01*
X63705460Y-59522675D01*
X63460220Y-59448282D01*
X63234206Y-59327475D01*
X63182601Y-59285124D01*
X63036103Y-59164897D01*
X62915876Y-59018399D01*
X62873525Y-58966794D01*
X62752718Y-58740780D01*
X62678325Y-58495540D01*
X62653206Y-58240500D01*
X62678325Y-57985460D01*
X62752718Y-57740220D01*
X62873525Y-57514206D01*
X62915876Y-57462601D01*
X63036103Y-57316103D01*
X63182601Y-57195876D01*
X63234206Y-57153525D01*
X63460220Y-57032718D01*
X63705460Y-56958325D01*
X63801027Y-56948913D01*
X63896594Y-56939500D01*
X66024406Y-56939500D01*
X66119973Y-56948913D01*
G37*
G36*
X93661000Y-59371000D02*
G01*
X91759000Y-59371000D01*
X91759000Y-57469000D01*
X93661000Y-57469000D01*
X93661000Y-59371000D01*
G37*
G36*
X119805500Y-56051500D02*
G01*
X117303500Y-56051500D01*
X117303500Y-53549500D01*
X119805500Y-53549500D01*
X119805500Y-56051500D01*
G37*
G36*
X67261500Y-54091500D02*
G01*
X62659500Y-54091500D01*
X62659500Y-51489500D01*
X67261500Y-51489500D01*
X67261500Y-54091500D01*
G37*
G36*
X89789943Y-45326248D02*
G01*
X90345189Y-45556238D01*
X90593347Y-45722052D01*
X90844899Y-45890134D01*
X91269866Y-46315101D01*
X91269867Y-46315103D01*
X91603762Y-46814811D01*
X91833752Y-47370057D01*
X91951000Y-47959501D01*
X91951000Y-48560499D01*
X91833752Y-49149943D01*
X91603762Y-49705189D01*
X91603761Y-49705190D01*
X91269866Y-50204899D01*
X90844899Y-50629866D01*
X90631859Y-50772215D01*
X90345189Y-50963762D01*
X89789943Y-51193752D01*
X89200499Y-51311000D01*
X88599501Y-51311000D01*
X88010057Y-51193752D01*
X87454811Y-50963762D01*
X87168141Y-50772215D01*
X86955101Y-50629866D01*
X86530134Y-50204899D01*
X86196239Y-49705190D01*
X86196238Y-49705189D01*
X85966248Y-49149943D01*
X85849000Y-48560499D01*
X85849000Y-47959501D01*
X85966248Y-47370057D01*
X86196238Y-46814811D01*
X86530133Y-46315103D01*
X86530134Y-46315101D01*
X86955101Y-45890134D01*
X87206653Y-45722052D01*
X87454811Y-45556238D01*
X88010057Y-45326248D01*
X88599501Y-45209000D01*
X89200499Y-45209000D01*
X89789943Y-45326248D01*
G37*
G36*
X118919403Y-48597575D02*
G01*
X119147071Y-48691878D01*
X119351966Y-48828785D01*
X119526215Y-49003034D01*
X119663122Y-49207929D01*
X119757425Y-49435597D01*
X119805500Y-49677287D01*
X119805500Y-49923713D01*
X119757425Y-50165403D01*
X119663122Y-50393071D01*
X119526215Y-50597966D01*
X119351966Y-50772215D01*
X119147071Y-50909122D01*
X119147070Y-50909123D01*
X119147069Y-50909123D01*
X118919403Y-51003425D01*
X118677714Y-51051500D01*
X118431286Y-51051500D01*
X118189597Y-51003425D01*
X117961931Y-50909123D01*
X117961930Y-50909123D01*
X117961929Y-50909122D01*
X117757034Y-50772215D01*
X117582785Y-50597966D01*
X117445878Y-50393071D01*
X117351575Y-50165403D01*
X117303500Y-49923713D01*
X117303500Y-49677287D01*
X117351575Y-49435597D01*
X117445878Y-49207929D01*
X117582785Y-49003034D01*
X117757034Y-48828785D01*
X117961929Y-48691878D01*
X118189597Y-48597575D01*
X118431286Y-48549500D01*
X118677714Y-48549500D01*
X118919403Y-48597575D01*
G37*
G36*
X66119972Y-45253912D02*
G01*
X66215540Y-45263325D01*
X66460780Y-45337718D01*
X66686794Y-45458525D01*
X66738399Y-45500876D01*
X66884897Y-45621103D01*
X67005124Y-45767601D01*
X67047475Y-45819206D01*
X67168282Y-46045220D01*
X67242675Y-46290460D01*
X67267794Y-46545500D01*
X67242675Y-46800540D01*
X67168282Y-47045780D01*
X67047475Y-47271794D01*
X67005124Y-47323399D01*
X66884897Y-47469897D01*
X66738399Y-47590124D01*
X66686794Y-47632475D01*
X66460780Y-47753282D01*
X66215540Y-47827675D01*
X66119973Y-47837087D01*
X66024406Y-47846500D01*
X63896594Y-47846500D01*
X63801028Y-47837088D01*
X63705460Y-47827675D01*
X63460220Y-47753282D01*
X63234206Y-47632475D01*
X63182601Y-47590124D01*
X63036103Y-47469897D01*
X62915876Y-47323399D01*
X62873525Y-47271794D01*
X62752718Y-47045780D01*
X62678325Y-46800540D01*
X62653206Y-46545500D01*
X62678325Y-46290460D01*
X62752718Y-46045220D01*
X62873525Y-45819206D01*
X62915876Y-45767601D01*
X63036103Y-45621103D01*
X63182601Y-45500876D01*
X63234206Y-45458525D01*
X63460220Y-45337718D01*
X63705460Y-45263325D01*
X63801028Y-45253912D01*
X63896594Y-45244500D01*
X66024406Y-45244500D01*
X66119972Y-45253912D01*
G37*
G36*
X66119972Y-39803912D02*
G01*
X66215540Y-39813325D01*
X66460780Y-39887718D01*
X66686794Y-40008525D01*
X66738399Y-40050876D01*
X66884897Y-40171103D01*
X67005124Y-40317601D01*
X67047475Y-40369206D01*
X67168282Y-40595220D01*
X67242675Y-40840460D01*
X67267794Y-41095500D01*
X67242675Y-41350540D01*
X67168282Y-41595780D01*
X67047475Y-41821794D01*
X67005124Y-41873399D01*
X66884897Y-42019897D01*
X66738399Y-42140124D01*
X66686794Y-42182475D01*
X66460780Y-42303282D01*
X66215540Y-42377675D01*
X66119973Y-42387087D01*
X66024406Y-42396500D01*
X63896594Y-42396500D01*
X63801027Y-42387087D01*
X63705460Y-42377675D01*
X63460220Y-42303282D01*
X63234206Y-42182475D01*
X63182601Y-42140124D01*
X63036103Y-42019897D01*
X62915876Y-41873399D01*
X62873525Y-41821794D01*
X62752718Y-41595780D01*
X62678325Y-41350540D01*
X62653206Y-41095500D01*
X62678325Y-40840460D01*
X62752718Y-40595220D01*
X62873525Y-40369206D01*
X62915876Y-40317601D01*
X63036103Y-40171103D01*
X63182601Y-40050876D01*
X63234206Y-40008525D01*
X63460220Y-39887718D01*
X63705460Y-39813325D01*
X63801028Y-39803912D01*
X63896594Y-39794500D01*
X66024406Y-39794500D01*
X66119972Y-39803912D01*
G37*
G36*
X85392585Y-35943802D02*
G01*
X85542410Y-35973604D01*
X85824674Y-36090521D01*
X86078705Y-36260259D01*
X86294741Y-36476295D01*
X86464479Y-36730326D01*
X86581396Y-37012590D01*
X86641000Y-37312240D01*
X86641000Y-37617760D01*
X86581396Y-37917410D01*
X86464479Y-38199674D01*
X86294741Y-38453705D01*
X86078705Y-38669741D01*
X85824674Y-38839479D01*
X85542410Y-38956396D01*
X85392585Y-38986198D01*
X85242761Y-39016000D01*
X84937239Y-39016000D01*
X84787415Y-38986198D01*
X84637590Y-38956396D01*
X84355326Y-38839479D01*
X84101295Y-38669741D01*
X83885259Y-38453705D01*
X83715521Y-38199674D01*
X83598604Y-37917410D01*
X83539000Y-37617760D01*
X83539000Y-37312240D01*
X83598604Y-37012590D01*
X83715521Y-36730326D01*
X83885259Y-36476295D01*
X84101295Y-36260259D01*
X84355326Y-36090521D01*
X84637590Y-35973604D01*
X84787415Y-35943802D01*
X84937239Y-35914000D01*
X85242761Y-35914000D01*
X85392585Y-35943802D01*
G37*
G36*
X107992585Y-35943802D02*
G01*
X108142410Y-35973604D01*
X108424674Y-36090521D01*
X108678705Y-36260259D01*
X108894741Y-36476295D01*
X109064479Y-36730326D01*
X109181396Y-37012590D01*
X109241000Y-37312240D01*
X109241000Y-37617760D01*
X109181396Y-37917410D01*
X109064479Y-38199674D01*
X108894741Y-38453705D01*
X108678705Y-38669741D01*
X108424674Y-38839479D01*
X108142410Y-38956396D01*
X107992585Y-38986198D01*
X107842761Y-39016000D01*
X107537239Y-39016000D01*
X107387415Y-38986198D01*
X107237590Y-38956396D01*
X106955326Y-38839479D01*
X106701295Y-38669741D01*
X106485259Y-38453705D01*
X106315521Y-38199674D01*
X106198604Y-37917410D01*
X106139000Y-37617760D01*
X106139000Y-37312240D01*
X106198604Y-37012590D01*
X106315521Y-36730326D01*
X106485259Y-36476295D01*
X106701295Y-36260259D01*
X106955326Y-36090521D01*
X107237590Y-35973604D01*
X107387415Y-35943802D01*
X107537239Y-35914000D01*
X107842761Y-35914000D01*
X107992585Y-35943802D01*
G37*
G36*
X113424072Y-36165918D02*
G01*
X113651833Y-36260259D01*
X113669939Y-36267759D01*
X113781328Y-36342187D01*
X113891211Y-36415609D01*
X114079391Y-36603789D01*
X114227242Y-36825063D01*
X114304918Y-37012590D01*
X114329082Y-37070928D01*
X114381000Y-37331938D01*
X114381000Y-37598062D01*
X114329082Y-37859072D01*
X114227241Y-38104939D01*
X114079390Y-38326212D01*
X113891212Y-38514390D01*
X113669939Y-38662241D01*
X113669938Y-38662242D01*
X113669937Y-38662242D01*
X113424072Y-38764082D01*
X113163063Y-38816000D01*
X112896937Y-38816000D01*
X112635928Y-38764082D01*
X112390063Y-38662242D01*
X112390062Y-38662242D01*
X112390061Y-38662241D01*
X112168788Y-38514390D01*
X111980610Y-38326212D01*
X111832759Y-38104939D01*
X111730918Y-37859072D01*
X111679000Y-37598062D01*
X111679000Y-37331938D01*
X111730918Y-37070928D01*
X111755082Y-37012590D01*
X111832758Y-36825063D01*
X111980609Y-36603789D01*
X112168789Y-36415609D01*
X112278672Y-36342187D01*
X112390061Y-36267759D01*
X112408168Y-36260259D01*
X112635928Y-36165918D01*
X112896937Y-36114000D01*
X113163063Y-36114000D01*
X113424072Y-36165918D01*
G37*
G36*
X67261500Y-36946500D02*
G01*
X62659500Y-36946500D01*
X62659500Y-34344500D01*
X67261500Y-34344500D01*
X67261500Y-36946500D01*
G37*
M02*
