%TF.GenerationSoftware,KiCad,Pcbnew,5.1.6-c6e7f7d~87~ubuntu18.04.1*%
%TF.CreationDate,2021-02-12T17:03:38+13:00*%
%TF.ProjectId,Volume Control Ultimate 2 Feb9,566f6c75-6d65-4204-936f-6e74726f6c20,rev?*%
%TF.SameCoordinates,Original*%
%TF.FileFunction,Soldermask,Top*%
%TF.FilePolarity,Negative*%
%FSLAX46Y46*%
G04 Gerber Fmt 4.6, Leading zero omitted, Abs format (unit mm)*
G04 Created by KiCad (PCBNEW 5.1.6-c6e7f7d~87~ubuntu18.04.1) date 2021-02-12 17:03:38*
%MOMM*%
%LPD*%
G01*
G04 APERTURE LIST*
%ADD10R,1.000000X0.900000*%
%ADD11R,1.700000X1.700000*%
%ADD12O,1.700000X1.700000*%
%ADD13C,2.700000*%
G04 APERTURE END LIST*
D10*
%TO.C,Q1*%
X46514000Y-48732400D03*
X46514000Y-50632400D03*
X48514000Y-49682400D03*
%TD*%
D11*
%TO.C,A1*%
X85090000Y-50419000D03*
D12*
X100330000Y-83439000D03*
X85090000Y-52959000D03*
X100330000Y-80899000D03*
X85090000Y-55499000D03*
X100330000Y-78359000D03*
X85090000Y-58039000D03*
X100330000Y-75819000D03*
X85090000Y-60579000D03*
X100330000Y-73279000D03*
X85090000Y-63119000D03*
X100330000Y-70739000D03*
X85090000Y-65659000D03*
X100330000Y-68199000D03*
X85090000Y-68199000D03*
X100330000Y-65659000D03*
X85090000Y-70739000D03*
X100330000Y-63119000D03*
X85090000Y-73279000D03*
X100330000Y-60579000D03*
X85090000Y-75819000D03*
X100330000Y-58039000D03*
X85090000Y-78359000D03*
X100330000Y-55499000D03*
X85090000Y-80899000D03*
X100330000Y-52959000D03*
X85090000Y-83439000D03*
X100330000Y-50419000D03*
X85090000Y-85979000D03*
X100330000Y-85979000D03*
%TD*%
%TO.C,C1*%
G36*
G01*
X63098500Y-49375750D02*
X63098500Y-49938250D01*
G75*
G02*
X62854750Y-50182000I-243750J0D01*
G01*
X62367250Y-50182000D01*
G75*
G02*
X62123500Y-49938250I0J243750D01*
G01*
X62123500Y-49375750D01*
G75*
G02*
X62367250Y-49132000I243750J0D01*
G01*
X62854750Y-49132000D01*
G75*
G02*
X63098500Y-49375750I0J-243750D01*
G01*
G37*
G36*
G01*
X64673500Y-49375750D02*
X64673500Y-49938250D01*
G75*
G02*
X64429750Y-50182000I-243750J0D01*
G01*
X63942250Y-50182000D01*
G75*
G02*
X63698500Y-49938250I0J243750D01*
G01*
X63698500Y-49375750D01*
G75*
G02*
X63942250Y-49132000I243750J0D01*
G01*
X64429750Y-49132000D01*
G75*
G02*
X64673500Y-49375750I0J-243750D01*
G01*
G37*
%TD*%
%TO.C,C2*%
G36*
G01*
X64673500Y-59789750D02*
X64673500Y-60352250D01*
G75*
G02*
X64429750Y-60596000I-243750J0D01*
G01*
X63942250Y-60596000D01*
G75*
G02*
X63698500Y-60352250I0J243750D01*
G01*
X63698500Y-59789750D01*
G75*
G02*
X63942250Y-59546000I243750J0D01*
G01*
X64429750Y-59546000D01*
G75*
G02*
X64673500Y-59789750I0J-243750D01*
G01*
G37*
G36*
G01*
X63098500Y-59789750D02*
X63098500Y-60352250D01*
G75*
G02*
X62854750Y-60596000I-243750J0D01*
G01*
X62367250Y-60596000D01*
G75*
G02*
X62123500Y-60352250I0J243750D01*
G01*
X62123500Y-59789750D01*
G75*
G02*
X62367250Y-59546000I243750J0D01*
G01*
X62854750Y-59546000D01*
G75*
G02*
X63098500Y-59789750I0J-243750D01*
G01*
G37*
%TD*%
%TO.C,C3*%
G36*
G01*
X64673500Y-70203750D02*
X64673500Y-70766250D01*
G75*
G02*
X64429750Y-71010000I-243750J0D01*
G01*
X63942250Y-71010000D01*
G75*
G02*
X63698500Y-70766250I0J243750D01*
G01*
X63698500Y-70203750D01*
G75*
G02*
X63942250Y-69960000I243750J0D01*
G01*
X64429750Y-69960000D01*
G75*
G02*
X64673500Y-70203750I0J-243750D01*
G01*
G37*
G36*
G01*
X63098500Y-70203750D02*
X63098500Y-70766250D01*
G75*
G02*
X62854750Y-71010000I-243750J0D01*
G01*
X62367250Y-71010000D01*
G75*
G02*
X62123500Y-70766250I0J243750D01*
G01*
X62123500Y-70203750D01*
G75*
G02*
X62367250Y-69960000I243750J0D01*
G01*
X62854750Y-69960000D01*
G75*
G02*
X63098500Y-70203750I0J-243750D01*
G01*
G37*
%TD*%
%TO.C,C4*%
G36*
G01*
X64673500Y-80617750D02*
X64673500Y-81180250D01*
G75*
G02*
X64429750Y-81424000I-243750J0D01*
G01*
X63942250Y-81424000D01*
G75*
G02*
X63698500Y-81180250I0J243750D01*
G01*
X63698500Y-80617750D01*
G75*
G02*
X63942250Y-80374000I243750J0D01*
G01*
X64429750Y-80374000D01*
G75*
G02*
X64673500Y-80617750I0J-243750D01*
G01*
G37*
G36*
G01*
X63098500Y-80617750D02*
X63098500Y-81180250D01*
G75*
G02*
X62854750Y-81424000I-243750J0D01*
G01*
X62367250Y-81424000D01*
G75*
G02*
X62123500Y-81180250I0J243750D01*
G01*
X62123500Y-80617750D01*
G75*
G02*
X62367250Y-80374000I243750J0D01*
G01*
X62854750Y-80374000D01*
G75*
G02*
X63098500Y-80617750I0J-243750D01*
G01*
G37*
%TD*%
%TO.C,C5*%
G36*
G01*
X63098500Y-91031750D02*
X63098500Y-91594250D01*
G75*
G02*
X62854750Y-91838000I-243750J0D01*
G01*
X62367250Y-91838000D01*
G75*
G02*
X62123500Y-91594250I0J243750D01*
G01*
X62123500Y-91031750D01*
G75*
G02*
X62367250Y-90788000I243750J0D01*
G01*
X62854750Y-90788000D01*
G75*
G02*
X63098500Y-91031750I0J-243750D01*
G01*
G37*
G36*
G01*
X64673500Y-91031750D02*
X64673500Y-91594250D01*
G75*
G02*
X64429750Y-91838000I-243750J0D01*
G01*
X63942250Y-91838000D01*
G75*
G02*
X63698500Y-91594250I0J243750D01*
G01*
X63698500Y-91031750D01*
G75*
G02*
X63942250Y-90788000I243750J0D01*
G01*
X64429750Y-90788000D01*
G75*
G02*
X64673500Y-91031750I0J-243750D01*
G01*
G37*
%TD*%
%TO.C,C6*%
G36*
G01*
X64622500Y-101445750D02*
X64622500Y-102008250D01*
G75*
G02*
X64378750Y-102252000I-243750J0D01*
G01*
X63891250Y-102252000D01*
G75*
G02*
X63647500Y-102008250I0J243750D01*
G01*
X63647500Y-101445750D01*
G75*
G02*
X63891250Y-101202000I243750J0D01*
G01*
X64378750Y-101202000D01*
G75*
G02*
X64622500Y-101445750I0J-243750D01*
G01*
G37*
G36*
G01*
X63047500Y-101445750D02*
X63047500Y-102008250D01*
G75*
G02*
X62803750Y-102252000I-243750J0D01*
G01*
X62316250Y-102252000D01*
G75*
G02*
X62072500Y-102008250I0J243750D01*
G01*
X62072500Y-101445750D01*
G75*
G02*
X62316250Y-101202000I243750J0D01*
G01*
X62803750Y-101202000D01*
G75*
G02*
X63047500Y-101445750I0J-243750D01*
G01*
G37*
%TD*%
%TO.C,C7*%
G36*
G01*
X63174500Y-111859750D02*
X63174500Y-112422250D01*
G75*
G02*
X62930750Y-112666000I-243750J0D01*
G01*
X62443250Y-112666000D01*
G75*
G02*
X62199500Y-112422250I0J243750D01*
G01*
X62199500Y-111859750D01*
G75*
G02*
X62443250Y-111616000I243750J0D01*
G01*
X62930750Y-111616000D01*
G75*
G02*
X63174500Y-111859750I0J-243750D01*
G01*
G37*
G36*
G01*
X64749500Y-111859750D02*
X64749500Y-112422250D01*
G75*
G02*
X64505750Y-112666000I-243750J0D01*
G01*
X64018250Y-112666000D01*
G75*
G02*
X63774500Y-112422250I0J243750D01*
G01*
X63774500Y-111859750D01*
G75*
G02*
X64018250Y-111616000I243750J0D01*
G01*
X64505750Y-111616000D01*
G75*
G02*
X64749500Y-111859750I0J-243750D01*
G01*
G37*
%TD*%
%TO.C,C8*%
G36*
G01*
X64673500Y-122273750D02*
X64673500Y-122836250D01*
G75*
G02*
X64429750Y-123080000I-243750J0D01*
G01*
X63942250Y-123080000D01*
G75*
G02*
X63698500Y-122836250I0J243750D01*
G01*
X63698500Y-122273750D01*
G75*
G02*
X63942250Y-122030000I243750J0D01*
G01*
X64429750Y-122030000D01*
G75*
G02*
X64673500Y-122273750I0J-243750D01*
G01*
G37*
G36*
G01*
X63098500Y-122273750D02*
X63098500Y-122836250D01*
G75*
G02*
X62854750Y-123080000I-243750J0D01*
G01*
X62367250Y-123080000D01*
G75*
G02*
X62123500Y-122836250I0J243750D01*
G01*
X62123500Y-122273750D01*
G75*
G02*
X62367250Y-122030000I243750J0D01*
G01*
X62854750Y-122030000D01*
G75*
G02*
X63098500Y-122273750I0J-243750D01*
G01*
G37*
%TD*%
%TO.C,C9*%
G36*
G01*
X63098500Y-132687750D02*
X63098500Y-133250250D01*
G75*
G02*
X62854750Y-133494000I-243750J0D01*
G01*
X62367250Y-133494000D01*
G75*
G02*
X62123500Y-133250250I0J243750D01*
G01*
X62123500Y-132687750D01*
G75*
G02*
X62367250Y-132444000I243750J0D01*
G01*
X62854750Y-132444000D01*
G75*
G02*
X63098500Y-132687750I0J-243750D01*
G01*
G37*
G36*
G01*
X64673500Y-132687750D02*
X64673500Y-133250250D01*
G75*
G02*
X64429750Y-133494000I-243750J0D01*
G01*
X63942250Y-133494000D01*
G75*
G02*
X63698500Y-133250250I0J243750D01*
G01*
X63698500Y-132687750D01*
G75*
G02*
X63942250Y-132444000I243750J0D01*
G01*
X64429750Y-132444000D01*
G75*
G02*
X64673500Y-132687750I0J-243750D01*
G01*
G37*
%TD*%
%TO.C,C10*%
G36*
G01*
X64673500Y-143101750D02*
X64673500Y-143664250D01*
G75*
G02*
X64429750Y-143908000I-243750J0D01*
G01*
X63942250Y-143908000D01*
G75*
G02*
X63698500Y-143664250I0J243750D01*
G01*
X63698500Y-143101750D01*
G75*
G02*
X63942250Y-142858000I243750J0D01*
G01*
X64429750Y-142858000D01*
G75*
G02*
X64673500Y-143101750I0J-243750D01*
G01*
G37*
G36*
G01*
X63098500Y-143101750D02*
X63098500Y-143664250D01*
G75*
G02*
X62854750Y-143908000I-243750J0D01*
G01*
X62367250Y-143908000D01*
G75*
G02*
X62123500Y-143664250I0J243750D01*
G01*
X62123500Y-143101750D01*
G75*
G02*
X62367250Y-142858000I243750J0D01*
G01*
X62854750Y-142858000D01*
G75*
G02*
X63098500Y-143101750I0J-243750D01*
G01*
G37*
%TD*%
%TO.C,C11*%
G36*
G01*
X105256250Y-144682500D02*
X104293750Y-144682500D01*
G75*
G02*
X104025000Y-144413750I0J268750D01*
G01*
X104025000Y-143876250D01*
G75*
G02*
X104293750Y-143607500I268750J0D01*
G01*
X105256250Y-143607500D01*
G75*
G02*
X105525000Y-143876250I0J-268750D01*
G01*
X105525000Y-144413750D01*
G75*
G02*
X105256250Y-144682500I-268750J0D01*
G01*
G37*
G36*
G01*
X105256250Y-142807500D02*
X104293750Y-142807500D01*
G75*
G02*
X104025000Y-142538750I0J268750D01*
G01*
X104025000Y-142001250D01*
G75*
G02*
X104293750Y-141732500I268750J0D01*
G01*
X105256250Y-141732500D01*
G75*
G02*
X105525000Y-142001250I0J-268750D01*
G01*
X105525000Y-142538750D01*
G75*
G02*
X105256250Y-142807500I-268750J0D01*
G01*
G37*
%TD*%
%TO.C,C12*%
G36*
G01*
X63098500Y-153515750D02*
X63098500Y-154078250D01*
G75*
G02*
X62854750Y-154322000I-243750J0D01*
G01*
X62367250Y-154322000D01*
G75*
G02*
X62123500Y-154078250I0J243750D01*
G01*
X62123500Y-153515750D01*
G75*
G02*
X62367250Y-153272000I243750J0D01*
G01*
X62854750Y-153272000D01*
G75*
G02*
X63098500Y-153515750I0J-243750D01*
G01*
G37*
G36*
G01*
X64673500Y-153515750D02*
X64673500Y-154078250D01*
G75*
G02*
X64429750Y-154322000I-243750J0D01*
G01*
X63942250Y-154322000D01*
G75*
G02*
X63698500Y-154078250I0J243750D01*
G01*
X63698500Y-153515750D01*
G75*
G02*
X63942250Y-153272000I243750J0D01*
G01*
X64429750Y-153272000D01*
G75*
G02*
X64673500Y-153515750I0J-243750D01*
G01*
G37*
%TD*%
%TO.C,C13*%
G36*
G01*
X63047500Y-163929750D02*
X63047500Y-164492250D01*
G75*
G02*
X62803750Y-164736000I-243750J0D01*
G01*
X62316250Y-164736000D01*
G75*
G02*
X62072500Y-164492250I0J243750D01*
G01*
X62072500Y-163929750D01*
G75*
G02*
X62316250Y-163686000I243750J0D01*
G01*
X62803750Y-163686000D01*
G75*
G02*
X63047500Y-163929750I0J-243750D01*
G01*
G37*
G36*
G01*
X64622500Y-163929750D02*
X64622500Y-164492250D01*
G75*
G02*
X64378750Y-164736000I-243750J0D01*
G01*
X63891250Y-164736000D01*
G75*
G02*
X63647500Y-164492250I0J243750D01*
G01*
X63647500Y-163929750D01*
G75*
G02*
X63891250Y-163686000I243750J0D01*
G01*
X64378750Y-163686000D01*
G75*
G02*
X64622500Y-163929750I0J-243750D01*
G01*
G37*
%TD*%
D13*
%TO.C,J1*%
X111125000Y-86106000D03*
%TD*%
%TO.C,J2*%
X110998000Y-81026000D03*
%TD*%
%TO.C,J3*%
X110998000Y-76200000D03*
%TD*%
%TO.C,J4*%
X110998000Y-71501000D03*
%TD*%
%TO.C,J5*%
X110998000Y-66802000D03*
%TD*%
%TO.C,J6*%
X110998000Y-62103000D03*
%TD*%
%TO.C,J7*%
X110871000Y-57404000D03*
%TD*%
%TO.C,J8*%
X110871000Y-52578000D03*
%TD*%
%TO.C,J9*%
X109982000Y-105918000D03*
%TD*%
%TO.C,J10*%
X109855000Y-97663000D03*
%TD*%
%TO.C,J11*%
X113030000Y-154940000D03*
%TD*%
%TO.C,J12*%
X119888000Y-146431000D03*
%TD*%
%TO.C,J13*%
X119888000Y-164465000D03*
%TD*%
%TO.C,J14*%
X109093000Y-162179000D03*
%TD*%
%TO.C,J15*%
X101981000Y-162306000D03*
%TD*%
%TO.C,J16*%
X109601000Y-146812000D03*
%TD*%
%TO.C,J17*%
X109474000Y-140589000D03*
%TD*%
D10*
%TO.C,Q2*%
X52774600Y-49718000D03*
X50774600Y-50668000D03*
X50774600Y-48768000D03*
%TD*%
%TO.C,Q3*%
X61087000Y-54925000D03*
X61087000Y-53025000D03*
X59087000Y-53975000D03*
%TD*%
%TO.C,Q4*%
X48472600Y-54036000D03*
X46472600Y-54986000D03*
X46472600Y-53086000D03*
%TD*%
%TO.C,Q5*%
X50825400Y-53086000D03*
X50825400Y-54986000D03*
X52825400Y-54036000D03*
%TD*%
%TO.C,Q6*%
X56864000Y-54925000D03*
X56864000Y-53025000D03*
X54864000Y-53975000D03*
%TD*%
%TO.C,Q7*%
X46514000Y-59146400D03*
X46514000Y-61046400D03*
X48514000Y-60096400D03*
%TD*%
%TO.C,Q8*%
X52774600Y-60132000D03*
X50774600Y-61082000D03*
X50774600Y-59182000D03*
%TD*%
%TO.C,Q9*%
X59087000Y-64389000D03*
X61087000Y-63439000D03*
X61087000Y-65339000D03*
%TD*%
%TO.C,Q10*%
X48472600Y-64450000D03*
X46472600Y-65400000D03*
X46472600Y-63500000D03*
%TD*%
%TO.C,Q11*%
X50800000Y-63500000D03*
X50800000Y-65400000D03*
X52800000Y-64450000D03*
%TD*%
%TO.C,Q12*%
X56880000Y-65339000D03*
X56880000Y-63439000D03*
X54880000Y-64389000D03*
%TD*%
%TO.C,Q13*%
X48514000Y-70485000D03*
X46514000Y-71435000D03*
X46514000Y-69535000D03*
%TD*%
%TO.C,Q14*%
X50816000Y-69662000D03*
X50816000Y-71562000D03*
X52816000Y-70612000D03*
%TD*%
%TO.C,Q15*%
X59087000Y-74864000D03*
X61087000Y-73914000D03*
X61087000Y-75814000D03*
%TD*%
%TO.C,Q16*%
X46482000Y-73919000D03*
X46482000Y-75819000D03*
X48482000Y-74869000D03*
%TD*%
%TO.C,Q17*%
X52800000Y-74869000D03*
X50800000Y-75819000D03*
X50800000Y-73919000D03*
%TD*%
%TO.C,Q18*%
X54864000Y-74803000D03*
X56864000Y-73853000D03*
X56864000Y-75753000D03*
%TD*%
%TO.C,Q19*%
X46482000Y-80010000D03*
X46482000Y-81910000D03*
X48482000Y-80960000D03*
%TD*%
%TO.C,Q20*%
X50774600Y-80010000D03*
X50774600Y-81910000D03*
X52774600Y-80960000D03*
%TD*%
%TO.C,Q21*%
X59087000Y-85217000D03*
X61087000Y-84267000D03*
X61087000Y-86167000D03*
%TD*%
%TO.C,Q22*%
X48472600Y-85278000D03*
X46472600Y-86228000D03*
X46472600Y-84328000D03*
%TD*%
%TO.C,Q23*%
X52825400Y-85278000D03*
X50825400Y-86228000D03*
X50825400Y-84328000D03*
%TD*%
%TO.C,Q24*%
X56864000Y-86167000D03*
X56864000Y-84267000D03*
X54864000Y-85217000D03*
%TD*%
%TO.C,Q25*%
X48514000Y-91338400D03*
X46514000Y-92288400D03*
X46514000Y-90388400D03*
%TD*%
%TO.C,Q26*%
X52800000Y-91374000D03*
X50800000Y-92324000D03*
X50800000Y-90424000D03*
%TD*%
%TO.C,Q27*%
X61087000Y-96581000D03*
X61087000Y-94681000D03*
X59087000Y-95631000D03*
%TD*%
%TO.C,Q28*%
X46482000Y-94742000D03*
X46482000Y-96642000D03*
X48482000Y-95692000D03*
%TD*%
%TO.C,Q29*%
X50825400Y-94742000D03*
X50825400Y-96642000D03*
X52825400Y-95692000D03*
%TD*%
%TO.C,Q30*%
X56896000Y-96647000D03*
X56896000Y-94747000D03*
X54896000Y-95697000D03*
%TD*%
%TO.C,Q31*%
X46514000Y-100802400D03*
X46514000Y-102702400D03*
X48514000Y-101752400D03*
%TD*%
%TO.C,Q32*%
X52800000Y-101788000D03*
X50800000Y-102738000D03*
X50800000Y-100838000D03*
%TD*%
%TO.C,Q33*%
X59087000Y-106045000D03*
X61087000Y-105095000D03*
X61087000Y-106995000D03*
%TD*%
%TO.C,Q34*%
X48472600Y-106106000D03*
X46472600Y-107056000D03*
X46472600Y-105156000D03*
%TD*%
%TO.C,Q35*%
X50825400Y-105156000D03*
X50825400Y-107056000D03*
X52825400Y-106106000D03*
%TD*%
%TO.C,Q36*%
X56864000Y-106995000D03*
X56864000Y-105095000D03*
X54864000Y-106045000D03*
%TD*%
%TO.C,Q37*%
X48514000Y-112166400D03*
X46514000Y-113116400D03*
X46514000Y-111216400D03*
%TD*%
%TO.C,Q38*%
X52800000Y-112202000D03*
X50800000Y-113152000D03*
X50800000Y-111252000D03*
%TD*%
%TO.C,Q39*%
X59087000Y-116525000D03*
X61087000Y-115575000D03*
X61087000Y-117475000D03*
%TD*%
%TO.C,Q40*%
X46482000Y-115570000D03*
X46482000Y-117470000D03*
X48482000Y-116520000D03*
%TD*%
%TO.C,Q41*%
X52825400Y-116520000D03*
X50825400Y-117470000D03*
X50825400Y-115570000D03*
%TD*%
%TO.C,Q42*%
X54896000Y-116525000D03*
X56896000Y-115575000D03*
X56896000Y-117475000D03*
%TD*%
%TO.C,Q43*%
X48482000Y-122616000D03*
X46482000Y-123566000D03*
X46482000Y-121666000D03*
%TD*%
%TO.C,Q44*%
X52800000Y-122616000D03*
X50800000Y-123566000D03*
X50800000Y-121666000D03*
%TD*%
%TO.C,Q45*%
X61087000Y-127889000D03*
X61087000Y-125989000D03*
X59087000Y-126939000D03*
%TD*%
%TO.C,Q46*%
X46482000Y-125989000D03*
X46482000Y-127889000D03*
X48482000Y-126939000D03*
%TD*%
%TO.C,Q47*%
X52825400Y-126934000D03*
X50825400Y-127884000D03*
X50825400Y-125984000D03*
%TD*%
%TO.C,Q48*%
X56896000Y-127889000D03*
X56896000Y-125989000D03*
X54896000Y-126939000D03*
%TD*%
%TO.C,Q49*%
X48482000Y-133030000D03*
X46482000Y-133980000D03*
X46482000Y-132080000D03*
%TD*%
%TO.C,Q50*%
X50800000Y-132080000D03*
X50800000Y-133980000D03*
X52800000Y-133030000D03*
%TD*%
%TO.C,Q51*%
X59087000Y-137226000D03*
X61087000Y-136276000D03*
X61087000Y-138176000D03*
%TD*%
%TO.C,Q52*%
X46482000Y-136398000D03*
X46482000Y-138298000D03*
X48482000Y-137348000D03*
%TD*%
%TO.C,Q53*%
X52800000Y-137348000D03*
X50800000Y-138298000D03*
X50800000Y-136398000D03*
%TD*%
%TO.C,Q54*%
X54896000Y-137353000D03*
X56896000Y-136403000D03*
X56896000Y-138303000D03*
%TD*%
%TO.C,Q55*%
X46482000Y-142494000D03*
X46482000Y-144394000D03*
X48482000Y-143444000D03*
%TD*%
%TO.C,Q56*%
X52800000Y-143444000D03*
X50800000Y-144394000D03*
X50800000Y-142494000D03*
%TD*%
%TO.C,Q57*%
X59087000Y-147767000D03*
X61087000Y-146817000D03*
X61087000Y-148717000D03*
%TD*%
%TO.C,Q58*%
X46482000Y-146812000D03*
X46482000Y-148712000D03*
X48482000Y-147762000D03*
%TD*%
%TO.C,Q59*%
X50816000Y-146878000D03*
X50816000Y-148778000D03*
X52816000Y-147828000D03*
%TD*%
%TO.C,Q60*%
X56896000Y-148717000D03*
X56896000Y-146817000D03*
X54896000Y-147767000D03*
%TD*%
%TO.C,Q61*%
X46514000Y-152872400D03*
X46514000Y-154772400D03*
X48514000Y-153822400D03*
%TD*%
%TO.C,Q62*%
X50774600Y-152908000D03*
X50774600Y-154808000D03*
X52774600Y-153858000D03*
%TD*%
%TO.C,Q63*%
X61087000Y-159065000D03*
X61087000Y-157165000D03*
X59087000Y-158115000D03*
%TD*%
%TO.C,Q64*%
X46472600Y-157226000D03*
X46472600Y-159126000D03*
X48472600Y-158176000D03*
%TD*%
%TO.C,Q65*%
X50825400Y-157226000D03*
X50825400Y-159126000D03*
X52825400Y-158176000D03*
%TD*%
%TO.C,Q66*%
X54880000Y-158115000D03*
X56880000Y-157165000D03*
X56880000Y-159065000D03*
%TD*%
%TO.C,Q67*%
X48482000Y-164272000D03*
X46482000Y-165222000D03*
X46482000Y-163322000D03*
%TD*%
%TO.C,Q68*%
X52774600Y-164272000D03*
X50774600Y-165222000D03*
X50774600Y-163322000D03*
%TD*%
%TO.C,Q69*%
X61087000Y-169479000D03*
X61087000Y-167579000D03*
X59087000Y-168529000D03*
%TD*%
%TO.C,Q70*%
X48482000Y-168590000D03*
X46482000Y-169540000D03*
X46482000Y-167640000D03*
%TD*%
%TO.C,Q71*%
X50825400Y-167640000D03*
X50825400Y-169540000D03*
X52825400Y-168590000D03*
%TD*%
%TO.C,Q72*%
X54864000Y-168529000D03*
X56864000Y-167579000D03*
X56864000Y-169479000D03*
%TD*%
%TO.C,R1*%
G36*
G01*
X40231750Y-53259000D02*
X40794250Y-53259000D01*
G75*
G02*
X41038000Y-53502750I0J-243750D01*
G01*
X41038000Y-53990250D01*
G75*
G02*
X40794250Y-54234000I-243750J0D01*
G01*
X40231750Y-54234000D01*
G75*
G02*
X39988000Y-53990250I0J243750D01*
G01*
X39988000Y-53502750D01*
G75*
G02*
X40231750Y-53259000I243750J0D01*
G01*
G37*
G36*
G01*
X40231750Y-51684000D02*
X40794250Y-51684000D01*
G75*
G02*
X41038000Y-51927750I0J-243750D01*
G01*
X41038000Y-52415250D01*
G75*
G02*
X40794250Y-52659000I-243750J0D01*
G01*
X40231750Y-52659000D01*
G75*
G02*
X39988000Y-52415250I0J243750D01*
G01*
X39988000Y-51927750D01*
G75*
G02*
X40231750Y-51684000I243750J0D01*
G01*
G37*
%TD*%
%TO.C,R2*%
G36*
G01*
X55599250Y-49305500D02*
X54636750Y-49305500D01*
G75*
G02*
X54368000Y-49036750I0J268750D01*
G01*
X54368000Y-48499250D01*
G75*
G02*
X54636750Y-48230500I268750J0D01*
G01*
X55599250Y-48230500D01*
G75*
G02*
X55868000Y-48499250I0J-268750D01*
G01*
X55868000Y-49036750D01*
G75*
G02*
X55599250Y-49305500I-268750J0D01*
G01*
G37*
G36*
G01*
X55599250Y-51180500D02*
X54636750Y-51180500D01*
G75*
G02*
X54368000Y-50911750I0J268750D01*
G01*
X54368000Y-50374250D01*
G75*
G02*
X54636750Y-50105500I268750J0D01*
G01*
X55599250Y-50105500D01*
G75*
G02*
X55868000Y-50374250I0J-268750D01*
G01*
X55868000Y-50911750D01*
G75*
G02*
X55599250Y-51180500I-268750J0D01*
G01*
G37*
%TD*%
%TO.C,R3*%
G36*
G01*
X42517750Y-54884500D02*
X43080250Y-54884500D01*
G75*
G02*
X43324000Y-55128250I0J-243750D01*
G01*
X43324000Y-55615750D01*
G75*
G02*
X43080250Y-55859500I-243750J0D01*
G01*
X42517750Y-55859500D01*
G75*
G02*
X42274000Y-55615750I0J243750D01*
G01*
X42274000Y-55128250D01*
G75*
G02*
X42517750Y-54884500I243750J0D01*
G01*
G37*
G36*
G01*
X42517750Y-53309500D02*
X43080250Y-53309500D01*
G75*
G02*
X43324000Y-53553250I0J-243750D01*
G01*
X43324000Y-54040750D01*
G75*
G02*
X43080250Y-54284500I-243750J0D01*
G01*
X42517750Y-54284500D01*
G75*
G02*
X42274000Y-54040750I0J243750D01*
G01*
X42274000Y-53553250D01*
G75*
G02*
X42517750Y-53309500I243750J0D01*
G01*
G37*
%TD*%
%TO.C,R4*%
G36*
G01*
X44810500Y-51534750D02*
X44810500Y-52097250D01*
G75*
G02*
X44566750Y-52341000I-243750J0D01*
G01*
X44079250Y-52341000D01*
G75*
G02*
X43835500Y-52097250I0J243750D01*
G01*
X43835500Y-51534750D01*
G75*
G02*
X44079250Y-51291000I243750J0D01*
G01*
X44566750Y-51291000D01*
G75*
G02*
X44810500Y-51534750I0J-243750D01*
G01*
G37*
G36*
G01*
X43235500Y-51534750D02*
X43235500Y-52097250D01*
G75*
G02*
X42991750Y-52341000I-243750J0D01*
G01*
X42504250Y-52341000D01*
G75*
G02*
X42260500Y-52097250I0J243750D01*
G01*
X42260500Y-51534750D01*
G75*
G02*
X42504250Y-51291000I243750J0D01*
G01*
X42991750Y-51291000D01*
G75*
G02*
X43235500Y-51534750I0J-243750D01*
G01*
G37*
%TD*%
%TO.C,R5*%
G36*
G01*
X62972000Y-54068000D02*
X64282000Y-54068000D01*
G75*
G02*
X64552000Y-54338000I0J-270000D01*
G01*
X64552000Y-55148000D01*
G75*
G02*
X64282000Y-55418000I-270000J0D01*
G01*
X62972000Y-55418000D01*
G75*
G02*
X62702000Y-55148000I0J270000D01*
G01*
X62702000Y-54338000D01*
G75*
G02*
X62972000Y-54068000I270000J0D01*
G01*
G37*
G36*
G01*
X62972000Y-51268000D02*
X64282000Y-51268000D01*
G75*
G02*
X64552000Y-51538000I0J-270000D01*
G01*
X64552000Y-52348000D01*
G75*
G02*
X64282000Y-52618000I-270000J0D01*
G01*
X62972000Y-52618000D01*
G75*
G02*
X62702000Y-52348000I0J270000D01*
G01*
X62702000Y-51538000D01*
G75*
G02*
X62972000Y-51268000I270000J0D01*
G01*
G37*
%TD*%
%TO.C,R6*%
G36*
G01*
X56993500Y-51027250D02*
X56993500Y-50064750D01*
G75*
G02*
X57262250Y-49796000I268750J0D01*
G01*
X57799750Y-49796000D01*
G75*
G02*
X58068500Y-50064750I0J-268750D01*
G01*
X58068500Y-51027250D01*
G75*
G02*
X57799750Y-51296000I-268750J0D01*
G01*
X57262250Y-51296000D01*
G75*
G02*
X56993500Y-51027250I0J268750D01*
G01*
G37*
G36*
G01*
X58868500Y-51027250D02*
X58868500Y-50064750D01*
G75*
G02*
X59137250Y-49796000I268750J0D01*
G01*
X59674750Y-49796000D01*
G75*
G02*
X59943500Y-50064750I0J-268750D01*
G01*
X59943500Y-51027250D01*
G75*
G02*
X59674750Y-51296000I-268750J0D01*
G01*
X59137250Y-51296000D01*
G75*
G02*
X58868500Y-51027250I0J268750D01*
G01*
G37*
%TD*%
%TO.C,R7*%
G36*
G01*
X40358750Y-62123500D02*
X40921250Y-62123500D01*
G75*
G02*
X41165000Y-62367250I0J-243750D01*
G01*
X41165000Y-62854750D01*
G75*
G02*
X40921250Y-63098500I-243750J0D01*
G01*
X40358750Y-63098500D01*
G75*
G02*
X40115000Y-62854750I0J243750D01*
G01*
X40115000Y-62367250D01*
G75*
G02*
X40358750Y-62123500I243750J0D01*
G01*
G37*
G36*
G01*
X40358750Y-63698500D02*
X40921250Y-63698500D01*
G75*
G02*
X41165000Y-63942250I0J-243750D01*
G01*
X41165000Y-64429750D01*
G75*
G02*
X40921250Y-64673500I-243750J0D01*
G01*
X40358750Y-64673500D01*
G75*
G02*
X40115000Y-64429750I0J243750D01*
G01*
X40115000Y-63942250D01*
G75*
G02*
X40358750Y-63698500I243750J0D01*
G01*
G37*
%TD*%
%TO.C,R8*%
G36*
G01*
X55599250Y-61594500D02*
X54636750Y-61594500D01*
G75*
G02*
X54368000Y-61325750I0J268750D01*
G01*
X54368000Y-60788250D01*
G75*
G02*
X54636750Y-60519500I268750J0D01*
G01*
X55599250Y-60519500D01*
G75*
G02*
X55868000Y-60788250I0J-268750D01*
G01*
X55868000Y-61325750D01*
G75*
G02*
X55599250Y-61594500I-268750J0D01*
G01*
G37*
G36*
G01*
X55599250Y-59719500D02*
X54636750Y-59719500D01*
G75*
G02*
X54368000Y-59450750I0J268750D01*
G01*
X54368000Y-58913250D01*
G75*
G02*
X54636750Y-58644500I268750J0D01*
G01*
X55599250Y-58644500D01*
G75*
G02*
X55868000Y-58913250I0J-268750D01*
G01*
X55868000Y-59450750D01*
G75*
G02*
X55599250Y-59719500I-268750J0D01*
G01*
G37*
%TD*%
%TO.C,R9*%
G36*
G01*
X42517750Y-63774500D02*
X43080250Y-63774500D01*
G75*
G02*
X43324000Y-64018250I0J-243750D01*
G01*
X43324000Y-64505750D01*
G75*
G02*
X43080250Y-64749500I-243750J0D01*
G01*
X42517750Y-64749500D01*
G75*
G02*
X42274000Y-64505750I0J243750D01*
G01*
X42274000Y-64018250D01*
G75*
G02*
X42517750Y-63774500I243750J0D01*
G01*
G37*
G36*
G01*
X42517750Y-65349500D02*
X43080250Y-65349500D01*
G75*
G02*
X43324000Y-65593250I0J-243750D01*
G01*
X43324000Y-66080750D01*
G75*
G02*
X43080250Y-66324500I-243750J0D01*
G01*
X42517750Y-66324500D01*
G75*
G02*
X42274000Y-66080750I0J243750D01*
G01*
X42274000Y-65593250D01*
G75*
G02*
X42517750Y-65349500I243750J0D01*
G01*
G37*
%TD*%
%TO.C,R10*%
G36*
G01*
X43235500Y-61948750D02*
X43235500Y-62511250D01*
G75*
G02*
X42991750Y-62755000I-243750J0D01*
G01*
X42504250Y-62755000D01*
G75*
G02*
X42260500Y-62511250I0J243750D01*
G01*
X42260500Y-61948750D01*
G75*
G02*
X42504250Y-61705000I243750J0D01*
G01*
X42991750Y-61705000D01*
G75*
G02*
X43235500Y-61948750I0J-243750D01*
G01*
G37*
G36*
G01*
X44810500Y-61948750D02*
X44810500Y-62511250D01*
G75*
G02*
X44566750Y-62755000I-243750J0D01*
G01*
X44079250Y-62755000D01*
G75*
G02*
X43835500Y-62511250I0J243750D01*
G01*
X43835500Y-61948750D01*
G75*
G02*
X44079250Y-61705000I243750J0D01*
G01*
X44566750Y-61705000D01*
G75*
G02*
X44810500Y-61948750I0J-243750D01*
G01*
G37*
%TD*%
%TO.C,R11*%
G36*
G01*
X62972000Y-61682000D02*
X64282000Y-61682000D01*
G75*
G02*
X64552000Y-61952000I0J-270000D01*
G01*
X64552000Y-62762000D01*
G75*
G02*
X64282000Y-63032000I-270000J0D01*
G01*
X62972000Y-63032000D01*
G75*
G02*
X62702000Y-62762000I0J270000D01*
G01*
X62702000Y-61952000D01*
G75*
G02*
X62972000Y-61682000I270000J0D01*
G01*
G37*
G36*
G01*
X62972000Y-64482000D02*
X64282000Y-64482000D01*
G75*
G02*
X64552000Y-64752000I0J-270000D01*
G01*
X64552000Y-65562000D01*
G75*
G02*
X64282000Y-65832000I-270000J0D01*
G01*
X62972000Y-65832000D01*
G75*
G02*
X62702000Y-65562000I0J270000D01*
G01*
X62702000Y-64752000D01*
G75*
G02*
X62972000Y-64482000I270000J0D01*
G01*
G37*
%TD*%
%TO.C,R12*%
G36*
G01*
X58868500Y-61441250D02*
X58868500Y-60478750D01*
G75*
G02*
X59137250Y-60210000I268750J0D01*
G01*
X59674750Y-60210000D01*
G75*
G02*
X59943500Y-60478750I0J-268750D01*
G01*
X59943500Y-61441250D01*
G75*
G02*
X59674750Y-61710000I-268750J0D01*
G01*
X59137250Y-61710000D01*
G75*
G02*
X58868500Y-61441250I0J268750D01*
G01*
G37*
G36*
G01*
X56993500Y-61441250D02*
X56993500Y-60478750D01*
G75*
G02*
X57262250Y-60210000I268750J0D01*
G01*
X57799750Y-60210000D01*
G75*
G02*
X58068500Y-60478750I0J-268750D01*
G01*
X58068500Y-61441250D01*
G75*
G02*
X57799750Y-61710000I-268750J0D01*
G01*
X57262250Y-61710000D01*
G75*
G02*
X56993500Y-61441250I0J268750D01*
G01*
G37*
%TD*%
%TO.C,R13*%
G36*
G01*
X40358750Y-74112500D02*
X40921250Y-74112500D01*
G75*
G02*
X41165000Y-74356250I0J-243750D01*
G01*
X41165000Y-74843750D01*
G75*
G02*
X40921250Y-75087500I-243750J0D01*
G01*
X40358750Y-75087500D01*
G75*
G02*
X40115000Y-74843750I0J243750D01*
G01*
X40115000Y-74356250D01*
G75*
G02*
X40358750Y-74112500I243750J0D01*
G01*
G37*
G36*
G01*
X40358750Y-72537500D02*
X40921250Y-72537500D01*
G75*
G02*
X41165000Y-72781250I0J-243750D01*
G01*
X41165000Y-73268750D01*
G75*
G02*
X40921250Y-73512500I-243750J0D01*
G01*
X40358750Y-73512500D01*
G75*
G02*
X40115000Y-73268750I0J243750D01*
G01*
X40115000Y-72781250D01*
G75*
G02*
X40358750Y-72537500I243750J0D01*
G01*
G37*
%TD*%
%TO.C,R14*%
G36*
G01*
X55599250Y-72008500D02*
X54636750Y-72008500D01*
G75*
G02*
X54368000Y-71739750I0J268750D01*
G01*
X54368000Y-71202250D01*
G75*
G02*
X54636750Y-70933500I268750J0D01*
G01*
X55599250Y-70933500D01*
G75*
G02*
X55868000Y-71202250I0J-268750D01*
G01*
X55868000Y-71739750D01*
G75*
G02*
X55599250Y-72008500I-268750J0D01*
G01*
G37*
G36*
G01*
X55599250Y-70133500D02*
X54636750Y-70133500D01*
G75*
G02*
X54368000Y-69864750I0J268750D01*
G01*
X54368000Y-69327250D01*
G75*
G02*
X54636750Y-69058500I268750J0D01*
G01*
X55599250Y-69058500D01*
G75*
G02*
X55868000Y-69327250I0J-268750D01*
G01*
X55868000Y-69864750D01*
G75*
G02*
X55599250Y-70133500I-268750J0D01*
G01*
G37*
%TD*%
%TO.C,R15*%
G36*
G01*
X42517750Y-75738000D02*
X43080250Y-75738000D01*
G75*
G02*
X43324000Y-75981750I0J-243750D01*
G01*
X43324000Y-76469250D01*
G75*
G02*
X43080250Y-76713000I-243750J0D01*
G01*
X42517750Y-76713000D01*
G75*
G02*
X42274000Y-76469250I0J243750D01*
G01*
X42274000Y-75981750D01*
G75*
G02*
X42517750Y-75738000I243750J0D01*
G01*
G37*
G36*
G01*
X42517750Y-74163000D02*
X43080250Y-74163000D01*
G75*
G02*
X43324000Y-74406750I0J-243750D01*
G01*
X43324000Y-74894250D01*
G75*
G02*
X43080250Y-75138000I-243750J0D01*
G01*
X42517750Y-75138000D01*
G75*
G02*
X42274000Y-74894250I0J243750D01*
G01*
X42274000Y-74406750D01*
G75*
G02*
X42517750Y-74163000I243750J0D01*
G01*
G37*
%TD*%
%TO.C,R16*%
G36*
G01*
X44836000Y-72362750D02*
X44836000Y-72925250D01*
G75*
G02*
X44592250Y-73169000I-243750J0D01*
G01*
X44104750Y-73169000D01*
G75*
G02*
X43861000Y-72925250I0J243750D01*
G01*
X43861000Y-72362750D01*
G75*
G02*
X44104750Y-72119000I243750J0D01*
G01*
X44592250Y-72119000D01*
G75*
G02*
X44836000Y-72362750I0J-243750D01*
G01*
G37*
G36*
G01*
X43261000Y-72362750D02*
X43261000Y-72925250D01*
G75*
G02*
X43017250Y-73169000I-243750J0D01*
G01*
X42529750Y-73169000D01*
G75*
G02*
X42286000Y-72925250I0J243750D01*
G01*
X42286000Y-72362750D01*
G75*
G02*
X42529750Y-72119000I243750J0D01*
G01*
X43017250Y-72119000D01*
G75*
G02*
X43261000Y-72362750I0J-243750D01*
G01*
G37*
%TD*%
%TO.C,R17*%
G36*
G01*
X62972000Y-74890000D02*
X64282000Y-74890000D01*
G75*
G02*
X64552000Y-75160000I0J-270000D01*
G01*
X64552000Y-75970000D01*
G75*
G02*
X64282000Y-76240000I-270000J0D01*
G01*
X62972000Y-76240000D01*
G75*
G02*
X62702000Y-75970000I0J270000D01*
G01*
X62702000Y-75160000D01*
G75*
G02*
X62972000Y-74890000I270000J0D01*
G01*
G37*
G36*
G01*
X62972000Y-72090000D02*
X64282000Y-72090000D01*
G75*
G02*
X64552000Y-72360000I0J-270000D01*
G01*
X64552000Y-73170000D01*
G75*
G02*
X64282000Y-73440000I-270000J0D01*
G01*
X62972000Y-73440000D01*
G75*
G02*
X62702000Y-73170000I0J270000D01*
G01*
X62702000Y-72360000D01*
G75*
G02*
X62972000Y-72090000I270000J0D01*
G01*
G37*
%TD*%
%TO.C,R18*%
G36*
G01*
X58868500Y-71855250D02*
X58868500Y-70892750D01*
G75*
G02*
X59137250Y-70624000I268750J0D01*
G01*
X59674750Y-70624000D01*
G75*
G02*
X59943500Y-70892750I0J-268750D01*
G01*
X59943500Y-71855250D01*
G75*
G02*
X59674750Y-72124000I-268750J0D01*
G01*
X59137250Y-72124000D01*
G75*
G02*
X58868500Y-71855250I0J268750D01*
G01*
G37*
G36*
G01*
X56993500Y-71855250D02*
X56993500Y-70892750D01*
G75*
G02*
X57262250Y-70624000I268750J0D01*
G01*
X57799750Y-70624000D01*
G75*
G02*
X58068500Y-70892750I0J-268750D01*
G01*
X58068500Y-71855250D01*
G75*
G02*
X57799750Y-72124000I-268750J0D01*
G01*
X57262250Y-72124000D01*
G75*
G02*
X56993500Y-71855250I0J268750D01*
G01*
G37*
%TD*%
%TO.C,R19*%
G36*
G01*
X40358750Y-82951500D02*
X40921250Y-82951500D01*
G75*
G02*
X41165000Y-83195250I0J-243750D01*
G01*
X41165000Y-83682750D01*
G75*
G02*
X40921250Y-83926500I-243750J0D01*
G01*
X40358750Y-83926500D01*
G75*
G02*
X40115000Y-83682750I0J243750D01*
G01*
X40115000Y-83195250D01*
G75*
G02*
X40358750Y-82951500I243750J0D01*
G01*
G37*
G36*
G01*
X40358750Y-84526500D02*
X40921250Y-84526500D01*
G75*
G02*
X41165000Y-84770250I0J-243750D01*
G01*
X41165000Y-85257750D01*
G75*
G02*
X40921250Y-85501500I-243750J0D01*
G01*
X40358750Y-85501500D01*
G75*
G02*
X40115000Y-85257750I0J243750D01*
G01*
X40115000Y-84770250D01*
G75*
G02*
X40358750Y-84526500I243750J0D01*
G01*
G37*
%TD*%
%TO.C,R20*%
G36*
G01*
X55599250Y-80547500D02*
X54636750Y-80547500D01*
G75*
G02*
X54368000Y-80278750I0J268750D01*
G01*
X54368000Y-79741250D01*
G75*
G02*
X54636750Y-79472500I268750J0D01*
G01*
X55599250Y-79472500D01*
G75*
G02*
X55868000Y-79741250I0J-268750D01*
G01*
X55868000Y-80278750D01*
G75*
G02*
X55599250Y-80547500I-268750J0D01*
G01*
G37*
G36*
G01*
X55599250Y-82422500D02*
X54636750Y-82422500D01*
G75*
G02*
X54368000Y-82153750I0J268750D01*
G01*
X54368000Y-81616250D01*
G75*
G02*
X54636750Y-81347500I268750J0D01*
G01*
X55599250Y-81347500D01*
G75*
G02*
X55868000Y-81616250I0J-268750D01*
G01*
X55868000Y-82153750D01*
G75*
G02*
X55599250Y-82422500I-268750J0D01*
G01*
G37*
%TD*%
%TO.C,R21*%
G36*
G01*
X42517750Y-84551500D02*
X43080250Y-84551500D01*
G75*
G02*
X43324000Y-84795250I0J-243750D01*
G01*
X43324000Y-85282750D01*
G75*
G02*
X43080250Y-85526500I-243750J0D01*
G01*
X42517750Y-85526500D01*
G75*
G02*
X42274000Y-85282750I0J243750D01*
G01*
X42274000Y-84795250D01*
G75*
G02*
X42517750Y-84551500I243750J0D01*
G01*
G37*
G36*
G01*
X42517750Y-86126500D02*
X43080250Y-86126500D01*
G75*
G02*
X43324000Y-86370250I0J-243750D01*
G01*
X43324000Y-86857750D01*
G75*
G02*
X43080250Y-87101500I-243750J0D01*
G01*
X42517750Y-87101500D01*
G75*
G02*
X42274000Y-86857750I0J243750D01*
G01*
X42274000Y-86370250D01*
G75*
G02*
X42517750Y-86126500I243750J0D01*
G01*
G37*
%TD*%
%TO.C,R22*%
G36*
G01*
X43286500Y-82776750D02*
X43286500Y-83339250D01*
G75*
G02*
X43042750Y-83583000I-243750J0D01*
G01*
X42555250Y-83583000D01*
G75*
G02*
X42311500Y-83339250I0J243750D01*
G01*
X42311500Y-82776750D01*
G75*
G02*
X42555250Y-82533000I243750J0D01*
G01*
X43042750Y-82533000D01*
G75*
G02*
X43286500Y-82776750I0J-243750D01*
G01*
G37*
G36*
G01*
X44861500Y-82776750D02*
X44861500Y-83339250D01*
G75*
G02*
X44617750Y-83583000I-243750J0D01*
G01*
X44130250Y-83583000D01*
G75*
G02*
X43886500Y-83339250I0J243750D01*
G01*
X43886500Y-82776750D01*
G75*
G02*
X44130250Y-82533000I243750J0D01*
G01*
X44617750Y-82533000D01*
G75*
G02*
X44861500Y-82776750I0J-243750D01*
G01*
G37*
%TD*%
%TO.C,R23*%
G36*
G01*
X62972000Y-82510000D02*
X64282000Y-82510000D01*
G75*
G02*
X64552000Y-82780000I0J-270000D01*
G01*
X64552000Y-83590000D01*
G75*
G02*
X64282000Y-83860000I-270000J0D01*
G01*
X62972000Y-83860000D01*
G75*
G02*
X62702000Y-83590000I0J270000D01*
G01*
X62702000Y-82780000D01*
G75*
G02*
X62972000Y-82510000I270000J0D01*
G01*
G37*
G36*
G01*
X62972000Y-85310000D02*
X64282000Y-85310000D01*
G75*
G02*
X64552000Y-85580000I0J-270000D01*
G01*
X64552000Y-86390000D01*
G75*
G02*
X64282000Y-86660000I-270000J0D01*
G01*
X62972000Y-86660000D01*
G75*
G02*
X62702000Y-86390000I0J270000D01*
G01*
X62702000Y-85580000D01*
G75*
G02*
X62972000Y-85310000I270000J0D01*
G01*
G37*
%TD*%
%TO.C,R24*%
G36*
G01*
X56993500Y-82269250D02*
X56993500Y-81306750D01*
G75*
G02*
X57262250Y-81038000I268750J0D01*
G01*
X57799750Y-81038000D01*
G75*
G02*
X58068500Y-81306750I0J-268750D01*
G01*
X58068500Y-82269250D01*
G75*
G02*
X57799750Y-82538000I-268750J0D01*
G01*
X57262250Y-82538000D01*
G75*
G02*
X56993500Y-82269250I0J268750D01*
G01*
G37*
G36*
G01*
X58868500Y-82269250D02*
X58868500Y-81306750D01*
G75*
G02*
X59137250Y-81038000I268750J0D01*
G01*
X59674750Y-81038000D01*
G75*
G02*
X59943500Y-81306750I0J-268750D01*
G01*
X59943500Y-82269250D01*
G75*
G02*
X59674750Y-82538000I-268750J0D01*
G01*
X59137250Y-82538000D01*
G75*
G02*
X58868500Y-82269250I0J268750D01*
G01*
G37*
%TD*%
%TO.C,R25*%
G36*
G01*
X40358750Y-94940500D02*
X40921250Y-94940500D01*
G75*
G02*
X41165000Y-95184250I0J-243750D01*
G01*
X41165000Y-95671750D01*
G75*
G02*
X40921250Y-95915500I-243750J0D01*
G01*
X40358750Y-95915500D01*
G75*
G02*
X40115000Y-95671750I0J243750D01*
G01*
X40115000Y-95184250D01*
G75*
G02*
X40358750Y-94940500I243750J0D01*
G01*
G37*
G36*
G01*
X40358750Y-93365500D02*
X40921250Y-93365500D01*
G75*
G02*
X41165000Y-93609250I0J-243750D01*
G01*
X41165000Y-94096750D01*
G75*
G02*
X40921250Y-94340500I-243750J0D01*
G01*
X40358750Y-94340500D01*
G75*
G02*
X40115000Y-94096750I0J243750D01*
G01*
X40115000Y-93609250D01*
G75*
G02*
X40358750Y-93365500I243750J0D01*
G01*
G37*
%TD*%
%TO.C,R26*%
G36*
G01*
X55599250Y-90961500D02*
X54636750Y-90961500D01*
G75*
G02*
X54368000Y-90692750I0J268750D01*
G01*
X54368000Y-90155250D01*
G75*
G02*
X54636750Y-89886500I268750J0D01*
G01*
X55599250Y-89886500D01*
G75*
G02*
X55868000Y-90155250I0J-268750D01*
G01*
X55868000Y-90692750D01*
G75*
G02*
X55599250Y-90961500I-268750J0D01*
G01*
G37*
G36*
G01*
X55599250Y-92836500D02*
X54636750Y-92836500D01*
G75*
G02*
X54368000Y-92567750I0J268750D01*
G01*
X54368000Y-92030250D01*
G75*
G02*
X54636750Y-91761500I268750J0D01*
G01*
X55599250Y-91761500D01*
G75*
G02*
X55868000Y-92030250I0J-268750D01*
G01*
X55868000Y-92567750D01*
G75*
G02*
X55599250Y-92836500I-268750J0D01*
G01*
G37*
%TD*%
%TO.C,R27*%
G36*
G01*
X42517750Y-96540500D02*
X43080250Y-96540500D01*
G75*
G02*
X43324000Y-96784250I0J-243750D01*
G01*
X43324000Y-97271750D01*
G75*
G02*
X43080250Y-97515500I-243750J0D01*
G01*
X42517750Y-97515500D01*
G75*
G02*
X42274000Y-97271750I0J243750D01*
G01*
X42274000Y-96784250D01*
G75*
G02*
X42517750Y-96540500I243750J0D01*
G01*
G37*
G36*
G01*
X42517750Y-94965500D02*
X43080250Y-94965500D01*
G75*
G02*
X43324000Y-95209250I0J-243750D01*
G01*
X43324000Y-95696750D01*
G75*
G02*
X43080250Y-95940500I-243750J0D01*
G01*
X42517750Y-95940500D01*
G75*
G02*
X42274000Y-95696750I0J243750D01*
G01*
X42274000Y-95209250D01*
G75*
G02*
X42517750Y-94965500I243750J0D01*
G01*
G37*
%TD*%
%TO.C,R28*%
G36*
G01*
X44810500Y-93190750D02*
X44810500Y-93753250D01*
G75*
G02*
X44566750Y-93997000I-243750J0D01*
G01*
X44079250Y-93997000D01*
G75*
G02*
X43835500Y-93753250I0J243750D01*
G01*
X43835500Y-93190750D01*
G75*
G02*
X44079250Y-92947000I243750J0D01*
G01*
X44566750Y-92947000D01*
G75*
G02*
X44810500Y-93190750I0J-243750D01*
G01*
G37*
G36*
G01*
X43235500Y-93190750D02*
X43235500Y-93753250D01*
G75*
G02*
X42991750Y-93997000I-243750J0D01*
G01*
X42504250Y-93997000D01*
G75*
G02*
X42260500Y-93753250I0J243750D01*
G01*
X42260500Y-93190750D01*
G75*
G02*
X42504250Y-92947000I243750J0D01*
G01*
X42991750Y-92947000D01*
G75*
G02*
X43235500Y-93190750I0J-243750D01*
G01*
G37*
%TD*%
%TO.C,R29*%
G36*
G01*
X62972000Y-95724000D02*
X64282000Y-95724000D01*
G75*
G02*
X64552000Y-95994000I0J-270000D01*
G01*
X64552000Y-96804000D01*
G75*
G02*
X64282000Y-97074000I-270000J0D01*
G01*
X62972000Y-97074000D01*
G75*
G02*
X62702000Y-96804000I0J270000D01*
G01*
X62702000Y-95994000D01*
G75*
G02*
X62972000Y-95724000I270000J0D01*
G01*
G37*
G36*
G01*
X62972000Y-92924000D02*
X64282000Y-92924000D01*
G75*
G02*
X64552000Y-93194000I0J-270000D01*
G01*
X64552000Y-94004000D01*
G75*
G02*
X64282000Y-94274000I-270000J0D01*
G01*
X62972000Y-94274000D01*
G75*
G02*
X62702000Y-94004000I0J270000D01*
G01*
X62702000Y-93194000D01*
G75*
G02*
X62972000Y-92924000I270000J0D01*
G01*
G37*
%TD*%
%TO.C,R30*%
G36*
G01*
X58868500Y-92683250D02*
X58868500Y-91720750D01*
G75*
G02*
X59137250Y-91452000I268750J0D01*
G01*
X59674750Y-91452000D01*
G75*
G02*
X59943500Y-91720750I0J-268750D01*
G01*
X59943500Y-92683250D01*
G75*
G02*
X59674750Y-92952000I-268750J0D01*
G01*
X59137250Y-92952000D01*
G75*
G02*
X58868500Y-92683250I0J268750D01*
G01*
G37*
G36*
G01*
X56993500Y-92683250D02*
X56993500Y-91720750D01*
G75*
G02*
X57262250Y-91452000I268750J0D01*
G01*
X57799750Y-91452000D01*
G75*
G02*
X58068500Y-91720750I0J-268750D01*
G01*
X58068500Y-92683250D01*
G75*
G02*
X57799750Y-92952000I-268750J0D01*
G01*
X57262250Y-92952000D01*
G75*
G02*
X56993500Y-92683250I0J268750D01*
G01*
G37*
%TD*%
%TO.C,R31*%
G36*
G01*
X40358750Y-103779500D02*
X40921250Y-103779500D01*
G75*
G02*
X41165000Y-104023250I0J-243750D01*
G01*
X41165000Y-104510750D01*
G75*
G02*
X40921250Y-104754500I-243750J0D01*
G01*
X40358750Y-104754500D01*
G75*
G02*
X40115000Y-104510750I0J243750D01*
G01*
X40115000Y-104023250D01*
G75*
G02*
X40358750Y-103779500I243750J0D01*
G01*
G37*
G36*
G01*
X40358750Y-105354500D02*
X40921250Y-105354500D01*
G75*
G02*
X41165000Y-105598250I0J-243750D01*
G01*
X41165000Y-106085750D01*
G75*
G02*
X40921250Y-106329500I-243750J0D01*
G01*
X40358750Y-106329500D01*
G75*
G02*
X40115000Y-106085750I0J243750D01*
G01*
X40115000Y-105598250D01*
G75*
G02*
X40358750Y-105354500I243750J0D01*
G01*
G37*
%TD*%
%TO.C,R32*%
G36*
G01*
X55599250Y-101405500D02*
X54636750Y-101405500D01*
G75*
G02*
X54368000Y-101136750I0J268750D01*
G01*
X54368000Y-100599250D01*
G75*
G02*
X54636750Y-100330500I268750J0D01*
G01*
X55599250Y-100330500D01*
G75*
G02*
X55868000Y-100599250I0J-268750D01*
G01*
X55868000Y-101136750D01*
G75*
G02*
X55599250Y-101405500I-268750J0D01*
G01*
G37*
G36*
G01*
X55599250Y-103280500D02*
X54636750Y-103280500D01*
G75*
G02*
X54368000Y-103011750I0J268750D01*
G01*
X54368000Y-102474250D01*
G75*
G02*
X54636750Y-102205500I268750J0D01*
G01*
X55599250Y-102205500D01*
G75*
G02*
X55868000Y-102474250I0J-268750D01*
G01*
X55868000Y-103011750D01*
G75*
G02*
X55599250Y-103280500I-268750J0D01*
G01*
G37*
%TD*%
%TO.C,R33*%
G36*
G01*
X42517750Y-105405000D02*
X43080250Y-105405000D01*
G75*
G02*
X43324000Y-105648750I0J-243750D01*
G01*
X43324000Y-106136250D01*
G75*
G02*
X43080250Y-106380000I-243750J0D01*
G01*
X42517750Y-106380000D01*
G75*
G02*
X42274000Y-106136250I0J243750D01*
G01*
X42274000Y-105648750D01*
G75*
G02*
X42517750Y-105405000I243750J0D01*
G01*
G37*
G36*
G01*
X42517750Y-106980000D02*
X43080250Y-106980000D01*
G75*
G02*
X43324000Y-107223750I0J-243750D01*
G01*
X43324000Y-107711250D01*
G75*
G02*
X43080250Y-107955000I-243750J0D01*
G01*
X42517750Y-107955000D01*
G75*
G02*
X42274000Y-107711250I0J243750D01*
G01*
X42274000Y-107223750D01*
G75*
G02*
X42517750Y-106980000I243750J0D01*
G01*
G37*
%TD*%
%TO.C,R34*%
G36*
G01*
X43235500Y-103604750D02*
X43235500Y-104167250D01*
G75*
G02*
X42991750Y-104411000I-243750J0D01*
G01*
X42504250Y-104411000D01*
G75*
G02*
X42260500Y-104167250I0J243750D01*
G01*
X42260500Y-103604750D01*
G75*
G02*
X42504250Y-103361000I243750J0D01*
G01*
X42991750Y-103361000D01*
G75*
G02*
X43235500Y-103604750I0J-243750D01*
G01*
G37*
G36*
G01*
X44810500Y-103604750D02*
X44810500Y-104167250D01*
G75*
G02*
X44566750Y-104411000I-243750J0D01*
G01*
X44079250Y-104411000D01*
G75*
G02*
X43835500Y-104167250I0J243750D01*
G01*
X43835500Y-103604750D01*
G75*
G02*
X44079250Y-103361000I243750J0D01*
G01*
X44566750Y-103361000D01*
G75*
G02*
X44810500Y-103604750I0J-243750D01*
G01*
G37*
%TD*%
%TO.C,R35*%
G36*
G01*
X62972000Y-103338000D02*
X64282000Y-103338000D01*
G75*
G02*
X64552000Y-103608000I0J-270000D01*
G01*
X64552000Y-104418000D01*
G75*
G02*
X64282000Y-104688000I-270000J0D01*
G01*
X62972000Y-104688000D01*
G75*
G02*
X62702000Y-104418000I0J270000D01*
G01*
X62702000Y-103608000D01*
G75*
G02*
X62972000Y-103338000I270000J0D01*
G01*
G37*
G36*
G01*
X62972000Y-106138000D02*
X64282000Y-106138000D01*
G75*
G02*
X64552000Y-106408000I0J-270000D01*
G01*
X64552000Y-107218000D01*
G75*
G02*
X64282000Y-107488000I-270000J0D01*
G01*
X62972000Y-107488000D01*
G75*
G02*
X62702000Y-107218000I0J270000D01*
G01*
X62702000Y-106408000D01*
G75*
G02*
X62972000Y-106138000I270000J0D01*
G01*
G37*
%TD*%
%TO.C,R36*%
G36*
G01*
X56993500Y-103097250D02*
X56993500Y-102134750D01*
G75*
G02*
X57262250Y-101866000I268750J0D01*
G01*
X57799750Y-101866000D01*
G75*
G02*
X58068500Y-102134750I0J-268750D01*
G01*
X58068500Y-103097250D01*
G75*
G02*
X57799750Y-103366000I-268750J0D01*
G01*
X57262250Y-103366000D01*
G75*
G02*
X56993500Y-103097250I0J268750D01*
G01*
G37*
G36*
G01*
X58868500Y-103097250D02*
X58868500Y-102134750D01*
G75*
G02*
X59137250Y-101866000I268750J0D01*
G01*
X59674750Y-101866000D01*
G75*
G02*
X59943500Y-102134750I0J-268750D01*
G01*
X59943500Y-103097250D01*
G75*
G02*
X59674750Y-103366000I-268750J0D01*
G01*
X59137250Y-103366000D01*
G75*
G02*
X58868500Y-103097250I0J268750D01*
G01*
G37*
%TD*%
%TO.C,R37*%
G36*
G01*
X40358750Y-114142500D02*
X40921250Y-114142500D01*
G75*
G02*
X41165000Y-114386250I0J-243750D01*
G01*
X41165000Y-114873750D01*
G75*
G02*
X40921250Y-115117500I-243750J0D01*
G01*
X40358750Y-115117500D01*
G75*
G02*
X40115000Y-114873750I0J243750D01*
G01*
X40115000Y-114386250D01*
G75*
G02*
X40358750Y-114142500I243750J0D01*
G01*
G37*
G36*
G01*
X40358750Y-115717500D02*
X40921250Y-115717500D01*
G75*
G02*
X41165000Y-115961250I0J-243750D01*
G01*
X41165000Y-116448750D01*
G75*
G02*
X40921250Y-116692500I-243750J0D01*
G01*
X40358750Y-116692500D01*
G75*
G02*
X40115000Y-116448750I0J243750D01*
G01*
X40115000Y-115961250D01*
G75*
G02*
X40358750Y-115717500I243750J0D01*
G01*
G37*
%TD*%
%TO.C,R38*%
G36*
G01*
X55599250Y-113664500D02*
X54636750Y-113664500D01*
G75*
G02*
X54368000Y-113395750I0J268750D01*
G01*
X54368000Y-112858250D01*
G75*
G02*
X54636750Y-112589500I268750J0D01*
G01*
X55599250Y-112589500D01*
G75*
G02*
X55868000Y-112858250I0J-268750D01*
G01*
X55868000Y-113395750D01*
G75*
G02*
X55599250Y-113664500I-268750J0D01*
G01*
G37*
G36*
G01*
X55599250Y-111789500D02*
X54636750Y-111789500D01*
G75*
G02*
X54368000Y-111520750I0J268750D01*
G01*
X54368000Y-110983250D01*
G75*
G02*
X54636750Y-110714500I268750J0D01*
G01*
X55599250Y-110714500D01*
G75*
G02*
X55868000Y-110983250I0J-268750D01*
G01*
X55868000Y-111520750D01*
G75*
G02*
X55599250Y-111789500I-268750J0D01*
G01*
G37*
%TD*%
%TO.C,R39*%
G36*
G01*
X42517750Y-117419500D02*
X43080250Y-117419500D01*
G75*
G02*
X43324000Y-117663250I0J-243750D01*
G01*
X43324000Y-118150750D01*
G75*
G02*
X43080250Y-118394500I-243750J0D01*
G01*
X42517750Y-118394500D01*
G75*
G02*
X42274000Y-118150750I0J243750D01*
G01*
X42274000Y-117663250D01*
G75*
G02*
X42517750Y-117419500I243750J0D01*
G01*
G37*
G36*
G01*
X42517750Y-115844500D02*
X43080250Y-115844500D01*
G75*
G02*
X43324000Y-116088250I0J-243750D01*
G01*
X43324000Y-116575750D01*
G75*
G02*
X43080250Y-116819500I-243750J0D01*
G01*
X42517750Y-116819500D01*
G75*
G02*
X42274000Y-116575750I0J243750D01*
G01*
X42274000Y-116088250D01*
G75*
G02*
X42517750Y-115844500I243750J0D01*
G01*
G37*
%TD*%
%TO.C,R40*%
G36*
G01*
X44810500Y-114018750D02*
X44810500Y-114581250D01*
G75*
G02*
X44566750Y-114825000I-243750J0D01*
G01*
X44079250Y-114825000D01*
G75*
G02*
X43835500Y-114581250I0J243750D01*
G01*
X43835500Y-114018750D01*
G75*
G02*
X44079250Y-113775000I243750J0D01*
G01*
X44566750Y-113775000D01*
G75*
G02*
X44810500Y-114018750I0J-243750D01*
G01*
G37*
G36*
G01*
X43235500Y-114018750D02*
X43235500Y-114581250D01*
G75*
G02*
X42991750Y-114825000I-243750J0D01*
G01*
X42504250Y-114825000D01*
G75*
G02*
X42260500Y-114581250I0J243750D01*
G01*
X42260500Y-114018750D01*
G75*
G02*
X42504250Y-113775000I243750J0D01*
G01*
X42991750Y-113775000D01*
G75*
G02*
X43235500Y-114018750I0J-243750D01*
G01*
G37*
%TD*%
%TO.C,R41*%
G36*
G01*
X62972000Y-116549000D02*
X64282000Y-116549000D01*
G75*
G02*
X64552000Y-116819000I0J-270000D01*
G01*
X64552000Y-117629000D01*
G75*
G02*
X64282000Y-117899000I-270000J0D01*
G01*
X62972000Y-117899000D01*
G75*
G02*
X62702000Y-117629000I0J270000D01*
G01*
X62702000Y-116819000D01*
G75*
G02*
X62972000Y-116549000I270000J0D01*
G01*
G37*
G36*
G01*
X62972000Y-113749000D02*
X64282000Y-113749000D01*
G75*
G02*
X64552000Y-114019000I0J-270000D01*
G01*
X64552000Y-114829000D01*
G75*
G02*
X64282000Y-115099000I-270000J0D01*
G01*
X62972000Y-115099000D01*
G75*
G02*
X62702000Y-114829000I0J270000D01*
G01*
X62702000Y-114019000D01*
G75*
G02*
X62972000Y-113749000I270000J0D01*
G01*
G37*
%TD*%
%TO.C,R42*%
G36*
G01*
X58868500Y-113511250D02*
X58868500Y-112548750D01*
G75*
G02*
X59137250Y-112280000I268750J0D01*
G01*
X59674750Y-112280000D01*
G75*
G02*
X59943500Y-112548750I0J-268750D01*
G01*
X59943500Y-113511250D01*
G75*
G02*
X59674750Y-113780000I-268750J0D01*
G01*
X59137250Y-113780000D01*
G75*
G02*
X58868500Y-113511250I0J268750D01*
G01*
G37*
G36*
G01*
X56993500Y-113511250D02*
X56993500Y-112548750D01*
G75*
G02*
X57262250Y-112280000I268750J0D01*
G01*
X57799750Y-112280000D01*
G75*
G02*
X58068500Y-112548750I0J-268750D01*
G01*
X58068500Y-113511250D01*
G75*
G02*
X57799750Y-113780000I-268750J0D01*
G01*
X57262250Y-113780000D01*
G75*
G02*
X56993500Y-113511250I0J268750D01*
G01*
G37*
%TD*%
%TO.C,R43*%
G36*
G01*
X40358750Y-124607500D02*
X40921250Y-124607500D01*
G75*
G02*
X41165000Y-124851250I0J-243750D01*
G01*
X41165000Y-125338750D01*
G75*
G02*
X40921250Y-125582500I-243750J0D01*
G01*
X40358750Y-125582500D01*
G75*
G02*
X40115000Y-125338750I0J243750D01*
G01*
X40115000Y-124851250D01*
G75*
G02*
X40358750Y-124607500I243750J0D01*
G01*
G37*
G36*
G01*
X40358750Y-126182500D02*
X40921250Y-126182500D01*
G75*
G02*
X41165000Y-126426250I0J-243750D01*
G01*
X41165000Y-126913750D01*
G75*
G02*
X40921250Y-127157500I-243750J0D01*
G01*
X40358750Y-127157500D01*
G75*
G02*
X40115000Y-126913750I0J243750D01*
G01*
X40115000Y-126426250D01*
G75*
G02*
X40358750Y-126182500I243750J0D01*
G01*
G37*
%TD*%
%TO.C,R44*%
G36*
G01*
X55599250Y-124078500D02*
X54636750Y-124078500D01*
G75*
G02*
X54368000Y-123809750I0J268750D01*
G01*
X54368000Y-123272250D01*
G75*
G02*
X54636750Y-123003500I268750J0D01*
G01*
X55599250Y-123003500D01*
G75*
G02*
X55868000Y-123272250I0J-268750D01*
G01*
X55868000Y-123809750D01*
G75*
G02*
X55599250Y-124078500I-268750J0D01*
G01*
G37*
G36*
G01*
X55599250Y-122203500D02*
X54636750Y-122203500D01*
G75*
G02*
X54368000Y-121934750I0J268750D01*
G01*
X54368000Y-121397250D01*
G75*
G02*
X54636750Y-121128500I268750J0D01*
G01*
X55599250Y-121128500D01*
G75*
G02*
X55868000Y-121397250I0J-268750D01*
G01*
X55868000Y-121934750D01*
G75*
G02*
X55599250Y-122203500I-268750J0D01*
G01*
G37*
%TD*%
%TO.C,R45*%
G36*
G01*
X42517750Y-126258500D02*
X43080250Y-126258500D01*
G75*
G02*
X43324000Y-126502250I0J-243750D01*
G01*
X43324000Y-126989750D01*
G75*
G02*
X43080250Y-127233500I-243750J0D01*
G01*
X42517750Y-127233500D01*
G75*
G02*
X42274000Y-126989750I0J243750D01*
G01*
X42274000Y-126502250D01*
G75*
G02*
X42517750Y-126258500I243750J0D01*
G01*
G37*
G36*
G01*
X42517750Y-127833500D02*
X43080250Y-127833500D01*
G75*
G02*
X43324000Y-128077250I0J-243750D01*
G01*
X43324000Y-128564750D01*
G75*
G02*
X43080250Y-128808500I-243750J0D01*
G01*
X42517750Y-128808500D01*
G75*
G02*
X42274000Y-128564750I0J243750D01*
G01*
X42274000Y-128077250D01*
G75*
G02*
X42517750Y-127833500I243750J0D01*
G01*
G37*
%TD*%
%TO.C,R46*%
G36*
G01*
X43235500Y-124432750D02*
X43235500Y-124995250D01*
G75*
G02*
X42991750Y-125239000I-243750J0D01*
G01*
X42504250Y-125239000D01*
G75*
G02*
X42260500Y-124995250I0J243750D01*
G01*
X42260500Y-124432750D01*
G75*
G02*
X42504250Y-124189000I243750J0D01*
G01*
X42991750Y-124189000D01*
G75*
G02*
X43235500Y-124432750I0J-243750D01*
G01*
G37*
G36*
G01*
X44810500Y-124432750D02*
X44810500Y-124995250D01*
G75*
G02*
X44566750Y-125239000I-243750J0D01*
G01*
X44079250Y-125239000D01*
G75*
G02*
X43835500Y-124995250I0J243750D01*
G01*
X43835500Y-124432750D01*
G75*
G02*
X44079250Y-124189000I243750J0D01*
G01*
X44566750Y-124189000D01*
G75*
G02*
X44810500Y-124432750I0J-243750D01*
G01*
G37*
%TD*%
%TO.C,R47*%
G36*
G01*
X62972000Y-124166000D02*
X64282000Y-124166000D01*
G75*
G02*
X64552000Y-124436000I0J-270000D01*
G01*
X64552000Y-125246000D01*
G75*
G02*
X64282000Y-125516000I-270000J0D01*
G01*
X62972000Y-125516000D01*
G75*
G02*
X62702000Y-125246000I0J270000D01*
G01*
X62702000Y-124436000D01*
G75*
G02*
X62972000Y-124166000I270000J0D01*
G01*
G37*
G36*
G01*
X62972000Y-126966000D02*
X64282000Y-126966000D01*
G75*
G02*
X64552000Y-127236000I0J-270000D01*
G01*
X64552000Y-128046000D01*
G75*
G02*
X64282000Y-128316000I-270000J0D01*
G01*
X62972000Y-128316000D01*
G75*
G02*
X62702000Y-128046000I0J270000D01*
G01*
X62702000Y-127236000D01*
G75*
G02*
X62972000Y-126966000I270000J0D01*
G01*
G37*
%TD*%
%TO.C,R48*%
G36*
G01*
X56993500Y-123925250D02*
X56993500Y-122962750D01*
G75*
G02*
X57262250Y-122694000I268750J0D01*
G01*
X57799750Y-122694000D01*
G75*
G02*
X58068500Y-122962750I0J-268750D01*
G01*
X58068500Y-123925250D01*
G75*
G02*
X57799750Y-124194000I-268750J0D01*
G01*
X57262250Y-124194000D01*
G75*
G02*
X56993500Y-123925250I0J268750D01*
G01*
G37*
G36*
G01*
X58868500Y-123925250D02*
X58868500Y-122962750D01*
G75*
G02*
X59137250Y-122694000I268750J0D01*
G01*
X59674750Y-122694000D01*
G75*
G02*
X59943500Y-122962750I0J-268750D01*
G01*
X59943500Y-123925250D01*
G75*
G02*
X59674750Y-124194000I-268750J0D01*
G01*
X59137250Y-124194000D01*
G75*
G02*
X58868500Y-123925250I0J268750D01*
G01*
G37*
%TD*%
%TO.C,R49*%
G36*
G01*
X40358750Y-136596500D02*
X40921250Y-136596500D01*
G75*
G02*
X41165000Y-136840250I0J-243750D01*
G01*
X41165000Y-137327750D01*
G75*
G02*
X40921250Y-137571500I-243750J0D01*
G01*
X40358750Y-137571500D01*
G75*
G02*
X40115000Y-137327750I0J243750D01*
G01*
X40115000Y-136840250D01*
G75*
G02*
X40358750Y-136596500I243750J0D01*
G01*
G37*
G36*
G01*
X40358750Y-135021500D02*
X40921250Y-135021500D01*
G75*
G02*
X41165000Y-135265250I0J-243750D01*
G01*
X41165000Y-135752750D01*
G75*
G02*
X40921250Y-135996500I-243750J0D01*
G01*
X40358750Y-135996500D01*
G75*
G02*
X40115000Y-135752750I0J243750D01*
G01*
X40115000Y-135265250D01*
G75*
G02*
X40358750Y-135021500I243750J0D01*
G01*
G37*
%TD*%
%TO.C,R50*%
G36*
G01*
X55599250Y-132647500D02*
X54636750Y-132647500D01*
G75*
G02*
X54368000Y-132378750I0J268750D01*
G01*
X54368000Y-131841250D01*
G75*
G02*
X54636750Y-131572500I268750J0D01*
G01*
X55599250Y-131572500D01*
G75*
G02*
X55868000Y-131841250I0J-268750D01*
G01*
X55868000Y-132378750D01*
G75*
G02*
X55599250Y-132647500I-268750J0D01*
G01*
G37*
G36*
G01*
X55599250Y-134522500D02*
X54636750Y-134522500D01*
G75*
G02*
X54368000Y-134253750I0J268750D01*
G01*
X54368000Y-133716250D01*
G75*
G02*
X54636750Y-133447500I268750J0D01*
G01*
X55599250Y-133447500D01*
G75*
G02*
X55868000Y-133716250I0J-268750D01*
G01*
X55868000Y-134253750D01*
G75*
G02*
X55599250Y-134522500I-268750J0D01*
G01*
G37*
%TD*%
%TO.C,R51*%
G36*
G01*
X42517750Y-138247500D02*
X43080250Y-138247500D01*
G75*
G02*
X43324000Y-138491250I0J-243750D01*
G01*
X43324000Y-138978750D01*
G75*
G02*
X43080250Y-139222500I-243750J0D01*
G01*
X42517750Y-139222500D01*
G75*
G02*
X42274000Y-138978750I0J243750D01*
G01*
X42274000Y-138491250D01*
G75*
G02*
X42517750Y-138247500I243750J0D01*
G01*
G37*
G36*
G01*
X42517750Y-136672500D02*
X43080250Y-136672500D01*
G75*
G02*
X43324000Y-136916250I0J-243750D01*
G01*
X43324000Y-137403750D01*
G75*
G02*
X43080250Y-137647500I-243750J0D01*
G01*
X42517750Y-137647500D01*
G75*
G02*
X42274000Y-137403750I0J243750D01*
G01*
X42274000Y-136916250D01*
G75*
G02*
X42517750Y-136672500I243750J0D01*
G01*
G37*
%TD*%
%TO.C,R52*%
G36*
G01*
X44836000Y-134846750D02*
X44836000Y-135409250D01*
G75*
G02*
X44592250Y-135653000I-243750J0D01*
G01*
X44104750Y-135653000D01*
G75*
G02*
X43861000Y-135409250I0J243750D01*
G01*
X43861000Y-134846750D01*
G75*
G02*
X44104750Y-134603000I243750J0D01*
G01*
X44592250Y-134603000D01*
G75*
G02*
X44836000Y-134846750I0J-243750D01*
G01*
G37*
G36*
G01*
X43261000Y-134846750D02*
X43261000Y-135409250D01*
G75*
G02*
X43017250Y-135653000I-243750J0D01*
G01*
X42529750Y-135653000D01*
G75*
G02*
X42286000Y-135409250I0J243750D01*
G01*
X42286000Y-134846750D01*
G75*
G02*
X42529750Y-134603000I243750J0D01*
G01*
X43017250Y-134603000D01*
G75*
G02*
X43261000Y-134846750I0J-243750D01*
G01*
G37*
%TD*%
%TO.C,R53*%
G36*
G01*
X62972000Y-137380000D02*
X64282000Y-137380000D01*
G75*
G02*
X64552000Y-137650000I0J-270000D01*
G01*
X64552000Y-138460000D01*
G75*
G02*
X64282000Y-138730000I-270000J0D01*
G01*
X62972000Y-138730000D01*
G75*
G02*
X62702000Y-138460000I0J270000D01*
G01*
X62702000Y-137650000D01*
G75*
G02*
X62972000Y-137380000I270000J0D01*
G01*
G37*
G36*
G01*
X62972000Y-134580000D02*
X64282000Y-134580000D01*
G75*
G02*
X64552000Y-134850000I0J-270000D01*
G01*
X64552000Y-135660000D01*
G75*
G02*
X64282000Y-135930000I-270000J0D01*
G01*
X62972000Y-135930000D01*
G75*
G02*
X62702000Y-135660000I0J270000D01*
G01*
X62702000Y-134850000D01*
G75*
G02*
X62972000Y-134580000I270000J0D01*
G01*
G37*
%TD*%
%TO.C,R54*%
G36*
G01*
X58898500Y-134339250D02*
X58898500Y-133376750D01*
G75*
G02*
X59167250Y-133108000I268750J0D01*
G01*
X59704750Y-133108000D01*
G75*
G02*
X59973500Y-133376750I0J-268750D01*
G01*
X59973500Y-134339250D01*
G75*
G02*
X59704750Y-134608000I-268750J0D01*
G01*
X59167250Y-134608000D01*
G75*
G02*
X58898500Y-134339250I0J268750D01*
G01*
G37*
G36*
G01*
X57023500Y-134339250D02*
X57023500Y-133376750D01*
G75*
G02*
X57292250Y-133108000I268750J0D01*
G01*
X57829750Y-133108000D01*
G75*
G02*
X58098500Y-133376750I0J-268750D01*
G01*
X58098500Y-134339250D01*
G75*
G02*
X57829750Y-134608000I-268750J0D01*
G01*
X57292250Y-134608000D01*
G75*
G02*
X57023500Y-134339250I0J268750D01*
G01*
G37*
%TD*%
%TO.C,R55*%
G36*
G01*
X40358750Y-145435500D02*
X40921250Y-145435500D01*
G75*
G02*
X41165000Y-145679250I0J-243750D01*
G01*
X41165000Y-146166750D01*
G75*
G02*
X40921250Y-146410500I-243750J0D01*
G01*
X40358750Y-146410500D01*
G75*
G02*
X40115000Y-146166750I0J243750D01*
G01*
X40115000Y-145679250D01*
G75*
G02*
X40358750Y-145435500I243750J0D01*
G01*
G37*
G36*
G01*
X40358750Y-147010500D02*
X40921250Y-147010500D01*
G75*
G02*
X41165000Y-147254250I0J-243750D01*
G01*
X41165000Y-147741750D01*
G75*
G02*
X40921250Y-147985500I-243750J0D01*
G01*
X40358750Y-147985500D01*
G75*
G02*
X40115000Y-147741750I0J243750D01*
G01*
X40115000Y-147254250D01*
G75*
G02*
X40358750Y-147010500I243750J0D01*
G01*
G37*
%TD*%
%TO.C,R56*%
G36*
G01*
X55599250Y-143031500D02*
X54636750Y-143031500D01*
G75*
G02*
X54368000Y-142762750I0J268750D01*
G01*
X54368000Y-142225250D01*
G75*
G02*
X54636750Y-141956500I268750J0D01*
G01*
X55599250Y-141956500D01*
G75*
G02*
X55868000Y-142225250I0J-268750D01*
G01*
X55868000Y-142762750D01*
G75*
G02*
X55599250Y-143031500I-268750J0D01*
G01*
G37*
G36*
G01*
X55599250Y-144906500D02*
X54636750Y-144906500D01*
G75*
G02*
X54368000Y-144637750I0J268750D01*
G01*
X54368000Y-144100250D01*
G75*
G02*
X54636750Y-143831500I268750J0D01*
G01*
X55599250Y-143831500D01*
G75*
G02*
X55868000Y-144100250I0J-268750D01*
G01*
X55868000Y-144637750D01*
G75*
G02*
X55599250Y-144906500I-268750J0D01*
G01*
G37*
%TD*%
%TO.C,R57*%
G36*
G01*
X42517750Y-148661500D02*
X43080250Y-148661500D01*
G75*
G02*
X43324000Y-148905250I0J-243750D01*
G01*
X43324000Y-149392750D01*
G75*
G02*
X43080250Y-149636500I-243750J0D01*
G01*
X42517750Y-149636500D01*
G75*
G02*
X42274000Y-149392750I0J243750D01*
G01*
X42274000Y-148905250D01*
G75*
G02*
X42517750Y-148661500I243750J0D01*
G01*
G37*
G36*
G01*
X42517750Y-147086500D02*
X43080250Y-147086500D01*
G75*
G02*
X43324000Y-147330250I0J-243750D01*
G01*
X43324000Y-147817750D01*
G75*
G02*
X43080250Y-148061500I-243750J0D01*
G01*
X42517750Y-148061500D01*
G75*
G02*
X42274000Y-147817750I0J243750D01*
G01*
X42274000Y-147330250D01*
G75*
G02*
X42517750Y-147086500I243750J0D01*
G01*
G37*
%TD*%
%TO.C,R58*%
G36*
G01*
X44810500Y-145260750D02*
X44810500Y-145823250D01*
G75*
G02*
X44566750Y-146067000I-243750J0D01*
G01*
X44079250Y-146067000D01*
G75*
G02*
X43835500Y-145823250I0J243750D01*
G01*
X43835500Y-145260750D01*
G75*
G02*
X44079250Y-145017000I243750J0D01*
G01*
X44566750Y-145017000D01*
G75*
G02*
X44810500Y-145260750I0J-243750D01*
G01*
G37*
G36*
G01*
X43235500Y-145260750D02*
X43235500Y-145823250D01*
G75*
G02*
X42991750Y-146067000I-243750J0D01*
G01*
X42504250Y-146067000D01*
G75*
G02*
X42260500Y-145823250I0J243750D01*
G01*
X42260500Y-145260750D01*
G75*
G02*
X42504250Y-145017000I243750J0D01*
G01*
X42991750Y-145017000D01*
G75*
G02*
X43235500Y-145260750I0J-243750D01*
G01*
G37*
%TD*%
%TO.C,R59*%
G36*
G01*
X62972000Y-144994000D02*
X64282000Y-144994000D01*
G75*
G02*
X64552000Y-145264000I0J-270000D01*
G01*
X64552000Y-146074000D01*
G75*
G02*
X64282000Y-146344000I-270000J0D01*
G01*
X62972000Y-146344000D01*
G75*
G02*
X62702000Y-146074000I0J270000D01*
G01*
X62702000Y-145264000D01*
G75*
G02*
X62972000Y-144994000I270000J0D01*
G01*
G37*
G36*
G01*
X62972000Y-147794000D02*
X64282000Y-147794000D01*
G75*
G02*
X64552000Y-148064000I0J-270000D01*
G01*
X64552000Y-148874000D01*
G75*
G02*
X64282000Y-149144000I-270000J0D01*
G01*
X62972000Y-149144000D01*
G75*
G02*
X62702000Y-148874000I0J270000D01*
G01*
X62702000Y-148064000D01*
G75*
G02*
X62972000Y-147794000I270000J0D01*
G01*
G37*
%TD*%
%TO.C,R60*%
G36*
G01*
X56993500Y-144753250D02*
X56993500Y-143790750D01*
G75*
G02*
X57262250Y-143522000I268750J0D01*
G01*
X57799750Y-143522000D01*
G75*
G02*
X58068500Y-143790750I0J-268750D01*
G01*
X58068500Y-144753250D01*
G75*
G02*
X57799750Y-145022000I-268750J0D01*
G01*
X57262250Y-145022000D01*
G75*
G02*
X56993500Y-144753250I0J268750D01*
G01*
G37*
G36*
G01*
X58868500Y-144753250D02*
X58868500Y-143790750D01*
G75*
G02*
X59137250Y-143522000I268750J0D01*
G01*
X59674750Y-143522000D01*
G75*
G02*
X59943500Y-143790750I0J-268750D01*
G01*
X59943500Y-144753250D01*
G75*
G02*
X59674750Y-145022000I-268750J0D01*
G01*
X59137250Y-145022000D01*
G75*
G02*
X58868500Y-144753250I0J268750D01*
G01*
G37*
%TD*%
%TO.C,R61*%
G36*
G01*
X40358750Y-155849500D02*
X40921250Y-155849500D01*
G75*
G02*
X41165000Y-156093250I0J-243750D01*
G01*
X41165000Y-156580750D01*
G75*
G02*
X40921250Y-156824500I-243750J0D01*
G01*
X40358750Y-156824500D01*
G75*
G02*
X40115000Y-156580750I0J243750D01*
G01*
X40115000Y-156093250D01*
G75*
G02*
X40358750Y-155849500I243750J0D01*
G01*
G37*
G36*
G01*
X40358750Y-157424500D02*
X40921250Y-157424500D01*
G75*
G02*
X41165000Y-157668250I0J-243750D01*
G01*
X41165000Y-158155750D01*
G75*
G02*
X40921250Y-158399500I-243750J0D01*
G01*
X40358750Y-158399500D01*
G75*
G02*
X40115000Y-158155750I0J243750D01*
G01*
X40115000Y-157668250D01*
G75*
G02*
X40358750Y-157424500I243750J0D01*
G01*
G37*
%TD*%
%TO.C,R62*%
G36*
G01*
X55599250Y-155350500D02*
X54636750Y-155350500D01*
G75*
G02*
X54368000Y-155081750I0J268750D01*
G01*
X54368000Y-154544250D01*
G75*
G02*
X54636750Y-154275500I268750J0D01*
G01*
X55599250Y-154275500D01*
G75*
G02*
X55868000Y-154544250I0J-268750D01*
G01*
X55868000Y-155081750D01*
G75*
G02*
X55599250Y-155350500I-268750J0D01*
G01*
G37*
G36*
G01*
X55599250Y-153475500D02*
X54636750Y-153475500D01*
G75*
G02*
X54368000Y-153206750I0J268750D01*
G01*
X54368000Y-152669250D01*
G75*
G02*
X54636750Y-152400500I268750J0D01*
G01*
X55599250Y-152400500D01*
G75*
G02*
X55868000Y-152669250I0J-268750D01*
G01*
X55868000Y-153206750D01*
G75*
G02*
X55599250Y-153475500I-268750J0D01*
G01*
G37*
%TD*%
%TO.C,R63*%
G36*
G01*
X95414000Y-143346482D02*
X95414000Y-141133518D01*
G75*
G02*
X95682518Y-140865000I268518J0D01*
G01*
X96595482Y-140865000D01*
G75*
G02*
X96864000Y-141133518I0J-268518D01*
G01*
X96864000Y-143346482D01*
G75*
G02*
X96595482Y-143615000I-268518J0D01*
G01*
X95682518Y-143615000D01*
G75*
G02*
X95414000Y-143346482I0J268518D01*
G01*
G37*
G36*
G01*
X99914000Y-143346482D02*
X99914000Y-141133518D01*
G75*
G02*
X100182518Y-140865000I268518J0D01*
G01*
X101095482Y-140865000D01*
G75*
G02*
X101364000Y-141133518I0J-268518D01*
G01*
X101364000Y-143346482D01*
G75*
G02*
X101095482Y-143615000I-268518J0D01*
G01*
X100182518Y-143615000D01*
G75*
G02*
X99914000Y-143346482I0J268518D01*
G01*
G37*
%TD*%
%TO.C,R64*%
G36*
G01*
X42517750Y-157449500D02*
X43080250Y-157449500D01*
G75*
G02*
X43324000Y-157693250I0J-243750D01*
G01*
X43324000Y-158180750D01*
G75*
G02*
X43080250Y-158424500I-243750J0D01*
G01*
X42517750Y-158424500D01*
G75*
G02*
X42274000Y-158180750I0J243750D01*
G01*
X42274000Y-157693250D01*
G75*
G02*
X42517750Y-157449500I243750J0D01*
G01*
G37*
G36*
G01*
X42517750Y-159024500D02*
X43080250Y-159024500D01*
G75*
G02*
X43324000Y-159268250I0J-243750D01*
G01*
X43324000Y-159755750D01*
G75*
G02*
X43080250Y-159999500I-243750J0D01*
G01*
X42517750Y-159999500D01*
G75*
G02*
X42274000Y-159755750I0J243750D01*
G01*
X42274000Y-159268250D01*
G75*
G02*
X42517750Y-159024500I243750J0D01*
G01*
G37*
%TD*%
%TO.C,R65*%
G36*
G01*
X43235500Y-155674750D02*
X43235500Y-156237250D01*
G75*
G02*
X42991750Y-156481000I-243750J0D01*
G01*
X42504250Y-156481000D01*
G75*
G02*
X42260500Y-156237250I0J243750D01*
G01*
X42260500Y-155674750D01*
G75*
G02*
X42504250Y-155431000I243750J0D01*
G01*
X42991750Y-155431000D01*
G75*
G02*
X43235500Y-155674750I0J-243750D01*
G01*
G37*
G36*
G01*
X44810500Y-155674750D02*
X44810500Y-156237250D01*
G75*
G02*
X44566750Y-156481000I-243750J0D01*
G01*
X44079250Y-156481000D01*
G75*
G02*
X43835500Y-156237250I0J243750D01*
G01*
X43835500Y-155674750D01*
G75*
G02*
X44079250Y-155431000I243750J0D01*
G01*
X44566750Y-155431000D01*
G75*
G02*
X44810500Y-155674750I0J-243750D01*
G01*
G37*
%TD*%
%TO.C,R66*%
G36*
G01*
X62972000Y-155402000D02*
X64282000Y-155402000D01*
G75*
G02*
X64552000Y-155672000I0J-270000D01*
G01*
X64552000Y-156482000D01*
G75*
G02*
X64282000Y-156752000I-270000J0D01*
G01*
X62972000Y-156752000D01*
G75*
G02*
X62702000Y-156482000I0J270000D01*
G01*
X62702000Y-155672000D01*
G75*
G02*
X62972000Y-155402000I270000J0D01*
G01*
G37*
G36*
G01*
X62972000Y-158202000D02*
X64282000Y-158202000D01*
G75*
G02*
X64552000Y-158472000I0J-270000D01*
G01*
X64552000Y-159282000D01*
G75*
G02*
X64282000Y-159552000I-270000J0D01*
G01*
X62972000Y-159552000D01*
G75*
G02*
X62702000Y-159282000I0J270000D01*
G01*
X62702000Y-158472000D01*
G75*
G02*
X62972000Y-158202000I270000J0D01*
G01*
G37*
%TD*%
%TO.C,R67*%
G36*
G01*
X58868500Y-155167250D02*
X58868500Y-154204750D01*
G75*
G02*
X59137250Y-153936000I268750J0D01*
G01*
X59674750Y-153936000D01*
G75*
G02*
X59943500Y-154204750I0J-268750D01*
G01*
X59943500Y-155167250D01*
G75*
G02*
X59674750Y-155436000I-268750J0D01*
G01*
X59137250Y-155436000D01*
G75*
G02*
X58868500Y-155167250I0J268750D01*
G01*
G37*
G36*
G01*
X56993500Y-155167250D02*
X56993500Y-154204750D01*
G75*
G02*
X57262250Y-153936000I268750J0D01*
G01*
X57799750Y-153936000D01*
G75*
G02*
X58068500Y-154204750I0J-268750D01*
G01*
X58068500Y-155167250D01*
G75*
G02*
X57799750Y-155436000I-268750J0D01*
G01*
X57262250Y-155436000D01*
G75*
G02*
X56993500Y-155167250I0J268750D01*
G01*
G37*
%TD*%
%TO.C,R68*%
G36*
G01*
X94213500Y-149959750D02*
X94213500Y-150522250D01*
G75*
G02*
X93969750Y-150766000I-243750J0D01*
G01*
X93482250Y-150766000D01*
G75*
G02*
X93238500Y-150522250I0J243750D01*
G01*
X93238500Y-149959750D01*
G75*
G02*
X93482250Y-149716000I243750J0D01*
G01*
X93969750Y-149716000D01*
G75*
G02*
X94213500Y-149959750I0J-243750D01*
G01*
G37*
G36*
G01*
X95788500Y-149959750D02*
X95788500Y-150522250D01*
G75*
G02*
X95544750Y-150766000I-243750J0D01*
G01*
X95057250Y-150766000D01*
G75*
G02*
X94813500Y-150522250I0J243750D01*
G01*
X94813500Y-149959750D01*
G75*
G02*
X95057250Y-149716000I243750J0D01*
G01*
X95544750Y-149716000D01*
G75*
G02*
X95788500Y-149959750I0J-243750D01*
G01*
G37*
%TD*%
%TO.C,R69*%
G36*
G01*
X40358750Y-167838500D02*
X40921250Y-167838500D01*
G75*
G02*
X41165000Y-168082250I0J-243750D01*
G01*
X41165000Y-168569750D01*
G75*
G02*
X40921250Y-168813500I-243750J0D01*
G01*
X40358750Y-168813500D01*
G75*
G02*
X40115000Y-168569750I0J243750D01*
G01*
X40115000Y-168082250D01*
G75*
G02*
X40358750Y-167838500I243750J0D01*
G01*
G37*
G36*
G01*
X40358750Y-166263500D02*
X40921250Y-166263500D01*
G75*
G02*
X41165000Y-166507250I0J-243750D01*
G01*
X41165000Y-166994750D01*
G75*
G02*
X40921250Y-167238500I-243750J0D01*
G01*
X40358750Y-167238500D01*
G75*
G02*
X40115000Y-166994750I0J243750D01*
G01*
X40115000Y-166507250D01*
G75*
G02*
X40358750Y-166263500I243750J0D01*
G01*
G37*
%TD*%
%TO.C,R70*%
G36*
G01*
X55599250Y-165764500D02*
X54636750Y-165764500D01*
G75*
G02*
X54368000Y-165495750I0J268750D01*
G01*
X54368000Y-164958250D01*
G75*
G02*
X54636750Y-164689500I268750J0D01*
G01*
X55599250Y-164689500D01*
G75*
G02*
X55868000Y-164958250I0J-268750D01*
G01*
X55868000Y-165495750D01*
G75*
G02*
X55599250Y-165764500I-268750J0D01*
G01*
G37*
G36*
G01*
X55599250Y-163889500D02*
X54636750Y-163889500D01*
G75*
G02*
X54368000Y-163620750I0J268750D01*
G01*
X54368000Y-163083250D01*
G75*
G02*
X54636750Y-162814500I268750J0D01*
G01*
X55599250Y-162814500D01*
G75*
G02*
X55868000Y-163083250I0J-268750D01*
G01*
X55868000Y-163620750D01*
G75*
G02*
X55599250Y-163889500I-268750J0D01*
G01*
G37*
%TD*%
%TO.C,R71*%
G36*
G01*
X94007250Y-153090500D02*
X93444750Y-153090500D01*
G75*
G02*
X93201000Y-152846750I0J243750D01*
G01*
X93201000Y-152359250D01*
G75*
G02*
X93444750Y-152115500I243750J0D01*
G01*
X94007250Y-152115500D01*
G75*
G02*
X94251000Y-152359250I0J-243750D01*
G01*
X94251000Y-152846750D01*
G75*
G02*
X94007250Y-153090500I-243750J0D01*
G01*
G37*
G36*
G01*
X94007250Y-154665500D02*
X93444750Y-154665500D01*
G75*
G02*
X93201000Y-154421750I0J243750D01*
G01*
X93201000Y-153934250D01*
G75*
G02*
X93444750Y-153690500I243750J0D01*
G01*
X94007250Y-153690500D01*
G75*
G02*
X94251000Y-153934250I0J-243750D01*
G01*
X94251000Y-154421750D01*
G75*
G02*
X94007250Y-154665500I-243750J0D01*
G01*
G37*
%TD*%
%TO.C,R72*%
G36*
G01*
X42517750Y-167914500D02*
X43080250Y-167914500D01*
G75*
G02*
X43324000Y-168158250I0J-243750D01*
G01*
X43324000Y-168645750D01*
G75*
G02*
X43080250Y-168889500I-243750J0D01*
G01*
X42517750Y-168889500D01*
G75*
G02*
X42274000Y-168645750I0J243750D01*
G01*
X42274000Y-168158250D01*
G75*
G02*
X42517750Y-167914500I243750J0D01*
G01*
G37*
G36*
G01*
X42517750Y-169489500D02*
X43080250Y-169489500D01*
G75*
G02*
X43324000Y-169733250I0J-243750D01*
G01*
X43324000Y-170220750D01*
G75*
G02*
X43080250Y-170464500I-243750J0D01*
G01*
X42517750Y-170464500D01*
G75*
G02*
X42274000Y-170220750I0J243750D01*
G01*
X42274000Y-169733250D01*
G75*
G02*
X42517750Y-169489500I243750J0D01*
G01*
G37*
%TD*%
%TO.C,R73*%
G36*
G01*
X43261000Y-166088750D02*
X43261000Y-166651250D01*
G75*
G02*
X43017250Y-166895000I-243750J0D01*
G01*
X42529750Y-166895000D01*
G75*
G02*
X42286000Y-166651250I0J243750D01*
G01*
X42286000Y-166088750D01*
G75*
G02*
X42529750Y-165845000I243750J0D01*
G01*
X43017250Y-165845000D01*
G75*
G02*
X43261000Y-166088750I0J-243750D01*
G01*
G37*
G36*
G01*
X44836000Y-166088750D02*
X44836000Y-166651250D01*
G75*
G02*
X44592250Y-166895000I-243750J0D01*
G01*
X44104750Y-166895000D01*
G75*
G02*
X43861000Y-166651250I0J243750D01*
G01*
X43861000Y-166088750D01*
G75*
G02*
X44104750Y-165845000I243750J0D01*
G01*
X44592250Y-165845000D01*
G75*
G02*
X44836000Y-166088750I0J-243750D01*
G01*
G37*
%TD*%
%TO.C,R74*%
G36*
G01*
X62972000Y-168622000D02*
X64282000Y-168622000D01*
G75*
G02*
X64552000Y-168892000I0J-270000D01*
G01*
X64552000Y-169702000D01*
G75*
G02*
X64282000Y-169972000I-270000J0D01*
G01*
X62972000Y-169972000D01*
G75*
G02*
X62702000Y-169702000I0J270000D01*
G01*
X62702000Y-168892000D01*
G75*
G02*
X62972000Y-168622000I270000J0D01*
G01*
G37*
G36*
G01*
X62972000Y-165822000D02*
X64282000Y-165822000D01*
G75*
G02*
X64552000Y-166092000I0J-270000D01*
G01*
X64552000Y-166902000D01*
G75*
G02*
X64282000Y-167172000I-270000J0D01*
G01*
X62972000Y-167172000D01*
G75*
G02*
X62702000Y-166902000I0J270000D01*
G01*
X62702000Y-166092000D01*
G75*
G02*
X62972000Y-165822000I270000J0D01*
G01*
G37*
%TD*%
%TO.C,R75*%
G36*
G01*
X56993500Y-165581250D02*
X56993500Y-164618750D01*
G75*
G02*
X57262250Y-164350000I268750J0D01*
G01*
X57799750Y-164350000D01*
G75*
G02*
X58068500Y-164618750I0J-268750D01*
G01*
X58068500Y-165581250D01*
G75*
G02*
X57799750Y-165850000I-268750J0D01*
G01*
X57262250Y-165850000D01*
G75*
G02*
X56993500Y-165581250I0J268750D01*
G01*
G37*
G36*
G01*
X58868500Y-165581250D02*
X58868500Y-164618750D01*
G75*
G02*
X59137250Y-164350000I268750J0D01*
G01*
X59674750Y-164350000D01*
G75*
G02*
X59943500Y-164618750I0J-268750D01*
G01*
X59943500Y-165581250D01*
G75*
G02*
X59674750Y-165850000I-268750J0D01*
G01*
X59137250Y-165850000D01*
G75*
G02*
X58868500Y-165581250I0J268750D01*
G01*
G37*
%TD*%
%TO.C,U1*%
G36*
G01*
X96068000Y-153083000D02*
X96068000Y-152733000D01*
G75*
G02*
X96243000Y-152558000I175000J0D01*
G01*
X97943000Y-152558000D01*
G75*
G02*
X98118000Y-152733000I0J-175000D01*
G01*
X98118000Y-153083000D01*
G75*
G02*
X97943000Y-153258000I-175000J0D01*
G01*
X96243000Y-153258000D01*
G75*
G02*
X96068000Y-153083000I0J175000D01*
G01*
G37*
G36*
G01*
X96068000Y-154353000D02*
X96068000Y-154003000D01*
G75*
G02*
X96243000Y-153828000I175000J0D01*
G01*
X97943000Y-153828000D01*
G75*
G02*
X98118000Y-154003000I0J-175000D01*
G01*
X98118000Y-154353000D01*
G75*
G02*
X97943000Y-154528000I-175000J0D01*
G01*
X96243000Y-154528000D01*
G75*
G02*
X96068000Y-154353000I0J175000D01*
G01*
G37*
G36*
G01*
X96068000Y-155623000D02*
X96068000Y-155273000D01*
G75*
G02*
X96243000Y-155098000I175000J0D01*
G01*
X97943000Y-155098000D01*
G75*
G02*
X98118000Y-155273000I0J-175000D01*
G01*
X98118000Y-155623000D01*
G75*
G02*
X97943000Y-155798000I-175000J0D01*
G01*
X96243000Y-155798000D01*
G75*
G02*
X96068000Y-155623000I0J175000D01*
G01*
G37*
G36*
G01*
X96068000Y-156893000D02*
X96068000Y-156543000D01*
G75*
G02*
X96243000Y-156368000I175000J0D01*
G01*
X97943000Y-156368000D01*
G75*
G02*
X98118000Y-156543000I0J-175000D01*
G01*
X98118000Y-156893000D01*
G75*
G02*
X97943000Y-157068000I-175000J0D01*
G01*
X96243000Y-157068000D01*
G75*
G02*
X96068000Y-156893000I0J175000D01*
G01*
G37*
G36*
G01*
X101018000Y-156893000D02*
X101018000Y-156543000D01*
G75*
G02*
X101193000Y-156368000I175000J0D01*
G01*
X102893000Y-156368000D01*
G75*
G02*
X103068000Y-156543000I0J-175000D01*
G01*
X103068000Y-156893000D01*
G75*
G02*
X102893000Y-157068000I-175000J0D01*
G01*
X101193000Y-157068000D01*
G75*
G02*
X101018000Y-156893000I0J175000D01*
G01*
G37*
G36*
G01*
X101018000Y-155623000D02*
X101018000Y-155273000D01*
G75*
G02*
X101193000Y-155098000I175000J0D01*
G01*
X102893000Y-155098000D01*
G75*
G02*
X103068000Y-155273000I0J-175000D01*
G01*
X103068000Y-155623000D01*
G75*
G02*
X102893000Y-155798000I-175000J0D01*
G01*
X101193000Y-155798000D01*
G75*
G02*
X101018000Y-155623000I0J175000D01*
G01*
G37*
G36*
G01*
X101018000Y-154353000D02*
X101018000Y-154003000D01*
G75*
G02*
X101193000Y-153828000I175000J0D01*
G01*
X102893000Y-153828000D01*
G75*
G02*
X103068000Y-154003000I0J-175000D01*
G01*
X103068000Y-154353000D01*
G75*
G02*
X102893000Y-154528000I-175000J0D01*
G01*
X101193000Y-154528000D01*
G75*
G02*
X101018000Y-154353000I0J175000D01*
G01*
G37*
G36*
G01*
X101018000Y-153083000D02*
X101018000Y-152733000D01*
G75*
G02*
X101193000Y-152558000I175000J0D01*
G01*
X102893000Y-152558000D01*
G75*
G02*
X103068000Y-152733000I0J-175000D01*
G01*
X103068000Y-153083000D01*
G75*
G02*
X102893000Y-153258000I-175000J0D01*
G01*
X101193000Y-153258000D01*
G75*
G02*
X101018000Y-153083000I0J175000D01*
G01*
G37*
%TD*%
%TO.C,C14*%
G36*
G01*
X105001750Y-100325000D02*
X105564250Y-100325000D01*
G75*
G02*
X105808000Y-100568750I0J-243750D01*
G01*
X105808000Y-101056250D01*
G75*
G02*
X105564250Y-101300000I-243750J0D01*
G01*
X105001750Y-101300000D01*
G75*
G02*
X104758000Y-101056250I0J243750D01*
G01*
X104758000Y-100568750D01*
G75*
G02*
X105001750Y-100325000I243750J0D01*
G01*
G37*
G36*
G01*
X105001750Y-101900000D02*
X105564250Y-101900000D01*
G75*
G02*
X105808000Y-102143750I0J-243750D01*
G01*
X105808000Y-102631250D01*
G75*
G02*
X105564250Y-102875000I-243750J0D01*
G01*
X105001750Y-102875000D01*
G75*
G02*
X104758000Y-102631250I0J243750D01*
G01*
X104758000Y-102143750D01*
G75*
G02*
X105001750Y-101900000I243750J0D01*
G01*
G37*
%TD*%
%TO.C,C15*%
G36*
G01*
X122201250Y-155148000D02*
X121638750Y-155148000D01*
G75*
G02*
X121395000Y-154904250I0J243750D01*
G01*
X121395000Y-154416750D01*
G75*
G02*
X121638750Y-154173000I243750J0D01*
G01*
X122201250Y-154173000D01*
G75*
G02*
X122445000Y-154416750I0J-243750D01*
G01*
X122445000Y-154904250D01*
G75*
G02*
X122201250Y-155148000I-243750J0D01*
G01*
G37*
G36*
G01*
X122201250Y-156723000D02*
X121638750Y-156723000D01*
G75*
G02*
X121395000Y-156479250I0J243750D01*
G01*
X121395000Y-155991750D01*
G75*
G02*
X121638750Y-155748000I243750J0D01*
G01*
X122201250Y-155748000D01*
G75*
G02*
X122445000Y-155991750I0J-243750D01*
G01*
X122445000Y-156479250D01*
G75*
G02*
X122201250Y-156723000I-243750J0D01*
G01*
G37*
%TD*%
%TO.C,C16*%
G36*
G01*
X119661250Y-156697500D02*
X119098750Y-156697500D01*
G75*
G02*
X118855000Y-156453750I0J243750D01*
G01*
X118855000Y-155966250D01*
G75*
G02*
X119098750Y-155722500I243750J0D01*
G01*
X119661250Y-155722500D01*
G75*
G02*
X119905000Y-155966250I0J-243750D01*
G01*
X119905000Y-156453750D01*
G75*
G02*
X119661250Y-156697500I-243750J0D01*
G01*
G37*
G36*
G01*
X119661250Y-155122500D02*
X119098750Y-155122500D01*
G75*
G02*
X118855000Y-154878750I0J243750D01*
G01*
X118855000Y-154391250D01*
G75*
G02*
X119098750Y-154147500I243750J0D01*
G01*
X119661250Y-154147500D01*
G75*
G02*
X119905000Y-154391250I0J-243750D01*
G01*
X119905000Y-154878750D01*
G75*
G02*
X119661250Y-155122500I-243750J0D01*
G01*
G37*
%TD*%
M02*
