%TF.GenerationSoftware,KiCad,Pcbnew,5.1.6-c6e7f7d~87~ubuntu18.04.1*%
%TF.CreationDate,2021-02-12T17:03:38+13:00*%
%TF.ProjectId,Volume Control Ultimate 2 Feb9,566f6c75-6d65-4204-936f-6e74726f6c20,rev?*%
%TF.SameCoordinates,Original*%
%TF.FileFunction,Copper,L2,Bot*%
%TF.FilePolarity,Positive*%
%FSLAX46Y46*%
G04 Gerber Fmt 4.6, Leading zero omitted, Abs format (unit mm)*
G04 Created by KiCad (PCBNEW 5.1.6-c6e7f7d~87~ubuntu18.04.1) date 2021-02-12 17:03:38*
%MOMM*%
%LPD*%
G01*
G04 APERTURE LIST*
%TA.AperFunction,ComponentPad*%
%ADD10R,1.600000X1.600000*%
%TD*%
%TA.AperFunction,ComponentPad*%
%ADD11O,1.600000X1.600000*%
%TD*%
%TA.AperFunction,ComponentPad*%
%ADD12C,2.600000*%
%TD*%
%TA.AperFunction,ViaPad*%
%ADD13C,1.200000*%
%TD*%
%TA.AperFunction,Conductor*%
%ADD14C,1.000000*%
%TD*%
%TA.AperFunction,Conductor*%
%ADD15C,0.600000*%
%TD*%
G04 APERTURE END LIST*
D10*
%TO.P,A1,1*%
%TO.N,Net-(A1-Pad1)*%
X85090000Y-50419000D03*
D11*
%TO.P,A1,17*%
%TO.N,Net-(A1-Pad17)*%
X100330000Y-83439000D03*
%TO.P,A1,2*%
%TO.N,Net-(A1-Pad2)*%
X85090000Y-52959000D03*
%TO.P,A1,18*%
%TO.N,Net-(A1-Pad18)*%
X100330000Y-80899000D03*
%TO.P,A1,3*%
%TO.N,Net-(A1-Pad3)*%
X85090000Y-55499000D03*
%TO.P,A1,19*%
%TO.N,Net-(A1-Pad19)*%
X100330000Y-78359000D03*
%TO.P,A1,4*%
%TO.N,Net-(A1-Pad29)*%
X85090000Y-58039000D03*
%TO.P,A1,20*%
%TO.N,Net-(A1-Pad20)*%
X100330000Y-75819000D03*
%TO.P,A1,5*%
%TO.N,Net-(A1-Pad5)*%
X85090000Y-60579000D03*
%TO.P,A1,21*%
%TO.N,Net-(A1-Pad21)*%
X100330000Y-73279000D03*
%TO.P,A1,6*%
%TO.N,Net-(A1-Pad6)*%
X85090000Y-63119000D03*
%TO.P,A1,22*%
%TO.N,Net-(A1-Pad22)*%
X100330000Y-70739000D03*
%TO.P,A1,7*%
%TO.N,Net-(A1-Pad7)*%
X85090000Y-65659000D03*
%TO.P,A1,23*%
%TO.N,Net-(A1-Pad23)*%
X100330000Y-68199000D03*
%TO.P,A1,8*%
%TO.N,Net-(A1-Pad8)*%
X85090000Y-68199000D03*
%TO.P,A1,24*%
%TO.N,Net-(A1-Pad24)*%
X100330000Y-65659000D03*
%TO.P,A1,9*%
%TO.N,Net-(A1-Pad9)*%
X85090000Y-70739000D03*
%TO.P,A1,25*%
%TO.N,Net-(A1-Pad25)*%
X100330000Y-63119000D03*
%TO.P,A1,10*%
%TO.N,Net-(A1-Pad10)*%
X85090000Y-73279000D03*
%TO.P,A1,26*%
%TO.N,Net-(A1-Pad26)*%
X100330000Y-60579000D03*
%TO.P,A1,11*%
%TO.N,Net-(A1-Pad11)*%
X85090000Y-75819000D03*
%TO.P,A1,27*%
%TO.N,Net-(A1-Pad27)*%
X100330000Y-58039000D03*
%TO.P,A1,12*%
%TO.N,Net-(A1-Pad12)*%
X85090000Y-78359000D03*
%TO.P,A1,28*%
%TO.N,Net-(A1-Pad28)*%
X100330000Y-55499000D03*
%TO.P,A1,13*%
%TO.N,Net-(A1-Pad13)*%
X85090000Y-80899000D03*
%TO.P,A1,29*%
%TO.N,Net-(A1-Pad29)*%
X100330000Y-52959000D03*
%TO.P,A1,14*%
%TO.N,Net-(A1-Pad14)*%
X85090000Y-83439000D03*
%TO.P,A1,30*%
%TO.N,Net-(A1-Pad30)*%
X100330000Y-50419000D03*
%TO.P,A1,15*%
%TO.N,Net-(A1-Pad15)*%
X85090000Y-85979000D03*
%TO.P,A1,16*%
%TO.N,Net-(A1-Pad16)*%
X100330000Y-85979000D03*
%TD*%
D12*
%TO.P,J1,1*%
%TO.N,Net-(A1-Pad19)*%
X111125000Y-86106000D03*
%TD*%
%TO.P,J2,1*%
%TO.N,Net-(A1-Pad20)*%
X110998000Y-81026000D03*
%TD*%
%TO.P,J3,1*%
%TO.N,Net-(A1-Pad21)*%
X110998000Y-76200000D03*
%TD*%
%TO.P,J4,1*%
%TO.N,Net-(A1-Pad22)*%
X110998000Y-71501000D03*
%TD*%
%TO.P,J5,1*%
%TO.N,Net-(A1-Pad23)*%
X110998000Y-66802000D03*
%TD*%
%TO.P,J6,1*%
%TO.N,Net-(A1-Pad24)*%
X110998000Y-62103000D03*
%TD*%
%TO.P,J7,1*%
%TO.N,Net-(A1-Pad25)*%
X110871000Y-57404000D03*
%TD*%
%TO.P,J8,1*%
%TO.N,Net-(A1-Pad26)*%
X110871000Y-52578000D03*
%TD*%
%TO.P,J9,1*%
%TO.N,Net-(A1-Pad29)*%
X109982000Y-105918000D03*
%TD*%
%TO.P,J10,1*%
%TO.N,Net-(A1-Pad27)*%
X109855000Y-97663000D03*
%TD*%
%TO.P,J11,1*%
%TO.N,Net-(A1-Pad29)*%
X113030000Y-154940000D03*
%TD*%
%TO.P,J12,1*%
%TO.N,Net-(C15-Pad2)*%
X119888000Y-146431000D03*
%TD*%
%TO.P,J13,1*%
%TO.N,Net-(C15-Pad1)*%
X119888000Y-164465000D03*
%TD*%
%TO.P,J14,1*%
%TO.N,Net-(A1-Pad29)*%
X109093000Y-162179000D03*
%TD*%
%TO.P,J15,1*%
%TO.N,Net-(J15-Pad1)*%
X101981000Y-162306000D03*
%TD*%
%TO.P,J16,1*%
%TO.N,Net-(A1-Pad29)*%
X109601000Y-146812000D03*
%TD*%
%TO.P,J17,1*%
%TO.N,Net-(C11-Pad2)*%
X109474000Y-140589000D03*
%TD*%
D13*
%TO.N,Net-(A1-Pad29)*%
X52825400Y-46348400D03*
%TO.N,Net-(C15-Pad1)*%
X57658000Y-57277000D03*
%TO.N,Net-(A1-Pad29)*%
X62611000Y-57404000D03*
%TO.N,Net-(C15-Pad2)*%
X60071000Y-57277000D03*
%TO.N,Net-(A1-Pad29)*%
X52825400Y-56762400D03*
%TO.N,Net-(Q14-Pad3)*%
X55118000Y-57023000D03*
%TO.N,Net-(C15-Pad1)*%
X57658000Y-67691000D03*
%TO.N,Net-(A1-Pad29)*%
X62611000Y-67818000D03*
%TO.N,Net-(C15-Pad2)*%
X60071000Y-67691000D03*
%TO.N,Net-(A1-Pad29)*%
X52825400Y-67176400D03*
%TO.N,Net-(Q14-Pad3)*%
X55118000Y-67437000D03*
%TO.N,Net-(C15-Pad1)*%
X57658000Y-78105000D03*
%TO.N,Net-(A1-Pad29)*%
X62611000Y-78232000D03*
%TO.N,Net-(C15-Pad2)*%
X60071000Y-78105000D03*
%TO.N,Net-(A1-Pad29)*%
X52825400Y-77590400D03*
%TO.N,Net-(Q14-Pad3)*%
X55118000Y-77851000D03*
%TO.N,Net-(C15-Pad1)*%
X57658000Y-88519000D03*
%TO.N,Net-(A1-Pad29)*%
X62611000Y-88646000D03*
%TO.N,Net-(C15-Pad2)*%
X60071000Y-88519000D03*
%TO.N,Net-(A1-Pad29)*%
X52825400Y-88004400D03*
%TO.N,Net-(Q14-Pad3)*%
X55118000Y-88265000D03*
%TO.N,Net-(C15-Pad1)*%
X57658000Y-98933000D03*
%TO.N,Net-(A1-Pad29)*%
X62611000Y-99060000D03*
%TO.N,Net-(C15-Pad2)*%
X60071000Y-98933000D03*
%TO.N,Net-(A1-Pad29)*%
X52825400Y-98418400D03*
%TO.N,Net-(Q14-Pad3)*%
X55118000Y-98679000D03*
%TO.N,Net-(C15-Pad1)*%
X57658000Y-109347000D03*
%TO.N,Net-(A1-Pad29)*%
X62611000Y-109474000D03*
%TO.N,Net-(C15-Pad2)*%
X60071000Y-109347000D03*
%TO.N,Net-(A1-Pad29)*%
X52825400Y-108832400D03*
%TO.N,Net-(Q14-Pad3)*%
X55118000Y-109093000D03*
%TO.N,Net-(C15-Pad1)*%
X57658000Y-119761000D03*
%TO.N,Net-(A1-Pad29)*%
X62611000Y-119888000D03*
%TO.N,Net-(C15-Pad2)*%
X60071000Y-119761000D03*
%TO.N,Net-(A1-Pad29)*%
X52825400Y-119246400D03*
%TO.N,Net-(Q14-Pad3)*%
X55118000Y-119507000D03*
%TO.N,Net-(C15-Pad1)*%
X57658000Y-130175000D03*
%TO.N,Net-(A1-Pad29)*%
X62611000Y-130302000D03*
%TO.N,Net-(C15-Pad2)*%
X60071000Y-130175000D03*
%TO.N,Net-(A1-Pad29)*%
X52825400Y-129660400D03*
%TO.N,Net-(Q14-Pad3)*%
X55118000Y-129921000D03*
%TO.N,Net-(C15-Pad1)*%
X57658000Y-140589000D03*
%TO.N,Net-(A1-Pad29)*%
X62611000Y-140716000D03*
%TO.N,Net-(C15-Pad2)*%
X60071000Y-140589000D03*
%TO.N,Net-(A1-Pad29)*%
X52825400Y-140074400D03*
%TO.N,Net-(Q14-Pad3)*%
X55118000Y-140335000D03*
%TO.N,Net-(C15-Pad1)*%
X57658000Y-151003000D03*
%TO.N,Net-(A1-Pad29)*%
X62611000Y-151130000D03*
%TO.N,Net-(C15-Pad2)*%
X60071000Y-151003000D03*
%TO.N,Net-(A1-Pad29)*%
X52825400Y-150488400D03*
%TO.N,Net-(Q14-Pad3)*%
X55118000Y-150749000D03*
%TO.N,Net-(C15-Pad1)*%
X57658000Y-161417000D03*
%TO.N,Net-(A1-Pad29)*%
X62611000Y-161544000D03*
%TO.N,Net-(C15-Pad2)*%
X60071000Y-161417000D03*
%TO.N,Net-(A1-Pad29)*%
X52825400Y-160902400D03*
%TO.N,Net-(Q14-Pad3)*%
X55118000Y-161163000D03*
%TO.N,Net-(A1-Pad29)*%
X62611000Y-46990000D03*
X52832000Y-171450000D03*
X62611000Y-171450000D03*
X101346000Y-149098000D03*
X88265000Y-164719000D03*
%TO.N,Net-(Q14-Pad3)*%
X55118000Y-46609000D03*
X55118000Y-171450000D03*
%TO.N,Net-(R1-Pad1)*%
X95377000Y-175387000D03*
X40513000Y-49530000D03*
%TO.N,Net-(C15-Pad2)*%
X60071000Y-46863000D03*
X60071000Y-171450000D03*
X119380000Y-152654000D03*
%TO.N,Net-(C15-Pad1)*%
X57658000Y-46863000D03*
X57658000Y-171450000D03*
X119380000Y-158369000D03*
X94742000Y-170053000D03*
%TD*%
D14*
%TO.N,Net-(A1-Pad29)*%
X52832000Y-55131200D02*
X52832000Y-57150000D01*
X52832000Y-55131200D02*
X52825400Y-55124600D01*
X52825400Y-47872400D02*
X52825400Y-55124600D01*
X52825400Y-47872400D02*
X52825400Y-46348400D01*
X52832000Y-57150000D02*
X52832000Y-58674000D01*
X52832000Y-65545200D02*
X52825400Y-65538600D01*
X52832000Y-67564000D02*
X52832000Y-69088000D01*
X52825400Y-58286400D02*
X52825400Y-56762400D01*
%TO.N,Net-(C15-Pad1)*%
X57658000Y-57277000D02*
X57658000Y-69596000D01*
%TO.N,Net-(C15-Pad2)*%
X60071000Y-57277000D02*
X60071000Y-69596000D01*
%TO.N,Net-(Q14-Pad3)*%
X55118000Y-57023000D02*
X55118000Y-69596000D01*
%TO.N,Net-(A1-Pad29)*%
X52832000Y-65545200D02*
X52832000Y-67564000D01*
X52825400Y-68700400D02*
X52825400Y-67176400D01*
X52825400Y-58286400D02*
X52825400Y-65538600D01*
X62611000Y-57404000D02*
X62611000Y-69596000D01*
X52832000Y-75959200D02*
X52825400Y-75952600D01*
X52832000Y-77978000D02*
X52832000Y-79502000D01*
X52825400Y-68700400D02*
X52825400Y-67176400D01*
%TO.N,Net-(C15-Pad1)*%
X57658000Y-67691000D02*
X57658000Y-80010000D01*
%TO.N,Net-(C15-Pad2)*%
X60071000Y-67691000D02*
X60071000Y-80010000D01*
%TO.N,Net-(Q14-Pad3)*%
X55118000Y-67437000D02*
X55118000Y-80010000D01*
%TO.N,Net-(A1-Pad29)*%
X52832000Y-75959200D02*
X52832000Y-77978000D01*
X52825400Y-79114400D02*
X52825400Y-77590400D01*
X52825400Y-68700400D02*
X52825400Y-75952600D01*
X62611000Y-67818000D02*
X62611000Y-80010000D01*
X52832000Y-86373200D02*
X52825400Y-86366600D01*
X52832000Y-88392000D02*
X52832000Y-89916000D01*
X52825400Y-79114400D02*
X52825400Y-77590400D01*
%TO.N,Net-(C15-Pad1)*%
X57658000Y-78105000D02*
X57658000Y-90424000D01*
%TO.N,Net-(C15-Pad2)*%
X60071000Y-78105000D02*
X60071000Y-90424000D01*
%TO.N,Net-(Q14-Pad3)*%
X55118000Y-77851000D02*
X55118000Y-90424000D01*
%TO.N,Net-(A1-Pad29)*%
X52832000Y-86373200D02*
X52832000Y-88392000D01*
X52825400Y-89528400D02*
X52825400Y-88004400D01*
X52825400Y-79114400D02*
X52825400Y-86366600D01*
X62611000Y-78232000D02*
X62611000Y-90424000D01*
X52832000Y-96787200D02*
X52825400Y-96780600D01*
X52832000Y-98806000D02*
X52832000Y-100330000D01*
X52825400Y-89528400D02*
X52825400Y-88004400D01*
%TO.N,Net-(C15-Pad1)*%
X57658000Y-88519000D02*
X57658000Y-100838000D01*
%TO.N,Net-(C15-Pad2)*%
X60071000Y-88519000D02*
X60071000Y-100838000D01*
%TO.N,Net-(Q14-Pad3)*%
X55118000Y-88265000D02*
X55118000Y-100838000D01*
%TO.N,Net-(A1-Pad29)*%
X52832000Y-96787200D02*
X52832000Y-98806000D01*
X52825400Y-99942400D02*
X52825400Y-98418400D01*
X52825400Y-89528400D02*
X52825400Y-96780600D01*
X62611000Y-88646000D02*
X62611000Y-100838000D01*
X52832000Y-107201200D02*
X52825400Y-107194600D01*
X52832000Y-109220000D02*
X52832000Y-110744000D01*
X52825400Y-99942400D02*
X52825400Y-98418400D01*
%TO.N,Net-(C15-Pad1)*%
X57658000Y-98933000D02*
X57658000Y-111252000D01*
%TO.N,Net-(C15-Pad2)*%
X60071000Y-98933000D02*
X60071000Y-111252000D01*
%TO.N,Net-(Q14-Pad3)*%
X55118000Y-98679000D02*
X55118000Y-111252000D01*
%TO.N,Net-(A1-Pad29)*%
X52832000Y-107201200D02*
X52832000Y-109220000D01*
X52825400Y-110356400D02*
X52825400Y-108832400D01*
X52825400Y-99942400D02*
X52825400Y-107194600D01*
X62611000Y-99060000D02*
X62611000Y-111252000D01*
X52832000Y-117615200D02*
X52825400Y-117608600D01*
X52832000Y-119634000D02*
X52832000Y-121158000D01*
X52825400Y-110356400D02*
X52825400Y-108832400D01*
%TO.N,Net-(C15-Pad1)*%
X57658000Y-109347000D02*
X57658000Y-121666000D01*
%TO.N,Net-(C15-Pad2)*%
X60071000Y-109347000D02*
X60071000Y-121666000D01*
%TO.N,Net-(Q14-Pad3)*%
X55118000Y-109093000D02*
X55118000Y-121666000D01*
%TO.N,Net-(A1-Pad29)*%
X52832000Y-117615200D02*
X52832000Y-119634000D01*
X52825400Y-120770400D02*
X52825400Y-119246400D01*
X52825400Y-110356400D02*
X52825400Y-117608600D01*
X62611000Y-109474000D02*
X62611000Y-121666000D01*
X52832000Y-128029200D02*
X52825400Y-128022600D01*
X52832000Y-130048000D02*
X52832000Y-131572000D01*
X52825400Y-120770400D02*
X52825400Y-119246400D01*
%TO.N,Net-(C15-Pad1)*%
X57658000Y-119761000D02*
X57658000Y-132080000D01*
%TO.N,Net-(C15-Pad2)*%
X60071000Y-119761000D02*
X60071000Y-132080000D01*
%TO.N,Net-(Q14-Pad3)*%
X55118000Y-119507000D02*
X55118000Y-132080000D01*
%TO.N,Net-(A1-Pad29)*%
X52832000Y-128029200D02*
X52832000Y-130048000D01*
X52825400Y-131184400D02*
X52825400Y-129660400D01*
X52825400Y-120770400D02*
X52825400Y-128022600D01*
X62611000Y-119888000D02*
X62611000Y-132080000D01*
X52832000Y-138443200D02*
X52825400Y-138436600D01*
X52832000Y-140462000D02*
X52832000Y-141986000D01*
X52825400Y-131184400D02*
X52825400Y-129660400D01*
%TO.N,Net-(C15-Pad1)*%
X57658000Y-130175000D02*
X57658000Y-142494000D01*
%TO.N,Net-(C15-Pad2)*%
X60071000Y-130175000D02*
X60071000Y-142494000D01*
%TO.N,Net-(Q14-Pad3)*%
X55118000Y-129921000D02*
X55118000Y-142494000D01*
%TO.N,Net-(A1-Pad29)*%
X52832000Y-138443200D02*
X52832000Y-140462000D01*
X52825400Y-141598400D02*
X52825400Y-140074400D01*
X52825400Y-131184400D02*
X52825400Y-138436600D01*
X62611000Y-130302000D02*
X62611000Y-142494000D01*
X52832000Y-148857200D02*
X52825400Y-148850600D01*
X52832000Y-150876000D02*
X52832000Y-152400000D01*
X52825400Y-141598400D02*
X52825400Y-140074400D01*
%TO.N,Net-(C15-Pad1)*%
X57658000Y-140589000D02*
X57658000Y-152908000D01*
%TO.N,Net-(C15-Pad2)*%
X60071000Y-140589000D02*
X60071000Y-152908000D01*
%TO.N,Net-(Q14-Pad3)*%
X55118000Y-140335000D02*
X55118000Y-152908000D01*
%TO.N,Net-(A1-Pad29)*%
X52832000Y-148857200D02*
X52832000Y-150876000D01*
X52825400Y-152012400D02*
X52825400Y-150488400D01*
X52825400Y-141598400D02*
X52825400Y-148850600D01*
X62611000Y-140716000D02*
X62611000Y-152908000D01*
X52832000Y-159271200D02*
X52825400Y-159264600D01*
X52832000Y-161290000D02*
X52832000Y-162814000D01*
X52825400Y-152012400D02*
X52825400Y-150488400D01*
%TO.N,Net-(C15-Pad1)*%
X57658000Y-151003000D02*
X57658000Y-163322000D01*
%TO.N,Net-(C15-Pad2)*%
X60071000Y-151003000D02*
X60071000Y-163322000D01*
%TO.N,Net-(Q14-Pad3)*%
X55118000Y-150749000D02*
X55118000Y-163322000D01*
%TO.N,Net-(A1-Pad29)*%
X52832000Y-159271200D02*
X52832000Y-161290000D01*
X52825400Y-162426400D02*
X52825400Y-160902400D01*
X52825400Y-152012400D02*
X52825400Y-159264600D01*
X62611000Y-151130000D02*
X62611000Y-163322000D01*
X52832000Y-169685200D02*
X52825400Y-169678600D01*
X52825400Y-162426400D02*
X52825400Y-160902400D01*
%TO.N,Net-(C15-Pad1)*%
X57658000Y-161417000D02*
X57658000Y-171450000D01*
%TO.N,Net-(C15-Pad2)*%
X60071000Y-161417000D02*
X60071000Y-171450000D01*
%TO.N,Net-(Q14-Pad3)*%
X55118000Y-161163000D02*
X55118000Y-171450000D01*
%TO.N,Net-(A1-Pad29)*%
X52832000Y-169685200D02*
X52832000Y-171450000D01*
X52825400Y-162426400D02*
X52825400Y-169678600D01*
X62611000Y-161544000D02*
X62611000Y-171450000D01*
X62611000Y-46990000D02*
X62611000Y-59182000D01*
D15*
X113030000Y-150241000D02*
X109601000Y-146812000D01*
X113030000Y-154940000D02*
X113030000Y-150241000D01*
X113030000Y-158242000D02*
X109093000Y-162179000D01*
X113030000Y-154940000D02*
X113030000Y-158242000D01*
X101346000Y-149098000D02*
X104521000Y-149098000D01*
X110363000Y-154940000D02*
X113030000Y-154940000D01*
X104521000Y-149098000D02*
X110363000Y-154940000D01*
X100330000Y-52959000D02*
X92202000Y-61087000D01*
X89154000Y-58039000D02*
X92202000Y-61087000D01*
X85090000Y-58039000D02*
X89154000Y-58039000D01*
X104013000Y-105918000D02*
X109982000Y-105918000D01*
X92202000Y-61087000D02*
X92202000Y-94107000D01*
X92202000Y-94107000D02*
X104013000Y-105918000D01*
X109982000Y-105918000D02*
X116078000Y-112014000D01*
X116078000Y-112014000D02*
X116078000Y-154051000D01*
X115189000Y-154940000D02*
X113030000Y-154940000D01*
X116078000Y-154051000D02*
X115189000Y-154940000D01*
X88265000Y-164719000D02*
X93091000Y-164719000D01*
X93091000Y-164719000D02*
X99568000Y-158242000D01*
X109728000Y-158242000D02*
X113030000Y-154940000D01*
X99568000Y-158242000D02*
X109728000Y-158242000D01*
%TO.N,Net-(A1-Pad27)*%
X109855000Y-97663000D02*
X101981000Y-97663000D01*
X101981000Y-97663000D02*
X96393000Y-92075000D01*
X96393000Y-92075000D02*
X96393000Y-60706000D01*
X99060000Y-58039000D02*
X100330000Y-58039000D01*
X96393000Y-60706000D02*
X99060000Y-58039000D01*
D14*
%TO.N,Net-(Q14-Pad3)*%
X55118000Y-46609000D02*
X55118000Y-59182000D01*
D15*
%TO.N,Net-(R1-Pad1)*%
X95377000Y-175387000D02*
X92583000Y-175387000D01*
X92583000Y-175387000D02*
X88265000Y-179705000D01*
X88265000Y-179705000D02*
X45974000Y-179705000D01*
X45974000Y-179705000D02*
X38227000Y-171958000D01*
X38227000Y-171958000D02*
X38227000Y-51181000D01*
X38227000Y-51181000D02*
X39878000Y-49530000D01*
X39878000Y-49530000D02*
X40513000Y-49530000D01*
X40513000Y-49530000D02*
X40513000Y-49530000D01*
D14*
%TO.N,Net-(C15-Pad2)*%
X60071000Y-46863000D02*
X60071000Y-59182000D01*
D15*
X119380000Y-152654000D02*
X117475000Y-154559000D01*
X117475000Y-154559000D02*
X117475000Y-157226000D01*
X117475000Y-157226000D02*
X112649000Y-162052000D01*
X112649000Y-162052000D02*
X112649000Y-164084000D01*
X112649000Y-164084000D02*
X108712000Y-168021000D01*
X108712000Y-168021000D02*
X70612000Y-168021000D01*
X70612000Y-168021000D02*
X64389000Y-174244000D01*
X64389000Y-174244000D02*
X61214000Y-174244000D01*
X60071000Y-173101000D02*
X60071000Y-171450000D01*
X61214000Y-174244000D02*
X60071000Y-173101000D01*
D14*
%TO.N,Net-(C15-Pad1)*%
X57658000Y-46863000D02*
X57658000Y-59182000D01*
D15*
X119380000Y-158369000D02*
X119380000Y-160401000D01*
X109728000Y-170053000D02*
X94742000Y-170053000D01*
X119380000Y-160401000D02*
X109728000Y-170053000D01*
X71628000Y-170053000D02*
X65278000Y-176403000D01*
X65278000Y-176403000D02*
X60198000Y-176403000D01*
X57658000Y-173863000D02*
X57658000Y-171450000D01*
X60198000Y-176403000D02*
X57658000Y-173863000D01*
X94742000Y-170053000D02*
X71628000Y-170053000D01*
%TD*%
M02*
