%TF.GenerationSoftware,KiCad,Pcbnew,5.1.6-c6e7f7d~87~ubuntu18.04.1*%
%TF.CreationDate,2021-02-12T17:03:38+13:00*%
%TF.ProjectId,Volume Control Ultimate 2 Feb9,566f6c75-6d65-4204-936f-6e74726f6c20,rev?*%
%TF.SameCoordinates,Original*%
%TF.FileFunction,Paste,Top*%
%TF.FilePolarity,Positive*%
%FSLAX46Y46*%
G04 Gerber Fmt 4.6, Leading zero omitted, Abs format (unit mm)*
G04 Created by KiCad (PCBNEW 5.1.6-c6e7f7d~87~ubuntu18.04.1) date 2021-02-12 17:03:38*
%MOMM*%
%LPD*%
G01*
G04 APERTURE LIST*
%ADD10R,0.900000X0.800000*%
G04 APERTURE END LIST*
D10*
%TO.C,Q1*%
X46514000Y-48732400D03*
X46514000Y-50632400D03*
X48514000Y-49682400D03*
%TD*%
%TO.C,C1*%
G36*
G01*
X63048500Y-49400750D02*
X63048500Y-49913250D01*
G75*
G02*
X62829750Y-50132000I-218750J0D01*
G01*
X62392250Y-50132000D01*
G75*
G02*
X62173500Y-49913250I0J218750D01*
G01*
X62173500Y-49400750D01*
G75*
G02*
X62392250Y-49182000I218750J0D01*
G01*
X62829750Y-49182000D01*
G75*
G02*
X63048500Y-49400750I0J-218750D01*
G01*
G37*
G36*
G01*
X64623500Y-49400750D02*
X64623500Y-49913250D01*
G75*
G02*
X64404750Y-50132000I-218750J0D01*
G01*
X63967250Y-50132000D01*
G75*
G02*
X63748500Y-49913250I0J218750D01*
G01*
X63748500Y-49400750D01*
G75*
G02*
X63967250Y-49182000I218750J0D01*
G01*
X64404750Y-49182000D01*
G75*
G02*
X64623500Y-49400750I0J-218750D01*
G01*
G37*
%TD*%
%TO.C,C2*%
G36*
G01*
X64623500Y-59814750D02*
X64623500Y-60327250D01*
G75*
G02*
X64404750Y-60546000I-218750J0D01*
G01*
X63967250Y-60546000D01*
G75*
G02*
X63748500Y-60327250I0J218750D01*
G01*
X63748500Y-59814750D01*
G75*
G02*
X63967250Y-59596000I218750J0D01*
G01*
X64404750Y-59596000D01*
G75*
G02*
X64623500Y-59814750I0J-218750D01*
G01*
G37*
G36*
G01*
X63048500Y-59814750D02*
X63048500Y-60327250D01*
G75*
G02*
X62829750Y-60546000I-218750J0D01*
G01*
X62392250Y-60546000D01*
G75*
G02*
X62173500Y-60327250I0J218750D01*
G01*
X62173500Y-59814750D01*
G75*
G02*
X62392250Y-59596000I218750J0D01*
G01*
X62829750Y-59596000D01*
G75*
G02*
X63048500Y-59814750I0J-218750D01*
G01*
G37*
%TD*%
%TO.C,C3*%
G36*
G01*
X64623500Y-70228750D02*
X64623500Y-70741250D01*
G75*
G02*
X64404750Y-70960000I-218750J0D01*
G01*
X63967250Y-70960000D01*
G75*
G02*
X63748500Y-70741250I0J218750D01*
G01*
X63748500Y-70228750D01*
G75*
G02*
X63967250Y-70010000I218750J0D01*
G01*
X64404750Y-70010000D01*
G75*
G02*
X64623500Y-70228750I0J-218750D01*
G01*
G37*
G36*
G01*
X63048500Y-70228750D02*
X63048500Y-70741250D01*
G75*
G02*
X62829750Y-70960000I-218750J0D01*
G01*
X62392250Y-70960000D01*
G75*
G02*
X62173500Y-70741250I0J218750D01*
G01*
X62173500Y-70228750D01*
G75*
G02*
X62392250Y-70010000I218750J0D01*
G01*
X62829750Y-70010000D01*
G75*
G02*
X63048500Y-70228750I0J-218750D01*
G01*
G37*
%TD*%
%TO.C,C4*%
G36*
G01*
X64623500Y-80642750D02*
X64623500Y-81155250D01*
G75*
G02*
X64404750Y-81374000I-218750J0D01*
G01*
X63967250Y-81374000D01*
G75*
G02*
X63748500Y-81155250I0J218750D01*
G01*
X63748500Y-80642750D01*
G75*
G02*
X63967250Y-80424000I218750J0D01*
G01*
X64404750Y-80424000D01*
G75*
G02*
X64623500Y-80642750I0J-218750D01*
G01*
G37*
G36*
G01*
X63048500Y-80642750D02*
X63048500Y-81155250D01*
G75*
G02*
X62829750Y-81374000I-218750J0D01*
G01*
X62392250Y-81374000D01*
G75*
G02*
X62173500Y-81155250I0J218750D01*
G01*
X62173500Y-80642750D01*
G75*
G02*
X62392250Y-80424000I218750J0D01*
G01*
X62829750Y-80424000D01*
G75*
G02*
X63048500Y-80642750I0J-218750D01*
G01*
G37*
%TD*%
%TO.C,C5*%
G36*
G01*
X63048500Y-91056750D02*
X63048500Y-91569250D01*
G75*
G02*
X62829750Y-91788000I-218750J0D01*
G01*
X62392250Y-91788000D01*
G75*
G02*
X62173500Y-91569250I0J218750D01*
G01*
X62173500Y-91056750D01*
G75*
G02*
X62392250Y-90838000I218750J0D01*
G01*
X62829750Y-90838000D01*
G75*
G02*
X63048500Y-91056750I0J-218750D01*
G01*
G37*
G36*
G01*
X64623500Y-91056750D02*
X64623500Y-91569250D01*
G75*
G02*
X64404750Y-91788000I-218750J0D01*
G01*
X63967250Y-91788000D01*
G75*
G02*
X63748500Y-91569250I0J218750D01*
G01*
X63748500Y-91056750D01*
G75*
G02*
X63967250Y-90838000I218750J0D01*
G01*
X64404750Y-90838000D01*
G75*
G02*
X64623500Y-91056750I0J-218750D01*
G01*
G37*
%TD*%
%TO.C,C6*%
G36*
G01*
X64572500Y-101470750D02*
X64572500Y-101983250D01*
G75*
G02*
X64353750Y-102202000I-218750J0D01*
G01*
X63916250Y-102202000D01*
G75*
G02*
X63697500Y-101983250I0J218750D01*
G01*
X63697500Y-101470750D01*
G75*
G02*
X63916250Y-101252000I218750J0D01*
G01*
X64353750Y-101252000D01*
G75*
G02*
X64572500Y-101470750I0J-218750D01*
G01*
G37*
G36*
G01*
X62997500Y-101470750D02*
X62997500Y-101983250D01*
G75*
G02*
X62778750Y-102202000I-218750J0D01*
G01*
X62341250Y-102202000D01*
G75*
G02*
X62122500Y-101983250I0J218750D01*
G01*
X62122500Y-101470750D01*
G75*
G02*
X62341250Y-101252000I218750J0D01*
G01*
X62778750Y-101252000D01*
G75*
G02*
X62997500Y-101470750I0J-218750D01*
G01*
G37*
%TD*%
%TO.C,C7*%
G36*
G01*
X63124500Y-111884750D02*
X63124500Y-112397250D01*
G75*
G02*
X62905750Y-112616000I-218750J0D01*
G01*
X62468250Y-112616000D01*
G75*
G02*
X62249500Y-112397250I0J218750D01*
G01*
X62249500Y-111884750D01*
G75*
G02*
X62468250Y-111666000I218750J0D01*
G01*
X62905750Y-111666000D01*
G75*
G02*
X63124500Y-111884750I0J-218750D01*
G01*
G37*
G36*
G01*
X64699500Y-111884750D02*
X64699500Y-112397250D01*
G75*
G02*
X64480750Y-112616000I-218750J0D01*
G01*
X64043250Y-112616000D01*
G75*
G02*
X63824500Y-112397250I0J218750D01*
G01*
X63824500Y-111884750D01*
G75*
G02*
X64043250Y-111666000I218750J0D01*
G01*
X64480750Y-111666000D01*
G75*
G02*
X64699500Y-111884750I0J-218750D01*
G01*
G37*
%TD*%
%TO.C,C8*%
G36*
G01*
X64623500Y-122298750D02*
X64623500Y-122811250D01*
G75*
G02*
X64404750Y-123030000I-218750J0D01*
G01*
X63967250Y-123030000D01*
G75*
G02*
X63748500Y-122811250I0J218750D01*
G01*
X63748500Y-122298750D01*
G75*
G02*
X63967250Y-122080000I218750J0D01*
G01*
X64404750Y-122080000D01*
G75*
G02*
X64623500Y-122298750I0J-218750D01*
G01*
G37*
G36*
G01*
X63048500Y-122298750D02*
X63048500Y-122811250D01*
G75*
G02*
X62829750Y-123030000I-218750J0D01*
G01*
X62392250Y-123030000D01*
G75*
G02*
X62173500Y-122811250I0J218750D01*
G01*
X62173500Y-122298750D01*
G75*
G02*
X62392250Y-122080000I218750J0D01*
G01*
X62829750Y-122080000D01*
G75*
G02*
X63048500Y-122298750I0J-218750D01*
G01*
G37*
%TD*%
%TO.C,C9*%
G36*
G01*
X63048500Y-132712750D02*
X63048500Y-133225250D01*
G75*
G02*
X62829750Y-133444000I-218750J0D01*
G01*
X62392250Y-133444000D01*
G75*
G02*
X62173500Y-133225250I0J218750D01*
G01*
X62173500Y-132712750D01*
G75*
G02*
X62392250Y-132494000I218750J0D01*
G01*
X62829750Y-132494000D01*
G75*
G02*
X63048500Y-132712750I0J-218750D01*
G01*
G37*
G36*
G01*
X64623500Y-132712750D02*
X64623500Y-133225250D01*
G75*
G02*
X64404750Y-133444000I-218750J0D01*
G01*
X63967250Y-133444000D01*
G75*
G02*
X63748500Y-133225250I0J218750D01*
G01*
X63748500Y-132712750D01*
G75*
G02*
X63967250Y-132494000I218750J0D01*
G01*
X64404750Y-132494000D01*
G75*
G02*
X64623500Y-132712750I0J-218750D01*
G01*
G37*
%TD*%
%TO.C,C10*%
G36*
G01*
X64623500Y-143126750D02*
X64623500Y-143639250D01*
G75*
G02*
X64404750Y-143858000I-218750J0D01*
G01*
X63967250Y-143858000D01*
G75*
G02*
X63748500Y-143639250I0J218750D01*
G01*
X63748500Y-143126750D01*
G75*
G02*
X63967250Y-142908000I218750J0D01*
G01*
X64404750Y-142908000D01*
G75*
G02*
X64623500Y-143126750I0J-218750D01*
G01*
G37*
G36*
G01*
X63048500Y-143126750D02*
X63048500Y-143639250D01*
G75*
G02*
X62829750Y-143858000I-218750J0D01*
G01*
X62392250Y-143858000D01*
G75*
G02*
X62173500Y-143639250I0J218750D01*
G01*
X62173500Y-143126750D01*
G75*
G02*
X62392250Y-142908000I218750J0D01*
G01*
X62829750Y-142908000D01*
G75*
G02*
X63048500Y-143126750I0J-218750D01*
G01*
G37*
%TD*%
%TO.C,C11*%
G36*
G01*
X105231250Y-144632500D02*
X104318750Y-144632500D01*
G75*
G02*
X104075000Y-144388750I0J243750D01*
G01*
X104075000Y-143901250D01*
G75*
G02*
X104318750Y-143657500I243750J0D01*
G01*
X105231250Y-143657500D01*
G75*
G02*
X105475000Y-143901250I0J-243750D01*
G01*
X105475000Y-144388750D01*
G75*
G02*
X105231250Y-144632500I-243750J0D01*
G01*
G37*
G36*
G01*
X105231250Y-142757500D02*
X104318750Y-142757500D01*
G75*
G02*
X104075000Y-142513750I0J243750D01*
G01*
X104075000Y-142026250D01*
G75*
G02*
X104318750Y-141782500I243750J0D01*
G01*
X105231250Y-141782500D01*
G75*
G02*
X105475000Y-142026250I0J-243750D01*
G01*
X105475000Y-142513750D01*
G75*
G02*
X105231250Y-142757500I-243750J0D01*
G01*
G37*
%TD*%
%TO.C,C12*%
G36*
G01*
X63048500Y-153540750D02*
X63048500Y-154053250D01*
G75*
G02*
X62829750Y-154272000I-218750J0D01*
G01*
X62392250Y-154272000D01*
G75*
G02*
X62173500Y-154053250I0J218750D01*
G01*
X62173500Y-153540750D01*
G75*
G02*
X62392250Y-153322000I218750J0D01*
G01*
X62829750Y-153322000D01*
G75*
G02*
X63048500Y-153540750I0J-218750D01*
G01*
G37*
G36*
G01*
X64623500Y-153540750D02*
X64623500Y-154053250D01*
G75*
G02*
X64404750Y-154272000I-218750J0D01*
G01*
X63967250Y-154272000D01*
G75*
G02*
X63748500Y-154053250I0J218750D01*
G01*
X63748500Y-153540750D01*
G75*
G02*
X63967250Y-153322000I218750J0D01*
G01*
X64404750Y-153322000D01*
G75*
G02*
X64623500Y-153540750I0J-218750D01*
G01*
G37*
%TD*%
%TO.C,C13*%
G36*
G01*
X62997500Y-163954750D02*
X62997500Y-164467250D01*
G75*
G02*
X62778750Y-164686000I-218750J0D01*
G01*
X62341250Y-164686000D01*
G75*
G02*
X62122500Y-164467250I0J218750D01*
G01*
X62122500Y-163954750D01*
G75*
G02*
X62341250Y-163736000I218750J0D01*
G01*
X62778750Y-163736000D01*
G75*
G02*
X62997500Y-163954750I0J-218750D01*
G01*
G37*
G36*
G01*
X64572500Y-163954750D02*
X64572500Y-164467250D01*
G75*
G02*
X64353750Y-164686000I-218750J0D01*
G01*
X63916250Y-164686000D01*
G75*
G02*
X63697500Y-164467250I0J218750D01*
G01*
X63697500Y-163954750D01*
G75*
G02*
X63916250Y-163736000I218750J0D01*
G01*
X64353750Y-163736000D01*
G75*
G02*
X64572500Y-163954750I0J-218750D01*
G01*
G37*
%TD*%
%TO.C,Q2*%
X52774600Y-49718000D03*
X50774600Y-50668000D03*
X50774600Y-48768000D03*
%TD*%
%TO.C,Q3*%
X61087000Y-54925000D03*
X61087000Y-53025000D03*
X59087000Y-53975000D03*
%TD*%
%TO.C,Q4*%
X48472600Y-54036000D03*
X46472600Y-54986000D03*
X46472600Y-53086000D03*
%TD*%
%TO.C,Q5*%
X50825400Y-53086000D03*
X50825400Y-54986000D03*
X52825400Y-54036000D03*
%TD*%
%TO.C,Q6*%
X56864000Y-54925000D03*
X56864000Y-53025000D03*
X54864000Y-53975000D03*
%TD*%
%TO.C,Q7*%
X46514000Y-59146400D03*
X46514000Y-61046400D03*
X48514000Y-60096400D03*
%TD*%
%TO.C,Q8*%
X52774600Y-60132000D03*
X50774600Y-61082000D03*
X50774600Y-59182000D03*
%TD*%
%TO.C,Q9*%
X59087000Y-64389000D03*
X61087000Y-63439000D03*
X61087000Y-65339000D03*
%TD*%
%TO.C,Q10*%
X48472600Y-64450000D03*
X46472600Y-65400000D03*
X46472600Y-63500000D03*
%TD*%
%TO.C,Q11*%
X50800000Y-63500000D03*
X50800000Y-65400000D03*
X52800000Y-64450000D03*
%TD*%
%TO.C,Q12*%
X56880000Y-65339000D03*
X56880000Y-63439000D03*
X54880000Y-64389000D03*
%TD*%
%TO.C,Q13*%
X48514000Y-70485000D03*
X46514000Y-71435000D03*
X46514000Y-69535000D03*
%TD*%
%TO.C,Q14*%
X50816000Y-69662000D03*
X50816000Y-71562000D03*
X52816000Y-70612000D03*
%TD*%
%TO.C,Q15*%
X59087000Y-74864000D03*
X61087000Y-73914000D03*
X61087000Y-75814000D03*
%TD*%
%TO.C,Q16*%
X46482000Y-73919000D03*
X46482000Y-75819000D03*
X48482000Y-74869000D03*
%TD*%
%TO.C,Q17*%
X52800000Y-74869000D03*
X50800000Y-75819000D03*
X50800000Y-73919000D03*
%TD*%
%TO.C,Q18*%
X54864000Y-74803000D03*
X56864000Y-73853000D03*
X56864000Y-75753000D03*
%TD*%
%TO.C,Q19*%
X46482000Y-80010000D03*
X46482000Y-81910000D03*
X48482000Y-80960000D03*
%TD*%
%TO.C,Q20*%
X50774600Y-80010000D03*
X50774600Y-81910000D03*
X52774600Y-80960000D03*
%TD*%
%TO.C,Q21*%
X59087000Y-85217000D03*
X61087000Y-84267000D03*
X61087000Y-86167000D03*
%TD*%
%TO.C,Q22*%
X48472600Y-85278000D03*
X46472600Y-86228000D03*
X46472600Y-84328000D03*
%TD*%
%TO.C,Q23*%
X52825400Y-85278000D03*
X50825400Y-86228000D03*
X50825400Y-84328000D03*
%TD*%
%TO.C,Q24*%
X56864000Y-86167000D03*
X56864000Y-84267000D03*
X54864000Y-85217000D03*
%TD*%
%TO.C,Q25*%
X48514000Y-91338400D03*
X46514000Y-92288400D03*
X46514000Y-90388400D03*
%TD*%
%TO.C,Q26*%
X52800000Y-91374000D03*
X50800000Y-92324000D03*
X50800000Y-90424000D03*
%TD*%
%TO.C,Q27*%
X61087000Y-96581000D03*
X61087000Y-94681000D03*
X59087000Y-95631000D03*
%TD*%
%TO.C,Q28*%
X46482000Y-94742000D03*
X46482000Y-96642000D03*
X48482000Y-95692000D03*
%TD*%
%TO.C,Q29*%
X50825400Y-94742000D03*
X50825400Y-96642000D03*
X52825400Y-95692000D03*
%TD*%
%TO.C,Q30*%
X56896000Y-96647000D03*
X56896000Y-94747000D03*
X54896000Y-95697000D03*
%TD*%
%TO.C,Q31*%
X46514000Y-100802400D03*
X46514000Y-102702400D03*
X48514000Y-101752400D03*
%TD*%
%TO.C,Q32*%
X52800000Y-101788000D03*
X50800000Y-102738000D03*
X50800000Y-100838000D03*
%TD*%
%TO.C,Q33*%
X59087000Y-106045000D03*
X61087000Y-105095000D03*
X61087000Y-106995000D03*
%TD*%
%TO.C,Q34*%
X48472600Y-106106000D03*
X46472600Y-107056000D03*
X46472600Y-105156000D03*
%TD*%
%TO.C,Q35*%
X50825400Y-105156000D03*
X50825400Y-107056000D03*
X52825400Y-106106000D03*
%TD*%
%TO.C,Q36*%
X56864000Y-106995000D03*
X56864000Y-105095000D03*
X54864000Y-106045000D03*
%TD*%
%TO.C,Q37*%
X48514000Y-112166400D03*
X46514000Y-113116400D03*
X46514000Y-111216400D03*
%TD*%
%TO.C,Q38*%
X52800000Y-112202000D03*
X50800000Y-113152000D03*
X50800000Y-111252000D03*
%TD*%
%TO.C,Q39*%
X59087000Y-116525000D03*
X61087000Y-115575000D03*
X61087000Y-117475000D03*
%TD*%
%TO.C,Q40*%
X46482000Y-115570000D03*
X46482000Y-117470000D03*
X48482000Y-116520000D03*
%TD*%
%TO.C,Q41*%
X52825400Y-116520000D03*
X50825400Y-117470000D03*
X50825400Y-115570000D03*
%TD*%
%TO.C,Q42*%
X54896000Y-116525000D03*
X56896000Y-115575000D03*
X56896000Y-117475000D03*
%TD*%
%TO.C,Q43*%
X48482000Y-122616000D03*
X46482000Y-123566000D03*
X46482000Y-121666000D03*
%TD*%
%TO.C,Q44*%
X52800000Y-122616000D03*
X50800000Y-123566000D03*
X50800000Y-121666000D03*
%TD*%
%TO.C,Q45*%
X61087000Y-127889000D03*
X61087000Y-125989000D03*
X59087000Y-126939000D03*
%TD*%
%TO.C,Q46*%
X46482000Y-125989000D03*
X46482000Y-127889000D03*
X48482000Y-126939000D03*
%TD*%
%TO.C,Q47*%
X52825400Y-126934000D03*
X50825400Y-127884000D03*
X50825400Y-125984000D03*
%TD*%
%TO.C,Q48*%
X56896000Y-127889000D03*
X56896000Y-125989000D03*
X54896000Y-126939000D03*
%TD*%
%TO.C,Q49*%
X48482000Y-133030000D03*
X46482000Y-133980000D03*
X46482000Y-132080000D03*
%TD*%
%TO.C,Q50*%
X50800000Y-132080000D03*
X50800000Y-133980000D03*
X52800000Y-133030000D03*
%TD*%
%TO.C,Q51*%
X59087000Y-137226000D03*
X61087000Y-136276000D03*
X61087000Y-138176000D03*
%TD*%
%TO.C,Q52*%
X46482000Y-136398000D03*
X46482000Y-138298000D03*
X48482000Y-137348000D03*
%TD*%
%TO.C,Q53*%
X52800000Y-137348000D03*
X50800000Y-138298000D03*
X50800000Y-136398000D03*
%TD*%
%TO.C,Q54*%
X54896000Y-137353000D03*
X56896000Y-136403000D03*
X56896000Y-138303000D03*
%TD*%
%TO.C,Q55*%
X46482000Y-142494000D03*
X46482000Y-144394000D03*
X48482000Y-143444000D03*
%TD*%
%TO.C,Q56*%
X52800000Y-143444000D03*
X50800000Y-144394000D03*
X50800000Y-142494000D03*
%TD*%
%TO.C,Q57*%
X59087000Y-147767000D03*
X61087000Y-146817000D03*
X61087000Y-148717000D03*
%TD*%
%TO.C,Q58*%
X46482000Y-146812000D03*
X46482000Y-148712000D03*
X48482000Y-147762000D03*
%TD*%
%TO.C,Q59*%
X50816000Y-146878000D03*
X50816000Y-148778000D03*
X52816000Y-147828000D03*
%TD*%
%TO.C,Q60*%
X56896000Y-148717000D03*
X56896000Y-146817000D03*
X54896000Y-147767000D03*
%TD*%
%TO.C,Q61*%
X46514000Y-152872400D03*
X46514000Y-154772400D03*
X48514000Y-153822400D03*
%TD*%
%TO.C,Q62*%
X50774600Y-152908000D03*
X50774600Y-154808000D03*
X52774600Y-153858000D03*
%TD*%
%TO.C,Q63*%
X61087000Y-159065000D03*
X61087000Y-157165000D03*
X59087000Y-158115000D03*
%TD*%
%TO.C,Q64*%
X46472600Y-157226000D03*
X46472600Y-159126000D03*
X48472600Y-158176000D03*
%TD*%
%TO.C,Q65*%
X50825400Y-157226000D03*
X50825400Y-159126000D03*
X52825400Y-158176000D03*
%TD*%
%TO.C,Q66*%
X54880000Y-158115000D03*
X56880000Y-157165000D03*
X56880000Y-159065000D03*
%TD*%
%TO.C,Q67*%
X48482000Y-164272000D03*
X46482000Y-165222000D03*
X46482000Y-163322000D03*
%TD*%
%TO.C,Q68*%
X52774600Y-164272000D03*
X50774600Y-165222000D03*
X50774600Y-163322000D03*
%TD*%
%TO.C,Q69*%
X61087000Y-169479000D03*
X61087000Y-167579000D03*
X59087000Y-168529000D03*
%TD*%
%TO.C,Q70*%
X48482000Y-168590000D03*
X46482000Y-169540000D03*
X46482000Y-167640000D03*
%TD*%
%TO.C,Q71*%
X50825400Y-167640000D03*
X50825400Y-169540000D03*
X52825400Y-168590000D03*
%TD*%
%TO.C,Q72*%
X54864000Y-168529000D03*
X56864000Y-167579000D03*
X56864000Y-169479000D03*
%TD*%
%TO.C,R1*%
G36*
G01*
X40256750Y-53309000D02*
X40769250Y-53309000D01*
G75*
G02*
X40988000Y-53527750I0J-218750D01*
G01*
X40988000Y-53965250D01*
G75*
G02*
X40769250Y-54184000I-218750J0D01*
G01*
X40256750Y-54184000D01*
G75*
G02*
X40038000Y-53965250I0J218750D01*
G01*
X40038000Y-53527750D01*
G75*
G02*
X40256750Y-53309000I218750J0D01*
G01*
G37*
G36*
G01*
X40256750Y-51734000D02*
X40769250Y-51734000D01*
G75*
G02*
X40988000Y-51952750I0J-218750D01*
G01*
X40988000Y-52390250D01*
G75*
G02*
X40769250Y-52609000I-218750J0D01*
G01*
X40256750Y-52609000D01*
G75*
G02*
X40038000Y-52390250I0J218750D01*
G01*
X40038000Y-51952750D01*
G75*
G02*
X40256750Y-51734000I218750J0D01*
G01*
G37*
%TD*%
%TO.C,R2*%
G36*
G01*
X55574250Y-49255500D02*
X54661750Y-49255500D01*
G75*
G02*
X54418000Y-49011750I0J243750D01*
G01*
X54418000Y-48524250D01*
G75*
G02*
X54661750Y-48280500I243750J0D01*
G01*
X55574250Y-48280500D01*
G75*
G02*
X55818000Y-48524250I0J-243750D01*
G01*
X55818000Y-49011750D01*
G75*
G02*
X55574250Y-49255500I-243750J0D01*
G01*
G37*
G36*
G01*
X55574250Y-51130500D02*
X54661750Y-51130500D01*
G75*
G02*
X54418000Y-50886750I0J243750D01*
G01*
X54418000Y-50399250D01*
G75*
G02*
X54661750Y-50155500I243750J0D01*
G01*
X55574250Y-50155500D01*
G75*
G02*
X55818000Y-50399250I0J-243750D01*
G01*
X55818000Y-50886750D01*
G75*
G02*
X55574250Y-51130500I-243750J0D01*
G01*
G37*
%TD*%
%TO.C,R3*%
G36*
G01*
X42542750Y-54934500D02*
X43055250Y-54934500D01*
G75*
G02*
X43274000Y-55153250I0J-218750D01*
G01*
X43274000Y-55590750D01*
G75*
G02*
X43055250Y-55809500I-218750J0D01*
G01*
X42542750Y-55809500D01*
G75*
G02*
X42324000Y-55590750I0J218750D01*
G01*
X42324000Y-55153250D01*
G75*
G02*
X42542750Y-54934500I218750J0D01*
G01*
G37*
G36*
G01*
X42542750Y-53359500D02*
X43055250Y-53359500D01*
G75*
G02*
X43274000Y-53578250I0J-218750D01*
G01*
X43274000Y-54015750D01*
G75*
G02*
X43055250Y-54234500I-218750J0D01*
G01*
X42542750Y-54234500D01*
G75*
G02*
X42324000Y-54015750I0J218750D01*
G01*
X42324000Y-53578250D01*
G75*
G02*
X42542750Y-53359500I218750J0D01*
G01*
G37*
%TD*%
%TO.C,R4*%
G36*
G01*
X44760500Y-51559750D02*
X44760500Y-52072250D01*
G75*
G02*
X44541750Y-52291000I-218750J0D01*
G01*
X44104250Y-52291000D01*
G75*
G02*
X43885500Y-52072250I0J218750D01*
G01*
X43885500Y-51559750D01*
G75*
G02*
X44104250Y-51341000I218750J0D01*
G01*
X44541750Y-51341000D01*
G75*
G02*
X44760500Y-51559750I0J-218750D01*
G01*
G37*
G36*
G01*
X43185500Y-51559750D02*
X43185500Y-52072250D01*
G75*
G02*
X42966750Y-52291000I-218750J0D01*
G01*
X42529250Y-52291000D01*
G75*
G02*
X42310500Y-52072250I0J218750D01*
G01*
X42310500Y-51559750D01*
G75*
G02*
X42529250Y-51341000I218750J0D01*
G01*
X42966750Y-51341000D01*
G75*
G02*
X43185500Y-51559750I0J-218750D01*
G01*
G37*
%TD*%
%TO.C,R5*%
G36*
G01*
X63002000Y-54118000D02*
X64252000Y-54118000D01*
G75*
G02*
X64502000Y-54368000I0J-250000D01*
G01*
X64502000Y-55118000D01*
G75*
G02*
X64252000Y-55368000I-250000J0D01*
G01*
X63002000Y-55368000D01*
G75*
G02*
X62752000Y-55118000I0J250000D01*
G01*
X62752000Y-54368000D01*
G75*
G02*
X63002000Y-54118000I250000J0D01*
G01*
G37*
G36*
G01*
X63002000Y-51318000D02*
X64252000Y-51318000D01*
G75*
G02*
X64502000Y-51568000I0J-250000D01*
G01*
X64502000Y-52318000D01*
G75*
G02*
X64252000Y-52568000I-250000J0D01*
G01*
X63002000Y-52568000D01*
G75*
G02*
X62752000Y-52318000I0J250000D01*
G01*
X62752000Y-51568000D01*
G75*
G02*
X63002000Y-51318000I250000J0D01*
G01*
G37*
%TD*%
%TO.C,R6*%
G36*
G01*
X57043500Y-51002250D02*
X57043500Y-50089750D01*
G75*
G02*
X57287250Y-49846000I243750J0D01*
G01*
X57774750Y-49846000D01*
G75*
G02*
X58018500Y-50089750I0J-243750D01*
G01*
X58018500Y-51002250D01*
G75*
G02*
X57774750Y-51246000I-243750J0D01*
G01*
X57287250Y-51246000D01*
G75*
G02*
X57043500Y-51002250I0J243750D01*
G01*
G37*
G36*
G01*
X58918500Y-51002250D02*
X58918500Y-50089750D01*
G75*
G02*
X59162250Y-49846000I243750J0D01*
G01*
X59649750Y-49846000D01*
G75*
G02*
X59893500Y-50089750I0J-243750D01*
G01*
X59893500Y-51002250D01*
G75*
G02*
X59649750Y-51246000I-243750J0D01*
G01*
X59162250Y-51246000D01*
G75*
G02*
X58918500Y-51002250I0J243750D01*
G01*
G37*
%TD*%
%TO.C,R7*%
G36*
G01*
X40383750Y-62173500D02*
X40896250Y-62173500D01*
G75*
G02*
X41115000Y-62392250I0J-218750D01*
G01*
X41115000Y-62829750D01*
G75*
G02*
X40896250Y-63048500I-218750J0D01*
G01*
X40383750Y-63048500D01*
G75*
G02*
X40165000Y-62829750I0J218750D01*
G01*
X40165000Y-62392250D01*
G75*
G02*
X40383750Y-62173500I218750J0D01*
G01*
G37*
G36*
G01*
X40383750Y-63748500D02*
X40896250Y-63748500D01*
G75*
G02*
X41115000Y-63967250I0J-218750D01*
G01*
X41115000Y-64404750D01*
G75*
G02*
X40896250Y-64623500I-218750J0D01*
G01*
X40383750Y-64623500D01*
G75*
G02*
X40165000Y-64404750I0J218750D01*
G01*
X40165000Y-63967250D01*
G75*
G02*
X40383750Y-63748500I218750J0D01*
G01*
G37*
%TD*%
%TO.C,R8*%
G36*
G01*
X55574250Y-61544500D02*
X54661750Y-61544500D01*
G75*
G02*
X54418000Y-61300750I0J243750D01*
G01*
X54418000Y-60813250D01*
G75*
G02*
X54661750Y-60569500I243750J0D01*
G01*
X55574250Y-60569500D01*
G75*
G02*
X55818000Y-60813250I0J-243750D01*
G01*
X55818000Y-61300750D01*
G75*
G02*
X55574250Y-61544500I-243750J0D01*
G01*
G37*
G36*
G01*
X55574250Y-59669500D02*
X54661750Y-59669500D01*
G75*
G02*
X54418000Y-59425750I0J243750D01*
G01*
X54418000Y-58938250D01*
G75*
G02*
X54661750Y-58694500I243750J0D01*
G01*
X55574250Y-58694500D01*
G75*
G02*
X55818000Y-58938250I0J-243750D01*
G01*
X55818000Y-59425750D01*
G75*
G02*
X55574250Y-59669500I-243750J0D01*
G01*
G37*
%TD*%
%TO.C,R9*%
G36*
G01*
X42542750Y-63824500D02*
X43055250Y-63824500D01*
G75*
G02*
X43274000Y-64043250I0J-218750D01*
G01*
X43274000Y-64480750D01*
G75*
G02*
X43055250Y-64699500I-218750J0D01*
G01*
X42542750Y-64699500D01*
G75*
G02*
X42324000Y-64480750I0J218750D01*
G01*
X42324000Y-64043250D01*
G75*
G02*
X42542750Y-63824500I218750J0D01*
G01*
G37*
G36*
G01*
X42542750Y-65399500D02*
X43055250Y-65399500D01*
G75*
G02*
X43274000Y-65618250I0J-218750D01*
G01*
X43274000Y-66055750D01*
G75*
G02*
X43055250Y-66274500I-218750J0D01*
G01*
X42542750Y-66274500D01*
G75*
G02*
X42324000Y-66055750I0J218750D01*
G01*
X42324000Y-65618250D01*
G75*
G02*
X42542750Y-65399500I218750J0D01*
G01*
G37*
%TD*%
%TO.C,R10*%
G36*
G01*
X43185500Y-61973750D02*
X43185500Y-62486250D01*
G75*
G02*
X42966750Y-62705000I-218750J0D01*
G01*
X42529250Y-62705000D01*
G75*
G02*
X42310500Y-62486250I0J218750D01*
G01*
X42310500Y-61973750D01*
G75*
G02*
X42529250Y-61755000I218750J0D01*
G01*
X42966750Y-61755000D01*
G75*
G02*
X43185500Y-61973750I0J-218750D01*
G01*
G37*
G36*
G01*
X44760500Y-61973750D02*
X44760500Y-62486250D01*
G75*
G02*
X44541750Y-62705000I-218750J0D01*
G01*
X44104250Y-62705000D01*
G75*
G02*
X43885500Y-62486250I0J218750D01*
G01*
X43885500Y-61973750D01*
G75*
G02*
X44104250Y-61755000I218750J0D01*
G01*
X44541750Y-61755000D01*
G75*
G02*
X44760500Y-61973750I0J-218750D01*
G01*
G37*
%TD*%
%TO.C,R11*%
G36*
G01*
X63002000Y-61732000D02*
X64252000Y-61732000D01*
G75*
G02*
X64502000Y-61982000I0J-250000D01*
G01*
X64502000Y-62732000D01*
G75*
G02*
X64252000Y-62982000I-250000J0D01*
G01*
X63002000Y-62982000D01*
G75*
G02*
X62752000Y-62732000I0J250000D01*
G01*
X62752000Y-61982000D01*
G75*
G02*
X63002000Y-61732000I250000J0D01*
G01*
G37*
G36*
G01*
X63002000Y-64532000D02*
X64252000Y-64532000D01*
G75*
G02*
X64502000Y-64782000I0J-250000D01*
G01*
X64502000Y-65532000D01*
G75*
G02*
X64252000Y-65782000I-250000J0D01*
G01*
X63002000Y-65782000D01*
G75*
G02*
X62752000Y-65532000I0J250000D01*
G01*
X62752000Y-64782000D01*
G75*
G02*
X63002000Y-64532000I250000J0D01*
G01*
G37*
%TD*%
%TO.C,R12*%
G36*
G01*
X58918500Y-61416250D02*
X58918500Y-60503750D01*
G75*
G02*
X59162250Y-60260000I243750J0D01*
G01*
X59649750Y-60260000D01*
G75*
G02*
X59893500Y-60503750I0J-243750D01*
G01*
X59893500Y-61416250D01*
G75*
G02*
X59649750Y-61660000I-243750J0D01*
G01*
X59162250Y-61660000D01*
G75*
G02*
X58918500Y-61416250I0J243750D01*
G01*
G37*
G36*
G01*
X57043500Y-61416250D02*
X57043500Y-60503750D01*
G75*
G02*
X57287250Y-60260000I243750J0D01*
G01*
X57774750Y-60260000D01*
G75*
G02*
X58018500Y-60503750I0J-243750D01*
G01*
X58018500Y-61416250D01*
G75*
G02*
X57774750Y-61660000I-243750J0D01*
G01*
X57287250Y-61660000D01*
G75*
G02*
X57043500Y-61416250I0J243750D01*
G01*
G37*
%TD*%
%TO.C,R13*%
G36*
G01*
X40383750Y-74162500D02*
X40896250Y-74162500D01*
G75*
G02*
X41115000Y-74381250I0J-218750D01*
G01*
X41115000Y-74818750D01*
G75*
G02*
X40896250Y-75037500I-218750J0D01*
G01*
X40383750Y-75037500D01*
G75*
G02*
X40165000Y-74818750I0J218750D01*
G01*
X40165000Y-74381250D01*
G75*
G02*
X40383750Y-74162500I218750J0D01*
G01*
G37*
G36*
G01*
X40383750Y-72587500D02*
X40896250Y-72587500D01*
G75*
G02*
X41115000Y-72806250I0J-218750D01*
G01*
X41115000Y-73243750D01*
G75*
G02*
X40896250Y-73462500I-218750J0D01*
G01*
X40383750Y-73462500D01*
G75*
G02*
X40165000Y-73243750I0J218750D01*
G01*
X40165000Y-72806250D01*
G75*
G02*
X40383750Y-72587500I218750J0D01*
G01*
G37*
%TD*%
%TO.C,R14*%
G36*
G01*
X55574250Y-71958500D02*
X54661750Y-71958500D01*
G75*
G02*
X54418000Y-71714750I0J243750D01*
G01*
X54418000Y-71227250D01*
G75*
G02*
X54661750Y-70983500I243750J0D01*
G01*
X55574250Y-70983500D01*
G75*
G02*
X55818000Y-71227250I0J-243750D01*
G01*
X55818000Y-71714750D01*
G75*
G02*
X55574250Y-71958500I-243750J0D01*
G01*
G37*
G36*
G01*
X55574250Y-70083500D02*
X54661750Y-70083500D01*
G75*
G02*
X54418000Y-69839750I0J243750D01*
G01*
X54418000Y-69352250D01*
G75*
G02*
X54661750Y-69108500I243750J0D01*
G01*
X55574250Y-69108500D01*
G75*
G02*
X55818000Y-69352250I0J-243750D01*
G01*
X55818000Y-69839750D01*
G75*
G02*
X55574250Y-70083500I-243750J0D01*
G01*
G37*
%TD*%
%TO.C,R15*%
G36*
G01*
X42542750Y-75788000D02*
X43055250Y-75788000D01*
G75*
G02*
X43274000Y-76006750I0J-218750D01*
G01*
X43274000Y-76444250D01*
G75*
G02*
X43055250Y-76663000I-218750J0D01*
G01*
X42542750Y-76663000D01*
G75*
G02*
X42324000Y-76444250I0J218750D01*
G01*
X42324000Y-76006750D01*
G75*
G02*
X42542750Y-75788000I218750J0D01*
G01*
G37*
G36*
G01*
X42542750Y-74213000D02*
X43055250Y-74213000D01*
G75*
G02*
X43274000Y-74431750I0J-218750D01*
G01*
X43274000Y-74869250D01*
G75*
G02*
X43055250Y-75088000I-218750J0D01*
G01*
X42542750Y-75088000D01*
G75*
G02*
X42324000Y-74869250I0J218750D01*
G01*
X42324000Y-74431750D01*
G75*
G02*
X42542750Y-74213000I218750J0D01*
G01*
G37*
%TD*%
%TO.C,R16*%
G36*
G01*
X44786000Y-72387750D02*
X44786000Y-72900250D01*
G75*
G02*
X44567250Y-73119000I-218750J0D01*
G01*
X44129750Y-73119000D01*
G75*
G02*
X43911000Y-72900250I0J218750D01*
G01*
X43911000Y-72387750D01*
G75*
G02*
X44129750Y-72169000I218750J0D01*
G01*
X44567250Y-72169000D01*
G75*
G02*
X44786000Y-72387750I0J-218750D01*
G01*
G37*
G36*
G01*
X43211000Y-72387750D02*
X43211000Y-72900250D01*
G75*
G02*
X42992250Y-73119000I-218750J0D01*
G01*
X42554750Y-73119000D01*
G75*
G02*
X42336000Y-72900250I0J218750D01*
G01*
X42336000Y-72387750D01*
G75*
G02*
X42554750Y-72169000I218750J0D01*
G01*
X42992250Y-72169000D01*
G75*
G02*
X43211000Y-72387750I0J-218750D01*
G01*
G37*
%TD*%
%TO.C,R17*%
G36*
G01*
X63002000Y-74940000D02*
X64252000Y-74940000D01*
G75*
G02*
X64502000Y-75190000I0J-250000D01*
G01*
X64502000Y-75940000D01*
G75*
G02*
X64252000Y-76190000I-250000J0D01*
G01*
X63002000Y-76190000D01*
G75*
G02*
X62752000Y-75940000I0J250000D01*
G01*
X62752000Y-75190000D01*
G75*
G02*
X63002000Y-74940000I250000J0D01*
G01*
G37*
G36*
G01*
X63002000Y-72140000D02*
X64252000Y-72140000D01*
G75*
G02*
X64502000Y-72390000I0J-250000D01*
G01*
X64502000Y-73140000D01*
G75*
G02*
X64252000Y-73390000I-250000J0D01*
G01*
X63002000Y-73390000D01*
G75*
G02*
X62752000Y-73140000I0J250000D01*
G01*
X62752000Y-72390000D01*
G75*
G02*
X63002000Y-72140000I250000J0D01*
G01*
G37*
%TD*%
%TO.C,R18*%
G36*
G01*
X58918500Y-71830250D02*
X58918500Y-70917750D01*
G75*
G02*
X59162250Y-70674000I243750J0D01*
G01*
X59649750Y-70674000D01*
G75*
G02*
X59893500Y-70917750I0J-243750D01*
G01*
X59893500Y-71830250D01*
G75*
G02*
X59649750Y-72074000I-243750J0D01*
G01*
X59162250Y-72074000D01*
G75*
G02*
X58918500Y-71830250I0J243750D01*
G01*
G37*
G36*
G01*
X57043500Y-71830250D02*
X57043500Y-70917750D01*
G75*
G02*
X57287250Y-70674000I243750J0D01*
G01*
X57774750Y-70674000D01*
G75*
G02*
X58018500Y-70917750I0J-243750D01*
G01*
X58018500Y-71830250D01*
G75*
G02*
X57774750Y-72074000I-243750J0D01*
G01*
X57287250Y-72074000D01*
G75*
G02*
X57043500Y-71830250I0J243750D01*
G01*
G37*
%TD*%
%TO.C,R19*%
G36*
G01*
X40383750Y-83001500D02*
X40896250Y-83001500D01*
G75*
G02*
X41115000Y-83220250I0J-218750D01*
G01*
X41115000Y-83657750D01*
G75*
G02*
X40896250Y-83876500I-218750J0D01*
G01*
X40383750Y-83876500D01*
G75*
G02*
X40165000Y-83657750I0J218750D01*
G01*
X40165000Y-83220250D01*
G75*
G02*
X40383750Y-83001500I218750J0D01*
G01*
G37*
G36*
G01*
X40383750Y-84576500D02*
X40896250Y-84576500D01*
G75*
G02*
X41115000Y-84795250I0J-218750D01*
G01*
X41115000Y-85232750D01*
G75*
G02*
X40896250Y-85451500I-218750J0D01*
G01*
X40383750Y-85451500D01*
G75*
G02*
X40165000Y-85232750I0J218750D01*
G01*
X40165000Y-84795250D01*
G75*
G02*
X40383750Y-84576500I218750J0D01*
G01*
G37*
%TD*%
%TO.C,R20*%
G36*
G01*
X55574250Y-80497500D02*
X54661750Y-80497500D01*
G75*
G02*
X54418000Y-80253750I0J243750D01*
G01*
X54418000Y-79766250D01*
G75*
G02*
X54661750Y-79522500I243750J0D01*
G01*
X55574250Y-79522500D01*
G75*
G02*
X55818000Y-79766250I0J-243750D01*
G01*
X55818000Y-80253750D01*
G75*
G02*
X55574250Y-80497500I-243750J0D01*
G01*
G37*
G36*
G01*
X55574250Y-82372500D02*
X54661750Y-82372500D01*
G75*
G02*
X54418000Y-82128750I0J243750D01*
G01*
X54418000Y-81641250D01*
G75*
G02*
X54661750Y-81397500I243750J0D01*
G01*
X55574250Y-81397500D01*
G75*
G02*
X55818000Y-81641250I0J-243750D01*
G01*
X55818000Y-82128750D01*
G75*
G02*
X55574250Y-82372500I-243750J0D01*
G01*
G37*
%TD*%
%TO.C,R21*%
G36*
G01*
X42542750Y-84601500D02*
X43055250Y-84601500D01*
G75*
G02*
X43274000Y-84820250I0J-218750D01*
G01*
X43274000Y-85257750D01*
G75*
G02*
X43055250Y-85476500I-218750J0D01*
G01*
X42542750Y-85476500D01*
G75*
G02*
X42324000Y-85257750I0J218750D01*
G01*
X42324000Y-84820250D01*
G75*
G02*
X42542750Y-84601500I218750J0D01*
G01*
G37*
G36*
G01*
X42542750Y-86176500D02*
X43055250Y-86176500D01*
G75*
G02*
X43274000Y-86395250I0J-218750D01*
G01*
X43274000Y-86832750D01*
G75*
G02*
X43055250Y-87051500I-218750J0D01*
G01*
X42542750Y-87051500D01*
G75*
G02*
X42324000Y-86832750I0J218750D01*
G01*
X42324000Y-86395250D01*
G75*
G02*
X42542750Y-86176500I218750J0D01*
G01*
G37*
%TD*%
%TO.C,R22*%
G36*
G01*
X43236500Y-82801750D02*
X43236500Y-83314250D01*
G75*
G02*
X43017750Y-83533000I-218750J0D01*
G01*
X42580250Y-83533000D01*
G75*
G02*
X42361500Y-83314250I0J218750D01*
G01*
X42361500Y-82801750D01*
G75*
G02*
X42580250Y-82583000I218750J0D01*
G01*
X43017750Y-82583000D01*
G75*
G02*
X43236500Y-82801750I0J-218750D01*
G01*
G37*
G36*
G01*
X44811500Y-82801750D02*
X44811500Y-83314250D01*
G75*
G02*
X44592750Y-83533000I-218750J0D01*
G01*
X44155250Y-83533000D01*
G75*
G02*
X43936500Y-83314250I0J218750D01*
G01*
X43936500Y-82801750D01*
G75*
G02*
X44155250Y-82583000I218750J0D01*
G01*
X44592750Y-82583000D01*
G75*
G02*
X44811500Y-82801750I0J-218750D01*
G01*
G37*
%TD*%
%TO.C,R23*%
G36*
G01*
X63002000Y-82560000D02*
X64252000Y-82560000D01*
G75*
G02*
X64502000Y-82810000I0J-250000D01*
G01*
X64502000Y-83560000D01*
G75*
G02*
X64252000Y-83810000I-250000J0D01*
G01*
X63002000Y-83810000D01*
G75*
G02*
X62752000Y-83560000I0J250000D01*
G01*
X62752000Y-82810000D01*
G75*
G02*
X63002000Y-82560000I250000J0D01*
G01*
G37*
G36*
G01*
X63002000Y-85360000D02*
X64252000Y-85360000D01*
G75*
G02*
X64502000Y-85610000I0J-250000D01*
G01*
X64502000Y-86360000D01*
G75*
G02*
X64252000Y-86610000I-250000J0D01*
G01*
X63002000Y-86610000D01*
G75*
G02*
X62752000Y-86360000I0J250000D01*
G01*
X62752000Y-85610000D01*
G75*
G02*
X63002000Y-85360000I250000J0D01*
G01*
G37*
%TD*%
%TO.C,R24*%
G36*
G01*
X57043500Y-82244250D02*
X57043500Y-81331750D01*
G75*
G02*
X57287250Y-81088000I243750J0D01*
G01*
X57774750Y-81088000D01*
G75*
G02*
X58018500Y-81331750I0J-243750D01*
G01*
X58018500Y-82244250D01*
G75*
G02*
X57774750Y-82488000I-243750J0D01*
G01*
X57287250Y-82488000D01*
G75*
G02*
X57043500Y-82244250I0J243750D01*
G01*
G37*
G36*
G01*
X58918500Y-82244250D02*
X58918500Y-81331750D01*
G75*
G02*
X59162250Y-81088000I243750J0D01*
G01*
X59649750Y-81088000D01*
G75*
G02*
X59893500Y-81331750I0J-243750D01*
G01*
X59893500Y-82244250D01*
G75*
G02*
X59649750Y-82488000I-243750J0D01*
G01*
X59162250Y-82488000D01*
G75*
G02*
X58918500Y-82244250I0J243750D01*
G01*
G37*
%TD*%
%TO.C,R25*%
G36*
G01*
X40383750Y-94990500D02*
X40896250Y-94990500D01*
G75*
G02*
X41115000Y-95209250I0J-218750D01*
G01*
X41115000Y-95646750D01*
G75*
G02*
X40896250Y-95865500I-218750J0D01*
G01*
X40383750Y-95865500D01*
G75*
G02*
X40165000Y-95646750I0J218750D01*
G01*
X40165000Y-95209250D01*
G75*
G02*
X40383750Y-94990500I218750J0D01*
G01*
G37*
G36*
G01*
X40383750Y-93415500D02*
X40896250Y-93415500D01*
G75*
G02*
X41115000Y-93634250I0J-218750D01*
G01*
X41115000Y-94071750D01*
G75*
G02*
X40896250Y-94290500I-218750J0D01*
G01*
X40383750Y-94290500D01*
G75*
G02*
X40165000Y-94071750I0J218750D01*
G01*
X40165000Y-93634250D01*
G75*
G02*
X40383750Y-93415500I218750J0D01*
G01*
G37*
%TD*%
%TO.C,R26*%
G36*
G01*
X55574250Y-90911500D02*
X54661750Y-90911500D01*
G75*
G02*
X54418000Y-90667750I0J243750D01*
G01*
X54418000Y-90180250D01*
G75*
G02*
X54661750Y-89936500I243750J0D01*
G01*
X55574250Y-89936500D01*
G75*
G02*
X55818000Y-90180250I0J-243750D01*
G01*
X55818000Y-90667750D01*
G75*
G02*
X55574250Y-90911500I-243750J0D01*
G01*
G37*
G36*
G01*
X55574250Y-92786500D02*
X54661750Y-92786500D01*
G75*
G02*
X54418000Y-92542750I0J243750D01*
G01*
X54418000Y-92055250D01*
G75*
G02*
X54661750Y-91811500I243750J0D01*
G01*
X55574250Y-91811500D01*
G75*
G02*
X55818000Y-92055250I0J-243750D01*
G01*
X55818000Y-92542750D01*
G75*
G02*
X55574250Y-92786500I-243750J0D01*
G01*
G37*
%TD*%
%TO.C,R27*%
G36*
G01*
X42542750Y-96590500D02*
X43055250Y-96590500D01*
G75*
G02*
X43274000Y-96809250I0J-218750D01*
G01*
X43274000Y-97246750D01*
G75*
G02*
X43055250Y-97465500I-218750J0D01*
G01*
X42542750Y-97465500D01*
G75*
G02*
X42324000Y-97246750I0J218750D01*
G01*
X42324000Y-96809250D01*
G75*
G02*
X42542750Y-96590500I218750J0D01*
G01*
G37*
G36*
G01*
X42542750Y-95015500D02*
X43055250Y-95015500D01*
G75*
G02*
X43274000Y-95234250I0J-218750D01*
G01*
X43274000Y-95671750D01*
G75*
G02*
X43055250Y-95890500I-218750J0D01*
G01*
X42542750Y-95890500D01*
G75*
G02*
X42324000Y-95671750I0J218750D01*
G01*
X42324000Y-95234250D01*
G75*
G02*
X42542750Y-95015500I218750J0D01*
G01*
G37*
%TD*%
%TO.C,R28*%
G36*
G01*
X44760500Y-93215750D02*
X44760500Y-93728250D01*
G75*
G02*
X44541750Y-93947000I-218750J0D01*
G01*
X44104250Y-93947000D01*
G75*
G02*
X43885500Y-93728250I0J218750D01*
G01*
X43885500Y-93215750D01*
G75*
G02*
X44104250Y-92997000I218750J0D01*
G01*
X44541750Y-92997000D01*
G75*
G02*
X44760500Y-93215750I0J-218750D01*
G01*
G37*
G36*
G01*
X43185500Y-93215750D02*
X43185500Y-93728250D01*
G75*
G02*
X42966750Y-93947000I-218750J0D01*
G01*
X42529250Y-93947000D01*
G75*
G02*
X42310500Y-93728250I0J218750D01*
G01*
X42310500Y-93215750D01*
G75*
G02*
X42529250Y-92997000I218750J0D01*
G01*
X42966750Y-92997000D01*
G75*
G02*
X43185500Y-93215750I0J-218750D01*
G01*
G37*
%TD*%
%TO.C,R29*%
G36*
G01*
X63002000Y-95774000D02*
X64252000Y-95774000D01*
G75*
G02*
X64502000Y-96024000I0J-250000D01*
G01*
X64502000Y-96774000D01*
G75*
G02*
X64252000Y-97024000I-250000J0D01*
G01*
X63002000Y-97024000D01*
G75*
G02*
X62752000Y-96774000I0J250000D01*
G01*
X62752000Y-96024000D01*
G75*
G02*
X63002000Y-95774000I250000J0D01*
G01*
G37*
G36*
G01*
X63002000Y-92974000D02*
X64252000Y-92974000D01*
G75*
G02*
X64502000Y-93224000I0J-250000D01*
G01*
X64502000Y-93974000D01*
G75*
G02*
X64252000Y-94224000I-250000J0D01*
G01*
X63002000Y-94224000D01*
G75*
G02*
X62752000Y-93974000I0J250000D01*
G01*
X62752000Y-93224000D01*
G75*
G02*
X63002000Y-92974000I250000J0D01*
G01*
G37*
%TD*%
%TO.C,R30*%
G36*
G01*
X58918500Y-92658250D02*
X58918500Y-91745750D01*
G75*
G02*
X59162250Y-91502000I243750J0D01*
G01*
X59649750Y-91502000D01*
G75*
G02*
X59893500Y-91745750I0J-243750D01*
G01*
X59893500Y-92658250D01*
G75*
G02*
X59649750Y-92902000I-243750J0D01*
G01*
X59162250Y-92902000D01*
G75*
G02*
X58918500Y-92658250I0J243750D01*
G01*
G37*
G36*
G01*
X57043500Y-92658250D02*
X57043500Y-91745750D01*
G75*
G02*
X57287250Y-91502000I243750J0D01*
G01*
X57774750Y-91502000D01*
G75*
G02*
X58018500Y-91745750I0J-243750D01*
G01*
X58018500Y-92658250D01*
G75*
G02*
X57774750Y-92902000I-243750J0D01*
G01*
X57287250Y-92902000D01*
G75*
G02*
X57043500Y-92658250I0J243750D01*
G01*
G37*
%TD*%
%TO.C,R31*%
G36*
G01*
X40383750Y-103829500D02*
X40896250Y-103829500D01*
G75*
G02*
X41115000Y-104048250I0J-218750D01*
G01*
X41115000Y-104485750D01*
G75*
G02*
X40896250Y-104704500I-218750J0D01*
G01*
X40383750Y-104704500D01*
G75*
G02*
X40165000Y-104485750I0J218750D01*
G01*
X40165000Y-104048250D01*
G75*
G02*
X40383750Y-103829500I218750J0D01*
G01*
G37*
G36*
G01*
X40383750Y-105404500D02*
X40896250Y-105404500D01*
G75*
G02*
X41115000Y-105623250I0J-218750D01*
G01*
X41115000Y-106060750D01*
G75*
G02*
X40896250Y-106279500I-218750J0D01*
G01*
X40383750Y-106279500D01*
G75*
G02*
X40165000Y-106060750I0J218750D01*
G01*
X40165000Y-105623250D01*
G75*
G02*
X40383750Y-105404500I218750J0D01*
G01*
G37*
%TD*%
%TO.C,R32*%
G36*
G01*
X55574250Y-101355500D02*
X54661750Y-101355500D01*
G75*
G02*
X54418000Y-101111750I0J243750D01*
G01*
X54418000Y-100624250D01*
G75*
G02*
X54661750Y-100380500I243750J0D01*
G01*
X55574250Y-100380500D01*
G75*
G02*
X55818000Y-100624250I0J-243750D01*
G01*
X55818000Y-101111750D01*
G75*
G02*
X55574250Y-101355500I-243750J0D01*
G01*
G37*
G36*
G01*
X55574250Y-103230500D02*
X54661750Y-103230500D01*
G75*
G02*
X54418000Y-102986750I0J243750D01*
G01*
X54418000Y-102499250D01*
G75*
G02*
X54661750Y-102255500I243750J0D01*
G01*
X55574250Y-102255500D01*
G75*
G02*
X55818000Y-102499250I0J-243750D01*
G01*
X55818000Y-102986750D01*
G75*
G02*
X55574250Y-103230500I-243750J0D01*
G01*
G37*
%TD*%
%TO.C,R33*%
G36*
G01*
X42542750Y-105455000D02*
X43055250Y-105455000D01*
G75*
G02*
X43274000Y-105673750I0J-218750D01*
G01*
X43274000Y-106111250D01*
G75*
G02*
X43055250Y-106330000I-218750J0D01*
G01*
X42542750Y-106330000D01*
G75*
G02*
X42324000Y-106111250I0J218750D01*
G01*
X42324000Y-105673750D01*
G75*
G02*
X42542750Y-105455000I218750J0D01*
G01*
G37*
G36*
G01*
X42542750Y-107030000D02*
X43055250Y-107030000D01*
G75*
G02*
X43274000Y-107248750I0J-218750D01*
G01*
X43274000Y-107686250D01*
G75*
G02*
X43055250Y-107905000I-218750J0D01*
G01*
X42542750Y-107905000D01*
G75*
G02*
X42324000Y-107686250I0J218750D01*
G01*
X42324000Y-107248750D01*
G75*
G02*
X42542750Y-107030000I218750J0D01*
G01*
G37*
%TD*%
%TO.C,R34*%
G36*
G01*
X43185500Y-103629750D02*
X43185500Y-104142250D01*
G75*
G02*
X42966750Y-104361000I-218750J0D01*
G01*
X42529250Y-104361000D01*
G75*
G02*
X42310500Y-104142250I0J218750D01*
G01*
X42310500Y-103629750D01*
G75*
G02*
X42529250Y-103411000I218750J0D01*
G01*
X42966750Y-103411000D01*
G75*
G02*
X43185500Y-103629750I0J-218750D01*
G01*
G37*
G36*
G01*
X44760500Y-103629750D02*
X44760500Y-104142250D01*
G75*
G02*
X44541750Y-104361000I-218750J0D01*
G01*
X44104250Y-104361000D01*
G75*
G02*
X43885500Y-104142250I0J218750D01*
G01*
X43885500Y-103629750D01*
G75*
G02*
X44104250Y-103411000I218750J0D01*
G01*
X44541750Y-103411000D01*
G75*
G02*
X44760500Y-103629750I0J-218750D01*
G01*
G37*
%TD*%
%TO.C,R35*%
G36*
G01*
X63002000Y-103388000D02*
X64252000Y-103388000D01*
G75*
G02*
X64502000Y-103638000I0J-250000D01*
G01*
X64502000Y-104388000D01*
G75*
G02*
X64252000Y-104638000I-250000J0D01*
G01*
X63002000Y-104638000D01*
G75*
G02*
X62752000Y-104388000I0J250000D01*
G01*
X62752000Y-103638000D01*
G75*
G02*
X63002000Y-103388000I250000J0D01*
G01*
G37*
G36*
G01*
X63002000Y-106188000D02*
X64252000Y-106188000D01*
G75*
G02*
X64502000Y-106438000I0J-250000D01*
G01*
X64502000Y-107188000D01*
G75*
G02*
X64252000Y-107438000I-250000J0D01*
G01*
X63002000Y-107438000D01*
G75*
G02*
X62752000Y-107188000I0J250000D01*
G01*
X62752000Y-106438000D01*
G75*
G02*
X63002000Y-106188000I250000J0D01*
G01*
G37*
%TD*%
%TO.C,R36*%
G36*
G01*
X57043500Y-103072250D02*
X57043500Y-102159750D01*
G75*
G02*
X57287250Y-101916000I243750J0D01*
G01*
X57774750Y-101916000D01*
G75*
G02*
X58018500Y-102159750I0J-243750D01*
G01*
X58018500Y-103072250D01*
G75*
G02*
X57774750Y-103316000I-243750J0D01*
G01*
X57287250Y-103316000D01*
G75*
G02*
X57043500Y-103072250I0J243750D01*
G01*
G37*
G36*
G01*
X58918500Y-103072250D02*
X58918500Y-102159750D01*
G75*
G02*
X59162250Y-101916000I243750J0D01*
G01*
X59649750Y-101916000D01*
G75*
G02*
X59893500Y-102159750I0J-243750D01*
G01*
X59893500Y-103072250D01*
G75*
G02*
X59649750Y-103316000I-243750J0D01*
G01*
X59162250Y-103316000D01*
G75*
G02*
X58918500Y-103072250I0J243750D01*
G01*
G37*
%TD*%
%TO.C,R37*%
G36*
G01*
X40383750Y-114192500D02*
X40896250Y-114192500D01*
G75*
G02*
X41115000Y-114411250I0J-218750D01*
G01*
X41115000Y-114848750D01*
G75*
G02*
X40896250Y-115067500I-218750J0D01*
G01*
X40383750Y-115067500D01*
G75*
G02*
X40165000Y-114848750I0J218750D01*
G01*
X40165000Y-114411250D01*
G75*
G02*
X40383750Y-114192500I218750J0D01*
G01*
G37*
G36*
G01*
X40383750Y-115767500D02*
X40896250Y-115767500D01*
G75*
G02*
X41115000Y-115986250I0J-218750D01*
G01*
X41115000Y-116423750D01*
G75*
G02*
X40896250Y-116642500I-218750J0D01*
G01*
X40383750Y-116642500D01*
G75*
G02*
X40165000Y-116423750I0J218750D01*
G01*
X40165000Y-115986250D01*
G75*
G02*
X40383750Y-115767500I218750J0D01*
G01*
G37*
%TD*%
%TO.C,R38*%
G36*
G01*
X55574250Y-113614500D02*
X54661750Y-113614500D01*
G75*
G02*
X54418000Y-113370750I0J243750D01*
G01*
X54418000Y-112883250D01*
G75*
G02*
X54661750Y-112639500I243750J0D01*
G01*
X55574250Y-112639500D01*
G75*
G02*
X55818000Y-112883250I0J-243750D01*
G01*
X55818000Y-113370750D01*
G75*
G02*
X55574250Y-113614500I-243750J0D01*
G01*
G37*
G36*
G01*
X55574250Y-111739500D02*
X54661750Y-111739500D01*
G75*
G02*
X54418000Y-111495750I0J243750D01*
G01*
X54418000Y-111008250D01*
G75*
G02*
X54661750Y-110764500I243750J0D01*
G01*
X55574250Y-110764500D01*
G75*
G02*
X55818000Y-111008250I0J-243750D01*
G01*
X55818000Y-111495750D01*
G75*
G02*
X55574250Y-111739500I-243750J0D01*
G01*
G37*
%TD*%
%TO.C,R39*%
G36*
G01*
X42542750Y-117469500D02*
X43055250Y-117469500D01*
G75*
G02*
X43274000Y-117688250I0J-218750D01*
G01*
X43274000Y-118125750D01*
G75*
G02*
X43055250Y-118344500I-218750J0D01*
G01*
X42542750Y-118344500D01*
G75*
G02*
X42324000Y-118125750I0J218750D01*
G01*
X42324000Y-117688250D01*
G75*
G02*
X42542750Y-117469500I218750J0D01*
G01*
G37*
G36*
G01*
X42542750Y-115894500D02*
X43055250Y-115894500D01*
G75*
G02*
X43274000Y-116113250I0J-218750D01*
G01*
X43274000Y-116550750D01*
G75*
G02*
X43055250Y-116769500I-218750J0D01*
G01*
X42542750Y-116769500D01*
G75*
G02*
X42324000Y-116550750I0J218750D01*
G01*
X42324000Y-116113250D01*
G75*
G02*
X42542750Y-115894500I218750J0D01*
G01*
G37*
%TD*%
%TO.C,R40*%
G36*
G01*
X44760500Y-114043750D02*
X44760500Y-114556250D01*
G75*
G02*
X44541750Y-114775000I-218750J0D01*
G01*
X44104250Y-114775000D01*
G75*
G02*
X43885500Y-114556250I0J218750D01*
G01*
X43885500Y-114043750D01*
G75*
G02*
X44104250Y-113825000I218750J0D01*
G01*
X44541750Y-113825000D01*
G75*
G02*
X44760500Y-114043750I0J-218750D01*
G01*
G37*
G36*
G01*
X43185500Y-114043750D02*
X43185500Y-114556250D01*
G75*
G02*
X42966750Y-114775000I-218750J0D01*
G01*
X42529250Y-114775000D01*
G75*
G02*
X42310500Y-114556250I0J218750D01*
G01*
X42310500Y-114043750D01*
G75*
G02*
X42529250Y-113825000I218750J0D01*
G01*
X42966750Y-113825000D01*
G75*
G02*
X43185500Y-114043750I0J-218750D01*
G01*
G37*
%TD*%
%TO.C,R41*%
G36*
G01*
X63002000Y-116599000D02*
X64252000Y-116599000D01*
G75*
G02*
X64502000Y-116849000I0J-250000D01*
G01*
X64502000Y-117599000D01*
G75*
G02*
X64252000Y-117849000I-250000J0D01*
G01*
X63002000Y-117849000D01*
G75*
G02*
X62752000Y-117599000I0J250000D01*
G01*
X62752000Y-116849000D01*
G75*
G02*
X63002000Y-116599000I250000J0D01*
G01*
G37*
G36*
G01*
X63002000Y-113799000D02*
X64252000Y-113799000D01*
G75*
G02*
X64502000Y-114049000I0J-250000D01*
G01*
X64502000Y-114799000D01*
G75*
G02*
X64252000Y-115049000I-250000J0D01*
G01*
X63002000Y-115049000D01*
G75*
G02*
X62752000Y-114799000I0J250000D01*
G01*
X62752000Y-114049000D01*
G75*
G02*
X63002000Y-113799000I250000J0D01*
G01*
G37*
%TD*%
%TO.C,R42*%
G36*
G01*
X58918500Y-113486250D02*
X58918500Y-112573750D01*
G75*
G02*
X59162250Y-112330000I243750J0D01*
G01*
X59649750Y-112330000D01*
G75*
G02*
X59893500Y-112573750I0J-243750D01*
G01*
X59893500Y-113486250D01*
G75*
G02*
X59649750Y-113730000I-243750J0D01*
G01*
X59162250Y-113730000D01*
G75*
G02*
X58918500Y-113486250I0J243750D01*
G01*
G37*
G36*
G01*
X57043500Y-113486250D02*
X57043500Y-112573750D01*
G75*
G02*
X57287250Y-112330000I243750J0D01*
G01*
X57774750Y-112330000D01*
G75*
G02*
X58018500Y-112573750I0J-243750D01*
G01*
X58018500Y-113486250D01*
G75*
G02*
X57774750Y-113730000I-243750J0D01*
G01*
X57287250Y-113730000D01*
G75*
G02*
X57043500Y-113486250I0J243750D01*
G01*
G37*
%TD*%
%TO.C,R43*%
G36*
G01*
X40383750Y-124657500D02*
X40896250Y-124657500D01*
G75*
G02*
X41115000Y-124876250I0J-218750D01*
G01*
X41115000Y-125313750D01*
G75*
G02*
X40896250Y-125532500I-218750J0D01*
G01*
X40383750Y-125532500D01*
G75*
G02*
X40165000Y-125313750I0J218750D01*
G01*
X40165000Y-124876250D01*
G75*
G02*
X40383750Y-124657500I218750J0D01*
G01*
G37*
G36*
G01*
X40383750Y-126232500D02*
X40896250Y-126232500D01*
G75*
G02*
X41115000Y-126451250I0J-218750D01*
G01*
X41115000Y-126888750D01*
G75*
G02*
X40896250Y-127107500I-218750J0D01*
G01*
X40383750Y-127107500D01*
G75*
G02*
X40165000Y-126888750I0J218750D01*
G01*
X40165000Y-126451250D01*
G75*
G02*
X40383750Y-126232500I218750J0D01*
G01*
G37*
%TD*%
%TO.C,R44*%
G36*
G01*
X55574250Y-124028500D02*
X54661750Y-124028500D01*
G75*
G02*
X54418000Y-123784750I0J243750D01*
G01*
X54418000Y-123297250D01*
G75*
G02*
X54661750Y-123053500I243750J0D01*
G01*
X55574250Y-123053500D01*
G75*
G02*
X55818000Y-123297250I0J-243750D01*
G01*
X55818000Y-123784750D01*
G75*
G02*
X55574250Y-124028500I-243750J0D01*
G01*
G37*
G36*
G01*
X55574250Y-122153500D02*
X54661750Y-122153500D01*
G75*
G02*
X54418000Y-121909750I0J243750D01*
G01*
X54418000Y-121422250D01*
G75*
G02*
X54661750Y-121178500I243750J0D01*
G01*
X55574250Y-121178500D01*
G75*
G02*
X55818000Y-121422250I0J-243750D01*
G01*
X55818000Y-121909750D01*
G75*
G02*
X55574250Y-122153500I-243750J0D01*
G01*
G37*
%TD*%
%TO.C,R45*%
G36*
G01*
X42542750Y-126308500D02*
X43055250Y-126308500D01*
G75*
G02*
X43274000Y-126527250I0J-218750D01*
G01*
X43274000Y-126964750D01*
G75*
G02*
X43055250Y-127183500I-218750J0D01*
G01*
X42542750Y-127183500D01*
G75*
G02*
X42324000Y-126964750I0J218750D01*
G01*
X42324000Y-126527250D01*
G75*
G02*
X42542750Y-126308500I218750J0D01*
G01*
G37*
G36*
G01*
X42542750Y-127883500D02*
X43055250Y-127883500D01*
G75*
G02*
X43274000Y-128102250I0J-218750D01*
G01*
X43274000Y-128539750D01*
G75*
G02*
X43055250Y-128758500I-218750J0D01*
G01*
X42542750Y-128758500D01*
G75*
G02*
X42324000Y-128539750I0J218750D01*
G01*
X42324000Y-128102250D01*
G75*
G02*
X42542750Y-127883500I218750J0D01*
G01*
G37*
%TD*%
%TO.C,R46*%
G36*
G01*
X43185500Y-124457750D02*
X43185500Y-124970250D01*
G75*
G02*
X42966750Y-125189000I-218750J0D01*
G01*
X42529250Y-125189000D01*
G75*
G02*
X42310500Y-124970250I0J218750D01*
G01*
X42310500Y-124457750D01*
G75*
G02*
X42529250Y-124239000I218750J0D01*
G01*
X42966750Y-124239000D01*
G75*
G02*
X43185500Y-124457750I0J-218750D01*
G01*
G37*
G36*
G01*
X44760500Y-124457750D02*
X44760500Y-124970250D01*
G75*
G02*
X44541750Y-125189000I-218750J0D01*
G01*
X44104250Y-125189000D01*
G75*
G02*
X43885500Y-124970250I0J218750D01*
G01*
X43885500Y-124457750D01*
G75*
G02*
X44104250Y-124239000I218750J0D01*
G01*
X44541750Y-124239000D01*
G75*
G02*
X44760500Y-124457750I0J-218750D01*
G01*
G37*
%TD*%
%TO.C,R47*%
G36*
G01*
X63002000Y-124216000D02*
X64252000Y-124216000D01*
G75*
G02*
X64502000Y-124466000I0J-250000D01*
G01*
X64502000Y-125216000D01*
G75*
G02*
X64252000Y-125466000I-250000J0D01*
G01*
X63002000Y-125466000D01*
G75*
G02*
X62752000Y-125216000I0J250000D01*
G01*
X62752000Y-124466000D01*
G75*
G02*
X63002000Y-124216000I250000J0D01*
G01*
G37*
G36*
G01*
X63002000Y-127016000D02*
X64252000Y-127016000D01*
G75*
G02*
X64502000Y-127266000I0J-250000D01*
G01*
X64502000Y-128016000D01*
G75*
G02*
X64252000Y-128266000I-250000J0D01*
G01*
X63002000Y-128266000D01*
G75*
G02*
X62752000Y-128016000I0J250000D01*
G01*
X62752000Y-127266000D01*
G75*
G02*
X63002000Y-127016000I250000J0D01*
G01*
G37*
%TD*%
%TO.C,R48*%
G36*
G01*
X57043500Y-123900250D02*
X57043500Y-122987750D01*
G75*
G02*
X57287250Y-122744000I243750J0D01*
G01*
X57774750Y-122744000D01*
G75*
G02*
X58018500Y-122987750I0J-243750D01*
G01*
X58018500Y-123900250D01*
G75*
G02*
X57774750Y-124144000I-243750J0D01*
G01*
X57287250Y-124144000D01*
G75*
G02*
X57043500Y-123900250I0J243750D01*
G01*
G37*
G36*
G01*
X58918500Y-123900250D02*
X58918500Y-122987750D01*
G75*
G02*
X59162250Y-122744000I243750J0D01*
G01*
X59649750Y-122744000D01*
G75*
G02*
X59893500Y-122987750I0J-243750D01*
G01*
X59893500Y-123900250D01*
G75*
G02*
X59649750Y-124144000I-243750J0D01*
G01*
X59162250Y-124144000D01*
G75*
G02*
X58918500Y-123900250I0J243750D01*
G01*
G37*
%TD*%
%TO.C,R49*%
G36*
G01*
X40383750Y-136646500D02*
X40896250Y-136646500D01*
G75*
G02*
X41115000Y-136865250I0J-218750D01*
G01*
X41115000Y-137302750D01*
G75*
G02*
X40896250Y-137521500I-218750J0D01*
G01*
X40383750Y-137521500D01*
G75*
G02*
X40165000Y-137302750I0J218750D01*
G01*
X40165000Y-136865250D01*
G75*
G02*
X40383750Y-136646500I218750J0D01*
G01*
G37*
G36*
G01*
X40383750Y-135071500D02*
X40896250Y-135071500D01*
G75*
G02*
X41115000Y-135290250I0J-218750D01*
G01*
X41115000Y-135727750D01*
G75*
G02*
X40896250Y-135946500I-218750J0D01*
G01*
X40383750Y-135946500D01*
G75*
G02*
X40165000Y-135727750I0J218750D01*
G01*
X40165000Y-135290250D01*
G75*
G02*
X40383750Y-135071500I218750J0D01*
G01*
G37*
%TD*%
%TO.C,R50*%
G36*
G01*
X55574250Y-132597500D02*
X54661750Y-132597500D01*
G75*
G02*
X54418000Y-132353750I0J243750D01*
G01*
X54418000Y-131866250D01*
G75*
G02*
X54661750Y-131622500I243750J0D01*
G01*
X55574250Y-131622500D01*
G75*
G02*
X55818000Y-131866250I0J-243750D01*
G01*
X55818000Y-132353750D01*
G75*
G02*
X55574250Y-132597500I-243750J0D01*
G01*
G37*
G36*
G01*
X55574250Y-134472500D02*
X54661750Y-134472500D01*
G75*
G02*
X54418000Y-134228750I0J243750D01*
G01*
X54418000Y-133741250D01*
G75*
G02*
X54661750Y-133497500I243750J0D01*
G01*
X55574250Y-133497500D01*
G75*
G02*
X55818000Y-133741250I0J-243750D01*
G01*
X55818000Y-134228750D01*
G75*
G02*
X55574250Y-134472500I-243750J0D01*
G01*
G37*
%TD*%
%TO.C,R51*%
G36*
G01*
X42542750Y-138297500D02*
X43055250Y-138297500D01*
G75*
G02*
X43274000Y-138516250I0J-218750D01*
G01*
X43274000Y-138953750D01*
G75*
G02*
X43055250Y-139172500I-218750J0D01*
G01*
X42542750Y-139172500D01*
G75*
G02*
X42324000Y-138953750I0J218750D01*
G01*
X42324000Y-138516250D01*
G75*
G02*
X42542750Y-138297500I218750J0D01*
G01*
G37*
G36*
G01*
X42542750Y-136722500D02*
X43055250Y-136722500D01*
G75*
G02*
X43274000Y-136941250I0J-218750D01*
G01*
X43274000Y-137378750D01*
G75*
G02*
X43055250Y-137597500I-218750J0D01*
G01*
X42542750Y-137597500D01*
G75*
G02*
X42324000Y-137378750I0J218750D01*
G01*
X42324000Y-136941250D01*
G75*
G02*
X42542750Y-136722500I218750J0D01*
G01*
G37*
%TD*%
%TO.C,R52*%
G36*
G01*
X44786000Y-134871750D02*
X44786000Y-135384250D01*
G75*
G02*
X44567250Y-135603000I-218750J0D01*
G01*
X44129750Y-135603000D01*
G75*
G02*
X43911000Y-135384250I0J218750D01*
G01*
X43911000Y-134871750D01*
G75*
G02*
X44129750Y-134653000I218750J0D01*
G01*
X44567250Y-134653000D01*
G75*
G02*
X44786000Y-134871750I0J-218750D01*
G01*
G37*
G36*
G01*
X43211000Y-134871750D02*
X43211000Y-135384250D01*
G75*
G02*
X42992250Y-135603000I-218750J0D01*
G01*
X42554750Y-135603000D01*
G75*
G02*
X42336000Y-135384250I0J218750D01*
G01*
X42336000Y-134871750D01*
G75*
G02*
X42554750Y-134653000I218750J0D01*
G01*
X42992250Y-134653000D01*
G75*
G02*
X43211000Y-134871750I0J-218750D01*
G01*
G37*
%TD*%
%TO.C,R53*%
G36*
G01*
X63002000Y-137430000D02*
X64252000Y-137430000D01*
G75*
G02*
X64502000Y-137680000I0J-250000D01*
G01*
X64502000Y-138430000D01*
G75*
G02*
X64252000Y-138680000I-250000J0D01*
G01*
X63002000Y-138680000D01*
G75*
G02*
X62752000Y-138430000I0J250000D01*
G01*
X62752000Y-137680000D01*
G75*
G02*
X63002000Y-137430000I250000J0D01*
G01*
G37*
G36*
G01*
X63002000Y-134630000D02*
X64252000Y-134630000D01*
G75*
G02*
X64502000Y-134880000I0J-250000D01*
G01*
X64502000Y-135630000D01*
G75*
G02*
X64252000Y-135880000I-250000J0D01*
G01*
X63002000Y-135880000D01*
G75*
G02*
X62752000Y-135630000I0J250000D01*
G01*
X62752000Y-134880000D01*
G75*
G02*
X63002000Y-134630000I250000J0D01*
G01*
G37*
%TD*%
%TO.C,R54*%
G36*
G01*
X58948500Y-134314250D02*
X58948500Y-133401750D01*
G75*
G02*
X59192250Y-133158000I243750J0D01*
G01*
X59679750Y-133158000D01*
G75*
G02*
X59923500Y-133401750I0J-243750D01*
G01*
X59923500Y-134314250D01*
G75*
G02*
X59679750Y-134558000I-243750J0D01*
G01*
X59192250Y-134558000D01*
G75*
G02*
X58948500Y-134314250I0J243750D01*
G01*
G37*
G36*
G01*
X57073500Y-134314250D02*
X57073500Y-133401750D01*
G75*
G02*
X57317250Y-133158000I243750J0D01*
G01*
X57804750Y-133158000D01*
G75*
G02*
X58048500Y-133401750I0J-243750D01*
G01*
X58048500Y-134314250D01*
G75*
G02*
X57804750Y-134558000I-243750J0D01*
G01*
X57317250Y-134558000D01*
G75*
G02*
X57073500Y-134314250I0J243750D01*
G01*
G37*
%TD*%
%TO.C,R55*%
G36*
G01*
X40383750Y-145485500D02*
X40896250Y-145485500D01*
G75*
G02*
X41115000Y-145704250I0J-218750D01*
G01*
X41115000Y-146141750D01*
G75*
G02*
X40896250Y-146360500I-218750J0D01*
G01*
X40383750Y-146360500D01*
G75*
G02*
X40165000Y-146141750I0J218750D01*
G01*
X40165000Y-145704250D01*
G75*
G02*
X40383750Y-145485500I218750J0D01*
G01*
G37*
G36*
G01*
X40383750Y-147060500D02*
X40896250Y-147060500D01*
G75*
G02*
X41115000Y-147279250I0J-218750D01*
G01*
X41115000Y-147716750D01*
G75*
G02*
X40896250Y-147935500I-218750J0D01*
G01*
X40383750Y-147935500D01*
G75*
G02*
X40165000Y-147716750I0J218750D01*
G01*
X40165000Y-147279250D01*
G75*
G02*
X40383750Y-147060500I218750J0D01*
G01*
G37*
%TD*%
%TO.C,R56*%
G36*
G01*
X55574250Y-142981500D02*
X54661750Y-142981500D01*
G75*
G02*
X54418000Y-142737750I0J243750D01*
G01*
X54418000Y-142250250D01*
G75*
G02*
X54661750Y-142006500I243750J0D01*
G01*
X55574250Y-142006500D01*
G75*
G02*
X55818000Y-142250250I0J-243750D01*
G01*
X55818000Y-142737750D01*
G75*
G02*
X55574250Y-142981500I-243750J0D01*
G01*
G37*
G36*
G01*
X55574250Y-144856500D02*
X54661750Y-144856500D01*
G75*
G02*
X54418000Y-144612750I0J243750D01*
G01*
X54418000Y-144125250D01*
G75*
G02*
X54661750Y-143881500I243750J0D01*
G01*
X55574250Y-143881500D01*
G75*
G02*
X55818000Y-144125250I0J-243750D01*
G01*
X55818000Y-144612750D01*
G75*
G02*
X55574250Y-144856500I-243750J0D01*
G01*
G37*
%TD*%
%TO.C,R57*%
G36*
G01*
X42542750Y-148711500D02*
X43055250Y-148711500D01*
G75*
G02*
X43274000Y-148930250I0J-218750D01*
G01*
X43274000Y-149367750D01*
G75*
G02*
X43055250Y-149586500I-218750J0D01*
G01*
X42542750Y-149586500D01*
G75*
G02*
X42324000Y-149367750I0J218750D01*
G01*
X42324000Y-148930250D01*
G75*
G02*
X42542750Y-148711500I218750J0D01*
G01*
G37*
G36*
G01*
X42542750Y-147136500D02*
X43055250Y-147136500D01*
G75*
G02*
X43274000Y-147355250I0J-218750D01*
G01*
X43274000Y-147792750D01*
G75*
G02*
X43055250Y-148011500I-218750J0D01*
G01*
X42542750Y-148011500D01*
G75*
G02*
X42324000Y-147792750I0J218750D01*
G01*
X42324000Y-147355250D01*
G75*
G02*
X42542750Y-147136500I218750J0D01*
G01*
G37*
%TD*%
%TO.C,R58*%
G36*
G01*
X44760500Y-145285750D02*
X44760500Y-145798250D01*
G75*
G02*
X44541750Y-146017000I-218750J0D01*
G01*
X44104250Y-146017000D01*
G75*
G02*
X43885500Y-145798250I0J218750D01*
G01*
X43885500Y-145285750D01*
G75*
G02*
X44104250Y-145067000I218750J0D01*
G01*
X44541750Y-145067000D01*
G75*
G02*
X44760500Y-145285750I0J-218750D01*
G01*
G37*
G36*
G01*
X43185500Y-145285750D02*
X43185500Y-145798250D01*
G75*
G02*
X42966750Y-146017000I-218750J0D01*
G01*
X42529250Y-146017000D01*
G75*
G02*
X42310500Y-145798250I0J218750D01*
G01*
X42310500Y-145285750D01*
G75*
G02*
X42529250Y-145067000I218750J0D01*
G01*
X42966750Y-145067000D01*
G75*
G02*
X43185500Y-145285750I0J-218750D01*
G01*
G37*
%TD*%
%TO.C,R59*%
G36*
G01*
X63002000Y-145044000D02*
X64252000Y-145044000D01*
G75*
G02*
X64502000Y-145294000I0J-250000D01*
G01*
X64502000Y-146044000D01*
G75*
G02*
X64252000Y-146294000I-250000J0D01*
G01*
X63002000Y-146294000D01*
G75*
G02*
X62752000Y-146044000I0J250000D01*
G01*
X62752000Y-145294000D01*
G75*
G02*
X63002000Y-145044000I250000J0D01*
G01*
G37*
G36*
G01*
X63002000Y-147844000D02*
X64252000Y-147844000D01*
G75*
G02*
X64502000Y-148094000I0J-250000D01*
G01*
X64502000Y-148844000D01*
G75*
G02*
X64252000Y-149094000I-250000J0D01*
G01*
X63002000Y-149094000D01*
G75*
G02*
X62752000Y-148844000I0J250000D01*
G01*
X62752000Y-148094000D01*
G75*
G02*
X63002000Y-147844000I250000J0D01*
G01*
G37*
%TD*%
%TO.C,R60*%
G36*
G01*
X57043500Y-144728250D02*
X57043500Y-143815750D01*
G75*
G02*
X57287250Y-143572000I243750J0D01*
G01*
X57774750Y-143572000D01*
G75*
G02*
X58018500Y-143815750I0J-243750D01*
G01*
X58018500Y-144728250D01*
G75*
G02*
X57774750Y-144972000I-243750J0D01*
G01*
X57287250Y-144972000D01*
G75*
G02*
X57043500Y-144728250I0J243750D01*
G01*
G37*
G36*
G01*
X58918500Y-144728250D02*
X58918500Y-143815750D01*
G75*
G02*
X59162250Y-143572000I243750J0D01*
G01*
X59649750Y-143572000D01*
G75*
G02*
X59893500Y-143815750I0J-243750D01*
G01*
X59893500Y-144728250D01*
G75*
G02*
X59649750Y-144972000I-243750J0D01*
G01*
X59162250Y-144972000D01*
G75*
G02*
X58918500Y-144728250I0J243750D01*
G01*
G37*
%TD*%
%TO.C,R61*%
G36*
G01*
X40383750Y-155899500D02*
X40896250Y-155899500D01*
G75*
G02*
X41115000Y-156118250I0J-218750D01*
G01*
X41115000Y-156555750D01*
G75*
G02*
X40896250Y-156774500I-218750J0D01*
G01*
X40383750Y-156774500D01*
G75*
G02*
X40165000Y-156555750I0J218750D01*
G01*
X40165000Y-156118250D01*
G75*
G02*
X40383750Y-155899500I218750J0D01*
G01*
G37*
G36*
G01*
X40383750Y-157474500D02*
X40896250Y-157474500D01*
G75*
G02*
X41115000Y-157693250I0J-218750D01*
G01*
X41115000Y-158130750D01*
G75*
G02*
X40896250Y-158349500I-218750J0D01*
G01*
X40383750Y-158349500D01*
G75*
G02*
X40165000Y-158130750I0J218750D01*
G01*
X40165000Y-157693250D01*
G75*
G02*
X40383750Y-157474500I218750J0D01*
G01*
G37*
%TD*%
%TO.C,R62*%
G36*
G01*
X55574250Y-155300500D02*
X54661750Y-155300500D01*
G75*
G02*
X54418000Y-155056750I0J243750D01*
G01*
X54418000Y-154569250D01*
G75*
G02*
X54661750Y-154325500I243750J0D01*
G01*
X55574250Y-154325500D01*
G75*
G02*
X55818000Y-154569250I0J-243750D01*
G01*
X55818000Y-155056750D01*
G75*
G02*
X55574250Y-155300500I-243750J0D01*
G01*
G37*
G36*
G01*
X55574250Y-153425500D02*
X54661750Y-153425500D01*
G75*
G02*
X54418000Y-153181750I0J243750D01*
G01*
X54418000Y-152694250D01*
G75*
G02*
X54661750Y-152450500I243750J0D01*
G01*
X55574250Y-152450500D01*
G75*
G02*
X55818000Y-152694250I0J-243750D01*
G01*
X55818000Y-153181750D01*
G75*
G02*
X55574250Y-153425500I-243750J0D01*
G01*
G37*
%TD*%
%TO.C,R63*%
G36*
G01*
X95464000Y-143315001D02*
X95464000Y-141164999D01*
G75*
G02*
X95713999Y-140915000I249999J0D01*
G01*
X96564001Y-140915000D01*
G75*
G02*
X96814000Y-141164999I0J-249999D01*
G01*
X96814000Y-143315001D01*
G75*
G02*
X96564001Y-143565000I-249999J0D01*
G01*
X95713999Y-143565000D01*
G75*
G02*
X95464000Y-143315001I0J249999D01*
G01*
G37*
G36*
G01*
X99964000Y-143315001D02*
X99964000Y-141164999D01*
G75*
G02*
X100213999Y-140915000I249999J0D01*
G01*
X101064001Y-140915000D01*
G75*
G02*
X101314000Y-141164999I0J-249999D01*
G01*
X101314000Y-143315001D01*
G75*
G02*
X101064001Y-143565000I-249999J0D01*
G01*
X100213999Y-143565000D01*
G75*
G02*
X99964000Y-143315001I0J249999D01*
G01*
G37*
%TD*%
%TO.C,R64*%
G36*
G01*
X42542750Y-157499500D02*
X43055250Y-157499500D01*
G75*
G02*
X43274000Y-157718250I0J-218750D01*
G01*
X43274000Y-158155750D01*
G75*
G02*
X43055250Y-158374500I-218750J0D01*
G01*
X42542750Y-158374500D01*
G75*
G02*
X42324000Y-158155750I0J218750D01*
G01*
X42324000Y-157718250D01*
G75*
G02*
X42542750Y-157499500I218750J0D01*
G01*
G37*
G36*
G01*
X42542750Y-159074500D02*
X43055250Y-159074500D01*
G75*
G02*
X43274000Y-159293250I0J-218750D01*
G01*
X43274000Y-159730750D01*
G75*
G02*
X43055250Y-159949500I-218750J0D01*
G01*
X42542750Y-159949500D01*
G75*
G02*
X42324000Y-159730750I0J218750D01*
G01*
X42324000Y-159293250D01*
G75*
G02*
X42542750Y-159074500I218750J0D01*
G01*
G37*
%TD*%
%TO.C,R65*%
G36*
G01*
X43185500Y-155699750D02*
X43185500Y-156212250D01*
G75*
G02*
X42966750Y-156431000I-218750J0D01*
G01*
X42529250Y-156431000D01*
G75*
G02*
X42310500Y-156212250I0J218750D01*
G01*
X42310500Y-155699750D01*
G75*
G02*
X42529250Y-155481000I218750J0D01*
G01*
X42966750Y-155481000D01*
G75*
G02*
X43185500Y-155699750I0J-218750D01*
G01*
G37*
G36*
G01*
X44760500Y-155699750D02*
X44760500Y-156212250D01*
G75*
G02*
X44541750Y-156431000I-218750J0D01*
G01*
X44104250Y-156431000D01*
G75*
G02*
X43885500Y-156212250I0J218750D01*
G01*
X43885500Y-155699750D01*
G75*
G02*
X44104250Y-155481000I218750J0D01*
G01*
X44541750Y-155481000D01*
G75*
G02*
X44760500Y-155699750I0J-218750D01*
G01*
G37*
%TD*%
%TO.C,R66*%
G36*
G01*
X63002000Y-155452000D02*
X64252000Y-155452000D01*
G75*
G02*
X64502000Y-155702000I0J-250000D01*
G01*
X64502000Y-156452000D01*
G75*
G02*
X64252000Y-156702000I-250000J0D01*
G01*
X63002000Y-156702000D01*
G75*
G02*
X62752000Y-156452000I0J250000D01*
G01*
X62752000Y-155702000D01*
G75*
G02*
X63002000Y-155452000I250000J0D01*
G01*
G37*
G36*
G01*
X63002000Y-158252000D02*
X64252000Y-158252000D01*
G75*
G02*
X64502000Y-158502000I0J-250000D01*
G01*
X64502000Y-159252000D01*
G75*
G02*
X64252000Y-159502000I-250000J0D01*
G01*
X63002000Y-159502000D01*
G75*
G02*
X62752000Y-159252000I0J250000D01*
G01*
X62752000Y-158502000D01*
G75*
G02*
X63002000Y-158252000I250000J0D01*
G01*
G37*
%TD*%
%TO.C,R67*%
G36*
G01*
X58918500Y-155142250D02*
X58918500Y-154229750D01*
G75*
G02*
X59162250Y-153986000I243750J0D01*
G01*
X59649750Y-153986000D01*
G75*
G02*
X59893500Y-154229750I0J-243750D01*
G01*
X59893500Y-155142250D01*
G75*
G02*
X59649750Y-155386000I-243750J0D01*
G01*
X59162250Y-155386000D01*
G75*
G02*
X58918500Y-155142250I0J243750D01*
G01*
G37*
G36*
G01*
X57043500Y-155142250D02*
X57043500Y-154229750D01*
G75*
G02*
X57287250Y-153986000I243750J0D01*
G01*
X57774750Y-153986000D01*
G75*
G02*
X58018500Y-154229750I0J-243750D01*
G01*
X58018500Y-155142250D01*
G75*
G02*
X57774750Y-155386000I-243750J0D01*
G01*
X57287250Y-155386000D01*
G75*
G02*
X57043500Y-155142250I0J243750D01*
G01*
G37*
%TD*%
%TO.C,R68*%
G36*
G01*
X94163500Y-149984750D02*
X94163500Y-150497250D01*
G75*
G02*
X93944750Y-150716000I-218750J0D01*
G01*
X93507250Y-150716000D01*
G75*
G02*
X93288500Y-150497250I0J218750D01*
G01*
X93288500Y-149984750D01*
G75*
G02*
X93507250Y-149766000I218750J0D01*
G01*
X93944750Y-149766000D01*
G75*
G02*
X94163500Y-149984750I0J-218750D01*
G01*
G37*
G36*
G01*
X95738500Y-149984750D02*
X95738500Y-150497250D01*
G75*
G02*
X95519750Y-150716000I-218750J0D01*
G01*
X95082250Y-150716000D01*
G75*
G02*
X94863500Y-150497250I0J218750D01*
G01*
X94863500Y-149984750D01*
G75*
G02*
X95082250Y-149766000I218750J0D01*
G01*
X95519750Y-149766000D01*
G75*
G02*
X95738500Y-149984750I0J-218750D01*
G01*
G37*
%TD*%
%TO.C,R69*%
G36*
G01*
X40383750Y-167888500D02*
X40896250Y-167888500D01*
G75*
G02*
X41115000Y-168107250I0J-218750D01*
G01*
X41115000Y-168544750D01*
G75*
G02*
X40896250Y-168763500I-218750J0D01*
G01*
X40383750Y-168763500D01*
G75*
G02*
X40165000Y-168544750I0J218750D01*
G01*
X40165000Y-168107250D01*
G75*
G02*
X40383750Y-167888500I218750J0D01*
G01*
G37*
G36*
G01*
X40383750Y-166313500D02*
X40896250Y-166313500D01*
G75*
G02*
X41115000Y-166532250I0J-218750D01*
G01*
X41115000Y-166969750D01*
G75*
G02*
X40896250Y-167188500I-218750J0D01*
G01*
X40383750Y-167188500D01*
G75*
G02*
X40165000Y-166969750I0J218750D01*
G01*
X40165000Y-166532250D01*
G75*
G02*
X40383750Y-166313500I218750J0D01*
G01*
G37*
%TD*%
%TO.C,R70*%
G36*
G01*
X55574250Y-165714500D02*
X54661750Y-165714500D01*
G75*
G02*
X54418000Y-165470750I0J243750D01*
G01*
X54418000Y-164983250D01*
G75*
G02*
X54661750Y-164739500I243750J0D01*
G01*
X55574250Y-164739500D01*
G75*
G02*
X55818000Y-164983250I0J-243750D01*
G01*
X55818000Y-165470750D01*
G75*
G02*
X55574250Y-165714500I-243750J0D01*
G01*
G37*
G36*
G01*
X55574250Y-163839500D02*
X54661750Y-163839500D01*
G75*
G02*
X54418000Y-163595750I0J243750D01*
G01*
X54418000Y-163108250D01*
G75*
G02*
X54661750Y-162864500I243750J0D01*
G01*
X55574250Y-162864500D01*
G75*
G02*
X55818000Y-163108250I0J-243750D01*
G01*
X55818000Y-163595750D01*
G75*
G02*
X55574250Y-163839500I-243750J0D01*
G01*
G37*
%TD*%
%TO.C,R71*%
G36*
G01*
X93982250Y-153040500D02*
X93469750Y-153040500D01*
G75*
G02*
X93251000Y-152821750I0J218750D01*
G01*
X93251000Y-152384250D01*
G75*
G02*
X93469750Y-152165500I218750J0D01*
G01*
X93982250Y-152165500D01*
G75*
G02*
X94201000Y-152384250I0J-218750D01*
G01*
X94201000Y-152821750D01*
G75*
G02*
X93982250Y-153040500I-218750J0D01*
G01*
G37*
G36*
G01*
X93982250Y-154615500D02*
X93469750Y-154615500D01*
G75*
G02*
X93251000Y-154396750I0J218750D01*
G01*
X93251000Y-153959250D01*
G75*
G02*
X93469750Y-153740500I218750J0D01*
G01*
X93982250Y-153740500D01*
G75*
G02*
X94201000Y-153959250I0J-218750D01*
G01*
X94201000Y-154396750D01*
G75*
G02*
X93982250Y-154615500I-218750J0D01*
G01*
G37*
%TD*%
%TO.C,R72*%
G36*
G01*
X42542750Y-167964500D02*
X43055250Y-167964500D01*
G75*
G02*
X43274000Y-168183250I0J-218750D01*
G01*
X43274000Y-168620750D01*
G75*
G02*
X43055250Y-168839500I-218750J0D01*
G01*
X42542750Y-168839500D01*
G75*
G02*
X42324000Y-168620750I0J218750D01*
G01*
X42324000Y-168183250D01*
G75*
G02*
X42542750Y-167964500I218750J0D01*
G01*
G37*
G36*
G01*
X42542750Y-169539500D02*
X43055250Y-169539500D01*
G75*
G02*
X43274000Y-169758250I0J-218750D01*
G01*
X43274000Y-170195750D01*
G75*
G02*
X43055250Y-170414500I-218750J0D01*
G01*
X42542750Y-170414500D01*
G75*
G02*
X42324000Y-170195750I0J218750D01*
G01*
X42324000Y-169758250D01*
G75*
G02*
X42542750Y-169539500I218750J0D01*
G01*
G37*
%TD*%
%TO.C,R73*%
G36*
G01*
X43211000Y-166113750D02*
X43211000Y-166626250D01*
G75*
G02*
X42992250Y-166845000I-218750J0D01*
G01*
X42554750Y-166845000D01*
G75*
G02*
X42336000Y-166626250I0J218750D01*
G01*
X42336000Y-166113750D01*
G75*
G02*
X42554750Y-165895000I218750J0D01*
G01*
X42992250Y-165895000D01*
G75*
G02*
X43211000Y-166113750I0J-218750D01*
G01*
G37*
G36*
G01*
X44786000Y-166113750D02*
X44786000Y-166626250D01*
G75*
G02*
X44567250Y-166845000I-218750J0D01*
G01*
X44129750Y-166845000D01*
G75*
G02*
X43911000Y-166626250I0J218750D01*
G01*
X43911000Y-166113750D01*
G75*
G02*
X44129750Y-165895000I218750J0D01*
G01*
X44567250Y-165895000D01*
G75*
G02*
X44786000Y-166113750I0J-218750D01*
G01*
G37*
%TD*%
%TO.C,R74*%
G36*
G01*
X63002000Y-168672000D02*
X64252000Y-168672000D01*
G75*
G02*
X64502000Y-168922000I0J-250000D01*
G01*
X64502000Y-169672000D01*
G75*
G02*
X64252000Y-169922000I-250000J0D01*
G01*
X63002000Y-169922000D01*
G75*
G02*
X62752000Y-169672000I0J250000D01*
G01*
X62752000Y-168922000D01*
G75*
G02*
X63002000Y-168672000I250000J0D01*
G01*
G37*
G36*
G01*
X63002000Y-165872000D02*
X64252000Y-165872000D01*
G75*
G02*
X64502000Y-166122000I0J-250000D01*
G01*
X64502000Y-166872000D01*
G75*
G02*
X64252000Y-167122000I-250000J0D01*
G01*
X63002000Y-167122000D01*
G75*
G02*
X62752000Y-166872000I0J250000D01*
G01*
X62752000Y-166122000D01*
G75*
G02*
X63002000Y-165872000I250000J0D01*
G01*
G37*
%TD*%
%TO.C,R75*%
G36*
G01*
X57043500Y-165556250D02*
X57043500Y-164643750D01*
G75*
G02*
X57287250Y-164400000I243750J0D01*
G01*
X57774750Y-164400000D01*
G75*
G02*
X58018500Y-164643750I0J-243750D01*
G01*
X58018500Y-165556250D01*
G75*
G02*
X57774750Y-165800000I-243750J0D01*
G01*
X57287250Y-165800000D01*
G75*
G02*
X57043500Y-165556250I0J243750D01*
G01*
G37*
G36*
G01*
X58918500Y-165556250D02*
X58918500Y-164643750D01*
G75*
G02*
X59162250Y-164400000I243750J0D01*
G01*
X59649750Y-164400000D01*
G75*
G02*
X59893500Y-164643750I0J-243750D01*
G01*
X59893500Y-165556250D01*
G75*
G02*
X59649750Y-165800000I-243750J0D01*
G01*
X59162250Y-165800000D01*
G75*
G02*
X58918500Y-165556250I0J243750D01*
G01*
G37*
%TD*%
%TO.C,U1*%
G36*
G01*
X96118000Y-153058000D02*
X96118000Y-152758000D01*
G75*
G02*
X96268000Y-152608000I150000J0D01*
G01*
X97918000Y-152608000D01*
G75*
G02*
X98068000Y-152758000I0J-150000D01*
G01*
X98068000Y-153058000D01*
G75*
G02*
X97918000Y-153208000I-150000J0D01*
G01*
X96268000Y-153208000D01*
G75*
G02*
X96118000Y-153058000I0J150000D01*
G01*
G37*
G36*
G01*
X96118000Y-154328000D02*
X96118000Y-154028000D01*
G75*
G02*
X96268000Y-153878000I150000J0D01*
G01*
X97918000Y-153878000D01*
G75*
G02*
X98068000Y-154028000I0J-150000D01*
G01*
X98068000Y-154328000D01*
G75*
G02*
X97918000Y-154478000I-150000J0D01*
G01*
X96268000Y-154478000D01*
G75*
G02*
X96118000Y-154328000I0J150000D01*
G01*
G37*
G36*
G01*
X96118000Y-155598000D02*
X96118000Y-155298000D01*
G75*
G02*
X96268000Y-155148000I150000J0D01*
G01*
X97918000Y-155148000D01*
G75*
G02*
X98068000Y-155298000I0J-150000D01*
G01*
X98068000Y-155598000D01*
G75*
G02*
X97918000Y-155748000I-150000J0D01*
G01*
X96268000Y-155748000D01*
G75*
G02*
X96118000Y-155598000I0J150000D01*
G01*
G37*
G36*
G01*
X96118000Y-156868000D02*
X96118000Y-156568000D01*
G75*
G02*
X96268000Y-156418000I150000J0D01*
G01*
X97918000Y-156418000D01*
G75*
G02*
X98068000Y-156568000I0J-150000D01*
G01*
X98068000Y-156868000D01*
G75*
G02*
X97918000Y-157018000I-150000J0D01*
G01*
X96268000Y-157018000D01*
G75*
G02*
X96118000Y-156868000I0J150000D01*
G01*
G37*
G36*
G01*
X101068000Y-156868000D02*
X101068000Y-156568000D01*
G75*
G02*
X101218000Y-156418000I150000J0D01*
G01*
X102868000Y-156418000D01*
G75*
G02*
X103018000Y-156568000I0J-150000D01*
G01*
X103018000Y-156868000D01*
G75*
G02*
X102868000Y-157018000I-150000J0D01*
G01*
X101218000Y-157018000D01*
G75*
G02*
X101068000Y-156868000I0J150000D01*
G01*
G37*
G36*
G01*
X101068000Y-155598000D02*
X101068000Y-155298000D01*
G75*
G02*
X101218000Y-155148000I150000J0D01*
G01*
X102868000Y-155148000D01*
G75*
G02*
X103018000Y-155298000I0J-150000D01*
G01*
X103018000Y-155598000D01*
G75*
G02*
X102868000Y-155748000I-150000J0D01*
G01*
X101218000Y-155748000D01*
G75*
G02*
X101068000Y-155598000I0J150000D01*
G01*
G37*
G36*
G01*
X101068000Y-154328000D02*
X101068000Y-154028000D01*
G75*
G02*
X101218000Y-153878000I150000J0D01*
G01*
X102868000Y-153878000D01*
G75*
G02*
X103018000Y-154028000I0J-150000D01*
G01*
X103018000Y-154328000D01*
G75*
G02*
X102868000Y-154478000I-150000J0D01*
G01*
X101218000Y-154478000D01*
G75*
G02*
X101068000Y-154328000I0J150000D01*
G01*
G37*
G36*
G01*
X101068000Y-153058000D02*
X101068000Y-152758000D01*
G75*
G02*
X101218000Y-152608000I150000J0D01*
G01*
X102868000Y-152608000D01*
G75*
G02*
X103018000Y-152758000I0J-150000D01*
G01*
X103018000Y-153058000D01*
G75*
G02*
X102868000Y-153208000I-150000J0D01*
G01*
X101218000Y-153208000D01*
G75*
G02*
X101068000Y-153058000I0J150000D01*
G01*
G37*
%TD*%
%TO.C,C14*%
G36*
G01*
X105026750Y-100375000D02*
X105539250Y-100375000D01*
G75*
G02*
X105758000Y-100593750I0J-218750D01*
G01*
X105758000Y-101031250D01*
G75*
G02*
X105539250Y-101250000I-218750J0D01*
G01*
X105026750Y-101250000D01*
G75*
G02*
X104808000Y-101031250I0J218750D01*
G01*
X104808000Y-100593750D01*
G75*
G02*
X105026750Y-100375000I218750J0D01*
G01*
G37*
G36*
G01*
X105026750Y-101950000D02*
X105539250Y-101950000D01*
G75*
G02*
X105758000Y-102168750I0J-218750D01*
G01*
X105758000Y-102606250D01*
G75*
G02*
X105539250Y-102825000I-218750J0D01*
G01*
X105026750Y-102825000D01*
G75*
G02*
X104808000Y-102606250I0J218750D01*
G01*
X104808000Y-102168750D01*
G75*
G02*
X105026750Y-101950000I218750J0D01*
G01*
G37*
%TD*%
%TO.C,C15*%
G36*
G01*
X122176250Y-155098000D02*
X121663750Y-155098000D01*
G75*
G02*
X121445000Y-154879250I0J218750D01*
G01*
X121445000Y-154441750D01*
G75*
G02*
X121663750Y-154223000I218750J0D01*
G01*
X122176250Y-154223000D01*
G75*
G02*
X122395000Y-154441750I0J-218750D01*
G01*
X122395000Y-154879250D01*
G75*
G02*
X122176250Y-155098000I-218750J0D01*
G01*
G37*
G36*
G01*
X122176250Y-156673000D02*
X121663750Y-156673000D01*
G75*
G02*
X121445000Y-156454250I0J218750D01*
G01*
X121445000Y-156016750D01*
G75*
G02*
X121663750Y-155798000I218750J0D01*
G01*
X122176250Y-155798000D01*
G75*
G02*
X122395000Y-156016750I0J-218750D01*
G01*
X122395000Y-156454250D01*
G75*
G02*
X122176250Y-156673000I-218750J0D01*
G01*
G37*
%TD*%
%TO.C,C16*%
G36*
G01*
X119636250Y-156647500D02*
X119123750Y-156647500D01*
G75*
G02*
X118905000Y-156428750I0J218750D01*
G01*
X118905000Y-155991250D01*
G75*
G02*
X119123750Y-155772500I218750J0D01*
G01*
X119636250Y-155772500D01*
G75*
G02*
X119855000Y-155991250I0J-218750D01*
G01*
X119855000Y-156428750D01*
G75*
G02*
X119636250Y-156647500I-218750J0D01*
G01*
G37*
G36*
G01*
X119636250Y-155072500D02*
X119123750Y-155072500D01*
G75*
G02*
X118905000Y-154853750I0J218750D01*
G01*
X118905000Y-154416250D01*
G75*
G02*
X119123750Y-154197500I218750J0D01*
G01*
X119636250Y-154197500D01*
G75*
G02*
X119855000Y-154416250I0J-218750D01*
G01*
X119855000Y-154853750D01*
G75*
G02*
X119636250Y-155072500I-218750J0D01*
G01*
G37*
%TD*%
M02*
