M48
; DRILL file {KiCad 5.1.6-c6e7f7d~87~ubuntu18.04.1} date Fri Feb 12 17:03:31 2021
; FORMAT={-:-/ absolute / metric / decimal}
; #@! TF.CreationDate,2021-02-12T17:03:31+13:00
; #@! TF.GenerationSoftware,Kicad,Pcbnew,5.1.6-c6e7f7d~87~ubuntu18.04.1
; #@! TF.FileFunction,Plated,1,2,PTH
FMAT,2
METRIC
T1C0.600
T2C1.000
T3C1.300
%
G90
G05
T1
X40.513Y-49.53
X52.825Y-46.348
X52.825Y-56.762
X52.825Y-67.176
X52.825Y-77.59
X52.825Y-88.004
X52.825Y-98.418
X52.825Y-108.832
X52.825Y-119.246
X52.825Y-129.66
X52.825Y-140.074
X52.825Y-150.488
X52.825Y-160.902
X52.832Y-171.45
X55.118Y-46.609
X55.118Y-57.023
X55.118Y-67.437
X55.118Y-77.851
X55.118Y-88.265
X55.118Y-98.679
X55.118Y-109.093
X55.118Y-119.507
X55.118Y-129.921
X55.118Y-140.335
X55.118Y-150.749
X55.118Y-161.163
X55.118Y-171.45
X57.658Y-46.863
X57.658Y-57.277
X57.658Y-67.691
X57.658Y-78.105
X57.658Y-88.519
X57.658Y-98.933
X57.658Y-109.347
X57.658Y-119.761
X57.658Y-130.175
X57.658Y-140.589
X57.658Y-151.003
X57.658Y-161.417
X57.658Y-171.45
X60.071Y-46.863
X60.071Y-57.277
X60.071Y-67.691
X60.071Y-78.105
X60.071Y-88.519
X60.071Y-98.933
X60.071Y-109.347
X60.071Y-119.761
X60.071Y-130.175
X60.071Y-140.589
X60.071Y-151.003
X60.071Y-161.417
X60.071Y-171.45
X62.611Y-46.99
X62.611Y-57.404
X62.611Y-67.818
X62.611Y-78.232
X62.611Y-88.646
X62.611Y-99.06
X62.611Y-109.474
X62.611Y-119.888
X62.611Y-130.302
X62.611Y-140.716
X62.611Y-151.13
X62.611Y-161.544
X62.611Y-171.45
X88.265Y-164.719
X94.742Y-170.053
X95.377Y-175.387
X101.346Y-149.098
X119.38Y-152.654
X119.38Y-158.369
T2
X85.09Y-50.419
X85.09Y-52.959
X85.09Y-55.499
X85.09Y-58.039
X85.09Y-60.579
X85.09Y-63.119
X85.09Y-65.659
X85.09Y-68.199
X85.09Y-70.739
X85.09Y-73.279
X85.09Y-75.819
X85.09Y-78.359
X85.09Y-80.899
X85.09Y-83.439
X85.09Y-85.979
X100.33Y-50.419
X100.33Y-52.959
X100.33Y-55.499
X100.33Y-58.039
X100.33Y-60.579
X100.33Y-63.119
X100.33Y-65.659
X100.33Y-68.199
X100.33Y-70.739
X100.33Y-73.279
X100.33Y-75.819
X100.33Y-78.359
X100.33Y-80.899
X100.33Y-83.439
X100.33Y-85.979
T3
X110.998Y-66.802
X109.601Y-146.812
X110.871Y-57.404
X101.981Y-162.306
X119.888Y-164.465
X109.093Y-162.179
X113.03Y-154.94
X110.998Y-81.026
X109.982Y-105.918
X110.998Y-71.501
X110.998Y-62.103
X109.855Y-97.663
X109.474Y-140.589
X111.125Y-86.106
X110.871Y-52.578
X110.998Y-76.2
X119.888Y-146.431
T0
M30
