%TF.GenerationSoftware,KiCad,Pcbnew,5.1.6-c6e7f7d~87~ubuntu18.04.1*%
%TF.CreationDate,2021-10-05T16:46:07+13:00*%
%TF.ProjectId,Temp-ctrl pot-ctrl add-on oct4,54656d70-2d63-4747-926c-20706f742d63,rev?*%
%TF.SameCoordinates,Original*%
%TF.FileFunction,Soldermask,Top*%
%TF.FilePolarity,Negative*%
%FSLAX46Y46*%
G04 Gerber Fmt 4.6, Leading zero omitted, Abs format (unit mm)*
G04 Created by KiCad (PCBNEW 5.1.6-c6e7f7d~87~ubuntu18.04.1) date 2021-10-05 16:46:07*
%MOMM*%
%LPD*%
G01*
G04 APERTURE LIST*
%ADD10C,2.700000*%
%ADD11O,2.290000X1.840000*%
%ADD12R,1.160000X0.750000*%
G04 APERTURE END LIST*
D10*
%TO.C,J1*%
X175000000Y-61000000D03*
%TD*%
%TO.C,J2*%
X179500000Y-70500000D03*
%TD*%
%TO.C,J3*%
X175000000Y-70500000D03*
%TD*%
%TO.C,J4*%
X170500000Y-70500000D03*
%TD*%
%TO.C,J5*%
X183000000Y-78000000D03*
%TD*%
D11*
%TO.C,J6*%
X187500000Y-89080000D03*
X187500000Y-86540000D03*
G36*
G01*
X186619367Y-83080000D02*
X188380633Y-83080000D01*
G75*
G02*
X188645000Y-83344367I0J-264367D01*
G01*
X188645000Y-84655633D01*
G75*
G02*
X188380633Y-84920000I-264367J0D01*
G01*
X186619367Y-84920000D01*
G75*
G02*
X186355000Y-84655633I0J264367D01*
G01*
X186355000Y-83344367D01*
G75*
G02*
X186619367Y-83080000I264367J0D01*
G01*
G37*
%TD*%
D10*
%TO.C,J7*%
X180000000Y-86000000D03*
%TD*%
%TO.C,J8*%
G36*
G01*
X161619367Y-83580000D02*
X163380633Y-83580000D01*
G75*
G02*
X163645000Y-83844367I0J-264367D01*
G01*
X163645000Y-85155633D01*
G75*
G02*
X163380633Y-85420000I-264367J0D01*
G01*
X161619367Y-85420000D01*
G75*
G02*
X161355000Y-85155633I0J264367D01*
G01*
X161355000Y-83844367D01*
G75*
G02*
X161619367Y-83580000I264367J0D01*
G01*
G37*
D11*
X162500000Y-87040000D03*
X162500000Y-89580000D03*
%TD*%
D10*
%TO.C,J9*%
X164500000Y-71500000D03*
%TD*%
%TO.C,J10*%
X167500000Y-78000000D03*
%TD*%
%TO.C,R1*%
G36*
G01*
X177100000Y-64518750D02*
X177100000Y-65481250D01*
G75*
G02*
X176831250Y-65750000I-268750J0D01*
G01*
X176293750Y-65750000D01*
G75*
G02*
X176025000Y-65481250I0J268750D01*
G01*
X176025000Y-64518750D01*
G75*
G02*
X176293750Y-64250000I268750J0D01*
G01*
X176831250Y-64250000D01*
G75*
G02*
X177100000Y-64518750I0J-268750D01*
G01*
G37*
G36*
G01*
X178975000Y-64518750D02*
X178975000Y-65481250D01*
G75*
G02*
X178706250Y-65750000I-268750J0D01*
G01*
X178168750Y-65750000D01*
G75*
G02*
X177900000Y-65481250I0J268750D01*
G01*
X177900000Y-64518750D01*
G75*
G02*
X178168750Y-64250000I268750J0D01*
G01*
X178706250Y-64250000D01*
G75*
G02*
X178975000Y-64518750I0J-268750D01*
G01*
G37*
%TD*%
%TO.C,R2*%
G36*
G01*
X173975000Y-64518750D02*
X173975000Y-65481250D01*
G75*
G02*
X173706250Y-65750000I-268750J0D01*
G01*
X173168750Y-65750000D01*
G75*
G02*
X172900000Y-65481250I0J268750D01*
G01*
X172900000Y-64518750D01*
G75*
G02*
X173168750Y-64250000I268750J0D01*
G01*
X173706250Y-64250000D01*
G75*
G02*
X173975000Y-64518750I0J-268750D01*
G01*
G37*
G36*
G01*
X172100000Y-64518750D02*
X172100000Y-65481250D01*
G75*
G02*
X171831250Y-65750000I-268750J0D01*
G01*
X171293750Y-65750000D01*
G75*
G02*
X171025000Y-65481250I0J268750D01*
G01*
X171025000Y-64518750D01*
G75*
G02*
X171293750Y-64250000I268750J0D01*
G01*
X171831250Y-64250000D01*
G75*
G02*
X172100000Y-64518750I0J-268750D01*
G01*
G37*
%TD*%
%TO.C,R3*%
G36*
G01*
X173400000Y-76481250D02*
X173400000Y-75518750D01*
G75*
G02*
X173668750Y-75250000I268750J0D01*
G01*
X174206250Y-75250000D01*
G75*
G02*
X174475000Y-75518750I0J-268750D01*
G01*
X174475000Y-76481250D01*
G75*
G02*
X174206250Y-76750000I-268750J0D01*
G01*
X173668750Y-76750000D01*
G75*
G02*
X173400000Y-76481250I0J268750D01*
G01*
G37*
G36*
G01*
X171525000Y-76481250D02*
X171525000Y-75518750D01*
G75*
G02*
X171793750Y-75250000I268750J0D01*
G01*
X172331250Y-75250000D01*
G75*
G02*
X172600000Y-75518750I0J-268750D01*
G01*
X172600000Y-76481250D01*
G75*
G02*
X172331250Y-76750000I-268750J0D01*
G01*
X171793750Y-76750000D01*
G75*
G02*
X171525000Y-76481250I0J268750D01*
G01*
G37*
%TD*%
%TO.C,R4*%
G36*
G01*
X180537500Y-80018750D02*
X180537500Y-80981250D01*
G75*
G02*
X180268750Y-81250000I-268750J0D01*
G01*
X179731250Y-81250000D01*
G75*
G02*
X179462500Y-80981250I0J268750D01*
G01*
X179462500Y-80018750D01*
G75*
G02*
X179731250Y-79750000I268750J0D01*
G01*
X180268750Y-79750000D01*
G75*
G02*
X180537500Y-80018750I0J-268750D01*
G01*
G37*
G36*
G01*
X178662500Y-80018750D02*
X178662500Y-80981250D01*
G75*
G02*
X178393750Y-81250000I-268750J0D01*
G01*
X177856250Y-81250000D01*
G75*
G02*
X177587500Y-80981250I0J268750D01*
G01*
X177587500Y-80018750D01*
G75*
G02*
X177856250Y-79750000I268750J0D01*
G01*
X178393750Y-79750000D01*
G75*
G02*
X178662500Y-80018750I0J-268750D01*
G01*
G37*
%TD*%
%TO.C,R5*%
G36*
G01*
X176025000Y-76481250D02*
X176025000Y-75518750D01*
G75*
G02*
X176293750Y-75250000I268750J0D01*
G01*
X176831250Y-75250000D01*
G75*
G02*
X177100000Y-75518750I0J-268750D01*
G01*
X177100000Y-76481250D01*
G75*
G02*
X176831250Y-76750000I-268750J0D01*
G01*
X176293750Y-76750000D01*
G75*
G02*
X176025000Y-76481250I0J268750D01*
G01*
G37*
G36*
G01*
X177900000Y-76481250D02*
X177900000Y-75518750D01*
G75*
G02*
X178168750Y-75250000I268750J0D01*
G01*
X178706250Y-75250000D01*
G75*
G02*
X178975000Y-75518750I0J-268750D01*
G01*
X178975000Y-76481250D01*
G75*
G02*
X178706250Y-76750000I-268750J0D01*
G01*
X178168750Y-76750000D01*
G75*
G02*
X177900000Y-76481250I0J268750D01*
G01*
G37*
%TD*%
%TO.C,R6*%
G36*
G01*
X169600000Y-85581250D02*
X169600000Y-86543750D01*
G75*
G02*
X169331250Y-86812500I-268750J0D01*
G01*
X168793750Y-86812500D01*
G75*
G02*
X168525000Y-86543750I0J268750D01*
G01*
X168525000Y-85581250D01*
G75*
G02*
X168793750Y-85312500I268750J0D01*
G01*
X169331250Y-85312500D01*
G75*
G02*
X169600000Y-85581250I0J-268750D01*
G01*
G37*
G36*
G01*
X171475000Y-85581250D02*
X171475000Y-86543750D01*
G75*
G02*
X171206250Y-86812500I-268750J0D01*
G01*
X170668750Y-86812500D01*
G75*
G02*
X170400000Y-86543750I0J268750D01*
G01*
X170400000Y-85581250D01*
G75*
G02*
X170668750Y-85312500I268750J0D01*
G01*
X171206250Y-85312500D01*
G75*
G02*
X171475000Y-85581250I0J-268750D01*
G01*
G37*
%TD*%
%TO.C,R7*%
G36*
G01*
X169400000Y-82481250D02*
X169400000Y-81518750D01*
G75*
G02*
X169668750Y-81250000I268750J0D01*
G01*
X170206250Y-81250000D01*
G75*
G02*
X170475000Y-81518750I0J-268750D01*
G01*
X170475000Y-82481250D01*
G75*
G02*
X170206250Y-82750000I-268750J0D01*
G01*
X169668750Y-82750000D01*
G75*
G02*
X169400000Y-82481250I0J268750D01*
G01*
G37*
G36*
G01*
X167525000Y-82481250D02*
X167525000Y-81518750D01*
G75*
G02*
X167793750Y-81250000I268750J0D01*
G01*
X168331250Y-81250000D01*
G75*
G02*
X168600000Y-81518750I0J-268750D01*
G01*
X168600000Y-82481250D01*
G75*
G02*
X168331250Y-82750000I-268750J0D01*
G01*
X167793750Y-82750000D01*
G75*
G02*
X167525000Y-82481250I0J268750D01*
G01*
G37*
%TD*%
%TO.C,R8*%
G36*
G01*
X176475000Y-85518750D02*
X176475000Y-86481250D01*
G75*
G02*
X176206250Y-86750000I-268750J0D01*
G01*
X175668750Y-86750000D01*
G75*
G02*
X175400000Y-86481250I0J268750D01*
G01*
X175400000Y-85518750D01*
G75*
G02*
X175668750Y-85250000I268750J0D01*
G01*
X176206250Y-85250000D01*
G75*
G02*
X176475000Y-85518750I0J-268750D01*
G01*
G37*
G36*
G01*
X174600000Y-85518750D02*
X174600000Y-86481250D01*
G75*
G02*
X174331250Y-86750000I-268750J0D01*
G01*
X173793750Y-86750000D01*
G75*
G02*
X173525000Y-86481250I0J268750D01*
G01*
X173525000Y-85518750D01*
G75*
G02*
X173793750Y-85250000I268750J0D01*
G01*
X174331250Y-85250000D01*
G75*
G02*
X174600000Y-85518750I0J-268750D01*
G01*
G37*
%TD*%
D12*
%TO.C,U1*%
X172500000Y-80500000D03*
X172500000Y-81450000D03*
X172500000Y-82400000D03*
X174700000Y-82400000D03*
X174700000Y-80500000D03*
%TD*%
M02*
