%TF.GenerationSoftware,KiCad,Pcbnew,5.1.6-c6e7f7d~87~ubuntu18.04.1*%
%TF.CreationDate,2021-10-05T16:46:07+13:00*%
%TF.ProjectId,Temp-ctrl pot-ctrl add-on oct4,54656d70-2d63-4747-926c-20706f742d63,rev?*%
%TF.SameCoordinates,Original*%
%TF.FileFunction,Legend,Top*%
%TF.FilePolarity,Positive*%
%FSLAX46Y46*%
G04 Gerber Fmt 4.6, Leading zero omitted, Abs format (unit mm)*
G04 Created by KiCad (PCBNEW 5.1.6-c6e7f7d~87~ubuntu18.04.1) date 2021-10-05 16:46:07*
%MOMM*%
%LPD*%
G01*
G04 APERTURE LIST*
%ADD10C,0.120000*%
%ADD11C,0.150000*%
G04 APERTURE END LIST*
D10*
%TO.C,J1*%
X176600781Y-61000000D02*
G75*
G03*
X176600781Y-61000000I-1600781J0D01*
G01*
%TO.C,J2*%
X181100781Y-70500000D02*
G75*
G03*
X181100781Y-70500000I-1600781J0D01*
G01*
%TO.C,J3*%
X176600781Y-70500000D02*
G75*
G03*
X176600781Y-70500000I-1600781J0D01*
G01*
%TO.C,J4*%
X172100781Y-70500000D02*
G75*
G03*
X172100781Y-70500000I-1600781J0D01*
G01*
%TO.C,J5*%
X184600781Y-78000000D02*
G75*
G03*
X184600781Y-78000000I-1600781J0D01*
G01*
%TO.C,J6*%
X190530000Y-82620000D02*
X184510000Y-82620000D01*
X184510000Y-82620000D02*
X184510000Y-90460000D01*
X184510000Y-90460000D02*
X190530000Y-90460000D01*
X190530000Y-90460000D02*
X190530000Y-82620000D01*
X189500000Y-82330000D02*
X185500000Y-82330000D01*
X184510000Y-84000000D02*
X185510000Y-84000000D01*
X185510000Y-84000000D02*
X185510000Y-89080000D01*
X185510000Y-89080000D02*
X184510000Y-89080000D01*
X185510000Y-84000000D02*
X186040000Y-84250000D01*
X186040000Y-84250000D02*
X186040000Y-88830000D01*
X186040000Y-88830000D02*
X185510000Y-89080000D01*
X184510000Y-84250000D02*
X185510000Y-84250000D01*
X184510000Y-88830000D02*
X185510000Y-88830000D01*
X190530000Y-83200000D02*
X189930000Y-83200000D01*
X189930000Y-83200000D02*
X189930000Y-84800000D01*
X189930000Y-84800000D02*
X190530000Y-84800000D01*
X190530000Y-85740000D02*
X189930000Y-85740000D01*
X189930000Y-85740000D02*
X189930000Y-87340000D01*
X189930000Y-87340000D02*
X190530000Y-87340000D01*
X190530000Y-88280000D02*
X189930000Y-88280000D01*
X189930000Y-88280000D02*
X189930000Y-89880000D01*
X189930000Y-89880000D02*
X190530000Y-89880000D01*
%TO.C,J7*%
X181600781Y-86000000D02*
G75*
G03*
X181600781Y-86000000I-1600781J0D01*
G01*
%TO.C,J8*%
X164930000Y-90380000D02*
X165530000Y-90380000D01*
X164930000Y-88780000D02*
X164930000Y-90380000D01*
X165530000Y-88780000D02*
X164930000Y-88780000D01*
X164930000Y-87840000D02*
X165530000Y-87840000D01*
X164930000Y-86240000D02*
X164930000Y-87840000D01*
X165530000Y-86240000D02*
X164930000Y-86240000D01*
X164930000Y-85300000D02*
X165530000Y-85300000D01*
X164930000Y-83700000D02*
X164930000Y-85300000D01*
X165530000Y-83700000D02*
X164930000Y-83700000D01*
X159510000Y-89330000D02*
X160510000Y-89330000D01*
X159510000Y-84750000D02*
X160510000Y-84750000D01*
X161040000Y-89330000D02*
X160510000Y-89580000D01*
X161040000Y-84750000D02*
X161040000Y-89330000D01*
X160510000Y-84500000D02*
X161040000Y-84750000D01*
X160510000Y-89580000D02*
X159510000Y-89580000D01*
X160510000Y-84500000D02*
X160510000Y-89580000D01*
X159510000Y-84500000D02*
X160510000Y-84500000D01*
X164500000Y-82830000D02*
X160500000Y-82830000D01*
X165530000Y-90960000D02*
X165530000Y-83120000D01*
X159510000Y-90960000D02*
X165530000Y-90960000D01*
X159510000Y-83120000D02*
X159510000Y-90960000D01*
X165530000Y-83120000D02*
X159510000Y-83120000D01*
%TO.C,J9*%
X166100781Y-71500000D02*
G75*
G03*
X166100781Y-71500000I-1600781J0D01*
G01*
%TO.C,J10*%
X169100781Y-78000000D02*
G75*
G03*
X169100781Y-78000000I-1600781J0D01*
G01*
%TO.C,R1*%
X177758578Y-65710000D02*
X177241422Y-65710000D01*
X177758578Y-64290000D02*
X177241422Y-64290000D01*
%TO.C,R2*%
X172758578Y-64290000D02*
X172241422Y-64290000D01*
X172758578Y-65710000D02*
X172241422Y-65710000D01*
%TO.C,R3*%
X172741422Y-75290000D02*
X173258578Y-75290000D01*
X172741422Y-76710000D02*
X173258578Y-76710000D01*
%TO.C,R4*%
X179321078Y-79790000D02*
X178803922Y-79790000D01*
X179321078Y-81210000D02*
X178803922Y-81210000D01*
%TO.C,R5*%
X177241422Y-76710000D02*
X177758578Y-76710000D01*
X177241422Y-75290000D02*
X177758578Y-75290000D01*
%TO.C,R6*%
X170258578Y-86772500D02*
X169741422Y-86772500D01*
X170258578Y-85352500D02*
X169741422Y-85352500D01*
%TO.C,R7*%
X168741422Y-81290000D02*
X169258578Y-81290000D01*
X168741422Y-82710000D02*
X169258578Y-82710000D01*
%TO.C,R8*%
X175258578Y-85290000D02*
X174741422Y-85290000D01*
X175258578Y-86710000D02*
X174741422Y-86710000D01*
%TO.C,U1*%
X174500000Y-79840000D02*
X172050000Y-79840000D01*
X172700000Y-83060000D02*
X174500000Y-83060000D01*
%TO.C,J1*%
D11*
X174666666Y-62852380D02*
X174666666Y-63566666D01*
X174619047Y-63709523D01*
X174523809Y-63804761D01*
X174380952Y-63852380D01*
X174285714Y-63852380D01*
X175666666Y-63852380D02*
X175095238Y-63852380D01*
X175380952Y-63852380D02*
X175380952Y-62852380D01*
X175285714Y-62995238D01*
X175190476Y-63090476D01*
X175095238Y-63138095D01*
%TO.C,J2*%
X179166666Y-72352380D02*
X179166666Y-73066666D01*
X179119047Y-73209523D01*
X179023809Y-73304761D01*
X178880952Y-73352380D01*
X178785714Y-73352380D01*
X179595238Y-72447619D02*
X179642857Y-72400000D01*
X179738095Y-72352380D01*
X179976190Y-72352380D01*
X180071428Y-72400000D01*
X180119047Y-72447619D01*
X180166666Y-72542857D01*
X180166666Y-72638095D01*
X180119047Y-72780952D01*
X179547619Y-73352380D01*
X180166666Y-73352380D01*
%TO.C,J3*%
X174666666Y-72352380D02*
X174666666Y-73066666D01*
X174619047Y-73209523D01*
X174523809Y-73304761D01*
X174380952Y-73352380D01*
X174285714Y-73352380D01*
X175047619Y-72352380D02*
X175666666Y-72352380D01*
X175333333Y-72733333D01*
X175476190Y-72733333D01*
X175571428Y-72780952D01*
X175619047Y-72828571D01*
X175666666Y-72923809D01*
X175666666Y-73161904D01*
X175619047Y-73257142D01*
X175571428Y-73304761D01*
X175476190Y-73352380D01*
X175190476Y-73352380D01*
X175095238Y-73304761D01*
X175047619Y-73257142D01*
%TO.C,J4*%
X170166666Y-72352380D02*
X170166666Y-73066666D01*
X170119047Y-73209523D01*
X170023809Y-73304761D01*
X169880952Y-73352380D01*
X169785714Y-73352380D01*
X171071428Y-72685714D02*
X171071428Y-73352380D01*
X170833333Y-72304761D02*
X170595238Y-73019047D01*
X171214285Y-73019047D01*
%TO.C,J5*%
X182666666Y-79852380D02*
X182666666Y-80566666D01*
X182619047Y-80709523D01*
X182523809Y-80804761D01*
X182380952Y-80852380D01*
X182285714Y-80852380D01*
X183619047Y-79852380D02*
X183142857Y-79852380D01*
X183095238Y-80328571D01*
X183142857Y-80280952D01*
X183238095Y-80233333D01*
X183476190Y-80233333D01*
X183571428Y-80280952D01*
X183619047Y-80328571D01*
X183666666Y-80423809D01*
X183666666Y-80661904D01*
X183619047Y-80757142D01*
X183571428Y-80804761D01*
X183476190Y-80852380D01*
X183238095Y-80852380D01*
X183142857Y-80804761D01*
X183095238Y-80757142D01*
%TO.C,J6*%
X191072380Y-86873333D02*
X191786666Y-86873333D01*
X191929523Y-86920952D01*
X192024761Y-87016190D01*
X192072380Y-87159047D01*
X192072380Y-87254285D01*
X191072380Y-85968571D02*
X191072380Y-86159047D01*
X191120000Y-86254285D01*
X191167619Y-86301904D01*
X191310476Y-86397142D01*
X191500952Y-86444761D01*
X191881904Y-86444761D01*
X191977142Y-86397142D01*
X192024761Y-86349523D01*
X192072380Y-86254285D01*
X192072380Y-86063809D01*
X192024761Y-85968571D01*
X191977142Y-85920952D01*
X191881904Y-85873333D01*
X191643809Y-85873333D01*
X191548571Y-85920952D01*
X191500952Y-85968571D01*
X191453333Y-86063809D01*
X191453333Y-86254285D01*
X191500952Y-86349523D01*
X191548571Y-86397142D01*
X191643809Y-86444761D01*
%TO.C,J7*%
X179666666Y-87852380D02*
X179666666Y-88566666D01*
X179619047Y-88709523D01*
X179523809Y-88804761D01*
X179380952Y-88852380D01*
X179285714Y-88852380D01*
X180047619Y-87852380D02*
X180714285Y-87852380D01*
X180285714Y-88852380D01*
%TO.C,J8*%
X166072380Y-87373333D02*
X166786666Y-87373333D01*
X166929523Y-87420952D01*
X167024761Y-87516190D01*
X167072380Y-87659047D01*
X167072380Y-87754285D01*
X166500952Y-86754285D02*
X166453333Y-86849523D01*
X166405714Y-86897142D01*
X166310476Y-86944761D01*
X166262857Y-86944761D01*
X166167619Y-86897142D01*
X166120000Y-86849523D01*
X166072380Y-86754285D01*
X166072380Y-86563809D01*
X166120000Y-86468571D01*
X166167619Y-86420952D01*
X166262857Y-86373333D01*
X166310476Y-86373333D01*
X166405714Y-86420952D01*
X166453333Y-86468571D01*
X166500952Y-86563809D01*
X166500952Y-86754285D01*
X166548571Y-86849523D01*
X166596190Y-86897142D01*
X166691428Y-86944761D01*
X166881904Y-86944761D01*
X166977142Y-86897142D01*
X167024761Y-86849523D01*
X167072380Y-86754285D01*
X167072380Y-86563809D01*
X167024761Y-86468571D01*
X166977142Y-86420952D01*
X166881904Y-86373333D01*
X166691428Y-86373333D01*
X166596190Y-86420952D01*
X166548571Y-86468571D01*
X166500952Y-86563809D01*
%TO.C,J9*%
X164166666Y-73352380D02*
X164166666Y-74066666D01*
X164119047Y-74209523D01*
X164023809Y-74304761D01*
X163880952Y-74352380D01*
X163785714Y-74352380D01*
X164690476Y-74352380D02*
X164880952Y-74352380D01*
X164976190Y-74304761D01*
X165023809Y-74257142D01*
X165119047Y-74114285D01*
X165166666Y-73923809D01*
X165166666Y-73542857D01*
X165119047Y-73447619D01*
X165071428Y-73400000D01*
X164976190Y-73352380D01*
X164785714Y-73352380D01*
X164690476Y-73400000D01*
X164642857Y-73447619D01*
X164595238Y-73542857D01*
X164595238Y-73780952D01*
X164642857Y-73876190D01*
X164690476Y-73923809D01*
X164785714Y-73971428D01*
X164976190Y-73971428D01*
X165071428Y-73923809D01*
X165119047Y-73876190D01*
X165166666Y-73780952D01*
%TO.C,J10*%
X166690476Y-79852380D02*
X166690476Y-80566666D01*
X166642857Y-80709523D01*
X166547619Y-80804761D01*
X166404761Y-80852380D01*
X166309523Y-80852380D01*
X167690476Y-80852380D02*
X167119047Y-80852380D01*
X167404761Y-80852380D02*
X167404761Y-79852380D01*
X167309523Y-79995238D01*
X167214285Y-80090476D01*
X167119047Y-80138095D01*
X168309523Y-79852380D02*
X168404761Y-79852380D01*
X168500000Y-79900000D01*
X168547619Y-79947619D01*
X168595238Y-80042857D01*
X168642857Y-80233333D01*
X168642857Y-80471428D01*
X168595238Y-80661904D01*
X168547619Y-80757142D01*
X168500000Y-80804761D01*
X168404761Y-80852380D01*
X168309523Y-80852380D01*
X168214285Y-80804761D01*
X168166666Y-80757142D01*
X168119047Y-80661904D01*
X168071428Y-80471428D01*
X168071428Y-80233333D01*
X168119047Y-80042857D01*
X168166666Y-79947619D01*
X168214285Y-79900000D01*
X168309523Y-79852380D01*
%TO.C,R1*%
X177333333Y-67102380D02*
X177000000Y-66626190D01*
X176761904Y-67102380D02*
X176761904Y-66102380D01*
X177142857Y-66102380D01*
X177238095Y-66150000D01*
X177285714Y-66197619D01*
X177333333Y-66292857D01*
X177333333Y-66435714D01*
X177285714Y-66530952D01*
X177238095Y-66578571D01*
X177142857Y-66626190D01*
X176761904Y-66626190D01*
X178285714Y-67102380D02*
X177714285Y-67102380D01*
X178000000Y-67102380D02*
X178000000Y-66102380D01*
X177904761Y-66245238D01*
X177809523Y-66340476D01*
X177714285Y-66388095D01*
%TO.C,R2*%
X172333333Y-67102380D02*
X172000000Y-66626190D01*
X171761904Y-67102380D02*
X171761904Y-66102380D01*
X172142857Y-66102380D01*
X172238095Y-66150000D01*
X172285714Y-66197619D01*
X172333333Y-66292857D01*
X172333333Y-66435714D01*
X172285714Y-66530952D01*
X172238095Y-66578571D01*
X172142857Y-66626190D01*
X171761904Y-66626190D01*
X172714285Y-66197619D02*
X172761904Y-66150000D01*
X172857142Y-66102380D01*
X173095238Y-66102380D01*
X173190476Y-66150000D01*
X173238095Y-66197619D01*
X173285714Y-66292857D01*
X173285714Y-66388095D01*
X173238095Y-66530952D01*
X172666666Y-67102380D01*
X173285714Y-67102380D01*
%TO.C,R3*%
X172833333Y-74802380D02*
X172500000Y-74326190D01*
X172261904Y-74802380D02*
X172261904Y-73802380D01*
X172642857Y-73802380D01*
X172738095Y-73850000D01*
X172785714Y-73897619D01*
X172833333Y-73992857D01*
X172833333Y-74135714D01*
X172785714Y-74230952D01*
X172738095Y-74278571D01*
X172642857Y-74326190D01*
X172261904Y-74326190D01*
X173166666Y-73802380D02*
X173785714Y-73802380D01*
X173452380Y-74183333D01*
X173595238Y-74183333D01*
X173690476Y-74230952D01*
X173738095Y-74278571D01*
X173785714Y-74373809D01*
X173785714Y-74611904D01*
X173738095Y-74707142D01*
X173690476Y-74754761D01*
X173595238Y-74802380D01*
X173309523Y-74802380D01*
X173214285Y-74754761D01*
X173166666Y-74707142D01*
%TO.C,R4*%
X178895833Y-82602380D02*
X178562500Y-82126190D01*
X178324404Y-82602380D02*
X178324404Y-81602380D01*
X178705357Y-81602380D01*
X178800595Y-81650000D01*
X178848214Y-81697619D01*
X178895833Y-81792857D01*
X178895833Y-81935714D01*
X178848214Y-82030952D01*
X178800595Y-82078571D01*
X178705357Y-82126190D01*
X178324404Y-82126190D01*
X179752976Y-81935714D02*
X179752976Y-82602380D01*
X179514880Y-81554761D02*
X179276785Y-82269047D01*
X179895833Y-82269047D01*
%TO.C,R5*%
X177333333Y-74802380D02*
X177000000Y-74326190D01*
X176761904Y-74802380D02*
X176761904Y-73802380D01*
X177142857Y-73802380D01*
X177238095Y-73850000D01*
X177285714Y-73897619D01*
X177333333Y-73992857D01*
X177333333Y-74135714D01*
X177285714Y-74230952D01*
X177238095Y-74278571D01*
X177142857Y-74326190D01*
X176761904Y-74326190D01*
X178238095Y-73802380D02*
X177761904Y-73802380D01*
X177714285Y-74278571D01*
X177761904Y-74230952D01*
X177857142Y-74183333D01*
X178095238Y-74183333D01*
X178190476Y-74230952D01*
X178238095Y-74278571D01*
X178285714Y-74373809D01*
X178285714Y-74611904D01*
X178238095Y-74707142D01*
X178190476Y-74754761D01*
X178095238Y-74802380D01*
X177857142Y-74802380D01*
X177761904Y-74754761D01*
X177714285Y-74707142D01*
%TO.C,R6*%
X169833333Y-88164880D02*
X169500000Y-87688690D01*
X169261904Y-88164880D02*
X169261904Y-87164880D01*
X169642857Y-87164880D01*
X169738095Y-87212500D01*
X169785714Y-87260119D01*
X169833333Y-87355357D01*
X169833333Y-87498214D01*
X169785714Y-87593452D01*
X169738095Y-87641071D01*
X169642857Y-87688690D01*
X169261904Y-87688690D01*
X170690476Y-87164880D02*
X170500000Y-87164880D01*
X170404761Y-87212500D01*
X170357142Y-87260119D01*
X170261904Y-87402976D01*
X170214285Y-87593452D01*
X170214285Y-87974404D01*
X170261904Y-88069642D01*
X170309523Y-88117261D01*
X170404761Y-88164880D01*
X170595238Y-88164880D01*
X170690476Y-88117261D01*
X170738095Y-88069642D01*
X170785714Y-87974404D01*
X170785714Y-87736309D01*
X170738095Y-87641071D01*
X170690476Y-87593452D01*
X170595238Y-87545833D01*
X170404761Y-87545833D01*
X170309523Y-87593452D01*
X170261904Y-87641071D01*
X170214285Y-87736309D01*
%TO.C,R7*%
X168833333Y-80802380D02*
X168500000Y-80326190D01*
X168261904Y-80802380D02*
X168261904Y-79802380D01*
X168642857Y-79802380D01*
X168738095Y-79850000D01*
X168785714Y-79897619D01*
X168833333Y-79992857D01*
X168833333Y-80135714D01*
X168785714Y-80230952D01*
X168738095Y-80278571D01*
X168642857Y-80326190D01*
X168261904Y-80326190D01*
X169166666Y-79802380D02*
X169833333Y-79802380D01*
X169404761Y-80802380D01*
%TO.C,R8*%
X174833333Y-88102380D02*
X174500000Y-87626190D01*
X174261904Y-88102380D02*
X174261904Y-87102380D01*
X174642857Y-87102380D01*
X174738095Y-87150000D01*
X174785714Y-87197619D01*
X174833333Y-87292857D01*
X174833333Y-87435714D01*
X174785714Y-87530952D01*
X174738095Y-87578571D01*
X174642857Y-87626190D01*
X174261904Y-87626190D01*
X175404761Y-87530952D02*
X175309523Y-87483333D01*
X175261904Y-87435714D01*
X175214285Y-87340476D01*
X175214285Y-87292857D01*
X175261904Y-87197619D01*
X175309523Y-87150000D01*
X175404761Y-87102380D01*
X175595238Y-87102380D01*
X175690476Y-87150000D01*
X175738095Y-87197619D01*
X175785714Y-87292857D01*
X175785714Y-87340476D01*
X175738095Y-87435714D01*
X175690476Y-87483333D01*
X175595238Y-87530952D01*
X175404761Y-87530952D01*
X175309523Y-87578571D01*
X175261904Y-87626190D01*
X175214285Y-87721428D01*
X175214285Y-87911904D01*
X175261904Y-88007142D01*
X175309523Y-88054761D01*
X175404761Y-88102380D01*
X175595238Y-88102380D01*
X175690476Y-88054761D01*
X175738095Y-88007142D01*
X175785714Y-87911904D01*
X175785714Y-87721428D01*
X175738095Y-87626190D01*
X175690476Y-87578571D01*
X175595238Y-87530952D01*
%TO.C,U1*%
X172838095Y-78002380D02*
X172838095Y-78811904D01*
X172885714Y-78907142D01*
X172933333Y-78954761D01*
X173028571Y-79002380D01*
X173219047Y-79002380D01*
X173314285Y-78954761D01*
X173361904Y-78907142D01*
X173409523Y-78811904D01*
X173409523Y-78002380D01*
X174409523Y-79002380D02*
X173838095Y-79002380D01*
X174123809Y-79002380D02*
X174123809Y-78002380D01*
X174028571Y-78145238D01*
X173933333Y-78240476D01*
X173838095Y-78288095D01*
%TD*%
M02*
