%TF.GenerationSoftware,KiCad,Pcbnew,5.1.6-c6e7f7d~87~ubuntu18.04.1*%
%TF.CreationDate,2021-10-05T16:46:07+13:00*%
%TF.ProjectId,Temp-ctrl pot-ctrl add-on oct4,54656d70-2d63-4747-926c-20706f742d63,rev?*%
%TF.SameCoordinates,Original*%
%TF.FileFunction,Copper,L1,Top*%
%TF.FilePolarity,Positive*%
%FSLAX46Y46*%
G04 Gerber Fmt 4.6, Leading zero omitted, Abs format (unit mm)*
G04 Created by KiCad (PCBNEW 5.1.6-c6e7f7d~87~ubuntu18.04.1) date 2021-10-05 16:46:07*
%MOMM*%
%LPD*%
G01*
G04 APERTURE LIST*
%TA.AperFunction,ComponentPad*%
%ADD10C,2.600000*%
%TD*%
%TA.AperFunction,ComponentPad*%
%ADD11O,2.190000X1.740000*%
%TD*%
%TA.AperFunction,SMDPad,CuDef*%
%ADD12R,1.060000X0.650000*%
%TD*%
%TA.AperFunction,ViaPad*%
%ADD13C,1.200000*%
%TD*%
%TA.AperFunction,Conductor*%
%ADD14C,1.000000*%
%TD*%
%TA.AperFunction,Conductor*%
%ADD15C,0.600000*%
%TD*%
G04 APERTURE END LIST*
D10*
%TO.P,J1,1*%
%TO.N,Net-(J1-Pad1)*%
X175000000Y-61000000D03*
%TD*%
%TO.P,J2,1*%
%TO.N,Net-(J2-Pad1)*%
X179500000Y-70500000D03*
%TD*%
%TO.P,J3,1*%
%TO.N,Net-(J3-Pad1)*%
X175000000Y-70500000D03*
%TD*%
%TO.P,J4,1*%
%TO.N,Net-(J10-Pad1)*%
X170500000Y-70500000D03*
%TD*%
%TO.P,J5,1*%
%TO.N,Net-(J2-Pad1)*%
X183000000Y-78000000D03*
%TD*%
D11*
%TO.P,J6,3*%
%TO.N,N/C*%
X187500000Y-89080000D03*
%TO.P,J6,2*%
X187500000Y-86540000D03*
%TO.P,J6,1*%
%TO.N,Net-(J6-Pad1)*%
%TA.AperFunction,ComponentPad*%
G36*
G01*
X186654999Y-83130000D02*
X188345001Y-83130000D01*
G75*
G02*
X188595000Y-83379999I0J-249999D01*
G01*
X188595000Y-84620001D01*
G75*
G02*
X188345001Y-84870000I-249999J0D01*
G01*
X186654999Y-84870000D01*
G75*
G02*
X186405000Y-84620001I0J249999D01*
G01*
X186405000Y-83379999D01*
G75*
G02*
X186654999Y-83130000I249999J0D01*
G01*
G37*
%TD.AperFunction*%
%TD*%
D10*
%TO.P,J7,1*%
%TO.N,Net-(J7-Pad1)*%
X180000000Y-86000000D03*
%TD*%
%TO.P,J8,1*%
%TO.N,Net-(J8-Pad1)*%
%TA.AperFunction,ComponentPad*%
G36*
G01*
X161654999Y-83630000D02*
X163345001Y-83630000D01*
G75*
G02*
X163595000Y-83879999I0J-249999D01*
G01*
X163595000Y-85120001D01*
G75*
G02*
X163345001Y-85370000I-249999J0D01*
G01*
X161654999Y-85370000D01*
G75*
G02*
X161405000Y-85120001I0J249999D01*
G01*
X161405000Y-83879999D01*
G75*
G02*
X161654999Y-83630000I249999J0D01*
G01*
G37*
%TD.AperFunction*%
D11*
%TO.P,J8,2*%
%TO.N,N/C*%
X162500000Y-87040000D03*
%TO.P,J8,3*%
X162500000Y-89580000D03*
%TD*%
D10*
%TO.P,J9,1*%
%TO.N,Net-(J10-Pad1)*%
X164500000Y-71500000D03*
%TD*%
%TO.P,J10,1*%
%TO.N,Net-(J10-Pad1)*%
X167500000Y-78000000D03*
%TD*%
%TO.P,R1,2*%
%TO.N,Net-(J1-Pad1)*%
%TA.AperFunction,SMDPad,CuDef*%
G36*
G01*
X177050000Y-64543750D02*
X177050000Y-65456250D01*
G75*
G02*
X176806250Y-65700000I-243750J0D01*
G01*
X176318750Y-65700000D01*
G75*
G02*
X176075000Y-65456250I0J243750D01*
G01*
X176075000Y-64543750D01*
G75*
G02*
X176318750Y-64300000I243750J0D01*
G01*
X176806250Y-64300000D01*
G75*
G02*
X177050000Y-64543750I0J-243750D01*
G01*
G37*
%TD.AperFunction*%
%TO.P,R1,1*%
%TO.N,Net-(J2-Pad1)*%
%TA.AperFunction,SMDPad,CuDef*%
G36*
G01*
X178925000Y-64543750D02*
X178925000Y-65456250D01*
G75*
G02*
X178681250Y-65700000I-243750J0D01*
G01*
X178193750Y-65700000D01*
G75*
G02*
X177950000Y-65456250I0J243750D01*
G01*
X177950000Y-64543750D01*
G75*
G02*
X178193750Y-64300000I243750J0D01*
G01*
X178681250Y-64300000D01*
G75*
G02*
X178925000Y-64543750I0J-243750D01*
G01*
G37*
%TD.AperFunction*%
%TD*%
%TO.P,R2,1*%
%TO.N,Net-(J1-Pad1)*%
%TA.AperFunction,SMDPad,CuDef*%
G36*
G01*
X173925000Y-64543750D02*
X173925000Y-65456250D01*
G75*
G02*
X173681250Y-65700000I-243750J0D01*
G01*
X173193750Y-65700000D01*
G75*
G02*
X172950000Y-65456250I0J243750D01*
G01*
X172950000Y-64543750D01*
G75*
G02*
X173193750Y-64300000I243750J0D01*
G01*
X173681250Y-64300000D01*
G75*
G02*
X173925000Y-64543750I0J-243750D01*
G01*
G37*
%TD.AperFunction*%
%TO.P,R2,2*%
%TO.N,Net-(J10-Pad1)*%
%TA.AperFunction,SMDPad,CuDef*%
G36*
G01*
X172050000Y-64543750D02*
X172050000Y-65456250D01*
G75*
G02*
X171806250Y-65700000I-243750J0D01*
G01*
X171318750Y-65700000D01*
G75*
G02*
X171075000Y-65456250I0J243750D01*
G01*
X171075000Y-64543750D01*
G75*
G02*
X171318750Y-64300000I243750J0D01*
G01*
X171806250Y-64300000D01*
G75*
G02*
X172050000Y-64543750I0J-243750D01*
G01*
G37*
%TD.AperFunction*%
%TD*%
%TO.P,R3,2*%
%TO.N,Net-(R3-Pad2)*%
%TA.AperFunction,SMDPad,CuDef*%
G36*
G01*
X173450000Y-76456250D02*
X173450000Y-75543750D01*
G75*
G02*
X173693750Y-75300000I243750J0D01*
G01*
X174181250Y-75300000D01*
G75*
G02*
X174425000Y-75543750I0J-243750D01*
G01*
X174425000Y-76456250D01*
G75*
G02*
X174181250Y-76700000I-243750J0D01*
G01*
X173693750Y-76700000D01*
G75*
G02*
X173450000Y-76456250I0J243750D01*
G01*
G37*
%TD.AperFunction*%
%TO.P,R3,1*%
%TO.N,Net-(J10-Pad1)*%
%TA.AperFunction,SMDPad,CuDef*%
G36*
G01*
X171575000Y-76456250D02*
X171575000Y-75543750D01*
G75*
G02*
X171818750Y-75300000I243750J0D01*
G01*
X172306250Y-75300000D01*
G75*
G02*
X172550000Y-75543750I0J-243750D01*
G01*
X172550000Y-76456250D01*
G75*
G02*
X172306250Y-76700000I-243750J0D01*
G01*
X171818750Y-76700000D01*
G75*
G02*
X171575000Y-76456250I0J243750D01*
G01*
G37*
%TD.AperFunction*%
%TD*%
%TO.P,R4,1*%
%TO.N,Net-(J2-Pad1)*%
%TA.AperFunction,SMDPad,CuDef*%
G36*
G01*
X180487500Y-80043750D02*
X180487500Y-80956250D01*
G75*
G02*
X180243750Y-81200000I-243750J0D01*
G01*
X179756250Y-81200000D01*
G75*
G02*
X179512500Y-80956250I0J243750D01*
G01*
X179512500Y-80043750D01*
G75*
G02*
X179756250Y-79800000I243750J0D01*
G01*
X180243750Y-79800000D01*
G75*
G02*
X180487500Y-80043750I0J-243750D01*
G01*
G37*
%TD.AperFunction*%
%TO.P,R4,2*%
%TO.N,Net-(J6-Pad1)*%
%TA.AperFunction,SMDPad,CuDef*%
G36*
G01*
X178612500Y-80043750D02*
X178612500Y-80956250D01*
G75*
G02*
X178368750Y-81200000I-243750J0D01*
G01*
X177881250Y-81200000D01*
G75*
G02*
X177637500Y-80956250I0J243750D01*
G01*
X177637500Y-80043750D01*
G75*
G02*
X177881250Y-79800000I243750J0D01*
G01*
X178368750Y-79800000D01*
G75*
G02*
X178612500Y-80043750I0J-243750D01*
G01*
G37*
%TD.AperFunction*%
%TD*%
%TO.P,R5,1*%
%TO.N,Net-(R3-Pad2)*%
%TA.AperFunction,SMDPad,CuDef*%
G36*
G01*
X176075000Y-76456250D02*
X176075000Y-75543750D01*
G75*
G02*
X176318750Y-75300000I243750J0D01*
G01*
X176806250Y-75300000D01*
G75*
G02*
X177050000Y-75543750I0J-243750D01*
G01*
X177050000Y-76456250D01*
G75*
G02*
X176806250Y-76700000I-243750J0D01*
G01*
X176318750Y-76700000D01*
G75*
G02*
X176075000Y-76456250I0J243750D01*
G01*
G37*
%TD.AperFunction*%
%TO.P,R5,2*%
%TO.N,Net-(J6-Pad1)*%
%TA.AperFunction,SMDPad,CuDef*%
G36*
G01*
X177950000Y-76456250D02*
X177950000Y-75543750D01*
G75*
G02*
X178193750Y-75300000I243750J0D01*
G01*
X178681250Y-75300000D01*
G75*
G02*
X178925000Y-75543750I0J-243750D01*
G01*
X178925000Y-76456250D01*
G75*
G02*
X178681250Y-76700000I-243750J0D01*
G01*
X178193750Y-76700000D01*
G75*
G02*
X177950000Y-76456250I0J243750D01*
G01*
G37*
%TD.AperFunction*%
%TD*%
%TO.P,R6,2*%
%TO.N,Net-(J8-Pad1)*%
%TA.AperFunction,SMDPad,CuDef*%
G36*
G01*
X169550000Y-85606250D02*
X169550000Y-86518750D01*
G75*
G02*
X169306250Y-86762500I-243750J0D01*
G01*
X168818750Y-86762500D01*
G75*
G02*
X168575000Y-86518750I0J243750D01*
G01*
X168575000Y-85606250D01*
G75*
G02*
X168818750Y-85362500I243750J0D01*
G01*
X169306250Y-85362500D01*
G75*
G02*
X169550000Y-85606250I0J-243750D01*
G01*
G37*
%TD.AperFunction*%
%TO.P,R6,1*%
%TO.N,Net-(R6-Pad1)*%
%TA.AperFunction,SMDPad,CuDef*%
G36*
G01*
X171425000Y-85606250D02*
X171425000Y-86518750D01*
G75*
G02*
X171181250Y-86762500I-243750J0D01*
G01*
X170693750Y-86762500D01*
G75*
G02*
X170450000Y-86518750I0J243750D01*
G01*
X170450000Y-85606250D01*
G75*
G02*
X170693750Y-85362500I243750J0D01*
G01*
X171181250Y-85362500D01*
G75*
G02*
X171425000Y-85606250I0J-243750D01*
G01*
G37*
%TD.AperFunction*%
%TD*%
%TO.P,R7,2*%
%TO.N,Net-(J10-Pad1)*%
%TA.AperFunction,SMDPad,CuDef*%
G36*
G01*
X169450000Y-82456250D02*
X169450000Y-81543750D01*
G75*
G02*
X169693750Y-81300000I243750J0D01*
G01*
X170181250Y-81300000D01*
G75*
G02*
X170425000Y-81543750I0J-243750D01*
G01*
X170425000Y-82456250D01*
G75*
G02*
X170181250Y-82700000I-243750J0D01*
G01*
X169693750Y-82700000D01*
G75*
G02*
X169450000Y-82456250I0J243750D01*
G01*
G37*
%TD.AperFunction*%
%TO.P,R7,1*%
%TO.N,Net-(J8-Pad1)*%
%TA.AperFunction,SMDPad,CuDef*%
G36*
G01*
X167575000Y-82456250D02*
X167575000Y-81543750D01*
G75*
G02*
X167818750Y-81300000I243750J0D01*
G01*
X168306250Y-81300000D01*
G75*
G02*
X168550000Y-81543750I0J-243750D01*
G01*
X168550000Y-82456250D01*
G75*
G02*
X168306250Y-82700000I-243750J0D01*
G01*
X167818750Y-82700000D01*
G75*
G02*
X167575000Y-82456250I0J243750D01*
G01*
G37*
%TD.AperFunction*%
%TD*%
%TO.P,R8,1*%
%TO.N,Net-(J7-Pad1)*%
%TA.AperFunction,SMDPad,CuDef*%
G36*
G01*
X176425000Y-85543750D02*
X176425000Y-86456250D01*
G75*
G02*
X176181250Y-86700000I-243750J0D01*
G01*
X175693750Y-86700000D01*
G75*
G02*
X175450000Y-86456250I0J243750D01*
G01*
X175450000Y-85543750D01*
G75*
G02*
X175693750Y-85300000I243750J0D01*
G01*
X176181250Y-85300000D01*
G75*
G02*
X176425000Y-85543750I0J-243750D01*
G01*
G37*
%TD.AperFunction*%
%TO.P,R8,2*%
%TO.N,Net-(R6-Pad1)*%
%TA.AperFunction,SMDPad,CuDef*%
G36*
G01*
X174550000Y-85543750D02*
X174550000Y-86456250D01*
G75*
G02*
X174306250Y-86700000I-243750J0D01*
G01*
X173818750Y-86700000D01*
G75*
G02*
X173575000Y-86456250I0J243750D01*
G01*
X173575000Y-85543750D01*
G75*
G02*
X173818750Y-85300000I243750J0D01*
G01*
X174306250Y-85300000D01*
G75*
G02*
X174550000Y-85543750I0J-243750D01*
G01*
G37*
%TD.AperFunction*%
%TD*%
D12*
%TO.P,U1,1*%
%TO.N,Net-(R3-Pad2)*%
X172500000Y-80500000D03*
%TO.P,U1,2*%
%TO.N,Net-(J10-Pad1)*%
X172500000Y-81450000D03*
%TO.P,U1,3*%
%TO.N,Net-(R6-Pad1)*%
X172500000Y-82400000D03*
%TO.P,U1,4*%
%TO.N,Net-(J7-Pad1)*%
X174700000Y-82400000D03*
%TO.P,U1,5*%
%TO.N,Net-(J2-Pad1)*%
X174700000Y-80500000D03*
%TD*%
D13*
%TO.N,Net-(J6-Pad1)*%
X178437500Y-78062500D03*
%TD*%
D14*
%TO.N,Net-(J1-Pad1)*%
X175000000Y-61000000D02*
X175000000Y-65000000D01*
X175000000Y-65000000D02*
X173437500Y-65000000D01*
X175000000Y-65000000D02*
X176562500Y-65000000D01*
%TO.N,Net-(J2-Pad1)*%
X178437500Y-69437500D02*
X179500000Y-70500000D01*
X178437500Y-65000000D02*
X178437500Y-69437500D01*
X179500000Y-70500000D02*
X182500000Y-73500000D01*
X182500000Y-77500000D02*
X183000000Y-78000000D01*
X182500000Y-73500000D02*
X182500000Y-77500000D01*
D15*
X174700000Y-80500000D02*
X177200000Y-83000000D01*
X177200000Y-83000000D02*
X179500000Y-83000000D01*
X180000000Y-82500000D02*
X180000000Y-80500000D01*
X179500000Y-83000000D02*
X180000000Y-82500000D01*
D14*
X182500000Y-78000000D02*
X180000000Y-80500000D01*
X183000000Y-78000000D02*
X182500000Y-78000000D01*
%TO.N,Net-(J10-Pad1)*%
X171562500Y-69437500D02*
X170500000Y-70500000D01*
X171562500Y-65000000D02*
X171562500Y-69437500D01*
X170500000Y-70500000D02*
X167500000Y-73500000D01*
X167500000Y-73500000D02*
X167500000Y-78000000D01*
X172062500Y-76000000D02*
X171500000Y-76000000D01*
X169500000Y-78000000D02*
X167500000Y-78000000D01*
X171500000Y-76000000D02*
X169500000Y-78000000D01*
X169937500Y-80437500D02*
X169937500Y-82000000D01*
X167500000Y-78000000D02*
X169937500Y-80437500D01*
D15*
X170487500Y-81450000D02*
X169937500Y-82000000D01*
X172500000Y-81450000D02*
X170487500Y-81450000D01*
D14*
X166500000Y-73500000D02*
X167500000Y-73500000D01*
X164500000Y-71500000D02*
X166500000Y-73500000D01*
%TO.N,Net-(J6-Pad1)*%
X178437500Y-80187500D02*
X178125000Y-80500000D01*
X178437500Y-76000000D02*
X178437500Y-78062500D01*
X178437500Y-78062500D02*
X178437500Y-80187500D01*
%TO.N,Net-(J7-Pad1)*%
X180000000Y-86000000D02*
X175937500Y-86000000D01*
D15*
X174700000Y-82400000D02*
X174700000Y-83200000D01*
X175937500Y-84437500D02*
X175937500Y-86000000D01*
X174700000Y-83200000D02*
X175937500Y-84437500D01*
D14*
%TO.N,Net-(J8-Pad1)*%
X168062500Y-85062500D02*
X169062500Y-86062500D01*
X168062500Y-82000000D02*
X168062500Y-85062500D01*
X167500000Y-84500000D02*
X168062500Y-85062500D01*
X162500000Y-84500000D02*
X167500000Y-84500000D01*
D15*
%TO.N,Net-(R3-Pad2)*%
X173937500Y-79062500D02*
X172500000Y-80500000D01*
X173937500Y-76000000D02*
X173937500Y-79062500D01*
D14*
X176562500Y-76000000D02*
X173937500Y-76000000D01*
%TO.N,Net-(R6-Pad1)*%
X171000000Y-86000000D02*
X170937500Y-86062500D01*
D15*
X172500000Y-82400000D02*
X172500000Y-85500000D01*
X172500000Y-85500000D02*
X172000000Y-86000000D01*
D14*
X174062500Y-86000000D02*
X172000000Y-86000000D01*
X172000000Y-86000000D02*
X171000000Y-86000000D01*
%TD*%
M02*
