%TF.GenerationSoftware,KiCad,Pcbnew,5.1.6-c6e7f7d~86~ubuntu18.04.1*%
%TF.CreationDate,2020-08-21T18:27:22+12:00*%
%TF.ProjectId,Biasing and 10V Test,42696173-696e-4672-9061-6e6420313056,rev?*%
%TF.SameCoordinates,Original*%
%TF.FileFunction,Legend,Top*%
%TF.FilePolarity,Positive*%
%FSLAX46Y46*%
G04 Gerber Fmt 4.6, Leading zero omitted, Abs format (unit mm)*
G04 Created by KiCad (PCBNEW 5.1.6-c6e7f7d~86~ubuntu18.04.1) date 2020-08-21 18:27:22*
%MOMM*%
%LPD*%
G01*
G04 APERTURE LIST*
%ADD10C,0.120000*%
%ADD11C,0.127000*%
%ADD12C,0.200000*%
%ADD13C,0.150000*%
%ADD14C,0.015000*%
G04 APERTURE END LIST*
D10*
%TO.C,C1*%
X120620064Y-74379500D02*
X119415936Y-74379500D01*
X120620064Y-72559500D02*
X119415936Y-72559500D01*
%TO.C,C2*%
X132240564Y-85259500D02*
X131036436Y-85259500D01*
X132240564Y-87079500D02*
X131036436Y-87079500D01*
%TO.C,J1*%
X112979781Y-80454500D02*
G75*
G03*
X112979781Y-80454500I-1600781J0D01*
G01*
%TO.C,J2*%
X117043781Y-62420500D02*
G75*
G03*
X117043781Y-62420500I-1600781J0D01*
G01*
%TO.C,J3*%
X128156281Y-93599000D02*
G75*
G03*
X128156281Y-93599000I-1600781J0D01*
G01*
%TO.C,J4*%
X138252781Y-93662500D02*
G75*
G03*
X138252781Y-93662500I-1600781J0D01*
G01*
%TO.C,J5*%
X154000781Y-82423000D02*
G75*
G03*
X154000781Y-82423000I-1600781J0D01*
G01*
%TO.C,J6*%
X145936281Y-86169500D02*
G75*
G03*
X145936281Y-86169500I-1600781J0D01*
G01*
%TO.C,J7*%
X159144281Y-81216500D02*
G75*
G03*
X159144281Y-81216500I-1600781J0D01*
G01*
%TO.C,J8*%
X157048781Y-69278500D02*
G75*
G03*
X157048781Y-69278500I-1600781J0D01*
G01*
%TO.C,J9*%
X162954281Y-75501500D02*
G75*
G03*
X162954281Y-75501500I-1600781J0D01*
G01*
%TO.C,J10*%
X121552281Y-93535500D02*
G75*
G03*
X121552281Y-93535500I-1600781J0D01*
G01*
%TO.C,R1*%
X114533000Y-71467436D02*
X114533000Y-72671564D01*
X116353000Y-71467436D02*
X116353000Y-72671564D01*
%TO.C,R2*%
X125645500Y-86961436D02*
X125645500Y-88165564D01*
X127465500Y-86961436D02*
X127465500Y-88165564D01*
%TO.C,R3*%
X122322000Y-68171436D02*
X122322000Y-69375564D01*
X120502000Y-68171436D02*
X120502000Y-69375564D01*
%TO.C,R4*%
X126400936Y-68283500D02*
X127605064Y-68283500D01*
X126400936Y-66463500D02*
X127605064Y-66463500D01*
%TO.C,R5*%
X135742000Y-86967436D02*
X135742000Y-88171564D01*
X137562000Y-86967436D02*
X137562000Y-88171564D01*
%TO.C,R6*%
X135149000Y-72169564D02*
X135149000Y-70965436D01*
X133329000Y-72169564D02*
X133329000Y-70965436D01*
%TO.C,R7*%
X135085500Y-78008564D02*
X135085500Y-76804436D01*
X133265500Y-78008564D02*
X133265500Y-76804436D01*
%TO.C,R8*%
X117445064Y-68283500D02*
X116240936Y-68283500D01*
X117445064Y-66463500D02*
X116240936Y-66463500D01*
%TO.C,R9*%
X140807064Y-73935000D02*
X139602936Y-73935000D01*
X140807064Y-72115000D02*
X139602936Y-72115000D01*
%TO.C,R10*%
X140813064Y-79713500D02*
X139608936Y-79713500D01*
X140813064Y-77893500D02*
X139608936Y-77893500D01*
%TO.C,R11*%
X146395064Y-73935000D02*
X145190936Y-73935000D01*
X146395064Y-72115000D02*
X145190936Y-72115000D01*
%TO.C,R12*%
X146395064Y-77893500D02*
X145190936Y-77893500D01*
X146395064Y-79713500D02*
X145190936Y-79713500D01*
%TO.C,R13*%
X128545000Y-76994936D02*
X128545000Y-78199064D01*
X126725000Y-76994936D02*
X126725000Y-78199064D01*
%TO.C,R14*%
X129773000Y-78196064D02*
X129773000Y-76991936D01*
X131593000Y-78196064D02*
X131593000Y-76991936D01*
D11*
%TO.C,U1*%
X119729500Y-82329500D02*
X123729500Y-82329500D01*
X119729500Y-77309500D02*
X123729500Y-77309500D01*
D12*
X117384500Y-77344500D02*
G75*
G03*
X117384500Y-77344500I-100000J0D01*
G01*
D13*
%TO.C,U2*%
X154986500Y-76967500D02*
X156211500Y-76967500D01*
X154986500Y-73842500D02*
X151636500Y-73842500D01*
X154986500Y-77192500D02*
X151636500Y-77192500D01*
X154986500Y-73842500D02*
X154986500Y-74142500D01*
X151636500Y-73842500D02*
X151636500Y-74142500D01*
X151636500Y-77192500D02*
X151636500Y-76892500D01*
X154986500Y-77192500D02*
X154986500Y-76967500D01*
D10*
%TO.C,J11*%
X113360781Y-87503000D02*
G75*
G03*
X113360781Y-87503000I-1600781J0D01*
G01*
%TO.C,J12*%
X129997781Y-62547500D02*
G75*
G03*
X129997781Y-62547500I-1600781J0D01*
G01*
%TO.C,C1*%
D13*
X119851333Y-75646642D02*
X119803714Y-75694261D01*
X119660857Y-75741880D01*
X119565619Y-75741880D01*
X119422761Y-75694261D01*
X119327523Y-75599023D01*
X119279904Y-75503785D01*
X119232285Y-75313309D01*
X119232285Y-75170452D01*
X119279904Y-74979976D01*
X119327523Y-74884738D01*
X119422761Y-74789500D01*
X119565619Y-74741880D01*
X119660857Y-74741880D01*
X119803714Y-74789500D01*
X119851333Y-74837119D01*
X120803714Y-75741880D02*
X120232285Y-75741880D01*
X120518000Y-75741880D02*
X120518000Y-74741880D01*
X120422761Y-74884738D01*
X120327523Y-74979976D01*
X120232285Y-75027595D01*
%TO.C,C2*%
X131471833Y-88346642D02*
X131424214Y-88394261D01*
X131281357Y-88441880D01*
X131186119Y-88441880D01*
X131043261Y-88394261D01*
X130948023Y-88299023D01*
X130900404Y-88203785D01*
X130852785Y-88013309D01*
X130852785Y-87870452D01*
X130900404Y-87679976D01*
X130948023Y-87584738D01*
X131043261Y-87489500D01*
X131186119Y-87441880D01*
X131281357Y-87441880D01*
X131424214Y-87489500D01*
X131471833Y-87537119D01*
X131852785Y-87537119D02*
X131900404Y-87489500D01*
X131995642Y-87441880D01*
X132233738Y-87441880D01*
X132328976Y-87489500D01*
X132376595Y-87537119D01*
X132424214Y-87632357D01*
X132424214Y-87727595D01*
X132376595Y-87870452D01*
X131805166Y-88441880D01*
X132424214Y-88441880D01*
%TO.C,J1*%
X111045666Y-82306880D02*
X111045666Y-83021166D01*
X110998047Y-83164023D01*
X110902809Y-83259261D01*
X110759952Y-83306880D01*
X110664714Y-83306880D01*
X112045666Y-83306880D02*
X111474238Y-83306880D01*
X111759952Y-83306880D02*
X111759952Y-82306880D01*
X111664714Y-82449738D01*
X111569476Y-82544976D01*
X111474238Y-82592595D01*
%TO.C,J2*%
X115109666Y-64272880D02*
X115109666Y-64987166D01*
X115062047Y-65130023D01*
X114966809Y-65225261D01*
X114823952Y-65272880D01*
X114728714Y-65272880D01*
X115538238Y-64368119D02*
X115585857Y-64320500D01*
X115681095Y-64272880D01*
X115919190Y-64272880D01*
X116014428Y-64320500D01*
X116062047Y-64368119D01*
X116109666Y-64463357D01*
X116109666Y-64558595D01*
X116062047Y-64701452D01*
X115490619Y-65272880D01*
X116109666Y-65272880D01*
%TO.C,J3*%
X126222166Y-95451380D02*
X126222166Y-96165666D01*
X126174547Y-96308523D01*
X126079309Y-96403761D01*
X125936452Y-96451380D01*
X125841214Y-96451380D01*
X126603119Y-95451380D02*
X127222166Y-95451380D01*
X126888833Y-95832333D01*
X127031690Y-95832333D01*
X127126928Y-95879952D01*
X127174547Y-95927571D01*
X127222166Y-96022809D01*
X127222166Y-96260904D01*
X127174547Y-96356142D01*
X127126928Y-96403761D01*
X127031690Y-96451380D01*
X126745976Y-96451380D01*
X126650738Y-96403761D01*
X126603119Y-96356142D01*
%TO.C,J4*%
X136318666Y-95514880D02*
X136318666Y-96229166D01*
X136271047Y-96372023D01*
X136175809Y-96467261D01*
X136032952Y-96514880D01*
X135937714Y-96514880D01*
X137223428Y-95848214D02*
X137223428Y-96514880D01*
X136985333Y-95467261D02*
X136747238Y-96181547D01*
X137366285Y-96181547D01*
%TO.C,J5*%
X152066666Y-84275380D02*
X152066666Y-84989666D01*
X152019047Y-85132523D01*
X151923809Y-85227761D01*
X151780952Y-85275380D01*
X151685714Y-85275380D01*
X153019047Y-84275380D02*
X152542857Y-84275380D01*
X152495238Y-84751571D01*
X152542857Y-84703952D01*
X152638095Y-84656333D01*
X152876190Y-84656333D01*
X152971428Y-84703952D01*
X153019047Y-84751571D01*
X153066666Y-84846809D01*
X153066666Y-85084904D01*
X153019047Y-85180142D01*
X152971428Y-85227761D01*
X152876190Y-85275380D01*
X152638095Y-85275380D01*
X152542857Y-85227761D01*
X152495238Y-85180142D01*
%TO.C,J6*%
X144002166Y-88021880D02*
X144002166Y-88736166D01*
X143954547Y-88879023D01*
X143859309Y-88974261D01*
X143716452Y-89021880D01*
X143621214Y-89021880D01*
X144906928Y-88021880D02*
X144716452Y-88021880D01*
X144621214Y-88069500D01*
X144573595Y-88117119D01*
X144478357Y-88259976D01*
X144430738Y-88450452D01*
X144430738Y-88831404D01*
X144478357Y-88926642D01*
X144525976Y-88974261D01*
X144621214Y-89021880D01*
X144811690Y-89021880D01*
X144906928Y-88974261D01*
X144954547Y-88926642D01*
X145002166Y-88831404D01*
X145002166Y-88593309D01*
X144954547Y-88498071D01*
X144906928Y-88450452D01*
X144811690Y-88402833D01*
X144621214Y-88402833D01*
X144525976Y-88450452D01*
X144478357Y-88498071D01*
X144430738Y-88593309D01*
%TO.C,J7*%
X157210166Y-83068880D02*
X157210166Y-83783166D01*
X157162547Y-83926023D01*
X157067309Y-84021261D01*
X156924452Y-84068880D01*
X156829214Y-84068880D01*
X157591119Y-83068880D02*
X158257785Y-83068880D01*
X157829214Y-84068880D01*
%TO.C,J8*%
X155114666Y-71130880D02*
X155114666Y-71845166D01*
X155067047Y-71988023D01*
X154971809Y-72083261D01*
X154828952Y-72130880D01*
X154733714Y-72130880D01*
X155733714Y-71559452D02*
X155638476Y-71511833D01*
X155590857Y-71464214D01*
X155543238Y-71368976D01*
X155543238Y-71321357D01*
X155590857Y-71226119D01*
X155638476Y-71178500D01*
X155733714Y-71130880D01*
X155924190Y-71130880D01*
X156019428Y-71178500D01*
X156067047Y-71226119D01*
X156114666Y-71321357D01*
X156114666Y-71368976D01*
X156067047Y-71464214D01*
X156019428Y-71511833D01*
X155924190Y-71559452D01*
X155733714Y-71559452D01*
X155638476Y-71607071D01*
X155590857Y-71654690D01*
X155543238Y-71749928D01*
X155543238Y-71940404D01*
X155590857Y-72035642D01*
X155638476Y-72083261D01*
X155733714Y-72130880D01*
X155924190Y-72130880D01*
X156019428Y-72083261D01*
X156067047Y-72035642D01*
X156114666Y-71940404D01*
X156114666Y-71749928D01*
X156067047Y-71654690D01*
X156019428Y-71607071D01*
X155924190Y-71559452D01*
%TO.C,J9*%
X161020166Y-77353880D02*
X161020166Y-78068166D01*
X160972547Y-78211023D01*
X160877309Y-78306261D01*
X160734452Y-78353880D01*
X160639214Y-78353880D01*
X161543976Y-78353880D02*
X161734452Y-78353880D01*
X161829690Y-78306261D01*
X161877309Y-78258642D01*
X161972547Y-78115785D01*
X162020166Y-77925309D01*
X162020166Y-77544357D01*
X161972547Y-77449119D01*
X161924928Y-77401500D01*
X161829690Y-77353880D01*
X161639214Y-77353880D01*
X161543976Y-77401500D01*
X161496357Y-77449119D01*
X161448738Y-77544357D01*
X161448738Y-77782452D01*
X161496357Y-77877690D01*
X161543976Y-77925309D01*
X161639214Y-77972928D01*
X161829690Y-77972928D01*
X161924928Y-77925309D01*
X161972547Y-77877690D01*
X162020166Y-77782452D01*
%TO.C,J10*%
X119141976Y-95387880D02*
X119141976Y-96102166D01*
X119094357Y-96245023D01*
X118999119Y-96340261D01*
X118856261Y-96387880D01*
X118761023Y-96387880D01*
X120141976Y-96387880D02*
X119570547Y-96387880D01*
X119856261Y-96387880D02*
X119856261Y-95387880D01*
X119761023Y-95530738D01*
X119665785Y-95625976D01*
X119570547Y-95673595D01*
X120761023Y-95387880D02*
X120856261Y-95387880D01*
X120951500Y-95435500D01*
X120999119Y-95483119D01*
X121046738Y-95578357D01*
X121094357Y-95768833D01*
X121094357Y-96006928D01*
X121046738Y-96197404D01*
X120999119Y-96292642D01*
X120951500Y-96340261D01*
X120856261Y-96387880D01*
X120761023Y-96387880D01*
X120665785Y-96340261D01*
X120618166Y-96292642D01*
X120570547Y-96197404D01*
X120522928Y-96006928D01*
X120522928Y-95768833D01*
X120570547Y-95578357D01*
X120618166Y-95483119D01*
X120665785Y-95435500D01*
X120761023Y-95387880D01*
%TO.C,R1*%
X117715380Y-72236166D02*
X117239190Y-72569500D01*
X117715380Y-72807595D02*
X116715380Y-72807595D01*
X116715380Y-72426642D01*
X116763000Y-72331404D01*
X116810619Y-72283785D01*
X116905857Y-72236166D01*
X117048714Y-72236166D01*
X117143952Y-72283785D01*
X117191571Y-72331404D01*
X117239190Y-72426642D01*
X117239190Y-72807595D01*
X117715380Y-71283785D02*
X117715380Y-71855214D01*
X117715380Y-71569500D02*
X116715380Y-71569500D01*
X116858238Y-71664738D01*
X116953476Y-71759976D01*
X117001095Y-71855214D01*
%TO.C,R2*%
X128827880Y-87730166D02*
X128351690Y-88063500D01*
X128827880Y-88301595D02*
X127827880Y-88301595D01*
X127827880Y-87920642D01*
X127875500Y-87825404D01*
X127923119Y-87777785D01*
X128018357Y-87730166D01*
X128161214Y-87730166D01*
X128256452Y-87777785D01*
X128304071Y-87825404D01*
X128351690Y-87920642D01*
X128351690Y-88301595D01*
X127923119Y-87349214D02*
X127875500Y-87301595D01*
X127827880Y-87206357D01*
X127827880Y-86968261D01*
X127875500Y-86873023D01*
X127923119Y-86825404D01*
X128018357Y-86777785D01*
X128113595Y-86777785D01*
X128256452Y-86825404D01*
X128827880Y-87396833D01*
X128827880Y-86777785D01*
%TO.C,R3*%
X123684380Y-68940166D02*
X123208190Y-69273500D01*
X123684380Y-69511595D02*
X122684380Y-69511595D01*
X122684380Y-69130642D01*
X122732000Y-69035404D01*
X122779619Y-68987785D01*
X122874857Y-68940166D01*
X123017714Y-68940166D01*
X123112952Y-68987785D01*
X123160571Y-69035404D01*
X123208190Y-69130642D01*
X123208190Y-69511595D01*
X122684380Y-68606833D02*
X122684380Y-67987785D01*
X123065333Y-68321119D01*
X123065333Y-68178261D01*
X123112952Y-68083023D01*
X123160571Y-68035404D01*
X123255809Y-67987785D01*
X123493904Y-67987785D01*
X123589142Y-68035404D01*
X123636761Y-68083023D01*
X123684380Y-68178261D01*
X123684380Y-68463976D01*
X123636761Y-68559214D01*
X123589142Y-68606833D01*
%TO.C,R4*%
X126836333Y-66005880D02*
X126503000Y-65529690D01*
X126264904Y-66005880D02*
X126264904Y-65005880D01*
X126645857Y-65005880D01*
X126741095Y-65053500D01*
X126788714Y-65101119D01*
X126836333Y-65196357D01*
X126836333Y-65339214D01*
X126788714Y-65434452D01*
X126741095Y-65482071D01*
X126645857Y-65529690D01*
X126264904Y-65529690D01*
X127693476Y-65339214D02*
X127693476Y-66005880D01*
X127455380Y-64958261D02*
X127217285Y-65672547D01*
X127836333Y-65672547D01*
%TO.C,R5*%
X138924380Y-87736166D02*
X138448190Y-88069500D01*
X138924380Y-88307595D02*
X137924380Y-88307595D01*
X137924380Y-87926642D01*
X137972000Y-87831404D01*
X138019619Y-87783785D01*
X138114857Y-87736166D01*
X138257714Y-87736166D01*
X138352952Y-87783785D01*
X138400571Y-87831404D01*
X138448190Y-87926642D01*
X138448190Y-88307595D01*
X137924380Y-86831404D02*
X137924380Y-87307595D01*
X138400571Y-87355214D01*
X138352952Y-87307595D01*
X138305333Y-87212357D01*
X138305333Y-86974261D01*
X138352952Y-86879023D01*
X138400571Y-86831404D01*
X138495809Y-86783785D01*
X138733904Y-86783785D01*
X138829142Y-86831404D01*
X138876761Y-86879023D01*
X138924380Y-86974261D01*
X138924380Y-87212357D01*
X138876761Y-87307595D01*
X138829142Y-87355214D01*
%TO.C,R6*%
X132871380Y-71734166D02*
X132395190Y-72067500D01*
X132871380Y-72305595D02*
X131871380Y-72305595D01*
X131871380Y-71924642D01*
X131919000Y-71829404D01*
X131966619Y-71781785D01*
X132061857Y-71734166D01*
X132204714Y-71734166D01*
X132299952Y-71781785D01*
X132347571Y-71829404D01*
X132395190Y-71924642D01*
X132395190Y-72305595D01*
X131871380Y-70877023D02*
X131871380Y-71067500D01*
X131919000Y-71162738D01*
X131966619Y-71210357D01*
X132109476Y-71305595D01*
X132299952Y-71353214D01*
X132680904Y-71353214D01*
X132776142Y-71305595D01*
X132823761Y-71257976D01*
X132871380Y-71162738D01*
X132871380Y-70972261D01*
X132823761Y-70877023D01*
X132776142Y-70829404D01*
X132680904Y-70781785D01*
X132442809Y-70781785D01*
X132347571Y-70829404D01*
X132299952Y-70877023D01*
X132252333Y-70972261D01*
X132252333Y-71162738D01*
X132299952Y-71257976D01*
X132347571Y-71305595D01*
X132442809Y-71353214D01*
%TO.C,R7*%
X132807880Y-77573166D02*
X132331690Y-77906500D01*
X132807880Y-78144595D02*
X131807880Y-78144595D01*
X131807880Y-77763642D01*
X131855500Y-77668404D01*
X131903119Y-77620785D01*
X131998357Y-77573166D01*
X132141214Y-77573166D01*
X132236452Y-77620785D01*
X132284071Y-77668404D01*
X132331690Y-77763642D01*
X132331690Y-78144595D01*
X131807880Y-77239833D02*
X131807880Y-76573166D01*
X132807880Y-77001738D01*
%TO.C,R8*%
X116676333Y-69645880D02*
X116343000Y-69169690D01*
X116104904Y-69645880D02*
X116104904Y-68645880D01*
X116485857Y-68645880D01*
X116581095Y-68693500D01*
X116628714Y-68741119D01*
X116676333Y-68836357D01*
X116676333Y-68979214D01*
X116628714Y-69074452D01*
X116581095Y-69122071D01*
X116485857Y-69169690D01*
X116104904Y-69169690D01*
X117247761Y-69074452D02*
X117152523Y-69026833D01*
X117104904Y-68979214D01*
X117057285Y-68883976D01*
X117057285Y-68836357D01*
X117104904Y-68741119D01*
X117152523Y-68693500D01*
X117247761Y-68645880D01*
X117438238Y-68645880D01*
X117533476Y-68693500D01*
X117581095Y-68741119D01*
X117628714Y-68836357D01*
X117628714Y-68883976D01*
X117581095Y-68979214D01*
X117533476Y-69026833D01*
X117438238Y-69074452D01*
X117247761Y-69074452D01*
X117152523Y-69122071D01*
X117104904Y-69169690D01*
X117057285Y-69264928D01*
X117057285Y-69455404D01*
X117104904Y-69550642D01*
X117152523Y-69598261D01*
X117247761Y-69645880D01*
X117438238Y-69645880D01*
X117533476Y-69598261D01*
X117581095Y-69550642D01*
X117628714Y-69455404D01*
X117628714Y-69264928D01*
X117581095Y-69169690D01*
X117533476Y-69122071D01*
X117438238Y-69074452D01*
%TO.C,R9*%
X140038333Y-75297380D02*
X139705000Y-74821190D01*
X139466904Y-75297380D02*
X139466904Y-74297380D01*
X139847857Y-74297380D01*
X139943095Y-74345000D01*
X139990714Y-74392619D01*
X140038333Y-74487857D01*
X140038333Y-74630714D01*
X139990714Y-74725952D01*
X139943095Y-74773571D01*
X139847857Y-74821190D01*
X139466904Y-74821190D01*
X140514523Y-75297380D02*
X140705000Y-75297380D01*
X140800238Y-75249761D01*
X140847857Y-75202142D01*
X140943095Y-75059285D01*
X140990714Y-74868809D01*
X140990714Y-74487857D01*
X140943095Y-74392619D01*
X140895476Y-74345000D01*
X140800238Y-74297380D01*
X140609761Y-74297380D01*
X140514523Y-74345000D01*
X140466904Y-74392619D01*
X140419285Y-74487857D01*
X140419285Y-74725952D01*
X140466904Y-74821190D01*
X140514523Y-74868809D01*
X140609761Y-74916428D01*
X140800238Y-74916428D01*
X140895476Y-74868809D01*
X140943095Y-74821190D01*
X140990714Y-74725952D01*
%TO.C,R10*%
X139568142Y-81075880D02*
X139234809Y-80599690D01*
X138996714Y-81075880D02*
X138996714Y-80075880D01*
X139377666Y-80075880D01*
X139472904Y-80123500D01*
X139520523Y-80171119D01*
X139568142Y-80266357D01*
X139568142Y-80409214D01*
X139520523Y-80504452D01*
X139472904Y-80552071D01*
X139377666Y-80599690D01*
X138996714Y-80599690D01*
X140520523Y-81075880D02*
X139949095Y-81075880D01*
X140234809Y-81075880D02*
X140234809Y-80075880D01*
X140139571Y-80218738D01*
X140044333Y-80313976D01*
X139949095Y-80361595D01*
X141139571Y-80075880D02*
X141234809Y-80075880D01*
X141330047Y-80123500D01*
X141377666Y-80171119D01*
X141425285Y-80266357D01*
X141472904Y-80456833D01*
X141472904Y-80694928D01*
X141425285Y-80885404D01*
X141377666Y-80980642D01*
X141330047Y-81028261D01*
X141234809Y-81075880D01*
X141139571Y-81075880D01*
X141044333Y-81028261D01*
X140996714Y-80980642D01*
X140949095Y-80885404D01*
X140901476Y-80694928D01*
X140901476Y-80456833D01*
X140949095Y-80266357D01*
X140996714Y-80171119D01*
X141044333Y-80123500D01*
X141139571Y-80075880D01*
%TO.C,R11*%
X145150142Y-75297380D02*
X144816809Y-74821190D01*
X144578714Y-75297380D02*
X144578714Y-74297380D01*
X144959666Y-74297380D01*
X145054904Y-74345000D01*
X145102523Y-74392619D01*
X145150142Y-74487857D01*
X145150142Y-74630714D01*
X145102523Y-74725952D01*
X145054904Y-74773571D01*
X144959666Y-74821190D01*
X144578714Y-74821190D01*
X146102523Y-75297380D02*
X145531095Y-75297380D01*
X145816809Y-75297380D02*
X145816809Y-74297380D01*
X145721571Y-74440238D01*
X145626333Y-74535476D01*
X145531095Y-74583095D01*
X147054904Y-75297380D02*
X146483476Y-75297380D01*
X146769190Y-75297380D02*
X146769190Y-74297380D01*
X146673952Y-74440238D01*
X146578714Y-74535476D01*
X146483476Y-74583095D01*
%TO.C,R12*%
X145150142Y-81075880D02*
X144816809Y-80599690D01*
X144578714Y-81075880D02*
X144578714Y-80075880D01*
X144959666Y-80075880D01*
X145054904Y-80123500D01*
X145102523Y-80171119D01*
X145150142Y-80266357D01*
X145150142Y-80409214D01*
X145102523Y-80504452D01*
X145054904Y-80552071D01*
X144959666Y-80599690D01*
X144578714Y-80599690D01*
X146102523Y-81075880D02*
X145531095Y-81075880D01*
X145816809Y-81075880D02*
X145816809Y-80075880D01*
X145721571Y-80218738D01*
X145626333Y-80313976D01*
X145531095Y-80361595D01*
X146483476Y-80171119D02*
X146531095Y-80123500D01*
X146626333Y-80075880D01*
X146864428Y-80075880D01*
X146959666Y-80123500D01*
X147007285Y-80171119D01*
X147054904Y-80266357D01*
X147054904Y-80361595D01*
X147007285Y-80504452D01*
X146435857Y-81075880D01*
X147054904Y-81075880D01*
%TO.C,R13*%
X129907380Y-78239857D02*
X129431190Y-78573190D01*
X129907380Y-78811285D02*
X128907380Y-78811285D01*
X128907380Y-78430333D01*
X128955000Y-78335095D01*
X129002619Y-78287476D01*
X129097857Y-78239857D01*
X129240714Y-78239857D01*
X129335952Y-78287476D01*
X129383571Y-78335095D01*
X129431190Y-78430333D01*
X129431190Y-78811285D01*
X129907380Y-77287476D02*
X129907380Y-77858904D01*
X129907380Y-77573190D02*
X128907380Y-77573190D01*
X129050238Y-77668428D01*
X129145476Y-77763666D01*
X129193095Y-77858904D01*
X128907380Y-76954142D02*
X128907380Y-76335095D01*
X129288333Y-76668428D01*
X129288333Y-76525571D01*
X129335952Y-76430333D01*
X129383571Y-76382714D01*
X129478809Y-76335095D01*
X129716904Y-76335095D01*
X129812142Y-76382714D01*
X129859761Y-76430333D01*
X129907380Y-76525571D01*
X129907380Y-76811285D01*
X129859761Y-76906523D01*
X129812142Y-76954142D01*
%TO.C,R14*%
X129315380Y-78236857D02*
X128839190Y-78570190D01*
X129315380Y-78808285D02*
X128315380Y-78808285D01*
X128315380Y-78427333D01*
X128363000Y-78332095D01*
X128410619Y-78284476D01*
X128505857Y-78236857D01*
X128648714Y-78236857D01*
X128743952Y-78284476D01*
X128791571Y-78332095D01*
X128839190Y-78427333D01*
X128839190Y-78808285D01*
X129315380Y-77284476D02*
X129315380Y-77855904D01*
X129315380Y-77570190D02*
X128315380Y-77570190D01*
X128458238Y-77665428D01*
X128553476Y-77760666D01*
X128601095Y-77855904D01*
X128648714Y-76427333D02*
X129315380Y-76427333D01*
X128267761Y-76665428D02*
X128982047Y-76903523D01*
X128982047Y-76284476D01*
%TO.C,U1*%
D14*
X120172595Y-75949880D02*
X120172595Y-76759404D01*
X120220214Y-76854642D01*
X120267833Y-76902261D01*
X120363071Y-76949880D01*
X120553547Y-76949880D01*
X120648785Y-76902261D01*
X120696404Y-76854642D01*
X120744023Y-76759404D01*
X120744023Y-75949880D01*
X121744023Y-76949880D02*
X121172595Y-76949880D01*
X121458309Y-76949880D02*
X121458309Y-75949880D01*
X121363071Y-76092738D01*
X121267833Y-76187976D01*
X121172595Y-76235595D01*
%TO.C,U2*%
D13*
X152549595Y-77569880D02*
X152549595Y-78379404D01*
X152597214Y-78474642D01*
X152644833Y-78522261D01*
X152740071Y-78569880D01*
X152930547Y-78569880D01*
X153025785Y-78522261D01*
X153073404Y-78474642D01*
X153121023Y-78379404D01*
X153121023Y-77569880D01*
X153549595Y-77665119D02*
X153597214Y-77617500D01*
X153692452Y-77569880D01*
X153930547Y-77569880D01*
X154025785Y-77617500D01*
X154073404Y-77665119D01*
X154121023Y-77760357D01*
X154121023Y-77855595D01*
X154073404Y-77998452D01*
X153501976Y-78569880D01*
X154121023Y-78569880D01*
%TO.C,J11*%
X110950476Y-89355380D02*
X110950476Y-90069666D01*
X110902857Y-90212523D01*
X110807619Y-90307761D01*
X110664761Y-90355380D01*
X110569523Y-90355380D01*
X111950476Y-90355380D02*
X111379047Y-90355380D01*
X111664761Y-90355380D02*
X111664761Y-89355380D01*
X111569523Y-89498238D01*
X111474285Y-89593476D01*
X111379047Y-89641095D01*
X112902857Y-90355380D02*
X112331428Y-90355380D01*
X112617142Y-90355380D02*
X112617142Y-89355380D01*
X112521904Y-89498238D01*
X112426666Y-89593476D01*
X112331428Y-89641095D01*
%TO.C,J12*%
X127587476Y-64399880D02*
X127587476Y-65114166D01*
X127539857Y-65257023D01*
X127444619Y-65352261D01*
X127301761Y-65399880D01*
X127206523Y-65399880D01*
X128587476Y-65399880D02*
X128016047Y-65399880D01*
X128301761Y-65399880D02*
X128301761Y-64399880D01*
X128206523Y-64542738D01*
X128111285Y-64637976D01*
X128016047Y-64685595D01*
X128968428Y-64495119D02*
X129016047Y-64447500D01*
X129111285Y-64399880D01*
X129349380Y-64399880D01*
X129444619Y-64447500D01*
X129492238Y-64495119D01*
X129539857Y-64590357D01*
X129539857Y-64685595D01*
X129492238Y-64828452D01*
X128920809Y-65399880D01*
X129539857Y-65399880D01*
%TD*%
M02*
