M48
; DRILL file {KiCad 5.1.5-52549c5~84~ubuntu18.04.1} date Mon 16 Mar 2020 16:28:42 NZDT
; FORMAT={-:-/ absolute / inch / decimal}
; #@! TF.CreationDate,2020-03-16T16:28:42+13:00
; #@! TF.GenerationSoftware,Kicad,Pcbnew,5.1.5-52549c5~84~ubuntu18.04.1
; #@! TF.FileFunction,Plated,1,2,PTH
FMAT,2
INCH
T1C0.0394
T2C0.0472
T3C0.0512
T4C0.0591
T5C0.0787
T6C0.1378
T7C0.1575
%
G90
G05
T1
X2.5325Y-3.215
X2.7025Y-4.0925
X2.7275Y-1.6225
X2.79Y-4.37
X2.8525Y-3.325
X2.855Y-3.1125
X2.9Y-2.4825
X2.93Y-3.175
X3.2841Y-3.395
X3.2841Y-3.7091
X3.285Y-2.7223
X3.285Y-3.05
X3.38Y-4.255
X3.525Y-3.7675
X3.6625Y-3.045
X3.77Y-4.675
X3.8125Y-2.6825
X3.8249Y-2.8751
X3.8325Y-3.9125
X3.8507Y-2.7843
X3.855Y-2.14
X3.9925Y-4.575
X4.03Y-3.3025
X4.065Y-2.3175
X4.2Y-4.3675
X4.2125Y-2.995
X4.25Y-2.625
X4.2775Y-3.265
X4.4675Y-4.485
X4.6375Y-4.2225
X4.7225Y-4.285
X4.7525Y-4.63
X4.9134Y-4.4775
X4.9435Y-4.0285
X5.0479Y-3.7121
X5.0583Y-4.4758
X5.0625Y-2.2775
X5.13Y-1.965
X5.185Y-3.1225
X5.2875Y-2.1125
X5.36Y-4.1925
X5.39Y-3.9475
X5.3925Y-3.835
X3.65Y-3.925
X3.65Y-4.025
X3.65Y-4.125
X3.35Y-3.925
X3.35Y-4.025
X3.35Y-4.125
X3.65Y-2.3
X3.65Y-2.4
X3.65Y-2.5
T2
X2.7Y-2.74
X2.7Y-3.74
T3
X4.955Y-5.005
X3.36Y-3.225
X7.2374Y-4.5924
X4.7125Y-5.005
X4.425Y-4.95
X7.4205Y-4.4094
X4.1Y-3.7766
X4.1Y-3.9734
X4.4937Y-3.875
X5.5325Y-4.595
X2.7225Y-2.5925
X7.2374Y-4.4094
X5.5275Y-4.425
X3.5325Y-3.2275
X4.45Y-1.475
T4
X3.35Y-1.475
X4.2398Y-1.475
X2.5575Y-3.9725
X2.5575Y-4.1871
X2.5575Y-4.4016
X2.5575Y-4.6325
X2.5575Y-4.8471
X2.5575Y-5.0616
X2.5575Y-2.0784
X2.5575Y-2.2929
X2.5575Y-2.5075
X3.325Y-4.95
X4.2148Y-4.95
X2.5575Y-1.4034
X2.5575Y-1.6179
X2.5575Y-1.8325
T5
X4.675Y-2.795
X5.475Y-2.8
T6
X3.5Y-3.525
X3.5Y-4.525
X3.5Y-1.9
X3.5Y-2.9
T7
X3.0975Y-2.0925
X3.1Y-4.3925
T0
M30
